<?xml version="1.0" encoding="UTF-8" standalone="no"?>
<svg
   viewBox="0 0 150 150"
   version="1.1"
   id="svg120"
   sodipodi:docname="Audio-IEEE-Microphone.svg"
   xmlns:inkscape="http://www.inkscape.org/namespaces/inkscape"
   xmlns:sodipodi="http://sodipodi.sourceforge.net/DTD/sodipodi-0.dtd"
   xmlns="http://www.w3.org/2000/svg"
   xmlns:svg="http://www.w3.org/2000/svg">
  <defs
     id="defs124" />
  <sodipodi:namedview
     id="namedview122"
     pagecolor="#ffffff"
     bordercolor="#000000"
     borderopacity="0.25"
     inkscape:showpageshadow="2"
     inkscape:pageopacity="0.0"
     inkscape:pagecheckerboard="0"
     inkscape:deskcolor="#d1d1d1" />
  <path
     style="color:#000000;fill:#000000;stroke-miterlimit:10;-inkscape-stroke:none"
     d="m 118.75,10 c 0,0 -17.6511,-0.03519 -35.410156,8.037109 -11.740694,5.336679 -23.504268,14.581583 -30.208985,29.44336 l -53.115234,-0.320313 -0.03125,5 51.107422,0.308594 C 48.861297,58.987872 47.5,66.405673 47.5,75 c 0,8.59169 1.360605,16.007672 3.589844,22.525391 l -51.10156275,0.253906 0.0234375,5.000003 53.11718725,-0.26367 c 6.704397,14.86408 18.469215,24.11011 30.210938,29.44726 C 101.0989,140.03519 118.75,140 118.75,140 h 2.5 V 10 Z m -2.5,5.107422 V 134.89258 c -5.07028,-0.28919 -17.838568,-1.5708 -30.839844,-7.48047 C 68.79425,119.85942 52.5,105.3333 52.5,75 52.5,44.666697 68.79425,30.140575 85.410156,22.587891 98.411432,16.67822 111.17972,15.396606 116.25,15.107422 Z"
     id="path118" />
</svg>
