<svg xmlns="http://www.w3.org/2000/svg" viewBox="0 0 150 150"><path d="M118.75 10s-17.651-.035-35.41 8.037C71.6 23.374 59.836 32.62 53.13 47.48L.017 47.16l-.032 5 51.108.309C48.862 58.988 47.5 66.406 47.5 75c0 8.592 1.36 16.008 3.59 22.525l-51.102.254.024 5 53.117-.263c6.704 14.864 18.47 24.11 30.21 29.447C101.1 140.035 118.75 140 118.75 140h2.5V10Zm-2.5 5.107v119.786c-5.07-.29-17.839-1.571-30.84-7.48C68.794 119.858 52.5 105.332 52.5 75s16.294-44.86 32.91-52.412c13.001-5.91 25.77-7.191 30.84-7.48" style="color:#000;fill:#000;stroke-miterlimit:10;-inkscape-stroke:none"/></svg>