<?xml version="1.0" encoding="UTF-8" standalone="no"?>
<svg
   viewBox="0 0 150 150"
   version="1.1"
   id="svg56"
   sodipodi:docname="Audio-COM-Buzzer.svg"
   xmlns:inkscape="http://www.inkscape.org/namespaces/inkscape"
   xmlns:sodipodi="http://sodipodi.sourceforge.net/DTD/sodipodi-0.dtd"
   xmlns="http://www.w3.org/2000/svg"
   xmlns:svg="http://www.w3.org/2000/svg">
  <defs
     id="defs60" />
  <sodipodi:namedview
     id="namedview58"
     pagecolor="#ffffff"
     bordercolor="#000000"
     borderopacity="0.25"
     inkscape:showpageshadow="2"
     inkscape:pageopacity="0.0"
     inkscape:pagecheckerboard="0"
     inkscape:deskcolor="#d1d1d1" />
  <g
     fill="none"
     stroke="#000"
     stroke-miterlimit="10"
     stroke-width="5"
     id="g54">
    <path
       style="color:#000000;fill:#000000;stroke-miterlimit:10;-inkscape-stroke:none"
       d="m 22.5,10 v 2.5 c 0,0 -0.03446,13.020916 6.513672,26.117187 C 35.561808,51.713459 49.166692,65 75,65 100.83331,65 114.43819,51.713459 120.98633,38.617187 127.53446,25.520916 127.5,12.5 127.5,12.5 V 10 Z m 5.253906,5 h 94.492184 c -0.14647,3.054982 -0.77562,11.469215 -5.73242,21.382812 C 110.56182,48.286516 99.166643,60 75,60 50.833357,60 39.43818,48.286516 33.486328,36.382812 28.529529,26.469215 27.900385,18.054982 27.753906,15 Z"
       id="path50" />
    <path
       style="color:#000000;fill:#000000;stroke-miterlimit:10;-inkscape-stroke:none"
       d="M 47.5,56.25 V 72.189453 H 0 v 5 H 52.5 V 56.25 Z m 50,0 V 77.5 H 150 v -5 H 102.5 V 56.25 Z"
       id="path52" />
  </g>
</svg>
