<svg xmlns="http://www.w3.org/2000/svg" viewBox="0 0 150 150"><g><path d="M22.5 10v2.5s-.034 13.02 6.514 26.117C35.562 51.713 49.167 65 75 65s39.438-13.287 45.986-26.383S127.5 12.5 127.5 12.5V10Zm5.254 5h94.492c-.146 3.055-.776 11.47-5.732 21.383C110.562 48.287 99.167 60 75 60S39.438 48.287 33.486 36.383C28.53 26.469 27.9 18.055 27.754 15Z" style="color:#000;fill:#000;stroke-miterlimit:10;-inkscape-stroke:none"/><path d="M47.5 56.25v15.94H0v5h52.5V56.25Zm50 0V77.5H150v-5h-47.5V56.25Z" style="color:#000;fill:#000;stroke-miterlimit:10;-inkscape-stroke:none"/></g></svg>