<?xml version="1.0" encoding="UTF-8" standalone="no"?>
<svg
   viewBox="0 0 150 150"
   version="1.1"
   id="svg136"
   sodipodi:docname="Capacitor-COM-Feedthrough.svg"
   xmlns:inkscape="http://www.inkscape.org/namespaces/inkscape"
   xmlns:sodipodi="http://sodipodi.sourceforge.net/DTD/sodipodi-0.dtd"
   xmlns="http://www.w3.org/2000/svg"
   xmlns:svg="http://www.w3.org/2000/svg">
  <defs
     id="defs140" />
  <sodipodi:namedview
     id="namedview138"
     pagecolor="#ffffff"
     bordercolor="#000000"
     borderopacity="0.25"
     inkscape:showpageshadow="2"
     inkscape:pageopacity="0.0"
     inkscape:pagecheckerboard="0"
     inkscape:deskcolor="#d1d1d1" />
  <path
     style="color:#000000;fill:#000000;stroke-miterlimit:10;-inkscape-stroke:none"
     d="m 26.117187,47.763672 -2.234375,4.472656 C 23.882812,52.236328 49.166692,65 75,65 c 25.83331,0 51.11719,-12.763672 51.11719,-12.763672 l -2.23438,-4.472656 C 123.88281,47.763672 99.166642,60 75,60 50.833357,60 26.117187,47.763672 26.117187,47.763672 Z M 0,72 v 5 H 150 V 72 Z M 75,85 C 49.166692,85 23.882813,97.763672 23.882812,97.763672 l 2.234375,4.472658 c 0,0 23.044177,-11.303247 46.382813,-12.091799 V 150 h 5 V 90.144531 c 23.33864,0.788552 46.38281,12.091799 46.38281,12.091799 l 2.23438,-4.472658 C 126.11719,97.763672 100.83331,85 75,85 Z"
     id="path134" />
</svg>
