<?xml version="1.0" encoding="UTF-8" standalone="no"?>
<svg
   viewBox="0 0 150 150"
   version="1.1"
   id="svg501"
   sodipodi:docname="Fuse-IEEE-Alt.svg"
   xmlns:inkscape="http://www.inkscape.org/namespaces/inkscape"
   xmlns:sodipodi="http://sodipodi.sourceforge.net/DTD/sodipodi-0.dtd"
   xmlns="http://www.w3.org/2000/svg"
   xmlns:svg="http://www.w3.org/2000/svg">
  <defs
     id="defs505" />
  <sodipodi:namedview
     id="namedview503"
     pagecolor="#ffffff"
     bordercolor="#000000"
     borderopacity="0.25"
     inkscape:showpageshadow="2"
     inkscape:pageopacity="0.0"
     inkscape:pagecheckerboard="0"
     inkscape:deskcolor="#d1d1d1" />
  <path
     style="color:#000000;fill:#000000;stroke-miterlimit:10;-inkscape-stroke:none"
     d="m 50,47.5 c -13.33332,0 -20.688189,7.036535 -24.111328,13.882812 -2.423124,4.846249 -2.951658,8.742577 -3.148438,11.138672 L -0.02539063,72.75 0.02539063,77.75 27.5,77.474609 V 75 c 0,0 0.03447,-5.729103 2.861328,-11.382813 C 33.188183,57.963478 38.333345,52.5 50,52.5 61.666655,52.5 66.811817,57.963478 69.638672,63.617187 72.465527,69.270897 72.5,75 72.5,75 c 0,0 -0.03447,6.77091 3.388672,13.617187 C 79.311811,95.463465 86.66668,102.5 100,102.5 c 13.33332,0 20.68819,-7.036535 24.11133,-13.882813 C 126.52579,83.788266 127.0582,79.90469 127.25781,77.5 H 150 v -5 H 122.5 V 75 c 0,0 -0.0345,5.729103 -2.86133,11.382812 C 116.81182,92.036522 111.66666,97.5 100,97.5 88.333345,97.5 83.188183,92.036522 80.361328,86.382812 77.534473,80.729103 77.5,75 77.5,75 c 0,0 0.03447,-6.77091 -3.388672,-13.617188 C 70.688189,54.536535 63.33332,47.5 50,47.5 Z"
     id="path499" />
</svg>
