<svg xmlns="http://www.w3.org/2000/svg" viewBox="0 0 150 150"><path d="M50 47.5c-13.333 0-20.688 7.037-24.111 13.883-2.423 4.846-2.952 8.742-3.149 11.138l-22.765.229.05 5 27.475-.275V75s.034-5.73 2.861-11.383C33.188 57.963 38.333 52.5 50 52.5s16.812 5.463 19.639 11.117S72.5 75 72.5 75s-.034 6.77 3.389 13.617C79.312 95.463 86.667 102.5 100 102.5s20.688-7.037 24.111-13.883c2.415-4.829 2.947-8.712 3.147-11.117H150v-5h-27.5V75s-.034 5.73-2.861 11.383C116.812 92.037 111.667 97.5 100 97.5s-16.812-5.463-19.639-11.117S77.5 75 77.5 75s.034-6.77-3.389-13.617C70.688 54.537 63.333 47.5 50 47.5" style="color:#000;fill:#000;stroke-miterlimit:10;-inkscape-stroke:none"/></svg>