<svg xmlns="http://www.w3.org/2000/svg" viewBox="0 0 150 150"><g><path d="m26.578 35 2.592 3.887s2.138 3.566 4.525 8.424H0v5h36.01c2.725 6.551 5.24 14.665 5.24 22.689 0 7.972-2.483 16.03-5.187 22.56H0v5h33.76c-2.417 4.938-4.59 8.553-4.59 8.553L26.578 115H56.25c39.167 0 58.486-38.883 58.486-38.883l.559-1.117-.559-1.117S95.416 35 56.25 35Zm9.08 5H56.25c34.06 0 51.63 31.769 53.34 35-1.71 3.231-19.28 35-53.34 35H35.658c3.708-6.5 10.592-20.448 10.592-35s-6.884-28.5-10.592-35ZM134.5 72.63v5H150v-5z" style="color:#000;fill:#000;stroke-miterlimit:10;-inkscape-stroke:none"/><path d="M124.88 63.12C118.35 63.12 113 68.467 113 75s5.35 11.88 11.88 11.88c6.532 0 11.88-5.348 11.88-11.88s-5.348-11.88-11.88-11.88zm0 5a6.84 6.84 0 0 1 6.88 6.88c0 3.83-3.05 6.88-6.88 6.88A6.844 6.844 0 0 1 118 75c0-3.83 3.052-6.88 6.88-6.88zM20.846 35.686l-4.192 2.728S28.75 57.361 28.75 75s-12.08 36.113-12.08 36.113l4.16 2.774S33.75 94.86 33.75 75 20.846 35.686 20.846 35.686Z" style="color:#000;fill:#000;stroke-miterlimit:10;-inkscape-stroke:none"/></g></svg>