<svg xmlns="http://www.w3.org/2000/svg" viewBox="0 0 150 150"><g><path d="m26.578 35 2.592 3.887s2.138 3.566 4.525 8.424H0v5h36.01c2.725 6.551 5.24 14.665 5.24 22.689 0 7.972-2.483 16.03-5.187 22.56H0v5h33.76c-2.417 4.938-4.59 8.553-4.59 8.553L26.578 115H56.25c36.938 0 55.585-33.565 57.66-37.5H150v-5h-36.09C111.835 68.565 93.188 35 56.25 35Zm9.08 5H56.25c34.06 0 51.63 31.769 53.34 35-1.71 3.231-19.28 35-53.34 35H35.658c3.708-6.5 10.592-20.448 10.592-35s-6.884-28.5-10.592-35Z" style="color:#000;fill:#000;stroke-miterlimit:10;-inkscape-stroke:none"/><path d="m20.848 36.139-4.196 2.722s12.098 19 12.098 36.639-12.08 36.113-12.08 36.113l4.16 2.774S33.75 95.36 33.75 75.5 20.848 36.139 20.848 36.139z" style="color:#000;fill:#000;stroke-miterlimit:10;-inkscape-stroke:none"/></g></svg>