<?xml version="1.0" encoding="UTF-8" standalone="no"?>
<svg
   viewBox="0 0 150 150"
   version="1.1"
   id="svg874"
   sodipodi:docname="IC-COM-Logic-Inverter.svg"
   xmlns:inkscape="http://www.inkscape.org/namespaces/inkscape"
   xmlns:sodipodi="http://sodipodi.sourceforge.net/DTD/sodipodi-0.dtd"
   xmlns="http://www.w3.org/2000/svg"
   xmlns:svg="http://www.w3.org/2000/svg">
  <defs
     id="defs878" />
  <sodipodi:namedview
     id="namedview876"
     pagecolor="#ffffff"
     bordercolor="#000000"
     borderopacity="0.25"
     inkscape:showpageshadow="2"
     inkscape:pageopacity="0.0"
     inkscape:pagecheckerboard="0"
     inkscape:deskcolor="#d1d1d1" />
  <g
     fill="none"
     stroke="#000"
     stroke-miterlimit="10"
     stroke-width="5"
     id="g872">
    <path
       style="color:#000000;fill:#000000;stroke-miterlimit:10;-inkscape-stroke:none"
       d="M 19.5,33.757812 V 37.5 72.5 H 0 v 5 h 19.5 v 38.74219 L 119.03125,75 Z m 5,7.484375 L 105.9668,75 24.5,108.75781 Z M 137.75,72.5 v 5 H 150 v -5 z"
       id="path868" />
    <path
       style="color:#000000;fill:#000000;stroke-miterlimit:10;-inkscape-stroke:none"
       d="M 128.13086,63 C 121.59933,63 116.25,68.349335 116.25,74.880859 c 0,6.531525 5.34933,11.878907 11.88086,11.878907 6.53152,0 11.87891,-5.347382 11.87891,-11.878907 C 140.00977,68.349335 134.66238,63 128.13086,63 Z m 0,5 c 3.82933,0 6.87891,3.051532 6.87891,6.880859 0,3.829327 -3.04958,6.878907 -6.87891,6.878907 -3.82933,0 -6.88086,-3.04958 -6.88086,-6.878907 C 121.25,71.051532 124.30153,68 128.13086,68 Z"
       id="circle870" />
  </g>
</svg>
