<?xml version="1.0" encoding="UTF-8" standalone="no"?>
<svg
   viewBox="0 0 150 150"
   version="1.1"
   id="svg838"
   sodipodi:docname="IC-COM-Logic-AND.svg"
   xmlns:inkscape="http://www.inkscape.org/namespaces/inkscape"
   xmlns:sodipodi="http://sodipodi.sourceforge.net/DTD/sodipodi-0.dtd"
   xmlns="http://www.w3.org/2000/svg"
   xmlns:svg="http://www.w3.org/2000/svg">
  <defs
     id="defs842" />
  <sodipodi:namedview
     id="namedview840"
     pagecolor="#ffffff"
     bordercolor="#000000"
     borderopacity="0.25"
     inkscape:showpageshadow="2"
     inkscape:pageopacity="0.0"
     inkscape:pagecheckerboard="0"
     inkscape:deskcolor="#d1d1d1" />
  <path
     style="color:#000000;fill:#000000;stroke-miterlimit:10;-inkscape-stroke:none"
     d="m 28.75,35 v 2.5 9.810547 H 0 v 5 h 28.75 v 45.25 H 0 v 5.000003 H 28.75 V 115 h 27.5 c 9.374991,0 23.724918,0.0764 36.083984,-4.86719 C 104.13571,105.41212 113.96045,95.433537 114.83203,77.5 H 150 v -5 H 114.83203 C 113.96045,54.566463 104.13571,44.58788 92.333984,39.867187 79.974918,34.923561 65.624991,35 56.25,35 Z m 5,5 h 22.5 c 9.374991,0 23.150105,0.07645 34.228516,4.507812 C 101.55693,48.939177 110,57.083351 110,75 110,92.916649 101.55693,101.06082 90.478516,105.49219 79.400105,109.92355 65.624991,110 56.25,110 h -22.5 z"
     id="path836" />
</svg>
