<svg xmlns="http://www.w3.org/2000/svg" viewBox="0 0 150 150"><path d="M22.5 10v37.5H0v5h22.5v45H0v5h22.5V140h105v-37.5H150v-5h-22.5v-45H150v-5h-22.5V10Zm5 5h95v120h-95z" style="color:#000;fill:#000;stroke-miterlimit:10;-inkscape-stroke:none"/><path d="m111.57 53.9 2 1.29-1.36 3.16-2-1.44a4.78 4.78 0 0 1-4 2.34 5.08 5.08 0 0 1-4.48-2.46 12.5 12.5 0 0 1-1.73-6.91 12.5 12.5 0 0 1 1.62-6.88 5.15 5.15 0 0 1 8.79 0 12.5 12.5 0 0 1 1.59 6.88c0 3.18-.43 4.02-.43 4.02m-2.37-1.33a13.5 13.5 0 0 0 .24-2.69 9.25 9.25 0 0 0-.94-4.7 2.76 2.76 0 0 0-5 0 9.2 9.2 0 0 0-1 4.69 9.44 9.44 0 0 0 1 4.75 2.84 2.84 0 0 0 2.41 1.58 2.41 2.41 0 0 0 1.9-.85l-2-1.44 1.52-2.66M37 53l3.14-.34a4.57 4.57 0 0 0 1.15 2.63 3.23 3.23 0 0 0 2.34.84 3.3 3.3 0 0 0 2.37-.72 2.32 2.32 0 0 0 .79-1.75 1.8 1.8 0 0 0-.33-1.09 2.7 2.7 0 0 0-1.16-.79c-.38-.14-1.24-.41-2.59-.79a8.24 8.24 0 0 1-3.64-1.79 5 5 0 0 1-1.47-3.64 5.1 5.1 0 0 1 .67-2.56 4.5 4.5 0 0 1 2-1.84 7.2 7.2 0 0 1 3.15-.63A6.2 6.2 0 0 1 47.94 42a5.55 5.55 0 0 1 1.6 4l-3.23.16a3.2 3.2 0 0 0-.89-2 2.94 2.94 0 0 0-2-.61 3.4 3.4 0 0 0-2.2.65 1.37 1.37 0 0 0-.52 1.13 1.47 1.47 0 0 0 .48 1.1 7.9 7.9 0 0 0 3 1.21 14.3 14.3 0 0 1 3.48 1.3 4.74 4.74 0 0 1 1.77 1.84 5.94 5.94 0 0 1 .57 2.87 5.86 5.86 0 0 1-.76 2.92 4.8 4.8 0 0 1-2.16 2 8.1 8.1 0 0 1-3.48.66 6.4 6.4 0 0 1-4.66-1.59A7.3 7.3 0 0 1 37 53"/><path d="M34.5 31.75v5h18.75v-5z" style="color:#000;fill:#000;stroke-miterlimit:10;-inkscape-stroke:none"/><path d="M37.5 109.25V90.79h5.91a7.9 7.9 0 0 1 3.24.49 3.65 3.65 0 0 1 1.61 1.77 6.6 6.6 0 0 1 .61 2.95 6 6 0 0 1-.87 3.39 4 4 0 0 1-2.75 1.71 7 7 0 0 1 1.5 1.55 21 21 0 0 1 1.6 3l1.7 3.6h-3.41l-2-4a26 26 0 0 0-1.48-2.71 2.14 2.14 0 0 0-.84-.77 3.5 3.5 0 0 0-1.41-.21h-.57v7.71Zm2.81-10.66h2.07a8.4 8.4 0 0 0 2.53-.22 1.64 1.64 0 0 0 .78-.78A3 3 0 0 0 46 96.2a2.7 2.7 0 0 0-.38-1.5 1.6 1.6 0 0 0-1.07-.7 19 19 0 0 0-2-.06h-2.24Z"/><path d="M34.5 81.75v5h18.75v-5z" style="color:#000;fill:#000;stroke-miterlimit:10;-inkscape-stroke:none"/><path d="m111.57 103.9 2 1.29-1.36 3.16-2-1.44a4.78 4.78 0 0 1-4 2.34 5.08 5.08 0 0 1-4.48-2.46 12.5 12.5 0 0 1-1.73-6.91 12.5 12.5 0 0 1 1.62-6.88 5.15 5.15 0 0 1 8.79 0 12.5 12.5 0 0 1 1.59 6.88c0 3.18-.43 4.02-.43 4.02m-2.37-1.33a13.5 13.5 0 0 0 .24-2.69 9.25 9.25 0 0 0-.94-4.7 2.76 2.76 0 0 0-5 0 9.2 9.2 0 0 0-1 4.69 9.44 9.44 0 0 0 1 4.75 2.84 2.84 0 0 0 2.41 1.58 2.41 2.41 0 0 0 1.9-.85l-2-1.44 1.52-2.66"/><path d="M97 81.75v5h18.75v-5z" style="color:#000;fill:#000;stroke-miterlimit:10;-inkscape-stroke:none"/></svg>