<svg xmlns="http://www.w3.org/2000/svg" viewBox="0 0 150 150"><g><path d="M28.75 35v12.31H0v5h28.75v45.25H0v5h28.75V115h27.5c9.375 0 23.725.076 36.084-4.867C104.693 105.189 115 94.583 115 75s-10.307-30.19-22.666-35.133S65.625 35 56.25 35Zm5 5h22.5c9.375 0 23.15.076 34.229 4.508C101.557 48.939 110 57.083 110 75s-8.443 26.06-19.521 30.492S65.625 110 56.25 110h-22.5ZM134.5 72.5v5H150v-5z" style="color:#000;fill:#000;stroke-miterlimit:10;-inkscape-stroke:none"/><path d="M124.88 63C118.35 63 113 68.35 113 74.88c0 6.532 5.35 11.88 11.88 11.88 6.532 0 11.88-5.348 11.88-11.88 0-6.53-5.348-11.88-11.88-11.88Zm0 5a6.84 6.84 0 0 1 6.88 6.88 6.84 6.84 0 0 1-6.88 6.88c-3.828 0-6.88-3.05-6.88-6.88 0-3.828 3.052-6.88 6.88-6.88Z" style="color:#000;fill:#000;stroke-miterlimit:10;-inkscape-stroke:none"/></g></svg>