<svg xmlns="http://www.w3.org/2000/svg" viewBox="0 0 150 150"><path d="M22.5 10v37.5H0v5h22.5v45H0v5h22.5V140h105v-37.5H150v-5h-22.5v-45H150v-5h-22.5V10Zm5 5h95v120h-95z" style="color:#000;fill:#000;stroke-miterlimit:10;-inkscape-stroke:none"/><path d="m111.57 53.9 2 1.29-1.36 3.16-2-1.44a4.78 4.78 0 0 1-4 2.34 5.08 5.08 0 0 1-4.48-2.46 12.5 12.5 0 0 1-1.73-6.91 12.5 12.5 0 0 1 1.62-6.88 5.15 5.15 0 0 1 8.79 0 12.5 12.5 0 0 1 1.59 6.88c0 3.18-.43 4.02-.43 4.02m-2.37-1.33a13.5 13.5 0 0 0 .24-2.69 9.25 9.25 0 0 0-.94-4.7 2.76 2.76 0 0 0-5 0 9.2 9.2 0 0 0-1 4.69 9.44 9.44 0 0 0 1 4.75 2.84 2.84 0 0 0 2.41 1.58 2.41 2.41 0 0 0 1.9-.85l-2-1.44 1.52-2.66m4.24 52.65 2 1.29-1.36 3.16-2-1.44a4.78 4.78 0 0 1-4 2.34 5.08 5.08 0 0 1-4.48-2.46 12.5 12.5 0 0 1-1.73-6.91 12.5 12.5 0 0 1 1.62-6.88 5.15 5.15 0 0 1 8.79 0 12.5 12.5 0 0 1 1.59 6.88c0 3.18-.43 4.02-.43 4.02m-2.37-1.33a13.5 13.5 0 0 0 .24-2.69 9.25 9.25 0 0 0-.94-4.7 2.76 2.76 0 0 0-5 0 9.2 9.2 0 0 0-1 4.69 9.44 9.44 0 0 0 1 4.75 2.84 2.84 0 0 0 2.41 1.58 2.41 2.41 0 0 0 1.9-.85l-2-1.44 1.52-2.66"/><path d="M97 81.75v5h18.75v-5z" style="color:#000;fill:#000;stroke-miterlimit:10;-inkscape-stroke:none"/><path d="M37.5 109.21V90.75h12.19v3.12h-8.87V98h8.25v3.11h-8.25v5H50v3.11Zm0-68.42H43a8.7 8.7 0 0 1 2.84.35 5 5 0 0 1 2.25 1.7 8.6 8.6 0 0 1 1.42 3 16.4 16.4 0 0 1 .49 4.35 14.6 14.6 0 0 1-.46 3.93A8.7 8.7 0 0 1 48 57.39a5.2 5.2 0 0 1-2.12 1.47 7.4 7.4 0 0 1-2.66.39H37.5Zm3 3.12v12.23h2.25a6.5 6.5 0 0 0 1.83-.14 2.53 2.53 0 0 0 1.21-.77 4.06 4.06 0 0 0 .79-1.78 14.3 14.3 0 0 0 .31-3.45 13.2 13.2 0 0 0-.31-3.29 4.5 4.5 0 0 0-.85-1.71 2.7 2.7 0 0 0-1.4-.87 10.8 10.8 0 0 0-2.47-.18Z"/></svg>