<?xml version="1.0" encoding="UTF-8" standalone="no"?>
<svg
   viewBox="0 0 150 150"
   version="1.1"
   id="svg900"
   sodipodi:docname="IC-COM-Logic-NAND.svg"
   xmlns:inkscape="http://www.inkscape.org/namespaces/inkscape"
   xmlns:sodipodi="http://sodipodi.sourceforge.net/DTD/sodipodi-0.dtd"
   xmlns="http://www.w3.org/2000/svg"
   xmlns:svg="http://www.w3.org/2000/svg">
  <defs
     id="defs904" />
  <sodipodi:namedview
     id="namedview902"
     pagecolor="#ffffff"
     bordercolor="#000000"
     borderopacity="0.25"
     inkscape:showpageshadow="2"
     inkscape:pageopacity="0.0"
     inkscape:pagecheckerboard="0"
     inkscape:deskcolor="#d1d1d1" />
  <g
     fill="none"
     stroke="#000"
     stroke-miterlimit="10"
     stroke-width="5"
     id="g898">
    <path
       style="color:#000000;fill:#000000;stroke-miterlimit:10;-inkscape-stroke:none"
       d="m 28.75,35 v 2.5 9.810547 H 0 v 5 h 28.75 v 45.25 H 0 v 5.000003 H 28.75 V 115 h 27.5 c 9.374991,0 23.724918,0.0764 36.083984,-4.86719 C 104.69305,105.18919 115,94.583314 115,75 115,55.416686 104.69305,44.810814 92.333984,39.867187 79.974918,34.923561 65.624991,35 56.25,35 Z m 5,5 h 22.5 c 9.374991,0 23.150105,0.07645 34.228516,4.507812 C 101.55693,48.939177 110,57.083351 110,75 110,92.916649 101.55693,101.06082 90.478516,105.49219 79.400105,109.92355 65.624991,110 56.25,110 H 33.75 Z M 134.5,72.5 v 5 H 150 v -5 z"
       id="path894" />
    <path
       style="color:#000000;fill:#000000;stroke-miterlimit:10;-inkscape-stroke:none"
       d="M 124.88086,63 C 118.34933,63 113,68.349335 113,74.880859 c 0,6.531525 5.34933,11.878907 11.88086,11.878907 6.53152,0 11.87891,-5.347382 11.87891,-11.878907 C 136.75977,68.349335 131.41238,63 124.88086,63 Z m 0,5 c 3.82933,0 6.87891,3.051532 6.87891,6.880859 0,3.829327 -3.04958,6.878907 -6.87891,6.878907 C 121.05153,81.759766 118,78.710186 118,74.880859 118,71.051532 121.05153,68 124.88086,68 Z"
       id="circle896" />
  </g>
</svg>
