<svg xmlns="http://www.w3.org/2000/svg" viewBox="0 0 150 150"><path d="M22.5 10v37.5H0v5h22.5v45H0v5h22.5V140h105v-37.5H150v-5h-22.5v-45H150v-5h-22.5V10Zm5 5h95v120h-95z" style="color:#000;fill:#000;stroke-miterlimit:10;-inkscape-stroke:none"/><path d="m111.57 53.9 2 1.29-1.36 3.16-2-1.44a4.78 4.78 0 0 1-4 2.34 5.08 5.08 0 0 1-4.48-2.46 12.5 12.5 0 0 1-1.73-6.91 12.5 12.5 0 0 1 1.62-6.88 5.15 5.15 0 0 1 8.79 0 12.5 12.5 0 0 1 1.59 6.88c0 3.18-.43 4.02-.43 4.02m-2.37-1.33a13.5 13.5 0 0 0 .24-2.69 9.25 9.25 0 0 0-.94-4.7 2.76 2.76 0 0 0-5 0 9.2 9.2 0 0 0-1 4.69 9.44 9.44 0 0 0 1 4.75 2.84 2.84 0 0 0 2.41 1.58 2.41 2.41 0 0 0 1.9-.85l-2-1.44 1.52-2.66m4.24 52.65 2 1.29-1.36 3.16-2-1.44a4.78 4.78 0 0 1-4 2.34 5.08 5.08 0 0 1-4.48-2.46 12.5 12.5 0 0 1-1.73-6.91 12.5 12.5 0 0 1 1.62-6.88 5.15 5.15 0 0 1 8.79 0 12.5 12.5 0 0 1 1.59 6.88c0 3.18-.43 4.02-.43 4.02m-2.37-1.33a13.5 13.5 0 0 0 .24-2.69 9.25 9.25 0 0 0-.94-4.7 2.76 2.76 0 0 0-5 0 9.2 9.2 0 0 0-1 4.69 9.44 9.44 0 0 0 1 4.75 2.84 2.84 0 0 0 2.41 1.58 2.41 2.41 0 0 0 1.9-.85l-2-1.44 1.52-2.66"/><path d="M97 81.75v5h18.75v-5zm-74.5 1.705v33.09L55.59 100Zm5 8.09L44.41 100l-16.91 8.455Z" style="color:#000;fill:#000;stroke-miterlimit:10;-inkscape-stroke:none"/><path d="M42.17 59.25V43.67H37.5V40.5H50v3.17h-4.66v15.58Z"/></svg>