<?xml version="1.0" encoding="UTF-8" standalone="no"?>
<svg
   viewBox="0 0 150 150"
   version="1.1"
   id="svg1047"
   sodipodi:docname="IC-COM-Schmitt-Inverted.svg"
   xmlns:inkscape="http://www.inkscape.org/namespaces/inkscape"
   xmlns:sodipodi="http://sodipodi.sourceforge.net/DTD/sodipodi-0.dtd"
   xmlns="http://www.w3.org/2000/svg"
   xmlns:svg="http://www.w3.org/2000/svg">
  <defs
     id="defs1051" />
  <sodipodi:namedview
     id="namedview1049"
     pagecolor="#ffffff"
     bordercolor="#000000"
     borderopacity="0.25"
     inkscape:showpageshadow="2"
     inkscape:pageopacity="0.0"
     inkscape:pagecheckerboard="0"
     inkscape:deskcolor="#d1d1d1" />
  <g
     fill="none"
     stroke="#000"
     stroke-miterlimit="10"
     stroke-width="5"
     id="g1045">
    <path
       style="color:#000000;fill:#000000;stroke-miterlimit:10;-inkscape-stroke:none"
       d="M 16.5,20.955078 V 25 72.5 H 0 v 5 h 16.5 v 51.54492 L 124.58984,75 Z m 5,8.089844 L 113.41016,75 21.5,120.95508 Z M 137.5,72.5 v 5 H 150 v -5 z"
       id="path1037" />
    <path
       style="color:#000000;fill:#000000;stroke-miterlimit:10;-inkscape-stroke:none"
       d="m 31.5,63.25 v 5 H 60.25 V 84.5 h 5 V 63.25 Z"
       id="path1039" />
    <path
       style="color:#000000;fill:#000000;stroke-miterlimit:10;-inkscape-stroke:none"
       d="M 44.5,65.75 V 87 h 34 v -5 h -29 V 65.75 Z"
       id="path1041" />
    <path
       style="color:#000000;fill:#000000;stroke-miterlimit:10;-inkscape-stroke:none"
       d="m 131.5,66.25 c -4.80288,0 -8.75,3.947125 -8.75,8.75 0,4.802875 3.94712,8.75 8.75,8.75 4.80288,0 8.75,-3.947125 8.75,-8.75 0,-4.802875 -3.94712,-8.75 -8.75,-8.75 z m 0,5 c 2.10068,0 3.75,1.649323 3.75,3.75 0,2.100677 -1.64932,3.75 -3.75,3.75 -2.10068,0 -3.75,-1.649323 -3.75,-3.75 0,-2.100677 1.64932,-3.75 3.75,-3.75 z"
       id="circle1043" />
  </g>
</svg>
