<svg xmlns="http://www.w3.org/2000/svg" viewBox="0 0 150 150"><g><path d="M16.5 20.955V72.5H0v5h16.5v51.545L124.59 75Zm5 8.09L113.41 75 21.5 120.955Zm116 43.455v5H150v-5z" style="color:#000;fill:#000;stroke-miterlimit:10;-inkscape-stroke:none"/><path d="M31.5 63.25v5h28.75V84.5h5V63.25Z" style="color:#000;fill:#000;stroke-miterlimit:10;-inkscape-stroke:none"/><path d="M44.5 65.75V87h34v-5h-29V65.75Z" style="color:#000;fill:#000;stroke-miterlimit:10;-inkscape-stroke:none"/><path d="M131.5 66.25c-4.803 0-8.75 3.947-8.75 8.75s3.947 8.75 8.75 8.75 8.75-3.947 8.75-8.75-3.947-8.75-8.75-8.75zm0 5c2.1 0 3.75 1.65 3.75 3.75s-1.65 3.75-3.75 3.75-3.75-1.65-3.75-3.75 1.65-3.75 3.75-3.75z" style="color:#000;fill:#000;stroke-miterlimit:10;-inkscape-stroke:none"/></g></svg>