<?xml version="1.0" encoding="UTF-8" standalone="no"?>
<svg
   viewBox="0 0 150 150"
   version="1.1"
   id="svg948"
   sodipodi:docname="IC-COM-Logic-OR.svg"
   xmlns:inkscape="http://www.inkscape.org/namespaces/inkscape"
   xmlns:sodipodi="http://sodipodi.sourceforge.net/DTD/sodipodi-0.dtd"
   xmlns="http://www.w3.org/2000/svg"
   xmlns:svg="http://www.w3.org/2000/svg">
  <defs
     id="defs952" />
  <sodipodi:namedview
     id="namedview950"
     pagecolor="#ffffff"
     bordercolor="#000000"
     borderopacity="0.25"
     inkscape:showpageshadow="2"
     inkscape:pageopacity="0.0"
     inkscape:pagecheckerboard="0"
     inkscape:deskcolor="#d1d1d1" />
  <path
     style="color:#000000;fill:#000000;stroke-miterlimit:10;-inkscape-stroke:none"
     d="m 26.578125,35 2.591797,3.886719 c 0,0 2.137763,3.566643 4.52539,8.423828 H 0 v 5 H 36.009766 C 38.735,58.862495 41.25,66.97616 41.25,75 c 0,7.972014 -2.482856,16.029883 -5.1875,22.560547 H 0 v 5.000003 h 33.759766 c -2.417263,4.93725 -4.589844,8.55273 -4.589844,8.55273 L 26.578125,115 H 56.25 c 36.938344,0 55.58536,-33.564911 57.66016,-37.5 H 150 v -5 H 113.91016 C 111.83536,68.564911 93.188344,35 56.25,35 Z m 9.080078,5 H 56.25 c 34.059213,0 51.62998,31.769 53.33984,35 -1.70986,3.231 -19.280627,35 -53.33984,35 H 35.658203 C 39.366303,103.49958 46.25,89.55167 46.25,75 46.25,60.44833 39.366303,46.500422 35.658203,40 Z"
     id="path946" />
</svg>
