<svg xmlns="http://www.w3.org/2000/svg" viewBox="0 0 150 150"><g><path d="M19.5 33.758V72.5H0v5h19.5v38.742L119.031 75Zm5 7.484L105.967 75 24.5 108.758ZM137.75 72.5v5H150v-5z" style="color:#000;fill:#000;stroke-miterlimit:10;-inkscape-stroke:none"/><path d="M128.13 63c-6.53 0-11.88 5.35-11.88 11.88 0 6.532 5.35 11.88 11.88 11.88 6.532 0 11.88-5.348 11.88-11.88 0-6.53-5.348-11.88-11.88-11.88Zm0 5a6.84 6.84 0 0 1 6.88 6.88 6.84 6.84 0 0 1-6.88 6.88c-3.828 0-6.88-3.05-6.88-6.88 0-3.828 3.052-6.88 6.88-6.88Z" style="color:#000;fill:#000;stroke-miterlimit:10;-inkscape-stroke:none"/></g></svg>