<?xml version="1.0" encoding="UTF-8" standalone="no"?>
<svg
   viewBox="0 0 150 150"
   version="1.1"
   id="svg1112"
   sodipodi:docname="Inductor-COM-Air.svg"
   xmlns:inkscape="http://www.inkscape.org/namespaces/inkscape"
   xmlns:sodipodi="http://sodipodi.sourceforge.net/DTD/sodipodi-0.dtd"
   xmlns="http://www.w3.org/2000/svg"
   xmlns:svg="http://www.w3.org/2000/svg">
  <defs
     id="defs1116" />
  <sodipodi:namedview
     id="namedview1114"
     pagecolor="#ffffff"
     bordercolor="#000000"
     borderopacity="0.25"
     inkscape:showpageshadow="2"
     inkscape:pageopacity="0.0"
     inkscape:pagecheckerboard="0"
     inkscape:deskcolor="#d1d1d1" />
  <path
     style="color:#000000;fill:#000000;stroke-linejoin:round;-inkscape-stroke:none"
     d="m 59.380859,53.75 c -8.462808,0 -13.325695,5.239408 -15.636718,10.289062 -2.315286,-5.027121 -7.169951,-10.228515 -15.613282,-10.228515 -8.818403,0 -13.806201,5.701014 -15.986328,10.951172 -1.332951,3.209999 -1.754269,5.897337 -1.945312,7.86914 H 0 v 5 h 12.5 a 2.50025,2.50025 0 0 0 2.5,-2.5 c 0,0 0.03435,-4.291339 1.761719,-8.451172 1.727369,-4.159832 4.557559,-7.86914 11.36914,-7.86914 6.818512,0 9.640705,3.683679 11.363282,7.808594 1.722576,4.124914 1.755859,8.378906 1.755859,8.378906 0,10e-7 0,0.002 0,0.002 a 2.50025,2.50025 0 0 0 5,0.002 c 0,0 0,-0.002 0,-0.002 0,0 0.03567,-4.272863 1.761719,-8.414063 C 49.737771,62.444738 52.565546,58.75 59.380859,58.75 c 6.815313,0 9.639568,3.695049 11.363282,7.835937 1.723714,4.140889 1.755859,8.41211 1.755859,8.41211 0,10e-7 0,0.002 0,0.002 a 2.50025,2.50025 0 0 0 5,0.002 c 0,0 0,-0.002 0,-0.002 0,0 0.03567,-4.272863 1.761719,-8.414063 C 80.987771,62.444738 83.815546,58.75 90.630859,58.75 c 6.815313,0 9.639571,3.695049 11.363281,7.835937 1.72371,4.140889 1.75586,8.41211 1.75586,8.41211 0,10e-7 0,0.002 0,0.002 a 2.50025,2.50025 0 0 0 5,0.002 c 0,0 0,-0.002 0,-0.002 0,0 0.0357,-4.272863 1.76172,-8.414063 1.72605,-4.141199 4.55383,-7.835937 11.36914,-7.835937 6.81531,0 9.63957,3.695049 11.36328,7.835937 1.72371,4.140889 1.75586,8.41211 1.75586,8.41211 A 2.50025,2.50025 0 0 0 137.5,77.5 H 150 v -5 h -10.19727 c -0.19115,-1.966742 -0.61444,-4.643465 -1.94336,-7.835938 C 135.68059,59.429961 130.69553,53.75 121.88086,53.75 c -8.45376,0 -13.31279,5.228795 -15.62695,10.273437 C 103.94237,58.978249 99.085005,53.75 90.630859,53.75 82.177104,53.75 77.318067,58.978795 75.003906,64.023437 72.692372,58.978249 67.835005,53.75 59.380859,53.75 Z"
     id="path1110" />
</svg>
