<svg xmlns="http://www.w3.org/2000/svg" viewBox="0 0 150 150"><path d="M59.38 53.75c-8.462 0-13.325 5.24-15.636 10.29-2.315-5.028-7.17-10.23-15.613-10.23-8.819 0-13.806 5.702-15.986 10.952-1.333 3.21-1.755 5.897-1.946 7.869H0v5h12.5a2.5 2.5 0 0 0 2.5-2.5s.034-4.291 1.762-8.451 4.557-7.87 11.369-7.87c6.818 0 9.64 3.684 11.363 7.81 1.723 4.124 1.756 8.378 1.756 8.378V75a2.5 2.5 0 0 0 5 .002V75s.036-4.273 1.762-8.414 4.554-7.836 11.369-7.836 9.64 3.695 11.363 7.836c1.724 4.14 1.756 8.412 1.756 8.412V75a2.5 2.5 0 0 0 5 .002V75s.036-4.273 1.762-8.414 4.554-7.836 11.369-7.836 9.64 3.695 11.363 7.836c1.724 4.14 1.756 8.412 1.756 8.412V75a2.5 2.5 0 0 0 5 .002V75s.036-4.273 1.762-8.414 4.554-7.836 11.369-7.836 9.64 3.695 11.363 7.836c1.724 4.14 1.756 8.412 1.756 8.412a2.5 2.5 0 0 0 2.5 2.502H150v-5h-10.197c-.191-1.967-.615-4.643-1.944-7.836-2.178-5.234-7.163-10.914-15.978-10.914-8.454 0-13.313 5.229-15.627 10.273-2.312-5.045-7.169-10.273-15.623-10.273s-13.313 5.229-15.627 10.273C72.692 58.978 67.835 53.75 59.38 53.75" style="color:#000;fill:#000;stroke-linejoin:round;-inkscape-stroke:none"/></svg>