<?xml version="1.0" encoding="UTF-8" standalone="no"?>
<svg
   viewBox="0 0 150 150"
   version="1.1"
   id="svg1292"
   sodipodi:docname="Miscellaneous-COM-Lamp-Indicator.svg"
   xmlns:inkscape="http://www.inkscape.org/namespaces/inkscape"
   xmlns:sodipodi="http://sodipodi.sourceforge.net/DTD/sodipodi-0.dtd"
   xmlns="http://www.w3.org/2000/svg"
   xmlns:svg="http://www.w3.org/2000/svg">
  <defs
     id="defs1296" />
  <sodipodi:namedview
     id="namedview1294"
     pagecolor="#ffffff"
     bordercolor="#000000"
     borderopacity="0.25"
     inkscape:showpageshadow="2"
     inkscape:pageopacity="0.0"
     inkscape:pagecheckerboard="0"
     inkscape:deskcolor="#d1d1d1" />
  <g
     fill="none"
     stroke="#000"
     stroke-miterlimit="10"
     stroke-width="5"
     id="g1290">
    <path
       style="color:#000000;fill:#000000;stroke-miterlimit:10;-inkscape-stroke:none"
       d="m 75,22.5 c -28.965309,0 -52.5,23.534691 -52.5,52.5 0,28.96531 23.534691,52.5 52.5,52.5 28.96531,0 52.5,-23.53469 52.5,-52.5 0,-28.965309 -23.53469,-52.5 -52.5,-52.5 z m 0,5 c 26.26311,0 47.5,21.236889 47.5,47.5 0,26.26311 -21.23689,47.5 -47.5,47.5 C 48.736889,122.5 27.5,101.26311 27.5,75 27.5,48.736889 48.736889,27.5 75,27.5 Z"
       id="circle1286" />
    <path
       style="color:#000000;fill:#000000;stroke-miterlimit:10;-inkscape-stroke:none"
       d="M 41.267578,37.732422 37.732422,41.267578 71.464844,75 37.732422,108.73242 41.267578,112.26758 75,78.535156 108.73242,112.26758 112.26758,108.73242 78.535156,75 112.26758,41.267578 108.73242,37.732422 75,71.464844 Z M 125,72.5 v 5 h 25 v -5 z M 0,72.75 v 5 h 25 v -5 z"
       id="path1288" />
  </g>
</svg>
