<svg xmlns="http://www.w3.org/2000/svg" viewBox="0 0 150 150"><g><path d="M75 22.5c-28.965 0-52.5 23.535-52.5 52.5s23.535 52.5 52.5 52.5 52.5-23.535 52.5-52.5S103.965 22.5 75 22.5zm0 5c26.263 0 47.5 21.237 47.5 47.5s-21.237 47.5-47.5 47.5S27.5 101.263 27.5 75 48.737 27.5 75 27.5Z" style="color:#000;fill:#000;stroke-miterlimit:10;-inkscape-stroke:none"/><path d="m41.268 37.732-3.536 3.536L71.465 75l-33.733 33.732 3.536 3.536L75 78.535l33.732 33.733 3.536-3.536L78.535 75l33.733-33.732-3.536-3.536L75 71.465ZM125 72.5v5h25v-5zM0 72.75v5h25v-5z" style="color:#000;fill:#000;stroke-miterlimit:10;-inkscape-stroke:none"/></g></svg>