<svg xmlns="http://www.w3.org/2000/svg" viewBox="0 0 150 150"><g><path d="M75 22.5c-28.965 0-52.5 23.535-52.5 52.5s23.535 52.5 52.5 52.5 52.5-23.535 52.5-52.5S103.965 22.5 75 22.5zm0 5c26.263 0 47.5 21.237 47.5 47.5s-21.237 47.5-47.5 47.5S27.5 101.263 27.5 75 48.737 27.5 75 27.5Z" style="color:#000;fill:#000;stroke-miterlimit:10;-inkscape-stroke:none"/><path d="M75 47.5c-13.333 0-20.688 7.037-24.111 13.883-2.415 4.829-2.947 8.712-3.147 11.117H0v5h52.5V75s.034-5.73 2.861-11.383C58.188 57.963 63.333 52.5 75 52.5s16.812 5.463 19.639 11.117S97.5 75 97.5 75v2.5H150v-5h-47.742c-.2-2.405-.732-6.288-3.147-11.117C95.688 54.537 88.333 47.5 75 47.5Z" style="color:#000;fill:#000;stroke-miterlimit:10;-inkscape-stroke:none"/></g></svg>