<?xml version="1.0" encoding="UTF-8" standalone="no"?>
<svg
   viewBox="0 0 150 150"
   version="1.1"
   id="svg1342"
   sodipodi:docname="Miscellaneous-COM-Optocoupler.svg"
   xmlns:inkscape="http://www.inkscape.org/namespaces/inkscape"
   xmlns:sodipodi="http://sodipodi.sourceforge.net/DTD/sodipodi-0.dtd"
   xmlns="http://www.w3.org/2000/svg"
   xmlns:svg="http://www.w3.org/2000/svg">
  <defs
     id="defs1346" />
  <sodipodi:namedview
     id="namedview1344"
     pagecolor="#ffffff"
     bordercolor="#000000"
     borderopacity="0.25"
     inkscape:showpageshadow="2"
     inkscape:pageopacity="0.0"
     inkscape:pagecheckerboard="0"
     inkscape:deskcolor="#d1d1d1" />
  <path
     style="color:#000000;fill:#000000;stroke-miterlimit:10;-inkscape-stroke:none"
     d="m 0.02929688,22.060547 -0.05859376,5 L 35,27.470703 V 60 H 20.955078 L 22.763672,63.617187 33.455078,85 H 22 v 5 h 13 v 32.47852 l -34.97851562,-0.28907 -0.04296876,5 L 40,127.52148 V 90 H 53 V 85 H 41.544922 l 12.5,-25 H 40 V 22.529297 Z M 149.99609,22.439453 110,22.503906 V 48.662109 L 96.25,57.828125 V 50 h -5 v 50 h 5 V 92.171875 L 110,101.33789 v 26.16992 l 40.00781,-0.12695 -0.0156,-5 L 115,122.49219 V 98.662109 l -18.75,-12.5 V 63.837891 l 18.75,-12.5 V 27.496094 l 35.00391,-0.05664 z M 29.044922,65 H 45.955078 L 37.5,81.910156 Z"
     id="path1312" />
  <path
     d="m106.58 87.84-7.67 11.27 13.62.91-5.95-12.18z"
     id="path1314" />
  <path
     style="color:#000000;fill:#000000;stroke-miterlimit:10;-inkscape-stroke:none"
     d="m 58.439453,60 v 5 h 18.300781 v -5 z"
     id="path1316" />
  <path
     d="M74.55 69.98 87.5 62.5l-12.95-7.48v14.96z"
     id="path1318" />
  <path
     style="color:#000000;fill:#000000;stroke-miterlimit:10;-inkscape-stroke:none"
     d="m 58.439453,85 v 5 h 18.300781 v -5 z"
     id="path1320" />
  <path
     d="M74.55 94.98 87.5 87.5l-12.95-7.48v14.96z"
     id="path1322" />
  <g
     fill="none"
     stroke="#000"
     stroke-miterlimit="10"
     stroke-width="5"
     id="g1340">
    <path
       style="color:#000000;fill:#000000;stroke-miterlimit:10;-inkscape-stroke:none"
       d="m 135,138.75 v 2.5 h -2.5 v 5 h 7.5 v -7.5 z"
       id="path1324" />
    <path
       style="color:#000000;fill:#000000;stroke-miterlimit:10;stroke-dasharray:10.45, 10.45;-inkscape-stroke:none"
       d="m 28,141.25 v 5 h 10.449219 v -5 z m 20.900391,0 v 5 h 10.449218 v -5 z m 20.90039,0 v 5 H 80.25 v -5 z m 20.898438,0 v 5 h 10.451171 v -5 z m 20.900391,0 v 5 h 10.45117 v -5 z"
       id="path1326" />
    <path
       style="color:#000000;fill:#000000;stroke-miterlimit:10;-inkscape-stroke:none"
       d="m 10,138.75 v 7.5 h 7.5 v -5 H 15 v -2.5 z"
       id="path1328" />
    <path
       style="color:#000000;fill:#000000;stroke-miterlimit:10;stroke-dasharray:9.81, 9.81;-inkscape-stroke:none"
       d="m 10,21.029297 v 9.810547 h 5 v -9.810547 z m 0,19.621094 v 9.810546 h 5 v -9.810546 z m 0,19.61914 v 9.810547 h 5 v -9.810547 z m 0,19.621094 v 9.808594 h 5 v -9.808594 z m 0,19.619141 v 9.810544 h 5 v -9.810544 z m 0,19.621094 v 9.80859 h 5 v -9.80859 z"
       id="path1330" />
    <path
       style="color:#000000;fill:#000000;stroke-miterlimit:10;-inkscape-stroke:none"
       d="m 10,3.75 v 7.5 h 5 v -2.5 h 2.5 v -5 z"
       id="path1332" />
    <path
       style="color:#000000;fill:#000000;stroke-miterlimit:10;stroke-dasharray:10.45, 10.45;-inkscape-stroke:none"
       d="m 27.949219,3.75 v 5 h 10.451172 v -5 z m 20.90039,0 v 5 h 10.451172 v -5 z M 69.75,3.75 v 5 h 10.449219 v -5 z m 20.900391,0 v 5 h 10.449219 v -5 z m 20.900389,0 v 5 H 122 v -5 z"
       id="path1334" />
    <path
       style="color:#000000;fill:#000000;stroke-miterlimit:10;-inkscape-stroke:none"
       d="m 132.5,3.75 v 5 h 2.5 v 2.5 h 5 v -7.5 z"
       id="path1336" />
    <path
       style="color:#000000;fill:#000000;stroke-miterlimit:10;stroke-dasharray:9.81, 9.81;-inkscape-stroke:none"
       d="m 135,21.060547 v 9.808594 h 5 v -9.808594 z m 0,19.61914 v 9.810547 h 5 v -9.810547 z m 0,19.621094 v 9.808594 h 5 v -9.808594 z m 0,19.619141 v 9.810547 h 5 v -9.810547 z m 0,19.61914 v 9.810548 h 5 v -9.810548 z m 0,19.621098 v 9.81054 h 5 v -9.81054 z"
       id="path1338" />
  </g>
</svg>
