<?xml version="1.0" encoding="UTF-8" standalone="no"?>
<svg
   viewBox="0 0 150 150"
   version="1.1"
   id="svg1422"
   sodipodi:docname="Miscellaneous-COM-Probe_Point.svg"
   xmlns:inkscape="http://www.inkscape.org/namespaces/inkscape"
   xmlns:sodipodi="http://sodipodi.sourceforge.net/DTD/sodipodi-0.dtd"
   xmlns="http://www.w3.org/2000/svg"
   xmlns:svg="http://www.w3.org/2000/svg">
  <defs
     id="defs1426" />
  <sodipodi:namedview
     id="namedview1424"
     pagecolor="#ffffff"
     bordercolor="#000000"
     borderopacity="0.25"
     inkscape:showpageshadow="2"
     inkscape:pageopacity="0.0"
     inkscape:pagecheckerboard="0"
     inkscape:deskcolor="#d1d1d1" />
  <g
     fill="none"
     stroke="#000"
     stroke-miterlimit="10"
     stroke-width="5"
     id="g1420">
    <path
       style="color:#000000;fill:#000000;stroke-miterlimit:10;-inkscape-stroke:none"
       d="M 75,53.75 C 63.293572,53.75 53.75,63.293572 53.75,75 53.75,86.706428 63.293572,96.25 75,96.25 86.706428,96.25 96.25,86.706428 96.25,75 96.25,63.293572 86.706428,53.75 75,53.75 Z m 0,5 c 9.00423,0 16.25,7.24577 16.25,16.25 0,9.00423 -7.24577,16.25 -16.25,16.25 -9.00423,0 -16.25,-7.24577 -16.25,-16.25 0,-9.00423 7.24577,-16.25 16.25,-16.25 z"
       id="circle1416" />
    <path
       style="color:#000000;fill:#000000;stroke-miterlimit:10;-inkscape-stroke:none"
       d="m 93.75,72.5 v 5 H 150 v -5 z M 0,72.689453 v 5 h 56.25 v -5 z"
       id="path1418" />
  </g>
</svg>
