<svg xmlns="http://www.w3.org/2000/svg" viewBox="0 0 150 150"><path d="m.03 22.06-.06 5 35.03.41V60H20.955l1.809 3.617L33.455 85H22v5h13v32.479l-34.979-.29-.042 5 40.021.332V90h13v-5H41.545l12.5-25H40V22.53Zm149.966.38L110 22.503v26.158l-13.75 9.166V50h-5v50h5v-7.828l13.75 9.166v26.17l40.008-.127-.016-5-34.992.111v-23.83l-18.75-12.5V63.838l18.75-12.5V27.496l35.004-.057zM29.045 65h16.91L37.5 81.91Z" style="color:#000;fill:#000;stroke-miterlimit:10;-inkscape-stroke:none"/><path d="m106.58 87.84-7.67 11.27 13.62.91z"/><path d="M58.44 60v5h18.3v-5z" style="color:#000;fill:#000;stroke-miterlimit:10;-inkscape-stroke:none"/><path d="M74.55 69.98 87.5 62.5l-12.95-7.48z"/><path d="M58.44 85v5h18.3v-5z" style="color:#000;fill:#000;stroke-miterlimit:10;-inkscape-stroke:none"/><path d="M74.55 94.98 87.5 87.5l-12.95-7.48z"/><g><path d="M135 138.75v2.5h-2.5v5h7.5v-7.5z" style="color:#000;fill:#000;stroke-miterlimit:10;-inkscape-stroke:none"/><path d="M28 141.25v5h10.45v-5zm20.9 0v5h10.45v-5zm20.9 0v5h10.45v-5zm20.9 0v5h10.45v-5zm20.9 0v5h10.45v-5z" style="color:#000;fill:#000;stroke-miterlimit:10;stroke-dasharray:10.45,10.45;-inkscape-stroke:none"/><path d="M10 138.75v7.5h7.5v-5H15v-2.5z" style="color:#000;fill:#000;stroke-miterlimit:10;-inkscape-stroke:none"/><path d="M10 21.03v9.81h5v-9.81zm0 19.62v9.81h5v-9.81zm0 19.62v9.81h5v-9.81zm0 19.62v9.81h5v-9.81zm0 19.62v9.81h5v-9.81zm0 19.62v9.81h5v-9.81z" style="color:#000;fill:#000;stroke-miterlimit:10;stroke-dasharray:9.81,9.81;-inkscape-stroke:none"/><path d="M10 3.75v7.5h5v-2.5h2.5v-5z" style="color:#000;fill:#000;stroke-miterlimit:10;-inkscape-stroke:none"/><path d="M27.95 3.75v5H38.4v-5zm20.9 0v5H59.3v-5zm20.9 0v5H80.2v-5zm20.9 0v5h10.45v-5zm20.9 0v5H122v-5z" style="color:#000;fill:#000;stroke-miterlimit:10;stroke-dasharray:10.45,10.45;-inkscape-stroke:none"/><path d="M132.5 3.75v5h2.5v2.5h5v-7.5z" style="color:#000;fill:#000;stroke-miterlimit:10;-inkscape-stroke:none"/><path d="M135 21.06v9.81h5v-9.81zm0 19.62v9.81h5v-9.81zm0 19.62v9.81h5V60.3zm0 19.62v9.81h5v-9.81zm0 19.62v9.81h5v-9.81zm0 19.62v9.81h5v-9.81z" style="color:#000;fill:#000;stroke-miterlimit:10;stroke-dasharray:9.81,9.81;-inkscape-stroke:none"/></g></svg>