<?xml version="1.0" encoding="UTF-8" standalone="no"?>
<svg
   viewBox="0 0 150 150"
   version="1.1"
   id="svg1595"
   sodipodi:docname="Relay-COM-COM-SPST-NO.svg"
   xmlns:inkscape="http://www.inkscape.org/namespaces/inkscape"
   xmlns:sodipodi="http://sodipodi.sourceforge.net/DTD/sodipodi-0.dtd"
   xmlns="http://www.w3.org/2000/svg"
   xmlns:svg="http://www.w3.org/2000/svg">
  <defs
     id="defs1599" />
  <sodipodi:namedview
     id="namedview1597"
     pagecolor="#ffffff"
     bordercolor="#000000"
     borderopacity="0.25"
     inkscape:showpageshadow="2"
     inkscape:pageopacity="0.0"
     inkscape:pagecheckerboard="0"
     inkscape:deskcolor="#d1d1d1" />
  <path
     style="color:#000000;fill:#000000;stroke-miterlimit:10;-inkscape-stroke:none"
     d="m 22.5,35 v 2.5 9.810547 H 0 v 5 H 22.5 V 65 h 105 V 52.5 H 150 v -5 H 127.5 V 35 Z m 5,5 h 95 v 20 h -95 z M 0,97.189453 v 4.999997 h 25 v -4.999997 z m 93.75,0.191406 v 5.000001 H 150 v -5.000001 z"
     id="path1579" />
  <path
     style="color:#000000;fill:#000000;stroke-miterlimit:10;-inkscape-stroke:none"
     d="m 31.25,91.25 c -4.802875,0 -8.75,3.947125 -8.75,8.75 0,4.80288 3.947125,8.75 8.75,8.75 4.802875,0 8.75,-3.94712 8.75,-8.75 0,-4.802875 -3.947125,-8.75 -8.75,-8.75 z m 0,5 c 2.100677,0 3.75,1.649323 3.75,3.75 0,2.10068 -1.649323,3.75 -3.75,3.75 -2.100677,0 -3.75,-1.64932 -3.75,-3.75 0,-2.100677 1.649323,-3.75 3.75,-3.75 z"
     id="circle1581" />
  <path
     d="M93.75 102.25h12.5l-6.25 9.5-6.25-9.5z"
     id="path1583" />
  <path
     style="color:#000000;fill:#000000;stroke-miterlimit:10;-inkscape-stroke:none"
     d="m 38.427734,101.79492 -2.355468,4.41016 62.75,33.5 2.355464,-4.41016 z"
     id="path1585" />
  <g
     fill="none"
     stroke="#000"
     stroke-miterlimit="10"
     stroke-width="5"
     id="g1593">
    <path
       style="color:#000000;fill:#000000;stroke-miterlimit:10;-inkscape-stroke:none"
       d="M 72.380859,62.5 V 65 h 5 v -2.5 z"
       id="path1587" />
    <path
       style="color:#000000;fill:#000000;stroke-miterlimit:10;stroke-dasharray:5, 5;-inkscape-stroke:none"
       d="m 72.380859,70 v 5 h 5 v -5 z m 0,10 v 5 h 5 v -5 z m 0,10 v 5 h 5 v -5 z m 0,10 v 5 h 5 v -5 z m 0,10 v 5 h 5 v -5 z"
       id="path1589" />
    <path
       style="color:#000000;fill:#000000;stroke-miterlimit:10;-inkscape-stroke:none"
       d="m 72.380859,120 v 2.5 h 5 V 120 Z"
       id="path1591" />
  </g>
</svg>
