<svg xmlns="http://www.w3.org/2000/svg" viewBox="0 0 150 150"><path d="M22.5 10v12.31H0v5h22.5V40h105V27.5H150v-5h-22.5V10Zm5 5h95v20h-95zM0 97.19v5h25v-5z" style="color:#000;fill:#000;stroke-miterlimit:10;-inkscape-stroke:none"/><path d="M31.25 91.25c-4.803 0-8.75 3.947-8.75 8.75s3.947 8.75 8.75 8.75S40 104.803 40 100s-3.947-8.75-8.75-8.75m0 5c2.1 0 3.75 1.65 3.75 3.75s-1.65 3.75-3.75 3.75-3.75-1.65-3.75-3.75 1.65-3.75 3.75-3.75M93.75 73.13v5H150v-5z" style="color:#000;fill:#000;stroke-miterlimit:10;-inkscape-stroke:none"/><path d="M93.75 78h12.5L100 87.5z"/><path d="m37.531 101.516-.562 4.968 75.25 8.5.562-4.968z" style="color:#000;fill:#000;stroke-miterlimit:10;-inkscape-stroke:none"/><g><path d="M72.38 37.5V40h5v-2.5z" style="color:#000;fill:#000;stroke-miterlimit:10;-inkscape-stroke:none"/><path d="M72.38 44.9v4.9h5v-4.9zm0 9.8v4.9h5v-4.9zm0 9.8v4.9h5v-4.9Zm0 9.8v4.9h5v-4.9zm0 9.8V89h5v-4.9zm0 9.8v4.9h5v-4.9z" style="color:#000;fill:#000;stroke-miterlimit:10;stroke-dasharray:4.9,4.9;-inkscape-stroke:none"/><path d="M72.38 103.75v2.5h5v-2.5z" style="color:#000;fill:#000;stroke-miterlimit:10;-inkscape-stroke:none"/></g><path d="M93.75 121.88v5H150v-5z" style="color:#000;fill:#000;stroke-miterlimit:10;-inkscape-stroke:none"/><path d="M93.75 122h12.5l-6.25-9.5z"/></svg>