<svg xmlns="http://www.w3.org/2000/svg" viewBox="0 0 150 150"><g><path d="M60 3.75V22.5H0v5h60v18.75h30V27.5h60v-5H90V3.75Zm5 5h20v32.5H65Zm-14.637 88.5-50.369.13.012 5 49.63-.13 62.145 18.645 1.438-4.79z" style="color:#000;fill:#000;stroke-miterlimit:10;-inkscape-stroke:none"/><path d="M72.5 43.75v5h5v-5zm0 10v5h5v-5zm0 10v5h5v-5zm0 10v5h5v-5zm0 10v5h5v-5zm0 10v5h5v-5zm0 10v2.5h5v-2.5z" style="color:#000;fill:#000;stroke-miterlimit:10;stroke-dasharray:5;-inkscape-stroke:none"/><path d="M100 72.5v5h50v-5zM97.5 106v21.25H150v-5h-47.5V106Z" style="color:#000;fill:#000;stroke-miterlimit:10;-inkscape-stroke:none"/></g></svg>