<?xml version="1.0" encoding="UTF-8" standalone="no"?>
<svg
   viewBox="0 0 150 150"
   version="1.1"
   id="svg1821"
   sodipodi:docname="Relay-IEEE-SPST-NC.svg"
   xmlns:inkscape="http://www.inkscape.org/namespaces/inkscape"
   xmlns:sodipodi="http://sodipodi.sourceforge.net/DTD/sodipodi-0.dtd"
   xmlns="http://www.w3.org/2000/svg"
   xmlns:svg="http://www.w3.org/2000/svg">
  <defs
     id="defs1825" />
  <sodipodi:namedview
     id="namedview1823"
     pagecolor="#ffffff"
     bordercolor="#000000"
     borderopacity="0.25"
     inkscape:showpageshadow="2"
     inkscape:pageopacity="0.0"
     inkscape:pagecheckerboard="0"
     inkscape:deskcolor="#d1d1d1" />
  <g
     fill="none"
     stroke="#000"
     stroke-width="5"
     id="g1819">
    <path
       style="color:#000000;fill:#000000;stroke-linejoin:round;-inkscape-stroke:none"
       d="m 0,22.5 v 5 h 10.199219 c 0.191225,1.971096 0.612758,4.655942 1.945312,7.863281 2.180314,5.24782 7.168458,10.947266 15.986328,10.947266 8.441369,0 13.295363,-5.198635 15.611328,-10.222656 2.310279,5.050841 7.173717,10.292968 15.638672,10.292968 8.452839,0 13.309107,-5.228973 15.621094,-10.273437 2.313999,5.044901 7.174684,10.273437 15.628906,10.273437 8.452839,0 13.309111,-5.228973 15.621091,-10.273437 2.314,5.044901 7.17469,10.273437 15.62891,10.273437 8.81467,0 13.79973,-5.681914 15.97851,-10.916015 1.32841,-3.191236 1.75205,-5.867093 1.94336,-7.833985 H 150 v -5 h -12.5 a 2.50025,2.50025 0 0 0 -2.5,2.5 c 0,0 -0.0322,4.273174 -1.75586,8.414063 -1.72371,4.140889 -4.54797,7.835937 -11.36328,7.835937 -6.81531,0 -9.64309,-3.696691 -11.36914,-7.83789 -1.72605,-4.1412 -1.76172,-8.41211 -1.76172,-8.41211 0,-1e-6 0,-0.002 0,-0.002 a 2.50025,2.50025 0 0 0 -5,0.002 c 0,0 -0.0322,4.273174 -1.75586,8.414063 -1.72371,4.140889 -4.547968,7.835937 -11.363281,7.835937 -6.815313,0 -9.643088,-3.696691 -11.36914,-7.83789 C 77.535667,29.401769 77.5,25.130859 77.5,25.130859 c 0,-1e-6 0,-0.002 0,-0.002 a 2.50025,2.50025 0 0 0 -5,0.002 c 0,0 -0.03214,4.273174 -1.755859,8.414063 -1.723714,4.140889 -4.547969,7.835937 -11.363282,7.835937 -6.815313,0 -9.643088,-3.696691 -11.36914,-7.83789 -1.726052,-4.1412 -1.761719,-8.41211 -1.761719,-8.41211 0,-1e-6 0,-0.002 0,-0.002 a 2.50025,2.50025 0 0 0 -5,0.002 c 0,0 -0.03347,4.252748 -1.755859,8.375 -1.722387,4.122252 -4.544236,7.804688 -11.363282,7.804688 -6.812114,0 -9.641958,-3.708064 -11.36914,-7.865235 C 15.034537,29.288142 15,25 15,25 a 2.50025,2.50025 0 0 0 -2.5,-2.5 z m 12.5,31.25 v 5 h 125 v -5 z"
       id="path1807" />
    <g
       stroke-miterlimit="10"
       id="g1817">
      <path
         style="color:#000000;fill:#000000;stroke-miterlimit:10;-inkscape-stroke:none"
         d="m 37.5,90.25 c -4.802875,0 -8.75,3.947125 -8.75,8.75 0,4.80288 3.947125,8.75 8.75,8.75 4.802875,0 8.75,-3.94712 8.75,-8.75 0,-4.802875 -3.947125,-8.75 -8.75,-8.75 z m 0,5 c 2.100677,0 3.75,1.649323 3.75,3.75 0,2.10068 -1.649323,3.75 -3.75,3.75 -2.100677,0 -3.75,-1.64932 -3.75,-3.75 0,-2.100677 1.649323,-3.75 3.75,-3.75 z"
         id="circle1809" />
      <path
         style="color:#000000;fill:#000000;stroke-miterlimit:10;-inkscape-stroke:none"
         d="m 0,96.560547 v 5.000003 h 31.25 v -5.000003 z"
         id="path1811" />
      <path
         style="color:#000000;fill:#000000;stroke-miterlimit:10;-inkscape-stroke:none"
         d="m 112.5,90.25 c -4.80288,0 -8.75,3.947125 -8.75,8.75 0,4.80288 3.94712,8.75 8.75,8.75 4.80288,0 8.75,-3.94712 8.75,-8.75 0,-4.802875 -3.94712,-8.75 -8.75,-8.75 z m 0,5 c 2.10068,0 3.75,1.649323 3.75,3.75 0,2.10068 -1.64932,3.75 -3.75,3.75 -2.10068,0 -3.75,-1.64932 -3.75,-3.75 0,-2.100677 1.64932,-3.75 3.75,-3.75 z"
         id="circle1813" />
      <path
         style="color:#000000;fill:#000000;stroke-miterlimit:10;-inkscape-stroke:none"
         d="m 118.75,96.439453 v 4.999997 H 150 v -4.999997 z m -74.876953,3.314453 -0.246094,4.992184 81.249997,4 0.2461,-4.99218 z"
         id="path1815" />
    </g>
  </g>
</svg>
