<svg xmlns="http://www.w3.org/2000/svg" viewBox="0 0 150 150"><g><path d="M0 22.5v5h10.2c.19 1.971.612 4.656 1.945 7.863 2.18 5.248 7.168 10.948 15.986 10.948 8.441 0 13.295-5.2 15.611-10.223 2.31 5.05 7.174 10.293 15.639 10.293 8.453 0 13.309-5.23 15.621-10.274 2.314 5.045 7.175 10.274 15.629 10.274 8.453 0 13.309-5.23 15.621-10.274 2.314 5.045 7.175 10.274 15.629 10.274 8.815 0 13.8-5.682 15.978-10.916 1.329-3.191 1.752-5.867 1.944-7.834H150v-5h-12.5a2.5 2.5 0 0 0-2.5 2.5s-.032 4.273-1.756 8.414c-1.724 4.14-4.548 7.836-11.363 7.836s-9.643-3.697-11.37-7.838c-1.725-4.141-1.761-8.412-1.761-8.412v-.002a2.5 2.5 0 0 0-5 .002s-.032 4.273-1.756 8.414c-1.724 4.14-4.548 7.836-11.363 7.836s-9.643-3.697-11.37-7.838c-1.725-4.141-1.761-8.412-1.761-8.412v-.002a2.5 2.5 0 0 0-5 .002s-.032 4.273-1.756 8.414c-1.724 4.14-4.548 7.836-11.363 7.836s-9.643-3.697-11.37-7.838c-1.725-4.141-1.761-8.412-1.761-8.412v-.002a2.5 2.5 0 0 0-5 .002s-.033 4.253-1.756 8.375c-1.722 4.122-4.544 7.805-11.363 7.805-6.812 0-9.642-3.709-11.37-7.866C15.036 29.288 15 25 15 25a2.5 2.5 0 0 0-2.5-2.5zm12.5 31.25v5h125v-5z" style="color:#000;fill:#000;stroke-linejoin:round;-inkscape-stroke:none"/><g><path d="M37.5 90.25c-4.803 0-8.75 3.947-8.75 8.75s3.947 8.75 8.75 8.75 8.75-3.947 8.75-8.75-3.947-8.75-8.75-8.75zm0 5c2.1 0 3.75 1.65 3.75 3.75s-1.65 3.75-3.75 3.75-3.75-1.65-3.75-3.75 1.65-3.75 3.75-3.75z" style="color:#000;fill:#000;stroke-miterlimit:10;-inkscape-stroke:none"/><path d="M0 96.56v5h31.25v-5z" style="color:#000;fill:#000;stroke-miterlimit:10;-inkscape-stroke:none"/></g><g stroke-miterlimit="10"><path d="M112.5 66.25c-4.803 0-8.75 3.947-8.75 8.75s3.947 8.75 8.75 8.75 8.75-3.947 8.75-8.75-3.947-8.75-8.75-8.75zm0 5c2.1 0 3.75 1.65 3.75 3.75s-1.65 3.75-3.75 3.75-3.75-1.65-3.75-3.75 1.65-3.75 3.75-3.75z" style="color:#000;fill:#000;stroke-miterlimit:10;-inkscape-stroke:none"/><path d="M118.75 72.44v5H150v-5z" style="color:#000;fill:#000;stroke-miterlimit:10;-inkscape-stroke:none"/></g><path d="m44.213 99.793-.926 4.914 87.5 16.5.926-4.914z" style="color:#000;fill:#000;stroke-miterlimit:10;-inkscape-stroke:none"/><g stroke-miterlimit="10"><path d="M112.5 116.25c-4.803 0-8.75 3.947-8.75 8.75s3.947 8.75 8.75 8.75 8.75-3.947 8.75-8.75-3.947-8.75-8.75-8.75zm0 5c2.1 0 3.75 1.65 3.75 3.75s-1.65 3.75-3.75 3.75-3.75-1.65-3.75-3.75 1.65-3.75 3.75-3.75z" style="color:#000;fill:#000;stroke-miterlimit:10;-inkscape-stroke:none"/><path d="M118.75 122.44v5H150v-5z" style="color:#000;fill:#000;stroke-miterlimit:10;-inkscape-stroke:none"/></g></g></svg>