<?xml version="1.0" encoding="UTF-8" standalone="no"?>
<svg
   viewBox="0 0 150 150"
   version="1.1"
   id="svg1646"
   sodipodi:docname="Relay-IEC-SPDT.svg"
   xmlns:inkscape="http://www.inkscape.org/namespaces/inkscape"
   xmlns:sodipodi="http://sodipodi.sourceforge.net/DTD/sodipodi-0.dtd"
   xmlns="http://www.w3.org/2000/svg"
   xmlns:svg="http://www.w3.org/2000/svg">
  <defs
     id="defs1650" />
  <sodipodi:namedview
     id="namedview1648"
     pagecolor="#ffffff"
     bordercolor="#000000"
     borderopacity="0.25"
     inkscape:showpageshadow="2"
     inkscape:pageopacity="0.0"
     inkscape:pagecheckerboard="0"
     inkscape:deskcolor="#d1d1d1" />
  <g
     fill="none"
     stroke="#000"
     stroke-miterlimit="10"
     stroke-width="5"
     id="g1644">
    <path
       style="color:#000000;fill:#000000;stroke-miterlimit:10;-inkscape-stroke:none"
       d="M 60,3.75 V 6.25 22.5 H 0 v 5 H 60 V 46.25 H 90 V 27.5 h 60 v -5 H 90 V 3.75 Z m 5,5 h 20 v 32.5 H 65 Z M 50.363281,97.25 -0.00585938,97.380859 0.00585938,102.38086 49.636719,102.25 l 62.144531,18.64453 1.4375,-4.78906 z"
       id="path1638" />
    <path
       style="color:#000000;fill:#000000;stroke-miterlimit:10;stroke-dasharray:5;-inkscape-stroke:none"
       d="m 72.5,43.75 v 5 h 5 v -5 z m 0,10 v 5 h 5 v -5 z m 0,10 v 5 h 5 v -5 z m 0,10 v 5 h 5 v -5 z m 0,10 v 5 h 5 v -5 z m 0,10 v 5 h 5 v -5 z m 0,10 v 2.5 h 5 v -2.5 z"
       id="path1640" />
    <path
       style="color:#000000;fill:#000000;stroke-miterlimit:10;-inkscape-stroke:none"
       d="m 100,72.5 v 5 h 50 v -5 z M 97.5,106 v 21.25 H 150 v -5 H 102.5 V 106 Z"
       id="path1642" />
  </g>
</svg>
