<?xml version="1.0" encoding="UTF-8" standalone="no"?>
<svg
   viewBox="0 0 150 150"
   version="1.1"
   id="svg1464"
   sodipodi:docname="Relay-COM-COM-SPDT.svg"
   xmlns:inkscape="http://www.inkscape.org/namespaces/inkscape"
   xmlns:sodipodi="http://sodipodi.sourceforge.net/DTD/sodipodi-0.dtd"
   xmlns="http://www.w3.org/2000/svg"
   xmlns:svg="http://www.w3.org/2000/svg">
  <defs
     id="defs1468" />
  <sodipodi:namedview
     id="namedview1466"
     pagecolor="#ffffff"
     bordercolor="#000000"
     borderopacity="0.25"
     inkscape:showpageshadow="2"
     inkscape:pageopacity="0.0"
     inkscape:pagecheckerboard="0"
     inkscape:deskcolor="#d1d1d1" />
  <path
     style="color:#000000;fill:#000000;stroke-miterlimit:10;-inkscape-stroke:none"
     d="m 22.5,10 v 2.5 9.810547 H 0 v 5 H 22.5 V 40 h 105 V 27.5 H 150 v -5 H 127.5 V 10 Z m 5,5 h 95 v 20 h -95 z M 0,97.189453 v 4.999997 h 25 v -4.999997 z"
     id="path1442" />
  <path
     style="color:#000000;fill:#000000;stroke-miterlimit:10;-inkscape-stroke:none"
     d="m 31.25,91.25 c -4.802875,0 -8.75,3.947125 -8.75,8.75 0,4.80288 3.947125,8.75 8.75,8.75 4.802875,0 8.75,-3.94712 8.75,-8.75 0,-4.802875 -3.947125,-8.75 -8.75,-8.75 z m 0,5 c 2.100677,0 3.75,1.649323 3.75,3.75 0,2.10068 -1.649323,3.75 -3.75,3.75 -2.100677,0 -3.75,-1.64932 -3.75,-3.75 0,-2.100677 1.649323,-3.75 3.75,-3.75 z"
     id="circle1444" />
  <path
     style="color:#000000;fill:#000000;stroke-miterlimit:10;-inkscape-stroke:none"
     d="m 93.75,73.130859 v 5 H 150 v -5 z"
     id="path1446" />
  <path
     d="M93.75 78h12.5L100 87.5 93.75 78z"
     id="path1448" />
  <path
     style="color:#000000;fill:#000000;stroke-miterlimit:10;-inkscape-stroke:none"
     d="m 37.53125,101.51563 -0.5625,4.96875 75.25,8.5 0.5625,-4.96875 z"
     id="path1450" />
  <g
     fill="none"
     stroke="#000"
     stroke-miterlimit="10"
     stroke-width="5"
     id="g1458">
    <path
       style="color:#000000;fill:#000000;stroke-miterlimit:10;-inkscape-stroke:none"
       d="M 72.380859,37.5 V 40 h 5 v -2.5 z"
       id="path1452" />
    <path
       style="color:#000000;fill:#000000;stroke-miterlimit:10;stroke-dasharray:4.9, 4.9;-inkscape-stroke:none"
       d="m 72.380859,44.900391 v 4.90039 h 5 v -4.90039 z m 0,9.798828 v 4.90039 h 5 v -4.90039 z m 0,9.800781 v 4.900391 h 5 V 64.5 Z m 0,9.800781 v 4.898438 h 5 v -4.898438 z m 0,9.798828 V 89 h 5 v -4.900391 z m 0,9.800782 v 4.90039 h 5 v -4.90039 z"
       id="path1454" />
    <path
       style="color:#000000;fill:#000000;stroke-miterlimit:10;-inkscape-stroke:none"
       d="m 72.380859,103.75 v 2.5 h 5 v -2.5 z"
       id="path1456" />
  </g>
  <path
     style="color:#000000;fill:#000000;stroke-miterlimit:10;-inkscape-stroke:none"
     d="m 93.75,121.88086 v 5 H 150 v -5 z"
     id="path1460" />
  <path
     d="M93.75 122h12.5l-6.25-9.5-6.25 9.5z"
     id="path1462" />
</svg>
