<svg xmlns="http://www.w3.org/2000/svg" viewBox="0 0 150 150"><path d="M22.5 35v12.31H0v5h22.5V65h105V52.5H150v-5h-22.5V35Zm5 5h95v20h-95zM0 97.19v5h25v-5zm93.75.19v5H150v-5z" style="color:#000;fill:#000;stroke-miterlimit:10;-inkscape-stroke:none"/><path d="M31.25 91.25c-4.803 0-8.75 3.947-8.75 8.75s3.947 8.75 8.75 8.75S40 104.803 40 100s-3.947-8.75-8.75-8.75m0 5c2.1 0 3.75 1.65 3.75 3.75s-1.65 3.75-3.75 3.75-3.75-1.65-3.75-3.75 1.65-3.75 3.75-3.75" style="color:#000;fill:#000;stroke-miterlimit:10;-inkscape-stroke:none"/><path d="M93.75 102.25h12.5l-6.25 9.5z"/><path d="m37.596 99.523-.692 4.954 75.25 10.5.692-4.954z" style="color:#000;fill:#000;stroke-miterlimit:10;-inkscape-stroke:none"/><g><path d="M72.5 62.5V65h5v-2.5z" style="color:#000;fill:#000;stroke-miterlimit:10;-inkscape-stroke:none"/><path d="M72.5 70.5V76h5v-5.5zm0 11V87h5v-5.5zm0 11V98h5v-5.5z" style="color:#000;fill:#000;stroke-miterlimit:10;stroke-dasharray:5.5,5.5;-inkscape-stroke:none"/><path d="M72.5 103.5v2.5h5v-2.5z" style="color:#000;fill:#000;stroke-miterlimit:10;-inkscape-stroke:none"/></g></svg>