<svg xmlns="http://www.w3.org/2000/svg" viewBox="0 0 150 150"><path d="m39.229 49.018-9.653 23.421H0v5h31.25l2.31-1.546 7.475-18.137 11.469 42.89h4.83l10.975-40.978 10.966 40.978 4.829.004L95.08 59.98l10.967 40.67 4.724.301 9.653-23.451H150v-5h-31.25l-2.312 1.549-7.485 18.183L97.494 49.73h-4.828L81.699 90.365 70.725 49.354h-4.83L54.922 90.33 43.955 49.324Z" style="color:#000;fill:#000;stroke-linejoin:bevel;-inkscape-stroke:none"/><path d="M107.336 32.893 42.584 110H12.5v5h32.416l66.248-78.893Z" style="color:#000;fill:#000;stroke-miterlimit:10;-inkscape-stroke:none"/><path d="M111.59 118.11v4h-3.34v7.6a21 21 0 0 0 .09 2.7 1.14 1.14 0 0 0 .44.63 1.38 1.38 0 0 0 .82.25 9.4 9.4 0 0 0 2.45-.57v3.88a9.85 9.85 0 0 1-3.93.83 5.9 5.9 0 0 1-2.38-.46 3.46 3.46 0 0 1-1.56-1.17 4.7 4.7 0 0 1-.69-1.95 26 26 0 0 1-.15-3.51v-8.23H100v-4h3.31v-7h4.91v7Zm2.33-6.28a5.53 5.53 0 0 1 1.63-4 5.33 5.33 0 0 1 3.93-1.65 5.27 5.27 0 0 1 3.92 1.66 5.74 5.74 0 0 1 0 8 5.45 5.45 0 0 1-7.85 0 5.52 5.52 0 0 1-1.63-4.01m2.89 0a2.64 2.64 0 0 0 .79 1.92 2.63 2.63 0 0 0 3.76 0 2.67 2.67 0 0 0 .78-1.92 2.64 2.64 0 0 0-.78-1.92 2.61 2.61 0 0 0-3.76 0 2.6 2.6 0 0 0-.79 1.92"/></svg>