<?xml version="1.0" encoding="UTF-8" standalone="no"?>
<svg
   viewBox="0 0 150 150"
   version="1.1"
   id="svg2216"
   sodipodi:docname="Resistor-IEEE-Thermistor.svg"
   xmlns:inkscape="http://www.inkscape.org/namespaces/inkscape"
   xmlns:sodipodi="http://sodipodi.sourceforge.net/DTD/sodipodi-0.dtd"
   xmlns="http://www.w3.org/2000/svg"
   xmlns:svg="http://www.w3.org/2000/svg">
  <defs
     id="defs2220" />
  <sodipodi:namedview
     id="namedview2218"
     pagecolor="#ffffff"
     bordercolor="#000000"
     borderopacity="0.25"
     inkscape:showpageshadow="2"
     inkscape:pageopacity="0.0"
     inkscape:pagecheckerboard="0"
     inkscape:deskcolor="#d1d1d1" />
  <path
     style="color:#000000;fill:#000000;stroke-linejoin:bevel;-inkscape-stroke:none"
     d="M 39.228516,49.017578 29.576172,72.439453 H 0 v 5 h 31.25 l 2.310547,-1.546875 7.474609,-18.136719 11.46875,42.890621 h 4.830078 l 10.97461,-40.978511 10.966797,40.978511 4.828125,0.004 10.976562,-40.669921 10.966802,40.669921 4.7246,0.30078 L 120.42383,77.5 H 150 v -5 h -31.25 l -2.3125,1.548828 -7.48437,18.183594 L 97.494141,49.728516 H 92.666016 L 81.699219,90.365234 70.724609,49.353516 H 65.894531 L 54.921875,90.330078 43.955078,49.324219 Z"
     id="path2210" />
  <path
     style="color:#000000;fill:#000000;stroke-miterlimit:10;-inkscape-stroke:none"
     d="M 107.33594,32.892578 42.583984,110 H 12.5 v 5 H 44.916016 L 111.16406,36.107422 Z"
     id="path2212" />
  <path
     d="M111.59 118.11v4h-3.34v7.6a20.75 20.75 0 0 0 .09 2.7 1.14 1.14 0 0 0 .44.63 1.38 1.38 0 0 0 .82.25 9.4 9.4 0 0 0 2.45-.57v3.88a9.85 9.85 0 0 1-3.93.83 5.88 5.88 0 0 1-2.38-.46 3.46 3.46 0 0 1-1.56-1.17 4.74 4.74 0 0 1-.69-1.95 25.69 25.69 0 0 1-.15-3.51v-8.23H100v-4h3.31v-7h4.91v7Zm2.33-6.28a5.53 5.53 0 0 1 1.63-4 5.33 5.33 0 0 1 3.93-1.65 5.27 5.27 0 0 1 3.92 1.66 5.74 5.74 0 0 1 0 8 5.45 5.45 0 0 1-7.85 0 5.52 5.52 0 0 1-1.63-4.01Zm2.89 0a2.64 2.64 0 0 0 .79 1.92 2.63 2.63 0 0 0 3.76 0 2.67 2.67 0 0 0 .78-1.92 2.64 2.64 0 0 0-.78-1.92 2.61 2.61 0 0 0-3.76 0 2.61 2.61 0 0 0-.79 1.92Z"
     id="path2214" />
</svg>
