<svg xmlns="http://www.w3.org/2000/svg" viewBox="0 0 150 150"><path d="m39.229 49.018-9.653 23.421H0v5h31.25l2.31-1.546 7.475-18.137 11.469 42.89h4.83l10.975-40.978 10.966 40.978 4.829.004L95.08 59.98l10.967 40.67 4.724.301 9.653-23.451H150v-5h-31.25l-2.312 1.549-7.485 18.183L97.494 49.73h-4.828L81.699 90.365 70.725 49.354h-4.83L54.922 90.33 43.955 49.324Z" style="color:#000;fill:#000;stroke-linejoin:bevel;-inkscape-stroke:none"/><path d="m26.768 4.482-3.536 3.536 18.75 18.75 3.536-3.536z" style="color:#000;fill:#000;stroke-miterlimit:10;-inkscape-stroke:none"/><path d="m36.91 28.74 14.45 3.87-3.87-14.45z"/><path d="m8.018 23.232-3.536 3.536 18.75 18.75 3.536-3.536z" style="color:#000;fill:#000;stroke-miterlimit:10;-inkscape-stroke:none"/><path d="m18.16 47.49 14.45 3.87-3.87-14.45z"/></svg>