<?xml version="1.0" encoding="UTF-8" standalone="no"?>
<svg
   viewBox="0 0 150 150"
   version="1.1"
   id="svg2076"
   sodipodi:docname="Resistor-IEC-Varistor.svg"
   xmlns:inkscape="http://www.inkscape.org/namespaces/inkscape"
   xmlns:sodipodi="http://sodipodi.sourceforge.net/DTD/sodipodi-0.dtd"
   xmlns="http://www.w3.org/2000/svg"
   xmlns:svg="http://www.w3.org/2000/svg">
  <defs
     id="defs2080" />
  <sodipodi:namedview
     id="namedview2078"
     pagecolor="#ffffff"
     bordercolor="#000000"
     borderopacity="0.25"
     inkscape:showpageshadow="2"
     inkscape:pageopacity="0.0"
     inkscape:pagecheckerboard="0"
     inkscape:deskcolor="#d1d1d1" />
  <path
     style="color:#000000;fill:#000000;stroke-miterlimit:10;-inkscape-stroke:none"
     d="m 22.5,53.75 v 2.5 16.25 H 0 v 5 h 22.5 v 18.75 h 105 V 77.5 H 150 v -5 H 127.5 V 53.75 Z m 5,5 h 95 v 32.5 h -95 z"
     id="path2070" />
  <path
     style="color:#000000;fill:#000000;stroke-miterlimit:10;-inkscape-stroke:none"
     d="M 105.07813,35 42.578125,110 H 12.5 v 5 H 44.921875 L 107.42188,40 H 137.5 v -5 z"
     id="path2072" />
  <path
     d="m125 112.5-9.33 25h-6.35l-9.32-25h5.88l5.12 14.88c.09.25.24.72.44 1.41l.61 2.19c.21.77.34 1.4.42 1.9.07-.5.21-1.13.4-1.9s.39-1.49.59-2.18.33-1.16.42-1.42l5.2-14.88Z"
     id="path2074" />
</svg>
