<?xml version="1.0" encoding="UTF-8" standalone="no"?>
<svg
   viewBox="0 0 150 150"
   version="1.1"
   id="svg2270"
   sodipodi:docname="Resistor-IEEE-Varistor.svg"
   xmlns:inkscape="http://www.inkscape.org/namespaces/inkscape"
   xmlns:sodipodi="http://sodipodi.sourceforge.net/DTD/sodipodi-0.dtd"
   xmlns="http://www.w3.org/2000/svg"
   xmlns:svg="http://www.w3.org/2000/svg">
  <defs
     id="defs2274" />
  <sodipodi:namedview
     id="namedview2272"
     pagecolor="#ffffff"
     bordercolor="#000000"
     borderopacity="0.25"
     inkscape:showpageshadow="2"
     inkscape:pageopacity="0.0"
     inkscape:pagecheckerboard="0"
     inkscape:deskcolor="#d1d1d1" />
  <path
     style="color:#000000;fill:#000000;stroke-linejoin:bevel;-inkscape-stroke:none"
     d="M 39.228516,49.017578 29.576172,72.439453 H 0 v 5 h 31.25 l 2.310547,-1.546875 7.474609,-18.136719 11.46875,42.890621 h 4.830078 l 10.97461,-40.978511 10.966797,40.978511 4.828125,0.004 10.976562,-40.669921 10.966802,40.669921 4.7246,0.30078 L 120.42383,77.5 H 150 v -5 h -31.25 l -2.3125,1.548828 -7.48437,18.183594 L 97.494141,49.728516 H 92.666016 L 81.699219,90.365234 70.724609,49.353516 H 65.894531 L 54.921875,90.330078 43.955078,49.324219 Z"
     id="path2264" />
  <path
     style="color:#000000;fill:#000000;stroke-miterlimit:10;-inkscape-stroke:none"
     d="M 105.07813,35 42.578125,110 H 12.5 v 5 H 44.921875 L 107.42188,40 H 137.5 v -5 z"
     id="path2266" />
  <path
     d="m125 112.5-9.33 25h-6.35l-9.32-25h5.88l5.12 14.88c.09.25.24.72.44 1.41l.61 2.19c.21.77.34 1.4.42 1.9.07-.5.21-1.13.4-1.9s.39-1.49.59-2.18.33-1.16.42-1.42l5.2-14.88Z"
     id="path2268" />
</svg>
