<?xml version="1.0" encoding="UTF-8" standalone="no"?>
<svg
   viewBox="0 0 150 150"
   version="1.1"
   id="svg2244"
   sodipodi:docname="Resistor-IEEE-Trimmer.svg"
   xmlns:inkscape="http://www.inkscape.org/namespaces/inkscape"
   xmlns:sodipodi="http://sodipodi.sourceforge.net/DTD/sodipodi-0.dtd"
   xmlns="http://www.w3.org/2000/svg"
   xmlns:svg="http://www.w3.org/2000/svg">
  <defs
     id="defs2248" />
  <sodipodi:namedview
     id="namedview2246"
     pagecolor="#ffffff"
     bordercolor="#000000"
     borderopacity="0.25"
     inkscape:showpageshadow="2"
     inkscape:pageopacity="0.0"
     inkscape:pagecheckerboard="0"
     inkscape:deskcolor="#d1d1d1" />
  <g
     fill="none"
     stroke="#000"
     stroke-width="5"
     id="g2242">
    <path
       style="color:#000000;fill:#000000;stroke-linejoin:bevel;-inkscape-stroke:none"
       d="M 39.228516,49.017578 29.576172,72.439453 H 0 v 5 h 31.25 l 2.310547,-1.546875 7.474609,-18.136719 11.46875,42.890621 h 4.830078 l 10.97461,-40.978511 10.966797,40.978511 4.828125,0.004 10.976562,-40.669921 10.966802,40.669921 4.7246,0.30078 L 120.42383,77.5 H 150 v -5 h -31.25 l -2.3125,1.548828 -7.48437,18.183594 L 97.494141,49.728516 H 92.666016 L 81.699219,90.365234 70.724609,49.353516 H 65.894531 L 54.921875,90.330078 43.955078,49.324219 Z"
       id="path2238" />
    <path
       style="color:#000000;fill:#000000;stroke-miterlimit:10;-inkscape-stroke:none"
       d="m 108.01758,16.982422 -3.53516,3.535156 10.73242,10.732422 -85.732418,85.73242 3.535156,3.53516 85.732422,-85.732424 10.73242,10.732422 3.53516,-3.535156 z"
       id="path2240" />
  </g>
</svg>
