<svg xmlns="http://www.w3.org/2000/svg" viewBox="0 0 150 150"><path d="M22.5 53.75V72.5H0v5h22.5v18.75h105V77.5H150v-5h-22.5V53.75Zm5 5h95v32.5h-95z" style="color:#000;fill:#000;stroke-miterlimit:10;-inkscape-stroke:none"/><path d="m105.078 35-62.5 75H12.5v5h32.422l62.5-75H137.5v-5z" style="color:#000;fill:#000;stroke-miterlimit:10;-inkscape-stroke:none"/><path d="m125 112.5-9.33 25h-6.35l-9.32-25h5.88l5.12 14.88c.09.25.24.72.44 1.41l.61 2.19c.21.77.34 1.4.42 1.9.07-.5.21-1.13.4-1.9s.39-1.49.59-2.18.33-1.16.42-1.42l5.2-14.88Z"/></svg>