<svg xmlns="http://www.w3.org/2000/svg" viewBox="0 0 150 150"><path d="m39.229 49.018-9.653 23.421H0v5h31.25l2.31-1.546 7.475-18.137 11.469 42.89h4.83l10.975-40.978 10.966 40.978 4.829.004L95.08 59.98l10.967 40.67 4.724.301 9.653-23.451H150v-5h-31.25l-2.312 1.549-7.485 18.183L97.494 49.73h-4.828L81.699 90.365 70.725 49.354h-4.83L54.922 90.33 43.955 49.324Z" style="color:#000;fill:#000;stroke-linejoin:bevel;-inkscape-stroke:none"/><path d="m105.078 35-62.5 75H12.5v5h32.422l62.5-75H137.5v-5z" style="color:#000;fill:#000;stroke-miterlimit:10;-inkscape-stroke:none"/><path d="m125 112.5-9.33 25h-6.35l-9.32-25h5.88l5.12 14.88c.09.25.24.72.44 1.41l.61 2.19c.21.77.34 1.4.42 1.9.07-.5.21-1.13.4-1.9s.39-1.49.59-2.18.33-1.16.42-1.42l5.2-14.88Z"/></svg>