<svg xmlns="http://www.w3.org/2000/svg" viewBox="0 0 150 150"><g><path d="M75 22.5c-28.965 0-52.5 23.535-52.5 52.5s23.535 52.5 52.5 52.5 52.5-23.535 52.5-52.5S103.965 22.5 75 22.5zm0 5c26.263 0 47.5 21.237 47.5 47.5s-21.237 47.5-47.5 47.5S27.5 101.263 27.5 75 48.737 27.5 75 27.5Z" style="color:#000;fill:#000;stroke-miterlimit:10;-inkscape-stroke:none"/><path d="M59.13 57.25c-17.403 0-24.444 17.186-24.444 17.186l4.628 1.888s5.72-14.074 19.817-14.074c3.124 0 4.713 1.24 6.408 3.717s3.078 6.196 4.684 10.107c1.605 3.911 3.46 8.05 6.611 11.348S84.548 93 90.631 93c11.573 0 17.937-4.186 20.996-8.646s2.871-9.079 2.871-9.079l-4.996.21s.128 2.94-1.998 6.04S101.058 88 90.63 88c-4.918 0-7.824-1.563-10.182-4.031-2.357-2.468-4.049-6.017-5.6-9.793-1.55-3.777-2.933-7.745-5.183-11.033-2.25-3.289-5.784-5.893-10.535-5.893ZM0 72.5v5h25v-5zm125 0v5h25v-5z" style="color:#000;fill:#000;stroke-miterlimit:10;-inkscape-stroke:none"/></g></svg>