<svg xmlns="http://www.w3.org/2000/svg" viewBox="0 0 150 150"><path d="M81.75 50v50h5V77.5H150v-5H86.75V50Zm-18.5 12.5v10H0v5h63.25v10h5v-25z" style="color:#000;fill:#000;stroke-miterlimit:10;-inkscape-stroke:none"/><path d="M75 28.75c-25.514 0-46.25 20.736-46.25 46.25S49.486 121.25 75 121.25s46.25-20.736 46.25-46.25S100.514 28.75 75 28.75m0 5c22.811 0 41.25 18.439 41.25 41.25S97.811 116.25 75 116.25 33.75 97.811 33.75 75 52.189 33.75 75 33.75M26.768 4.482l-3.536 3.536 18.75 18.75 3.536-3.536z" style="color:#000;fill:#000;stroke-miterlimit:10;-inkscape-stroke:none"/><path d="m36.91 28.74 14.45 3.87-3.87-14.45z"/><path d="m8.018 23.232-3.536 3.536 18.75 18.75 3.536-3.536z" style="color:#000;fill:#000;stroke-miterlimit:10;-inkscape-stroke:none"/><path d="m18.16 47.49 14.45 3.87-3.87-14.45z"/></svg>