<?xml version="1.0" encoding="UTF-8" standalone="no"?>
<svg
   viewBox="0 0 150 150"
   version="1.1"
   id="svg2298"
   sodipodi:docname="Source-COM-AC.svg"
   xmlns:inkscape="http://www.inkscape.org/namespaces/inkscape"
   xmlns:sodipodi="http://sodipodi.sourceforge.net/DTD/sodipodi-0.dtd"
   xmlns="http://www.w3.org/2000/svg"
   xmlns:svg="http://www.w3.org/2000/svg">
  <defs
     id="defs2302" />
  <sodipodi:namedview
     id="namedview2300"
     pagecolor="#ffffff"
     bordercolor="#000000"
     borderopacity="0.25"
     inkscape:showpageshadow="2"
     inkscape:pageopacity="0.0"
     inkscape:pagecheckerboard="0"
     inkscape:deskcolor="#d1d1d1" />
  <g
     fill="none"
     stroke="#000"
     stroke-miterlimit="10"
     stroke-width="5"
     id="g2296">
    <path
       style="color:#000000;fill:#000000;stroke-miterlimit:10;-inkscape-stroke:none"
       d="m 75,22.5 c -28.965309,0 -52.5,23.534691 -52.5,52.5 0,28.96531 23.534691,52.5 52.5,52.5 28.96531,0 52.5,-23.53469 52.5,-52.5 0,-28.965309 -23.53469,-52.5 -52.5,-52.5 z m 0,5 c 26.26311,0 47.5,21.236889 47.5,47.5 0,26.26311 -21.23689,47.5 -47.5,47.5 C 48.736889,122.5 27.5,101.26311 27.5,75 27.5,48.736889 48.736889,27.5 75,27.5 Z"
       id="circle2292" />
    <path
       style="color:#000000;fill:#000000;stroke-miterlimit:10;-inkscape-stroke:none"
       d="m 59.130859,57.25 c -17.40395,0 -24.445312,17.185547 -24.445312,17.185547 l 4.628906,1.888672 c 0,0 5.720389,-14.074219 19.816406,-14.074219 3.124005,0 4.712929,1.239346 6.408203,3.716797 1.695275,2.47745 3.077946,6.196634 4.683594,10.107422 1.605649,3.910787 3.461023,8.04989 6.611328,11.347656 C 79.98429,90.719641 84.548479,93 90.630859,93 c 11.572721,0 17.937181,-4.186436 20.996091,-8.646484 3.05891,-4.460049 2.8711,-9.078125 2.8711,-9.078125 l -4.9961,0.208984 c 0,0 0.12804,2.941072 -1.99804,6.041016 C 105.37782,84.625334 101.05812,88 90.630859,88 85.713251,88 82.806721,86.436603 80.449219,83.96875 78.091717,81.500897 76.400208,77.952486 74.849609,74.175781 73.299011,70.399076 71.91605,66.430747 69.666016,63.142578 67.415981,59.854409 63.881847,57.25 59.130859,57.25 Z M 0,72.5 v 5 h 25 v -5 z m 125,0 v 5 h 25 v -5 z"
       id="path2294" />
  </g>
</svg>
