<?xml version="1.0" encoding="UTF-8" standalone="no"?>
<svg
   viewBox="0 0 150 150"
   version="1.1"
   id="svg2460"
   sodipodi:docname="Source-COM-Photovoltaic.svg"
   xmlns:inkscape="http://www.inkscape.org/namespaces/inkscape"
   xmlns:sodipodi="http://sodipodi.sourceforge.net/DTD/sodipodi-0.dtd"
   xmlns="http://www.w3.org/2000/svg"
   xmlns:svg="http://www.w3.org/2000/svg">
  <defs
     id="defs2464" />
  <sodipodi:namedview
     id="namedview2462"
     pagecolor="#ffffff"
     bordercolor="#000000"
     borderopacity="0.25"
     inkscape:showpageshadow="2"
     inkscape:pageopacity="0.0"
     inkscape:pagecheckerboard="0"
     inkscape:deskcolor="#d1d1d1" />
  <path
     style="color:#000000;fill:#000000;stroke-miterlimit:10;-inkscape-stroke:none"
     d="m 81.75,50 v 50 h 5 V 77.5 H 150 v -5 H 86.75 V 50 Z m -18.5,12.5 v 10 H 0 v 5 h 63.25 v 10 h 5 v -25 z"
     id="path2448" />
  <path
     style="color:#000000;fill:#000000;stroke-miterlimit:10;-inkscape-stroke:none"
     d="m 75,28.75 c -25.513533,0 -46.25,20.736467 -46.25,46.25 0,25.51353 20.736467,46.25 46.25,46.25 25.51353,0 46.25,-20.73647 46.25,-46.25 0,-25.513533 -20.73647,-46.25 -46.25,-46.25 z m 0,5 c 22.811335,0 41.25,18.438665 41.25,41.25 0,22.811335 -18.438665,41.25 -41.25,41.25 C 52.188665,116.25 33.75,97.811335 33.75,75 33.75,52.188665 52.188665,33.75 75,33.75 Z"
     id="circle2450" />
  <path
     style="color:#000000;fill:#000000;stroke-miterlimit:10;-inkscape-stroke:none"
     d="m 26.767578,4.4824219 -3.535156,3.5351562 18.75,18.7499999 3.535156,-3.535156 z"
     id="path2452" />
  <path
     d="m36.91 28.74 14.45 3.87-3.87-14.45-10.58 10.58z"
     id="path2454" />
  <path
     style="color:#000000;fill:#000000;stroke-miterlimit:10;-inkscape-stroke:none"
     d="m 8.0175781,23.232422 -3.5351562,3.535156 18.7500001,18.75 3.535156,-3.535156 z"
     id="path2456" />
  <path
     d="m18.16 47.49 14.45 3.87-3.87-14.45-10.58 10.58z"
     id="path2458" />
</svg>
