<svg xmlns="http://www.w3.org/2000/svg" viewBox="0 0 150 150"><path d="M75 22.5c-28.965 0-52.5 23.535-52.5 52.5s23.535 52.5 52.5 52.5 52.5-23.535 52.5-52.5S103.965 22.5 75 22.5m0 5c26.263 0 47.5 21.237 47.5 47.5s-21.237 47.5-47.5 47.5S27.5 101.263 27.5 75 48.737 27.5 75 27.5" style="color:#000;fill:#000;stroke-miterlimit:10;-inkscape-stroke:none"/><path d="M0 72.5v5h25v-5zm37.5 0v5h53.47v-5zm87.5 0v5h25v-5z" style="color:#000;fill:#000;stroke-miterlimit:10;-inkscape-stroke:none"/><path d="M86.59 89.96 112.5 75 86.59 60.04z"/></svg>