<svg xmlns="http://www.w3.org/2000/svg" viewBox="0 0 150 150"><g><path d="M37.5 66.25c-4.803 0-8.75 3.947-8.75 8.75s3.947 8.75 8.75 8.75 8.75-3.947 8.75-8.75-3.947-8.75-8.75-8.75zm0 5c2.1 0 3.75 1.65 3.75 3.75s-1.65 3.75-3.75 3.75-3.75-1.65-3.75-3.75 1.65-3.75 3.75-3.75z" style="color:#000;fill:#000;stroke-miterlimit:10;-inkscape-stroke:none"/><path d="M0 72.44v5h31.25v-5zM112.5 66.25c-4.803 0-8.75 3.947-8.75 8.75s3.947 8.75 8.75 8.75 8.75-3.947 8.75-8.75-3.947-8.75-8.75-8.75zm0 5c2.1 0 3.75 1.65 3.75 3.75s-1.65 3.75-3.75 3.75-3.75-1.65-3.75-3.75 1.65-3.75 3.75-3.75z" style="color:#000;fill:#000;stroke-miterlimit:10;-inkscape-stroke:none"/><path d="m100.705 34.361-58.25 35.25 2.59 4.278 58.25-35.25zm18.045 38.2v5H150v-5z" style="color:#000;fill:#000;stroke-miterlimit:10;-inkscape-stroke:none"/></g></svg>