<?xml version="1.0" encoding="UTF-8" standalone="no"?>
<svg
   viewBox="0 0 150 150"
   version="1.1"
   id="svg2799"
   sodipodi:docname="Switch-COM-Pushbutton-NO.svg"
   xmlns:inkscape="http://www.inkscape.org/namespaces/inkscape"
   xmlns:sodipodi="http://sodipodi.sourceforge.net/DTD/sodipodi-0.dtd"
   xmlns="http://www.w3.org/2000/svg"
   xmlns:svg="http://www.w3.org/2000/svg">
  <defs
     id="defs2803" />
  <sodipodi:namedview
     id="namedview2801"
     pagecolor="#ffffff"
     bordercolor="#000000"
     borderopacity="0.25"
     inkscape:showpageshadow="2"
     inkscape:pageopacity="0.0"
     inkscape:pagecheckerboard="0"
     inkscape:deskcolor="#d1d1d1" />
  <g
     fill="none"
     stroke="#000"
     stroke-miterlimit="10"
     stroke-width="5"
     id="g2797">
    <path
       style="color:#000000;fill:#000000;stroke-miterlimit:10;-inkscape-stroke:none"
       d="m 50,66.25 c -4.802875,0 -8.75,3.947125 -8.75,8.75 0,4.802875 3.947125,8.75 8.75,8.75 4.802875,0 8.75,-3.947125 8.75,-8.75 0,-4.802875 -3.947125,-8.75 -8.75,-8.75 z m 0,5 c 2.100677,0 3.75,1.649323 3.75,3.75 0,2.100677 -1.649323,3.75 -3.75,3.75 -2.100677,0 -3.75,-1.649323 -3.75,-3.75 0,-2.100677 1.649323,-3.75 3.75,-3.75 z"
       id="circle2789" />
    <path
       style="color:#000000;fill:#000000;stroke-miterlimit:10;-inkscape-stroke:none"
       d="m 0,72.439453 v 5 h 43.75 v -5 z"
       id="path2791" />
    <path
       style="color:#000000;fill:#000000;stroke-miterlimit:10;-inkscape-stroke:none"
       d="m 100,66.25 c -4.802875,0 -8.75,3.947125 -8.75,8.75 0,4.802875 3.947125,8.75 8.75,8.75 4.80288,0 8.75,-3.947125 8.75,-8.75 0,-4.802875 -3.94712,-8.75 -8.75,-8.75 z m 0,5 c 2.10068,0 3.75,1.649323 3.75,3.75 0,2.100677 -1.64932,3.75 -3.75,3.75 -2.100677,0 -3.75,-1.649323 -3.75,-3.75 0,-2.100677 1.649323,-3.75 3.75,-3.75 z"
       id="circle2793" />
    <path
       style="color:#000000;fill:#000000;stroke-miterlimit:10;-inkscape-stroke:none"
       d="m 62.5,28.75 v 5 h 10 V 47.5 h -35 v 5 h 75 v -5 h -35 V 33.75 h 10 v -5 z m 43.75,43.810547 v 5 H 150 v -5 z"
       id="path2795" />
  </g>
</svg>
