<?xml version="1.0" encoding="UTF-8" standalone="no"?>
<svg
   viewBox="0 0 150 150"
   version="1.1"
   id="svg2961"
   sodipodi:docname="Switch-COM-SPST.svg"
   xmlns:inkscape="http://www.inkscape.org/namespaces/inkscape"
   xmlns:sodipodi="http://sodipodi.sourceforge.net/DTD/sodipodi-0.dtd"
   xmlns="http://www.w3.org/2000/svg"
   xmlns:svg="http://www.w3.org/2000/svg">
  <defs
     id="defs2965" />
  <sodipodi:namedview
     id="namedview2963"
     pagecolor="#ffffff"
     bordercolor="#000000"
     borderopacity="0.25"
     inkscape:showpageshadow="2"
     inkscape:pageopacity="0.0"
     inkscape:pagecheckerboard="0"
     inkscape:deskcolor="#d1d1d1" />
  <g
     fill="none"
     stroke="#000"
     stroke-miterlimit="10"
     stroke-width="5"
     id="g2959">
    <path
       style="color:#000000;fill:#000000;stroke-miterlimit:10;-inkscape-stroke:none"
       d="m 37.5,66.25 c -4.802875,0 -8.75,3.947125 -8.75,8.75 0,4.802875 3.947125,8.75 8.75,8.75 4.802875,0 8.75,-3.947125 8.75,-8.75 0,-4.802875 -3.947125,-8.75 -8.75,-8.75 z m 0,5 c 2.100677,0 3.75,1.649323 3.75,3.75 0,2.100677 -1.649323,3.75 -3.75,3.75 -2.100677,0 -3.75,-1.649323 -3.75,-3.75 0,-2.100677 1.649323,-3.75 3.75,-3.75 z"
       id="circle2951" />
    <path
       style="color:#000000;fill:#000000;stroke-miterlimit:10;-inkscape-stroke:none"
       d="m 0,72.439453 v 5 h 31.25 v -5 z"
       id="path2953" />
    <path
       style="color:#000000;fill:#000000;stroke-miterlimit:10;-inkscape-stroke:none"
       d="m 112.5,66.25 c -4.80288,0 -8.75,3.947125 -8.75,8.75 0,4.802875 3.94712,8.75 8.75,8.75 4.80288,0 8.75,-3.947125 8.75,-8.75 0,-4.802875 -3.94712,-8.75 -8.75,-8.75 z m 0,5 c 2.10068,0 3.75,1.649323 3.75,3.75 0,2.100677 -1.64932,3.75 -3.75,3.75 -2.10068,0 -3.75,-1.649323 -3.75,-3.75 0,-2.100677 1.64932,-3.75 3.75,-3.75 z"
       id="circle2955" />
    <path
       style="color:#000000;fill:#000000;stroke-miterlimit:10;-inkscape-stroke:none"
       d="m 100.70508,34.361328 -58.250002,35.25 2.589844,4.277344 58.249998,-35.25 z M 118.75,72.560547 v 5 H 150 v -5 z"
       id="path2957" />
  </g>
</svg>
