<svg xmlns="http://www.w3.org/2000/svg" viewBox="0 0 150 150"><g><path d="M50 41.25c-4.803 0-8.75 3.947-8.75 8.75s3.947 8.75 8.75 8.75 8.75-3.947 8.75-8.75-3.947-8.75-8.75-8.75zm0 5c2.1 0 3.75 1.65 3.75 3.75S52.1 53.75 50 53.75 46.25 52.1 46.25 50s1.65-3.75 3.75-3.75z" style="color:#000;fill:#000;stroke-miterlimit:10;-inkscape-stroke:none"/><path d="M0 47.44v5h43.75v-5z" style="color:#000;fill:#000;stroke-miterlimit:10;-inkscape-stroke:none"/><path d="M100 41.25c-4.803 0-8.75 3.947-8.75 8.75s3.947 8.75 8.75 8.75 8.75-3.947 8.75-8.75-3.947-8.75-8.75-8.75zm0 5c2.1 0 3.75 1.65 3.75 3.75s-1.65 3.75-3.75 3.75-3.75-1.65-3.75-3.75 1.65-3.75 3.75-3.75z" style="color:#000;fill:#000;stroke-miterlimit:10;-inkscape-stroke:none"/><path d="M62.5 22.5v5h10V60h-35v5h75v-5h-35V27.5h10v-5zm43.75 25.06v5H150v-5z" style="color:#000;fill:#000;stroke-miterlimit:10;-inkscape-stroke:none"/><path d="M50 91.25c-4.803 0-8.75 3.947-8.75 8.75s3.947 8.75 8.75 8.75 8.75-3.947 8.75-8.75-3.947-8.75-8.75-8.75zm0 5c2.1 0 3.75 1.65 3.75 3.75s-1.65 3.75-3.75 3.75-3.75-1.65-3.75-3.75 1.65-3.75 3.75-3.75z" style="color:#000;fill:#000;stroke-miterlimit:10;-inkscape-stroke:none"/><path d="M0 97.44v5h43.75v-5z" style="color:#000;fill:#000;stroke-miterlimit:10;-inkscape-stroke:none"/><path d="M100 91.25c-4.803 0-8.75 3.947-8.75 8.75s3.947 8.75 8.75 8.75 8.75-3.947 8.75-8.75-3.947-8.75-8.75-8.75zm0 5c2.1 0 3.75 1.65 3.75 3.75s-1.65 3.75-3.75 3.75-3.75-1.65-3.75-3.75 1.65-3.75 3.75-3.75z" style="color:#000;fill:#000;stroke-miterlimit:10;-inkscape-stroke:none"/><path d="M106.25 97.56v5H150v-5z" style="color:#000;fill:#000;stroke-miterlimit:10;-inkscape-stroke:none"/></g></svg>