<svg xmlns="http://www.w3.org/2000/svg" viewBox="0 0 150 150"><g><path d="M37.5 28.75c-4.803 0-8.75 3.947-8.75 8.75s3.947 8.75 8.75 8.75 8.75-3.947 8.75-8.75-3.947-8.75-8.75-8.75zm0 5c2.1 0 3.75 1.65 3.75 3.75s-1.65 3.75-3.75 3.75-3.75-1.65-3.75-3.75 1.65-3.75 3.75-3.75z" style="color:#000;fill:#000;stroke-miterlimit:10;-inkscape-stroke:none"/><path d="M0 34.94v5h31.25v-5z" style="color:#000;fill:#000;stroke-miterlimit:10;-inkscape-stroke:none"/><path d="M112.81 45.33c-4.802 0-8.75 3.947-8.75 8.75s3.948 8.75 8.75 8.75c4.803 0 8.75-3.947 8.75-8.75s-3.947-8.75-8.75-8.75zm0 5c2.101 0 3.75 1.65 3.75 3.75s-1.649 3.75-3.75 3.75-3.75-1.65-3.75-3.75 1.65-3.75 3.75-3.75z" style="color:#000;fill:#000;stroke-miterlimit:10;-inkscape-stroke:none"/><path d="m124.438 16.314-81.25 18.75 1.124 4.872 81.25-18.75zM119.06 51.65v5h31.25v-5z" style="color:#000;fill:#000;stroke-miterlimit:10;-inkscape-stroke:none"/><path d="M112.81 3.5c-4.802 0-8.75 3.947-8.75 8.75s3.948 8.75 8.75 8.75c4.803 0 8.75-3.947 8.75-8.75s-3.947-8.75-8.75-8.75zm0 5c2.101 0 3.75 1.65 3.75 3.75S114.912 16 112.81 16s-3.75-1.65-3.75-3.75 1.65-3.75 3.75-3.75z" style="color:#000;fill:#000;stroke-miterlimit:10;-inkscape-stroke:none"/><path d="M119.06 9.81v5h31.25v-5ZM72.5 34.5V37h5v-2.5z" style="color:#000;fill:#000;stroke-miterlimit:10;-inkscape-stroke:none"/><path d="M72.5 42.33v5.33h5v-5.33zm0 10.66v5.33h5v-5.33zm0 10.66v5.33h5v-5.33zm0 10.66v5.33h5v-5.33zm0 10.66v5.33h5v-5.33zm0 10.66v5.33h5v-5.33z" style="color:#000;fill:#000;stroke-miterlimit:10;stroke-dasharray:5.33,5.33;-inkscape-stroke:none"/><path d="M72.5 106.25v2.5h5v-2.5z" style="color:#000;fill:#000;stroke-miterlimit:10;-inkscape-stroke:none"/><path d="M37.5 110c-4.803 0-8.75 3.947-8.75 8.75s3.947 8.75 8.75 8.75 8.75-3.947 8.75-8.75S42.303 110 37.5 110zm0 5c2.1 0 3.75 1.65 3.75 3.75s-1.65 3.75-3.75 3.75-3.75-1.65-3.75-3.75S35.4 115 37.5 115z" style="color:#000;fill:#000;stroke-miterlimit:10;-inkscape-stroke:none"/><path d="M0 116.19v5h31.25v-5z" style="color:#000;fill:#000;stroke-miterlimit:10;-inkscape-stroke:none"/><path d="M112.81 129c-4.802 0-8.75 3.947-8.75 8.75s3.948 8.75 8.75 8.75c4.803 0 8.75-3.947 8.75-8.75s-3.947-8.75-8.75-8.75zm0 5c2.101 0 3.75 1.65 3.75 3.75s-1.649 3.75-3.75 3.75-3.75-1.65-3.75-3.75 1.65-3.75 3.75-3.75z" style="color:#000;fill:#000;stroke-miterlimit:10;-inkscape-stroke:none"/><path d="m124.531 100.795-81.25 15.5.938 4.91 81.25-15.5zm-5.47 34.516v5h31.25v-5z" style="color:#000;fill:#000;stroke-miterlimit:10;-inkscape-stroke:none"/><path d="M112.81 87.17c-4.802 0-8.75 3.947-8.75 8.75s3.948 8.75 8.75 8.75c4.803 0 8.75-3.947 8.75-8.75s-3.947-8.75-8.75-8.75zm0 5c2.101 0 3.75 1.65 3.75 3.75s-1.649 3.75-3.75 3.75-3.75-1.65-3.75-3.75 1.65-3.75 3.75-3.75z" style="color:#000;fill:#000;stroke-miterlimit:10;-inkscape-stroke:none"/><path d="M119.06 93.48v5h31.25v-5z" style="color:#000;fill:#000;stroke-miterlimit:10;-inkscape-stroke:none"/></g></svg>