<?xml version="1.0" encoding="UTF-8" standalone="no"?>
<svg
   viewBox="0 0 150 150"
   version="1.1"
   id="svg2577"
   sodipodi:docname="Switch-COM-DPDT.svg"
   xmlns:inkscape="http://www.inkscape.org/namespaces/inkscape"
   xmlns:sodipodi="http://sodipodi.sourceforge.net/DTD/sodipodi-0.dtd"
   xmlns="http://www.w3.org/2000/svg"
   xmlns:svg="http://www.w3.org/2000/svg">
  <defs
     id="defs2581" />
  <sodipodi:namedview
     id="namedview2579"
     pagecolor="#ffffff"
     bordercolor="#000000"
     borderopacity="0.25"
     inkscape:showpageshadow="2"
     inkscape:pageopacity="0.0"
     inkscape:pagecheckerboard="0"
     inkscape:deskcolor="#d1d1d1" />
  <g
     fill="none"
     stroke="#000"
     stroke-miterlimit="10"
     stroke-width="5"
     id="g2575">
    <path
       style="color:#000000;fill:#000000;stroke-miterlimit:10;-inkscape-stroke:none"
       d="m 37.5,28.75 c -4.802875,0 -8.75,3.947125 -8.75,8.75 0,4.802875 3.947125,8.75 8.75,8.75 4.802875,0 8.75,-3.947125 8.75,-8.75 0,-4.802875 -3.947125,-8.75 -8.75,-8.75 z m 0,5 c 2.100677,0 3.75,1.649323 3.75,3.75 0,2.100677 -1.649323,3.75 -3.75,3.75 -2.100677,0 -3.75,-1.649323 -3.75,-3.75 0,-2.100677 1.649323,-3.75 3.75,-3.75 z"
       id="circle2547" />
    <path
       style="color:#000000;fill:#000000;stroke-miterlimit:10;-inkscape-stroke:none"
       d="m 0,34.939453 v 5 h 31.25 v -5 z"
       id="path2549" />
    <path
       style="color:#000000;fill:#000000;stroke-miterlimit:10;-inkscape-stroke:none"
       d="m 112.81055,45.330078 c -4.80288,0 -8.75,3.947125 -8.75,8.75 0,4.802875 3.94712,8.75 8.75,8.75 4.80287,0 8.75,-3.947125 8.75,-8.75 0,-4.802875 -3.94713,-8.75 -8.75,-8.75 z m 0,5 c 2.10067,0 3.75,1.649323 3.75,3.75 0,2.100677 -1.64933,3.75 -3.75,3.75 -2.10068,0 -3.75,-1.649323 -3.75,-3.75 0,-2.100677 1.64932,-3.75 3.75,-3.75 z"
       id="circle2551" />
    <path
       style="color:#000000;fill:#000000;stroke-miterlimit:10;-inkscape-stroke:none"
       d="m 124.4375,16.314453 -81.25,18.75 1.125,4.871094 81.25,-18.75 z m -5.37695,35.335938 v 5 h 31.25 v -5 z"
       id="path2553" />
    <path
       style="color:#000000;fill:#000000;stroke-miterlimit:10;-inkscape-stroke:none"
       d="m 112.81055,3.5 c -4.80288,0 -8.75,3.9471248 -8.75,8.75 0,4.802875 3.94712,8.75 8.75,8.75 4.80287,0 8.75,-3.947125 8.75,-8.75 0,-4.8028752 -3.94713,-8.75 -8.75,-8.75 z m 0,5 c 2.10067,0 3.75,1.649323 3.75,3.75 0,2.100677 -1.64933,3.75 -3.75,3.75 -2.10068,0 -3.75,-1.649323 -3.75,-3.75 0,-2.100677 1.64932,-3.75 3.75,-3.75 z"
       id="circle2555" />
    <path
       style="color:#000000;fill:#000000;stroke-miterlimit:10;-inkscape-stroke:none"
       d="m 119.06055,9.8105469 v 5.0000001 h 31.25 V 9.8105469 Z M 72.5,34.5 V 37 h 5 v -2.5 z"
       id="path2557" />
    <path
       style="color:#000000;fill:#000000;stroke-miterlimit:10;stroke-dasharray:5.33, 5.33;-inkscape-stroke:none"
       d="m 72.5,42.330078 v 5.330078 h 5 v -5.330078 z m 0,10.660156 v 5.330078 h 5 v -5.330078 z m 0,10.660157 v 5.330078 h 5 v -5.330078 z m 0,10.660156 v 5.330078 h 5 v -5.330078 z m 0,10.660156 v 5.330078 h 5 v -5.330078 z m 0,10.660156 v 5.330081 h 5 v -5.330081 z"
       id="path2559" />
    <path
       style="color:#000000;fill:#000000;stroke-miterlimit:10;-inkscape-stroke:none"
       d="m 72.5,106.25 v 2.5 h 5 v -2.5 z"
       id="path2561" />
    <path
       style="color:#000000;fill:#000000;stroke-miterlimit:10;-inkscape-stroke:none"
       d="m 37.5,110 c -4.802875,0 -8.75,3.94712 -8.75,8.75 0,4.80288 3.947125,8.75 8.75,8.75 4.802875,0 8.75,-3.94712 8.75,-8.75 0,-4.80288 -3.947125,-8.75 -8.75,-8.75 z m 0,5 c 2.100677,0 3.75,1.64932 3.75,3.75 0,2.10068 -1.649323,3.75 -3.75,3.75 -2.100677,0 -3.75,-1.64932 -3.75,-3.75 0,-2.10068 1.649323,-3.75 3.75,-3.75 z"
       id="circle2563" />
    <path
       style="color:#000000;fill:#000000;stroke-miterlimit:10;-inkscape-stroke:none"
       d="m 0,116.18945 v 5 h 31.25 v -5 z"
       id="path2565" />
    <path
       style="color:#000000;fill:#000000;stroke-miterlimit:10;-inkscape-stroke:none"
       d="m 112.81055,129 c -4.80288,0 -8.75,3.94712 -8.75,8.75 0,4.80288 3.94712,8.75 8.75,8.75 4.80287,0 8.75,-3.94712 8.75,-8.75 0,-4.80288 -3.94713,-8.75 -8.75,-8.75 z m 0,5 c 2.10067,0 3.75,1.64932 3.75,3.75 0,2.10068 -1.64933,3.75 -3.75,3.75 -2.10068,0 -3.75,-1.64932 -3.75,-3.75 0,-2.10068 1.64932,-3.75 3.75,-3.75 z"
       id="circle2567" />
    <path
       style="color:#000000;fill:#000000;stroke-miterlimit:10;-inkscape-stroke:none"
       d="m 124.53125,100.79492 -81.25,15.5 0.9375,4.91016 81.25,-15.5 z m -5.4707,34.51563 v 5 h 31.25 v -5 z"
       id="path2569" />
    <path
       style="color:#000000;fill:#000000;stroke-miterlimit:10;-inkscape-stroke:none"
       d="m 112.81055,87.169922 c -4.80288,0 -8.75,3.947125 -8.75,8.75 0,4.802878 3.94712,8.749998 8.75,8.749998 4.80287,0 8.75,-3.94712 8.75,-8.749998 0,-4.802875 -3.94713,-8.75 -8.75,-8.75 z m 0,5 c 2.10067,0 3.75,1.649323 3.75,3.75 0,2.100677 -1.64933,3.75 -3.75,3.75 -2.10068,0 -3.75,-1.649323 -3.75,-3.75 0,-2.100677 1.64932,-3.75 3.75,-3.75 z"
       id="circle2571" />
    <path
       style="color:#000000;fill:#000000;stroke-miterlimit:10;-inkscape-stroke:none"
       d="m 119.06055,93.480469 v 5 h 31.25 v -5 z"
       id="path2573" />
  </g>
</svg>
