<svg xmlns="http://www.w3.org/2000/svg" viewBox="0 0 150 150"><g><path d="M37.5 28.63c-4.803 0-8.75 3.948-8.75 8.75 0 4.804 3.947 8.75 8.75 8.75s8.75-3.946 8.75-8.75c0-4.802-3.947-8.75-8.75-8.75zm0 5c2.1 0 3.75 1.65 3.75 3.75 0 2.102-1.65 3.75-3.75 3.75s-3.75-1.648-3.75-3.75c0-2.1 1.65-3.75 3.75-3.75z" style="color:#000;fill:#000;stroke-miterlimit:10;-inkscape-stroke:none"/><path d="M0 34.81v5h31.25v-5zM112.5 28.63c-4.803 0-8.75 3.948-8.75 8.75 0 4.804 3.947 8.75 8.75 8.75s8.75-3.946 8.75-8.75c0-4.802-3.947-8.75-8.75-8.75zm0 5c2.1 0 3.75 1.65 3.75 3.75 0 2.102-1.65 3.75-3.75 3.75s-3.75-1.648-3.75-3.75c0-2.1 1.65-3.75 3.75-3.75z" style="color:#000;fill:#000;stroke-miterlimit:10;-inkscape-stroke:none"/><path d="M111.56 3.934 42.81 31.813l1.88 4.634 68.75-27.88Zm7.19 31.005v5H150v-5z" style="color:#000;fill:#000;stroke-miterlimit:10;-inkscape-stroke:none"/><g data-name="Switch-DPST"><path d="M37.5 103.13c-4.803 0-8.75 3.948-8.75 8.75 0 4.804 3.947 8.75 8.75 8.75s8.75-3.946 8.75-8.75c0-4.802-3.947-8.75-8.75-8.75zm0 5c2.1 0 3.75 1.65 3.75 3.75 0 2.102-1.65 3.75-3.75 3.75s-3.75-1.648-3.75-3.75c0-2.1 1.65-3.75 3.75-3.75z" style="color:#000;fill:#000;stroke-miterlimit:10;-inkscape-stroke:none"/><path d="M0 109.31v5h31.25v-5zM112.5 103.13c-4.803 0-8.75 3.948-8.75 8.75 0 4.804 3.947 8.75 8.75 8.75s8.75-3.946 8.75-8.75c0-4.802-3.947-8.75-8.75-8.75zm0 5c2.1 0 3.75 1.65 3.75 3.75 0 2.102-1.65 3.75-3.75 3.75s-3.75-1.648-3.75-3.75c0-2.1 1.65-3.75 3.75-3.75z" style="color:#000;fill:#000;stroke-miterlimit:10;-inkscape-stroke:none"/><path d="m111.574 78.928-68.75 27.379 1.852 4.646 68.75-27.38zm7.176 30.511v5H150v-5z" style="color:#000;fill:#000;stroke-miterlimit:10;-inkscape-stroke:none"/></g><path d="M72.5 28.25v2.5h5v-2.5z" style="color:#000;fill:#000;stroke-miterlimit:10;-inkscape-stroke:none"/><path d="M72.5 35.95v5.2h5v-5.2zm0 10.4v5.2h5v-5.2Zm0 10.4v5.2h5v-5.2Zm0 10.4v5.2h5v-5.2zm0 10.4v5.2h5v-5.2z" style="color:#000;fill:#000;stroke-miterlimit:10;stroke-dasharray:5.2,5.2;-inkscape-stroke:none"/><path d="M72.5 88v2.5h5V88Z" style="color:#000;fill:#000;stroke-miterlimit:10;-inkscape-stroke:none"/></g></svg>