<svg xmlns="http://www.w3.org/2000/svg" viewBox="0 0 150 150"><g><path d="M50 66.25c-4.803 0-8.75 3.947-8.75 8.75s3.947 8.75 8.75 8.75 8.75-3.947 8.75-8.75-3.947-8.75-8.75-8.75zm0 5c2.1 0 3.75 1.65 3.75 3.75S52.1 78.75 50 78.75 46.25 77.1 46.25 75s1.65-3.75 3.75-3.75z" style="color:#000;fill:#000;stroke-miterlimit:10;-inkscape-stroke:none"/><path d="M0 72.44v5h43.75v-5z" style="color:#000;fill:#000;stroke-miterlimit:10;-inkscape-stroke:none"/><path d="M100 66.25c-4.803 0-8.75 3.947-8.75 8.75s3.947 8.75 8.75 8.75 8.75-3.947 8.75-8.75-3.947-8.75-8.75-8.75zm0 5c2.1 0 3.75 1.65 3.75 3.75s-1.65 3.75-3.75 3.75-3.75-1.65-3.75-3.75 1.65-3.75 3.75-3.75z" style="color:#000;fill:#000;stroke-miterlimit:10;-inkscape-stroke:none"/><path d="M62.5 28.75v5h10V47.5h-35v5h75v-5h-35V33.75h10v-5zm43.75 43.81v5H150v-5z" style="color:#000;fill:#000;stroke-miterlimit:10;-inkscape-stroke:none"/></g></svg>