<?xml version="1.0" encoding="UTF-8" standalone="no"?>
<svg
   viewBox="0 0 150 150"
   version="1.1"
   id="svg3056"
   sodipodi:docname="Transformer-COM-Standard.svg"
   xmlns:inkscape="http://www.inkscape.org/namespaces/inkscape"
   xmlns:sodipodi="http://sodipodi.sourceforge.net/DTD/sodipodi-0.dtd"
   xmlns="http://www.w3.org/2000/svg"
   xmlns:svg="http://www.w3.org/2000/svg">
  <defs
     id="defs3060" />
  <sodipodi:namedview
     id="namedview3058"
     pagecolor="#ffffff"
     bordercolor="#000000"
     borderopacity="0.25"
     inkscape:showpageshadow="2"
     inkscape:pageopacity="0.0"
     inkscape:pagecheckerboard="0"
     inkscape:deskcolor="#d1d1d1" />
  <g
     fill="none"
     stroke="#000"
     stroke-linejoin="round"
     stroke-width="5"
     id="g3054">
    <path
       style="color:#000000;fill:#000000;-inkscape-stroke:none"
       d="m 66.25,6.25 v 137.5 h 5 V 6.25 Z m 12.5,0 v 137.5 h 5 V 6.25 Z M 0,10 v 5 h 37.5 c 0,0 4.288142,0.03454 8.445312,1.761719 4.157171,1.727182 7.865235,4.557026 7.865235,11.36914 0,6.819046 -3.682436,9.640895 -7.804688,11.363282 -4.122252,1.722386 -8.375,1.755859 -8.375,1.755859 a 2.50025,2.50025 0 0 0 -0.002,5 c 0,0 0.002,0 0.002,0 0,0 4.27091,0.03567 8.41211,1.761719 4.141199,1.726052 7.83789,4.553827 7.83789,11.36914 0,6.815313 -3.695048,9.639568 -7.835937,11.363282 C 41.904033,72.467855 37.630859,72.5 37.630859,72.5 a 2.50025,2.50025 0 0 0 -0.002,5 c 0,0 0.002,0 0.002,0 0,0 4.27091,0.03567 8.41211,1.761719 4.141199,1.726052 7.83789,4.553827 7.83789,11.36914 0,6.815313 -3.695048,9.639571 -7.835937,11.363281 -4.140889,1.72371 -8.414063,1.75586 -8.414063,1.75586 a 2.50025,2.50025 0 0 0 -0.002,5 c 0,0 0.002,0 0.002,0 0,0 4.27091,0.0357 8.41211,1.76172 4.141199,1.72605 7.83789,4.55383 7.83789,11.36914 0,6.81531 -3.695048,9.63957 -7.835937,11.36328 C 41.904033,134.96785 37.630859,135 37.630859,135 H 0 v 5 h 37.628906 c 0,0 5.101836,0.0382 10.335938,-2.14063 5.234101,-2.17878 10.916015,-7.16384 10.916015,-15.97851 0,-8.45422 -5.228536,-13.31491 -10.273437,-15.62891 5.044464,-2.31198 10.273437,-7.168252 10.273437,-15.621091 0,-8.454222 -5.228536,-13.314907 -10.273437,-15.628906 5.044464,-2.311987 10.273437,-7.168255 10.273437,-15.621094 0,-8.464955 -5.242127,-13.328393 -10.292968,-15.638672 5.024021,-2.315965 10.222656,-7.169959 10.222656,-15.611328 0,-8.81787 -5.699446,-13.806014 -10.947266,-15.986328 C 42.615462,9.964217 37.5,10 37.5,10 Z"
       id="path3050" />
    <path
       style="color:#000000;fill:#000000;-inkscape-stroke:none"
       d="m 112.49805,10 c 0,0 -5.10265,-0.032239 -10.33594,2.150391 C 96.928823,14.33302 91.25,19.320548 91.25,28.130859 c 0,8.453026 5.232859,13.309641 10.2793,15.621094 -5.04676,2.313541 -10.2793,7.17471 -10.2793,15.628906 0,8.453026 5.232859,13.309641 10.2793,15.621094 -5.04676,2.313541 -10.2793,7.17471 -10.2793,15.628906 0,8.462075 5.243479,13.322551 10.29492,15.630861 -5.028474,2.31742 -10.234373,7.17614 -10.234373,15.61914 0,8.81405 5.701209,13.79791 10.951173,15.97656 5.24996,2.17865 10.36914,2.14258 10.36914,2.14258 h 37.5 v -5 h -37.5 c 0,0 -4.2931,-0.0354 -8.45313,-1.76172 -4.16002,-1.72634 -7.867183,-4.55148 -7.867183,-11.35742 0,-6.81287 3.68286,-9.64096 7.808593,-11.36719 4.12422,-1.7256 8.37774,-1.76364 8.38086,-1.76367 0,0 0.002,0 0.002,0 a 2.50025,2.50025 0 0 0 -0.002,-5 c 0,0 -0.002,0 -0.002,0 -0.003,-3e-5 -4.27223,-0.0354 -8.41211,-1.75977 C 99.944544,100.26521 96.25,97.440532 96.25,90.630859 c 0,-6.809673 3.696187,-9.637867 7.83789,-11.365234 4.14019,-1.726736 8.40899,-1.765597 8.41211,-1.765625 0,0 0.002,0 0.002,0 a 2.50025,2.50025 0 0 0 -0.002,-5 c 0,0 -0.002,0 -0.002,0 -0.003,-2.6e-5 -4.27223,-0.03537 -8.41211,-1.759766 C 99.944544,69.015206 96.25,66.190532 96.25,59.380859 c 0,-6.809673 3.696187,-9.637867 7.83789,-11.365234 4.14019,-1.726736 8.40899,-1.765597 8.41211,-1.765625 0,0 0.002,0 0.002,0 a 2.50025,2.50025 0 0 0 -0.002,-5 c 0,0 -0.002,0 -0.002,0 -0.003,-2.6e-5 -4.27223,-0.03537 -8.41211,-1.759766 C 99.944544,37.765206 96.25,34.940532 96.25,28.130859 c 0,-6.809673 3.696187,-9.637867 7.83789,-11.365234 C 108.22808,15.038889 112.49688,15.000028 112.5,15 h 37.63086 V 10 H 112.5 a 2.50025,2.50025 0 0 0 -0.002,0 z"
       id="path3052" />
  </g>
</svg>
