<?xml version="1.0" encoding="UTF-8" standalone="no"?>
<svg
   viewBox="0 0 150 150"
   version="1.1"
   id="svg3140"
   sodipodi:docname="Transistor-COM-Darlington-NPN.svg"
   xmlns:inkscape="http://www.inkscape.org/namespaces/inkscape"
   xmlns:sodipodi="http://sodipodi.sourceforge.net/DTD/sodipodi-0.dtd"
   xmlns="http://www.w3.org/2000/svg"
   xmlns:svg="http://www.w3.org/2000/svg">
  <defs
     id="defs3144" />
  <sodipodi:namedview
     id="namedview3142"
     pagecolor="#ffffff"
     bordercolor="#000000"
     borderopacity="0.25"
     inkscape:showpageshadow="2"
     inkscape:pageopacity="0.0"
     inkscape:pagecheckerboard="0"
     inkscape:deskcolor="#d1d1d1" />
  <path
     style="color:#000000;fill:#000000;stroke-miterlimit:10;-inkscape-stroke:none"
     d="M 97.380859,0 V 73.458984 L 77.5,83.445312 V 68.75 h -5 v 62.5 h 5 V 89.042969 L 102.38086,76.541016 V 0 Z M 22.5,43.75 V 72.689453 H 0 v 5 H 22.5 V 106.25 h 5 v -62.5 z"
     id="path3132" />
  <path
     style="color:#000000;fill:#000000;stroke-miterlimit:10;-inkscape-stroke:none"
     d="M 48.964844,35 23.232422,60.732422 26.767578,64.267578 51.035156,40 H 100 v -5 z"
     id="path3134" />
  <path
     d="m85.15 129.46 14.85 1.79-5.87-13.75-8.98 11.96zM35.07 100.9 50 100l-8.24-12.48-6.69 13.38z"
     id="path3136" />
  <path
     style="color:#000000;fill:#000000;stroke-miterlimit:10;-inkscape-stroke:none"
     d="M 26.117187,85.263672 23.882812,89.736328 49.410156,102.5 H 75 v -5 H 50.589844 Z M 76.5,110.5 l -3,4 24,18 V 150 h 5 v -20 z"
     id="path3138" />
</svg>
