<svg xmlns="http://www.w3.org/2000/svg" viewBox="0 0 150 150"><path d="M75 22.5c-28.965 0-52.5 23.535-52.5 52.5s23.535 52.5 52.5 52.5 52.5-23.535 52.5-52.5S103.965 22.5 75 22.5m0 5c26.263 0 47.5 21.237 47.5 47.5s-21.237 47.5-47.5 47.5S27.5 101.263 27.5 75 48.737 27.5 75 27.5" style="color:#000;fill:#000;stroke-miterlimit:10;-inkscape-stroke:none"/><path d="M97.5 0v72.5H65v-6.75h-5v18.5h5V77.5h37.5V0ZM60 40.75v18.5h5v-18.5ZM47.5 50v22.5H0v5h47.5V100h5V50ZM60 90.75v18.5h5v-6.75h32.5V150h5V97.5H65v-6.75z" style="color:#000;fill:#000;stroke-miterlimit:10;-inkscape-stroke:none"/><path d="M93.75 75 75 87.5v-25z"/><path d="M62.5 47.5v5H100v-5z" style="color:#000;fill:#000;stroke-miterlimit:10;-inkscape-stroke:none"/></svg>