<?xml version="1.0" encoding="UTF-8" standalone="no"?>
<svg
   viewBox="0 0 150 150"
   version="1.1"
   id="svg3362"
   sodipodi:docname="Transistor-COM-MOSFET-P-Depletion.svg"
   xmlns:inkscape="http://www.inkscape.org/namespaces/inkscape"
   xmlns:sodipodi="http://sodipodi.sourceforge.net/DTD/sodipodi-0.dtd"
   xmlns="http://www.w3.org/2000/svg"
   xmlns:svg="http://www.w3.org/2000/svg">
  <defs
     id="defs3366" />
  <sodipodi:namedview
     id="namedview3364"
     pagecolor="#ffffff"
     bordercolor="#000000"
     borderopacity="0.25"
     inkscape:showpageshadow="2"
     inkscape:pageopacity="0.0"
     inkscape:pagecheckerboard="0"
     inkscape:deskcolor="#d1d1d1" />
  <path
     style="color:#000000;fill:#000000;stroke-miterlimit:10;-inkscape-stroke:none"
     d="m 75,22.5 c -28.965309,0 -52.5,23.534691 -52.5,52.5 0,28.96531 23.534691,52.5 52.5,52.5 28.96531,0 52.5,-23.53469 52.5,-52.5 0,-28.965309 -23.53469,-52.5 -52.5,-52.5 z m 0,5 c 26.26311,0 47.5,21.236889 47.5,47.5 0,26.26311 -21.23689,47.5 -47.5,47.5 C 48.736889,122.5 27.5,101.26311 27.5,75 27.5,48.736889 48.736889,27.5 75,27.5 Z"
     id="circle3354" />
  <path
     style="color:#000000;fill:#000000;stroke-miterlimit:10;-inkscape-stroke:none"
     d="M 97.5,0 V 72.5 H 65 V 40.75 h -5 v 68.5 h 5 V 102.5 H 97.5 V 150 h 5 V 97.5 H 65 v -20 h 37.5 V 0 Z m -50,50 V 72.5 H 0 v 5 H 47.5 V 100 h 5 V 50 Z"
     id="path3356" />
  <path
     d="M93.75 75 75 87.5v-25L93.75 75z"
     id="path3358" />
  <path
     style="color:#000000;fill:#000000;stroke-miterlimit:10;-inkscape-stroke:none"
     d="m 62.5,47.5 v 5 H 100 v -5 z"
     id="path3360" />
</svg>
