<svg xmlns="http://www.w3.org/2000/svg" viewBox="0 0 150 150"><path d="M75 22.5c-28.965 0-52.5 23.535-52.5 52.5s23.535 52.5 52.5 52.5 52.5-23.535 52.5-52.5S103.965 22.5 75 22.5m0 5c26.263 0 47.5 21.237 47.5 47.5s-21.237 47.5-47.5 47.5S27.5 101.263 27.5 75 48.737 27.5 75 27.5" style="color:#000;fill:#000;stroke-miterlimit:10;-inkscape-stroke:none"/><path d="M53.75 43.75V72.5H0v5h53.75v28.75h5v-62.5z" style="color:#000;fill:#000;stroke-miterlimit:10;-inkscape-stroke:none"/><path d="M56.25 75 37.5 87.5v-25z"/><path d="M97.16 0v53.75H56.25v5h45.91V0ZM56.25 91.25v5h40.91V150h5V91.25Z" style="color:#000;fill:#000;stroke-miterlimit:10;-inkscape-stroke:none"/></svg>