<svg xmlns="http://www.w3.org/2000/svg" viewBox="0 0 150 150"><path d="M75 22.5c-28.965 0-52.5 23.535-52.5 52.5s23.535 52.5 52.5 52.5 52.5-23.535 52.5-52.5S103.965 22.5 75 22.5m0 5c26.263 0 47.5 21.237 47.5 47.5s-21.237 47.5-47.5 47.5S27.5 101.263 27.5 75 48.737 27.5 75 27.5" style="color:#000;fill:#000;stroke-miterlimit:10;-inkscape-stroke:none"/><path d="M97.5 0v38.87l-45 19.798V43.75h-5V72.5H0v5h47.5v28.75h5V91.912l33.736 20.203 2.569-4.289L52.5 86.084V64.133l50-22.002V0Zm0 118.75V150h5v-31.25z" style="color:#000;fill:#000;stroke-miterlimit:10;-inkscape-stroke:none"/><path d="m81.8 115.26 14.95.24-7.27-13.07z"/></svg>