<svg xmlns="http://www.w3.org/2000/svg" viewBox="0 0 150 150"><path d="M97.38 0v73.459L77.5 83.445V68.75h-5v62.5h5V89.043l24.88-12.502V0ZM22.5 43.75v28.94H0v5h22.5v28.56h5v-62.5z" style="color:#000;fill:#000;stroke-miterlimit:10;-inkscape-stroke:none"/><path d="M48.965 35 23.232 60.732l3.536 3.536L51.035 40H100v-5z" style="color:#000;fill:#000;stroke-miterlimit:10;-inkscape-stroke:none"/><path d="m85.15 129.46 14.85 1.79-5.87-13.75zM35.07 100.9 50 100l-8.24-12.48z"/><path d="m26.117 85.264-2.234 4.472L49.41 102.5H75v-5H50.59ZM76.5 110.5l-3 4 24 18V150h5v-20z" style="color:#000;fill:#000;stroke-miterlimit:10;-inkscape-stroke:none"/></svg>