<svg xmlns="http://www.w3.org/2000/svg" viewBox="0 0 150 150"><g stroke-linejoin="round"><path d="M66.25 6.25v137.5h5V6.25Zm12.5 0v137.5h5V6.25ZM0 10v5h37.5s4.288.035 8.445 1.762 7.866 4.557 7.866 11.369c0 6.819-3.683 9.64-7.805 11.363S37.63 41.25 37.63 41.25a2.5 2.5 0 0 0-.002 5h.002s4.27.036 8.412 1.762c4.141 1.726 7.838 4.554 7.838 11.369s-3.695 9.64-7.836 11.363C41.904 72.468 37.63 72.5 37.63 72.5a2.5 2.5 0 0 0-.002 5h.002s4.27.036 8.412 1.762c4.141 1.726 7.838 4.554 7.838 11.369s-3.695 9.64-7.836 11.363c-4.141 1.724-8.414 1.756-8.414 1.756a2.5 2.5 0 0 0-.002 5h.002s4.27.036 8.412 1.762c4.141 1.726 7.838 4.554 7.838 11.369s-3.695 9.64-7.836 11.363C41.904 134.968 37.63 135 37.63 135H0v5h37.629s5.102.038 10.336-2.14c5.234-2.18 10.916-7.164 10.916-15.98 0-8.453-5.229-13.314-10.274-15.628 5.045-2.312 10.274-7.168 10.274-15.621 0-8.454-5.229-13.315-10.274-15.629 5.045-2.312 10.274-7.168 10.274-15.621 0-8.465-5.242-13.329-10.293-15.639 5.024-2.316 10.223-7.17 10.223-15.611 0-8.818-5.7-13.806-10.948-15.986S37.5 10 37.5 10ZM112.498 10s-5.103-.032-10.336 2.15S91.25 19.32 91.25 28.13c0 8.454 5.233 13.31 10.28 15.622-5.047 2.313-10.28 7.175-10.28 15.629 0 8.453 5.233 13.31 10.28 15.621-5.047 2.313-10.28 7.175-10.28 15.629 0 8.462 5.243 13.322 10.295 15.63-5.029 2.318-10.234 7.177-10.234 15.62 0 8.814 5.7 13.798 10.95 15.976 5.25 2.18 10.37 2.143 10.37 2.143h37.5v-5h-37.5s-4.293-.035-8.453-1.762c-4.16-1.726-7.867-4.551-7.867-11.357 0-6.813 3.682-9.641 7.808-11.367 4.124-1.726 8.378-1.764 8.381-1.764h.002a2.5 2.5 0 0 0-.002-5h-.002c-.003 0-4.272-.035-8.412-1.76s-7.836-4.55-7.836-11.36 3.696-9.637 7.838-11.364c4.14-1.727 8.409-1.766 8.412-1.766h.002a2.5 2.5 0 0 0-.002-5h-.002c-.003 0-4.272-.035-8.412-1.76s-7.836-4.55-7.836-11.36 3.696-9.637 7.838-11.364c4.14-1.727 8.409-1.766 8.412-1.766h.002a2.5 2.5 0 0 0-.002-5h-.002c-.003 0-4.272-.035-8.412-1.76s-7.836-4.55-7.836-11.36 3.696-9.637 7.838-11.364c4.14-1.727 8.409-1.766 8.412-1.766h37.63v-5h-37.632000000000005z" style="color:#000;fill:#000;-inkscape-stroke:none"/><path d="M112.5 72.5v5H150v-5z" style="color:#000;fill:#000;-inkscape-stroke:none"/></g></svg>