<svg xmlns="http://www.w3.org/2000/svg" viewBox="0 0 150 150"><path d="M75 22.5c-28.965 0-52.5 23.535-52.5 52.5s23.535 52.5 52.5 52.5 52.5-23.535 52.5-52.5S103.965 22.5 75 22.5m0 5c26.263 0 47.5 21.237 47.5 47.5s-21.237 47.5-47.5 47.5S27.5 101.263 27.5 75 48.737 27.5 75 27.5" style="color:#000;fill:#000;stroke-miterlimit:10;-inkscape-stroke:none"/><path d="M97.34 0v29.838l-36.41 21.96 2.582 4.282 38.828-23.418V0ZM47.5 43.75V72.5H0v5h47.5v28.75h5V91.332l45 19.799V150h5v-42.13l-50-22.003V43.75Z" style="color:#000;fill:#000;stroke-miterlimit:10;-inkscape-stroke:none"/><path d="M60.23 46.41 53 59.5l14.95-.28z"/></svg>