<svg xmlns="http://www.w3.org/2000/svg" viewBox="0 0 150 150"><g stroke-linejoin="round"><path d="M66.25 6.25v137.5h5V6.25Zm12.5 0v137.5h5V6.25ZM0 10v5h37.5s4.288.035 8.445 1.762 7.866 4.557 7.866 11.369c0 6.819-3.683 9.64-7.805 11.363S37.63 41.25 37.63 41.25a2.5 2.5 0 0 0-.002 5h.002s4.27.036 8.412 1.762c4.141 1.726 7.838 4.554 7.838 11.369s-3.695 9.64-7.836 11.363C41.904 72.468 37.63 72.5 37.63 72.5a2.5 2.5 0 0 0-.002 5h.002s4.27.036 8.412 1.762c4.141 1.726 7.838 4.554 7.838 11.369s-3.695 9.64-7.836 11.363c-4.141 1.724-8.414 1.756-8.414 1.756a2.5 2.5 0 0 0-.002 5h.002s4.27.036 8.412 1.762c4.141 1.726 7.838 4.554 7.838 11.369s-3.695 9.64-7.836 11.363C41.904 134.968 37.63 135 37.63 135H0v5h37.629s5.102.038 10.336-2.14c5.234-2.18 10.916-7.164 10.916-15.98 0-8.453-5.229-13.314-10.274-15.628 5.045-2.312 10.274-7.168 10.274-15.621 0-8.454-5.229-13.315-10.274-15.629 5.045-2.312 10.274-7.168 10.274-15.621 0-8.465-5.242-13.329-10.293-15.639 5.024-2.316 10.223-7.17 10.223-15.611 0-8.818-5.7-13.806-10.948-15.986S37.5 10 37.5 10Z" style="color:#000;fill:#000;-inkscape-stroke:none"/><path d="M112.5 10s-5.051-.034-10.252 1.916c-2.6.975-5.313 2.464-7.437 4.854s-3.561 5.72-3.561 9.79c0 4.071 1.436 7.4 3.56 9.79 1.797 2.02 4.021 3.3 6.235 4.267-2.214.966-4.438 2.248-6.234 4.27-2.125 2.39-3.561 5.72-3.561 9.793s1.436 7.404 3.56 9.795 4.836 3.881 7.436 4.857c5.2 1.951 10.254 1.918 10.254 1.918H150v-5h-37.5s-4.322-.033-8.496-1.6c-2.087-.783-4.064-1.93-5.455-3.496s-2.299-3.512-2.299-6.474.908-4.906 2.299-6.471c1.39-1.565 3.366-2.712 5.453-3.494 4.174-1.564 8.496-1.596 8.496-1.596h.002a2.5 2.5 0 0 0 .002-5h-.002s-4.324-.032-8.498-1.598c-2.087-.782-4.062-1.929-5.453-3.494s-2.299-3.507-2.299-6.466.908-4.904 2.299-6.47c1.391-1.564 3.366-2.71 5.453-3.493C108.176 15.032 112.5 15 112.5 15h37.62v-5zm-.12 68.75s-5.053-.034-10.253 1.916c-2.6.975-5.311 2.464-7.436 4.854s-3.56 5.72-3.56 9.79c0 4.071 1.436 7.4 3.56 9.79 1.797 2.02 4.02 3.3 6.233 4.267-2.214.966-4.436 2.248-6.233 4.27-2.124 2.39-3.56 5.72-3.56 9.793s1.436 7.404 3.56 9.795 4.836 3.881 7.436 4.857c5.2 1.951 10.254 1.918 10.254 1.918h37.5v-5h-37.5s-4.324-.033-8.498-1.6c-2.087-.783-4.064-1.93-5.455-3.496s-2.297-3.512-2.297-6.474.906-4.906 2.297-6.471c1.39-1.565 3.368-2.712 5.455-3.494 4.174-1.564 8.496-1.596 8.496-1.596h.002a2.5 2.5 0 0 0 0-5s-4.324-.032-8.498-1.598c-2.087-.782-4.064-1.929-5.455-3.494s-2.297-3.507-2.297-6.466.906-4.904 2.297-6.47c1.391-1.564 3.368-2.71 5.455-3.493 4.174-1.566 8.498-1.598 8.498-1.598H150v-5z" style="color:#000;fill:#000;-inkscape-stroke:none"/></g></svg>