<?xml version="1.0" encoding="UTF-8" standalone="no"?>
<svg
   viewBox="0 0 150 150"
   version="1.1"
   id="svg2997"
   sodipodi:docname="Transformer-COM-Center-Double.svg"
   xmlns:inkscape="http://www.inkscape.org/namespaces/inkscape"
   xmlns:sodipodi="http://sodipodi.sourceforge.net/DTD/sodipodi-0.dtd"
   xmlns="http://www.w3.org/2000/svg"
   xmlns:svg="http://www.w3.org/2000/svg">
  <defs
     id="defs3001" />
  <sodipodi:namedview
     id="namedview2999"
     pagecolor="#ffffff"
     bordercolor="#000000"
     borderopacity="0.25"
     inkscape:showpageshadow="2"
     inkscape:pageopacity="0.0"
     inkscape:pagecheckerboard="0"
     inkscape:deskcolor="#d1d1d1" />
  <g
     fill="none"
     stroke="#000"
     stroke-linejoin="round"
     stroke-width="5"
     id="g2995">
    <path
       style="color:#000000;fill:#000000;-inkscape-stroke:none"
       d="m 66.25,6.25 v 137.5 h 5 V 6.25 Z m 12.5,0 v 137.5 h 5 V 6.25 Z M 0,10 v 5 h 37.5 c 0,0 4.288142,0.03454 8.445312,1.761719 4.157171,1.727182 7.865235,4.557026 7.865235,11.36914 0,6.819046 -3.682436,9.640895 -7.804688,11.363282 -4.122252,1.722386 -8.375,1.755859 -8.375,1.755859 a 2.50025,2.50025 0 0 0 -0.002,5 c 0,0 0.002,0 0.002,0 0,0 4.27091,0.03567 8.41211,1.761719 4.141199,1.726052 7.83789,4.553827 7.83789,11.36914 0,6.815313 -3.695048,9.639568 -7.835937,11.363282 C 41.904033,72.467855 37.630859,72.5 37.630859,72.5 a 2.50025,2.50025 0 0 0 -0.002,5 c 0,0 0.002,0 0.002,0 0,0 4.27091,0.03567 8.41211,1.761719 4.141199,1.726052 7.83789,4.553827 7.83789,11.36914 0,6.815313 -3.695048,9.639571 -7.835937,11.363281 -4.140889,1.72371 -8.414063,1.75586 -8.414063,1.75586 a 2.50025,2.50025 0 0 0 -0.002,5 c 0,0 0.002,0 0.002,0 0,0 4.27091,0.0357 8.41211,1.76172 4.141199,1.72605 7.83789,4.55383 7.83789,11.36914 0,6.81531 -3.695048,9.63957 -7.835937,11.36328 C 41.904033,134.96785 37.630859,135 37.630859,135 H 0 v 5 h 37.628906 c 0,0 5.101836,0.0382 10.335938,-2.14063 5.234101,-2.17878 10.916015,-7.16384 10.916015,-15.97851 0,-8.45422 -5.228536,-13.31491 -10.273437,-15.62891 5.044464,-2.31198 10.273437,-7.168252 10.273437,-15.621091 0,-8.454222 -5.228536,-13.314907 -10.273437,-15.628906 5.044464,-2.311987 10.273437,-7.168255 10.273437,-15.621094 0,-8.464955 -5.242127,-13.328393 -10.292968,-15.638672 5.024021,-2.315965 10.222656,-7.169959 10.222656,-15.611328 0,-8.81787 -5.699446,-13.806014 -10.947266,-15.986328 C 42.615462,9.964217 37.5,10 37.5,10 Z"
       id="path2991" />
    <path
       style="color:#000000;fill:#000000;-inkscape-stroke:none"
       d="m 112.5,10 c 0,0 -5.05146,-0.033823 -10.25195,1.916016 -2.60025,0.974919 -5.313103,2.46399 -7.437503,4.853515 -2.1244,2.389525 -3.560547,5.720366 -3.560547,9.791016 0,4.07065 1.436147,7.399537 3.560547,9.789062 1.796384,2.020573 4.020674,3.301069 6.234373,4.267578 -2.214114,0.966143 -4.437747,2.248207 -6.234373,4.269532 C 92.686032,47.27694 91.25,50.606932 91.25,54.679687 c 0,4.072756 1.436323,7.403896 3.560547,9.794922 2.124224,2.391027 4.835185,3.881766 7.435543,4.857422 C 107.44682,71.283343 112.5,71.25 112.5,71.25 H 150 v -5 h -37.5 c 0,0 -4.32183,-0.03342 -8.49609,-1.599609 -2.08714,-0.783093 -4.063684,-1.929937 -5.455082,-3.496094 C 97.15743,59.58814 96.25,57.641925 96.25,54.679687 c 0,-2.962237 0.907722,-4.905615 2.298828,-6.470703 1.391107,-1.565087 3.366122,-2.712212 5.453122,-3.49414 4.174,-1.563858 8.4961,-1.595703 8.4961,-1.595703 0,0 0.002,0 0.002,0 a 2.50025,2.50025 0 0 0 0.002,-5 c 0,0 -0.002,0 -0.002,0 0,0 -4.32355,-0.0325 -8.49805,-1.597657 -2.08724,-0.782579 -4.0619,-1.929294 -5.453122,-3.49414 C 97.157607,31.462498 96.25,29.51989 96.25,26.560547 c 0,-2.959343 0.907607,-4.903904 2.298828,-6.46875 1.391222,-1.564846 3.365882,-2.711562 5.453122,-3.494141 C 108.17645,15.032498 112.5,15 112.5,15 h 37.61914 v -5 z m -0.11914,68.75 c 0,0 -5.05341,-0.03382 -10.25391,1.916016 -2.600244,0.974919 -5.311144,2.46399 -7.435544,4.853515 -2.1244,2.389525 -3.560547,5.720366 -3.560547,9.791016 0,4.07065 1.436147,7.399533 3.560547,9.789063 1.796384,2.02057 4.018721,3.30107 6.232424,4.26758 -2.214118,0.96614 -4.435798,2.2482 -6.232424,4.26953 -2.124515,2.39022 -3.560547,5.72021 -3.560547,9.79297 0,4.07275 1.436323,7.40389 3.560547,9.79492 2.124224,2.39103 4.835185,3.88177 7.435544,4.85742 5.20073,1.95131 10.25391,1.91797 10.25391,1.91797 h 37.5 v -5 h -37.5 c 0,0 -4.32378,-0.0334 -8.49805,-1.59961 -2.08713,-0.78309 -4.063678,-1.92994 -5.455076,-3.49609 -1.391397,-1.56616 -2.296875,-3.51237 -2.296875,-6.47461 0,-2.96224 0.905769,-4.90562 2.296875,-6.47071 1.391107,-1.56508 3.368076,-2.71221 5.455076,-3.49414 4.174,-1.56385 8.4961,-1.5957 8.4961,-1.5957 0,0 0.002,0 0.002,0 a 2.50025,2.50025 0 0 0 0,-5 c 0,0 -4.32355,-0.0325 -8.49805,-1.59766 -2.08725,-0.78257 -4.063854,-1.92929 -5.455076,-3.49414 -1.391221,-1.56484 -2.296875,-3.50745 -2.296875,-6.466793 0,-2.959343 0.905654,-4.903904 2.296875,-6.46875 1.391222,-1.564846 3.367826,-2.711562 5.455076,-3.494141 4.1745,-1.565158 8.49805,-1.597656 8.49805,-1.597656 H 150 v -5 z"
       id="path2993" />
  </g>
</svg>
