<svg version="1.1" xmlns="http://www.w3.org/2000/svg" viewBox="-5.000001 -5.000001 10.000002 10.000002" fill="black" stroke="none">
    <path fill-rule="evenodd" d="M -4 0 A 4 4 0 0 1 4 0 A 4 4 0 0 1 -4 0 Z M -0.98995 -0.59397 L -1.02392 -0.56 L -2.8 -0.56 L -2.8 0.56 L -1.02392 0.56 L -0.98995 0.59397 L -2.17789 1.78191 L -1.78191 2.17789 L -0.59397 0.98995 L -0.56 1.02392 L -0.56 2.8 L 0.56 2.8 L 0.56 1.02392 L 0.59397 0.98995 L 1.78191 2.17789 L 2.17789 1.78191 L 0.98995 0.59397 L 1.02392 0.56 L 2.8 0.56 L 2.8 -0.56 L 1.02392 -0.56 L 0.98995 -0.59397 L 2.17789 -1.78191 L 1.78191 -2.17789 L 0.59397 -0.98995 L 0.56 -1.02392 L 0.56 -2.8 L -0.56 -2.8 L -0.56 -1.02392 L -0.59397 -0.98995 L -1.78191 -2.17789 L -2.17789 -1.78191 L -0.98995 -0.59397 Z" />
</svg>