<svg version="1.1" xmlns="http://www.w3.org/2000/svg" viewBox="-5 -5 10 10" fill="black" stroke="none" data-name="head-pozidrive" data-label="Pozidrive" data-spec="{head(pozidrive)}" data-category="Screw Heads"><path fill-rule="evenodd" d="M -4 0 A 4 4 0 0 1 4 0 A 4 4 0 0 1 -4 0 Z M -0.99 -0.594 L -1.024 -0.56 L -2.8 -0.56 L -2.8 0.56 L -1.024 0.56 L -0.99 0.594 L -2.178 1.782 L -1.782 2.178 L -0.594 0.99 L -0.56 1.024 L -0.56 2.8 L 0.56 2.8 L 0.56 1.024 L 0.594 0.99 L 1.782 2.178 L 2.178 1.782 L 0.99 0.594 L 1.024 0.56 L 2.8 0.56 L 2.8 -0.56 L 1.024 -0.56 L 0.99 -0.594 L 2.178 -1.782 L 1.782 -2.178 L 0.594 -0.99 L 0.56 -1.024 L 0.56 -2.8 L -0.56 -2.8 L -0.56 -1.024 L -0.594 -0.99 L -1.782 -2.178 L -2.178 -1.782 L -0.99 -0.594 Z" /></svg>