<svg version="1.1" xmlns="http://www.w3.org/2000/svg" viewBox="-5.000001 -5.000001 10.000002 10.000002" fill="black" stroke="none">
    <path fill-rule="evenodd" d="M -4 0 A 4 4 0 0 1 4 0 A 4 4 0 0 1 -4 0 Z M 1.46211 1.46813 A 2.0719999999999996 2.0719999999999996 0 0 1 0.54038 2.00029 A 0.616 0.616 0 0 0 -0.54038 2.00029 A 2.0719999999999996 2.0719999999999996 0 0 1 -1.46211 1.46813 A 0.616 0.616 0 0 0 -1.37239 1.148 A 0.616 0.616 0 0 0 -2.0025 0.53216 A 2.0719999999999996 2.0719999999999996 0 0 1 -2.072 0 A 2.0719999999999996 2.0719999999999996 0 0 1 -2.0025 -0.53216 A 0.616 0.616 0 0 0 -1.37239 -1.148 A 0.616 0.616 0 0 0 -1.46211 -1.46813 A 2.0719999999999996 2.0719999999999996 0 0 1 -0.54038 -2.00029 A 0.616 0.616 0 0 0 0.54038 -2.00029 A 2.0719999999999996 2.0719999999999996 0 0 1 1.46211 -1.46813 A 0.616 0.616 0 0 0 1.37239 -1.148 A 0.616 0.616 0 0 0 2.0025 -0.53216 A 2.0719999999999996 2.0719999999999996 0 0 1 2.072 0 A 2.0719999999999996 2.0719999999999996 0 0 1 2.0025 0.53216 A 0.616 0.616 0 0 0 1.37239 1.148 A 0.616 0.616 0 0 0 1.46211 1.46813 Z M -0.56 0 A 0.56 0.56 0 0 1 0.56 0 A 0.56 0.56 0 0 1 -0.56 0 Z" />
</svg>