<svg version="1.1" xmlns="http://www.w3.org/2000/svg" viewBox="-5 -5 10 10" fill="black" stroke="none" data-name="head-torx" data-label="Torx" data-spec="{head(torx)}" data-category="Screw Heads"><path fill-rule="evenodd" d="M -4 0 A 4 4 0 0 1 4 0 A 4 4 0 0 1 -4 0 Z M 1.462 1.468 A 2.072 2.072 0 0 1 1.462 1.468 L 1.609 1.722 A 0.532 0.532 0 0 1 1.414 2.449 A 0.532 0.532 0 0 1 0.687 2.254 L 0.541 2 A 2.072 2.072 0 0 1 0.54 2 A 0.616 0.616 0 0 0 -0.54 2 A 2.072 2.072 0 0 1 -0.541 2 L -0.687 2.254 A 0.532 0.532 0 0 1 -1.414 2.449 A 0.532 0.532 0 0 1 -1.609 1.722 L -1.462 1.468 A 2.072 2.072 0 0 1 -1.462 1.468 A 0.616 0.616 0 0 0 -1.372 1.148 A 0.616 0.616 0 0 0 -2.002 0.532 A 2.072 2.072 0 0 1 -2.003 0.532 L -2.296 0.532 A 0.532 0.532 0 0 1 -2.828 0 A 0.532 0.532 0 0 1 -2.296 -0.532 L -2.003 -0.532 A 2.072 2.072 0 0 1 -2.002 -0.532 A 0.616 0.616 0 0 0 -1.372 -1.148 A 0.616 0.616 0 0 0 -1.462 -1.468 A 2.072 2.072 0 0 1 -1.462 -1.468 L -1.609 -1.722 A 0.532 0.532 0 0 1 -1.414 -2.449 A 0.532 0.532 0 0 1 -0.687 -2.254 L -0.541 -2 A 2.072 2.072 0 0 1 -0.54 -2 A 0.616 0.616 0 0 0 0.54 -2 A 2.072 2.072 0 0 1 0.541 -2 L 0.687 -2.254 A 0.532 0.532 0 0 1 1.414 -2.449 A 0.532 0.532 0 0 1 1.609 -1.722 L 1.462 -1.468 A 2.072 2.072 0 0 1 1.462 -1.468 A 0.616 0.616 0 0 0 1.372 -1.148 A 0.616 0.616 0 0 0 2.002 -0.532 A 2.072 2.072 0 0 1 2.003 -0.532 L 2.296 -0.532 A 0.532 0.532 0 0 1 2.828 0 A 0.532 0.532 0 0 1 2.296 0.532 L 2.003 0.532 A 2.072 2.072 0 0 1 2.002 0.532 A 0.616 0.616 0 0 0 1.372 1.148 A 0.616 0.616 0 0 0 1.462 1.468 Z" /></svg>