<svg version="1.1" xmlns="http://www.w3.org/2000/svg" viewBox="-5 -4.464 10 8.928" fill="black" stroke="none" data-name="hexhead-torx-security" data-label="Hex Torx + Security" data-spec="{hexhead(torx,security)}" data-category="Screw Heads"><path fill-rule="evenodd" d="M 2 -3.464 L -2 -3.464 L -4 0 L -2 3.464 L 2 3.464 L 4 0 L 2 -3.464 Z M 1.253 1.258 A 1.776 1.776 0 0 1 1.253 1.258 L 1.379 1.476 A 0.456 0.456 0 0 1 1.212 2.099 A 0.456 0.456 0 0 1 0.589 1.932 L 0.463 1.714 A 1.776 1.776 0 0 1 0.463 1.715 A 0.528 0.528 0 0 0 -0.463 1.715 A 1.776 1.776 0 0 1 -0.463 1.714 L -0.589 1.932 A 0.456 0.456 0 0 1 -1.212 2.099 A 0.456 0.456 0 0 1 -1.379 1.476 L -1.253 1.258 A 1.776 1.776 0 0 1 -1.253 1.258 A 0.528 0.528 0 0 0 -1.176 0.984 A 0.528 0.528 0 0 0 -1.716 0.456 A 1.776 1.776 0 0 1 -1.716 0.456 L -1.968 0.456 A 0.456 0.456 0 0 1 -2.424 0 A 0.456 0.456 0 0 1 -1.968 -0.456 L -1.716 -0.456 A 1.776 1.776 0 0 1 -1.716 -0.456 A 0.528 0.528 0 0 0 -1.176 -0.984 A 0.528 0.528 0 0 0 -1.253 -1.258 A 1.776 1.776 0 0 1 -1.253 -1.258 L -1.379 -1.476 A 0.456 0.456 0 0 1 -1.212 -2.099 A 0.456 0.456 0 0 1 -0.589 -1.932 L -0.463 -1.714 A 1.776 1.776 0 0 1 -0.463 -1.715 A 0.528 0.528 0 0 0 0.463 -1.715 A 1.776 1.776 0 0 1 0.463 -1.714 L 0.589 -1.932 A 0.456 0.456 0 0 1 1.212 -2.099 A 0.456 0.456 0 0 1 1.379 -1.476 L 1.253 -1.258 A 1.776 1.776 0 0 1 1.253 -1.258 A 0.528 0.528 0 0 0 1.176 -0.984 A 0.528 0.528 0 0 0 1.716 -0.456 A 1.776 1.776 0 0 1 1.716 -0.456 L 1.968 -0.456 A 0.456 0.456 0 0 1 2.424 0 A 0.456 0.456 0 0 1 1.968 0.456 L 1.716 0.456 A 1.776 1.776 0 0 1 1.716 0.456 A 0.528 0.528 0 0 0 1.176 0.984 A 0.528 0.528 0 0 0 1.253 1.258 Z M -0.48 0 A 0.48 0.48 0 0 1 0.48 0 A 0.48 0.48 0 0 1 -0.48 0 Z" /></svg>