<svg version="1.1" xmlns="http://www.w3.org/2000/svg" viewBox="-5 -5 10 10" fill="black" stroke="none" data-name="microqr" data-label="Micro QR" data-spec="{microqr(text)}" data-category="Misc" data-tooltip="Micro QR: {microqr(data)} or {microqr(data,level)} — EC levels: L (7%, default), M (15%), Q (25%)"><path fill-rule="evenodd" d="M 3.385 -3.385 L 4 -3.385 L 4 -4 L 3.385 -4 L 3.385 -3.385 Z M 3.385 0.923 L 4 0.923 L 4 -1.538 L 3.385 -1.538 L 3.385 0.923 Z M 2.154 -3.385 L 2.769 -3.385 L 2.769 -4 L 2.154 -4 L 2.154 -3.385 Z M 2.154 -1.538 L 3.385 -1.538 L 3.385 -2.154 L 4 -2.154 L 4 -2.769 L 3.385 -2.769 L 3.385 -3.385 L 2.769 -3.385 L 2.769 -2.154 L 2.154 -2.154 L 2.154 -1.538 Z M 0.923 -3.385 L 1.538 -3.385 L 1.538 -4 L 0.923 -4 L 0.923 -3.385 Z M 0.923 -2.154 L 1.538 -2.154 L 1.538 -2.769 L 0.923 -2.769 L 0.923 -2.154 Z M 0.923 -0.923 L 1.538 -0.923 L 1.538 -1.538 L 0.923 -1.538 L 0.923 -0.923 Z M 0.923 1.538 L 2.154 1.538 L 2.154 -0.308 L 2.769 -0.308 L 2.769 -0.923 L 1.538 -0.923 L 1.538 0.308 L 0.923 0.308 L 0.923 1.538 Z M 0.923 4 L 2.769 4 L 2.769 2.769 L 3.385 2.769 L 3.385 3.385 L 4 3.385 L 4 1.538 L 3.385 1.538 L 3.385 2.154 L 1.538 2.154 L 1.538 2.769 L 0.923 2.769 L 0.923 4 Z M -2.154 2.154 L -1.538 2.154 L -1.538 2.769 L -0.923 2.769 L -0.923 0.923 L -1.538 0.923 L -1.538 1.538 L -2.154 1.538 L -2.154 2.154 Z M -4 1.538 L -2.154 1.538 L -2.154 0.923 L -4 0.923 L -4 1.538 Z M -4 4 L 0.308 4 L 0.308 2.154 L -0.308 2.154 L -0.308 2.769 L -0.923 2.769 L -0.923 3.385 L -2.154 3.385 L -2.154 2.769 L -3.385 2.769 L -3.385 3.385 L -4 3.385 L -4 4 Z M -4 0.308 L 0.308 0.308 L 0.308 -4 L -4 -4 L -4 0.308 Z M -3.385 -0.308 L -3.385 -3.385 L -0.308 -3.385 L -0.308 -0.308 L -3.385 -0.308 Z M -2.769 -0.923 L -0.923 -0.923 L -0.923 -2.769 L -2.769 -2.769 L -2.769 -0.923 Z" /></svg>