<svg data-name="microqr" data-label="Micro QR" data-spec="{microqr(text)}" data-category="Misc" data-tooltip="Micro QR: {microqr(data)} or {microqr(data,level)} — EC levels: L (7%, default), M (15%), Q (25%)" viewBox="0 0 26 26" xmlns="http://www.w3.org/2000/svg">
<path d="M0 26L14 26L14 20L12 20L12 22L10 22L10 24L6 24L6 22L2 22L2 24L0 24ZM16 26L22 26L22 22L24 22L24 24L26 24L26 18L24 18L24 20L18 20L18 22L16 22ZM0 22L2 22L2 20L0 20ZM8 22L10 22L10 16L8 16L8 18L6 18L6 20L8 20ZM0 18L6 18L6 16L0 16ZM16 18L20 18L20 12L22 12L22 10L18 10L18 14L16 14ZM24 16L26 16L26 8L24 8ZM0 14L14 14L14 0L0 0ZM2 12L2 2L12 2L12 12ZM4 10L10 10L10 4L4 4ZM16 10L18 10L18 8L16 8ZM20 8L24 8L24 6L26 6L26 4L24 4L24 2L22 2L22 6L20 6ZM16 6L18 6L18 4L16 4ZM16 2L18 2L18 0L16 0ZM20 2L22 2L22 0L20 0ZM24 2L26 2L26 0L24 0Z" fill="#000000" fill-rule="evenodd" />
</svg>
