<svg data-name="qr" data-label="QR Code" data-spec="{qr(text)}" data-category="Misc" data-tooltip="QR Code: {qr(data)} or {qr(data,level)} — EC levels: L (7%), M (15%, default), Q (25%), H (30%)" viewBox="0 0 42 42" xmlns="http://www.w3.org/2000/svg">
<path d="M0 42L14 42L14 28L0 28ZM22 42L24 42L24 40L30 40L30 42L32 42L32 40L34 40L34 42L38 42L38 40L36 40L36 38L38 38L38 36L36 36L36 34L34 34L34 38L32 38L32 34L30 34L30 38L26 38L26 36L28 36L28 34L30 34L30 26L32 26L32 24L36 24L36 22L32 22L32 18L30 18L30 20L26 20L26 18L28 18L28 16L26 16L26 6L24 6L24 4L26 4L26 0L20 0L20 2L22 2L22 4L18 4L18 6L22 6L22 8L20 8L20 16L24 16L24 20L20 20L20 18L18 18L18 16L16 16L16 20L18 20L18 22L26 22L26 24L28 24L28 22L30 22L30 24L28 24L28 26L26 26L26 30L28 30L28 32L26 32L26 34L24 34L24 32L26 32L26 30L22 30L22 36L24 36L24 38L18 38L18 40L22 40ZM40 42L42 42L42 36L40 36L40 38L38 38L38 40L40 40ZM2 40L2 30L12 30L12 40ZM4 38L10 38L10 32L4 32ZM16 38L18 38L18 36L16 36ZM18 36L20 36L20 32L18 32L18 30L16 30L16 34L18 34ZM38 36L40 36L40 34L38 34ZM32 34L34 34L34 32L32 32ZM36 34L38 34L38 30L36 30ZM40 34L42 34L42 32L40 32ZM18 30L22 30L22 28L18 28ZM32 30L34 30L34 28L32 28ZM38 30L42 30L42 28L40 28L40 26L38 26L38 24L36 24L36 28L38 28ZM16 28L18 28L18 24L16 24ZM22 28L24 28L24 26L26 26L26 24L20 24L20 26L22 26ZM2 26L6 26L6 24L4 24L4 22L2 22ZM12 26L14 26L14 24L12 24ZM6 24L8 24L8 22L6 22ZM10 24L12 24L12 22L10 22ZM14 24L16 24L16 20L12 20L12 22L14 22ZM38 24L42 24L42 22L40 22L40 20L36 20L36 22L38 22ZM0 22L2 22L2 20L0 20ZM6 20L8 20L8 18L6 18ZM34 20L36 20L36 16L34 16ZM4 18L6 18L6 16L4 16ZM8 18L14 18L14 16L8 16ZM40 18L42 18L42 16L40 16ZM0 14L14 14L14 0L0 0ZM16 14L18 14L18 12L16 12ZM22 14L22 10L24 10L24 14ZM28 14L42 14L42 0L28 0ZM2 12L2 2L12 2L12 12ZM30 12L30 2L40 2L40 12ZM4 10L10 10L10 4L4 4ZM32 10L38 10L38 4L32 4ZM16 8L18 8L18 6L16 6ZM16 2L18 2L18 0L16 0Z" fill="#000000" fill-rule="evenodd" />
</svg>
