<svg version="1.1" xmlns="http://www.w3.org/2000/svg" viewBox="-3.7333342968888896 -5.000000946666668 7.466668593777779 10.000001893333335" fill="black" stroke="none">
    <path fill-rule="evenodd" d="M -0.33272 1.34937 L -0.09813 1.46667 L 1.13333 1.46667 L 1.13333 3 L 1.4 3 L 1.4 2.26667 L 1.96741 2.69222 L 1.808 2.90453 L 2.33522 2.96808 L 2.46667 3.06667 L 2.46667 4 L 2.73333 4 L 2.73333 2.93333 L 2.49534 2.75484 L 2.28693 2.26667 L 2.12752 2.47898 L 1.4 1.93333 L 1.4 0.74896 L 2.72698 0.08219 L 2.72698 -4 L 2.46031 -4 L 2.46031 -2.13333 L -0.12187 -2.13333 L -1.26667 -0.98854 L -1.26667 -1.66667 L -1.53333 -1.66667 L -1.53333 -0.12323 L -2.73333 -0.12323 L -2.73333 0.14344 L -1.53333 0.14344 L -1.53333 1.66667 L -1.26667 1.66667 L -1.26667 0.8824 L -0.7441 1.14368 L -0.86293 1.38133 L -0.33272 1.34937 Z M -0.21359 1.11081 L -0.50613 0.66773 L -0.62485 0.90518 L -1.26667 0.58427 L -1.26667 -0.61146 L -0.01146 -1.86667 L 2.46031 -1.86667 L 2.46031 -0.08219 L 1.4 0.45042 L 1.4 -0.33333 L 1.13333 -0.33333 L 1.13333 1.2 L -0.03521 1.2 L -0.21359 1.11081 Z" />
</svg>