<svg version="1.1" xmlns="http://www.w3.org/2000/svg" viewBox="-8.5 -5 17 10" fill="black" stroke="none"><path fill-rule="evenodd" d="M 3.85 0.335 L 3.894 0.461 L 3.963 0.598 L 4.048 0.725 L 4.149 0.839 L 4.263 0.94 L 4.39 1.025 L 4.527 1.094 L 4.673 1.145 L 4.827 1.177 L 4.988 1.188 L 5.149 1.177 L 5.303 1.145 L 5.449 1.094 L 5.586 1.025 L 5.713 0.94 L 5.827 0.839 L 5.928 0.725 L 6.013 0.598 L 6.082 0.461 L 6.133 0.315 L 6.144 0.263 L 7.5 0.263 L 7.5 -0.237 L 6.149 -0.237 L 6.133 -0.315 L 6.082 -0.461 L 6.013 -0.598 L 5.928 -0.725 L 5.827 -0.839 L 5.713 -0.94 L 5.586 -1.025 L 5.449 -1.094 L 5.303 -1.145 L 5.149 -1.177 L 4.988 -1.188 L 4.827 -1.177 L 4.673 -1.145 L 4.527 -1.094 L 4.39 -1.025 L 4.263 -0.94 L 4.149 -0.839 L 4.048 -0.725 L 3.963 -0.598 L 3.894 -0.461 L 3.85 -0.335 L 3.812 -0.4 L 3.611 -0.719 L 3.328 -1.12 L 2.964 -1.574 L 2.518 -2.056 L 1.991 -2.537 L 1.382 -2.992 L 0.691 -3.392 L -0.082 -3.712 L -0.937 -3.923 L -1.875 -4 L -4.842 -4 L -4.583 -3.611 L -4.579 -3.604 L -4.566 -3.583 L -4.546 -3.548 L -4.519 -3.501 L -4.485 -3.442 L -4.446 -3.372 L -4.402 -3.292 L -4.354 -3.203 L -4.302 -3.105 L -4.247 -3 L -4.19 -2.888 L -4.13 -2.769 L -7.5 -2.769 L -7.5 -2.269 L -3.899 -2.269 L -3.831 -2.102 L -3.766 -1.929 L -3.702 -1.751 L -3.642 -1.568 L -3.586 -1.381 L -3.535 -1.19 L -3.489 -0.996 L -3.45 -0.799 L -3.419 -0.601 L -3.395 -0.401 L -3.38 -0.201 L -3.375 0 L -3.38 0.199 L -3.395 0.399 L -3.418 0.597 L -3.449 0.794 L -3.488 0.989 L -3.533 1.182 L -3.584 1.372 L -3.639 1.558 L -3.699 1.74 L -3.761 1.918 L -3.827 2.09 L -3.894 2.256 L -7.5 2.256 L -7.5 2.756 L -4.124 2.756 L -4.184 2.877 L -4.242 2.991 L -4.298 3.098 L -4.35 3.197 L -4.399 3.288 L -4.444 3.369 L -4.484 3.44 L -4.518 3.499 L -4.545 3.547 L -4.566 3.582 L -4.579 3.604 L -4.583 3.611 L -4.842 4 L -1.875 4 L -0.937 3.923 L -0.082 3.712 L 0.691 3.392 L 1.382 2.992 L 1.991 2.537 L 2.518 2.056 L 2.964 1.574 L 3.328 1.12 L 3.611 0.719 L 3.812 0.4 L 3.85 0.335 Z M 4.3 0 L 4.306 -0.094 L 4.324 -0.184 L 4.354 -0.269 L 4.393 -0.349 L 4.442 -0.422 L 4.5 -0.488 L 4.566 -0.546 L 4.639 -0.595 L 4.719 -0.634 L 4.804 -0.664 L 4.894 -0.682 L 4.988 -0.688 L 5.082 -0.682 L 5.172 -0.664 L 5.257 -0.634 L 5.337 -0.595 L 5.41 -0.546 L 5.476 -0.488 L 5.534 -0.422 L 5.583 -0.349 L 5.622 -0.269 L 5.652 -0.184 L 5.67 -0.094 L 5.676 0 L 5.67 0.094 L 5.652 0.184 L 5.622 0.269 L 5.583 0.349 L 5.534 0.422 L 5.476 0.488 L 5.41 0.546 L 5.337 0.595 L 5.257 0.634 L 5.172 0.664 L 5.082 0.682 L 4.988 0.688 L 4.894 0.682 L 4.804 0.664 L 4.719 0.634 L 4.639 0.595 L 4.566 0.546 L 4.5 0.488 L 4.442 0.422 L 4.393 0.349 L 4.354 0.269 L 4.324 0.184 L 4.306 0.094 L 4.3 0 Z M -3.934 3.5 L -3.835 3.322 L -3.727 3.116 L -3.612 2.884 L -3.495 2.627 L -3.378 2.349 L -3.266 2.052 L -3.161 1.738 L -3.067 1.41 L -2.988 1.069 L -2.928 0.719 L -2.889 0.362 L -2.875 0 L -2.889 -0.362 L -2.928 -0.719 L -2.988 -1.069 L -3.067 -1.41 L -3.161 -1.738 L -3.266 -2.052 L -3.378 -2.349 L -3.495 -2.627 L -3.612 -2.884 L -3.727 -3.116 L -3.835 -3.322 L -3.934 -3.5 L -1.875 -3.5 L -1.058 -3.437 L -0.309 -3.263 L 0.371 -2.999 L 0.984 -2.664 L 1.528 -2.282 L 2.005 -1.871 L 2.415 -1.454 L 2.757 -1.051 L 3.032 -0.683 L 3.241 -0.371 L 3.383 -0.137 L 3.459 0 L 3.383 0.137 L 3.241 0.371 L 3.032 0.683 L 2.757 1.051 L 2.415 1.454 L 2.005 1.871 L 1.528 2.282 L 0.984 2.664 L 0.371 2.999 L -0.309 3.263 L -1.058 3.437 L -1.875 3.5 L -3.934 3.5 Z" /></svg>