<svg version="1.1" xmlns="http://www.w3.org/2000/svg" viewBox="-35.285711367347396 -5.000000542857196 70.57142273469479 10.000001085714391" fill="black" stroke="none">
    <path fill-rule="evenodd" d="M 20.95987 1.17054 L 34.28571 1.17054 L 34.28571 -1.11518 L 20.97925 -1.11518 L 20.82661 -1.55127 L 20.59373 -2.01286 L 20.30529 -2.43852 L 19.96621 -2.82335 L 19.58138 -3.16244 L 19.15572 -3.45087 L 18.69412 -3.68376 L 18.20151 -3.85618 L 17.68279 -3.96323 L 17.14286 -4 L 16.60292 -3.96323 L 16.0842 -3.85618 L 15.59159 -3.68376 L 15.13 -3.45087 L 14.70433 -3.16244 L 14.3195 -2.82335 L 13.98042 -2.43852 L 13.69198 -2.01286 L 13.4591 -1.55127 L 13.28668 -1.05866 L 13.17963 -0.53993 L 13.14286 0 L 13.17963 0.53993 L 13.28668 1.05866 L 13.4591 1.55127 L 13.69198 2.01286 L 13.98042 2.43852 L 14.3195 2.82335 L 14.70433 3.16244 L 15.13 3.45087 L 15.59159 3.68376 L 16.0842 3.85618 L 16.60292 3.96323 L 17.14286 4 L 17.68279 3.96323 L 18.20151 3.85618 L 18.69412 3.68376 L 19.15572 3.45087 L 19.58138 3.16244 L 19.96621 2.82335 L 20.30529 2.43852 L 20.59373 2.01286 L 20.82661 1.55127 L 20.95987 1.17054 Z M 17.14286 -1.71429 L 17.37832 -1.69889 L 17.60328 -1.65399 L 17.81584 -1.58147 L 18.0141 -1.48324 L 18.19616 -1.3612 L 18.36011 -1.21726 L 18.50406 -1.05331 L 18.6261 -0.87125 L 18.72433 -0.67299 L 18.79684 -0.46042 L 18.84175 -0.23546 L 18.85714 0 L 18.84175 0.23546 L 18.79684 0.46042 L 18.72433 0.67299 L 18.6261 0.87125 L 18.50406 1.05331 L 18.36011 1.21726 L 18.19616 1.3612 L 18.0141 1.48324 L 17.81584 1.58147 L 17.60328 1.65399 L 17.37832 1.69889 L 17.14286 1.71429 L 16.90739 1.69889 L 16.68243 1.65399 L 16.46987 1.58147 L 16.27161 1.48324 L 16.08955 1.3612 L 15.9256 1.21726 L 15.78165 1.05331 L 15.65961 0.87125 L 15.56138 0.67299 L 15.48887 0.46042 L 15.44396 0.23546 L 15.42857 0 L 15.44396 -0.23546 L 15.48887 -0.46042 L 15.56138 -0.67299 L 15.65961 -0.87125 L 15.78165 -1.05331 L 15.9256 -1.21726 L 16.08955 -1.3612 L 16.27161 -1.48324 L 16.46987 -1.58147 L 16.68243 -1.65399 L 16.90739 -1.69889 L 17.14286 -1.71429 Z" />
    <path fill-rule="evenodd" d="M -20.97925 1.11518 L -20.82661 1.55127 L -20.59373 2.01286 L -20.30529 2.43852 L -19.9662 2.82335 L -19.58138 3.16244 L -19.15571 3.45087 L -18.69412 3.68376 L -18.20151 3.85618 L -17.68279 3.96323 L -17.14286 4 L -16.60292 3.96323 L -16.0842 3.85618 L -15.59159 3.68376 L -15.13 3.45087 L -14.70433 3.16244 L -14.31951 2.82335 L -13.98042 2.43852 L -13.69198 2.01286 L -13.4591 1.55127 L -13.28668 1.05866 L -13.17963 0.53993 L -13.14286 0 L -13.17963 -0.53993 L -13.28668 -1.05866 L -13.4591 -1.55127 L -13.69198 -2.01286 L -13.98042 -2.43852 L -14.31951 -2.82335 L -14.70433 -3.16244 L -15.13 -3.45087 L -15.59159 -3.68376 L -16.0842 -3.85618 L -16.60292 -3.96323 L -17.14286 -4 L -17.68279 -3.96323 L -18.20151 -3.85618 L -18.69412 -3.68376 L -19.15571 -3.45087 L -19.58138 -3.16244 L -19.9662 -2.82335 L -20.30529 -2.43852 L -20.59373 -2.01286 L -20.82661 -1.55127 L -20.95987 -1.17054 L -34.28571 -1.17054 L -34.28571 1.11518 L -20.97925 1.11518 Z M -17.14286 -1.71429 L -16.90739 -1.69889 L -16.68243 -1.65399 L -16.46987 -1.58147 L -16.27161 -1.48324 L -16.08955 -1.3612 L -15.9256 -1.21726 L -15.78165 -1.05331 L -15.65961 -0.87125 L -15.56138 -0.67299 L -15.48887 -0.46042 L -15.44396 -0.23546 L -15.42857 0 L -15.44396 0.23546 L -15.48887 0.46042 L -15.56138 0.67299 L -15.65961 0.87125 L -15.78165 1.05331 L -15.9256 1.21726 L -16.08955 1.3612 L -16.27161 1.48324 L -16.46987 1.58147 L -16.68243 1.65399 L -16.90739 1.69889 L -17.14286 1.71429 L -17.37832 1.69889 L -17.60328 1.65399 L -17.81584 1.58147 L -18.0141 1.48324 L -18.19616 1.3612 L -18.36011 1.21726 L -18.50406 1.05331 L -18.6261 0.87125 L -18.72433 0.67299 L -18.79684 0.46042 L -18.84175 0.23546 L -18.85714 0 L -18.84175 -0.23546 L -18.79684 -0.46042 L -18.72433 -0.67299 L -18.6261 -0.87125 L -18.50406 -1.05331 L -18.36011 -1.21726 L -18.19616 -1.3612 L -18.0141 -1.48324 L -17.81584 -1.58147 L -17.60328 -1.65399 L -17.37832 -1.69889 L -17.14286 -1.71429 Z" />
</svg>