<svg version="1.1" xmlns="http://www.w3.org/2000/svg" viewBox="-6.63875971335685 -5.000000924816801 13.277519426713674 10.000001849633602" fill="black" stroke="none">
    <path d="M -5.63876 -3.99992 L -5.63868 -3.99992 L -5.63868 -4 L -5.63876 -4 L -5.63876 -3.99992 Z" />
    <path d="M 3.28312 -0.51202 L 0.90222 0.88489 L 0.90222 -0.6919 L 0.5263 -0.6919 L 0.5263 1.10559 L -0.52626 1.72307 L -0.52626 -0.6919 L -0.90218 -0.6919 L -0.90218 1.44862 L -5.63872 1.44862 L -5.63872 1.82453 L -0.90218 1.82453 L -0.90218 1.94362 L -3.85429 3.67577 L -3.66399 4 L -0.90218 2.3796 L -0.90218 3.96946 L -0.52626 3.96946 L -0.52626 2.15904 L 0.5263 1.54142 L 0.5263 3.96946 L 0.90222 3.96946 L 0.90222 1.84553 L 5.63876 1.84553 L 5.63876 1.46962 L 0.90222 1.46962 L 0.90222 1.32086 L 3.47665 -0.1897 L 4.06784 0.79576 L 4.39031 0.60222 L 3.28312 -0.51202 Z" />
</svg>