<svg version="1.1" xmlns="http://www.w3.org/2000/svg" viewBox="-5.615 -5 11.231 10" fill="black" stroke="none"><path fill-rule="evenodd" d="M -3.231 0.154 L -3.231 1.385 L -4.615 1.385 L -4.615 1.692 L -3.231 1.692 L -3.231 4 L 3.231 4 L 3.231 1.692 L 4.615 1.692 L 4.615 1.385 L 3.231 1.385 L 3.231 -1.385 L 4.615 -1.385 L 4.615 -1.692 L 3.231 -1.692 L 3.231 -4 L -3.231 -4 L -3.231 -1.692 L -4.615 -1.692 L -4.615 -1.385 L -3.231 -1.385 L -3.231 -0.154 L -4.615 -0.154 L -4.615 0.154 L -3.231 0.154 Z M -2.923 3.692 L -2.923 -3.692 L 2.923 -3.692 L 2.923 3.692 L -2.923 3.692 Z M -2.309 0.573 L -2.309 -0.563 L -1.559 -0.563 L -1.559 -0.369 L -2.105 -0.369 L -2.105 -0.118 L -1.597 -0.118 L -1.597 0.074 L -2.105 0.074 L -2.105 0.382 L -1.538 0.382 L -1.538 0.573 L -2.309 0.573 Z M 1.537 -1.583 L 1.538 -1.564 L 1.538 -1.546 L 1.538 -1.527 L 1.538 -1.509 L 1.538 -1.49 L 1.539 -1.472 L 1.54 -1.453 L 1.542 -1.435 L 1.544 -1.416 L 1.546 -1.398 L 1.549 -1.38 L 1.553 -1.362 L 1.557 -1.344 L 1.561 -1.325 L 1.566 -1.308 L 1.571 -1.29 L 1.576 -1.272 L 1.582 -1.255 L 1.589 -1.237 L 1.595 -1.22 L 1.603 -1.203 L 1.61 -1.186 L 1.618 -1.169 L 1.627 -1.153 L 1.636 -1.137 L 1.645 -1.121 L 1.652 -1.109 L 1.66 -1.098 L 1.668 -1.087 L 1.677 -1.076 L 1.686 -1.066 L 1.696 -1.056 L 1.706 -1.047 L 1.717 -1.038 L 1.728 -1.03 L 1.739 -1.022 L 1.75 -1.015 L 1.762 -1.008 L 1.775 -1.001 L 1.787 -0.996 L 1.8 -0.99 L 1.813 -0.986 L 1.826 -0.982 L 1.839 -0.978 L 1.852 -0.975 L 1.866 -0.973 L 1.879 -0.971 L 1.893 -0.97 L 1.907 -0.969 L 1.921 -0.969 L 1.933 -0.97 L 1.945 -0.971 L 1.958 -0.972 L 1.97 -0.975 L 1.982 -0.977 L 1.994 -0.98 L 2.006 -0.984 L 2.018 -0.988 L 2.029 -0.993 L 2.04 -0.998 L 2.051 -1.003 L 2.062 -1.009 L 2.073 -1.016 L 2.083 -1.023 L 2.093 -1.03 L 2.103 -1.038 L 2.112 -1.046 L 2.121 -1.055 L 2.13 -1.064 L 2.138 -1.073 L 2.146 -1.083 L 2.153 -1.092 L 2.16 -1.103 L 2.167 -1.113 L 2.29 -1.025 L 2.374 -1.219 L 2.25 -1.298 L 2.251 -1.3 L 2.252 -1.303 L 2.255 -1.31 L 2.257 -1.319 L 2.26 -1.332 L 2.264 -1.349 L 2.267 -1.37 L 2.27 -1.395 L 2.273 -1.425 L 2.275 -1.46 L 2.276 -1.5 L 2.277 -1.546 L 2.278 -1.564 L 2.278 -1.583 L 2.278 -1.601 L 2.278 -1.619 L 2.277 -1.638 L 2.276 -1.656 L 2.274 -1.674 L 2.272 -1.692 L 2.269 -1.711 L 2.266 -1.729 L 2.262 -1.747 L 2.259 -1.765 L 2.254 -1.782 L 2.249 -1.8 L 2.244 -1.818 L 2.239 -1.835 L 2.233 -1.853 L 2.226 -1.87 L 2.219 -1.887 L 2.212 -1.904 L 2.204 -1.92 L 2.196 -1.937 L 2.188 -1.953 L 2.179 -1.969 L 2.164 -1.992 L 2.147 -2.013 L 2.129 -2.032 L 2.108 -2.05 L 2.087 -2.066 L 2.064 -2.08 L 2.04 -2.093 L 2.015 -2.103 L 1.989 -2.111 L 1.962 -2.116 L 1.936 -2.12 L 1.909 -2.121 L 1.882 -2.12 L 1.855 -2.116 L 1.828 -2.111 L 1.803 -2.103 L 1.778 -2.093 L 1.754 -2.08 L 1.731 -2.066 L 1.709 -2.05 L 1.689 -2.032 L 1.67 -2.013 L 1.653 -1.992 L 1.638 -1.969 L 1.629 -1.953 L 1.621 -1.937 L 1.613 -1.92 L 1.605 -1.904 L 1.598 -1.887 L 1.591 -1.87 L 1.584 -1.853 L 1.578 -1.835 L 1.572 -1.818 L 1.567 -1.8 L 1.562 -1.783 L 1.558 -1.765 L 1.554 -1.747 L 1.55 -1.729 L 1.547 -1.711 L 1.544 -1.692 L 1.542 -1.674 L 1.54 -1.656 L 1.539 -1.638 L 1.538 -1.619 L 1.537 -1.601 L 1.537 -1.583 Z M 1.692 -1.521 L 1.692 -1.534 L 1.692 -1.546 L 1.692 -1.559 L 1.692 -1.571 L 1.692 -1.584 L 1.692 -1.596 L 1.692 -1.609 L 1.693 -1.621 L 1.694 -1.633 L 1.696 -1.646 L 1.697 -1.658 L 1.699 -1.67 L 1.702 -1.683 L 1.704 -1.695 L 1.707 -1.707 L 1.71 -1.719 L 1.713 -1.731 L 1.716 -1.743 L 1.72 -1.755 L 1.724 -1.767 L 1.729 -1.778 L 1.733 -1.79 L 1.738 -1.801 L 1.743 -1.813 L 1.748 -1.824 L 1.754 -1.835 L 1.761 -1.849 L 1.77 -1.863 L 1.78 -1.875 L 1.791 -1.887 L 1.803 -1.897 L 1.817 -1.906 L 1.83 -1.914 L 1.845 -1.921 L 1.86 -1.926 L 1.876 -1.93 L 1.892 -1.932 L 1.908 -1.933 L 1.924 -1.932 L 1.94 -1.93 L 1.955 -1.926 L 1.97 -1.921 L 1.985 -1.914 L 1.999 -1.906 L 2.012 -1.897 L 2.024 -1.887 L 2.035 -1.875 L 2.045 -1.863 L 2.054 -1.849 L 2.062 -1.835 L 2.067 -1.824 L 2.072 -1.813 L 2.077 -1.801 L 2.082 -1.79 L 2.086 -1.778 L 2.09 -1.766 L 2.094 -1.754 L 2.098 -1.743 L 2.101 -1.731 L 2.104 -1.719 L 2.107 -1.706 L 2.11 -1.694 L 2.112 -1.682 L 2.114 -1.67 L 2.116 -1.657 L 2.117 -1.645 L 2.118 -1.633 L 2.119 -1.62 L 2.12 -1.608 L 2.12 -1.596 L 2.121 -1.583 L 2.12 -1.571 L 2.12 -1.558 L 2.119 -1.546 L 2.119 -1.539 L 2.119 -1.532 L 2.119 -1.525 L 2.119 -1.518 L 2.119 -1.511 L 2.119 -1.504 L 2.119 -1.497 L 2.118 -1.49 L 2.118 -1.483 L 2.117 -1.477 L 2.117 -1.47 L 2.116 -1.463 L 2.115 -1.456 L 2.115 -1.449 L 2.114 -1.442 L 2.113 -1.435 L 2.112 -1.428 L 2.111 -1.421 L 2.11 -1.415 L 2.109 -1.408 L 2.108 -1.401 L 2.107 -1.394 L 2.106 -1.387 L 2.105 -1.38 L 1.99 -1.462 L 1.896 -1.298 L 2.019 -1.209 L 2.015 -1.205 L 2.012 -1.201 L 2.008 -1.197 L 2.004 -1.194 L 1.999 -1.19 L 1.995 -1.187 L 1.991 -1.183 L 1.986 -1.18 L 1.981 -1.177 L 1.976 -1.175 L 1.972 -1.172 L 1.967 -1.17 L 1.961 -1.168 L 1.956 -1.166 L 1.951 -1.164 L 1.946 -1.162 L 1.94 -1.161 L 1.935 -1.16 L 1.93 -1.159 L 1.924 -1.158 L 1.919 -1.157 L 1.913 -1.157 L 1.908 -1.157 L 1.902 -1.157 L 1.894 -1.157 L 1.887 -1.158 L 1.879 -1.16 L 1.871 -1.161 L 1.864 -1.163 L 1.857 -1.165 L 1.849 -1.168 L 1.842 -1.171 L 1.835 -1.174 L 1.828 -1.177 L 1.821 -1.181 L 1.815 -1.185 L 1.808 -1.19 L 1.802 -1.194 L 1.796 -1.199 L 1.79 -1.205 L 1.785 -1.21 L 1.78 -1.216 L 1.775 -1.222 L 1.77 -1.228 L 1.765 -1.234 L 1.761 -1.241 L 1.757 -1.247 L 1.754 -1.254 L 1.748 -1.265 L 1.743 -1.277 L 1.738 -1.288 L 1.733 -1.3 L 1.729 -1.312 L 1.724 -1.324 L 1.72 -1.336 L 1.716 -1.348 L 1.713 -1.36 L 1.71 -1.372 L 1.707 -1.384 L 1.704 -1.396 L 1.702 -1.409 L 1.699 -1.421 L 1.697 -1.433 L 1.696 -1.446 L 1.694 -1.458 L 1.693 -1.471 L 1.692 -1.484 L 1.692 -1.496 L 1.692 -1.509 L 1.692 -1.521 Z M -2.308 2.108 L -2.133 2.109 L -2.133 1.634 L -2.098 1.634 L -2.094 1.634 L -2.09 1.634 L -2.087 1.634 L -2.083 1.634 L -2.079 1.634 L -2.076 1.634 L -2.072 1.635 L -2.068 1.635 L -2.065 1.635 L -2.061 1.636 L -2.057 1.636 L -2.054 1.637 L -2.05 1.637 L -2.047 1.638 L -2.043 1.638 L -2.039 1.639 L -2.036 1.64 L -2.032 1.641 L -2.029 1.642 L -2.025 1.643 L -2.022 1.644 L -2.018 1.645 L -2.015 1.646 L -2.011 1.647 L -2.008 1.649 L -2.006 1.65 L -2.003 1.652 L -2.001 1.653 L -1.998 1.655 L -1.996 1.657 L -1.993 1.658 L -1.991 1.66 L -1.989 1.662 L -1.986 1.664 L -1.984 1.666 L -1.982 1.668 L -1.98 1.67 L -1.978 1.672 L -1.976 1.674 L -1.974 1.676 L -1.972 1.678 L -1.97 1.68 L -1.968 1.683 L -1.966 1.685 L -1.964 1.687 L -1.963 1.69 L -1.961 1.692 L -1.959 1.695 L -1.955 1.701 L -1.951 1.708 L -1.947 1.715 L -1.943 1.722 L -1.939 1.729 L -1.935 1.735 L -1.931 1.742 L -1.927 1.749 L -1.923 1.756 L -1.919 1.763 L -1.915 1.77 L -1.911 1.777 L -1.908 1.784 L -1.904 1.791 L -1.9 1.798 L -1.896 1.805 L -1.893 1.812 L -1.889 1.819 L -1.886 1.826 L -1.882 1.833 L -1.879 1.84 L -1.875 1.847 L -1.872 1.854 L -1.868 1.862 L -1.745 2.108 L -1.535 2.108 L -1.64 1.886 L -1.643 1.878 L -1.647 1.87 L -1.651 1.862 L -1.654 1.854 L -1.658 1.846 L -1.662 1.839 L -1.666 1.831 L -1.669 1.823 L -1.673 1.815 L -1.677 1.807 L -1.681 1.8 L -1.685 1.792 L -1.69 1.784 L -1.694 1.777 L -1.698 1.769 L -1.702 1.761 L -1.707 1.754 L -1.711 1.746 L -1.716 1.739 L -1.72 1.731 L -1.725 1.724 L -1.729 1.716 L -1.734 1.709 L -1.738 1.702 L -1.742 1.697 L -1.745 1.693 L -1.748 1.688 L -1.752 1.684 L -1.755 1.679 L -1.759 1.675 L -1.762 1.671 L -1.766 1.667 L -1.77 1.662 L -1.773 1.658 L -1.777 1.654 L -1.781 1.65 L -1.785 1.646 L -1.789 1.642 L -1.793 1.639 L -1.797 1.635 L -1.801 1.631 L -1.805 1.627 L -1.809 1.624 L -1.813 1.62 L -1.818 1.616 L -1.822 1.613 L -1.826 1.61 L -1.831 1.606 L -1.822 1.605 L -1.814 1.603 L -1.806 1.601 L -1.797 1.599 L -1.789 1.597 L -1.781 1.594 L -1.773 1.591 L -1.765 1.587 L -1.757 1.584 L -1.75 1.58 L -1.742 1.576 L -1.735 1.571 L -1.728 1.567 L -1.721 1.562 L -1.714 1.557 L -1.707 1.551 L -1.701 1.546 L -1.695 1.54 L -1.689 1.534 L -1.683 1.528 L -1.677 1.521 L -1.672 1.515 L -1.666 1.508 L -1.662 1.501 L -1.657 1.493 L -1.652 1.485 L -1.648 1.477 L -1.644 1.469 L -1.64 1.461 L -1.637 1.452 L -1.633 1.444 L -1.63 1.435 L -1.627 1.427 L -1.624 1.418 L -1.622 1.409 L -1.619 1.401 L -1.617 1.392 L -1.615 1.383 L -1.613 1.374 L -1.612 1.365 L -1.611 1.356 L -1.61 1.347 L -1.609 1.338 L -1.608 1.329 L -1.608 1.32 L -1.608 1.311 L -1.608 1.301 L -1.608 1.292 L -1.608 1.285 L -1.608 1.277 L -1.608 1.269 L -1.608 1.261 L -1.609 1.253 L -1.609 1.246 L -1.61 1.238 L -1.611 1.23 L -1.612 1.222 L -1.613 1.215 L -1.615 1.207 L -1.616 1.199 L -1.618 1.192 L -1.62 1.184 L -1.622 1.177 L -1.624 1.169 L -1.626 1.162 L -1.628 1.154 L -1.631 1.147 L -1.634 1.14 L -1.636 1.132 L -1.639 1.125 L -1.642 1.118 L -1.646 1.111 L -1.648 1.105 L -1.651 1.099 L -1.654 1.094 L -1.657 1.088 L -1.66 1.083 L -1.663 1.078 L -1.667 1.072 L -1.67 1.067 L -1.674 1.062 L -1.678 1.057 L -1.682 1.053 L -1.686 1.048 L -1.69 1.043 L -1.695 1.039 L -1.699 1.035 L -1.704 1.03 L -1.708 1.026 L -1.713 1.022 L -1.718 1.019 L -1.723 1.015 L -1.729 1.011 L -1.734 1.008 L -1.739 1.005 L -1.745 1.002 L -1.753 0.999 L -1.761 0.996 L -1.769 0.994 L -1.777 0.991 L -1.785 0.989 L -1.793 0.987 L -1.801 0.984 L -1.809 0.983 L -1.818 0.981 L -1.826 0.979 L -1.834 0.978 L -1.843 0.976 L -1.851 0.975 L -1.859 0.974 L -1.868 0.973 L -1.876 0.972 L -1.885 0.972 L -1.893 0.971 L -1.902 0.971 L -1.91 0.971 L -1.919 0.971 L -1.927 0.971 L -1.936 0.971 L -1.944 0.972 L -2.308 0.972 L -2.308 2.108 Z M -2.135 1.452 L -2.135 1.166 L -1.997 1.166 L -1.992 1.165 L -1.987 1.165 L -1.982 1.165 L -1.976 1.165 L -1.971 1.165 L -1.966 1.165 L -1.961 1.165 L -1.956 1.165 L -1.951 1.165 L -1.946 1.165 L -1.94 1.166 L -1.935 1.166 L -1.93 1.166 L -1.925 1.166 L -1.92 1.166 L -1.915 1.167 L -1.91 1.167 L -1.905 1.167 L -1.899 1.167 L -1.894 1.168 L -1.889 1.168 L -1.884 1.168 L -1.879 1.169 L -1.874 1.169 L -1.871 1.17 L -1.867 1.171 L -1.864 1.171 L -1.861 1.172 L -1.858 1.173 L -1.854 1.175 L -1.851 1.176 L -1.848 1.177 L -1.845 1.179 L -1.842 1.18 L -1.839 1.182 L -1.836 1.184 L -1.834 1.186 L -1.831 1.188 L -1.828 1.19 L -1.826 1.192 L -1.823 1.194 L -1.821 1.197 L -1.818 1.199 L -1.816 1.202 L -1.814 1.204 L -1.812 1.207 L -1.81 1.21 L -1.808 1.212 L -1.806 1.216 L -1.804 1.219 L -1.802 1.223 L -1.8 1.226 L -1.799 1.23 L -1.797 1.234 L -1.796 1.238 L -1.794 1.241 L -1.793 1.245 L -1.792 1.249 L -1.791 1.253 L -1.79 1.257 L -1.789 1.261 L -1.788 1.265 L -1.787 1.269 L -1.786 1.273 L -1.786 1.276 L -1.785 1.28 L -1.785 1.285 L -1.785 1.289 L -1.785 1.293 L -1.784 1.297 L -1.784 1.301 L -1.785 1.305 L -1.785 1.308 L -1.785 1.312 L -1.785 1.316 L -1.785 1.319 L -1.785 1.323 L -1.785 1.327 L -1.786 1.33 L -1.786 1.334 L -1.787 1.338 L -1.788 1.341 L -1.788 1.345 L -1.789 1.349 L -1.79 1.352 L -1.791 1.356 L -1.792 1.359 L -1.793 1.363 L -1.794 1.366 L -1.795 1.37 L -1.796 1.373 L -1.798 1.377 L -1.799 1.38 L -1.801 1.383 L -1.802 1.387 L -1.804 1.39 L -1.805 1.393 L -1.806 1.395 L -1.808 1.398 L -1.809 1.4 L -1.811 1.403 L -1.812 1.405 L -1.814 1.407 L -1.816 1.41 L -1.818 1.412 L -1.82 1.414 L -1.822 1.416 L -1.824 1.418 L -1.826 1.42 L -1.828 1.422 L -1.83 1.424 L -1.832 1.426 L -1.834 1.428 L -1.837 1.429 L -1.839 1.431 L -1.842 1.433 L -1.844 1.434 L -1.847 1.436 L -1.849 1.437 L -1.852 1.438 L -1.858 1.44 L -1.864 1.441 L -1.871 1.442 L -1.877 1.444 L -1.884 1.445 L -1.89 1.446 L -1.897 1.447 L -1.903 1.448 L -1.91 1.449 L -1.916 1.45 L -1.923 1.45 L -1.929 1.451 L -1.936 1.451 L -1.942 1.452 L -1.949 1.452 L -1.955 1.452 L -1.962 1.453 L -1.968 1.453 L -1.975 1.453 L -1.981 1.453 L -1.988 1.453 L -1.994 1.452 L -2.001 1.452 L -2.007 1.452 L -2.135 1.452 Z M -2.338 -1.351 L -2.338 -1.338 L -2.337 -1.324 L -2.335 -1.311 L -2.333 -1.298 L -2.331 -1.285 L -2.328 -1.272 L -2.325 -1.26 L -2.322 -1.247 L -2.318 -1.234 L -2.314 -1.222 L -2.309 -1.209 L -2.304 -1.197 L -2.299 -1.185 L -2.293 -1.173 L -2.287 -1.161 L -2.281 -1.15 L -2.274 -1.138 L -2.268 -1.127 L -2.26 -1.116 L -2.253 -1.105 L -2.245 -1.095 L -2.236 -1.084 L -2.228 -1.074 L -2.219 -1.065 L -2.209 -1.056 L -2.199 -1.048 L -2.189 -1.04 L -2.178 -1.033 L -2.167 -1.026 L -2.156 -1.019 L -2.145 -1.013 L -2.133 -1.007 L -2.121 -1.002 L -2.11 -0.997 L -2.098 -0.992 L -2.085 -0.987 L -2.073 -0.984 L -2.061 -0.98 L -2.048 -0.977 L -2.035 -0.974 L -2.023 -0.972 L -2.01 -0.97 L -1.997 -0.968 L -1.984 -0.967 L -1.971 -0.967 L -1.958 -0.967 L -1.945 -0.967 L -1.932 -0.967 L -1.923 -0.967 L -1.914 -0.967 L -1.905 -0.967 L -1.896 -0.968 L -1.887 -0.968 L -1.877 -0.969 L -1.868 -0.969 L -1.859 -0.97 L -1.85 -0.972 L -1.841 -0.973 L -1.832 -0.974 L -1.823 -0.976 L -1.814 -0.978 L -1.805 -0.98 L -1.796 -0.982 L -1.787 -0.984 L -1.778 -0.986 L -1.77 -0.989 L -1.761 -0.992 L -1.752 -0.995 L -1.744 -0.998 L -1.735 -1.001 L -1.727 -1.004 L -1.718 -1.008 L -1.711 -1.011 L -1.704 -1.015 L -1.698 -1.018 L -1.691 -1.022 L -1.684 -1.026 L -1.678 -1.03 L -1.672 -1.035 L -1.665 -1.039 L -1.659 -1.044 L -1.653 -1.049 L -1.648 -1.054 L -1.642 -1.059 L -1.636 -1.064 L -1.631 -1.07 L -1.626 -1.075 L -1.621 -1.081 L -1.616 -1.087 L -1.611 -1.093 L -1.606 -1.099 L -1.602 -1.105 L -1.597 -1.111 L -1.593 -1.118 L -1.589 -1.124 L -1.585 -1.131 L -1.578 -1.145 L -1.572 -1.159 L -1.566 -1.173 L -1.56 -1.187 L -1.556 -1.202 L -1.551 -1.217 L -1.548 -1.232 L -1.545 -1.247 L -1.542 -1.262 L -1.54 -1.277 L -1.539 -1.293 L -1.538 -1.308 L -1.538 -1.323 L -1.539 -1.339 L -1.54 -1.354 L -1.542 -1.369 L -1.544 -1.385 L -1.548 -1.4 L -1.551 -1.415 L -1.555 -1.43 L -1.56 -1.444 L -1.565 -1.459 L -1.571 -1.473 L -1.578 -1.487 L -1.581 -1.493 L -1.584 -1.498 L -1.588 -1.504 L -1.591 -1.51 L -1.595 -1.515 L -1.599 -1.52 L -1.603 -1.526 L -1.607 -1.531 L -1.611 -1.536 L -1.615 -1.541 L -1.62 -1.546 L -1.624 -1.551 L -1.629 -1.556 L -1.634 -1.56 L -1.639 -1.565 L -1.644 -1.569 L -1.649 -1.573 L -1.654 -1.578 L -1.659 -1.582 L -1.665 -1.586 L -1.67 -1.589 L -1.675 -1.593 L -1.681 -1.597 L -1.687 -1.6 L -1.695 -1.605 L -1.703 -1.609 L -1.712 -1.613 L -1.72 -1.618 L -1.729 -1.622 L -1.737 -1.626 L -1.746 -1.63 L -1.754 -1.634 L -1.763 -1.638 L -1.772 -1.642 L -1.78 -1.645 L -1.789 -1.649 L -1.798 -1.652 L -1.807 -1.656 L -1.815 -1.659 L -1.824 -1.662 L -1.833 -1.665 L -1.842 -1.668 L -1.851 -1.671 L -1.86 -1.674 L -1.869 -1.677 L -1.878 -1.679 L -1.887 -1.682 L -1.897 -1.684 L -1.905 -1.686 L -1.913 -1.688 L -1.921 -1.689 L -1.929 -1.691 L -1.937 -1.693 L -1.945 -1.696 L -1.953 -1.698 L -1.961 -1.701 L -1.969 -1.703 L -1.977 -1.706 L -1.985 -1.709 L -1.993 -1.712 L -2 -1.715 L -2.008 -1.719 L -2.016 -1.722 L -2.023 -1.726 L -2.031 -1.729 L -2.038 -1.733 L -2.046 -1.737 L -2.053 -1.741 L -2.06 -1.745 L -2.067 -1.75 L -2.074 -1.754 L -2.081 -1.759 L -2.084 -1.761 L -2.086 -1.763 L -2.088 -1.766 L -2.09 -1.768 L -2.092 -1.77 L -2.094 -1.773 L -2.096 -1.776 L -2.097 -1.778 L -2.099 -1.781 L -2.101 -1.784 L -2.102 -1.787 L -2.103 -1.789 L -2.104 -1.792 L -2.106 -1.795 L -2.107 -1.798 L -2.108 -1.801 L -2.108 -1.804 L -2.109 -1.808 L -2.11 -1.811 L -2.11 -1.814 L -2.11 -1.817 L -2.111 -1.82 L -2.111 -1.823 L -2.111 -1.826 L -2.111 -1.83 L -2.111 -1.833 L -2.111 -1.836 L -2.11 -1.84 L -2.11 -1.843 L -2.109 -1.846 L -2.109 -1.849 L -2.108 -1.852 L -2.107 -1.856 L -2.106 -1.859 L -2.104 -1.862 L -2.103 -1.865 L -2.102 -1.868 L -2.1 -1.871 L -2.098 -1.873 L -2.097 -1.876 L -2.095 -1.879 L -2.093 -1.882 L -2.091 -1.884 L -2.088 -1.887 L -2.086 -1.889 L -2.084 -1.891 L -2.081 -1.893 L -2.079 -1.895 L -2.074 -1.899 L -2.069 -1.902 L -2.064 -1.905 L -2.059 -1.908 L -2.053 -1.911 L -2.048 -1.914 L -2.043 -1.917 L -2.037 -1.919 L -2.032 -1.921 L -2.026 -1.923 L -2.02 -1.925 L -2.015 -1.927 L -2.009 -1.929 L -2.003 -1.93 L -1.997 -1.932 L -1.991 -1.933 L -1.985 -1.934 L -1.979 -1.934 L -1.973 -1.935 L -1.967 -1.935 L -1.961 -1.936 L -1.955 -1.936 L -1.949 -1.936 L -1.943 -1.935 L -1.938 -1.936 L -1.932 -1.936 L -1.927 -1.936 L -1.921 -1.936 L -1.916 -1.935 L -1.911 -1.935 L -1.905 -1.934 L -1.9 -1.933 L -1.894 -1.932 L -1.889 -1.931 L -1.884 -1.929 L -1.878 -1.928 L -1.873 -1.926 L -1.868 -1.924 L -1.863 -1.922 L -1.858 -1.92 L -1.853 -1.918 L -1.848 -1.916 L -1.843 -1.913 L -1.838 -1.91 L -1.834 -1.907 L -1.829 -1.904 L -1.825 -1.901 L -1.82 -1.898 L -1.816 -1.894 L -1.813 -1.889 L -1.809 -1.885 L -1.805 -1.881 L -1.802 -1.876 L -1.799 -1.871 L -1.795 -1.866 L -1.792 -1.862 L -1.79 -1.857 L -1.787 -1.852 L -1.784 -1.846 L -1.782 -1.841 L -1.78 -1.836 L -1.778 -1.831 L -1.776 -1.825 L -1.774 -1.82 L -1.772 -1.814 L -1.771 -1.809 L -1.769 -1.803 L -1.768 -1.798 L -1.767 -1.792 L -1.767 -1.786 L -1.766 -1.78 L -1.766 -1.775 L -1.567 -1.785 L -1.567 -1.796 L -1.567 -1.807 L -1.568 -1.819 L -1.569 -1.83 L -1.57 -1.841 L -1.572 -1.852 L -1.574 -1.863 L -1.577 -1.875 L -1.58 -1.885 L -1.583 -1.896 L -1.587 -1.907 L -1.591 -1.918 L -1.595 -1.928 L -1.6 -1.938 L -1.605 -1.949 L -1.611 -1.959 L -1.616 -1.968 L -1.623 -1.978 L -1.629 -1.987 L -1.636 -1.996 L -1.643 -2.005 L -1.65 -2.014 L -1.657 -2.023 L -1.665 -2.031 L -1.675 -2.039 L -1.685 -2.046 L -1.695 -2.054 L -1.705 -2.061 L -1.716 -2.067 L -1.727 -2.074 L -1.738 -2.079 L -1.749 -2.085 L -1.76 -2.09 L -1.772 -2.095 L -1.784 -2.099 L -1.795 -2.103 L -1.807 -2.107 L -1.819 -2.11 L -1.832 -2.113 L -1.844 -2.116 L -1.856 -2.118 L -1.869 -2.119 L -1.881 -2.121 L -1.893 -2.121 L -1.906 -2.122 L -1.918 -2.122 L -1.931 -2.121 L -1.943 -2.121 L -1.952 -2.121 L -1.96 -2.121 L -1.968 -2.121 L -1.977 -2.12 L -1.985 -2.12 L -1.993 -2.119 L -2.001 -2.118 L -2.01 -2.117 L -2.018 -2.116 L -2.026 -2.115 L -2.034 -2.114 L -2.042 -2.112 L -2.051 -2.11 L -2.059 -2.109 L -2.067 -2.107 L -2.075 -2.104 L -2.083 -2.102 L -2.091 -2.1 L -2.099 -2.097 L -2.106 -2.094 L -2.114 -2.091 L -2.122 -2.088 L -2.13 -2.085 L -2.137 -2.082 L -2.144 -2.079 L -2.15 -2.076 L -2.156 -2.072 L -2.162 -2.069 L -2.168 -2.065 L -2.174 -2.061 L -2.18 -2.057 L -2.186 -2.053 L -2.191 -2.049 L -2.197 -2.044 L -2.202 -2.04 L -2.208 -2.035 L -2.213 -2.03 L -2.218 -2.025 L -2.223 -2.02 L -2.227 -2.015 L -2.232 -2.01 L -2.236 -2.004 L -2.241 -1.999 L -2.245 -1.993 L -2.249 -1.987 L -2.253 -1.981 L -2.257 -1.975 L -2.26 -1.969 L -2.264 -1.963 L -2.267 -1.957 L -2.27 -1.951 L -2.273 -1.945 L -2.276 -1.938 L -2.279 -1.932 L -2.281 -1.925 L -2.283 -1.919 L -2.286 -1.912 L -2.288 -1.906 L -2.29 -1.899 L -2.292 -1.892 L -2.293 -1.886 L -2.295 -1.879 L -2.296 -1.872 L -2.297 -1.865 L -2.298 -1.858 L -2.299 -1.851 L -2.3 -1.845 L -2.301 -1.838 L -2.301 -1.831 L -2.301 -1.824 L -2.302 -1.817 L -2.302 -1.81 L -2.302 -1.8 L -2.301 -1.789 L -2.301 -1.779 L -2.3 -1.769 L -2.298 -1.758 L -2.297 -1.748 L -2.294 -1.738 L -2.292 -1.728 L -2.289 -1.718 L -2.286 -1.708 L -2.283 -1.698 L -2.279 -1.689 L -2.275 -1.679 L -2.271 -1.67 L -2.266 -1.66 L -2.261 -1.651 L -2.256 -1.642 L -2.25 -1.634 L -2.244 -1.625 L -2.238 -1.617 L -2.232 -1.609 L -2.225 -1.601 L -2.218 -1.593 L -2.211 -1.586 L -2.203 -1.579 L -2.195 -1.573 L -2.186 -1.566 L -2.178 -1.56 L -2.169 -1.554 L -2.161 -1.548 L -2.152 -1.543 L -2.143 -1.537 L -2.134 -1.532 L -2.124 -1.527 L -2.115 -1.522 L -2.106 -1.517 L -2.096 -1.513 L -2.087 -1.508 L -2.077 -1.504 L -2.067 -1.5 L -2.058 -1.497 L -2.048 -1.493 L -2.038 -1.49 L -2.028 -1.487 L -2.018 -1.484 L -2.008 -1.481 L -1.997 -1.479 L -1.987 -1.476 L -1.967 -1.471 L -1.948 -1.465 L -1.93 -1.46 L -1.914 -1.455 L -1.899 -1.451 L -1.885 -1.446 L -1.872 -1.443 L -1.861 -1.439 L -1.851 -1.436 L -1.842 -1.433 L -1.834 -1.43 L -1.828 -1.428 L -1.824 -1.426 L -1.821 -1.425 L -1.817 -1.424 L -1.814 -1.422 L -1.811 -1.421 L -1.808 -1.419 L -1.804 -1.418 L -1.801 -1.416 L -1.798 -1.414 L -1.795 -1.412 L -1.792 -1.41 L -1.789 -1.408 L -1.786 -1.406 L -1.783 -1.404 L -1.78 -1.402 L -1.777 -1.399 L -1.774 -1.397 L -1.772 -1.395 L -1.769 -1.392 L -1.766 -1.39 L -1.764 -1.387 L -1.761 -1.384 L -1.759 -1.382 L -1.756 -1.379 L -1.755 -1.377 L -1.753 -1.374 L -1.751 -1.372 L -1.75 -1.369 L -1.749 -1.366 L -1.747 -1.364 L -1.746 -1.361 L -1.745 -1.358 L -1.744 -1.356 L -1.743 -1.353 L -1.742 -1.35 L -1.741 -1.347 L -1.74 -1.344 L -1.739 -1.341 L -1.738 -1.339 L -1.738 -1.336 L -1.737 -1.333 L -1.737 -1.33 L -1.737 -1.327 L -1.736 -1.324 L -1.736 -1.321 L -1.736 -1.318 L -1.736 -1.315 L -1.736 -1.312 L -1.736 -1.307 L -1.736 -1.302 L -1.737 -1.297 L -1.737 -1.292 L -1.738 -1.287 L -1.739 -1.282 L -1.74 -1.277 L -1.742 -1.272 L -1.743 -1.267 L -1.745 -1.263 L -1.747 -1.258 L -1.749 -1.253 L -1.751 -1.249 L -1.753 -1.244 L -1.756 -1.24 L -1.758 -1.235 L -1.761 -1.231 L -1.764 -1.227 L -1.767 -1.223 L -1.77 -1.219 L -1.774 -1.216 L -1.777 -1.212 L -1.781 -1.208 L -1.785 -1.205 L -1.79 -1.201 L -1.795 -1.197 L -1.8 -1.193 L -1.806 -1.19 L -1.811 -1.186 L -1.817 -1.183 L -1.823 -1.18 L -1.829 -1.177 L -1.835 -1.174 L -1.841 -1.172 L -1.847 -1.17 L -1.853 -1.168 L -1.859 -1.166 L -1.866 -1.164 L -1.872 -1.163 L -1.878 -1.161 L -1.885 -1.16 L -1.891 -1.159 L -1.898 -1.159 L -1.904 -1.158 L -1.911 -1.158 L -1.917 -1.158 L -1.924 -1.158 L -1.93 -1.159 L -1.937 -1.159 L -1.944 -1.159 L -1.95 -1.159 L -1.957 -1.159 L -1.963 -1.16 L -1.97 -1.161 L -1.976 -1.162 L -1.982 -1.163 L -1.989 -1.165 L -1.995 -1.166 L -2.001 -1.168 L -2.008 -1.17 L -2.014 -1.173 L -2.02 -1.175 L -2.026 -1.178 L -2.032 -1.181 L -2.037 -1.184 L -2.043 -1.187 L -2.049 -1.19 L -2.054 -1.194 L -2.059 -1.198 L -2.065 -1.202 L -2.07 -1.206 L -2.074 -1.21 L -2.079 -1.216 L -2.084 -1.222 L -2.089 -1.228 L -2.093 -1.234 L -2.098 -1.24 L -2.102 -1.246 L -2.106 -1.252 L -2.11 -1.259 L -2.113 -1.265 L -2.117 -1.272 L -2.12 -1.279 L -2.123 -1.286 L -2.126 -1.293 L -2.129 -1.3 L -2.131 -1.307 L -2.133 -1.314 L -2.136 -1.321 L -2.138 -1.328 L -2.139 -1.335 L -2.141 -1.343 L -2.142 -1.35 L -2.143 -1.357 L -2.144 -1.365 L -2.145 -1.372 L -2.338 -1.351 Z M 1.537 1.494 L 1.538 1.513 L 1.538 1.531 L 1.538 1.55 L 1.538 1.568 L 1.538 1.587 L 1.539 1.605 L 1.54 1.624 L 1.542 1.642 L 1.544 1.66 L 1.546 1.679 L 1.549 1.697 L 1.553 1.715 L 1.557 1.733 L 1.561 1.751 L 1.566 1.769 L 1.571 1.787 L 1.576 1.805 L 1.582 1.822 L 1.589 1.84 L 1.595 1.857 L 1.603 1.874 L 1.61 1.891 L 1.618 1.907 L 1.627 1.924 L 1.636 1.94 L 1.645 1.956 L 1.652 1.968 L 1.66 1.979 L 1.668 1.99 L 1.677 2.001 L 1.686 2.011 L 1.696 2.021 L 1.706 2.03 L 1.717 2.039 L 1.728 2.047 L 1.739 2.055 L 1.75 2.062 L 1.762 2.069 L 1.775 2.076 L 1.787 2.081 L 1.8 2.087 L 1.813 2.091 L 1.826 2.095 L 1.839 2.099 L 1.852 2.102 L 1.866 2.104 L 1.879 2.106 L 1.893 2.107 L 1.907 2.108 L 1.921 2.108 L 1.933 2.107 L 1.945 2.106 L 1.958 2.104 L 1.97 2.102 L 1.982 2.1 L 1.994 2.097 L 2.006 2.093 L 2.018 2.089 L 2.029 2.084 L 2.04 2.079 L 2.051 2.074 L 2.062 2.068 L 2.073 2.061 L 2.083 2.054 L 2.093 2.047 L 2.103 2.039 L 2.112 2.031 L 2.121 2.022 L 2.13 2.013 L 2.138 2.004 L 2.146 1.994 L 2.153 1.984 L 2.16 1.974 L 2.167 1.964 L 2.29 2.052 L 2.374 1.858 L 2.25 1.778 L 2.251 1.777 L 2.252 1.774 L 2.255 1.767 L 2.257 1.758 L 2.26 1.745 L 2.264 1.728 L 2.267 1.707 L 2.27 1.682 L 2.273 1.652 L 2.275 1.617 L 2.276 1.577 L 2.277 1.531 L 2.278 1.513 L 2.278 1.494 L 2.278 1.476 L 2.278 1.458 L 2.277 1.439 L 2.276 1.421 L 2.274 1.403 L 2.272 1.385 L 2.269 1.366 L 2.266 1.348 L 2.262 1.33 L 2.259 1.312 L 2.254 1.294 L 2.249 1.277 L 2.244 1.259 L 2.239 1.242 L 2.233 1.224 L 2.226 1.207 L 2.219 1.19 L 2.212 1.173 L 2.204 1.157 L 2.196 1.14 L 2.188 1.124 L 2.179 1.108 L 2.164 1.085 L 2.147 1.064 L 2.129 1.045 L 2.108 1.027 L 2.087 1.011 L 2.064 0.996 L 2.04 0.984 L 2.015 0.974 L 1.989 0.966 L 1.962 0.961 L 1.936 0.957 L 1.909 0.956 L 1.882 0.957 L 1.855 0.961 L 1.828 0.966 L 1.803 0.974 L 1.778 0.984 L 1.754 0.996 L 1.731 1.011 L 1.709 1.027 L 1.689 1.045 L 1.67 1.064 L 1.653 1.085 L 1.638 1.108 L 1.629 1.124 L 1.621 1.14 L 1.613 1.157 L 1.605 1.173 L 1.598 1.19 L 1.591 1.207 L 1.584 1.224 L 1.578 1.242 L 1.572 1.259 L 1.567 1.277 L 1.562 1.294 L 1.558 1.312 L 1.554 1.33 L 1.55 1.348 L 1.547 1.366 L 1.544 1.384 L 1.542 1.403 L 1.54 1.421 L 1.539 1.439 L 1.538 1.458 L 1.537 1.476 L 1.537 1.494 Z M 1.692 1.556 L 1.692 1.543 L 1.692 1.53 L 1.692 1.518 L 1.692 1.506 L 1.692 1.493 L 1.692 1.481 L 1.692 1.468 L 1.693 1.456 L 1.694 1.444 L 1.696 1.431 L 1.697 1.419 L 1.699 1.407 L 1.702 1.394 L 1.704 1.382 L 1.707 1.37 L 1.71 1.358 L 1.713 1.346 L 1.716 1.334 L 1.72 1.322 L 1.724 1.31 L 1.729 1.299 L 1.733 1.287 L 1.738 1.276 L 1.743 1.264 L 1.748 1.253 L 1.754 1.242 L 1.761 1.228 L 1.77 1.214 L 1.78 1.202 L 1.791 1.19 L 1.803 1.18 L 1.817 1.171 L 1.83 1.163 L 1.845 1.156 L 1.86 1.151 L 1.876 1.147 L 1.892 1.145 L 1.908 1.144 L 1.924 1.145 L 1.94 1.147 L 1.955 1.151 L 1.97 1.156 L 1.985 1.163 L 1.999 1.171 L 2.012 1.18 L 2.024 1.19 L 2.035 1.202 L 2.045 1.214 L 2.054 1.228 L 2.062 1.242 L 2.067 1.253 L 2.072 1.264 L 2.077 1.276 L 2.082 1.287 L 2.086 1.299 L 2.09 1.311 L 2.094 1.322 L 2.098 1.334 L 2.101 1.346 L 2.104 1.358 L 2.107 1.37 L 2.11 1.383 L 2.112 1.395 L 2.114 1.407 L 2.116 1.419 L 2.117 1.432 L 2.118 1.444 L 2.119 1.457 L 2.12 1.469 L 2.12 1.481 L 2.121 1.494 L 2.12 1.506 L 2.12 1.519 L 2.119 1.531 L 2.119 1.538 L 2.119 1.545 L 2.119 1.552 L 2.119 1.559 L 2.119 1.566 L 2.119 1.573 L 2.119 1.58 L 2.118 1.587 L 2.118 1.593 L 2.117 1.6 L 2.117 1.607 L 2.116 1.614 L 2.115 1.621 L 2.115 1.628 L 2.114 1.635 L 2.113 1.642 L 2.112 1.649 L 2.111 1.656 L 2.11 1.662 L 2.109 1.669 L 2.108 1.676 L 2.107 1.683 L 2.106 1.69 L 2.105 1.697 L 1.99 1.615 L 1.896 1.779 L 2.019 1.868 L 2.015 1.872 L 2.012 1.876 L 2.008 1.88 L 2.004 1.883 L 1.999 1.887 L 1.995 1.89 L 1.991 1.894 L 1.986 1.897 L 1.981 1.9 L 1.976 1.902 L 1.972 1.905 L 1.967 1.907 L 1.961 1.909 L 1.956 1.911 L 1.951 1.913 L 1.946 1.915 L 1.94 1.916 L 1.935 1.917 L 1.93 1.918 L 1.924 1.919 L 1.919 1.919 L 1.913 1.92 L 1.908 1.92 L 1.902 1.92 L 1.894 1.919 L 1.887 1.919 L 1.879 1.917 L 1.871 1.916 L 1.864 1.914 L 1.857 1.912 L 1.849 1.909 L 1.842 1.906 L 1.835 1.903 L 1.828 1.899 L 1.821 1.896 L 1.815 1.892 L 1.808 1.887 L 1.802 1.883 L 1.796 1.878 L 1.79 1.872 L 1.785 1.867 L 1.78 1.861 L 1.775 1.855 L 1.77 1.849 L 1.765 1.843 L 1.761 1.836 L 1.757 1.83 L 1.754 1.823 L 1.748 1.811 L 1.743 1.8 L 1.738 1.789 L 1.733 1.777 L 1.729 1.765 L 1.724 1.753 L 1.72 1.741 L 1.716 1.729 L 1.713 1.717 L 1.71 1.705 L 1.707 1.693 L 1.704 1.681 L 1.702 1.668 L 1.699 1.656 L 1.697 1.643 L 1.696 1.631 L 1.694 1.618 L 1.693 1.606 L 1.692 1.593 L 1.692 1.581 L 1.692 1.568 L 1.692 1.556 Z M 1.354 0.723 L 2.508 0.723 L 2.508 0.415 L 1.354 0.415 L 1.354 0.723 Z" /></svg>