<svg version="1.1" xmlns="http://www.w3.org/2000/svg" viewBox="-5.897956438582624 -5.000000934694145 11.795912877165222 10.00000186938829" fill="black" stroke="none">
    <path d="M -0.17103 3.83674 L -0.17103 4 L 0.1555 4 L 0.1555 3.83674 L -0.17103 3.83674 Z" />
    <path fill-rule="evenodd" d="M -3.4097 2.6736 L -3.40799 2.68185 L -3.38336 2.75223 L -3.35009 2.81817 L -3.30889 2.87898 L -3.26045 2.93395 L -3.20547 2.98239 L -3.14466 3.0236 L -3.07872 3.05687 L -3.00835 3.0815 L -2.93425 3.09679 L -2.85711 3.10204 L -2.77998 3.09679 L -2.70588 3.0815 L -2.63551 3.05687 L -2.56956 3.0236 L -2.50876 2.98239 L -2.45378 2.93395 L -2.40534 2.87898 L -2.36413 2.81817 L -2.33087 2.75223 L -2.30623 2.68185 L -2.29094 2.60775 L -2.28569 2.53062 L -2.29094 2.45349 L -2.30623 2.37938 L -2.33087 2.30901 L -2.36413 2.24307 L -2.40534 2.18226 L -2.45378 2.12728 L -2.50876 2.07884 L -2.56956 2.03764 L -2.63551 2.00437 L -2.70588 1.97974 L -2.77998 1.96445 L -2.85711 1.95919 L -2.93425 1.96445 L -3.00835 1.97974 L -3.07872 2.00437 L -3.14466 2.03764 L -3.20547 2.07884 L -3.26045 2.12728 L -3.30889 2.18226 L -3.35009 2.24307 L -3.38336 2.30901 L -3.39669 2.34707 L -4.89792 2.34707 L -4.89792 2.6736 L -3.4097 2.6736 Z M -2.85711 2.28572 L -2.82348 2.28792 L -2.79134 2.29433 L -2.76097 2.30469 L -2.73265 2.31873 L -2.70664 2.33616 L -2.68322 2.35672 L -2.66266 2.38015 L -2.64522 2.40615 L -2.63119 2.43448 L -2.62083 2.46484 L -2.61442 2.49698 L -2.61222 2.53062 L -2.61442 2.56426 L -2.62083 2.59639 L -2.63119 2.62676 L -2.64522 2.65508 L -2.66266 2.68109 L -2.68322 2.70451 L -2.70664 2.72508 L -2.73265 2.74251 L -2.76097 2.75654 L -2.79134 2.7669 L -2.82348 2.77332 L -2.85711 2.77552 L -2.89075 2.77332 L -2.92289 2.7669 L -2.95326 2.75654 L -2.98158 2.74251 L -3.00759 2.72508 L -3.03101 2.70451 L -3.05157 2.68109 L -3.06901 2.65508 L -3.08304 2.62676 L -3.0934 2.59639 L -3.09981 2.56426 L -3.10201 2.53062 L -3.09981 2.49698 L -3.0934 2.46484 L -3.08304 2.43448 L -3.06901 2.40615 L -3.05157 2.38015 L -3.03101 2.35672 L -3.00759 2.33616 L -2.98158 2.31873 L -2.95326 2.30469 L -2.92289 2.29433 L -2.89075 2.28792 L -2.85711 2.28572 Z" />
    <path d="M 2.0352 2.6861 L 1.63266 3.29796 L 1.23012 2.6861 L 1.2245 2.6861 L 1.2245 2.67756 L 1.2245 2.35957 L 4.89796 2.35957 L 4.89796 2.6861 L 2.0352 2.6861 Z" />
    <path d="M -4.89796 -3.99993 L -4.89789 -3.99993 L -4.89789 -4 L -4.89796 -4 L -4.89796 -3.99993 Z" />
    <path fill-rule="evenodd" d="M -0.17103 0.24491 L 0.1555 0.24491 L 3.42857 0.24491 L 3.42857 -0.57141 L 4.89796 -0.57141 L 4.89796 -0.89794 L 3.42857 -0.89794 L 3.42857 -1.71426 L -3.42854 -1.71426 L -3.42854 -1.551 L -3.42854 -0.91031 L -4.89792 -0.91031 L -4.89792 -0.58378 L -3.42854 -0.58378 L -3.42854 0.24491 L -0.17103 0.24491 Z M -3.10201 -1.38773 L 3.10204 -1.38773 L 3.10204 -0.08162 L -3.10201 -0.08162 L -3.10201 -1.38773 Z" />
    <path d="M -0.17103 3.18368 L -0.17103 3.51021 L 0.1555 3.51021 L 0.1555 3.18368 L -0.17103 3.18368 Z" />
    <path d="M -0.17103 2.53062 L -0.17103 2.85715 L 0.1555 2.85715 L 0.1555 2.53062 L -0.17103 2.53062 Z" />
    <path d="M -0.17103 1.87756 L -0.17103 2.20409 L 0.1555 2.20409 L 0.1555 1.87756 L -0.17103 1.87756 Z" />
    <path d="M -0.17103 0.57144 L -0.17103 0.89797 L 0.1555 0.89797 L 0.1555 0.57144 L -0.17103 0.57144 Z" />
    <path d="M -0.17103 1.2245 L -0.17103 1.55103 L 0.1555 1.55103 L 0.1555 1.2245 L -0.17103 1.2245 Z" />
</svg>