<svg version="1.1" xmlns="http://www.w3.org/2000/svg" viewBox="-6.369122294864533 -5.000000928411954 12.738244589729039 10.000001856823909" fill="black" stroke="none">
    <path d="M -0.17895 3.4094 L -0.17895 3.58837 L 0.17899 3.58837 L 0.17899 3.4094 L -0.17895 3.4094 Z" />
    <path d="M -0.17895 2.62193 L -0.17895 3.01566 L 0.17899 3.01566 L 0.17899 2.62193 L -0.17895 2.62193 Z" />
    <path d="M -0.17895 1.83446 L -0.17895 2.2282 L 0.17899 2.2282 L 0.17899 1.83446 L -0.17895 1.83446 Z" />
    <path d="M -0.17895 1.04699 L -0.17895 1.44073 L 0.17899 1.44073 L 0.17899 1.04699 L -0.17895 1.04699 Z" />
    <path d="M -5.36912 -3.99993 L -5.36905 -3.99993 L -5.36905 -4 L -5.36912 -4 L -5.36912 -3.99993 Z" />
    <path d="M 2.23098 3.32928 L 1.78972 4 L 1.34846 3.32928 L 1.34229 3.32928 L 1.34229 3.31991 L 1.34229 2.97134 L 5.36912 2.97134 L 5.36912 3.32928 L 2.23098 3.32928 Z" />
    <path fill-rule="evenodd" d="M 0.17899 0.65326 L 3.75839 0.65326 L 3.75839 -0.24159 L 5.36912 -0.24159 L 5.36912 -0.59953 L 3.75839 -0.59953 L 3.75839 -1.49438 L -3.75835 -1.49438 L -3.75835 -1.31541 L -3.75835 -0.61309 L -5.36909 -0.61309 L -5.36909 -0.25515 L -3.75835 -0.25515 L -3.75835 0.65326 L -0.17895 0.65326 L -0.17895 0.47429 L 0.17899 0.47429 L 0.17899 0.65326 Z M -3.40041 -1.13644 L 3.40045 -1.13644 L 3.40045 0.29532 L -3.40041 0.29532 L -3.40041 -1.13644 Z" />
    <path d="M -5.36909 2.95764 L -5.36909 3.31558 L -3.57938 3.31558 L -3.57938 2.95764 L -5.36909 2.95764 Z" />
</svg>