<svg version="1.1" xmlns="http://www.w3.org/2000/svg" viewBox="-13.148535297559802 -5.000000838019543 26.297070595119603 10.000001676039085" fill="black" stroke="none">
    <path fill-rule="evenodd" d="M 7.42676 2.99743 L 12.14853 2.99743 L 12.14853 2.18753 L 7.43362 2.18753 L 7.37954 2.03301 L 7.29702 1.86945 L 7.19482 1.71862 L 7.07467 1.58227 L 6.93831 1.46212 L 6.78749 1.35991 L 6.62393 1.2774 L 6.44938 1.2163 L 6.26558 1.17837 L 6.07427 1.16534 L 5.88295 1.17837 L 5.69915 1.2163 L 5.5246 1.2774 L 5.36105 1.35991 L 5.21022 1.46212 L 5.07386 1.58227 L 4.95371 1.71862 L 4.85151 1.86945 L 4.76899 2.03301 L 4.7079 2.20755 L 4.66997 2.39136 L 4.65694 2.58267 L 4.66997 2.77399 L 4.7079 2.95779 L 4.76899 3.13234 L 4.85151 3.29589 L 4.95371 3.44672 L 5.07386 3.58307 L 5.21022 3.70322 L 5.36105 3.80543 L 5.5246 3.88794 L 5.69915 3.94904 L 5.88295 3.98697 L 6.07427 4 L 6.26558 3.98697 L 6.44938 3.94904 L 6.62393 3.88794 L 6.78749 3.80543 L 6.93831 3.70322 L 7.07467 3.58307 L 7.19482 3.44672 L 7.29702 3.29589 L 7.37954 3.13234 L 7.42676 2.99743 Z M 6.07427 1.97524 L 6.1577 1.9807 L 6.23741 1.99661 L 6.31273 2.0223 L 6.38298 2.05711 L 6.44749 2.10035 L 6.50558 2.15136 L 6.55659 2.20945 L 6.59983 2.27396 L 6.63463 2.34421 L 6.66033 2.41953 L 6.67624 2.49924 L 6.68169 2.58267 L 6.67624 2.6661 L 6.66033 2.74581 L 6.63463 2.82113 L 6.59983 2.89138 L 6.55659 2.95589 L 6.50558 3.01398 L 6.44749 3.06499 L 6.38298 3.10823 L 6.31273 3.14304 L 6.23741 3.16873 L 6.1577 3.18464 L 6.07427 3.1901 L 5.99084 3.18464 L 5.91112 3.16873 L 5.83581 3.14304 L 5.76556 3.10823 L 5.70105 3.06499 L 5.64295 3.01398 L 5.59195 2.95589 L 5.54871 2.89138 L 5.5139 2.82113 L 5.48821 2.74581 L 5.47229 2.6661 L 5.46684 2.58267 L 5.47229 2.49924 L 5.48821 2.41953 L 5.5139 2.34421 L 5.54871 2.27396 L 5.59195 2.20945 L 5.64295 2.15136 L 5.70105 2.10035 L 5.76556 2.05711 L 5.83581 2.0223 L 5.91112 1.99661 L 5.99084 1.9807 L 6.07427 1.97524 Z" />
    <path fill-rule="evenodd" d="M -5.06935 1.58739 L -5.07386 1.58227 L -5.21022 1.46212 L -5.36105 1.35991 L -5.5246 1.2774 L -5.69915 1.2163 L -5.88295 1.17837 L -6.07427 1.16534 L -6.26558 1.17837 L -6.44938 1.2163 L -6.62393 1.2774 L -6.78749 1.35991 L -6.93831 1.46212 L -7.07467 1.58227 L -7.19482 1.71862 L -7.29702 1.86945 L -7.37954 2.03301 L -7.42676 2.16791 L -12.14853 2.16791 L -12.14853 2.97781 L -7.43362 2.97781 L -7.37954 3.13234 L -7.29702 3.29589 L -7.19482 3.44672 L -7.07467 3.58307 L -6.93831 3.70322 L -6.78749 3.80543 L -6.62393 3.88794 L -6.44938 3.94904 L -6.26558 3.98697 L -6.07427 4 L -5.88295 3.98697 L -5.69915 3.94904 L -5.5246 3.88794 L -5.36105 3.80543 L -5.21022 3.70322 L -5.07386 3.58307 L -4.95371 3.44672 L -4.85151 3.29589 L -4.76899 3.13234 L -4.7079 2.95779 L -4.66997 2.77399 L -4.65694 2.58267 L -4.66997 2.39136 L -4.68812 2.3034 L 4.58322 -3.30715 L 4.16372 -4 L -5.06935 1.58739 Z M -6.07427 1.97524 L -5.99084 1.9807 L -5.91112 1.99661 L -5.83581 2.0223 L -5.76556 2.05711 L -5.70105 2.10035 L -5.64295 2.15136 L -5.59195 2.20945 L -5.54871 2.27396 L -5.5139 2.34421 L -5.48821 2.41953 L -5.47229 2.49924 L -5.46684 2.58267 L -5.47229 2.6661 L -5.48821 2.74581 L -5.5139 2.82113 L -5.54871 2.89138 L -5.59195 2.95589 L -5.64295 3.01398 L -5.70105 3.06499 L -5.76556 3.10823 L -5.83581 3.14304 L -5.91112 3.16873 L -5.99084 3.18464 L -6.07427 3.1901 L -6.1577 3.18464 L -6.23741 3.16873 L -6.31273 3.14304 L -6.38298 3.10823 L -6.44749 3.06499 L -6.50558 3.01398 L -6.55659 2.95589 L -6.59983 2.89138 L -6.63463 2.82113 L -6.66033 2.74581 L -6.67624 2.6661 L -6.68169 2.58267 L -6.67624 2.49924 L -6.66033 2.41953 L -6.63463 2.34421 L -6.59983 2.27396 L -6.55659 2.20945 L -6.50558 2.15136 L -6.44749 2.10035 L -6.38298 2.05711 L -6.31273 2.0223 L -6.23741 1.99661 L -6.1577 1.9807 L -6.07427 1.97524 Z" />
</svg>