<svg version="1.1" xmlns="http://www.w3.org/2000/svg" viewBox="-5.858490293951591 -5.0000009352226735 11.716980587903182 10.000001870445347" fill="black" stroke="none">
    <path fill-rule="evenodd" d="M 1.45768 3.31076 L 1.45768 4 L 4.85849 4 L 4.85849 3.67611 L 1.78157 3.67611 L 1.78157 3.40793 L 2.38278 3.58831 L 2.4759 3.27809 L 1.78157 3.0698 L 1.78157 2.62348 L 1.45768 2.62348 L 1.45768 2.97264 L 0.16213 2.584 L 0.16213 2.47773 L -0.16175 2.47773 L -0.16175 2.48684 L -1.59571 2.05668 L -4.85849 2.06516 L -4.85773 2.38904 L -1.64278 2.38057 L 1.45768 3.31076 Z M -0.16175 1.82996 L -0.16175 2.15385 L 0.16213 2.15385 L 0.16213 1.82996 L -0.16175 1.82996 Z M 1.61962 0.45344 L 1.61962 0.77733 L 4.85849 0.77733 L 4.85849 0.45344 L 1.61962 0.45344 Z M -0.16175 1.18219 L -0.16175 1.50607 L 0.16213 1.50607 L 0.16213 1.18219 L -0.16175 1.18219 Z M -0.16175 0.53441 L -0.16175 0.8583 L 0.16213 0.8583 L 0.16213 0.53441 L -0.16175 0.53441 Z M -0.16175 -0.11336 L -0.16175 0.21053 L 0.16213 0.21053 L 0.16213 -0.11336 L -0.16175 -0.11336 Z M -0.16175 -0.76113 L -0.16175 -0.43725 L 0.16213 -0.43725 L 0.16213 -0.76113 L -0.16175 -0.76113 Z M -0.16175 -1.24696 L -0.16175 -1.08502 L 0.16213 -1.08502 L 0.16213 -1.24696 L 0.97185 -1.24696 L 0.97185 -2.46154 L 4.85849 -2.46154 L 4.85849 -2.78543 L 0.97185 -2.78543 L 0.97185 -4 L -0.97147 -4 L -0.97147 -3.83806 L -0.97147 -2.78543 L -4.85811 -2.78543 L -4.85811 -2.46154 L -0.97147 -2.46154 L -0.97147 -1.24696 L -0.16175 -1.24696 Z M -0.64758 -3.67611 L 0.64796 -3.67611 L 0.64796 -1.57085 L -0.64758 -1.57085 L -0.64758 -3.67611 Z" />
</svg>