<svg version="1.1" xmlns="http://www.w3.org/2000/svg" viewBox="-5.7288436806137355 -5.000000936948974 11.457687361227443 10.000001873897949" fill="black" stroke="none">
    <path d="M 1.96542 3.68474 L 1.57629 3.09327 L 1.18716 3.68474 L 1.18222 3.68474 L 1.18222 3.69226 L 1.18222 4 L 4.72884 4 L 4.72884 3.68474 L 1.96542 3.68474 Z" />
    <path d="M -0.16512 2.54158 L -0.16512 2.6992 L 0.15013 2.6992 L 0.15013 2.54158 L -0.16512 2.54158 Z" />
    <path fill-rule="evenodd" d="M -3.29197 2.44318 L -3.29033 2.45115 L -3.26655 2.51909 L -3.23443 2.58276 L -3.19464 2.64147 L -3.14787 2.69454 L -3.0948 2.74131 L -3.03609 2.78109 L -2.97242 2.81321 L -2.90448 2.83699 L -2.83294 2.85176 L -2.75847 2.85683 L -2.684 2.85176 L -2.61245 2.83699 L -2.54451 2.81321 L -2.48084 2.78109 L -2.42214 2.74131 L -2.36906 2.69454 L -2.32229 2.64147 L -2.28251 2.58276 L -2.25039 2.51909 L -2.22661 2.45115 L -2.21184 2.3796 L -2.20677 2.30513 L -2.21184 2.23066 L -2.22661 2.15912 L -2.25039 2.09118 L -2.28251 2.02751 L -2.32229 1.9688 L -2.36906 1.91573 L -2.42214 1.86896 L -2.48084 1.82918 L -2.54451 1.79706 L -2.61245 1.77327 L -2.684 1.75851 L -2.75847 1.75344 L -2.83294 1.75851 L -2.90448 1.77327 L -2.97242 1.79706 L -3.03609 1.82918 L -3.0948 1.86896 L -3.14787 1.91573 L -3.19464 1.9688 L -3.23443 2.02751 L -3.26655 2.09118 L -3.27941 2.12793 L -4.72881 2.12793 L -4.72881 2.44318 L -3.29197 2.44318 Z M -2.75847 2.06869 L -2.72599 2.07082 L -2.69496 2.07701 L -2.66565 2.08701 L -2.6383 2.10056 L -2.61319 2.11739 L -2.59058 2.13724 L -2.57072 2.15986 L -2.55389 2.18497 L -2.54034 2.21231 L -2.53034 2.24163 L -2.52415 2.27266 L -2.52203 2.30513 L -2.52415 2.33761 L -2.53034 2.36864 L -2.54034 2.39796 L -2.55389 2.4253 L -2.57072 2.45041 L -2.59058 2.47302 L -2.61319 2.49288 L -2.6383 2.50971 L -2.66565 2.52326 L -2.69496 2.53326 L -2.72599 2.53945 L -2.75847 2.54158 L -2.79094 2.53945 L -2.82197 2.53326 L -2.85129 2.52326 L -2.87863 2.50971 L -2.90374 2.49288 L -2.92636 2.47302 L -2.94621 2.45041 L -2.96304 2.4253 L -2.97659 2.39796 L -2.98659 2.36864 L -2.99279 2.33761 L -2.99491 2.30513 L -2.99279 2.27266 L -2.98659 2.24163 L -2.97659 2.21231 L -2.96304 2.18497 L -2.94621 2.15986 L -2.92636 2.13724 L -2.90374 2.11739 L -2.87863 2.10056 L -2.85129 2.08701 L -2.82197 2.07701 L -2.79094 2.07082 L -2.75847 2.06869 Z" />
    <path d="M 1.96493 0.92626 L 1.57629 1.517 L 1.18765 0.92626 L 1.18222 0.92626 L 1.18222 0.91801 L 1.18222 0.61101 L 4.72884 0.61101 L 4.72884 0.92626 L 1.96493 0.92626 Z" />
    <path d="M -4.72884 -3.99994 L -4.72878 -3.99994 L -4.72878 -4 L -4.72884 -4 L -4.72884 -3.99994 Z" />
    <path fill-rule="evenodd" d="M -0.16512 -1.47793 L 0.15013 -1.47793 L 3.31019 -1.47793 L 3.31019 -2.26607 L 4.72884 -2.26607 L 4.72884 -2.58132 L 3.31019 -2.58132 L 3.31019 -3.36946 L -3.31016 -3.36946 L -3.31016 -3.21183 L -3.31016 -2.59327 L -4.72881 -2.59327 L -4.72881 -2.27801 L -3.31016 -2.27801 L -3.31016 -1.47793 L -0.16512 -1.47793 Z M -2.99491 -3.0542 L 2.99494 -3.0542 L 2.99494 -1.79318 L -2.99491 -1.79318 L -2.99491 -3.0542 Z" />
    <path d="M -0.16512 1.92055 L -0.16512 2.22952 L 0.15013 2.22952 L 0.15013 1.92055 L -0.16512 1.92055 Z" />
    <path d="M -0.16512 1.3026 L -0.16512 1.61157 L 0.15013 1.61157 L 0.15013 1.3026 L -0.16512 1.3026 Z" />
    <path d="M -0.16512 0.68477 L -0.16512 0.99362 L 0.15013 0.99362 L 0.15013 0.68477 L -0.16512 0.68477 Z" />
    <path d="M -0.16512 0.06682 L -0.16512 0.3758 L 0.15013 0.3758 L 0.15013 0.06682 L -0.16512 0.06682 Z" />
    <path d="M -0.16512 -1.16895 L -0.16512 -0.85998 L 0.15013 -0.85998 L 0.15013 -1.16895 L -0.16512 -1.16895 Z" />
    <path d="M -0.16512 -0.55113 L -0.16512 -0.24215 L 0.15013 -0.24215 L 0.15013 -0.55113 L -0.16512 -0.55113 Z" />
</svg>