<svg version="1.1" xmlns="http://www.w3.org/2000/svg" viewBox="-6.795 -5 13.59 10" fill="black" stroke="none"><path fill-rule="evenodd" d="M -5.795 0.676 L -4.057 0.676 L -4.057 2.125 L -1.915 2.125 L -3.517 3.727 L -3.244 4 L -1.369 2.125 L 4.057 2.125 L 4.057 0.676 L 5.795 0.676 L 5.795 0.29 L 4.057 0.29 L 4.057 -1.159 L 1.915 -1.159 L 3.38 -2.624 L 4.21 -1.795 L 4.483 -2.068 L 2.551 -4 L 2.278 -3.727 L 3.107 -2.898 L 1.369 -1.159 L -4.057 -1.159 L -4.057 0.29 L -5.795 0.29 L -5.795 0.676 Z M -0.982 1.739 L 1.529 -0.773 L 3.67 -0.773 L 3.67 1.739 L -0.982 1.739 Z M -3.67 1.739 L -3.67 -0.773 L 0.982 -0.773 L -1.529 1.739 L -3.67 1.739 Z" /></svg>