<svg version="1.1" xmlns="http://www.w3.org/2000/svg" viewBox="-4.400000954666668 -5.000000946666668 8.800001909333336 10.000001893333335" fill="black" stroke="none">
    <path fill-rule="evenodd" d="M -2.19101 0.13333 L -2.17441 0.37961 L -2.09987 0.7438 L -1.97974 1.08922 L -1.81737 1.41251 L -1.6161 1.71032 L -1.37931 1.97931 L -1.11032 2.2161 L -0.81251 2.41737 L -0.48922 2.57974 L -0.1438 2.69987 L 0.22039 2.77441 L 0.6 2.8 L 0.97961 2.77441 L 1.3438 2.69987 L 1.68922 2.57974 L 1.78187 2.5332 L 1.78187 4 L 2.04854 4 L 2.04854 2.39302 L 2.31032 2.2161 L 2.57931 1.97931 L 2.8161 1.71032 L 3.01737 1.41251 L 3.17974 1.08922 L 3.29987 0.7438 L 3.37441 0.37961 L 3.4 0 L 3.37441 -0.37961 L 3.29987 -0.7438 L 3.17974 -1.08922 L 3.01737 -1.41251 L 2.8161 -1.71032 L 2.57931 -1.97931 L 2.31032 -2.2161 L 2.04854 -2.39302 L 2.04854 -4 L 1.78187 -4 L 1.78187 -2.5332 L 1.68922 -2.57974 L 1.3438 -2.69987 L 0.97961 -2.77441 L 0.6 -2.8 L 0.22039 -2.77441 L -0.1438 -2.69987 L -0.48922 -2.57974 L -0.81251 -2.41737 L -1.11032 -2.2161 L -1.37931 -1.97931 L -1.6161 -1.71032 L -1.81737 -1.41251 L -1.97974 -1.08922 L -2.09987 -0.7438 L -2.17441 -0.37961 L -2.19101 -0.13333 L -3.4 -0.13333 L -3.4 0.13333 L -2.19101 0.13333 Z M 2.04854 -2.07358 L 2.14872 -2.00596 L 2.39193 -1.79193 L 2.60596 -1.54872 L 2.78781 -1.27932 L 2.93447 -0.98675 L 3.04295 -0.67401 L 3.11024 -0.34409 L 3.13333 0 L 3.11024 0.34409 L 3.04295 0.67401 L 2.93447 0.98675 L 2.78781 1.27932 L 2.60596 1.54872 L 2.39193 1.79193 L 2.14872 2.00596 L 2.04854 2.07358 L 2.04854 0.86667 L 0.06667 0.86667 L 0.06667 -0.86667 L 2.04854 -0.86667 L 2.04854 -2.07358 Z M -1.84645 0.13333 L -1.82977 0.18098 L -1.8026 0.23483 L -1.76895 0.28449 L -1.72939 0.32939 L -1.68449 0.36895 L -1.63483 0.4026 L -1.58098 0.42977 L -1.52351 0.44989 L -1.46299 0.46238 L -1.4 0.46667 L -1.33701 0.46238 L -1.27649 0.44989 L -1.21902 0.42977 L -1.16517 0.4026 L -1.11551 0.36895 L -1.07061 0.32939 L -1.03105 0.28449 L -0.9974 0.23483 L -0.97023 0.18098 L -0.95011 0.12351 L -0.93762 0.06299 L -0.93333 0 L -0.93762 -0.06299 L -0.95011 -0.12351 L -0.97023 -0.18098 L -0.9974 -0.23483 L -1.03105 -0.28449 L -1.07061 -0.32939 L -1.11551 -0.36895 L -1.16517 -0.4026 L -1.21902 -0.42977 L -1.27649 -0.44989 L -1.33701 -0.46238 L -1.4 -0.46667 L -1.46299 -0.46238 L -1.52351 -0.44989 L -1.58098 -0.42977 L -1.63483 -0.4026 L -1.68449 -0.36895 L -1.72939 -0.32939 L -1.76895 -0.28449 L -1.8026 -0.23483 L -1.82977 -0.18098 L -1.84645 -0.13333 L -1.92438 -0.13333 L -1.91024 -0.34409 L -1.84295 -0.67401 L -1.73447 -0.98675 L -1.58781 -1.27932 L -1.40596 -1.54872 L -1.19193 -1.79193 L -0.94872 -2.00596 L -0.67932 -2.18781 L -0.38675 -2.33447 L -0.07401 -2.44295 L 0.25591 -2.51024 L 0.6 -2.53333 L 0.94409 -2.51024 L 1.27401 -2.44295 L 1.58675 -2.33447 L 1.78187 -2.23666 L 1.78187 -1.13333 L 0.06667 -1.13333 L 0.06667 -1.66667 L -0.2 -1.66667 L -0.2 1.66667 L 0.06667 1.66667 L 0.06667 1.13333 L 1.78187 1.13333 L 1.78187 2.23666 L 1.58675 2.33447 L 1.27401 2.44295 L 0.94409 2.51024 L 0.6 2.53333 L 0.25591 2.51024 L -0.07401 2.44295 L -0.38675 2.33447 L -0.67932 2.18781 L -0.94872 2.00596 L -1.19193 1.79193 L -1.40596 1.54872 L -1.58781 1.27932 L -1.73447 0.98675 L -1.84295 0.67401 L -1.91024 0.34409 L -1.92438 0.13333 L -1.84645 0.13333 Z M -1.4 -0.2 L -1.37253 -0.1982 L -1.34628 -0.19297 L -1.32148 -0.18451 L -1.29835 -0.17305 L -1.27711 -0.15881 L -1.25799 -0.14201 L -1.24119 -0.12289 L -1.22695 -0.10165 L -1.21549 -0.07852 L -1.20703 -0.05372 L -1.2018 -0.02747 L -1.2 0 L -1.2018 0.02747 L -1.20703 0.05372 L -1.21549 0.07852 L -1.22695 0.10165 L -1.24119 0.12289 L -1.25799 0.14201 L -1.27711 0.15881 L -1.29835 0.17305 L -1.32148 0.18451 L -1.34628 0.19297 L -1.37253 0.1982 L -1.4 0.2 L -1.42747 0.1982 L -1.45372 0.19297 L -1.47852 0.18451 L -1.50165 0.17305 L -1.52289 0.15881 L -1.54201 0.14201 L -1.55881 0.12289 L -1.57305 0.10165 L -1.58451 0.07852 L -1.59297 0.05372 L -1.5982 0.02747 L -1.6 0 L -1.5982 -0.02747 L -1.59297 -0.05372 L -1.58451 -0.07852 L -1.57305 -0.10165 L -1.55881 -0.12289 L -1.54201 -0.14201 L -1.52289 -0.15881 L -1.50165 -0.17305 L -1.47852 -0.18451 L -1.45372 -0.19297 L -1.42747 -0.1982 L -1.4 -0.2 Z M -0.86667 -1.33333 L -0.86667 1.33333 L -0.6 1.33333 L -0.6 -1.33333 L -0.86667 -1.33333 Z" />
</svg>