<svg version="1.1" xmlns="http://www.w3.org/2000/svg" viewBox="-9.000000786666671 -5.000000893333336 18.000001573333343 10.000001786666672" fill="black" stroke="none">
    <path fill-rule="evenodd" d="M -1.25333 0 L -1.25333 1.06667 L -8 1.06667 L -8 1.6 L -1.25333 1.6 L -1.25333 2.66667 L -0.72 2.66667 L -0.72 0 L -1.25333 0 Z M 0.72 -1.33333 L 0.72 4 L 1.25333 4 L 1.25333 1.6 L 8 1.6 L 8 1.06667 L 1.25333 1.06667 L 1.25333 -1.33333 L 0.72 -1.33333 Z M 3.73333 -4 L 3.73333 -2.93333 L 2.66667 -2.93333 L 2.66667 -2.4 L 3.73333 -2.4 L 3.73333 -1.33333 L 4.26667 -1.33333 L 4.26667 -2.4 L 5.33333 -2.4 L 5.33333 -2.93333 L 4.26667 -2.93333 L 4.26667 -4 L 3.73333 -4 Z M -5.33333 -2.93333 L -5.33333 -2.4 L -2.66667 -2.4 L -2.66667 -2.93333 L -5.33333 -2.93333 Z" />
</svg>