<svg version="1.1" xmlns="http://www.w3.org/2000/svg" viewBox="-6.94162902033748 -5.000000920778301 13.88325804067496 10.000001841556585" fill="black" stroke="none">
    <path fill-rule="evenodd" d="M -5.94163 -1.74837 L -3.46595 -1.74837 L -3.2829 -1.87092 L -2.69075 -3.30774 L -1.78218 0.09013 L -1.39953 0.09013 L -0.5301 -3.15626 L 0.3387 0.09013 L 0.7212 0.09045 L 1.59078 -3.13149 L 2.45959 0.09045 L 2.83388 0.11428 L 3.59855 -1.74357 L 5.94163 -1.74357 L 5.94163 -2.13968 L 3.46595 -2.13968 L 3.28275 -2.01698 L 2.68982 -0.57645 L 1.78202 -3.94368 L 1.39953 -3.94368 L 0.53072 -0.72437 L -0.3387 -3.97339 L -0.72135 -3.97339 L -1.59062 -0.72715 L -2.45943 -3.97571 L -2.83388 -4 L -3.59855 -2.14448 L -5.94163 -2.14448 L -5.94163 -1.74837 Z M -0.78984 1.66454 L -0.19805 1.66454 L -0.19805 4 L 0.19805 4 L 0.19805 1.66454 L 0.78984 1.66454 L 0 0.29639 L -0.78984 1.66454 Z" />
</svg>