<svg version="1.1" xmlns="http://www.w3.org/2000/svg" viewBox="-6.141509531045459 -5.000000931446553 12.283019062090919 10.000001862893106" fill="black" stroke="none">
    <path d="M -0.17138 1.76304 L -0.17138 1.93443 L 0.17138 1.93443 L 0.17138 1.76304 L -0.17138 1.76304 Z" />
    <path fill-rule="evenodd" d="M -2.13562 2.99009 L -2.14736 2.97677 L -2.20507 2.92592 L -2.2689 2.88266 L -2.33812 2.84774 L -2.412 2.82188 L -2.48979 2.80583 L -2.57075 2.80031 L -2.65172 2.80583 L -2.72951 2.82188 L -2.80338 2.84774 L -2.8726 2.88266 L -2.93644 2.92592 L -2.99415 2.97677 L -3.045 3.03447 L -3.08825 3.09831 L -3.12317 3.16753 L -3.14292 3.22395 L -5.14151 3.22395 L -5.14151 3.56672 L -3.1463 3.56672 L -3.12317 3.63279 L -3.08825 3.70201 L -3.045 3.76584 L -2.99415 3.82355 L -2.93644 3.8744 L -2.8726 3.91765 L -2.80338 3.95258 L -2.72951 3.97843 L -2.65172 3.99449 L -2.57075 4 L -2.48979 3.99449 L -2.412 3.97843 L -2.33812 3.95258 L -2.2689 3.91765 L -2.20507 3.8744 L -2.14736 3.82355 L -2.09651 3.76584 L -2.05326 3.70201 L -2.01834 3.63279 L -1.99248 3.55891 L -1.97643 3.48113 L -1.97091 3.40016 L -1.97643 3.31919 L -1.98089 3.29755 L 2.63422 1.45951 L 2.50729 1.14111 L -2.13562 2.99009 Z M -2.57075 3.14308 L -2.53544 3.14539 L -2.50171 3.15212 L -2.46983 3.163 L -2.4401 3.17773 L -2.4128 3.19603 L -2.38821 3.21762 L -2.36663 3.2422 L -2.34833 3.2695 L -2.3336 3.29924 L -2.32272 3.33111 L -2.31599 3.36485 L -2.31368 3.40016 L -2.31599 3.43547 L -2.32272 3.4692 L -2.3336 3.50108 L -2.34833 3.53081 L -2.36663 3.55811 L -2.38821 3.5827 L -2.4128 3.60428 L -2.4401 3.62259 L -2.46983 3.63732 L -2.50171 3.64819 L -2.53544 3.65492 L -2.57075 3.65723 L -2.60606 3.65492 L -2.6398 3.64819 L -2.67168 3.63732 L -2.70141 3.62259 L -2.72871 3.60428 L -2.7533 3.5827 L -2.77488 3.55811 L -2.79318 3.53081 L -2.80791 3.50108 L -2.81879 3.4692 L -2.82552 3.43547 L -2.82783 3.40016 L -2.82552 3.36485 L -2.81879 3.33111 L -2.80791 3.29924 L -2.79318 3.2695 L -2.77488 3.2422 L -2.7533 3.21762 L -2.72871 3.19603 L -2.70141 3.17773 L -2.67168 3.163 L -2.6398 3.15212 L -2.60606 3.14539 L -2.57075 3.14308 Z" />
    <path fill-rule="evenodd" d="M 3.1432 3.57556 L 5.14151 3.57556 L 5.14151 3.23279 L 3.14602 3.23279 L 3.12317 3.16753 L 3.08825 3.09831 L 3.045 3.03447 L 2.99415 2.97677 L 2.93644 2.92592 L 2.8726 2.88266 L 2.80338 2.84774 L 2.72951 2.82188 L 2.65172 2.80583 L 2.57075 2.80031 L 2.48979 2.80583 L 2.412 2.82188 L 2.33812 2.84774 L 2.2689 2.88266 L 2.20507 2.92592 L 2.14736 2.97677 L 2.09651 3.03447 L 2.05326 3.09831 L 2.01834 3.16753 L 1.99248 3.2414 L 1.97643 3.31919 L 1.97091 3.40016 L 1.97643 3.48113 L 1.99248 3.55891 L 2.01834 3.63279 L 2.05326 3.70201 L 2.09651 3.76584 L 2.14736 3.82355 L 2.20507 3.8744 L 2.2689 3.91765 L 2.33812 3.95258 L 2.412 3.97843 L 2.48979 3.99449 L 2.57075 4 L 2.65172 3.99449 L 2.72951 3.97843 L 2.80338 3.95258 L 2.8726 3.91765 L 2.93644 3.8744 L 2.99415 3.82355 L 3.045 3.76584 L 3.08825 3.70201 L 3.12317 3.63279 L 3.1432 3.57556 Z M 2.57075 3.14308 L 2.60606 3.14539 L 2.6398 3.15212 L 2.67168 3.163 L 2.70141 3.17773 L 2.72871 3.19603 L 2.7533 3.21762 L 2.77488 3.2422 L 2.79318 3.2695 L 2.80791 3.29924 L 2.81879 3.33111 L 2.82552 3.36485 L 2.82783 3.40016 L 2.82552 3.43547 L 2.81879 3.4692 L 2.80791 3.50108 L 2.79318 3.53081 L 2.77488 3.55811 L 2.7533 3.5827 L 2.72871 3.60428 L 2.70141 3.62259 L 2.67168 3.63732 L 2.6398 3.64819 L 2.60606 3.65492 L 2.57075 3.65723 L 2.53544 3.65492 L 2.50171 3.64819 L 2.46983 3.63732 L 2.4401 3.62259 L 2.4128 3.60428 L 2.38821 3.5827 L 2.36663 3.55811 L 2.34833 3.53081 L 2.3336 3.50108 L 2.32272 3.4692 L 2.31599 3.43547 L 2.31368 3.40016 L 2.31599 3.36485 L 2.32272 3.33111 L 2.3336 3.29924 L 2.34833 3.2695 L 2.36663 3.2422 L 2.38821 3.21762 L 2.4128 3.19603 L 2.4401 3.17773 L 2.46983 3.163 L 2.50171 3.15212 L 2.53544 3.14539 L 2.57075 3.14308 Z" />
    <path d="M -0.17138 1.04671 L -0.17138 1.40314 L 0.17138 1.40314 L 0.17138 1.04671 L -0.17138 1.04671 Z" />
    <path fill-rule="evenodd" d="M 3.1432 -1.53167 L 5.14151 -1.53167 L 5.14151 -1.87444 L 3.14602 -1.87444 L 3.12317 -1.9397 L 3.08825 -2.00892 L 3.045 -2.07276 L 2.99415 -2.13047 L 2.93644 -2.18132 L 2.8726 -2.22457 L 2.80338 -2.25949 L 2.72951 -2.28535 L 2.65172 -2.3014 L 2.57075 -2.30692 L 2.48979 -2.3014 L 2.412 -2.28535 L 2.33812 -2.25949 L 2.2689 -2.22457 L 2.20507 -2.18132 L 2.14736 -2.13047 L 2.09651 -2.07276 L 2.05326 -2.00892 L 2.01834 -1.9397 L 1.99248 -1.86583 L 1.97643 -1.78804 L 1.97091 -1.70707 L 1.97643 -1.62611 L 1.99248 -1.54832 L 2.01834 -1.47445 L 2.05326 -1.40522 L 2.09651 -1.34139 L 2.14736 -1.28368 L 2.20507 -1.23283 L 2.2689 -1.18958 L 2.33812 -1.15466 L 2.412 -1.1288 L 2.48979 -1.11275 L 2.57075 -1.10723 L 2.65172 -1.11275 L 2.72951 -1.1288 L 2.80338 -1.15466 L 2.8726 -1.18958 L 2.93644 -1.23283 L 2.99415 -1.28368 L 3.045 -1.34139 L 3.08825 -1.40522 L 3.12317 -1.47445 L 3.1432 -1.53167 Z M 2.57075 -1.96415 L 2.60606 -1.96184 L 2.6398 -1.95511 L 2.67168 -1.94423 L 2.70141 -1.9295 L 2.72871 -1.9112 L 2.7533 -1.88962 L 2.77488 -1.86503 L 2.79318 -1.83773 L 2.80791 -1.808 L 2.81879 -1.77612 L 2.82552 -1.74238 L 2.82783 -1.70707 L 2.82552 -1.67176 L 2.81879 -1.63803 L 2.80791 -1.60615 L 2.79318 -1.57642 L 2.77488 -1.54912 L 2.7533 -1.52453 L 2.72871 -1.50295 L 2.70141 -1.48465 L 2.67168 -1.46992 L 2.6398 -1.45904 L 2.60606 -1.45231 L 2.57075 -1.45 L 2.53544 -1.45231 L 2.50171 -1.45904 L 2.46983 -1.46992 L 2.4401 -1.48465 L 2.4128 -1.50295 L 2.38821 -1.52453 L 2.36663 -1.54912 L 2.34833 -1.57642 L 2.3336 -1.60615 L 2.32272 -1.63803 L 2.31599 -1.67176 L 2.31368 -1.70707 L 2.31599 -1.74238 L 2.32272 -1.77612 L 2.3336 -1.808 L 2.34833 -1.83773 L 2.36663 -1.86503 L 2.38821 -1.88962 L 2.4128 -1.9112 L 2.4401 -1.9295 L 2.46983 -1.94423 L 2.50171 -1.95511 L 2.53544 -1.96184 L 2.57075 -1.96415 Z" />
    <path fill-rule="evenodd" d="M -2.13594 -2.1175 L -2.14736 -2.13047 L -2.20507 -2.18132 L -2.2689 -2.22457 L -2.33812 -2.25949 L -2.412 -2.28535 L -2.48979 -2.3014 L -2.57075 -2.30692 L -2.65172 -2.3014 L -2.72951 -2.28535 L -2.80338 -2.25949 L -2.8726 -2.22457 L -2.93644 -2.18132 L -2.99415 -2.13047 L -3.045 -2.07276 L -3.08825 -2.00892 L -3.12317 -1.9397 L -3.14292 -1.88328 L -5.14151 -1.88328 L -5.14151 -1.54051 L -3.1463 -1.54051 L -3.12317 -1.47445 L -3.08825 -1.40522 L -3.045 -1.34139 L -2.99415 -1.28368 L -2.93644 -1.23283 L -2.8726 -1.18958 L -2.80338 -1.15466 L -2.72951 -1.1288 L -2.65172 -1.11275 L -2.57075 -1.10723 L -2.48979 -1.11275 L -2.412 -1.1288 L -2.33812 -1.15466 L -2.2689 -1.18958 L -2.20507 -1.23283 L -2.14736 -1.28368 L -2.09651 -1.34139 L -2.05326 -1.40522 L -2.01834 -1.47445 L -1.99248 -1.54832 L -1.97643 -1.62611 L -1.97091 -1.70707 L -1.97643 -1.78804 L -1.98103 -1.81036 L 2.63516 -3.6824 L 2.50635 -4 L -2.13594 -2.1175 Z M -2.57075 -1.96415 L -2.53544 -1.96184 L -2.50171 -1.95511 L -2.46983 -1.94423 L -2.4401 -1.9295 L -2.4128 -1.9112 L -2.38821 -1.88962 L -2.36663 -1.86503 L -2.34833 -1.83773 L -2.3336 -1.808 L -2.32272 -1.77612 L -2.31599 -1.74238 L -2.31368 -1.70707 L -2.31599 -1.67176 L -2.32272 -1.63803 L -2.3336 -1.60615 L -2.34833 -1.57642 L -2.36663 -1.54912 L -2.38821 -1.52453 L -2.4128 -1.50295 L -2.4401 -1.48465 L -2.46983 -1.46992 L -2.50171 -1.45904 L -2.53544 -1.45231 L -2.57075 -1.45 L -2.60606 -1.45231 L -2.6398 -1.45904 L -2.67168 -1.46992 L -2.70141 -1.48465 L -2.72871 -1.50295 L -2.7533 -1.52453 L -2.77488 -1.54912 L -2.79318 -1.57642 L -2.80791 -1.60615 L -2.81879 -1.63803 L -2.82552 -1.67176 L -2.82783 -1.70707 L -2.82552 -1.74238 L -2.81879 -1.77612 L -2.80791 -1.808 L -2.79318 -1.83773 L -2.77488 -1.86503 L -2.7533 -1.88962 L -2.72871 -1.9112 L -2.70141 -1.9295 L -2.67168 -1.94423 L -2.6398 -1.95511 L -2.60606 -1.96184 L -2.57075 -1.96415 Z" />
    <path d="M -0.17138 -2.33303 L -0.17138 -2.16164 L 0.17138 -2.16164 L 0.17138 -2.33303 L -0.17138 -2.33303 Z" />
    <path d="M -0.17138 -1.80522 L -0.17138 -1.44866 L 0.17138 -1.44866 L 0.17138 -1.80522 L -0.17138 -1.80522 Z" />
    <path d="M -0.17138 0.33373 L -0.17138 0.69015 L 0.17138 0.69015 L 0.17138 0.33373 L -0.17138 0.33373 Z" />
    <path d="M -0.17138 -0.37925 L -0.17138 -0.02283 L 0.17138 -0.02283 L 0.17138 -0.37925 L -0.17138 -0.37925 Z" />
    <path d="M -0.17138 -1.09224 L -0.17138 -0.73568 L 0.17138 -0.73568 L 0.17138 -1.09224 L -0.17138 -1.09224 Z" />
</svg>