<svg version="1.1" xmlns="http://www.w3.org/2000/svg" viewBox="-8.500000812500005 -5.0000009000000025 17.00000162500001 10.000001800000005" fill="black" stroke="none">
    <path fill-rule="evenodd" d="M -7.5 2.75605 L -5.34012 2.75605 L -5.37861 2.8388 L -5.51982 3.11703 L -5.64426 3.3451 L -5.74353 3.51631 L -5.80924 3.62396 L -5.83301 3.66133 L -5.41699 3.93867 L -5.39157 3.90009 L -5.32129 3.78855 L -5.21512 3.61036 L -5.08203 3.37186 L -4.931 3.07934 L -4.77896 2.75605 L -4.12402 2.75605 L -4.18383 2.8766 L -4.24195 2.99084 L -4.29772 3.09798 L -4.35045 3.19723 L -4.39949 3.28778 L -4.44416 3.36884 L -4.4838 3.43961 L -4.51773 3.49931 L -4.54528 3.54712 L -4.5658 3.58226 L -4.57859 3.60393 L -4.58301 3.61133 L -4.84219 4 L -1.875 4 L -0.98955 3.93373 L -0.17971 3.74955 L 0.5551 3.4694 L 1.21549 3.11522 L 1.80206 2.70897 L 2.31539 2.27257 L 2.75609 1.82797 L 3.12476 1.39712 L 3.42199 1.00195 L 3.64838 0.66441 L 3.80452 0.40645 L 3.89102 0.25 L 7.5 0.25 L 7.5 -0.25 L 3.89102 -0.25 L 3.80452 -0.40645 L 3.64838 -0.66441 L 3.42199 -1.00195 L 3.12476 -1.39712 L 2.75609 -1.82797 L 2.31539 -2.27257 L 1.80206 -2.70897 L 1.21549 -3.11522 L 0.5551 -3.4694 L -0.17971 -3.74955 L -0.98955 -3.93373 L -1.875 -4 L -4.84219 -4 L -4.58301 -3.61133 L -4.57866 -3.60403 L -4.56607 -3.58266 L -4.54587 -3.54801 L -4.51874 -3.50087 L -4.48532 -3.44203 L -4.44627 -3.37228 L -4.40225 -3.29241 L -4.35391 -3.20322 L -4.30191 -3.10548 L -4.24689 -3 L -4.18953 -2.88755 L -4.13047 -2.76895 L -4.8191 -2.76895 L -4.9299 -3.00895 L -5.08073 -3.30701 L -5.21364 -3.55041 L -5.31966 -3.73249 L -5.38985 -3.84661 L -5.41523 -3.88613 L -5.83477 -3.61387 L -5.81096 -3.57546 L -5.74515 -3.46496 L -5.64574 -3.28943 L -5.52112 -3.05595 L -5.3797 -2.77158 L -5.3785 -2.76895 L -7.5 -2.76895 L -7.5 -2.26895 L -5.15827 -2.26895 L -5.08006 -2.07846 L -4.93864 -1.68384 L -4.81403 -1.26662 L -4.71461 -0.83386 L -4.6488 -0.39263 L -4.625 0.05 L -4.64877 0.49159 L -4.71448 0.92997 L -4.81375 1.35841 L -4.93819 1.77022 L -5.0794 2.15869 L -5.12004 2.25605 L -7.5 2.25605 L -7.5 2.75605 Z M -3.93418 3.5 L -3.83544 3.32237 L -3.72697 3.11608 L -3.61225 2.88352 L -3.49477 2.62706 L -3.37804 2.34906 L -3.26554 2.05192 L -3.16076 1.73801 L -3.0672 1.40969 L -2.98835 1.06936 L -2.92771 0.71938 L -2.88876 0.36214 L -2.875 0 L -2.88876 -0.36214 L -2.92771 -0.71938 L -2.98835 -1.06936 L -3.0672 -1.40969 L -3.16076 -1.73801 L -3.26554 -2.05192 L -3.37804 -2.34906 L -3.49477 -2.62706 L -3.61225 -2.88352 L -3.72697 -3.11608 L -3.83544 -3.32237 L -3.93418 -3.5 L -1.875 -3.5 L -1.05783 -3.4373 L -0.30915 -3.26318 L 0.37126 -2.99856 L 0.98363 -2.66439 L 1.52817 -2.28161 L 2.00509 -1.87116 L 2.41462 -1.45398 L 2.75698 -1.05101 L 3.03237 -0.68318 L 3.24103 -0.37145 L 3.38316 -0.13674 L 3.45898 0 L 3.38316 0.13674 L 3.24103 0.37145 L 3.03237 0.68318 L 2.75698 1.05101 L 2.41462 1.45398 L 2.00509 1.87116 L 1.52817 2.28161 L 0.98363 2.66439 L 0.37126 2.99856 L -0.30915 3.26318 L -1.05783 3.4373 L -1.875 3.5 L -3.93418 3.5 Z M -4.60803 -2.26895 L -3.89902 -2.26895 L -3.83146 -2.10199 L -3.76558 -1.9291 L -3.70217 -1.75085 L -3.64204 -1.56781 L -3.58599 -1.38056 L -3.53482 -1.18967 L -3.48932 -0.99571 L -3.4503 -0.79926 L -3.41855 -0.60089 L -3.39489 -0.40118 L -3.38011 -0.20069 L -3.375 0 L -3.38004 0.19939 L -3.39464 0.39857 L -3.41802 0.59699 L -3.44939 0.79409 L -3.48796 0.9893 L -3.53295 1.18208 L -3.58358 1.37185 L -3.63905 1.55806 L -3.69859 1.74014 L -3.76141 1.91754 L -3.82673 2.0897 L -3.89375 2.25605 L -4.57421 2.25605 L -4.45996 1.94089 L -4.32687 1.49549 L -4.2207 1.02767 L -4.15042 0.54373 L -4.125 0.05 L -4.15039 -0.44467 L -4.22057 -0.93119 L -4.3266 -1.40291 L -4.45951 -1.85319 L -4.60803 -2.26895 Z" />
</svg>