<svg version="1.1" xmlns="http://www.w3.org/2000/svg" viewBox="-13.149 -5 26.297 10" fill="black" stroke="none"><path fill-rule="evenodd" d="M 7.427 2.997 L 12.149 2.997 L 12.149 2.188 L 7.434 2.188 L 7.38 2.033 L 7.297 1.869 L 7.195 1.719 L 7.075 1.582 L 6.938 1.462 L 6.787 1.36 L 6.624 1.277 L 6.449 1.216 L 6.266 1.178 L 6.074 1.165 L 5.883 1.178 L 5.699 1.216 L 5.525 1.277 L 5.361 1.36 L 5.21 1.462 L 5.074 1.582 L 4.954 1.719 L 4.852 1.869 L 4.769 2.033 L 4.708 2.208 L 4.67 2.391 L 4.657 2.583 L 4.67 2.774 L 4.708 2.958 L 4.769 3.132 L 4.852 3.296 L 4.954 3.447 L 5.074 3.583 L 5.21 3.703 L 5.361 3.805 L 5.525 3.888 L 5.699 3.949 L 5.883 3.987 L 6.074 4 L 6.266 3.987 L 6.449 3.949 L 6.624 3.888 L 6.787 3.805 L 6.938 3.703 L 7.075 3.583 L 7.195 3.447 L 7.297 3.296 L 7.38 3.132 L 7.427 2.997 Z M 5.467 2.583 L 5.472 2.499 L 5.488 2.42 L 5.514 2.344 L 5.549 2.274 L 5.592 2.209 L 5.643 2.151 L 5.701 2.1 L 5.766 2.057 L 5.836 2.022 L 5.911 1.997 L 5.991 1.981 L 6.074 1.975 L 6.158 1.981 L 6.237 1.997 L 6.313 2.022 L 6.383 2.057 L 6.447 2.1 L 6.506 2.151 L 6.557 2.209 L 6.6 2.274 L 6.635 2.344 L 6.66 2.42 L 6.676 2.499 L 6.682 2.583 L 6.676 2.666 L 6.66 2.746 L 6.635 2.821 L 6.6 2.891 L 6.557 2.956 L 6.506 3.014 L 6.447 3.065 L 6.383 3.108 L 6.313 3.143 L 6.237 3.169 L 6.158 3.185 L 6.074 3.19 L 5.991 3.185 L 5.911 3.169 L 5.836 3.143 L 5.766 3.108 L 5.701 3.065 L 5.643 3.014 L 5.592 2.956 L 5.549 2.891 L 5.514 2.821 L 5.488 2.746 L 5.472 2.666 L 5.467 2.583 Z M -4.688 2.303 L 4.583 -3.307 L 4.164 -4 L -5.069 1.587 L -5.074 1.582 L -5.21 1.462 L -5.361 1.36 L -5.525 1.277 L -5.699 1.216 L -5.883 1.178 L -6.074 1.165 L -6.266 1.178 L -6.449 1.216 L -6.624 1.277 L -6.787 1.36 L -6.938 1.462 L -7.075 1.582 L -7.195 1.719 L -7.297 1.869 L -7.38 2.033 L -7.427 2.168 L -12.149 2.168 L -12.149 2.978 L -7.434 2.978 L -7.38 3.132 L -7.297 3.296 L -7.195 3.447 L -7.075 3.583 L -6.938 3.703 L -6.787 3.805 L -6.624 3.888 L -6.449 3.949 L -6.266 3.987 L -6.074 4 L -5.883 3.987 L -5.699 3.949 L -5.525 3.888 L -5.361 3.805 L -5.21 3.703 L -5.074 3.583 L -4.954 3.447 L -4.852 3.296 L -4.769 3.132 L -4.708 2.958 L -4.67 2.774 L -4.657 2.583 L -4.67 2.391 L -4.688 2.303 Z M -6.682 2.583 L -6.676 2.499 L -6.66 2.42 L -6.635 2.344 L -6.6 2.274 L -6.557 2.209 L -6.506 2.151 L -6.447 2.1 L -6.383 2.057 L -6.313 2.022 L -6.237 1.997 L -6.158 1.981 L -6.074 1.975 L -5.991 1.981 L -5.911 1.997 L -5.836 2.022 L -5.766 2.057 L -5.701 2.1 L -5.643 2.151 L -5.592 2.209 L -5.549 2.274 L -5.514 2.344 L -5.488 2.42 L -5.472 2.499 L -5.467 2.583 L -5.472 2.666 L -5.488 2.746 L -5.514 2.821 L -5.549 2.891 L -5.592 2.956 L -5.643 3.014 L -5.701 3.065 L -5.766 3.108 L -5.836 3.143 L -5.911 3.169 L -5.991 3.185 L -6.074 3.19 L -6.158 3.185 L -6.237 3.169 L -6.313 3.143 L -6.383 3.108 L -6.447 3.065 L -6.506 3.014 L -6.557 2.956 L -6.6 2.891 L -6.635 2.821 L -6.66 2.746 L -6.676 2.666 L -6.682 2.583 Z" /></svg>