<svg version="1.1" xmlns="http://www.w3.org/2000/svg" viewBox="-5.373788918354932 -5.000000941683021 10.747577836709837 10.000001883366043" fill="black" stroke="none">
    <path d="M -4.37379 -3.99994 L -4.37373 -3.99994 L -4.37373 -4 L -4.37379 -4 L -4.37379 -3.99994 Z" />
    <path fill-rule="evenodd" d="M -0.8362 1.61304 L 3.06166 1.61304 L 3.06166 0.5196 L 4.37379 0.5196 L 4.37379 0.22801 L 3.06166 0.22801 L 3.06166 -0.86543 L 1.24503 -0.86543 L 2.10899 -1.8943 L 1.1541 -0.86543 L -3.06163 -0.86543 L -3.06163 -0.71964 L -3.06163 0.22801 L -4.37376 0.22801 L -4.37376 0.5196 L -3.06163 0.5196 L -3.06163 1.61304 L -1.14618 1.61304 L -1.89039 2.4149 L -3.6448 2.4149 L -3.6448 2.70648 L -1.75439 2.70648 L -0.8362 1.61304 Z M 1.00018 -0.57385 L 2.77007 -0.57385 L 2.77007 1.32145 L -0.59135 1.32145 L 1.00018 -0.57385 Z M -0.87556 1.32145 L -2.77004 1.32145 L -2.77004 -0.57385 L 0.88348 -0.57385 L -0.87556 1.32145 Z" />
    <path d="M 2.11925 2.87327 L 2.11925 3.10654 L 1.92447 3.10654 L 1.92447 3.54975 L 1.92428 3.55631 L 1.92413 3.56288 L 1.92401 3.56945 L 1.92392 3.57601 L 1.92388 3.58258 L 1.92386 3.58915 L 1.92389 3.59572 L 1.92394 3.60229 L 1.92404 3.60886 L 1.92417 3.61543 L 1.92433 3.62199 L 1.92453 3.62856 L 1.92477 3.63512 L 1.92504 3.64169 L 1.92535 3.64825 L 1.92569 3.65481 L 1.92607 3.66137 L 1.92649 3.66792 L 1.92694 3.67448 L 1.92742 3.68103 L 1.92795 3.68757 L 1.9285 3.69412 L 1.9291 3.70066 L 1.92972 3.7072 L 1.93025 3.70903 L 1.93083 3.71085 L 1.93146 3.71264 L 1.93214 3.71442 L 1.93287 3.71618 L 1.93366 3.71791 L 1.93449 3.71963 L 1.93537 3.72132 L 1.9363 3.72298 L 1.93727 3.72461 L 1.9383 3.72622 L 1.93936 3.7278 L 1.94048 3.72934 L 1.94163 3.73086 L 1.94283 3.73234 L 1.94407 3.73378 L 1.94536 3.73519 L 1.94668 3.73656 L 1.94804 3.73789 L 1.94944 3.73918 L 1.95087 3.74044 L 1.95234 3.74165 L 1.95385 3.74282 L 1.95538 3.74394 L 1.95713 3.74513 L 1.95891 3.74628 L 1.96072 3.74738 L 1.96256 3.74843 L 1.96443 3.74944 L 1.96632 3.75039 L 1.96823 3.75129 L 1.97017 3.75215 L 1.97213 3.75295 L 1.97411 3.7537 L 1.97611 3.75439 L 1.97813 3.75504 L 1.98017 3.75563 L 1.98221 3.75617 L 1.98428 3.75665 L 1.98635 3.75708 L 1.98844 3.75745 L 1.99053 3.75777 L 1.99263 3.75803 L 1.99474 3.75824 L 1.99685 3.7584 L 1.99897 3.75849 L 2.00108 3.75853 L 2.0032 3.75852 L 2.0093 3.75791 L 2.0154 3.75723 L 2.02148 3.75648 L 2.02756 3.75566 L 2.03362 3.75478 L 2.03968 3.75383 L 2.04572 3.75281 L 2.05176 3.75172 L 2.05778 3.75057 L 2.06379 3.74935 L 2.06978 3.74806 L 2.07576 3.7467 L 2.08172 3.74528 L 2.08767 3.74379 L 2.0936 3.74223 L 2.09951 3.74061 L 2.1054 3.73892 L 2.11128 3.73717 L 2.11713 3.73535 L 2.12297 3.73347 L 2.12878 3.73152 L 2.13457 3.7295 L 2.14034 3.72742 L 2.14608 3.72528 L 2.14608 3.95155 L 2.13705 3.95542 L 2.12795 3.95914 L 2.11879 3.9627 L 2.10956 3.9661 L 2.10029 3.96935 L 2.09095 3.97243 L 2.08157 3.97536 L 2.07214 3.97812 L 2.06266 3.98073 L 2.05314 3.98317 L 2.04358 3.98544 L 2.03398 3.98756 L 2.02435 3.98951 L 2.01468 3.99129 L 2.00499 3.99291 L 1.99526 3.99436 L 1.98552 3.99564 L 1.97576 3.99676 L 1.96597 3.99771 L 1.95617 3.9985 L 1.94637 3.99911 L 1.93655 3.99956 L 1.92672 3.99984 L 1.91689 3.99995 L 1.91096 4 L 1.90503 3.99995 L 1.8991 3.99979 L 1.89317 3.99953 L 1.88725 3.99916 L 1.88134 3.9987 L 1.87543 3.99813 L 1.86954 3.99746 L 1.86365 3.99669 L 1.85779 3.99582 L 1.85193 3.99484 L 1.8461 3.99377 L 1.84028 3.99259 L 1.83449 3.99132 L 1.82872 3.98994 L 1.82297 3.98846 L 1.81725 3.98689 L 1.81156 3.98521 L 1.8059 3.98344 L 1.80027 3.98157 L 1.79467 3.9796 L 1.78911 3.97754 L 1.78359 3.97538 L 1.7781 3.97313 L 1.77362 3.97139 L 1.76918 3.96955 L 1.76479 3.9676 L 1.76045 3.96555 L 1.75616 3.9634 L 1.75192 3.96114 L 1.74773 3.95879 L 1.7436 3.95633 L 1.73953 3.95378 L 1.73553 3.95113 L 1.73158 3.94839 L 1.72771 3.94555 L 1.7239 3.94263 L 1.72016 3.93961 L 1.7165 3.9365 L 1.71291 3.93331 L 1.70939 3.93003 L 1.70596 3.92668 L 1.70261 3.92324 L 1.69934 3.91972 L 1.69615 3.91612 L 1.69306 3.91245 L 1.69005 3.90871 L 1.68712 3.9049 L 1.68447 3.90058 L 1.6819 3.89621 L 1.67941 3.8918 L 1.677 3.88735 L 1.67467 3.88285 L 1.67242 3.8783 L 1.67026 3.87372 L 1.66818 3.8691 L 1.66619 3.86444 L 1.66428 3.85975 L 1.66246 3.85502 L 1.66073 3.85026 L 1.65908 3.84547 L 1.65752 3.84065 L 1.65605 3.8358 L 1.65467 3.83092 L 1.65338 3.82602 L 1.65218 3.8211 L 1.65107 3.81616 L 1.65005 3.81119 L 1.64912 3.80621 L 1.64828 3.80121 L 1.64754 3.7962 L 1.64689 3.79118 L 1.64596 3.78268 L 1.64509 3.77419 L 1.64426 3.76568 L 1.64348 3.75717 L 1.64275 3.74866 L 1.64207 3.74015 L 1.64144 3.73163 L 1.64086 3.7231 L 1.64032 3.71458 L 1.63984 3.70605 L 1.6394 3.69752 L 1.63901 3.68898 L 1.63867 3.68044 L 1.63838 3.67191 L 1.63813 3.66337 L 1.63794 3.65483 L 1.63779 3.64628 L 1.6377 3.63774 L 1.63765 3.6292 L 1.63765 3.62065 L 1.6377 3.61211 L 1.6378 3.60357 L 1.63794 3.59503 L 1.63814 3.58648 L 1.63814 3.10654 L 1.44511 3.10654 L 1.44511 2.87327 L 1.63814 2.87327 L 1.63814 2.46505 L 1.92447 2.46505 L 1.92447 2.87327 L 2.11925 2.87327 Z" />
    <path fill-rule="evenodd" d="M 2.25513 2.50704 L 2.25516 2.49626 L 2.25555 2.48548 L 2.25629 2.47472 L 2.2574 2.464 L 2.25886 2.45332 L 2.26068 2.44269 L 2.26286 2.43213 L 2.26538 2.42165 L 2.26826 2.41126 L 2.27148 2.40097 L 2.27504 2.39079 L 2.27894 2.38074 L 2.28318 2.37082 L 2.28774 2.36106 L 2.29263 2.35145 L 2.29784 2.342 L 2.30336 2.33274 L 2.30918 2.32367 L 2.31531 2.3148 L 2.32173 2.30613 L 2.32843 2.29769 L 2.33542 2.28948 L 2.34267 2.2815 L 2.35019 2.27377 L 2.35767 2.26619 L 2.36542 2.25887 L 2.3734 2.25182 L 2.38163 2.24505 L 2.39008 2.23856 L 2.39875 2.23237 L 2.40763 2.22647 L 2.4167 2.22089 L 2.42596 2.21562 L 2.43539 2.21067 L 2.44499 2.20604 L 2.45474 2.20175 L 2.46464 2.1978 L 2.47466 2.19418 L 2.4848 2.19091 L 2.49505 2.18799 L 2.50539 2.18543 L 2.51581 2.18322 L 2.5263 2.18137 L 2.53685 2.17988 L 2.54745 2.17875 L 2.55807 2.17798 L 2.56872 2.17758 L 2.57937 2.17755 L 2.59002 2.17757 L 2.60066 2.17796 L 2.61128 2.17872 L 2.62187 2.17985 L 2.63241 2.18134 L 2.6429 2.1832 L 2.65331 2.18542 L 2.66364 2.188 L 2.67388 2.19093 L 2.684 2.19422 L 2.69401 2.19786 L 2.70389 2.20184 L 2.71362 2.20616 L 2.72319 2.21082 L 2.7326 2.2158 L 2.74183 2.22111 L 2.75087 2.22673 L 2.75971 2.23267 L 2.76834 2.2389 L 2.77675 2.24544 L 2.78493 2.25225 L 2.79287 2.25935 L 2.80055 2.26672 L 2.80798 2.27435 L 2.82246 2.29025 L 2.83589 2.30704 L 2.84822 2.32466 L 2.85939 2.34304 L 2.86935 2.36209 L 2.87807 2.38175 L 2.88551 2.40192 L 2.89165 2.42253 L 2.89644 2.4435 L 2.89988 2.46472 L 2.90195 2.48613 L 2.90264 2.50762 L 2.90195 2.52911 L 2.89988 2.55052 L 2.89644 2.57174 L 2.89165 2.59271 L 2.88551 2.61332 L 2.87807 2.63349 L 2.86935 2.65315 L 2.85939 2.6722 L 2.84822 2.69058 L 2.83589 2.7082 L 2.82246 2.72499 L 2.80798 2.74089 L 2.7927 2.75572 L 2.77646 2.76949 L 2.75934 2.78215 L 2.74141 2.79363 L 2.72275 2.80389 L 2.70345 2.81287 L 2.68358 2.82054 L 2.66325 2.82687 L 2.64254 2.83181 L 2.62155 2.83536 L 2.60036 2.8375 L 2.57908 2.83821 L 2.5578 2.8375 L 2.53662 2.83536 L 2.51562 2.83181 L 2.49491 2.82687 L 2.47458 2.82054 L 2.45472 2.81287 L 2.43542 2.80389 L 2.41676 2.79363 L 2.39882 2.78215 L 2.3817 2.76949 L 2.36547 2.75572 L 2.35019 2.74089 L 2.34265 2.73315 L 2.33537 2.72516 L 2.32837 2.71692 L 2.32164 2.70846 L 2.31521 2.69978 L 2.30907 2.69089 L 2.30323 2.68179 L 2.2977 2.67251 L 2.29248 2.66304 L 2.28759 2.65341 L 2.28302 2.64361 L 2.27878 2.63367 L 2.27488 2.62359 L 2.27132 2.61339 L 2.2681 2.60307 L 2.26524 2.59265 L 2.26272 2.58214 L 2.26056 2.57155 L 2.25875 2.56089 L 2.25731 2.55018 L 2.25622 2.53943 L 2.25549 2.52865 L 2.25513 2.51785 L 2.25513 2.50704 Z M 2.42367 2.50704 L 2.42368 2.51222 L 2.42387 2.5174 L 2.42424 2.52257 L 2.42478 2.52773 L 2.42549 2.53287 L 2.42637 2.53798 L 2.42743 2.54305 L 2.42866 2.54809 L 2.43005 2.55308 L 2.43161 2.55803 L 2.43334 2.56291 L 2.43523 2.56774 L 2.43729 2.5725 L 2.4395 2.57719 L 2.44187 2.5818 L 2.44439 2.58633 L 2.44707 2.59077 L 2.44989 2.59512 L 2.45285 2.59937 L 2.45596 2.60352 L 2.45921 2.60757 L 2.46259 2.6115 L 2.4661 2.61531 L 2.46974 2.61901 L 2.47709 2.62604 L 2.4849 2.63257 L 2.49312 2.63857 L 2.50172 2.64401 L 2.51066 2.64887 L 2.5199 2.65313 L 2.52941 2.65676 L 2.53914 2.65975 L 2.54904 2.6621 L 2.55908 2.66378 L 2.5692 2.66479 L 2.57937 2.66513 L 2.58955 2.66479 L 2.59967 2.66378 L 2.60971 2.6621 L 2.61961 2.65975 L 2.62934 2.65676 L 2.63885 2.65313 L 2.64809 2.64887 L 2.65703 2.64401 L 2.66563 2.63857 L 2.67385 2.63257 L 2.68166 2.62604 L 2.68901 2.61901 L 2.6926 2.61529 L 2.69607 2.61145 L 2.69941 2.6075 L 2.70261 2.60344 L 2.70568 2.59928 L 2.7086 2.59501 L 2.71139 2.59065 L 2.71403 2.58621 L 2.71652 2.58167 L 2.71885 2.57706 L 2.72103 2.57237 L 2.72306 2.56762 L 2.72493 2.56279 L 2.72663 2.55791 L 2.72817 2.55297 L 2.72955 2.54799 L 2.73076 2.54296 L 2.73181 2.5379 L 2.73268 2.5328 L 2.73339 2.52768 L 2.73392 2.52253 L 2.73429 2.51738 L 2.73448 2.51221 L 2.7345 2.50704 L 2.7345 2.50186 L 2.73433 2.49669 L 2.73399 2.49153 L 2.73347 2.48638 L 2.73278 2.48125 L 2.73192 2.47615 L 2.73088 2.47108 L 2.72968 2.46605 L 2.72831 2.46106 L 2.72677 2.45612 L 2.72507 2.45123 L 2.7232 2.4464 L 2.72117 2.44164 L 2.71899 2.43695 L 2.71664 2.43234 L 2.71415 2.42781 L 2.7115 2.42336 L 2.7087 2.41901 L 2.70576 2.41475 L 2.70268 2.41059 L 2.69946 2.40654 L 2.69611 2.4026 L 2.69262 2.39878 L 2.68901 2.39507 L 2.68169 2.38796 L 2.67392 2.38136 L 2.66572 2.3753 L 2.65713 2.3698 L 2.64819 2.36489 L 2.63894 2.36058 L 2.62943 2.35691 L 2.61969 2.35388 L 2.60977 2.35151 L 2.59972 2.34981 L 2.58957 2.34878 L 2.57937 2.34844 L 2.56918 2.34878 L 2.55903 2.34981 L 2.54898 2.35151 L 2.53906 2.35388 L 2.52932 2.35691 L 2.5198 2.36058 L 2.51056 2.36489 L 2.50162 2.3698 L 2.49303 2.3753 L 2.48483 2.38136 L 2.47706 2.38796 L 2.46974 2.39507 L 2.46608 2.39875 L 2.46255 2.40255 L 2.45915 2.40647 L 2.45589 2.41051 L 2.45277 2.41465 L 2.44979 2.41889 L 2.44695 2.42324 L 2.44427 2.42768 L 2.44174 2.43221 L 2.43936 2.43682 L 2.43715 2.44151 L 2.43509 2.44628 L 2.4332 2.45111 L 2.43147 2.456 L 2.42991 2.46095 L 2.42852 2.46595 L 2.42731 2.47099 L 2.42626 2.47607 L 2.42539 2.48118 L 2.42469 2.48633 L 2.42417 2.49149 L 2.42383 2.49666 L 2.42366 2.50185 L 2.42367 2.50704 Z" />
</svg>