<svg version="1.1" xmlns="http://www.w3.org/2000/svg" viewBox="-6.142 -5 12.283 10" fill="black" stroke="none"><path fill-rule="evenodd" d="M -0.171 1.763 L -0.171 1.934 L 0.171 1.934 L 0.171 1.763 L -0.171 1.763 Z M -1.981 3.298 L 2.634 1.46 L 2.507 1.141 L -2.136 2.99 L -2.147 2.977 L -2.205 2.926 L -2.269 2.883 L -2.338 2.848 L -2.412 2.822 L -2.49 2.806 L -2.571 2.8 L -2.652 2.806 L -2.73 2.822 L -2.803 2.848 L -2.873 2.883 L -2.936 2.926 L -2.994 2.977 L -3.045 3.034 L -3.088 3.098 L -3.123 3.168 L -3.143 3.224 L -5.142 3.224 L -5.142 3.567 L -3.146 3.567 L -3.123 3.633 L -3.088 3.702 L -3.045 3.766 L -2.994 3.824 L -2.936 3.874 L -2.873 3.918 L -2.803 3.953 L -2.73 3.978 L -2.652 3.994 L -2.571 4 L -2.49 3.994 L -2.412 3.978 L -2.338 3.953 L -2.269 3.918 L -2.205 3.874 L -2.147 3.824 L -2.097 3.766 L -2.053 3.702 L -2.018 3.633 L -1.992 3.559 L -1.976 3.481 L -1.971 3.4 L -1.976 3.319 L -1.981 3.298 Z M -2.828 3.4 L -2.826 3.365 L -2.819 3.331 L -2.808 3.299 L -2.793 3.269 L -2.775 3.242 L -2.753 3.218 L -2.729 3.196 L -2.701 3.178 L -2.672 3.163 L -2.64 3.152 L -2.606 3.145 L -2.571 3.143 L -2.535 3.145 L -2.502 3.152 L -2.47 3.163 L -2.44 3.178 L -2.413 3.196 L -2.388 3.218 L -2.367 3.242 L -2.348 3.269 L -2.334 3.299 L -2.323 3.331 L -2.316 3.365 L -2.314 3.4 L -2.316 3.435 L -2.323 3.469 L -2.334 3.501 L -2.348 3.531 L -2.367 3.558 L -2.388 3.583 L -2.413 3.604 L -2.44 3.623 L -2.47 3.637 L -2.502 3.648 L -2.535 3.655 L -2.571 3.657 L -2.606 3.655 L -2.64 3.648 L -2.672 3.637 L -2.701 3.623 L -2.729 3.604 L -2.753 3.583 L -2.775 3.558 L -2.793 3.531 L -2.808 3.501 L -2.819 3.469 L -2.826 3.435 L -2.828 3.4 Z M 3.143 3.576 L 5.142 3.576 L 5.142 3.233 L 3.146 3.233 L 3.123 3.168 L 3.088 3.098 L 3.045 3.034 L 2.994 2.977 L 2.936 2.926 L 2.873 2.883 L 2.803 2.848 L 2.73 2.822 L 2.652 2.806 L 2.571 2.8 L 2.49 2.806 L 2.412 2.822 L 2.338 2.848 L 2.269 2.883 L 2.205 2.926 L 2.147 2.977 L 2.097 3.034 L 2.053 3.098 L 2.018 3.168 L 1.992 3.241 L 1.976 3.319 L 1.971 3.4 L 1.976 3.481 L 1.992 3.559 L 2.018 3.633 L 2.053 3.702 L 2.097 3.766 L 2.147 3.824 L 2.205 3.874 L 2.269 3.918 L 2.338 3.953 L 2.412 3.978 L 2.49 3.994 L 2.571 4 L 2.652 3.994 L 2.73 3.978 L 2.803 3.953 L 2.873 3.918 L 2.936 3.874 L 2.994 3.824 L 3.045 3.766 L 3.088 3.702 L 3.123 3.633 L 3.143 3.576 Z M 2.314 3.4 L 2.316 3.365 L 2.323 3.331 L 2.334 3.299 L 2.348 3.269 L 2.367 3.242 L 2.388 3.218 L 2.413 3.196 L 2.44 3.178 L 2.47 3.163 L 2.502 3.152 L 2.535 3.145 L 2.571 3.143 L 2.606 3.145 L 2.64 3.152 L 2.672 3.163 L 2.701 3.178 L 2.729 3.196 L 2.753 3.218 L 2.775 3.242 L 2.793 3.269 L 2.808 3.299 L 2.819 3.331 L 2.826 3.365 L 2.828 3.4 L 2.826 3.435 L 2.819 3.469 L 2.808 3.501 L 2.793 3.531 L 2.775 3.558 L 2.753 3.583 L 2.729 3.604 L 2.701 3.623 L 2.672 3.637 L 2.64 3.648 L 2.606 3.655 L 2.571 3.657 L 2.535 3.655 L 2.502 3.648 L 2.47 3.637 L 2.44 3.623 L 2.413 3.604 L 2.388 3.583 L 2.367 3.558 L 2.348 3.531 L 2.334 3.501 L 2.323 3.469 L 2.316 3.435 L 2.314 3.4 Z M -0.171 1.403 L 0.171 1.403 L 0.171 1.047 L -0.171 1.047 L -0.171 1.403 Z M 3.143 -1.532 L 5.142 -1.532 L 5.142 -1.874 L 3.146 -1.874 L 3.123 -1.94 L 3.088 -2.009 L 3.045 -2.073 L 2.994 -2.13 L 2.936 -2.181 L 2.873 -2.225 L 2.803 -2.259 L 2.73 -2.285 L 2.652 -2.301 L 2.571 -2.307 L 2.49 -2.301 L 2.412 -2.285 L 2.338 -2.259 L 2.269 -2.225 L 2.205 -2.181 L 2.147 -2.13 L 2.097 -2.073 L 2.053 -2.009 L 2.018 -1.94 L 1.992 -1.866 L 1.976 -1.788 L 1.971 -1.707 L 1.976 -1.626 L 1.992 -1.548 L 2.018 -1.474 L 2.053 -1.405 L 2.097 -1.341 L 2.147 -1.284 L 2.205 -1.233 L 2.269 -1.19 L 2.338 -1.155 L 2.412 -1.129 L 2.49 -1.113 L 2.571 -1.107 L 2.652 -1.113 L 2.73 -1.129 L 2.803 -1.155 L 2.873 -1.19 L 2.936 -1.233 L 2.994 -1.284 L 3.045 -1.341 L 3.088 -1.405 L 3.123 -1.474 L 3.143 -1.532 Z M 2.314 -1.707 L 2.316 -1.742 L 2.323 -1.776 L 2.334 -1.808 L 2.348 -1.838 L 2.367 -1.865 L 2.388 -1.89 L 2.413 -1.911 L 2.44 -1.929 L 2.47 -1.944 L 2.502 -1.955 L 2.535 -1.962 L 2.571 -1.964 L 2.606 -1.962 L 2.64 -1.955 L 2.672 -1.944 L 2.701 -1.929 L 2.729 -1.911 L 2.753 -1.89 L 2.775 -1.865 L 2.793 -1.838 L 2.808 -1.808 L 2.819 -1.776 L 2.826 -1.742 L 2.828 -1.707 L 2.826 -1.672 L 2.819 -1.638 L 2.808 -1.606 L 2.793 -1.576 L 2.775 -1.549 L 2.753 -1.525 L 2.729 -1.503 L 2.701 -1.485 L 2.672 -1.47 L 2.64 -1.459 L 2.606 -1.452 L 2.571 -1.45 L 2.535 -1.452 L 2.502 -1.459 L 2.47 -1.47 L 2.44 -1.485 L 2.413 -1.503 L 2.388 -1.525 L 2.367 -1.549 L 2.348 -1.576 L 2.334 -1.606 L 2.323 -1.638 L 2.316 -1.672 L 2.314 -1.707 Z M -1.981 -1.81 L 2.635 -3.682 L 2.506 -4 L -2.136 -2.118 L -2.147 -2.13 L -2.205 -2.181 L -2.269 -2.225 L -2.338 -2.259 L -2.412 -2.285 L -2.49 -2.301 L -2.571 -2.307 L -2.652 -2.301 L -2.73 -2.285 L -2.803 -2.259 L -2.873 -2.225 L -2.936 -2.181 L -2.994 -2.13 L -3.045 -2.073 L -3.088 -2.009 L -3.123 -1.94 L -3.143 -1.883 L -5.142 -1.883 L -5.142 -1.541 L -3.146 -1.541 L -3.123 -1.474 L -3.088 -1.405 L -3.045 -1.341 L -2.994 -1.284 L -2.936 -1.233 L -2.873 -1.19 L -2.803 -1.155 L -2.73 -1.129 L -2.652 -1.113 L -2.571 -1.107 L -2.49 -1.113 L -2.412 -1.129 L -2.338 -1.155 L -2.269 -1.19 L -2.205 -1.233 L -2.147 -1.284 L -2.097 -1.341 L -2.053 -1.405 L -2.018 -1.474 L -1.992 -1.548 L -1.976 -1.626 L -1.971 -1.707 L -1.976 -1.788 L -1.981 -1.81 Z M -2.828 -1.707 L -2.826 -1.742 L -2.819 -1.776 L -2.808 -1.808 L -2.793 -1.838 L -2.775 -1.865 L -2.753 -1.89 L -2.729 -1.911 L -2.701 -1.929 L -2.672 -1.944 L -2.64 -1.955 L -2.606 -1.962 L -2.571 -1.964 L -2.535 -1.962 L -2.502 -1.955 L -2.47 -1.944 L -2.44 -1.929 L -2.413 -1.911 L -2.388 -1.89 L -2.367 -1.865 L -2.348 -1.838 L -2.334 -1.808 L -2.323 -1.776 L -2.316 -1.742 L -2.314 -1.707 L -2.316 -1.672 L -2.323 -1.638 L -2.334 -1.606 L -2.348 -1.576 L -2.367 -1.549 L -2.388 -1.525 L -2.413 -1.503 L -2.44 -1.485 L -2.47 -1.47 L -2.502 -1.459 L -2.535 -1.452 L -2.571 -1.45 L -2.606 -1.452 L -2.64 -1.459 L -2.672 -1.47 L -2.701 -1.485 L -2.729 -1.503 L -2.753 -1.525 L -2.775 -1.549 L -2.793 -1.576 L -2.808 -1.606 L -2.819 -1.638 L -2.826 -1.672 L -2.828 -1.707 Z M -0.171 -2.333 L -0.171 -2.162 L 0.171 -2.162 L 0.171 -2.333 L -0.171 -2.333 Z M -0.171 -1.449 L 0.171 -1.449 L 0.171 -1.805 L -0.171 -1.805 L -0.171 -1.449 Z M -0.171 -0.736 L 0.171 -0.736 L 0.171 -1.092 L -0.171 -1.092 L -0.171 -0.736 Z M -0.171 -0.023 L 0.171 -0.023 L 0.171 -0.379 L -0.171 -0.379 L -0.171 -0.023 Z M -0.171 0.69 L 0.171 0.69 L 0.171 0.334 L -0.171 0.334 L -0.171 0.69 Z" /></svg>