<svg version="1.1" xmlns="http://www.w3.org/2000/svg" viewBox="-15.118 -5 30.235 10" fill="black" stroke="none"><path fill-rule="evenodd" d="M -9.882 -0.587 L -14.118 -0.587 L -14.118 0.354 L -9.882 0.354 L -9.882 4 L 9.882 4 L 9.882 0.471 L 14.118 0.471 L 14.118 -0.471 L 9.882 -0.471 L 9.882 -4 L -9.882 -4 L -9.882 -0.587 Z M -8.941 -0.587 L -8.941 -3.059 L 7.059 -3.059 L 7.059 -0.471 L 3.059 -0.471 L 3.059 1.318 L 0.471 1.318 L 0.471 -2.259 L -4 -2.259 L -4 -0.587 L -8.941 -0.587 Z M 7.059 0.471 L 7.059 3.059 L -8.941 3.059 L -8.941 0.354 L -3.059 0.354 L -3.059 -1.318 L -0.471 -1.318 L -0.471 2.259 L 4 2.259 L 4 0.471 L 7.059 0.471 Z" /></svg>