<svg version="1.1" xmlns="http://www.w3.org/2000/svg" viewBox="-8.5 -5 17 10" fill="black" stroke="none"><path fill-rule="evenodd" d="M -7.5 2.756 L -4.124 2.756 L -4.184 2.877 L -4.242 2.991 L -4.298 3.098 L -4.35 3.197 L -4.399 3.288 L -4.444 3.369 L -4.484 3.44 L -4.518 3.499 L -4.545 3.547 L -4.566 3.582 L -4.579 3.604 L -4.583 3.611 L -4.842 4 L -1.875 4 L -0.99 3.934 L -0.18 3.75 L 0.555 3.469 L 1.215 3.115 L 1.802 2.709 L 2.315 2.273 L 2.756 1.828 L 3.125 1.397 L 3.422 1.002 L 3.648 0.664 L 3.805 0.406 L 3.891 0.25 L 7.5 0.25 L 7.5 -0.25 L 3.891 -0.25 L 3.805 -0.406 L 3.648 -0.664 L 3.422 -1.002 L 3.125 -1.397 L 2.756 -1.828 L 2.315 -2.273 L 1.802 -2.709 L 1.215 -3.115 L 0.555 -3.469 L -0.18 -3.75 L -0.99 -3.934 L -1.875 -4 L -4.842 -4 L -4.583 -3.611 L -4.579 -3.604 L -4.566 -3.583 L -4.546 -3.548 L -4.519 -3.501 L -4.485 -3.442 L -4.446 -3.372 L -4.402 -3.292 L -4.354 -3.203 L -4.302 -3.105 L -4.247 -3 L -4.19 -2.888 L -4.13 -2.769 L -7.5 -2.769 L -7.5 -2.269 L -3.899 -2.269 L -3.831 -2.102 L -3.766 -1.929 L -3.702 -1.751 L -3.642 -1.568 L -3.586 -1.381 L -3.535 -1.19 L -3.489 -0.996 L -3.45 -0.799 L -3.419 -0.601 L -3.395 -0.401 L -3.38 -0.201 L -3.375 0 L -3.38 0.199 L -3.395 0.399 L -3.418 0.597 L -3.449 0.794 L -3.488 0.989 L -3.533 1.182 L -3.584 1.372 L -3.639 1.558 L -3.699 1.74 L -3.761 1.918 L -3.827 2.09 L -3.894 2.256 L -7.5 2.256 L -7.5 2.756 Z M -3.934 3.5 L -3.835 3.322 L -3.727 3.116 L -3.612 2.884 L -3.495 2.627 L -3.378 2.349 L -3.266 2.052 L -3.161 1.738 L -3.067 1.41 L -2.988 1.069 L -2.928 0.719 L -2.889 0.362 L -2.875 0 L -2.889 -0.362 L -2.928 -0.719 L -2.988 -1.069 L -3.067 -1.41 L -3.161 -1.738 L -3.266 -2.052 L -3.378 -2.349 L -3.495 -2.627 L -3.612 -2.884 L -3.727 -3.116 L -3.835 -3.322 L -3.934 -3.5 L -1.875 -3.5 L -1.058 -3.437 L -0.309 -3.263 L 0.371 -2.999 L 0.984 -2.664 L 1.528 -2.282 L 2.005 -1.871 L 2.415 -1.454 L 2.757 -1.051 L 3.032 -0.683 L 3.241 -0.371 L 3.383 -0.137 L 3.459 0 L 3.383 0.137 L 3.241 0.371 L 3.032 0.683 L 2.757 1.051 L 2.415 1.454 L 2.005 1.871 L 1.528 2.282 L 0.984 2.664 L 0.371 2.999 L -0.309 3.263 L -1.058 3.437 L -1.875 3.5 L -3.934 3.5 Z" /></svg>