<svg version="1.1" xmlns="http://www.w3.org/2000/svg" viewBox="-9.537 -5 19.073 10" fill="black" stroke="none"><path fill-rule="evenodd" d="M 3.557 -2.293 L 4.695 -2.293 L 4.695 -1.154 L 5.264 -1.154 L 5.264 -2.293 L 6.402 -2.293 L 6.402 -2.862 L 5.264 -2.862 L 5.264 -4 L 4.695 -4 L 4.695 -2.862 L 3.557 -2.862 L 3.557 -2.293 Z M 0.797 3.797 L 1.366 3.797 L 1.366 0.55 L 8.537 0.55 L 8.537 -0.02 L 1.366 -0.02 L 1.366 -3.26 L 0.797 -3.26 L 0.797 3.797 Z M -8.537 0.581 L -1.277 0.581 L -1.33 1.024 L -1.419 1.438 L -1.537 1.822 L -1.675 2.174 L -1.826 2.491 L -1.982 2.772 L -2.135 3.015 L -2.278 3.218 L -2.403 3.38 L -2.501 3.497 L -2.566 3.569 L -2.589 3.594 L -2.191 4 L -2.161 3.97 L -2.079 3.881 L -1.955 3.735 L -1.8 3.535 L -1.624 3.283 L -1.437 2.982 L -1.25 2.634 L -1.074 2.241 L -0.919 1.805 L -0.795 1.33 L -0.713 0.817 L -0.683 0.268 L -0.713 -0.28 L -0.795 -0.793 L -0.919 -1.268 L -1.074 -1.704 L -1.25 -2.097 L -1.437 -2.445 L -1.624 -2.746 L -1.8 -2.998 L -1.955 -3.198 L -2.079 -3.344 L -2.161 -3.433 L -2.191 -3.463 L -2.589 -3.057 L -2.566 -3.032 L -2.499 -2.959 L -2.399 -2.839 L -2.272 -2.674 L -2.127 -2.467 L -1.972 -2.219 L -1.814 -1.933 L -1.662 -1.609 L -1.524 -1.251 L -1.408 -0.86 L -1.321 -0.439 L -1.272 0.012 L -8.537 0.012 L -8.537 0.581 Z" /></svg>