<svg version="1.1" xmlns="http://www.w3.org/2000/svg" viewBox="-6.71428660544218 -5.000000923809526 13.42857321088436 10.000001847619052" fill="black" stroke="none">
    <path fill-rule="evenodd" d="M -3.98716 0.19048 L -3.96344 0.5423 L -3.85696 1.06257 L -3.68534 1.55603 L -3.45338 2.01787 L -3.16586 2.44332 L -2.82758 2.82758 L -2.44332 3.16586 L -2.01787 3.45338 L -1.55603 3.68534 L -1.06257 3.85696 L -0.5423 3.96344 L 0 4 L 0.5423 3.96344 L 1.06257 3.85696 L 1.55603 3.68534 L 2.01787 3.45338 L 2.44332 3.16586 L 2.82758 2.82758 L 3.16586 2.44332 L 3.45338 2.01787 L 3.68534 1.55603 L 3.85696 1.06257 L 3.96344 0.5423 L 3.98716 0.19048 L 5.71429 0.19048 L 5.71429 -0.19048 L 3.98716 -0.19048 L 3.96344 -0.5423 L 3.85696 -1.06257 L 3.68534 -1.55603 L 3.45338 -2.01787 L 3.16586 -2.44332 L 2.82758 -2.82758 L 2.44332 -3.16586 L 2.01787 -3.45338 L 1.55603 -3.68534 L 1.06257 -3.85696 L 0.5423 -3.96344 L 0 -4 L -0.5423 -3.96344 L -1.06257 -3.85696 L -1.55603 -3.68534 L -2.01787 -3.45338 L -2.44332 -3.16586 L -2.82758 -2.82758 L -3.16586 -2.44332 L -3.45338 -2.01787 L -3.68534 -1.55603 L -3.85696 -1.06257 L -3.96344 -0.5423 L -3.98716 -0.19048 L -5.71429 -0.19048 L -5.71429 0.19048 L -3.98716 0.19048 Z M 0 -3.61905 L 0.49156 -3.58605 L 0.96287 -3.48993 L 1.40965 -3.33496 L 1.8276 -3.12544 L 2.21245 -2.86566 L 2.5599 -2.5599 L 2.86566 -2.21245 L 3.12544 -1.8276 L 3.33496 -1.40965 L 3.48993 -0.96287 L 3.58605 -0.49156 L 3.61905 0 L 3.58605 0.49156 L 3.48993 0.96287 L 3.33496 1.40965 L 3.12544 1.8276 L 2.86566 2.21245 L 2.5599 2.5599 L 2.21245 2.86566 L 1.8276 3.12544 L 1.40965 3.33496 L 0.96287 3.48993 L 0.49156 3.58605 L 0 3.61905 L -0.49156 3.58605 L -0.96287 3.48993 L -1.40965 3.33496 L -1.8276 3.12544 L -2.21245 2.86566 L -2.5599 2.5599 L -2.86566 2.21245 L -3.12544 1.8276 L -3.33496 1.40965 L -3.48993 0.96287 L -3.58605 0.49156 L -3.61905 0 L -3.58605 -0.49156 L -3.48993 -0.96287 L -3.33496 -1.40965 L -3.12544 -1.8276 L -2.86566 -2.21245 L -2.5599 -2.5599 L -2.21245 -2.86566 L -1.8276 -3.12544 L -1.40965 -3.33496 L -0.96287 -3.48993 L -0.49156 -3.58605 L 0 -3.61905 Z" />
    <path d="M -1.20908 -1.35238 L -1.52428 -1.32662 L -1.80746 -1.25539 L -2.05951 -1.14779 L -2.28129 -1.01291 L -2.47369 -0.85985 L -2.63758 -0.69769 L -2.77385 -0.53554 L -2.88338 -0.38247 L -2.96703 -0.2476 L -3.0257 -0.14 L -3.06025 -0.06877 L -3.07158 -0.04301 L -2.7189 0.10089 L -2.7097 0.07979 L -2.68164 0.02146 L -2.63402 -0.06666 L -2.56613 -0.17712 L -2.47726 -0.30247 L -2.36673 -0.43527 L -2.23382 -0.56807 L -2.07784 -0.69342 L -1.89807 -0.80388 L -1.69383 -0.892 L -1.4644 -0.95033 L -1.20908 -0.97143 L -1.15194 -0.96946 L -1.09924 -0.96356 L -1.05054 -0.95373 L -1.00541 -0.93996 L -0.96342 -0.92225 L -0.92413 -0.90062 L -0.88711 -0.87505 L -0.85193 -0.84555 L -0.81814 -0.81212 L -0.78532 -0.77476 L -0.75303 -0.73347 L -0.72083 -0.68824 L -0.68901 -0.63913 L -0.65805 -0.58635 L -0.62779 -0.53019 L -0.5981 -0.47091 L -0.56883 -0.40881 L -0.53985 -0.34415 L -0.51101 -0.27722 L -0.48217 -0.20829 L -0.45319 -0.13764 L -0.42393 -0.06555 L -0.39424 0.0077 L -0.36399 0.08185 L -0.33296 0.15665 L -0.30087 0.2319 L -0.26742 0.30731 L -0.23236 0.38259 L -0.1954 0.45747 L -0.15626 0.53165 L -0.11467 0.60486 L -0.07035 0.67682 L -0.02303 0.74724 L 0.02757 0.81583 L 0.08174 0.88233 L 0.13973 0.94643 L 0.20199 1.00757 L 0.26876 1.06515 L 0.34007 1.11883 L 0.41596 1.16828 L 0.49644 1.21317 L 0.58155 1.25315 L 0.67132 1.2879 L 0.76577 1.31708 L 0.86492 1.34036 L 0.96882 1.3574 L 1.07747 1.36786 L 1.19092 1.37143 L 1.40317 1.36496 L 1.59939 1.34623 L 1.78008 1.31628 L 1.94575 1.27615 L 2.0969 1.22687 L 2.23403 1.16947 L 2.35764 1.10499 L 2.46825 1.03447 L 2.56634 0.95894 L 2.65244 0.87944 L 2.72703 0.797 L 2.79062 0.71265 L 2.84389 0.62766 L 2.88775 0.54342 L 2.92313 0.46122 L 2.95092 0.3823 L 2.97204 0.30793 L 2.9874 0.23939 L 2.9979 0.17792 L 3.00445 0.12479 L 3.00797 0.08127 L 3.00936 0.04862 L 3.00952 0.0281 L 3.00938 0.02098 L 2.62872 0.0369 L 2.62882 0.04145 L 2.62869 0.0546 L 2.62771 0.07561 L 2.62525 0.10375 L 2.62067 0.13828 L 2.61335 0.17847 L 2.60265 0.22358 L 2.58795 0.27287 L 2.56861 0.32561 L 2.54401 0.38107 L 2.51351 0.4385 L 2.47649 0.49717 L 2.43234 0.55649 L 2.38019 0.61572 L 2.319 0.67389 L 2.24775 0.73004 L 2.16538 0.78319 L 2.07088 0.83239 L 1.9632 0.87667 L 1.84131 0.91507 L 1.70417 0.94661 L 1.55075 0.97034 L 1.38002 0.98528 L 1.19092 0.99048 L 1.10038 0.98802 L 1.01584 0.98078 L 0.93691 0.96893 L 0.8632 0.95263 L 0.79433 0.93207 L 0.7299 0.90741 L 0.66955 0.87884 L 0.61287 0.84653 L 0.55948 0.81065 L 0.50899 0.77137 L 0.46102 0.72888 L 0.41518 0.68333 L 0.37131 0.63465 L 0.32941 0.58276 L 0.28935 0.52789 L 0.25099 0.47027 L 0.21419 0.41012 L 0.17881 0.34766 L 0.1447 0.28313 L 0.11174 0.21675 L 0.07979 0.14874 L 0.04869 0.07933 L 0.01832 0.00874 L -0.01146 -0.0628 L -0.04077 -0.135 L -0.06983 -0.20758 L -0.0989 -0.28031 L -0.12826 -0.35295 L -0.15818 -0.42528 L -0.18894 -0.49707 L -0.22081 -0.56808 L -0.25407 -0.63808 L -0.28898 -0.70685 L -0.32582 -0.77415 L -0.36487 -0.83975 L -0.4064 -0.90342 L -0.45129 -0.96488 L -0.50024 -1.02367 L -0.55324 -1.07926 L -0.61025 -1.13116 L -0.67127 -1.17886 L -0.73628 -1.22185 L -0.80526 -1.25962 L -0.87819 -1.29166 L -0.95506 -1.31746 L -1.03584 -1.33652 L -1.12052 -1.34833 L -1.20908 -1.35238 Z" />
</svg>