<svg version="1.1" xmlns="http://www.w3.org/2000/svg" viewBox="-6.568439094144578 -5.0000009257544065 13.136878188289128 10.000001851508813" fill="black" stroke="none">
    <path d="M -5.56844 -3.99993 L -5.56836 -3.99993 L -5.56836 -4 L -5.56844 -4 L -5.56844 -3.99993 Z" />
    <path fill-rule="evenodd" d="M 3.40731 3.53147 L 5.56844 3.53147 L 5.56844 3.16024 L 3.40416 3.16024 L 3.38252 3.09841 L 3.34469 3.02344 L 3.29785 2.95431 L 3.24278 2.8918 L 3.18027 2.83673 L 3.11114 2.78989 L 3.03617 2.75206 L 2.95617 2.72406 L 2.87192 2.70667 L 2.78423 2.7007 L 2.69654 2.70667 L 2.61229 2.72406 L 2.53228 2.75206 L 2.45732 2.78989 L 2.38818 2.83673 L 2.32568 2.8918 L 2.27061 2.95431 L 2.22376 3.02344 L 2.18594 3.09841 L 2.15794 3.17841 L 2.14055 3.26266 L 2.13458 3.35035 L 2.14055 3.43804 L 2.15794 3.52229 L 2.18594 3.6023 L 2.22376 3.67726 L 2.27061 3.7464 L 2.32568 3.8089 L 2.38818 3.86397 L 2.45732 3.91082 L 2.53228 3.94864 L 2.61229 3.97664 L 2.69654 3.99403 L 2.78423 4 L 2.87192 3.99403 L 2.95617 3.97664 L 3.03617 3.94864 L 3.11114 3.91082 L 3.18027 3.86397 L 3.24278 3.8089 L 3.29785 3.7464 L 3.34469 3.67726 L 3.38252 3.6023 L 3.40731 3.53147 Z M 2.78423 3.07193 L 2.82247 3.07443 L 2.85901 3.08172 L 2.89353 3.0935 L 2.92573 3.10945 L 2.9553 3.12927 L 2.98193 3.15265 L 3.0053 3.17928 L 3.02513 3.20885 L 3.04108 3.24105 L 3.05286 3.27557 L 3.06015 3.31211 L 3.06265 3.35035 L 3.06015 3.38859 L 3.05286 3.42513 L 3.04108 3.45965 L 3.02513 3.49185 L 3.0053 3.52142 L 2.98193 3.54805 L 2.9553 3.57143 L 2.92573 3.59125 L 2.89353 3.6072 L 2.85901 3.61898 L 2.82247 3.62627 L 2.78423 3.62877 L 2.74599 3.62627 L 2.70945 3.61898 L 2.67493 3.6072 L 2.64273 3.59125 L 2.61316 3.57143 L 2.58653 3.54805 L 2.56315 3.52142 L 2.54333 3.49185 L 2.52738 3.45965 L 2.5156 3.42513 L 2.50831 3.38859 L 2.50581 3.35035 L 2.50831 3.31211 L 2.5156 3.27557 L 2.52738 3.24105 L 2.54333 3.20885 L 2.56315 3.17928 L 2.58653 3.15265 L 2.61316 3.12927 L 2.64273 3.10945 L 2.67493 3.0935 L 2.70945 3.08172 L 2.74599 3.07443 L 2.78423 3.07193 Z" />
    <path d="M -5.5684 -2.32944 L -5.5684 -1.95821 L -4.81115 -1.95821 L -4.80722 -1.92053 L -4.8024 -1.88069 L -4.79651 -1.83874 L -4.78938 -1.79473 L -4.78085 -1.7487 L -4.77072 -1.70072 L -4.75882 -1.65083 L -4.74498 -1.59907 L -4.72903 -1.5455 L -4.71079 -1.49016 L -4.69008 -1.43311 L -4.66672 -1.3744 L -4.62187 -1.27655 L -4.56806 -1.1789 L -4.50504 -1.08302 L -4.43254 -0.9905 L -4.35031 -0.90293 L -4.25807 -0.82189 L -4.15556 -0.74897 L -4.04253 -0.68575 L -3.9187 -0.63382 L -3.78381 -0.59476 L -3.6376 -0.57016 L -3.47981 -0.56161 L -3.32863 -0.56942 L -3.18828 -0.59193 L -3.05848 -0.62775 L -2.93897 -0.67549 L -2.82948 -0.73378 L -2.72973 -0.80122 L -2.63945 -0.87644 L -2.55838 -0.95804 L -2.48625 -1.04464 L -2.42278 -1.13486 L -2.36769 -1.2273 L -2.32074 -1.3206 L -2.27386 -1.22678 L -2.21882 -1.13378 L -2.15533 -1.04298 L -2.08314 -0.9558 L -2.00197 -0.87363 L -1.91154 -0.79787 L -1.8116 -0.72992 L -1.70187 -0.67118 L -1.58208 -0.62306 L -1.45195 -0.58695 L -1.31123 -0.56426 L -1.15963 -0.55639 L -1.00826 -0.56424 L -0.86773 -0.58688 L -0.73779 -0.6229 L -0.61816 -0.67091 L -0.50858 -0.72952 L -0.40876 -0.79732 L -0.31844 -0.87292 L -0.23735 -0.95494 L -0.16522 -1.04196 L -0.10177 -1.1326 L -0.04673 -1.22546 L 0.00016 -1.31915 L 0.0471 -1.22545 L 0.10218 -1.13259 L 0.16568 -1.04195 L 0.23787 -0.95492 L 0.31902 -0.87291 L 0.4094 -0.79731 L 0.50927 -0.72951 L 0.61891 -0.6709 L 0.73859 -0.6229 L 0.86857 -0.58688 L 1.00913 -0.56424 L 1.16054 -0.55639 L 1.31192 -0.56424 L 1.45244 -0.58688 L 1.58238 -0.6229 L 1.70201 -0.67091 L 1.8116 -0.72952 L 1.91141 -0.79732 L 2.00173 -0.87292 L 2.08282 -0.95494 L 2.15496 -1.04196 L 2.21841 -1.1326 L 2.27344 -1.22546 L 2.32034 -1.31915 L 2.36727 -1.22545 L 2.42236 -1.13259 L 2.48586 -1.04195 L 2.55805 -0.95492 L 2.6392 -0.87291 L 2.72957 -0.79731 L 2.82944 -0.72951 L 2.93908 -0.6709 L 3.05876 -0.6229 L 3.18875 -0.58688 L 3.32931 -0.56424 L 3.48072 -0.55639 L 3.63845 -0.56491 L 3.7846 -0.58944 L 3.91943 -0.62838 L 4.0432 -0.68015 L 4.15619 -0.74318 L 4.25864 -0.81589 L 4.35083 -0.8967 L 4.43302 -0.98402 L 4.50547 -1.07627 L 4.56845 -1.17189 L 4.62222 -1.26927 L 4.66705 -1.36685 L 4.69034 -1.42528 L 4.711 -1.48207 L 4.72921 -1.53716 L 4.74514 -1.5905 L 4.75896 -1.64205 L 4.77085 -1.69176 L 4.78099 -1.73958 L 4.78953 -1.78545 L 4.79667 -1.82932 L 4.80257 -1.87116 L 4.8074 -1.9109 L 4.81134 -1.94849 L 5.56844 -1.94849 L 5.56844 -2.31972 L 4.64037 -2.31972 L 4.62823 -2.31932 L 4.61614 -2.31813 L 4.60416 -2.31615 L 4.59233 -2.31339 L 4.58071 -2.30987 L 4.56934 -2.30559 L 4.55828 -2.30057 L 4.54757 -2.29485 L 4.53725 -2.28843 L 4.52738 -2.28136 L 4.51799 -2.27365 L 4.50912 -2.26535 L 4.50082 -2.25649 L 4.49312 -2.2471 L 4.48604 -2.23722 L 4.47963 -2.22691 L 4.4739 -2.2162 L 4.46889 -2.20514 L 4.46461 -2.19377 L 4.46108 -2.18215 L 4.45832 -2.17032 L 4.45634 -2.15833 L 4.45515 -2.14625 L 4.45475 -2.13411 L 4.45463 -2.12769 L 4.45398 -2.10918 L 4.45238 -2.07973 L 4.44939 -2.04047 L 4.4446 -1.99253 L 4.43756 -1.93704 L 4.42786 -1.87516 L 4.41507 -1.808 L 4.39875 -1.73671 L 4.37848 -1.66243 L 4.35384 -1.58628 L 4.32439 -1.5094 L 4.29057 -1.43337 L 4.2526 -1.35955 L 4.20973 -1.28879 L 4.16123 -1.22193 L 4.10633 -1.15979 L 4.04431 -1.10322 L 3.97442 -1.05305 L 3.8959 -1.01013 L 3.80801 -0.97529 L 3.71002 -0.94936 L 3.60117 -0.93319 L 3.48072 -0.92762 L 3.36026 -0.93319 L 3.25139 -0.94937 L 3.15337 -0.97531 L 3.06546 -1.01016 L 2.9869 -1.0531 L 2.91697 -1.10328 L 2.8549 -1.15987 L 2.79996 -1.22202 L 2.75141 -1.28891 L 2.70849 -1.35968 L 2.67047 -1.43351 L 2.63661 -1.50955 L 2.60711 -1.58642 L 2.58242 -1.66257 L 2.56211 -1.73685 L 2.54574 -1.80812 L 2.5329 -1.87526 L 2.52315 -1.93713 L 2.51607 -1.99259 L 2.51124 -2.04051 L 2.50822 -2.07976 L 2.5066 -2.1092 L 2.50593 -2.12769 L 2.50581 -2.13411 L 2.50581 -2.13411 L 2.50581 -2.13412 L 2.50581 -2.13413 L 2.50581 -2.13415 L 2.50581 -2.13416 L 2.50581 -2.13418 L 2.50581 -2.1342 L 2.50581 -2.13422 L 2.50581 -2.13423 L 2.50581 -2.13424 L 2.50581 -2.13425 L 2.50581 -2.13426 L 2.5039 -2.15824 L 2.4989 -2.18178 L 2.4909 -2.20448 L 2.48004 -2.22595 L 2.46648 -2.24583 L 2.45047 -2.2638 L 2.43227 -2.27954 L 2.41219 -2.29279 L 2.39056 -2.30334 L 2.36775 -2.311 L 2.34413 -2.31564 L 2.32012 -2.31719 L 2.29611 -2.31562 L 2.2725 -2.31096 L 2.24969 -2.30328 L 2.22807 -2.29272 L 2.208 -2.27945 L 2.18981 -2.26369 L 2.17381 -2.24572 L 2.16028 -2.22582 L 2.14943 -2.20434 L 2.14145 -2.18164 L 2.13647 -2.1581 L 2.13458 -2.13411 L 2.13446 -2.12769 L 2.13381 -2.10918 L 2.13221 -2.07973 L 2.12922 -2.04047 L 2.12442 -1.99253 L 2.11739 -1.93704 L 2.10769 -1.87516 L 2.09489 -1.808 L 2.07857 -1.73671 L 2.05831 -1.66243 L 2.03366 -1.58628 L 2.00421 -1.5094 L 1.97039 -1.43337 L 1.93242 -1.35955 L 1.88956 -1.28879 L 1.84105 -1.22193 L 1.78616 -1.15979 L 1.72414 -1.10322 L 1.65424 -1.05305 L 1.57572 -1.01013 L 1.48784 -0.97529 L 1.38984 -0.94936 L 1.28099 -0.93319 L 1.16054 -0.92762 L 1.04008 -0.93319 L 0.93122 -0.94937 L 0.8332 -0.97531 L 0.74528 -1.01016 L 0.66673 -1.0531 L 0.59679 -1.10328 L 0.53472 -1.15987 L 0.47979 -1.22202 L 0.43123 -1.28891 L 0.38832 -1.35968 L 0.3503 -1.43351 L 0.31643 -1.50955 L 0.28694 -1.58642 L 0.26225 -1.66257 L 0.24193 -1.73685 L 0.22557 -1.80812 L 0.21272 -1.87526 L 0.20298 -1.93713 L 0.1959 -1.99259 L 0.19107 -2.04051 L 0.18805 -2.07976 L 0.18642 -2.1092 L 0.18576 -2.12769 L 0.18563 -2.13411 L 0.18563 -2.13411 L 0.18563 -2.13412 L 0.18563 -2.13413 L 0.18563 -2.13415 L 0.18563 -2.13416 L 0.18563 -2.13418 L 0.18563 -2.1342 L 0.18563 -2.13422 L 0.18563 -2.13423 L 0.18563 -2.13424 L 0.18563 -2.13425 L 0.18563 -2.13426 L 0.18372 -2.15824 L 0.17873 -2.18178 L 0.17073 -2.20448 L 0.15986 -2.22595 L 0.14631 -2.24583 L 0.1303 -2.2638 L 0.1121 -2.27954 L 0.09201 -2.29279 L 0.07038 -2.30334 L 0.04757 -2.311 L 0.02396 -2.31564 L -0.00005 -2.31719 L -0.02407 -2.31562 L -0.04767 -2.31096 L -0.07048 -2.30328 L -0.0921 -2.29272 L -0.11218 -2.27945 L -0.13036 -2.26369 L -0.14636 -2.24572 L -0.1599 -2.22582 L -0.17075 -2.20434 L -0.17873 -2.18164 L -0.18371 -2.1581 L -0.1856 -2.13411 L -0.18572 -2.12769 L -0.18636 -2.10918 L -0.18797 -2.07973 L -0.19095 -2.04047 L -0.19575 -1.99253 L -0.20279 -1.93704 L -0.21249 -1.87516 L -0.22528 -1.808 L -0.2416 -1.73671 L -0.26187 -1.66243 L -0.28651 -1.58628 L -0.31596 -1.5094 L -0.34978 -1.43337 L -0.38775 -1.35955 L -0.43062 -1.28879 L -0.47912 -1.22193 L -0.53401 -1.15979 L -0.59604 -1.10322 L -0.66593 -1.05305 L -0.74445 -1.01013 L -0.83234 -0.97529 L -0.93033 -0.94936 L -1.03918 -0.93319 L -1.15963 -0.92762 L -1.28009 -0.93319 L -1.38896 -0.94937 L -1.48698 -0.97531 L -1.57489 -1.01016 L -1.65345 -1.0531 L -1.72338 -1.10328 L -1.78545 -1.15987 L -1.84039 -1.22202 L -1.88894 -1.28891 L -1.93186 -1.35968 L -1.96988 -1.43351 L -2.00374 -1.50955 L -2.03324 -1.58642 L -2.05793 -1.66257 L -2.07824 -1.73685 L -2.09461 -1.80812 L -2.10745 -1.87526 L -2.1172 -1.93713 L -2.12428 -1.99259 L -2.12911 -2.04051 L -2.13213 -2.07976 L -2.13375 -2.1092 L -2.13442 -2.12769 L -2.13454 -2.13411 L -2.13454 -2.13411 L -2.13454 -2.13412 L -2.13454 -2.13413 L -2.13454 -2.13415 L -2.13454 -2.13416 L -2.13454 -2.13418 L -2.13454 -2.1342 L -2.13454 -2.13422 L -2.13454 -2.13423 L -2.13454 -2.13424 L -2.13454 -2.13425 L -2.13454 -2.13426 L -2.13645 -2.15824 L -2.14145 -2.18178 L -2.14945 -2.20448 L -2.16031 -2.22595 L -2.17387 -2.24583 L -2.18988 -2.2638 L -2.20808 -2.27954 L -2.22816 -2.29279 L -2.24979 -2.30334 L -2.2726 -2.311 L -2.29622 -2.31564 L -2.32023 -2.31719 L -2.34424 -2.31562 L -2.36785 -2.31096 L -2.39066 -2.30328 L -2.41228 -2.29272 L -2.43235 -2.27945 L -2.45054 -2.26369 L -2.46654 -2.24572 L -2.48007 -2.22582 L -2.49092 -2.20434 L -2.4989 -2.18164 L -2.50388 -2.1581 L -2.50577 -2.13411 L -2.50589 -2.12772 L -2.50655 -2.1093 L -2.50816 -2.07999 L -2.51115 -2.04091 L -2.51596 -1.9932 L -2.523 -1.93798 L -2.5327 -1.87638 L -2.5455 -1.80954 L -2.56182 -1.73858 L -2.58208 -1.66463 L -2.60671 -1.58883 L -2.63614 -1.5123 L -2.66993 -1.43661 L -2.70787 -1.36311 L -2.75071 -1.29264 L -2.79919 -1.22604 L -2.85406 -1.16415 L -2.91607 -1.1078 L -2.98596 -1.05782 L -3.06448 -1.01505 L -3.15238 -0.98034 L -3.2504 -0.95451 L -3.3593 -0.93839 L -3.47981 -0.93284 L -3.60022 -0.93843 L -3.70904 -0.95466 L -3.80704 -0.98068 L -3.89494 -1.01564 L -3.97349 -1.05872 L -4.04344 -1.10907 L -4.10552 -1.16585 L -4.16047 -1.22822 L -4.20905 -1.29534 L -4.25199 -1.36637 L -4.29003 -1.44047 L -4.32392 -1.5168 L -4.35343 -1.59397 L -4.37813 -1.67041 L -4.39845 -1.74498 L -4.41482 -1.81654 L -4.42766 -1.88394 L -4.43741 -1.94605 L -4.44448 -2.00174 L -4.4493 -2.04985 L -4.45231 -2.08925 L -4.45393 -2.11881 L -4.45459 -2.13738 L -4.45472 -2.14382 L -4.45512 -2.15596 L -4.45631 -2.16805 L -4.45829 -2.18003 L -4.46105 -2.19186 L -4.46457 -2.20348 L -4.46885 -2.21485 L -4.47386 -2.22591 L -4.47959 -2.23663 L -4.486 -2.24694 L -4.49308 -2.25681 L -4.50078 -2.2662 L -4.50909 -2.27507 L -4.51795 -2.28337 L -4.52734 -2.29107 L -4.53721 -2.29815 L -4.54753 -2.30456 L -4.55824 -2.31029 L -4.5693 -2.3153 L -4.58067 -2.31958 L -4.59229 -2.32311 L -4.60412 -2.32587 L -4.6161 -2.32785 L -4.62819 -2.32904 L -4.64033 -2.32944 L -5.5684 -2.32944 Z" />
    <path d="M -4.64033 -0.00926 L -4.64033 0.36197 L 4.64037 0.36197 L 4.64037 -0.00926 L -4.64033 -0.00926 Z" />
    <path d="M -5.5684 3.16923 L -5.5684 3.54046 L -3.24823 3.54046 L -3.24823 3.16923 L -5.5684 3.16923 Z" />
</svg>