<svg version="1.1" xmlns="http://www.w3.org/2000/svg" viewBox="-7.666667518518523 -5.000000911111114 15.333335037037045 10.000001822222227" fill="black" stroke="none">
    <path d="M 2 3.40439 L 2 4 L 2.44444 4 L 2.44444 3.49327 L 3.28976 3.66233 L 3.37691 3.22656 L 2.44444 3.04006 L 2.44444 2.55556 L 6.66667 2.55556 L 6.66667 2.11111 L 2 2.11111 L 2 2.95116 L 0.22222 2.59559 L 0.22222 2.22222 L -0.22222 2.22222 L -0.22222 2.50669 L -2.2 2.11111 L -2.24444 2.55556 L 2 3.40439 Z" />
    <path fill-rule="evenodd" d="M -0.22222 -0.22222 L -0.22222 0 L 0.22222 0 L 0.22222 -0.22222 L 1.33333 -0.22222 L 1.33333 -1.88889 L 6.66667 -1.88889 L 6.66667 -2.33333 L 1.33333 -2.33333 L 1.33333 -4 L -1.33333 -4 L -1.33333 -3.77778 L -1.33333 -2.33333 L -6.66667 -2.33333 L -6.66667 -1.88889 L -1.33333 -1.88889 L -1.33333 -0.22222 L -0.22222 -0.22222 Z M -0.88889 -3.55556 L 0.88889 -3.55556 L 0.88889 -0.66667 L -0.88889 -0.66667 L -0.88889 -3.55556 Z" />
    <path d="M -0.22222 1.33333 L -0.22222 1.77778 L 0.22222 1.77778 L 0.22222 1.33333 L -0.22222 1.33333 Z" />
    <path d="M -0.22222 0.44444 L -0.22222 0.88889 L 0.22222 0.88889 L 0.22222 0.44444 L -0.22222 0.44444 Z" />
</svg>