<svg version="1.1" xmlns="http://www.w3.org/2000/svg" viewBox="-6.73 -5 13.461 10" fill="black" stroke="none"><path fill-rule="evenodd" d="M 0.169 2.685 L 0.182 2.685 L 0.182 2.494 L -0.189 2.494 L -2.702 1.153 L -2.698 1.143 L -2.68 1.057 L -2.674 0.966 L -2.68 0.876 L -2.698 0.789 L -2.727 0.707 L -2.766 0.63 L -2.814 0.559 L -2.871 0.494 L -2.935 0.438 L -3.006 0.39 L -3.083 0.351 L -3.166 0.322 L -3.252 0.304 L -3.343 0.298 L -3.433 0.304 L -3.52 0.322 L -3.602 0.351 L -3.679 0.39 L -3.75 0.438 L -3.815 0.494 L -3.871 0.559 L -3.919 0.63 L -3.958 0.707 L -3.974 0.752 L -5.73 0.752 L -5.73 1.134 L -3.989 1.134 L -3.987 1.143 L -3.958 1.226 L -3.919 1.303 L -3.871 1.374 L -3.815 1.438 L -3.75 1.495 L -3.679 1.543 L -3.602 1.582 L -3.52 1.611 L -3.433 1.629 L -3.343 1.635 L -3.252 1.629 L -3.166 1.611 L -3.083 1.582 L -3.006 1.543 L -2.935 1.495 L -2.911 1.474 L 1.82 4 L 2 3.663 L 0.169 2.685 Z M -3.629 0.966 L -3.627 0.927 L -3.619 0.889 L -3.607 0.854 L -3.591 0.821 L -3.57 0.79 L -3.546 0.763 L -3.519 0.739 L -3.488 0.718 L -3.455 0.702 L -3.42 0.69 L -3.382 0.682 L -3.343 0.68 L -3.303 0.682 L -3.266 0.69 L -3.23 0.702 L -3.197 0.718 L -3.167 0.739 L -3.139 0.763 L -3.115 0.79 L -3.095 0.821 L -3.078 0.854 L -3.066 0.889 L -3.059 0.927 L -3.056 0.966 L -3.059 1.006 L -3.066 1.043 L -3.078 1.079 L -3.095 1.112 L -3.115 1.142 L -3.139 1.17 L -3.167 1.194 L -3.197 1.214 L -3.23 1.231 L -3.266 1.243 L -3.303 1.25 L -3.343 1.253 L -3.382 1.25 L -3.42 1.243 L -3.455 1.231 L -3.488 1.214 L -3.519 1.194 L -3.546 1.17 L -3.57 1.142 L -3.591 1.112 L -3.607 1.079 L -3.619 1.043 L -3.627 1.006 L -3.629 0.966 Z M 2.381 1.148 L 1.91 1.864 L 1.439 1.148 L 1.433 1.148 L 1.433 1.138 L 1.433 0.766 L 5.73 0.766 L 5.73 1.148 L 2.381 1.148 Z M -0.2 0.584 L 0.182 0.584 L 0.182 0.202 L -0.2 0.202 L -0.2 0.584 Z M -0.2 2.112 L 0.182 2.112 L 0.182 1.73 L -0.2 1.73 L -0.2 2.112 Z M -0.2 1.348 L 0.182 1.348 L 0.182 0.966 L -0.2 0.966 L -0.2 1.348 Z M -0.2 -1.708 L 0.182 -1.708 L 4.011 -1.708 L 4.011 -2.663 L 5.73 -2.663 L 5.73 -3.045 L 4.011 -3.045 L 4.011 -4 L -4.011 -4 L -4.011 -3.059 L -5.73 -3.059 L -5.73 -2.677 L -4.011 -2.677 L -4.011 -1.708 L -0.2 -1.708 Z M -3.629 -2.09 L -3.629 -3.618 L 3.629 -3.618 L 3.629 -2.09 L -3.629 -2.09 Z M -0.2 -0.944 L 0.182 -0.944 L 0.182 -1.326 L -0.2 -1.326 L -0.2 -0.944 Z M -0.2 -0.18 L 0.182 -0.18 L 0.182 -0.562 L -0.2 -0.562 L -0.2 -0.18 Z" /></svg>