<svg version="1.1" xmlns="http://www.w3.org/2000/svg" viewBox="-7.233767104233432 -5.000000916883119 14.467534208466864 10.000001833766238" fill="black" stroke="none">
    <path d="M 2.38961 -2.23377 L 2.38961 -2.23377 L 2.38961 -2.23376 L 2.38961 4 L 2.80519 4 L 2.80519 -2.2336 L 2.80519 -2.2336 L 2.80519 -2.23361 L 2.80519 -2.23362 L 2.80519 -2.23364 L 2.80519 -2.23366 L 2.80519 -2.23368 L 2.80519 -2.2337 L 2.80519 -2.23372 L 2.80519 -2.23374 L 2.80519 -2.23375 L 2.80519 -2.23376 L 2.80519 -2.23376 L 2.80534 -2.24095 L 2.80608 -2.26166 L 2.8079 -2.29463 L 2.81128 -2.33859 L 2.81669 -2.39225 L 2.82461 -2.45436 L 2.83552 -2.52364 L 2.8499 -2.59882 L 2.86822 -2.67863 L 2.89096 -2.76179 L 2.91861 -2.84705 L 2.95162 -2.93311 L 2.98954 -3.01823 L 3.0321 -3.10087 L 3.08014 -3.18009 L 3.1345 -3.25495 L 3.196 -3.32451 L 3.26548 -3.38784 L 3.34378 -3.444 L 3.43172 -3.49205 L 3.53014 -3.53105 L 3.63987 -3.56007 L 3.76174 -3.57817 L 3.89659 -3.58441 L 4.03144 -3.57817 L 4.15329 -3.56007 L 4.263 -3.53105 L 4.36138 -3.49204 L 4.44928 -3.44399 L 4.52753 -3.38783 L 4.59696 -3.3245 L 4.65841 -3.25494 L 4.71271 -3.18008 L 4.7607 -3.10086 L 4.80321 -3.01823 L 4.84107 -2.93311 L 4.87404 -2.84705 L 4.90163 -2.76182 L 4.92432 -2.67866 L 4.94258 -2.59887 L 4.95691 -2.52371 L 4.96777 -2.45445 L 4.97564 -2.39236 L 4.98101 -2.33871 L 4.98436 -2.29477 L 4.98615 -2.26182 L 4.98688 -2.24111 L 4.98701 -2.23392 L 4.98745 -2.22033 L 4.98877 -2.20679 L 4.99098 -2.19337 L 4.99406 -2.18012 L 4.99801 -2.16709 L 5.00279 -2.15436 L 5.0084 -2.14197 L 5.01481 -2.12997 L 5.02198 -2.11841 L 5.0299 -2.10735 L 5.03853 -2.09683 L 5.04782 -2.0869 L 5.05775 -2.07759 L 5.06826 -2.06896 L 5.07932 -2.06103 L 5.09087 -2.05385 L 5.10286 -2.04743 L 5.11525 -2.04181 L 5.12798 -2.03702 L 5.141 -2.03307 L 5.15425 -2.02997 L 5.16767 -2.02776 L 5.18121 -2.02642 L 5.19481 -2.02597 L 6.23377 -2.02597 L 6.23377 -2.44156 L 5.3862 -2.44156 L 5.38179 -2.48365 L 5.37639 -2.52814 L 5.36979 -2.57497 L 5.36181 -2.6241 L 5.35224 -2.67546 L 5.3409 -2.729 L 5.32759 -2.78467 L 5.31211 -2.8424 L 5.29428 -2.90214 L 5.27389 -2.96383 L 5.25075 -3.02742 L 5.22467 -3.09286 L 5.17449 -3.2021 L 5.1143 -3.31111 L 5.04379 -3.41813 L 4.96268 -3.52139 L 4.87067 -3.61913 L 4.76747 -3.70957 L 4.65277 -3.79095 L 4.52629 -3.86149 L 4.38772 -3.91944 L 4.23678 -3.96302 L 4.07317 -3.99046 L 3.89659 -4 L 3.7271 -3.99121 L 3.56976 -3.96587 L 3.42426 -3.92554 L 3.2903 -3.8718 L 3.16758 -3.80619 L 3.0558 -3.73029 L 2.95464 -3.64565 L 2.86381 -3.55384 L 2.78301 -3.45642 L 2.71193 -3.35494 L 2.65027 -3.25099 L 2.59773 -3.1461 L 2.54524 -3.251 L 2.48363 -3.35496 L 2.41259 -3.45643 L 2.33183 -3.55386 L 2.24104 -3.64567 L 2.13992 -3.7303 L 2.02816 -3.8062 L 1.90545 -3.87181 L 1.77151 -3.92555 L 1.62602 -3.96587 L 1.46868 -3.99121 L 1.29919 -4 L 1.1297 -3.99121 L 0.97236 -3.96587 L 0.82686 -3.92554 L 0.6929 -3.8718 L 0.57018 -3.80619 L 0.45839 -3.73029 L 0.35724 -3.64565 L 0.26641 -3.55384 L 0.18561 -3.45642 L 0.11453 -3.35494 L 0.05287 -3.25099 L 0.00032 -3.1461 L -0.05217 -3.251 L -0.11378 -3.35496 L -0.18481 -3.45643 L -0.26557 -3.55386 L -0.35636 -3.64567 L -0.45749 -3.7303 L -0.56925 -3.8062 L -0.69195 -3.87181 L -0.82589 -3.92555 L -0.97138 -3.96587 L -1.12872 -3.99121 L -1.29821 -4 L -1.46788 -3.99119 L -1.62538 -3.9658 L -1.77102 -3.9254 L -1.9051 -3.87155 L -2.02793 -3.80583 L -2.1398 -3.72979 L -2.24101 -3.64502 L -2.33188 -3.55306 L -2.4127 -3.4555 L -2.48377 -3.35389 L -2.5454 -3.2498 L -2.59789 -3.14481 L -2.65045 -3.24931 L -2.7121 -3.35286 L -2.78316 -3.45392 L -2.86391 -3.55092 L -2.95468 -3.64233 L -3.05575 -3.72658 L -3.16743 -3.80212 L -3.29003 -3.86741 L -3.42384 -3.92089 L -3.56918 -3.96101 L -3.72633 -3.98622 L -3.89562 -3.99497 L -4.07227 -3.98539 L -4.23596 -3.95785 L -4.38697 -3.91411 L -4.52559 -3.85596 L -4.65214 -3.78516 L -4.76689 -3.7035 L -4.87015 -3.61274 L -4.96221 -3.51467 L -5.04336 -3.41106 L -5.11391 -3.30368 L -5.17414 -3.19432 L -5.22435 -3.08474 L -5.2505 -3.01895 L -5.27369 -2.95503 L -5.29412 -2.89303 L -5.31198 -2.83301 L -5.32747 -2.77502 L -5.34079 -2.71912 L -5.35212 -2.66536 L -5.36168 -2.6138 L -5.36966 -2.5645 L -5.37624 -2.51751 L -5.38164 -2.47288 L -5.38604 -2.43068 L -6.23377 -2.43068 L -6.23377 -2.0151 L -5.19481 -2.0151 L -5.18122 -2.01554 L -5.16768 -2.01688 L -5.15427 -2.01909 L -5.14103 -2.02218 L -5.12802 -2.02613 L -5.11529 -2.03092 L -5.1029 -2.03653 L -5.09091 -2.04294 L -5.07937 -2.05012 L -5.06831 -2.05804 L -5.0578 -2.06667 L -5.04788 -2.07596 L -5.03858 -2.08589 L -5.02996 -2.0964 L -5.02204 -2.10745 L -5.01486 -2.119 L -5.00845 -2.13099 L -5.00284 -2.14337 L -4.99805 -2.1561 L -4.9941 -2.16911 L -4.99101 -2.18235 L -4.98879 -2.19577 L -4.98746 -2.2093 L -4.98701 -2.22289 L -4.98687 -2.23011 L -4.98614 -2.25091 L -4.98432 -2.28402 L -4.98096 -2.32817 L -4.97555 -2.38207 L -4.96764 -2.44445 L -4.95673 -2.51403 L -4.94236 -2.58954 L -4.92403 -2.6697 L -4.90128 -2.75324 L -4.87363 -2.83887 L -4.84058 -2.92532 L -4.80264 -3.01083 L -4.76005 -3.09383 L -4.71198 -3.17339 L -4.6576 -3.24856 L -4.59607 -3.31842 L -4.52657 -3.38201 L -4.44827 -3.4384 L -4.36033 -3.48665 L -4.26193 -3.52581 L -4.15223 -3.55494 L -4.0304 -3.57312 L -3.89562 -3.57938 L -3.76071 -3.57316 L -3.63882 -3.55512 L -3.52909 -3.52619 L -3.43069 -3.48731 L -3.34278 -3.43941 L -3.26454 -3.38344 L -3.19512 -3.32032 L -3.13369 -3.251 L -3.07942 -3.17641 L -3.03145 -3.09748 L -2.98897 -3.01515 L -2.95114 -2.93036 L -2.91819 -2.84463 L -2.89061 -2.75972 L -2.86793 -2.6769 L -2.84967 -2.59742 L -2.83534 -2.52256 L -2.82447 -2.45357 L -2.81659 -2.39173 L -2.81121 -2.3383 L -2.80786 -2.29453 L -2.80606 -2.26171 L -2.80533 -2.24108 L -2.80519 -2.23393 L -2.80519 -2.23393 L -2.80519 -2.23392 L -2.80519 -2.2339 L -2.80519 -2.23389 L -2.80519 -2.23387 L -2.80519 -2.23385 L -2.80519 -2.23382 L -2.80519 -2.23381 L -2.80519 -2.23379 L -2.80519 -2.23377 L -2.80519 -2.23377 L -2.80519 -2.23376 L -2.80308 -2.20691 L -2.79751 -2.18055 L -2.78857 -2.15514 L -2.77643 -2.13109 L -2.76127 -2.10882 L -2.74336 -2.08869 L -2.723 -2.07106 L -2.70053 -2.0562 L -2.67633 -2.04437 L -2.65079 -2.03578 L -2.62437 -2.03056 L -2.59748 -2.0288 L -2.5706 -2.03054 L -2.54417 -2.03574 L -2.51863 -2.04431 L -2.49442 -2.05612 L -2.47193 -2.07096 L -2.45156 -2.08858 L -2.43363 -2.10869 L -2.41846 -2.13095 L -2.40629 -2.15498 L -2.39734 -2.18039 L -2.39175 -2.20674 L -2.38961 -2.2336 L -2.38961 -2.2336 L -2.38961 -2.23361 L -2.38961 -2.23362 L -2.38961 -2.23364 L -2.38961 -2.23366 L -2.38961 -2.23368 L -2.38961 -2.2337 L -2.38961 -2.23372 L -2.38961 -2.23374 L -2.38961 -2.23375 L -2.38961 -2.23376 L -2.38961 -2.23376 L -2.38947 -2.24095 L -2.38873 -2.26166 L -2.38691 -2.29463 L -2.38353 -2.33859 L -2.37812 -2.39225 L -2.37019 -2.45436 L -2.35928 -2.52364 L -2.34491 -2.59882 L -2.32659 -2.67863 L -2.30384 -2.76179 L -2.2762 -2.84705 L -2.24318 -2.93311 L -2.20527 -3.01824 L -2.16271 -3.10087 L -2.11467 -3.18009 L -2.06031 -3.25495 L -1.99881 -3.32451 L -1.92932 -3.38784 L -1.85103 -3.444 L -1.76309 -3.49205 L -1.66467 -3.53105 L -1.55494 -3.56007 L -1.43307 -3.57817 L -1.29821 -3.58442 L -1.16337 -3.57817 L -1.04151 -3.56007 L -0.93181 -3.53105 L -0.83342 -3.49204 L -0.74552 -3.44399 L -0.66727 -3.38783 L -0.59784 -3.3245 L -0.53639 -3.25494 L -0.48209 -3.18008 L -0.4341 -3.10087 L -0.3916 -3.01823 L -0.35373 -2.93312 L -0.32077 -2.84706 L -0.29318 -2.76182 L -0.27049 -2.67867 L -0.25222 -2.59888 L -0.2379 -2.52372 L -0.22704 -2.45446 L -0.21916 -2.39237 L -0.21379 -2.33872 L -0.21045 -2.29478 L -0.20865 -2.26182 L -0.20793 -2.24111 L -0.20779 -2.23393 L -0.20779 -2.23393 L -0.20779 -2.23392 L -0.20779 -2.2339 L -0.20779 -2.23389 L -0.20779 -2.23387 L -0.20779 -2.23385 L -0.20779 -2.23382 L -0.20779 -2.23381 L -0.20779 -2.23379 L -0.20779 -2.23377 L -0.20779 -2.23377 L -0.20779 -2.23377 L -0.20779 -2.23376 L -0.20779 4 L 0.20779 4 L 0.20779 -2.2336 L 0.20779 -2.2336 L 0.20779 -2.23361 L 0.20779 -2.23362 L 0.20779 -2.23364 L 0.20779 -2.23366 L 0.20779 -2.23368 L 0.20779 -2.2337 L 0.20779 -2.23372 L 0.20779 -2.23374 L 0.20779 -2.23375 L 0.20779 -2.23376 L 0.20779 -2.23376 L 0.20793 -2.24095 L 0.20868 -2.26166 L 0.2105 -2.29463 L 0.21387 -2.33859 L 0.21929 -2.39225 L 0.22721 -2.45436 L 0.23812 -2.52364 L 0.2525 -2.59882 L 0.27082 -2.67863 L 0.29356 -2.76179 L 0.3212 -2.84705 L 0.35422 -2.93311 L 0.39213 -3.01824 L 0.43469 -3.10087 L 0.48274 -3.18009 L 0.53709 -3.25495 L 0.5986 -3.32451 L 0.66808 -3.38784 L 0.74637 -3.444 L 0.83431 -3.49205 L 0.93273 -3.53105 L 1.04246 -3.56007 L 1.16434 -3.57817 L 1.29919 -3.58442 L 1.43403 -3.57817 L 1.55589 -3.56007 L 1.66559 -3.53105 L 1.76398 -3.49204 L 1.85188 -3.44399 L 1.93013 -3.38783 L 1.99956 -3.3245 L 2.06101 -3.25494 L 2.11531 -3.18008 L 2.1633 -3.10087 L 2.20581 -3.01823 L 2.24367 -2.93312 L 2.27664 -2.84706 L 2.30423 -2.76182 L 2.32691 -2.67867 L 2.34518 -2.59888 L 2.3595 -2.52372 L 2.37037 -2.45446 L 2.37824 -2.39237 L 2.38361 -2.33872 L 2.38695 -2.29478 L 2.38875 -2.26182 L 2.38947 -2.24111 L 2.38961 -2.23393 L 2.38961 -2.23393 L 2.38961 -2.23392 L 2.38961 -2.2339 L 2.38961 -2.23389 L 2.38961 -2.23387 L 2.38961 -2.23385 L 2.38961 -2.23382 L 2.38961 -2.23381 L 2.38961 -2.23379 L 2.38961 -2.23377 L 2.38961 -2.23377 Z" />
</svg>