<svg version="1.1" xmlns="http://www.w3.org/2000/svg" viewBox="-4.4 -5 8.8 10" fill="black" stroke="none"><path fill-rule="evenodd" d="M 1.8 2.524 L 1.8 4 L 2.067 4 L 2.067 2.381 L 2.31 2.216 L 2.579 1.979 L 2.816 1.71 L 3.017 1.413 L 3.18 1.089 L 3.3 0.744 L 3.374 0.38 L 3.4 0 L 3.374 -0.38 L 3.3 -0.744 L 3.18 -1.089 L 3.017 -1.413 L 2.816 -1.71 L 2.579 -1.979 L 2.31 -2.216 L 2.067 -2.381 L 2.067 -4 L 1.8 -4 L 1.8 -2.524 L 1.689 -2.58 L 1.344 -2.7 L 0.98 -2.774 L 0.6 -2.8 L 0.22 -2.774 L -0.144 -2.7 L -0.489 -2.58 L -0.813 -2.417 L -1.11 -2.216 L -1.379 -1.979 L -1.616 -1.71 L -1.817 -1.413 L -1.98 -1.089 L -2.1 -0.744 L -2.174 -0.38 L -2.191 -0.133 L -3.4 -0.133 L -3.4 0.133 L -2.191 0.133 L -2.174 0.38 L -2.1 0.744 L -1.98 1.089 L -1.817 1.413 L -1.616 1.71 L -1.379 1.979 L -1.11 2.216 L -0.813 2.417 L -0.489 2.58 L -0.144 2.7 L 0.22 2.774 L 0.6 2.8 L 0.98 2.774 L 1.344 2.7 L 1.689 2.58 L 1.8 2.524 Z M 0.467 -0.133 L 0.067 -0.133 L 0.067 -1.2 L 2.067 -1.2 L 2.067 -2.061 L 2.149 -2.006 L 2.392 -1.792 L 2.606 -1.549 L 2.788 -1.279 L 2.934 -0.987 L 3.043 -0.674 L 3.11 -0.344 L 3.133 0 L 3.11 0.344 L 3.043 0.674 L 2.934 0.987 L 2.788 1.279 L 2.606 1.549 L 2.392 1.792 L 2.149 2.006 L 2.067 2.061 L 2.067 -0.133 L 1.267 -0.133 L 1.267 -0.667 L 0.467 -0.133 Z M 1.8 2.228 L 1.587 2.334 L 1.274 2.443 L 0.944 2.51 L 0.6 2.533 L 0.256 2.51 L -0.074 2.443 L -0.387 2.334 L -0.679 2.188 L -0.949 2.006 L -1.192 1.792 L -1.406 1.549 L -1.588 1.279 L -1.734 0.987 L -1.843 0.674 L -1.91 0.344 L -1.924 0.133 L -0.867 0.133 L -0.867 1.333 L -0.6 1.333 L -0.6 -1.333 L -0.867 -1.333 L -0.867 -0.133 L -1.924 -0.133 L -1.91 -0.344 L -1.843 -0.674 L -1.734 -0.987 L -1.588 -1.279 L -1.406 -1.549 L -1.192 -1.792 L -0.949 -2.006 L -0.679 -2.188 L -0.387 -2.334 L -0.074 -2.443 L 0.256 -2.51 L 0.6 -2.533 L 0.944 -2.51 L 1.274 -2.443 L 1.587 -2.334 L 1.8 -2.228 L 1.8 -1.467 L 0.067 -1.467 L 0.067 -1.827 L -0.2 -1.827 L -0.2 1.827 L 0.067 1.827 L 0.067 1.467 L 1.8 1.467 L 1.8 2.228 Z M 1.267 0.133 L 1.8 0.133 L 1.8 1.2 L 0.067 1.2 L 0.067 0.133 L 0.467 0.133 L 1.267 0.667 L 1.267 0.133 Z" /></svg>