<svg version="1.1" xmlns="http://www.w3.org/2000/svg" viewBox="-8.500000812500005 -5.0000009000000025 17.00000162500001 10.000001800000005" fill="black" stroke="none">
    <path fill-rule="evenodd" d="M -7.5 2.75605 L -4.12402 2.75605 L -4.18383 2.8766 L -4.24195 2.99084 L -4.29772 3.09798 L -4.35045 3.19723 L -4.39949 3.28778 L -4.44416 3.36884 L -4.4838 3.43961 L -4.51773 3.49931 L -4.54528 3.54712 L -4.5658 3.58226 L -4.57859 3.60393 L -4.58301 3.61133 L -4.84219 4 L -1.875 4 L -0.93715 3.92349 L -0.08182 3.71198 L 0.69119 3.39246 L 1.38205 2.99193 L 1.99095 2.53739 L 2.51806 2.05586 L 2.96358 1.57432 L 3.32769 1.11979 L 3.61056 0.71926 L 3.81239 0.39974 L 3.8496 0.33468 L 3.89379 0.46119 L 3.96288 0.59831 L 4.04847 0.72472 L 4.14911 0.83898 L 4.26336 0.93962 L 4.38977 1.02521 L 4.5269 1.0943 L 4.67329 1.14544 L 4.8275 1.17718 L 4.98809 1.18809 L 5.14867 1.17718 L 5.30287 1.14544 L 5.44924 1.0943 L 5.58635 1.02521 L 5.71274 0.93962 L 5.82696 0.83898 L 5.92758 0.72472 L 6.01315 0.59831 L 6.08222 0.46119 L 6.13334 0.3148 L 6.14398 0.26309 L 7.5 0.26309 L 7.5 -0.23691 L 6.14937 -0.23691 L 6.13334 -0.3148 L 6.08222 -0.46119 L 6.01315 -0.59831 L 5.92758 -0.72472 L 5.82696 -0.83898 L 5.71274 -0.93962 L 5.58635 -1.02521 L 5.44924 -1.0943 L 5.30287 -1.14544 L 5.14867 -1.17718 L 4.98809 -1.18809 L 4.8275 -1.17718 L 4.67329 -1.14544 L 4.5269 -1.0943 L 4.38977 -1.02521 L 4.26336 -0.93962 L 4.14911 -0.83898 L 4.04847 -0.72472 L 3.96288 -0.59831 L 3.89379 -0.46119 L 3.8496 -0.33468 L 3.81239 -0.39974 L 3.61056 -0.71926 L 3.32769 -1.11979 L 2.96358 -1.57432 L 2.51806 -2.05586 L 1.99095 -2.53739 L 1.38205 -2.99193 L 0.69119 -3.39246 L -0.08182 -3.71198 L -0.93715 -3.92349 L -1.875 -4 L -4.84219 -4 L -4.58301 -3.61133 L -4.57866 -3.60403 L -4.56607 -3.58266 L -4.54587 -3.54801 L -4.51874 -3.50087 L -4.48532 -3.44203 L -4.44627 -3.37228 L -4.40225 -3.29241 L -4.35391 -3.20322 L -4.30191 -3.10548 L -4.24689 -3 L -4.18953 -2.88755 L -4.13047 -2.76895 L -7.5 -2.76895 L -7.5 -2.26895 L -3.89902 -2.26895 L -3.83146 -2.10199 L -3.76558 -1.9291 L -3.70217 -1.75085 L -3.64204 -1.56781 L -3.58599 -1.38056 L -3.53482 -1.18967 L -3.48932 -0.99571 L -3.4503 -0.79926 L -3.41855 -0.60089 L -3.39489 -0.40118 L -3.38011 -0.20069 L -3.375 0 L -3.38004 0.19939 L -3.39464 0.39857 L -3.41802 0.59699 L -3.44939 0.79409 L -3.48796 0.9893 L -3.53295 1.18208 L -3.58358 1.37185 L -3.63905 1.55806 L -3.69859 1.74014 L -3.76141 1.91754 L -3.82673 2.0897 L -3.89375 2.25605 L -7.5 2.25605 L -7.5 2.75605 Z M 4.3 0 L 4.30623 -0.09398 L 4.32438 -0.18393 L 4.35366 -0.26906 L 4.3933 -0.34858 L 4.44249 -0.42171 L 4.50044 -0.48764 L 4.56638 -0.5456 L 4.6395 -0.59479 L 4.71902 -0.63442 L 4.80415 -0.66371 L 4.8941 -0.68186 L 4.98809 -0.68809 L 5.08206 -0.68186 L 5.172 -0.66371 L 5.25712 -0.63442 L 5.33662 -0.59479 L 5.40972 -0.5456 L 5.47563 -0.48764 L 5.53356 -0.42171 L 5.58273 -0.34858 L 5.62234 -0.26906 L 5.65161 -0.18393 L 5.66975 -0.09398 L 5.67598 0 L 5.66975 0.09398 L 5.65161 0.18393 L 5.62234 0.26906 L 5.58273 0.34858 L 5.53356 0.42171 L 5.47563 0.48764 L 5.40972 0.5456 L 5.33662 0.59479 L 5.25712 0.63442 L 5.172 0.66371 L 5.08206 0.68186 L 4.98809 0.68809 L 4.8941 0.68186 L 4.80415 0.66371 L 4.71902 0.63442 L 4.6395 0.59479 L 4.56638 0.5456 L 4.50044 0.48764 L 4.44249 0.42171 L 4.3933 0.34858 L 4.35366 0.26906 L 4.32438 0.18393 L 4.30623 0.09398 L 4.3 0 Z M -3.93418 3.5 L -3.83544 3.32237 L -3.72697 3.11608 L -3.61225 2.88352 L -3.49477 2.62706 L -3.37804 2.34906 L -3.26554 2.05192 L -3.16076 1.73801 L -3.0672 1.40969 L -2.98835 1.06936 L -2.92771 0.71938 L -2.88876 0.36214 L -2.875 0 L -2.88876 -0.36214 L -2.92771 -0.71938 L -2.98835 -1.06936 L -3.0672 -1.40969 L -3.16076 -1.73801 L -3.26554 -2.05192 L -3.37804 -2.34906 L -3.49477 -2.62706 L -3.61225 -2.88352 L -3.72697 -3.11608 L -3.83544 -3.32237 L -3.93418 -3.5 L -1.875 -3.5 L -1.05783 -3.4373 L -0.30915 -3.26318 L 0.37126 -2.99856 L 0.98363 -2.66439 L 1.52817 -2.28161 L 2.00509 -1.87116 L 2.41462 -1.45398 L 2.75698 -1.05101 L 3.03237 -0.68318 L 3.24103 -0.37145 L 3.38316 -0.13674 L 3.45898 0 L 3.38316 0.13674 L 3.24103 0.37145 L 3.03237 0.68318 L 2.75698 1.05101 L 2.41462 1.45398 L 2.00509 1.87116 L 1.52817 2.28161 L 0.98363 2.66439 L 0.37126 2.99856 L -0.30915 3.26318 L -1.05783 3.4373 L -1.875 3.5 L -3.93418 3.5 Z" />
</svg>