<svg version="1.1" xmlns="http://www.w3.org/2000/svg" viewBox="-7.957 -5 15.913 10" fill="black" stroke="none"><path fill-rule="evenodd" d="M 3.093 3.426 L 6.957 3.426 L 6.957 2.962 L 3.097 2.962 L 3.066 2.874 L 3.019 2.78 L 2.96 2.694 L 2.892 2.616 L 2.814 2.547 L 2.727 2.488 L 2.634 2.441 L 2.534 2.406 L 2.428 2.384 L 2.319 2.377 L 2.209 2.384 L 2.104 2.406 L 2.004 2.441 L 1.91 2.488 L 1.824 2.547 L 1.746 2.616 L 1.677 2.694 L 1.619 2.78 L 1.571 2.874 L 1.536 2.974 L 1.515 3.079 L 1.507 3.188 L 1.515 3.298 L 1.536 3.403 L 1.571 3.503 L 1.619 3.597 L 1.677 3.683 L 1.746 3.761 L 1.824 3.83 L 1.91 3.889 L 2.004 3.936 L 2.104 3.971 L 2.209 3.993 L 2.319 4 L 2.428 3.993 L 2.534 3.971 L 2.634 3.936 L 2.727 3.889 L 2.814 3.83 L 2.892 3.761 L 2.96 3.683 L 3.019 3.597 L 3.066 3.503 L 3.093 3.426 Z M 1.971 3.188 L 1.974 3.141 L 1.983 3.095 L 1.998 3.052 L 2.018 3.012 L 2.043 2.975 L 2.072 2.941 L 2.105 2.912 L 2.142 2.887 L 2.182 2.868 L 2.225 2.853 L 2.271 2.844 L 2.319 2.841 L 2.367 2.844 L 2.412 2.853 L 2.455 2.868 L 2.496 2.887 L 2.533 2.912 L 2.566 2.941 L 2.595 2.975 L 2.62 3.012 L 2.64 3.052 L 2.654 3.095 L 2.664 3.141 L 2.667 3.188 L 2.664 3.236 L 2.654 3.282 L 2.64 3.325 L 2.62 3.365 L 2.595 3.402 L 2.566 3.435 L 2.533 3.465 L 2.496 3.489 L 2.455 3.509 L 2.412 3.524 L 2.367 3.533 L 2.319 3.536 L 2.271 3.533 L 2.225 3.524 L 2.182 3.509 L 2.142 3.489 L 2.105 3.465 L 2.072 3.435 L 2.043 3.402 L 2.018 3.365 L 1.998 3.325 L 1.983 3.282 L 1.974 3.236 L 1.971 3.188 Z M 3.093 -1.212 L 6.957 -1.212 L 6.957 -1.676 L 3.097 -1.676 L 3.066 -1.764 L 3.019 -1.858 L 2.96 -1.944 L 2.892 -2.022 L 2.814 -2.091 L 2.727 -2.149 L 2.634 -2.197 L 2.534 -2.232 L 2.428 -2.253 L 2.319 -2.261 L 2.209 -2.253 L 2.104 -2.232 L 2.004 -2.197 L 1.91 -2.149 L 1.824 -2.091 L 1.746 -2.022 L 1.677 -1.944 L 1.619 -1.858 L 1.571 -1.764 L 1.536 -1.664 L 1.515 -1.559 L 1.507 -1.449 L 1.515 -1.34 L 1.536 -1.234 L 1.571 -1.135 L 1.619 -1.041 L 1.677 -0.955 L 1.746 -0.876 L 1.824 -0.808 L 1.91 -0.749 L 2.004 -0.702 L 2.104 -0.667 L 2.209 -0.645 L 2.319 -0.638 L 2.428 -0.645 L 2.534 -0.667 L 2.634 -0.702 L 2.727 -0.749 L 2.814 -0.808 L 2.892 -0.876 L 2.96 -0.955 L 3.019 -1.041 L 3.066 -1.135 L 3.093 -1.212 Z M 1.971 -1.449 L 1.974 -1.497 L 1.983 -1.543 L 1.998 -1.586 L 2.018 -1.626 L 2.043 -1.663 L 2.072 -1.696 L 2.105 -1.725 L 2.142 -1.75 L 2.182 -1.77 L 2.225 -1.785 L 2.271 -1.794 L 2.319 -1.797 L 2.367 -1.794 L 2.412 -1.785 L 2.455 -1.77 L 2.496 -1.75 L 2.533 -1.725 L 2.566 -1.696 L 2.595 -1.663 L 2.62 -1.626 L 2.64 -1.586 L 2.654 -1.543 L 2.664 -1.497 L 2.667 -1.449 L 2.664 -1.401 L 2.654 -1.356 L 2.64 -1.313 L 2.62 -1.272 L 2.595 -1.236 L 2.566 -1.202 L 2.533 -1.173 L 2.496 -1.148 L 2.455 -1.128 L 2.412 -1.114 L 2.367 -1.105 L 2.319 -1.101 L 2.271 -1.105 L 2.225 -1.114 L 2.182 -1.128 L 2.142 -1.148 L 2.105 -1.173 L 2.072 -1.202 L 2.043 -1.236 L 2.018 -1.272 L 1.998 -1.313 L 1.983 -1.356 L 1.974 -1.401 L 1.971 -1.449 Z M -3.097 -1.223 L -3.066 -1.135 L -3.019 -1.041 L -2.96 -0.955 L -2.892 -0.876 L -2.814 -0.808 L -2.727 -0.749 L -2.634 -0.702 L -2.534 -0.667 L -2.428 -0.645 L -2.319 -0.638 L -2.209 -0.645 L -2.104 -0.667 L -2.004 -0.702 L -1.91 -0.749 L -1.824 -0.808 L -1.746 -0.876 L -1.677 -0.955 L -1.619 -1.041 L -1.571 -1.135 L -1.536 -1.234 L -1.515 -1.34 L -1.507 -1.449 L -1.515 -1.559 L -1.536 -1.664 L -1.571 -1.764 L -1.619 -1.858 L -1.677 -1.944 L -1.746 -2.022 L -1.824 -2.091 L -1.91 -2.149 L -2.004 -2.197 L -2.104 -2.232 L -2.209 -2.253 L -2.319 -2.261 L -2.428 -2.253 L -2.534 -2.232 L -2.634 -2.197 L -2.727 -2.149 L -2.814 -2.091 L -2.892 -2.022 L -2.96 -1.944 L -3.019 -1.858 L -3.066 -1.764 L -3.093 -1.687 L -6.957 -1.687 L -6.957 -1.223 L -3.097 -1.223 Z M -2.667 -1.449 L -2.664 -1.497 L -2.654 -1.543 L -2.64 -1.586 L -2.62 -1.626 L -2.595 -1.663 L -2.566 -1.696 L -2.533 -1.725 L -2.496 -1.75 L -2.455 -1.77 L -2.412 -1.785 L -2.367 -1.794 L -2.319 -1.797 L -2.271 -1.794 L -2.225 -1.785 L -2.182 -1.77 L -2.142 -1.75 L -2.105 -1.725 L -2.072 -1.696 L -2.043 -1.663 L -2.018 -1.626 L -1.998 -1.586 L -1.983 -1.543 L -1.974 -1.497 L -1.971 -1.449 L -1.974 -1.401 L -1.983 -1.356 L -1.998 -1.313 L -2.018 -1.272 L -2.043 -1.236 L -2.072 -1.202 L -2.105 -1.173 L -2.142 -1.148 L -2.182 -1.128 L -2.225 -1.114 L -2.271 -1.105 L -2.319 -1.101 L -2.367 -1.105 L -2.412 -1.114 L -2.455 -1.128 L -2.496 -1.148 L -2.533 -1.173 L -2.566 -1.202 L -2.595 -1.236 L -2.62 -1.272 L -2.64 -1.313 L -2.654 -1.356 L -2.664 -1.401 L -2.667 -1.449 Z M -3.478 -0.058 L 3.478 -0.058 L 3.478 -0.522 L 0.232 -0.522 L 0.232 -3.536 L 1.159 -3.536 L 1.159 -4 L -1.159 -4 L -1.159 -3.536 L -0.232 -3.536 L -0.232 -0.522 L -3.478 -0.522 L -3.478 -0.058 Z M -3.097 3.415 L -3.066 3.503 L -3.019 3.597 L -2.96 3.683 L -2.892 3.761 L -2.814 3.83 L -2.727 3.889 L -2.634 3.936 L -2.534 3.971 L -2.428 3.993 L -2.319 4 L -2.209 3.993 L -2.104 3.971 L -2.004 3.936 L -1.91 3.889 L -1.824 3.83 L -1.746 3.761 L -1.677 3.683 L -1.619 3.597 L -1.571 3.503 L -1.536 3.403 L -1.515 3.298 L -1.507 3.188 L -1.515 3.079 L -1.536 2.974 L -1.571 2.874 L -1.619 2.78 L -1.677 2.694 L -1.746 2.616 L -1.824 2.547 L -1.91 2.488 L -2.004 2.441 L -2.104 2.406 L -2.209 2.384 L -2.319 2.377 L -2.428 2.384 L -2.534 2.406 L -2.634 2.441 L -2.727 2.488 L -2.814 2.547 L -2.892 2.616 L -2.96 2.694 L -3.019 2.78 L -3.066 2.874 L -3.093 2.951 L -6.957 2.951 L -6.957 3.415 L -3.097 3.415 Z M -2.667 3.188 L -2.664 3.141 L -2.654 3.095 L -2.64 3.052 L -2.62 3.012 L -2.595 2.975 L -2.566 2.941 L -2.533 2.912 L -2.496 2.887 L -2.455 2.868 L -2.412 2.853 L -2.367 2.844 L -2.319 2.841 L -2.271 2.844 L -2.225 2.853 L -2.182 2.868 L -2.142 2.887 L -2.105 2.912 L -2.072 2.941 L -2.043 2.975 L -2.018 3.012 L -1.998 3.052 L -1.983 3.095 L -1.974 3.141 L -1.971 3.188 L -1.974 3.236 L -1.983 3.282 L -1.998 3.325 L -2.018 3.365 L -2.043 3.402 L -2.072 3.435 L -2.105 3.465 L -2.142 3.489 L -2.182 3.509 L -2.225 3.524 L -2.271 3.533 L -2.319 3.536 L -2.367 3.533 L -2.412 3.524 L -2.455 3.509 L -2.496 3.489 L -2.533 3.465 L -2.566 3.435 L -2.595 3.402 L -2.62 3.365 L -2.64 3.325 L -2.654 3.282 L -2.664 3.236 L -2.667 3.188 Z" /></svg>