<svg version="1.1" xmlns="http://www.w3.org/2000/svg" viewBox="-7.53825774978216 -5.000000912823243 15.07651549956432 10.000001825646486" fill="black" stroke="none">
    <path fill-rule="evenodd" d="M -4.64805 -0.55781 L -4.95513 -0.25074 L -3.69542 0.08664 L -4.0328 -1.17307 L -4.33987 -0.866 L -5.83931 -2.36544 L -6.14749 -2.05725 L -4.64805 -0.55781 Z M -3.01349 -2.19238 L -3.32056 -1.8853 L -2.06086 -1.54793 L -2.39823 -2.80763 L -2.70531 -2.50056 L -4.20475 -4 L -4.51293 -3.69182 L -3.01349 -2.19238 Z M -4.57678 0.29499 L -4.57678 0.51293 L -4.57678 1.92955 L -6.53826 1.92955 L -6.53826 2.36544 L -4.57678 2.36544 L -4.57678 4 L 4.57678 4 L 4.57678 2.36544 L 6.53826 2.36544 L 6.53826 1.92955 L 4.57678 1.92955 L 4.57678 0.29499 L -4.57678 0.29499 Z M -4.1409 0.73087 L 4.1409 0.73087 L 4.1409 3.56412 L -4.1409 3.56412 L -4.1409 0.73087 Z" />
</svg>