<svg version="1.1" xmlns="http://www.w3.org/2000/svg" viewBox="-8.500000812500005 -5.0000009000000025 17.00000162500001 10.000001800000005" fill="black" stroke="none">
    <path fill-rule="evenodd" d="M 3.96283 0.58625 L 3.96288 0.58635 L 4.04847 0.71274 L 4.14911 0.82696 L 4.26336 0.92758 L 4.38977 1.01315 L 4.5269 1.08222 L 4.67329 1.13334 L 4.8275 1.16508 L 4.98809 1.17598 L 5.14867 1.16508 L 5.30287 1.13334 L 5.44924 1.08222 L 5.58635 1.01315 L 5.71274 0.92758 L 5.82696 0.82696 L 5.92758 0.71274 L 6.01315 0.58635 L 6.08222 0.44924 L 6.13334 0.30287 L 6.14422 0.25 L 7.5 0.25 L 7.5 -0.25 L 6.14913 -0.25 L 6.13334 -0.32671 L 6.08222 -0.4731 L 6.01315 -0.61023 L 5.92758 -0.73664 L 5.82696 -0.85089 L 5.71274 -0.95153 L 5.58635 -1.03712 L 5.44924 -1.10621 L 5.30287 -1.15735 L 5.14867 -1.1891 L 4.98809 -1.2 L 4.8275 -1.1891 L 4.67329 -1.15735 L 4.5269 -1.10621 L 4.38977 -1.03712 L 4.26336 -0.95153 L 4.14911 -0.85089 L 4.04847 -0.73664 L 3.96288 -0.61023 L 3.9602 -0.60492 L 3.91793 -0.90589 L 3.81964 -1.3056 L 3.68701 -1.67136 L 3.52289 -2.00432 L 3.33016 -2.30563 L 3.11169 -2.57644 L 2.87033 -2.8179 L 2.60895 -3.03116 L 2.33043 -3.21738 L 2.03762 -3.3777 L 1.7334 -3.51328 L 1.42068 -3.62671 L 1.10208 -3.72099 L 0.78002 -3.79789 L 0.45693 -3.85918 L 0.13521 -3.90664 L -0.1827 -3.94203 L -0.4944 -3.96711 L -0.79747 -3.98367 L -1.08948 -3.99347 L -1.36802 -3.99828 L -1.63066 -3.99986 L -1.875 -4 L -4.625 -4 L -4.625 -3.75 L -4.625 -2.76895 L -7.5 -2.76895 L -7.5 -2.26895 L -4.625 -2.26895 L -4.625 2.25605 L -7.5 2.25605 L -7.5 2.75605 L -4.625 2.75605 L -4.625 4 L -1.875 4 L -1.63066 3.99986 L -1.36802 3.99828 L -1.08948 3.99347 L -0.79747 3.98367 L -0.4944 3.96711 L -0.1827 3.94203 L 0.13521 3.90664 L 0.45693 3.85918 L 0.78002 3.79789 L 1.10208 3.72099 L 1.42068 3.62671 L 1.7334 3.51328 L 2.03762 3.3777 L 2.33043 3.21738 L 2.60895 3.03116 L 2.87033 2.8179 L 3.11169 2.57644 L 3.33016 2.30563 L 3.52289 2.00432 L 3.68701 1.67136 L 3.81964 1.3056 L 3.91793 0.90589 L 3.96283 0.58625 Z M 4.98809 -0.7 L 5.08206 -0.69377 L 5.172 -0.67562 L 5.25712 -0.64634 L 5.33662 -0.6067 L 5.40972 -0.55751 L 5.47563 -0.49956 L 5.53356 -0.43362 L 5.58273 -0.3605 L 5.62234 -0.28098 L 5.65161 -0.19585 L 5.66975 -0.1059 L 5.67598 -0.01191 L 5.66975 0.08206 L 5.65161 0.172 L 5.62234 0.25712 L 5.58273 0.33662 L 5.53356 0.40972 L 5.47563 0.47563 L 5.40972 0.53356 L 5.33662 0.58273 L 5.25712 0.62234 L 5.172 0.65161 L 5.08206 0.66975 L 4.98809 0.67598 L 4.8941 0.66975 L 4.80415 0.65161 L 4.71902 0.62234 L 4.6395 0.58273 L 4.56638 0.53356 L 4.50044 0.47563 L 4.44249 0.40972 L 4.3933 0.33662 L 4.35366 0.25712 L 4.32438 0.172 L 4.30623 0.08206 L 4.3 -0.01191 L 4.30623 -0.1059 L 4.32438 -0.19585 L 4.35366 -0.28098 L 4.3933 -0.3605 L 4.44249 -0.43362 L 4.50044 -0.49956 L 4.56638 -0.55751 L 4.6395 -0.6067 L 4.71902 -0.64634 L 4.80415 -0.67562 L 4.8941 -0.69377 L 4.98809 -0.7 Z M -4.125 -3.5 L -1.875 -3.5 L -1.63187 -3.49959 L -1.37287 -3.49738 L -1.10046 -3.49188 L -0.81711 -3.48161 L -0.52529 -3.46507 L -0.22745 -3.44079 L 0.07393 -3.40727 L 0.3764 -3.36304 L 0.6775 -3.3066 L 0.97474 -3.23648 L 1.26568 -3.15118 L 1.54785 -3.04922 L 1.81899 -2.93035 L 2.07712 -2.79391 L 2.32025 -2.63778 L 2.54634 -2.45988 L 2.75338 -2.25809 L 2.93937 -2.03031 L 3.10227 -1.77443 L 3.24007 -1.48836 L 3.35077 -1.16998 L 3.43233 -0.8172 L 3.48275 -0.42791 L 3.5 0 L 3.48275 0.42791 L 3.43233 0.8172 L 3.35077 1.16998 L 3.24007 1.48836 L 3.10227 1.77443 L 2.93937 2.03031 L 2.75338 2.25809 L 2.54634 2.45988 L 2.32025 2.63778 L 2.07712 2.79391 L 1.81899 2.93035 L 1.54785 3.04922 L 1.26568 3.15118 L 0.97474 3.23648 L 0.6775 3.3066 L 0.3764 3.36304 L 0.07393 3.40727 L -0.22745 3.44079 L -0.52529 3.46507 L -0.81711 3.48161 L -1.10046 3.49188 L -1.37287 3.49738 L -1.63187 3.49959 L -1.875 3.5 L -4.125 3.5 L -4.125 -3.5 Z" />
</svg>