<svg version="1.1" xmlns="http://www.w3.org/2000/svg" viewBox="-9.536653444508843 -5.0000008861779675 19.073306889017687 10.000001772355935" fill="black" stroke="none">
    <path fill-rule="evenodd" d="M 0.79675 -3.26016 L 0.79675 3.79681 L 1.36586 3.79681 L 1.36586 0.54955 L 8.53665 0.54955 L 8.53665 -0.01956 L 1.36586 -0.01956 L 1.36586 -3.26016 L 0.79675 -3.26016 Z M 4.69516 -4 L 4.69516 -2.86178 L 3.55694 -2.86178 L 3.55694 -2.29267 L 4.69516 -2.29267 L 4.69516 -1.15445 L 5.26427 -1.15445 L 5.26427 -2.29267 L 6.40249 -2.29267 L 6.40249 -2.86178 L 5.26427 -2.86178 L 5.26427 -4 L 4.69516 -4 Z M -2.19107 -3.46335 L -2.58945 -3.05697 L -2.56561 -3.03207 L -2.49945 -2.95868 L -2.39896 -2.83875 L -2.27217 -2.67424 L -2.12708 -2.46711 L -1.97172 -2.2193 L -1.8141 -1.93277 L -1.66223 -1.60948 L -1.52411 -1.25138 L -1.40778 -0.86042 L -1.32124 -0.43857 L -1.27249 0.01223 L -8.53665 0.01223 L -8.53665 0.58134 L -1.27694 0.58134 L -1.33009 1.02414 L -1.41933 1.43841 L -1.5369 1.82225 L -1.67503 2.17375 L -1.82598 2.49101 L -1.98198 2.77214 L -2.13526 3.01523 L -2.27808 3.21838 L -2.40266 3.3797 L -2.50126 3.49728 L -2.56611 3.56922 L -2.58945 3.59362 L -2.19107 4 L -2.1614 3.96975 L -2.07936 3.88057 L -1.95543 3.73483 L -1.80007 3.53489 L -1.62378 3.28313 L -1.437 2.9819 L -1.25023 2.63358 L -1.07393 2.24052 L -0.91858 1.8051 L -0.79465 1.32969 L -0.71261 0.81664 L -0.68293 0.26833 L -0.71261 -0.27999 L -0.79465 -0.79303 L -0.91858 -1.26845 L -1.07393 -1.70387 L -1.25023 -2.09692 L -1.437 -2.44525 L -1.62378 -2.74647 L -1.80007 -2.99824 L -1.95543 -3.19817 L -2.07936 -3.34391 L -2.1614 -3.43309 L -2.19107 -3.46335 Z" />
</svg>