<svg version="1.1" xmlns="http://www.w3.org/2000/svg" viewBox="-5.367103191023969 -5.0000009418181826 10.734206382047939 10.000001883636365" fill="black" stroke="none">
    <path fill-rule="evenodd" d="M -0.51256 4 L -0.22165 4 L -0.22165 -4 L -0.51256 -4 L -0.51256 4 Z M -4.3671 3.78182 L -2.17778 3.78182 L -2.17177 3.78179 L -2.15439 3.7814 L -2.12665 3.78018 L -2.08955 3.7777 L -2.0441 3.77348 L -1.9913 3.76708 L -1.93216 3.75804 L -1.86768 3.7459 L -1.79886 3.73021 L -1.72671 3.71051 L -1.65223 3.68635 L -1.57642 3.65727 L -1.49995 3.62215 L -1.42364 3.58001 L -1.34871 3.53065 L -1.27641 3.47388 L -1.20799 3.40947 L -1.14467 3.33723 L -1.08769 3.25694 L -1.03829 3.1684 L -0.99772 3.07141 L -0.9672 2.96575 L -0.94799 2.85122 L -0.94131 2.72761 L -0.94746 2.60896 L -0.9652 2.49881 L -0.99343 2.39695 L -1.03105 2.30317 L -1.07697 2.21725 L -1.1301 2.13899 L -1.18935 2.06816 L -1.25361 2.00457 L -1.32181 1.948 L -1.39284 1.89824 L -1.46561 1.85508 L -1.53903 1.8183 L -1.46562 1.78155 L -1.39285 1.73842 L -1.32182 1.6887 L -1.25363 1.63217 L -1.18936 1.56862 L -1.13011 1.49785 L -1.07698 1.41963 L -1.03105 1.33375 L -0.99343 1.24 L -0.9652 1.13818 L -0.94746 1.02806 L -0.94131 0.90943 L -0.94746 0.79078 L -0.9652 0.68063 L -0.99343 0.57877 L -1.03105 0.48499 L -1.07697 0.39907 L -1.1301 0.3208 L -1.18935 0.24998 L -1.25361 0.18639 L -1.32181 0.12982 L -1.39284 0.08006 L -1.46561 0.03689 L -1.53903 0.00011 L -1.46562 -0.03663 L -1.39285 -0.07976 L -1.32182 -0.12949 L -1.25363 -0.18601 L -1.18936 -0.24956 L -1.13011 -0.32034 L -1.07698 -0.39856 L -1.03105 -0.48443 L -0.99343 -0.57818 L -0.9652 -0.68 L -0.94746 -0.79012 L -0.94131 -0.90875 L -0.94748 -1.02755 L -0.96526 -1.13782 L -0.99355 -1.23979 L -1.03126 -1.33367 L -1.07729 -1.41966 L -1.13054 -1.49798 L -1.18991 -1.56884 L -1.2543 -1.63245 L -1.32262 -1.68902 L -1.39377 -1.73877 L -1.46665 -1.7819 L -1.54017 -1.81864 L -1.46706 -1.85543 L -1.39462 -1.8986 L -1.32392 -1.94834 L -1.25606 -2.00487 L -1.19211 -2.0684 L -1.13317 -2.13914 L -1.08032 -2.21731 L -1.03464 -2.30311 L -0.99723 -2.39676 L -0.96916 -2.49848 L -0.95152 -2.60846 L -0.9454 -2.72693 L -0.9521 -2.85058 L -0.97137 -2.96516 L -1.00198 -3.07086 L -1.04268 -3.1679 L -1.09222 -3.25648 L -1.14937 -3.33681 L -1.21287 -3.40909 L -1.2815 -3.47353 L -1.354 -3.53034 L -1.42913 -3.57973 L -1.50566 -3.62189 L -1.58233 -3.65705 L -1.65833 -3.68615 L -1.73301 -3.71033 L -1.80535 -3.73006 L -1.87435 -3.74577 L -1.93901 -3.75794 L -1.9983 -3.767 L -2.05124 -3.77342 L -2.09681 -3.77766 L -2.13401 -3.78016 L -2.16182 -3.78139 L -2.17925 -3.78179 L -2.18528 -3.78182 L -4.3671 -3.78182 L -4.3671 -3.49091 L -2.18528 -3.49091 L -2.18024 -3.49081 L -2.16568 -3.49029 L -2.14252 -3.48902 L -2.11164 -3.48667 L -2.07394 -3.48288 L -2.0303 -3.47734 L -1.98163 -3.46971 L -1.92881 -3.45965 L -1.87274 -3.44682 L -1.8143 -3.43089 L -1.7544 -3.41154 L -1.69392 -3.38841 L -1.63411 -3.36185 L -1.57604 -3.33204 L -1.52038 -3.29839 L -1.46778 -3.26033 L -1.41891 -3.21726 L -1.37441 -3.16861 L -1.33496 -3.1138 L -1.3012 -3.05225 L -1.2738 -2.98336 L -1.25341 -2.90657 L -1.24069 -2.82129 L -1.23631 -2.72693 L -1.24066 -2.63249 L -1.25329 -2.54716 L -1.27353 -2.47034 L -1.30074 -2.40146 L -1.33425 -2.33993 L -1.37341 -2.28516 L -1.41757 -2.23657 L -1.46607 -2.19357 L -1.51826 -2.15558 L -1.57348 -2.12201 L -1.63108 -2.09228 L -1.6904 -2.0658 L -1.75037 -2.04273 L -1.80977 -2.02343 L -1.86772 -2.00756 L -1.92332 -1.99477 L -1.9757 -1.98474 L -2.02397 -1.97714 L -2.06725 -1.97162 L -2.10464 -1.96785 L -2.13526 -1.96551 L -2.15823 -1.96424 L -2.17266 -1.96373 L -2.17767 -1.96364 L -2.19647 -1.96216 L -2.21492 -1.95826 L -2.23271 -1.952 L -2.24954 -1.9435 L -2.26513 -1.93289 L -2.27922 -1.92035 L -2.29157 -1.9061 L -2.30196 -1.89037 L -2.31024 -1.87343 L -2.31626 -1.85556 L -2.31991 -1.83706 L -2.32114 -1.81824 L -2.31993 -1.79942 L -2.31629 -1.78092 L -2.31029 -1.76304 L -2.30202 -1.74609 L -2.29164 -1.73035 L -2.2793 -1.71609 L -2.26522 -1.70354 L -2.24964 -1.69292 L -2.23282 -1.68441 L -2.21503 -1.67814 L -2.19658 -1.67422 L -2.17779 -1.67273 L -2.17776 -1.67273 L -2.17774 -1.67273 L -2.17773 -1.67273 L -2.17767 -1.67273 L -2.17264 -1.67263 L -2.15815 -1.67211 L -2.13508 -1.67083 L -2.10432 -1.66847 L -2.06677 -1.66468 L -2.02331 -1.65914 L -1.97483 -1.6515 L -1.92221 -1.64143 L -1.86636 -1.62861 L -1.80815 -1.61269 L -1.74848 -1.59334 L -1.68824 -1.57023 L -1.62865 -1.54369 L -1.5708 -1.5139 L -1.51534 -1.48027 L -1.46292 -1.44222 L -1.41422 -1.39916 L -1.36987 -1.35053 L -1.33055 -1.29572 L -1.2969 -1.23416 L -1.26959 -1.16527 L -1.24926 -1.08846 L -1.23659 -1.00315 L -1.23222 -0.90875 L -1.23659 -0.81436 L -1.24926 -0.72906 L -1.26957 -0.65227 L -1.29688 -0.5834 L -1.33051 -0.52187 L -1.36982 -0.46709 L -1.41415 -0.41849 L -1.46285 -0.37547 L -1.51525 -0.33746 L -1.5707 -0.30387 L -1.62854 -0.27412 L -1.68812 -0.24761 L -1.74837 -0.22454 L -1.80804 -0.20522 L -1.86626 -0.18934 L -1.92212 -0.17656 L -1.97475 -0.16653 L -2.02324 -0.15893 L -2.06672 -0.15341 L -2.10429 -0.14965 L -2.13506 -0.14731 L -2.15814 -0.14606 L -2.17264 -0.14555 L -2.17767 -0.14545 L -2.19647 -0.14397 L -2.21492 -0.14007 L -2.23271 -0.13382 L -2.24954 -0.12532 L -2.26513 -0.11471 L -2.27922 -0.10217 L -2.29157 -0.08792 L -2.30196 -0.07219 L -2.31024 -0.05525 L -2.31626 -0.03737 L -2.31991 -0.01887 L -2.32114 -0.00006 L -2.31993 0.01876 L -2.31629 0.03726 L -2.31029 0.05514 L -2.30202 0.07209 L -2.29164 0.08783 L -2.2793 0.10209 L -2.26522 0.11464 L -2.24964 0.12526 L -2.23282 0.13378 L -2.21503 0.14004 L -2.19658 0.14396 L -2.17779 0.14545 L -2.17767 0.14545 L -2.17264 0.14555 L -2.15815 0.14607 L -2.13508 0.14735 L -2.10432 0.14971 L -2.06677 0.1535 L -2.02331 0.15905 L -1.97483 0.16668 L -1.92221 0.17675 L -1.86636 0.18957 L -1.80815 0.20549 L -1.74848 0.22484 L -1.68824 0.24795 L -1.62865 0.27449 L -1.5708 0.30429 L -1.51534 0.33792 L -1.46292 0.37596 L -1.41422 0.41902 L -1.36987 0.46765 L -1.33055 0.52246 L -1.2969 0.58402 L -1.26959 0.65291 L -1.24926 0.72972 L -1.23659 0.81504 L -1.23222 0.90943 L -1.23659 1.00382 L -1.24926 1.08912 L -1.26957 1.16592 L -1.29688 1.23479 L -1.33051 1.29632 L -1.36982 1.35109 L -1.41415 1.39969 L -1.46285 1.44271 L -1.51525 1.48072 L -1.5707 1.51431 L -1.62854 1.54406 L -1.68812 1.57057 L -1.74837 1.59365 L -1.80804 1.61296 L -1.86626 1.62884 L -1.92212 1.64163 L -1.97475 1.65165 L -2.02324 1.65926 L -2.06672 1.66477 L -2.10429 1.66853 L -2.13506 1.67087 L -2.15814 1.67212 L -2.17264 1.67263 L -2.17767 1.67273 L -2.19647 1.67421 L -2.21492 1.67811 L -2.23271 1.68436 L -2.24954 1.69286 L -2.26513 1.70347 L -2.27922 1.71601 L -2.29157 1.73026 L -2.30196 1.74599 L -2.31024 1.76294 L -2.31626 1.78081 L -2.31991 1.79931 L -2.32114 1.81812 L -2.31993 1.83694 L -2.31629 1.85545 L -2.31029 1.87332 L -2.30202 1.89027 L -2.29164 1.90601 L -2.2793 1.92027 L -2.26522 1.93282 L -2.24964 1.94344 L -2.23282 1.95196 L -2.21503 1.95823 L -2.19658 1.96214 L -2.17779 1.96364 L -2.17776 1.96364 L -2.17774 1.96364 L -2.17773 1.96364 L -2.17767 1.96364 L -2.17264 1.96374 L -2.15815 1.96426 L -2.13508 1.96553 L -2.10432 1.96789 L -2.06677 1.97168 L -2.02331 1.97723 L -1.97483 1.98487 L -1.92221 1.99493 L -1.86636 2.00775 L -1.80815 2.02367 L -1.74848 2.04302 L -1.68824 2.06614 L -1.62865 2.09268 L -1.5708 2.12247 L -1.51534 2.1561 L -1.46292 2.19415 L -1.41422 2.2372 L -1.36987 2.28584 L -1.33055 2.34064 L -1.2969 2.4022 L -1.26959 2.4711 L -1.24926 2.54791 L -1.23659 2.63322 L -1.23222 2.72761 L -1.23659 2.82201 L -1.24926 2.90731 L -1.26957 2.9841 L -1.29688 3.05297 L -1.33051 3.1145 L -1.36982 3.16927 L -1.41415 3.21787 L -1.46285 3.26089 L -1.51525 3.2989 L -1.5707 3.33249 L -1.62854 3.36225 L -1.68812 3.38875 L -1.74837 3.41183 L -1.80804 3.43114 L -1.86626 3.44702 L -1.92212 3.45981 L -1.97475 3.46984 L -2.02324 3.47744 L -2.06672 3.48295 L -2.10429 3.48671 L -2.13506 3.48905 L -2.15814 3.49031 L -2.17264 3.49081 L -2.17767 3.49091 L -4.3671 3.49091 L -4.3671 3.78182 Z M 0.21472 4 L 0.50563 4 L 0.50563 -4 L 0.21472 -4 L 0.21472 4 Z M 0.93506 2.81773 L 0.93677 2.87606 L 0.94182 2.93256 L 0.95005 2.98718 L 0.9613 3.03988 L 0.97543 3.09062 L 0.99229 3.13936 L 1.01172 3.18607 L 1.03358 3.23069 L 1.05771 3.2732 L 1.08396 3.31355 L 1.11218 3.3517 L 1.14222 3.38761 L 1.1738 3.42131 L 1.20667 3.45291 L 1.24068 3.48248 L 1.27568 3.5101 L 1.31155 3.53585 L 1.34813 3.5598 L 1.3853 3.58204 L 1.42289 3.60264 L 1.46079 3.62168 L 1.49883 3.63924 L 1.5369 3.6554 L 1.57483 3.67023 L 1.65013 3.69627 L 1.72409 3.71791 L 1.7957 3.73556 L 1.86398 3.74962 L 1.92795 3.76049 L 1.9866 3.7686 L 2.03894 3.77434 L 2.08399 3.77812 L 2.12075 3.78035 L 2.14824 3.78144 L 2.16546 3.78179 L 2.17142 3.78182 L 4.35324 3.78182 L 4.35324 3.49091 L 2.17142 3.49091 L 2.16633 3.49082 L 2.15166 3.49034 L 2.12832 3.48918 L 2.0972 3.48703 L 2.05922 3.48359 L 2.01528 3.47855 L 1.96628 3.47161 L 1.91312 3.46247 L 1.8567 3.45083 L 1.79794 3.43638 L 1.73774 3.41881 L 1.67699 3.39784 L 1.64678 3.38601 L 1.61694 3.37328 L 1.58755 3.35965 L 1.55872 3.3451 L 1.53055 3.32963 L 1.50312 3.31322 L 1.47653 3.29586 L 1.45088 3.27754 L 1.42627 3.25825 L 1.40279 3.23797 L 1.38053 3.21671 L 1.3596 3.19443 L 1.33997 3.17117 L 1.32159 3.14686 L 1.30457 3.12137 L 1.28898 3.09457 L 1.2749 3.06634 L 1.26243 3.03654 L 1.25164 3.00505 L 1.24262 2.97174 L 1.23546 2.93648 L 1.23024 2.89915 L 1.22705 2.8596 L 1.22597 2.81773 L 1.22705 2.77585 L 1.23024 2.73632 L 1.23546 2.699 L 1.24263 2.66376 L 1.25164 2.63047 L 1.26243 2.59901 L 1.27491 2.56923 L 1.28898 2.54103 L 1.30458 2.51425 L 1.3216 2.48879 L 1.33997 2.46449 L 1.3596 2.44125 L 1.38053 2.41899 L 1.40278 2.39773 L 1.42626 2.37747 L 1.45088 2.35818 L 1.47652 2.33987 L 1.50311 2.32252 L 1.53054 2.30611 L 1.55872 2.29064 L 1.58755 2.27611 L 1.61694 2.26249 L 1.64678 2.24977 L 1.67699 2.23795 L 1.73773 2.21701 L 1.79793 2.19948 L 1.85668 2.18506 L 1.91308 2.17345 L 1.96623 2.16433 L 2.01522 2.15741 L 2.05915 2.15239 L 2.09712 2.14896 L 2.12822 2.14682 L 2.15156 2.14567 L 2.16622 2.1452 L 2.17131 2.14511 L 2.17133 2.14511 L 2.17134 2.14511 L 2.17135 2.14511 L 2.17137 2.14511 L 2.17142 2.14511 L 2.19022 2.14363 L 2.20867 2.13972 L 2.22646 2.13346 L 2.24329 2.12495 L 2.25887 2.11433 L 2.27295 2.10179 L 2.28529 2.08753 L 2.29569 2.0718 L 2.30396 2.05485 L 2.30997 2.03698 L 2.31361 2.01848 L 2.31484 1.99966 L 2.31361 1.98084 L 2.30997 1.96234 L 2.30396 1.94447 L 2.29569 1.92752 L 2.28529 1.91178 L 2.27295 1.89753 L 2.25887 1.88499 L 2.24329 1.87437 L 2.22646 1.86586 L 2.20867 1.8596 L 2.19022 1.85569 L 2.17142 1.8542 L 2.16633 1.85411 L 2.15167 1.85364 L 2.12832 1.85249 L 2.09721 1.85034 L 2.05923 1.84691 L 2.01529 1.84188 L 1.96628 1.83495 L 1.91312 1.82582 L 1.85671 1.81419 L 1.79795 1.79975 L 1.73774 1.78221 L 1.67699 1.76125 L 1.64678 1.74942 L 1.61694 1.7367 L 1.58755 1.72308 L 1.55872 1.70854 L 1.53054 1.69307 L 1.50311 1.67667 L 1.47653 1.65932 L 1.45088 1.64101 L 1.42627 1.62173 L 1.40279 1.60146 L 1.38053 1.58021 L 1.35961 1.55795 L 1.33997 1.53471 L 1.3216 1.51043 L 1.30458 1.48497 L 1.28898 1.45821 L 1.27491 1.43001 L 1.26243 1.40025 L 1.25164 1.36881 L 1.24263 1.33554 L 1.23547 1.30033 L 1.23025 1.26304 L 1.22705 1.22354 L 1.22597 1.1817 L 1.22705 1.13987 L 1.23025 1.10036 L 1.23547 1.06306 L 1.24263 1.02784 L 1.25164 0.99456 L 1.26243 0.9631 L 1.27491 0.93333 L 1.28898 0.90512 L 1.30458 0.87834 L 1.3216 0.85288 L 1.33997 0.82858 L 1.35961 0.80534 L 1.38053 0.78308 L 1.40279 0.76183 L 1.42627 0.74157 L 1.45088 0.72229 L 1.47653 0.70398 L 1.50311 0.68663 L 1.53054 0.67022 L 1.55872 0.65476 L 1.58755 0.64022 L 1.61694 0.62659 L 1.64678 0.61387 L 1.67699 0.60205 L 1.73774 0.58109 L 1.79795 0.56354 L 1.85671 0.5491 L 1.91312 0.53747 L 1.96628 0.52835 L 2.01529 0.52142 L 2.05923 0.51639 L 2.09721 0.51295 L 2.12832 0.51081 L 2.15167 0.50965 L 2.16633 0.50918 L 2.17142 0.50909 L 4.36017 0.50909 L 4.36017 0.21818 L 2.17142 0.21818 L 2.16546 0.21821 L 2.14824 0.21856 L 2.12075 0.21965 L 2.08399 0.22187 L 2.03894 0.22565 L 1.98659 0.23138 L 1.92794 0.23947 L 1.86398 0.25034 L 1.7957 0.26438 L 1.72408 0.28201 L 1.65013 0.30363 L 1.57483 0.32966 L 1.5369 0.34448 L 1.49884 0.36062 L 1.46079 0.37816 L 1.4229 0.39719 L 1.3853 0.41777 L 1.34814 0.43999 L 1.31156 0.46392 L 1.27569 0.48965 L 1.24068 0.51725 L 1.20667 0.54679 L 1.1738 0.57837 L 1.14222 0.61205 L 1.11217 0.64794 L 1.08395 0.68607 L 1.0577 0.7264 L 1.03357 0.76889 L 1.01172 0.81351 L 0.99229 0.8602 L 0.97543 0.90892 L 0.9613 0.95965 L 0.95004 1.01233 L 0.94182 1.06693 L 0.93677 1.1234 L 0.93506 1.1817 L 0.93677 1.24001 L 0.94182 1.29647 L 0.95004 1.35106 L 0.9613 1.40373 L 0.97543 1.45444 L 0.99229 1.50316 L 1.01172 1.54983 L 1.03357 1.59443 L 1.0577 1.63691 L 1.08395 1.67724 L 1.11217 1.71536 L 1.14222 1.75125 L 1.16885 1.77976 L 1.19642 1.80656 L 1.22486 1.83173 L 1.25406 1.85538 L 1.28394 1.87757 L 1.31442 1.8984 L 1.3454 1.91795 L 1.3768 1.9363 L 1.40853 1.95356 L 1.44051 1.96979 L 1.47263 1.98509 L 1.50483 1.99955 L 1.47263 2.014 L 1.4405 2.0293 L 1.40852 2.04554 L 1.37679 2.0628 L 1.34539 2.08117 L 1.31441 2.10073 L 1.28394 2.12157 L 1.25406 2.14378 L 1.22486 2.16743 L 1.19643 2.19262 L 1.16885 2.21944 L 1.14222 2.24795 L 1.11217 2.28385 L 1.08395 2.32199 L 1.0577 2.36233 L 1.03357 2.40482 L 1.01172 2.44944 L 0.99228 2.49613 L 0.97543 2.54486 L 0.9613 2.5956 L 0.95004 2.64829 L 0.94182 2.7029 L 0.93677 2.75939 L 0.93506 2.81773 Z M 0.94199 -1.18227 L 0.9437 -1.12394 L 0.94875 -1.06744 L 0.95698 -1.01282 L 0.96823 -0.96012 L 0.98236 -0.90938 L 0.99922 -0.86064 L 1.01865 -0.81393 L 1.04051 -0.76931 L 1.06464 -0.7268 L 1.09089 -0.68645 L 1.11911 -0.6483 L 1.14915 -0.61239 L 1.18073 -0.57869 L 1.2136 -0.54709 L 1.24761 -0.51752 L 1.28262 -0.4899 L 1.31848 -0.46415 L 1.35507 -0.4402 L 1.39223 -0.41796 L 1.42983 -0.39736 L 1.46772 -0.37832 L 1.50577 -0.36076 L 1.54383 -0.3446 L 1.58176 -0.32977 L 1.65706 -0.30373 L 1.73102 -0.28209 L 1.80263 -0.26444 L 1.87092 -0.25038 L 1.93488 -0.23951 L 1.99353 -0.2314 L 2.04587 -0.22566 L 2.09092 -0.22188 L 2.12769 -0.21965 L 2.15517 -0.21856 L 2.17239 -0.21821 L 2.17835 -0.21818 L 4.36017 -0.21818 L 4.36017 -0.50909 L 2.17835 -0.50909 L 2.17326 -0.50918 L 2.1586 -0.50966 L 2.13527 -0.51082 L 2.10417 -0.51297 L 2.0662 -0.51641 L 2.02227 -0.52145 L 1.97328 -0.52839 L 1.92013 -0.53753 L 1.86373 -0.54917 L 1.80498 -0.56362 L 1.74478 -0.58119 L 1.68403 -0.60216 L 1.65383 -0.61399 L 1.62398 -0.62672 L 1.5946 -0.64035 L 1.56577 -0.6549 L 1.53759 -0.67037 L 1.51016 -0.68678 L 1.48357 -0.70414 L 1.45793 -0.72246 L 1.43332 -0.74175 L 1.40983 -0.76203 L 1.38758 -0.78329 L 1.36665 -0.80557 L 1.34701 -0.82883 L 1.32863 -0.85314 L 1.3116 -0.87863 L 1.29599 -0.90543 L 1.2819 -0.93366 L 1.26941 -0.96346 L 1.25861 -0.99495 L 1.24958 -1.02826 L 1.24241 -1.06352 L 1.23718 -1.10085 L 1.23398 -1.1404 L 1.2329 -1.18227 L 1.23398 -1.22415 L 1.23718 -1.26368 L 1.24241 -1.301 L 1.24959 -1.33624 L 1.25862 -1.36953 L 1.26942 -1.40099 L 1.28191 -1.43077 L 1.296 -1.45897 L 1.3116 -1.48575 L 1.32864 -1.51121 L 1.34701 -1.5355 L 1.36665 -1.55875 L 1.38757 -1.58101 L 1.40982 -1.60227 L 1.43329 -1.62253 L 1.45789 -1.64182 L 1.48353 -1.66013 L 1.5101 -1.67748 L 1.53752 -1.69389 L 1.56568 -1.70936 L 1.5945 -1.72389 L 1.62388 -1.73751 L 1.65372 -1.75023 L 1.68392 -1.76205 L 1.74466 -1.78299 L 1.80486 -1.80052 L 1.86361 -1.81494 L 1.92001 -1.82655 L 1.97316 -1.83567 L 2.02215 -1.84259 L 2.06608 -1.84761 L 2.10405 -1.85104 L 2.13515 -1.85318 L 2.15849 -1.85433 L 2.17315 -1.8548 L 2.17824 -1.85489 L 2.17827 -1.85489 L 2.17828 -1.85489 L 2.1783 -1.85489 L 2.17836 -1.85489 L 2.19715 -1.85637 L 2.2156 -1.86027 L 2.23339 -1.86652 L 2.25023 -1.87502 L 2.26582 -1.88563 L 2.2799 -1.89817 L 2.29225 -1.91242 L 2.30265 -1.92815 L 2.31093 -1.94509 L 2.31694 -1.96297 L 2.3206 -1.98147 L 2.32183 -2.00028 L 2.32061 -2.0191 L 2.31697 -2.0376 L 2.31097 -2.05548 L 2.30271 -2.07243 L 2.29232 -2.08817 L 2.27998 -2.10243 L 2.26591 -2.11498 L 2.25033 -2.1256 L 2.2335 -2.13412 L 2.21572 -2.14039 L 2.19727 -2.1443 L 2.17847 -2.1458 L 2.17844 -2.1458 L 2.17843 -2.1458 L 2.17841 -2.1458 L 2.17836 -2.1458 L 2.17327 -2.14589 L 2.1586 -2.14636 L 2.13526 -2.14751 L 2.10414 -2.14966 L 2.06616 -2.15309 L 2.02222 -2.15812 L 1.97322 -2.16505 L 1.92006 -2.17418 L 1.86364 -2.18581 L 1.80488 -2.20025 L 1.74467 -2.21779 L 1.68392 -2.23875 L 1.65372 -2.25058 L 1.62388 -2.2633 L 1.5945 -2.27692 L 1.56568 -2.29146 L 1.53752 -2.30693 L 1.5101 -2.32333 L 1.48353 -2.34068 L 1.45789 -2.35899 L 1.4333 -2.37827 L 1.40982 -2.39854 L 1.38758 -2.41979 L 1.36665 -2.44205 L 1.34701 -2.46529 L 1.32864 -2.48957 L 1.3116 -2.51503 L 1.296 -2.54179 L 1.28191 -2.56999 L 1.26942 -2.59975 L 1.25862 -2.63119 L 1.24959 -2.66446 L 1.24241 -2.69967 L 1.23718 -2.73696 L 1.23398 -2.77646 L 1.2329 -2.8183 L 1.23398 -2.86013 L 1.23718 -2.89964 L 1.24241 -2.93694 L 1.24959 -2.97216 L 1.25862 -3.00544 L 1.26942 -3.0369 L 1.28191 -3.06667 L 1.296 -3.09488 L 1.3116 -3.12166 L 1.32863 -3.14712 L 1.34701 -3.17142 L 1.36665 -3.19466 L 1.38758 -3.21692 L 1.40982 -3.23817 L 1.43329 -3.25843 L 1.45789 -3.27771 L 1.48353 -3.29602 L 1.5101 -3.31337 L 1.53751 -3.32978 L 1.56568 -3.34524 L 1.5945 -3.35978 L 1.62387 -3.37341 L 1.65371 -3.38613 L 1.68392 -3.39795 L 1.74467 -3.41891 L 1.80488 -3.43646 L 1.86364 -3.4509 L 1.92005 -3.46253 L 1.97321 -3.47165 L 2.02222 -3.47858 L 2.06616 -3.48361 L 2.10414 -3.48705 L 2.13525 -3.48919 L 2.15859 -3.49035 L 2.17326 -3.49082 L 2.17835 -3.49091 L 4.3671 -3.49091 L 4.3671 -3.78182 L 2.17835 -3.78182 L 2.17239 -3.78179 L 2.15518 -3.78144 L 2.1277 -3.78035 L 2.09095 -3.77813 L 2.04591 -3.77435 L 1.99358 -3.76862 L 1.93494 -3.76053 L 1.87099 -3.74966 L 1.80272 -3.73562 L 1.73112 -3.71799 L 1.65717 -3.69637 L 1.58188 -3.67034 L 1.54394 -3.65552 L 1.50587 -3.63938 L 1.46782 -3.62184 L 1.42991 -3.60281 L 1.3923 -3.58223 L 1.35513 -3.56001 L 1.31853 -3.53608 L 1.28265 -3.51035 L 1.24763 -3.48275 L 1.21361 -3.45321 L 1.18074 -3.42163 L 1.14915 -3.38795 L 1.11911 -3.35206 L 1.09089 -3.31393 L 1.06463 -3.2736 L 1.04051 -3.23111 L 1.01865 -3.18649 L 0.99922 -3.1398 L 0.98236 -3.09108 L 0.96823 -3.04035 L 0.95698 -2.98767 L 0.94875 -2.93307 L 0.9437 -2.8766 L 0.94199 -2.8183 L 0.9437 -2.75999 L 0.94875 -2.70353 L 0.95698 -2.64894 L 0.96823 -2.59627 L 0.98236 -2.54556 L 0.99922 -2.49684 L 1.01865 -2.45017 L 1.04051 -2.40557 L 1.06463 -2.36309 L 1.09089 -2.32276 L 1.11911 -2.28464 L 1.14915 -2.24875 L 1.17578 -2.22024 L 1.20336 -2.19344 L 1.2318 -2.16827 L 1.26102 -2.14462 L 1.29092 -2.12243 L 1.32141 -2.1016 L 1.3524 -2.08205 L 1.38382 -2.0637 L 1.41556 -2.04644 L 1.44754 -2.03021 L 1.47968 -2.01491 L 1.51187 -2.00045 L 1.47967 -1.986 L 1.44754 -1.9707 L 1.41555 -1.95446 L 1.38381 -1.9372 L 1.3524 -1.91883 L 1.3214 -1.89927 L 1.29091 -1.87843 L 1.26102 -1.85622 L 1.23181 -1.83257 L 1.20337 -1.80738 L 1.17578 -1.78056 L 1.14915 -1.75205 L 1.11911 -1.71615 L 1.09088 -1.67801 L 1.06463 -1.63767 L 1.0405 -1.59518 L 1.01865 -1.55056 L 0.99922 -1.50387 L 0.98236 -1.45514 L 0.96823 -1.4044 L 0.95697 -1.35171 L 0.94875 -1.2971 L 0.9437 -1.24061 L 0.94199 -1.18227 Z" />
</svg>