<svg version="1.1" xmlns="http://www.w3.org/2000/svg" viewBox="-5.615385544378699 -5.00000093846154 11.230771088757399 10.00000187692308" fill="black" stroke="none">
    <path fill-rule="evenodd" d="M -3.23077 -1.01815 L -3.23077 -0.76923 L -3.23077 -0.18281 L -4.61538 -0.18281 L -4.61538 0.12488 L -3.23077 0.12488 L -3.23077 1.01815 L -3.23077 1.38462 L -4.61538 1.38462 L -4.61538 1.69231 L -3.23077 1.69231 L -3.23077 4 L 3.23077 4 L 3.23077 1.69231 L 4.61538 1.69231 L 4.61538 1.38462 L 3.23077 1.38462 L 3.23077 -1.38462 L 4.61538 -1.38462 L 4.61538 -1.69231 L 3.23077 -1.69231 L 3.23077 -4 L -3.23077 -4 L -3.23077 -3.84615 L -3.23077 -1.69231 L -4.61538 -1.69231 L -4.61538 -1.38462 L -3.23077 -1.38462 L -3.23077 -1.01815 Z M -2.92308 0.8643 L -1.19447 0 L -2.92308 -0.8643 L -2.92308 -3.69231 L 2.92308 -3.69231 L 2.92308 3.69231 L -2.92308 3.69231 L -2.92308 0.8643 Z M -2.92308 0.52031 L -2.92308 -0.52031 L -1.88245 0 L -2.92308 0.52031 Z M 1.35385 0.41538 L 1.35385 0.72308 L 2.50769 0.72308 L 2.50769 0.41538 L 1.35385 0.41538 Z M 2.25046 -1.29846 L 2.37354 -1.21908 L 2.28985 -1.02462 L 2.16677 -1.11323 L 2.16022 -1.1027 L 2.15323 -1.09245 L 2.14581 -1.08251 L 2.13798 -1.07289 L 2.12975 -1.0636 L 2.12114 -1.05467 L 2.11216 -1.04612 L 2.10283 -1.03795 L 2.09316 -1.03018 L 2.08317 -1.02282 L 2.07288 -1.01589 L 2.06231 -1.00941 L 2.05147 -1.00337 L 2.04039 -0.9978 L 2.02909 -0.99269 L 2.01757 -0.98807 L 2.00588 -0.98394 L 1.99402 -0.98031 L 1.98202 -0.97718 L 1.96989 -0.97455 L 1.95767 -0.97244 L 1.94537 -0.97085 L 1.93301 -0.96978 L 1.92062 -0.96923 L 1.90688 -0.96919 L 1.89316 -0.96975 L 1.87948 -0.97092 L 1.86587 -0.97268 L 1.85234 -0.97504 L 1.83893 -0.97799 L 1.82566 -0.98153 L 1.81256 -0.98564 L 1.79966 -0.99033 L 1.78697 -0.99558 L 1.77452 -1.00138 L 1.76234 -1.00773 L 1.75046 -1.0146 L 1.73888 -1.02199 L 1.72764 -1.02987 L 1.71676 -1.03825 L 1.70626 -1.04709 L 1.69615 -1.05639 L 1.68647 -1.06612 L 1.67721 -1.07627 L 1.66842 -1.08681 L 1.66009 -1.09773 L 1.65226 -1.10901 L 1.64492 -1.12062 L 1.63569 -1.13667 L 1.62685 -1.15294 L 1.6184 -1.16943 L 1.61035 -1.1861 L 1.60271 -1.20297 L 1.59547 -1.22002 L 1.58864 -1.23724 L 1.58223 -1.25461 L 1.57624 -1.27213 L 1.57067 -1.2898 L 1.56553 -1.30759 L 1.56081 -1.3255 L 1.55653 -1.34352 L 1.55268 -1.36163 L 1.54927 -1.37984 L 1.5463 -1.39812 L 1.54377 -1.41646 L 1.54168 -1.43487 L 1.54003 -1.45331 L 1.53883 -1.47179 L 1.53807 -1.4903 L 1.53775 -1.50882 L 1.53789 -1.52733 L 1.53846 -1.54585 L 1.53766 -1.5642 L 1.5373 -1.58257 L 1.53738 -1.60095 L 1.5379 -1.61931 L 1.53886 -1.63766 L 1.54025 -1.65598 L 1.54209 -1.67426 L 1.54435 -1.6925 L 1.54706 -1.71067 L 1.55019 -1.72877 L 1.55376 -1.7468 L 1.55776 -1.76473 L 1.56218 -1.78256 L 1.56703 -1.80029 L 1.5723 -1.81789 L 1.57799 -1.83536 L 1.5841 -1.85269 L 1.59062 -1.86987 L 1.59754 -1.88688 L 1.60487 -1.90373 L 1.6126 -1.9204 L 1.62073 -1.93688 L 1.62925 -1.95316 L 1.63815 -1.96923 L 1.65319 -1.99165 L 1.67009 -2.0127 L 1.68871 -2.03225 L 1.70893 -2.05013 L 1.7306 -2.06623 L 1.75356 -2.08043 L 1.77764 -2.09263 L 1.80268 -2.10273 L 1.82848 -2.11066 L 1.85487 -2.11636 L 1.88164 -2.1198 L 1.90862 -2.12095 L 1.93559 -2.1198 L 1.96236 -2.11636 L 1.98875 -2.11066 L 2.01455 -2.10273 L 2.03959 -2.09263 L 2.06367 -2.08043 L 2.08663 -2.06623 L 2.1083 -2.05013 L 2.12852 -2.03225 L 2.14714 -2.0127 L 2.16404 -1.99165 L 2.17908 -1.96923 L 2.1879 -1.95314 L 2.19634 -1.93684 L 2.20439 -1.92034 L 2.21204 -1.90365 L 2.21929 -1.88679 L 2.22613 -1.86976 L 2.23257 -1.85257 L 2.2386 -1.83523 L 2.24421 -1.81776 L 2.2494 -1.80015 L 2.25417 -1.78242 L 2.25852 -1.76459 L 2.26244 -1.74666 L 2.26593 -1.72864 L 2.26899 -1.71054 L 2.27161 -1.69237 L 2.27381 -1.67415 L 2.27556 -1.65588 L 2.27688 -1.63757 L 2.27777 -1.61924 L 2.27821 -1.60089 L 2.27822 -1.58253 L 2.27779 -1.56418 L 2.27692 -1.54585 L 2.2764 -1.49987 L 2.27496 -1.45957 L 2.27279 -1.42463 L 2.27006 -1.39474 L 2.26697 -1.36955 L 2.26369 -1.34877 L 2.26042 -1.33206 L 2.25732 -1.31911 L 2.2546 -1.3096 L 2.25242 -1.3032 L 2.25098 -1.29959 L 2.25046 -1.29846 Z M 2.10462 -1.38031 L 2.10589 -1.38713 L 2.10711 -1.39395 L 2.10827 -1.40079 L 2.10938 -1.40764 L 2.11042 -1.4145 L 2.11141 -1.42136 L 2.11235 -1.42824 L 2.11322 -1.43512 L 2.11404 -1.44201 L 2.1148 -1.4489 L 2.1155 -1.4558 L 2.11615 -1.46271 L 2.11673 -1.46962 L 2.11726 -1.47653 L 2.11774 -1.48345 L 2.11815 -1.49038 L 2.11851 -1.49731 L 2.11881 -1.50424 L 2.11905 -1.51117 L 2.11923 -1.5181 L 2.11936 -1.52504 L 2.11942 -1.53197 L 2.11943 -1.53891 L 2.11938 -1.54585 L 2.12005 -1.55826 L 2.12045 -1.57068 L 2.12057 -1.58312 L 2.12043 -1.59555 L 2.12001 -1.60797 L 2.11932 -1.62038 L 2.11836 -1.63278 L 2.11713 -1.64515 L 2.11563 -1.65749 L 2.11386 -1.66979 L 2.11183 -1.68206 L 2.10952 -1.69427 L 2.10695 -1.70644 L 2.10411 -1.71854 L 2.10101 -1.73058 L 2.09765 -1.74255 L 2.09403 -1.75444 L 2.09015 -1.76625 L 2.08601 -1.77797 L 2.08162 -1.7896 L 2.07697 -1.80113 L 2.07207 -1.81256 L 2.06693 -1.82388 L 2.06154 -1.83508 L 2.05407 -1.84926 L 2.04529 -1.86268 L 2.03529 -1.87521 L 2.02415 -1.88675 L 2.01197 -1.89718 L 1.99886 -1.90641 L 1.98494 -1.91437 L 1.97034 -1.92098 L 1.95517 -1.92619 L 1.93958 -1.92994 L 1.92371 -1.9322 L 1.90769 -1.93296 L 1.89168 -1.9322 L 1.8758 -1.92994 L 1.86021 -1.92619 L 1.84505 -1.92098 L 1.83044 -1.91437 L 1.81652 -1.90641 L 1.80341 -1.89718 L 1.79124 -1.88675 L 1.7801 -1.87521 L 1.77009 -1.86268 L 1.76132 -1.84926 L 1.75385 -1.83508 L 1.7483 -1.82394 L 1.743 -1.81269 L 1.73795 -1.80132 L 1.73314 -1.78985 L 1.72859 -1.77827 L 1.7243 -1.7666 L 1.72026 -1.75484 L 1.71648 -1.74299 L 1.71296 -1.73105 L 1.7097 -1.71905 L 1.70671 -1.70698 L 1.70398 -1.69484 L 1.70152 -1.68265 L 1.69933 -1.6704 L 1.69741 -1.65811 L 1.69575 -1.64579 L 1.69437 -1.63342 L 1.69326 -1.62104 L 1.69242 -1.60863 L 1.69185 -1.5962 L 1.69156 -1.58376 L 1.69153 -1.57133 L 1.69178 -1.55889 L 1.69231 -1.54646 L 1.69178 -1.53388 L 1.69153 -1.5213 L 1.69155 -1.50871 L 1.69185 -1.49613 L 1.69241 -1.48355 L 1.69325 -1.47099 L 1.69436 -1.45846 L 1.69574 -1.44594 L 1.69739 -1.43346 L 1.69932 -1.42102 L 1.70151 -1.40863 L 1.70397 -1.39628 L 1.70669 -1.384 L 1.70969 -1.37177 L 1.71294 -1.35961 L 1.71646 -1.34752 L 1.72024 -1.33552 L 1.72428 -1.3236 L 1.72858 -1.31176 L 1.73313 -1.30003 L 1.73793 -1.28839 L 1.74299 -1.27687 L 1.7483 -1.26545 L 1.75385 -1.25415 L 1.75743 -1.24728 L 1.76131 -1.24058 L 1.76549 -1.23405 L 1.76995 -1.22771 L 1.77469 -1.22158 L 1.77969 -1.21567 L 1.78496 -1.20998 L 1.79047 -1.20453 L 1.79621 -1.19933 L 1.80218 -1.19439 L 1.80837 -1.18972 L 1.81475 -1.18533 L 1.82132 -1.18123 L 1.82807 -1.17742 L 1.83498 -1.17391 L 1.84204 -1.17072 L 1.84924 -1.16784 L 1.85655 -1.16528 L 1.86397 -1.16305 L 1.87149 -1.16115 L 1.87907 -1.15958 L 1.88673 -1.15835 L 1.89442 -1.15747 L 1.90215 -1.15692 L 1.90767 -1.15688 L 1.91319 -1.15705 L 1.91869 -1.15742 L 1.92418 -1.15799 L 1.92965 -1.15877 L 1.93508 -1.15975 L 1.94047 -1.16094 L 1.94581 -1.16232 L 1.9511 -1.1639 L 1.95632 -1.16567 L 1.96148 -1.16764 L 1.96655 -1.1698 L 1.97155 -1.17215 L 1.97645 -1.17468 L 1.98126 -1.17739 L 1.98596 -1.18028 L 1.99055 -1.18334 L 1.99503 -1.18657 L 1.99938 -1.18997 L 2.0036 -1.19352 L 2.00768 -1.19723 L 2.01163 -1.20109 L 2.01543 -1.20509 L 2.01908 -1.20923 L 1.896 -1.29785 L 1.98954 -1.46154 L 2.10462 -1.38031 Z M 2.25046 1.77846 L 2.37354 1.85785 L 2.28985 2.05231 L 2.16677 1.96369 L 2.16022 1.97422 L 2.15323 1.98447 L 2.14581 1.99442 L 2.13798 2.00404 L 2.12975 2.01332 L 2.12114 2.02225 L 2.11216 2.03081 L 2.10283 2.03898 L 2.09316 2.04675 L 2.08317 2.0541 L 2.07288 2.06103 L 2.06231 2.06752 L 2.05147 2.07355 L 2.04039 2.07913 L 2.02909 2.08423 L 2.01757 2.08885 L 2.00588 2.09298 L 1.99402 2.09662 L 1.98202 2.09975 L 1.96989 2.10237 L 1.95767 2.10448 L 1.94537 2.10607 L 1.93301 2.10714 L 1.92062 2.10769 L 1.90688 2.10773 L 1.89316 2.10717 L 1.87948 2.10601 L 1.86587 2.10424 L 1.85234 2.10188 L 1.83893 2.09893 L 1.82566 2.0954 L 1.81256 2.09128 L 1.79966 2.08659 L 1.78697 2.08134 L 1.77452 2.07554 L 1.76234 2.0692 L 1.75046 2.06232 L 1.73888 2.05494 L 1.72764 2.04705 L 1.71676 2.03867 L 1.70626 2.02983 L 1.69615 2.02053 L 1.68647 2.0108 L 1.67721 2.00065 L 1.66842 1.99011 L 1.66009 1.97919 L 1.65226 1.96792 L 1.64492 1.95631 L 1.63569 1.94025 L 1.62685 1.92398 L 1.6184 1.9075 L 1.61035 1.89082 L 1.60271 1.87395 L 1.59547 1.8569 L 1.58864 1.83969 L 1.58223 1.82231 L 1.57624 1.80479 L 1.57067 1.78713 L 1.56553 1.76933 L 1.56081 1.75142 L 1.55653 1.73341 L 1.55268 1.71529 L 1.54927 1.69709 L 1.5463 1.67881 L 1.54377 1.66046 L 1.54168 1.64206 L 1.54003 1.62361 L 1.53883 1.60513 L 1.53807 1.58663 L 1.53775 1.56811 L 1.53789 1.54959 L 1.53846 1.53108 L 1.53766 1.51272 L 1.5373 1.49435 L 1.53738 1.47598 L 1.5379 1.45761 L 1.53886 1.43926 L 1.54025 1.42094 L 1.54209 1.40266 L 1.54435 1.38443 L 1.54706 1.36625 L 1.55019 1.34815 L 1.55376 1.33012 L 1.55776 1.31219 L 1.56218 1.29436 L 1.56703 1.27664 L 1.5723 1.25904 L 1.57799 1.24156 L 1.5841 1.22424 L 1.59062 1.20706 L 1.59754 1.19004 L 1.60487 1.17319 L 1.6126 1.15652 L 1.62073 1.14004 L 1.62925 1.12376 L 1.63815 1.10769 L 1.65319 1.08527 L 1.67009 1.06422 L 1.68871 1.04468 L 1.70893 1.02679 L 1.7306 1.01069 L 1.75356 0.99649 L 1.77764 0.9843 L 1.80268 0.9742 L 1.82848 0.96627 L 1.85487 0.96056 L 1.88164 0.95712 L 1.90862 0.95597 L 1.93559 0.95712 L 1.96236 0.96056 L 1.98875 0.96627 L 2.01455 0.9742 L 2.03959 0.9843 L 2.06367 0.99649 L 2.08663 1.01069 L 2.1083 1.02679 L 2.12852 1.04468 L 2.14714 1.06422 L 2.16404 1.08527 L 2.17908 1.10769 L 2.1879 1.12379 L 2.19634 1.14009 L 2.20439 1.15659 L 2.21204 1.17327 L 2.21929 1.19013 L 2.22613 1.20716 L 2.23257 1.22435 L 2.2386 1.24169 L 2.24421 1.25917 L 2.2494 1.27677 L 2.25417 1.2945 L 2.25852 1.31233 L 2.26244 1.33026 L 2.26593 1.34828 L 2.26899 1.36638 L 2.27161 1.38455 L 2.27381 1.40277 L 2.27556 1.42104 L 2.27688 1.43935 L 2.27777 1.45769 L 2.27821 1.47604 L 2.27822 1.49439 L 2.27779 1.51274 L 2.27692 1.53108 L 2.2764 1.57705 L 2.27496 1.61735 L 2.27279 1.65229 L 2.27006 1.68219 L 2.26697 1.70737 L 2.26369 1.72815 L 2.26042 1.74486 L 2.25732 1.75781 L 2.2546 1.76733 L 2.25242 1.77373 L 2.25098 1.77733 L 2.25046 1.77846 Z M 2.10462 1.69662 L 2.10589 1.6898 L 2.10711 1.68297 L 2.10827 1.67613 L 2.10938 1.66928 L 2.11042 1.66243 L 2.11141 1.65556 L 2.11235 1.64869 L 2.11322 1.64181 L 2.11404 1.63492 L 2.1148 1.62802 L 2.1155 1.62112 L 2.11615 1.61422 L 2.11673 1.6073 L 2.11726 1.60039 L 2.11774 1.59347 L 2.11815 1.58654 L 2.11851 1.57962 L 2.11881 1.57269 L 2.11905 1.56575 L 2.11923 1.55882 L 2.11936 1.55189 L 2.11942 1.54495 L 2.11943 1.53801 L 2.11938 1.53108 L 2.12005 1.51866 L 2.12045 1.50624 L 2.12057 1.49381 L 2.12043 1.48138 L 2.12001 1.46895 L 2.11932 1.45654 L 2.11836 1.44415 L 2.11713 1.43177 L 2.11563 1.41943 L 2.11386 1.40713 L 2.11183 1.39487 L 2.10952 1.38265 L 2.10695 1.37049 L 2.10411 1.35838 L 2.10101 1.34634 L 2.09765 1.33438 L 2.09403 1.32248 L 2.09015 1.31067 L 2.08601 1.29895 L 2.08162 1.28732 L 2.07697 1.27579 L 2.07207 1.26436 L 2.06693 1.25305 L 2.06154 1.24185 L 2.05407 1.22766 L 2.04529 1.21424 L 2.03529 1.20171 L 2.02415 1.19018 L 2.01197 1.17975 L 1.99886 1.17051 L 1.98494 1.16255 L 1.97034 1.15594 L 1.95517 1.15074 L 1.93958 1.14699 L 1.92371 1.14472 L 1.90769 1.14397 L 1.89168 1.14472 L 1.8758 1.14699 L 1.86021 1.15074 L 1.84505 1.15594 L 1.83044 1.16255 L 1.81652 1.17051 L 1.80341 1.17975 L 1.79124 1.19018 L 1.7801 1.20171 L 1.77009 1.21424 L 1.76132 1.22766 L 1.75385 1.24185 L 1.7483 1.25298 L 1.743 1.26423 L 1.73795 1.2756 L 1.73314 1.28707 L 1.72859 1.29865 L 1.7243 1.31032 L 1.72026 1.32209 L 1.71648 1.33394 L 1.71296 1.34587 L 1.7097 1.35787 L 1.70671 1.36995 L 1.70398 1.38208 L 1.70152 1.39428 L 1.69933 1.40652 L 1.69741 1.41881 L 1.69575 1.43114 L 1.69437 1.4435 L 1.69326 1.45589 L 1.69242 1.4683 L 1.69185 1.48072 L 1.69156 1.49316 L 1.69153 1.5056 L 1.69178 1.51803 L 1.69231 1.53046 L 1.69178 1.54304 L 1.69153 1.55562 L 1.69155 1.56821 L 1.69185 1.58079 L 1.69241 1.59337 L 1.69325 1.60593 L 1.69436 1.61847 L 1.69574 1.63098 L 1.69739 1.64346 L 1.69932 1.6559 L 1.70151 1.66829 L 1.70397 1.68064 L 1.70669 1.69293 L 1.70969 1.70515 L 1.71294 1.71731 L 1.71646 1.7294 L 1.72024 1.74141 L 1.72428 1.75333 L 1.72858 1.76516 L 1.73313 1.77689 L 1.73793 1.78853 L 1.74299 1.80006 L 1.7483 1.81147 L 1.75385 1.82277 L 1.75743 1.82964 L 1.76131 1.83635 L 1.76549 1.84287 L 1.76995 1.84921 L 1.77469 1.85534 L 1.77969 1.86126 L 1.78496 1.86694 L 1.79047 1.87239 L 1.79621 1.87759 L 1.80218 1.88253 L 1.80837 1.8872 L 1.81475 1.89159 L 1.82132 1.8957 L 1.82807 1.8995 L 1.83498 1.90301 L 1.84204 1.90621 L 1.84924 1.90909 L 1.85655 1.91164 L 1.86397 1.91388 L 1.87149 1.91578 L 1.87907 1.91734 L 1.88673 1.91857 L 1.89442 1.91946 L 1.90215 1.92 L 1.90767 1.92004 L 1.91319 1.91987 L 1.91869 1.9195 L 1.92418 1.91893 L 1.92965 1.91815 L 1.93508 1.91717 L 1.94047 1.91599 L 1.94581 1.9146 L 1.9511 1.91302 L 1.95632 1.91125 L 1.96148 1.90928 L 1.96655 1.90712 L 1.97155 1.90477 L 1.97645 1.90224 L 1.98126 1.89953 L 1.98596 1.89664 L 1.99055 1.89358 L 1.99503 1.89035 L 1.99938 1.88696 L 2.0036 1.8834 L 2.00768 1.87969 L 2.01163 1.87584 L 2.01543 1.87183 L 2.01908 1.86769 L 1.896 1.77908 L 1.98954 1.61538 L 2.10462 1.69662 Z M -1.77662 -2.12308 L -1.53477 -2.12308 L -1.53477 -1.40492 L -1.53449 -1.3958 L -1.53432 -1.38668 L -1.53428 -1.37755 L -1.53436 -1.36842 L -1.53455 -1.3593 L -1.53486 -1.35018 L -1.53529 -1.34106 L -1.53584 -1.33195 L -1.53651 -1.32285 L -1.53729 -1.31376 L -1.5382 -1.30467 L -1.53922 -1.2956 L -1.54036 -1.28655 L -1.54162 -1.27751 L -1.54299 -1.26849 L -1.54449 -1.25948 L -1.5461 -1.2505 L -1.54782 -1.24154 L -1.54967 -1.2326 L -1.55163 -1.22369 L -1.5537 -1.2148 L -1.55589 -1.20594 L -1.5582 -1.19711 L -1.56062 -1.18831 L -1.56367 -1.18019 L -1.56695 -1.17216 L -1.57045 -1.16422 L -1.57416 -1.15638 L -1.57809 -1.14865 L -1.58223 -1.14103 L -1.58658 -1.13352 L -1.59114 -1.12614 L -1.59589 -1.11889 L -1.60084 -1.11177 L -1.60599 -1.10478 L -1.61133 -1.09795 L -1.61685 -1.09126 L -1.62256 -1.08473 L -1.62844 -1.07835 L -1.6345 -1.07214 L -1.64073 -1.0661 L -1.64712 -1.06024 L -1.65366 -1.05455 L -1.66037 -1.04904 L -1.66722 -1.04372 L -1.67421 -1.03859 L -1.68135 -1.03366 L -1.68862 -1.02892 L -1.69791 -1.02358 L -1.70733 -1.01846 L -1.71687 -1.01356 L -1.72652 -1.0089 L -1.73628 -1.00448 L -1.74615 -1.00028 L -1.75612 -0.99633 L -1.76617 -0.99262 L -1.77632 -0.98916 L -1.78654 -0.98593 L -1.79684 -0.98296 L -1.80721 -0.98023 L -1.81764 -0.97776 L -1.82813 -0.97554 L -1.83867 -0.97357 L -1.84925 -0.97185 L -1.85987 -0.97039 L -1.87053 -0.96919 L -1.8812 -0.96825 L -1.8919 -0.96756 L -1.90261 -0.96713 L -1.91333 -0.96695 L -1.92405 -0.96704 L -1.93477 -0.96738 L -1.94717 -0.96677 L -1.95958 -0.96657 L -1.97199 -0.96678 L -1.98438 -0.9674 L -1.99675 -0.96843 L -2.00908 -0.96987 L -2.02135 -0.97171 L -2.03356 -0.97395 L -2.04569 -0.9766 L -2.05772 -0.97965 L -2.06964 -0.98309 L -2.08145 -0.98692 L -2.09312 -0.99114 L -2.10465 -0.99574 L -2.11601 -1.00073 L -2.12721 -1.00608 L -2.13823 -1.0118 L -2.14905 -1.01788 L -2.15966 -1.02432 L -2.17005 -1.0311 L -2.18022 -1.03822 L -2.19015 -1.04567 L -2.19982 -1.05345 L -2.20923 -1.06154 L -2.22405 -1.07908 L -2.23771 -1.10056 L -2.2502 -1.12545 L -2.26149 -1.15321 L -2.27156 -1.18329 L -2.28038 -1.21515 L -2.28794 -1.24826 L -2.2942 -1.28207 L -2.29914 -1.31605 L -2.30275 -1.34964 L -2.30499 -1.38232 L -2.30585 -1.41354 L -2.07692 -1.41354 L -2.07692 -1.40553 L -2.07681 -1.39752 L -2.07659 -1.38952 L -2.07626 -1.38152 L -2.07582 -1.37352 L -2.07527 -1.36553 L -2.07461 -1.35755 L -2.07384 -1.34958 L -2.07296 -1.34162 L -2.07197 -1.33368 L -2.07087 -1.32575 L -2.06966 -1.31783 L -2.06834 -1.30993 L -2.06692 -1.30205 L -2.06539 -1.29419 L -2.06374 -1.28635 L -2.062 -1.27854 L -2.06014 -1.27075 L -2.05818 -1.26299 L -2.05611 -1.25525 L -2.05393 -1.24754 L -2.05165 -1.23987 L -2.04926 -1.23223 L -2.04677 -1.22462 L -2.0435 -1.21971 L -2.04003 -1.21495 L -2.03634 -1.21035 L -2.03245 -1.20593 L -2.02838 -1.20167 L -2.02411 -1.1976 L -2.01967 -1.19373 L -2.01507 -1.19005 L -2.0103 -1.18659 L -2.00539 -1.18333 L -2.00034 -1.1803 L -1.99515 -1.1775 L -1.98985 -1.17493 L -1.98444 -1.17259 L -1.97893 -1.1705 L -1.97334 -1.16865 L -1.96766 -1.16706 L -1.96193 -1.16571 L -1.95613 -1.16462 L -1.9503 -1.16379 L -1.94444 -1.16322 L -1.93855 -1.16291 L -1.93266 -1.16286 L -1.92677 -1.16308 L -1.92149 -1.16264 L -1.9162 -1.1624 L -1.91091 -1.16238 L -1.90562 -1.16255 L -1.90033 -1.16294 L -1.89507 -1.16353 L -1.88984 -1.16432 L -1.88464 -1.16532 L -1.87948 -1.16652 L -1.87437 -1.16792 L -1.86932 -1.16951 L -1.86434 -1.1713 L -1.85943 -1.17329 L -1.8546 -1.17546 L -1.84986 -1.17782 L -1.84522 -1.18037 L -1.84068 -1.18309 L -1.83624 -1.18598 L -1.83193 -1.18905 L -1.82773 -1.19228 L -1.82367 -1.19568 L -1.81974 -1.19923 L -1.81595 -1.20293 L -1.81231 -1.20677 L -1.80877 -1.21387 L -1.80542 -1.22106 L -1.80223 -1.22833 L -1.79923 -1.23567 L -1.7964 -1.24308 L -1.79376 -1.25056 L -1.7913 -1.2581 L -1.78902 -1.2657 L -1.78693 -1.27335 L -1.78503 -1.28105 L -1.78332 -1.2888 L -1.78179 -1.29658 L -1.78046 -1.3044 L -1.77931 -1.31225 L -1.77836 -1.32013 L -1.7776 -1.32803 L -1.77703 -1.33594 L -1.77665 -1.34386 L -1.77647 -1.35179 L -1.77648 -1.35973 L -1.77669 -1.36766 L -1.77709 -1.37558 L -1.77768 -1.38349 L -1.77846 -1.39138 L -1.77662 -2.12308 Z M -2.304 2.09231 L -2.304 0.95385 L -2.13169 0.95385 L -2.13169 1.45846 L -1.78462 0.95385 L -1.55323 0.95385 L -1.87446 1.39631 L -1.53477 2.09231 L -1.75754 2.09231 L -1.992 1.55938 L -2.13169 1.74892 L -2.13169 2.09231 L -2.304 2.09231 Z" />
</svg>