<svg version="1.1" xmlns="http://www.w3.org/2000/svg" viewBox="-10.150482777440825 -5.0000008779935765 20.30096555488165 10.000001755987153" fill="black" stroke="none">
    <path fill-rule="evenodd" d="M -9.15048 0.33552 L -1.36876 0.33552 L -1.42573 0.81016 L -1.52139 1.25422 L -1.64741 1.66566 L -1.79548 2.04243 L -1.95728 2.38251 L -2.12449 2.68385 L -2.2888 2.94442 L -2.44188 3.16218 L -2.57543 3.33509 L -2.68112 3.46113 L -2.75063 3.53824 L -2.77565 3.5644 L -2.34862 4 L -2.31682 3.96757 L -2.22888 3.87198 L -2.09603 3.71576 L -1.92951 3.50145 L -1.74053 3.23158 L -1.54033 2.90869 L -1.34013 2.53532 L -1.15115 2.11401 L -0.98463 1.64728 L -0.85179 1.13768 L -0.76385 0.58774 L -0.73204 0 L -0.76385 -0.58774 L -0.85179 -1.13768 L -0.98463 -1.64728 L -1.15115 -2.11401 L -1.34013 -2.53532 L -1.54033 -2.90869 L -1.74053 -3.23158 L -1.92951 -3.50145 L -2.09603 -3.71576 L -2.22888 -3.87198 L -2.31682 -3.96757 L -2.34862 -4 L -2.77565 -3.5644 L -2.7501 -3.53771 L -2.67917 -3.45904 L -2.57146 -3.33049 L -2.43555 -3.15416 L -2.28003 -2.93213 L -2.1135 -2.6665 L -1.94454 -2.35937 L -1.78175 -2.01283 L -1.63371 -1.62898 L -1.50901 -1.20991 L -1.41624 -0.75773 L -1.36399 -0.27451 L -9.15048 -0.27451 L -9.15048 0.33552 Z M 0.85404 3.7822 L 1.46408 3.7822 L 1.46408 0.30144 L 9.15048 0.30144 L 9.15048 -0.30859 L 1.46408 -0.30859 L 1.46408 -3.7822 L 0.85404 -3.7822 L 0.85404 3.7822 Z" />
</svg>