<svg version="1.1" xmlns="http://www.w3.org/2000/svg" viewBox="-6.853650380175733 -5.000000921951602 13.707300760351437 10.000001843903204" fill="black" stroke="none">
    <path d="M -0.1951 2.14635 L -0.1951 2.53659 L 0.19514 2.53659 L 0.19514 2.14635 L -0.1951 2.14635 Z" />
    <path fill-rule="evenodd" d="M -0.1951 1.56099 L -0.1951 1.75611 L 0.19514 1.75611 L 0.19514 1.56099 L 1.17075 1.56099 L 1.17075 0.09758 L 5.85365 0.09758 L 5.85365 -0.29266 L 1.17075 -0.29266 L 1.17075 -1.75607 L -1.17071 -1.75607 L -1.17071 -1.56095 L -1.17071 -0.29266 L -5.85361 -0.29266 L -5.85361 0.09758 L -1.17071 0.09758 L -1.17071 1.56099 L -0.1951 1.56099 Z M -0.78046 -1.36583 L 0.7805 -1.36583 L 0.7805 1.17075 L -0.78046 1.17075 L -0.78046 -1.36583 Z" />
    <path d="M 1.95123 3.60976 L 1.95123 4 L 5.85365 4 L 5.85365 3.60976 L 1.95123 3.60976 Z" />
    <path d="M -5.85365 -3.99992 L -5.85357 -3.99992 L -5.85357 -4 L -5.85365 -4 L -5.85365 -3.99992 Z" />
</svg>