<svg version="1.1" xmlns="http://www.w3.org/2000/svg" viewBox="-13.274743869197824 -5.000000836336762 26.549487738395648 10.000001672673523" fill="black" stroke="none">
    <path d="M -2.55628 0.09158 L -2.89037 0.10893 L -3.2005 0.15893 L -3.48728 0.23848 L -3.75129 0.3445 L -3.99314 0.47392 L -4.21342 0.62364 L -4.41272 0.79057 L -4.59164 0.97164 L -4.75077 1.16375 L -4.89072 1.36383 L -5.01208 1.56878 L -5.11544 1.77552 L -5.21892 1.56975 L -5.34033 1.36584 L -5.48024 1.16686 L -5.63926 0.97585 L -5.81798 0.79587 L -6.01699 0.62997 L -6.23691 0.48122 L -6.47831 0.35266 L -6.7418 0.24736 L -7.02797 0.16836 L -7.33743 0.11872 L -7.67076 0.10149 L -8.0186 0.12035 L -8.34091 0.17458 L -8.63826 0.2607 L -8.91123 0.37522 L -9.1604 0.51462 L -9.38636 0.67542 L -9.58968 0.85412 L -9.77095 1.04723 L -9.93075 1.25125 L -10.06966 1.46268 L -10.18826 1.67803 L -10.28713 1.89379 L -10.33862 2.02333 L -10.38429 2.1492 L -10.42451 2.27128 L -10.45968 2.38947 L -10.49018 2.50366 L -10.5164 2.61373 L -10.53873 2.71958 L -10.55755 2.82111 L -10.57325 2.91819 L -10.58622 3.01072 L -10.59684 3.09858 L -10.60551 3.18168 L -12.27474 3.18168 L -12.27474 4 L -10.22895 4 L -10.20219 3.99912 L -10.17555 3.99649 L -10.14913 3.99213 L -10.12306 3.98605 L -10.09744 3.97828 L -10.07238 3.96884 L -10.04799 3.95779 L -10.02438 3.94517 L -10.00165 3.93103 L -9.97988 3.91544 L -9.95919 3.89845 L -9.93965 3.88015 L -9.92134 3.86061 L -9.90436 3.83991 L -9.88876 3.81815 L -9.87462 3.79541 L -9.862 3.7718 L -9.85095 3.74741 L -9.84152 3.72236 L -9.83374 3.69674 L -9.82766 3.67066 L -9.8233 3.64425 L -9.82067 3.6176 L -9.81979 3.59084 L -9.81952 3.57663 L -9.81807 3.53567 L -9.8145 3.47046 L -9.80787 3.38354 L -9.79723 3.2774 L -9.78165 3.15457 L -9.76017 3.01756 L -9.73186 2.86887 L -9.69578 2.71103 L -9.65099 2.54654 L -9.59653 2.37793 L -9.53147 2.2077 L -9.45676 2.03934 L -9.37289 1.8759 L -9.27823 1.71925 L -9.17115 1.57122 L -9.05 1.43367 L -8.91315 1.30845 L -8.75896 1.19741 L -8.58581 1.10241 L -8.39204 1.0253 L -8.17604 0.96793 L -7.93615 0.93215 L -7.67076 0.91981 L -7.40512 0.93206 L -7.16509 0.96759 L -6.94903 1.02456 L -6.75527 1.10111 L -6.58219 1.19542 L -6.42812 1.30564 L -6.29143 1.42991 L -6.17047 1.56642 L -6.0636 1.7133 L -5.96916 1.86871 L -5.88551 2.03082 L -5.811 2.19779 L -5.74613 2.36659 L -5.69183 2.53377 L -5.64717 2.69686 L -5.6112 2.85336 L -5.58299 3.00077 L -5.5616 3.13661 L -5.54608 3.25838 L -5.53549 3.3636 L -5.52889 3.44977 L -5.52534 3.51441 L -5.5239 3.55502 L -5.52363 3.56911 L -5.52363 3.56911 L -5.52363 3.56913 L -5.52363 3.56916 L -5.52363 3.56919 L -5.52363 3.56923 L -5.52363 3.56927 L -5.52363 3.56931 L -5.52363 3.56935 L -5.52363 3.56938 L -5.52363 3.56941 L -5.52363 3.56943 L -5.52363 3.56943 L -5.51947 3.62231 L -5.5085 3.67421 L -5.49091 3.72425 L -5.46699 3.7716 L -5.43715 3.81546 L -5.40189 3.85508 L -5.36179 3.88981 L -5.31754 3.91907 L -5.26988 3.94235 L -5.21961 3.95927 L -5.16757 3.96955 L -5.11464 3.97301 L -5.0617 3.96959 L -5.00966 3.95936 L -4.95937 3.94248 L -4.91169 3.91923 L -4.86742 3.89001 L -4.8273 3.85531 L -4.792 3.81571 L -4.76212 3.77188 L -4.73817 3.72456 L -4.72054 3.67453 L -4.70953 3.62264 L -4.70532 3.56976 L -4.70532 3.56975 L -4.70532 3.56974 L -4.70532 3.56971 L -4.70532 3.56968 L -4.70532 3.56964 L -4.70532 3.5696 L -4.70532 3.56956 L -4.70532 3.56952 L -4.70532 3.56948 L -4.70532 3.56946 L -4.70532 3.56944 L -4.70532 3.56943 L -4.70504 3.55528 L -4.70358 3.51449 L -4.69999 3.44958 L -4.69334 3.36303 L -4.68269 3.25735 L -4.66709 3.13506 L -4.6456 2.99864 L -4.61729 2.85061 L -4.58122 2.69346 L -4.53643 2.5297 L -4.48201 2.36183 L -4.41699 2.19236 L -4.34234 2.02475 L -4.25853 1.86203 L -4.16393 1.70604 L -4.0569 1.55864 L -3.9358 1.42166 L -3.79898 1.29696 L -3.64481 1.18639 L -3.47165 1.09177 L -3.27786 1.01497 L -3.06179 0.95783 L -2.82181 0.92219 L -2.55628 0.9099 L -2.29076 0.92219 L -2.05081 0.95783 L -1.8348 1.01498 L -1.64107 1.09178 L -1.46799 1.1864 L -1.31391 1.29698 L -1.1772 1.42168 L -1.0562 1.55866 L -0.94927 1.70606 L -0.85478 1.86204 L -0.77108 2.02475 L -0.69653 2.19235 L -0.63161 2.36181 L -0.57729 2.52965 L -0.53261 2.69338 L -0.49664 2.85049 L -0.46844 2.99849 L -0.44705 3.13487 L -0.43154 3.25713 L -0.42097 3.36277 L -0.41439 3.44929 L -0.41085 3.51419 L -0.40942 3.55496 L -0.40916 3.56911 L -0.40916 3.56911 L -0.40916 3.56913 L -0.40916 3.56916 L -0.40916 3.56919 L -0.40916 3.56923 L -0.40916 3.56927 L -0.40916 3.56931 L -0.40916 3.56935 L -0.40916 3.56938 L -0.40916 3.56941 L -0.40916 3.56943 L -0.40916 3.56943 L -0.40499 3.62231 L -0.39402 3.67421 L -0.37643 3.72425 L -0.35251 3.7716 L -0.32267 3.81546 L -0.28741 3.85508 L -0.24732 3.88981 L -0.20307 3.91907 L -0.15541 3.94235 L -0.10513 3.95927 L -0.05309 3.96955 L -0.00016 3.97301 L 0.05277 3.96959 L 0.10482 3.95936 L 0.15511 3.94248 L 0.20279 3.91923 L 0.24706 3.89001 L 0.28718 3.85531 L 0.32248 3.81571 L 0.35235 3.77188 L 0.37631 3.72456 L 0.39394 3.67453 L 0.40495 3.62264 L 0.40916 3.56976 L 0.40916 3.56975 L 0.40916 3.56974 L 0.40916 3.56971 L 0.40916 3.56968 L 0.40916 3.56964 L 0.40916 3.5696 L 0.40916 3.56956 L 0.40916 3.56952 L 0.40916 3.56948 L 0.40916 3.56946 L 0.40916 3.56944 L 0.40916 3.56943 L 0.40944 3.55528 L 0.4109 3.51449 L 0.41448 3.44958 L 0.42113 3.36303 L 0.43179 3.25735 L 0.44739 3.13506 L 0.46887 2.99864 L 0.49718 2.85061 L 0.53326 2.69346 L 0.57804 2.5297 L 0.63247 2.36183 L 0.69749 2.19236 L 0.77214 2.02475 L 0.85594 1.86203 L 0.95054 1.70604 L 1.05757 1.55864 L 1.17868 1.42166 L 1.3155 1.29696 L 1.46966 1.18639 L 1.64283 1.09177 L 1.83662 1.01497 L 2.05269 0.95783 L 2.29267 0.92219 L 2.5582 0.9099 L 2.82372 0.92219 L 3.06366 0.95783 L 3.27968 1.01498 L 3.4734 1.09178 L 3.64649 1.1864 L 3.80056 1.29698 L 3.93728 1.42168 L 4.05828 1.55866 L 4.1652 1.70606 L 4.25969 1.86204 L 4.3434 2.02475 L 4.41795 2.19235 L 4.48286 2.36181 L 4.53719 2.52965 L 4.58186 2.69338 L 4.61783 2.85049 L 4.64604 2.99849 L 4.66742 3.13487 L 4.68293 3.25713 L 4.69351 3.36277 L 4.70009 3.44929 L 4.70362 3.51419 L 4.70505 3.55496 L 4.70532 3.56911 L 4.70532 3.56911 L 4.70532 3.56913 L 4.70532 3.56916 L 4.70532 3.56919 L 4.70532 3.56923 L 4.70532 3.56927 L 4.70532 3.56931 L 4.70532 3.56935 L 4.70532 3.56938 L 4.70532 3.56941 L 4.70532 3.56943 L 4.70532 3.56943 L 4.70948 3.62231 L 4.72045 3.67421 L 4.73805 3.72425 L 4.76196 3.7716 L 4.7918 3.81546 L 4.82707 3.85508 L 4.86716 3.88981 L 4.91141 3.91907 L 4.95907 3.94235 L 5.00934 3.95927 L 5.06138 3.96955 L 5.11431 3.97301 L 5.16725 3.96959 L 5.2193 3.95936 L 5.26958 3.94248 L 5.31726 3.91923 L 5.36154 3.89001 L 5.40166 3.85531 L 5.43695 3.81571 L 5.46683 3.77188 L 5.49078 3.72456 L 5.50842 3.67453 L 5.51943 3.62264 L 5.52363 3.56976 L 5.52363 3.56975 L 5.52363 3.56974 L 5.52363 3.56971 L 5.52363 3.56968 L 5.52363 3.56964 L 5.52363 3.5696 L 5.52363 3.56956 L 5.52363 3.56952 L 5.52363 3.56948 L 5.52363 3.56946 L 5.52363 3.56944 L 5.52363 3.56943 L 5.52391 3.55528 L 5.52537 3.51449 L 5.52896 3.44958 L 5.53561 3.36303 L 5.54627 3.25735 L 5.56187 3.13506 L 5.58335 2.99864 L 5.61166 2.85061 L 5.64774 2.69346 L 5.69252 2.5297 L 5.74695 2.36183 L 5.81196 2.19236 L 5.88662 2.02475 L 5.97042 1.86203 L 6.06502 1.70605 L 6.17205 1.55864 L 6.29315 1.42167 L 6.42997 1.29697 L 6.58414 1.18639 L 6.7573 1.09178 L 6.9511 1.01498 L 7.16716 0.95783 L 7.40714 0.9222 L 7.67267 0.90991 L 7.93819 0.9222 L 8.17814 0.95784 L 8.39415 1.01499 L 8.58788 1.09179 L 8.76096 1.18641 L 8.91504 1.29699 L 9.05176 1.42169 L 9.17276 1.55867 L 9.27968 1.70607 L 9.37417 1.86205 L 9.45787 2.02476 L 9.53242 2.19236 L 9.59734 2.36182 L 9.65167 2.52966 L 9.69634 2.69339 L 9.73231 2.8505 L 9.76051 2.9985 L 9.7819 3.13488 L 9.79741 3.25714 L 9.80798 3.36278 L 9.81456 3.4493 L 9.8181 3.51419 L 9.81953 3.55497 L 9.81979 3.56911 L 9.82065 3.59589 L 9.82326 3.62255 L 9.82761 3.64898 L 9.83368 3.67507 L 9.84144 3.70071 L 9.85086 3.72578 L 9.8619 3.75019 L 9.87452 3.77382 L 9.88865 3.79657 L 9.90425 3.81835 L 9.92123 3.83906 L 9.93954 3.85862 L 9.95908 3.87694 L 9.97978 3.89394 L 10.00155 3.90955 L 10.02429 3.9237 L 10.04791 3.93634 L 10.07231 3.9474 L 10.09738 3.95684 L 10.12301 3.96462 L 10.14909 3.97071 L 10.17552 3.97507 L 10.20218 3.9777 L 10.22895 3.97858 L 12.27474 3.97858 L 12.27474 3.16027 L 10.60582 3.16027 L 10.59715 3.07739 L 10.58651 2.98979 L 10.57352 2.89756 L 10.55779 2.80083 L 10.53896 2.69969 L 10.51663 2.59427 L 10.49041 2.48466 L 10.45994 2.37099 L 10.42482 2.25336 L 10.38467 2.13188 L 10.33912 2.00666 L 10.28777 1.87781 L 10.18896 1.66271 L 10.07043 1.44806 L 9.9316 1.23732 L 9.77188 1.03399 L 9.59071 0.84154 L 9.38749 0.66346 L 9.16164 0.50322 L 8.91259 0.36432 L 8.63975 0.25022 L 8.34254 0.16441 L 8.02037 0.11037 L 7.67267 0.09158 L 7.33894 0.1089 L 7.02912 0.15879 L 6.74262 0.23819 L 6.47885 0.34402 L 6.2372 0.47321 L 6.01708 0.62266 L 5.8179 0.78932 L 5.63906 0.97011 L 5.47995 1.16194 L 5.33999 1.36174 L 5.21858 1.56644 L 5.11512 1.77297 L 5.01176 1.56643 L 4.89044 1.36171 L 4.75057 1.1619 L 4.59155 0.97007 L 4.41277 0.78929 L 4.21365 0.62263 L 3.99359 0.47318 L 3.75198 0.344 L 3.48824 0.23818 L 3.20175 0.15879 L 2.89194 0.1089 L 2.5582 0.09158 L 2.22446 0.1089 L 1.91464 0.15879 L 1.62815 0.23819 L 1.36437 0.34402 L 1.12273 0.47321 L 0.90261 0.62266 L 0.70343 0.78932 L 0.52458 0.97011 L 0.36548 1.16194 L 0.22551 1.36174 L 0.1041 1.56644 L 0.00064 1.77297 L -0.10272 1.56643 L -0.22404 1.36171 L -0.36391 1.1619 L -0.52293 0.97007 L -0.7017 0.78929 L -0.90083 0.62263 L -1.12089 0.47318 L -1.3625 0.344 L -1.62624 0.23818 L -1.91272 0.15879 L -2.22254 0.1089 L -2.55628 0.09158 Z" />
    <path d="M -10.22895 -4 L -10.22895 -3.18168 L 10.22895 -3.18168 L 10.22895 -4 L -10.22895 -4 Z" />
    <path d="M -10.22895 -1.95421 L -10.22895 -1.13589 L 10.22895 -1.13589 L 10.22895 -1.95421 L -10.22895 -1.95421 Z" />
</svg>