<svg version="1.1" xmlns="http://www.w3.org/2000/svg" viewBox="-6.667 -5 13.335 10" fill="black" stroke="none"><path fill-rule="evenodd" d="M 4.472 -2.025 L 3.172 -0.725 L 3.44 -0.458 L 4.739 -1.757 L 5.005 -1.491 L 5.298 -2.583 L 4.206 -2.291 L 4.472 -2.025 Z M 3.322 -3.174 L 3.589 -2.908 L 3.881 -4 L 2.789 -3.708 L 3.055 -3.441 L 1.756 -2.142 L 2.023 -1.875 L 3.322 -3.174 Z M -5.667 1.487 L -2.078 1.487 L -2.078 4 L 1.7 1.639 L 1.7 3.886 L 2.078 3.886 L 2.078 1.487 L 5.667 1.487 L 5.667 1.109 L 2.078 1.109 L 2.078 -1.29 L 1.7 -1.29 L 1.7 0.957 L -2.078 -1.404 L -2.078 1.109 L -5.667 1.109 L -5.667 1.487 Z M -1.7 3.318 L -1.7 -0.723 L 1.533 1.298 L -1.7 3.318 Z" /></svg>