<svg version="1.1" xmlns="http://www.w3.org/2000/svg" viewBox="-11.910938103602287 -5.00000085454546 23.821876207204575 10.00000170909092" fill="black" stroke="none">
    <path d="M -3.63452 -4 L -4.10142 -3.97929 L -4.53313 -3.91958 L -4.93066 -3.82452 L -5.29507 -3.69777 L -5.62738 -3.54297 L -5.92862 -3.36377 L -6.19984 -3.16383 L -6.44205 -2.9468 L -6.65631 -2.71631 L -6.84363 -2.47603 L -7.00505 -2.22961 L -7.14162 -1.98068 L -7.22412 -1.80738 L -7.29593 -1.64011 L -7.35784 -1.47916 L -7.41063 -1.32479 L -7.4551 -1.1773 L -7.49203 -1.03695 L -7.52222 -0.90403 L -7.54645 -0.77881 L -7.56551 -0.66157 L -7.58019 -0.55259 L -7.59128 -0.45214 L -7.59957 -0.36051 L -10.91094 -0.32727 L -10.90355 0.4 L -6.90724 0.35994 L -6.90724 0 L -6.90691 -0.01687 L -6.90497 -0.06553 L -6.90004 -0.14306 L -6.89072 -0.2465 L -6.87561 -0.37295 L -6.85334 -0.51946 L -6.8225 -0.6831 L -6.7817 -0.86094 L -6.72955 -1.05005 L -6.66465 -1.2475 L -6.58562 -1.45035 L -6.49105 -1.65568 L -6.38088 -1.86025 L -6.25453 -2.061 L -6.10989 -2.25528 L -5.94483 -2.44041 L -5.75722 -2.61373 L -5.54495 -2.77259 L -5.3059 -2.91431 L -5.03793 -3.03624 L -4.73894 -3.13571 L -4.40678 -3.21005 L -4.03935 -3.25662 L -3.63452 -3.27273 L -3.22968 -3.25662 L -2.86225 -3.21005 L -2.5301 -3.13571 L -2.2311 -3.03624 L -1.96313 -2.91431 L -1.72408 -2.77259 L -1.51181 -2.61373 L -1.32421 -2.44041 L -1.15915 -2.25528 L -1.0145 -2.061 L -0.88816 -1.86025 L -0.77798 -1.65568 L -0.68342 -1.45035 L -0.60438 -1.2475 L -0.53949 -1.05005 L -0.48733 -0.86094 L -0.44653 -0.6831 L -0.41569 -0.51946 L -0.39342 -0.37295 L -0.37832 -0.2465 L -0.369 -0.14306 L -0.36406 -0.06553 L -0.36213 -0.01687 L -0.36179 0 L -0.3616 0.01995 L -0.35986 0.07756 L -0.35479 0.16944 L -0.34465 0.29222 L -0.32766 0.4425 L -0.30206 0.61691 L -0.26608 0.81206 L -0.21797 1.02458 L -0.15596 1.25109 L -0.07829 1.48819 L 0.01681 1.73252 L 0.13111 1.98068 L 0.26767 2.22961 L 0.4291 2.47603 L 0.61642 2.71631 L 0.83067 2.9468 L 1.07289 3.16383 L 1.3441 3.36377 L 1.64535 3.54297 L 1.97766 3.69777 L 2.34206 3.82452 L 2.7396 3.91958 L 3.17131 3.97929 L 3.63821 4 L 4.10511 3.97929 L 4.53682 3.91958 L 4.93436 3.82452 L 5.29876 3.69777 L 5.63107 3.54297 L 5.93232 3.36377 L 6.20353 3.16383 L 6.44575 2.9468 L 6.66 2.71631 L 6.84732 2.47603 L 7.00875 2.22961 L 7.14531 1.98068 L 7.22754 1.80799 L 7.29914 1.64131 L 7.3609 1.48089 L 7.4136 1.327 L 7.45803 1.17993 L 7.49496 1.03993 L 7.52518 0.90728 L 7.54947 0.78224 L 7.56861 0.66509 L 7.58339 0.55609 L 7.59458 0.45552 L 7.60298 0.36364 L 10.91094 0.36364 L 10.91094 -0.36364 L 6.91094 -0.36364 L 6.91094 0 L 6.9106 0.01687 L 6.90866 0.06553 L 6.90373 0.14306 L 6.89441 0.2465 L 6.87931 0.37295 L 6.85703 0.51946 L 6.82619 0.6831 L 6.78539 0.86094 L 6.73324 1.05005 L 6.66834 1.2475 L 6.58931 1.45035 L 6.49474 1.65568 L 6.38457 1.86025 L 6.25822 2.061 L 6.11358 2.25528 L 5.94852 2.44041 L 5.76092 2.61373 L 5.54865 2.77259 L 5.30959 2.91431 L 5.04163 3.03624 L 4.74263 3.13571 L 4.41048 3.21005 L 4.04304 3.25662 L 3.63821 3.27273 L 3.23338 3.25662 L 2.86594 3.21005 L 2.53379 3.13571 L 2.23479 3.03624 L 1.96683 2.91431 L 1.72777 2.77259 L 1.5155 2.61373 L 1.3279 2.44041 L 1.16284 2.25528 L 1.0182 2.061 L 0.89185 1.86025 L 0.78168 1.65568 L 0.68711 1.45035 L 0.60808 1.2475 L 0.54318 1.05005 L 0.49103 0.86094 L 0.45023 0.6831 L 0.41939 0.51946 L 0.39711 0.37295 L 0.38201 0.2465 L 0.37269 0.14306 L 0.36776 0.06553 L 0.36582 0.01687 L 0.36548 0 L 0.36529 -0.01995 L 0.36355 -0.07756 L 0.35849 -0.16944 L 0.34834 -0.29222 L 0.33135 -0.4425 L 0.30575 -0.61691 L 0.26978 -0.81206 L 0.22167 -1.02458 L 0.15966 -1.25109 L 0.08198 -1.48819 L -0.01312 -1.73252 L -0.12741 -1.98068 L -0.26398 -2.22961 L -0.42541 -2.47603 L -0.61273 -2.71631 L -0.82698 -2.9468 L -1.0692 -3.16383 L -1.34041 -3.36377 L -1.64165 -3.54297 L -1.97396 -3.69777 L -2.33837 -3.82452 L -2.73591 -3.91958 L -3.16761 -3.97929 L -3.63452 -4 Z" />
</svg>