<svg version="1.1" xmlns="http://www.w3.org/2000/svg" viewBox="-7.957 -5 15.914 10" fill="black" stroke="none"><path fill-rule="evenodd" d="M 4.257 3.322 L 6.957 3.322 L 6.957 2.858 L 4.253 2.858 L 4.226 2.781 L 4.179 2.688 L 4.12 2.601 L 4.051 2.523 L 3.973 2.454 L 3.887 2.396 L 3.793 2.349 L 3.693 2.314 L 3.588 2.292 L 3.478 2.284 L 3.369 2.292 L 3.264 2.314 L 3.164 2.349 L 3.07 2.396 L 2.984 2.454 L 2.906 2.523 L 2.837 2.601 L 2.778 2.688 L 2.731 2.781 L 2.696 2.881 L 2.674 2.986 L 2.667 3.096 L 2.674 3.206 L 2.696 3.311 L 2.731 3.411 L 2.747 3.443 L -2.672 3.176 L -2.667 3.096 L -2.674 2.986 L -2.696 2.881 L -2.731 2.781 L -2.778 2.688 L -2.837 2.601 L -2.906 2.523 L -2.984 2.454 L -3.07 2.396 L -3.164 2.349 L -3.264 2.314 L -3.369 2.292 L -3.478 2.284 L -3.588 2.292 L -3.693 2.314 L -3.793 2.349 L -3.887 2.396 L -3.973 2.454 L -4.051 2.523 L -4.12 2.601 L -4.179 2.688 L -4.226 2.781 L -4.257 2.87 L -6.957 2.87 L -6.957 3.333 L -4.253 3.333 L -4.226 3.411 L -4.179 3.504 L -4.12 3.591 L -4.051 3.669 L -3.973 3.738 L -3.887 3.796 L -3.793 3.843 L -3.693 3.878 L -3.588 3.9 L -3.478 3.908 L -3.369 3.9 L -3.264 3.878 L -3.164 3.843 L -3.07 3.796 L -2.984 3.738 L -2.906 3.669 L -2.872 3.631 L 4.626 4 L 4.649 3.537 L 4.172 3.513 L 4.179 3.504 L 4.226 3.411 L 4.257 3.322 Z M -3.826 3.096 L -3.823 3.048 L -3.814 3.003 L -3.799 2.959 L -3.779 2.919 L -3.755 2.882 L -3.725 2.849 L -3.692 2.82 L -3.655 2.795 L -3.615 2.775 L -3.572 2.76 L -3.526 2.751 L -3.478 2.748 L -3.431 2.751 L -3.385 2.76 L -3.342 2.775 L -3.302 2.795 L -3.265 2.82 L -3.231 2.849 L -3.202 2.882 L -3.177 2.919 L -3.158 2.959 L -3.143 3.003 L -3.134 3.048 L -3.131 3.096 L -3.134 3.144 L -3.143 3.189 L -3.158 3.233 L -3.177 3.273 L -3.202 3.31 L -3.231 3.343 L -3.265 3.372 L -3.302 3.397 L -3.342 3.417 L -3.385 3.432 L -3.431 3.441 L -3.478 3.444 L -3.526 3.441 L -3.572 3.432 L -3.615 3.417 L -3.655 3.397 L -3.692 3.372 L -3.725 3.343 L -3.755 3.31 L -3.779 3.273 L -3.799 3.233 L -3.814 3.189 L -3.823 3.144 L -3.826 3.096 Z M 3.131 3.096 L 3.134 3.048 L 3.143 3.003 L 3.158 2.959 L 3.177 2.919 L 3.202 2.882 L 3.231 2.849 L 3.265 2.82 L 3.302 2.795 L 3.342 2.775 L 3.385 2.76 L 3.431 2.751 L 3.478 2.748 L 3.526 2.751 L 3.572 2.76 L 3.615 2.775 L 3.655 2.795 L 3.692 2.82 L 3.725 2.849 L 3.755 2.882 L 3.779 2.919 L 3.799 2.959 L 3.814 3.003 L 3.823 3.048 L 3.826 3.096 L 3.823 3.144 L 3.814 3.189 L 3.799 3.233 L 3.779 3.273 L 3.755 3.31 L 3.725 3.343 L 3.692 3.372 L 3.655 3.397 L 3.615 3.417 L 3.572 3.432 L 3.526 3.441 L 3.478 3.444 L 3.431 3.441 L 3.385 3.432 L 3.342 3.417 L 3.302 3.397 L 3.265 3.372 L 3.231 3.343 L 3.202 3.31 L 3.177 3.273 L 3.158 3.233 L 3.143 3.189 L 3.134 3.144 L 3.131 3.096 Z M -5.797 -0.638 L 5.797 -0.638 L 5.797 -1.101 L -5.797 -1.101 L -5.797 -0.638 Z M -6.957 -3.536 L -6.011 -3.536 L -6.006 -3.489 L -6 -3.439 L -5.992 -3.387 L -5.984 -3.332 L -5.973 -3.274 L -5.96 -3.215 L -5.945 -3.152 L -5.928 -3.088 L -5.908 -3.021 L -5.885 -2.951 L -5.86 -2.88 L -5.83 -2.807 L -5.774 -2.685 L -5.707 -2.563 L -5.628 -2.443 L -5.538 -2.327 L -5.435 -2.218 L -5.32 -2.117 L -5.192 -2.025 L -5.051 -1.946 L -4.896 -1.882 L -4.727 -1.833 L -4.545 -1.802 L -4.347 -1.791 L -4.159 -1.801 L -3.983 -1.829 L -3.821 -1.874 L -3.672 -1.934 L -3.535 -2.006 L -3.41 -2.091 L -3.298 -2.185 L -3.196 -2.287 L -3.106 -2.395 L -3.027 -2.508 L -2.958 -2.623 L -2.899 -2.74 L -2.841 -2.622 L -2.772 -2.506 L -2.693 -2.393 L -2.603 -2.284 L -2.501 -2.181 L -2.388 -2.087 L -2.263 -2.002 L -2.126 -1.928 L -1.977 -1.868 L -1.814 -1.823 L -1.638 -1.795 L -1.449 -1.785 L -1.26 -1.795 L -1.084 -1.823 L -0.922 -1.868 L -0.772 -1.928 L -0.635 -2.001 L -0.511 -2.086 L -0.398 -2.18 L -0.297 -2.283 L -0.206 -2.392 L -0.127 -2.505 L -0.058 -2.621 L 0 -2.738 L 0.059 -2.621 L 0.128 -2.505 L 0.207 -2.391 L 0.297 -2.283 L 0.399 -2.18 L 0.511 -2.086 L 0.636 -2.001 L 0.773 -1.928 L 0.923 -1.868 L 1.085 -1.823 L 1.261 -1.795 L 1.45 -1.785 L 1.639 -1.795 L 1.815 -1.823 L 1.977 -1.868 L 2.126 -1.928 L 2.263 -2.001 L 2.388 -2.086 L 2.501 -2.18 L 2.602 -2.283 L 2.692 -2.392 L 2.772 -2.505 L 2.84 -2.621 L 2.899 -2.738 L 2.958 -2.621 L 3.026 -2.505 L 3.106 -2.391 L 3.196 -2.283 L 3.297 -2.18 L 3.41 -2.086 L 3.535 -2.001 L 3.672 -1.928 L 3.821 -1.868 L 3.984 -1.823 L 4.159 -1.795 L 4.349 -1.785 L 4.546 -1.796 L 4.728 -1.826 L 4.897 -1.875 L 5.051 -1.939 L 5.192 -2.018 L 5.32 -2.109 L 5.436 -2.21 L 5.538 -2.319 L 5.629 -2.434 L 5.708 -2.554 L 5.775 -2.675 L 5.831 -2.797 L 5.86 -2.87 L 5.886 -2.941 L 5.908 -3.01 L 5.928 -3.077 L 5.946 -3.141 L 5.96 -3.203 L 5.973 -3.263 L 5.984 -3.32 L 5.993 -3.375 L 6 -3.427 L 6.006 -3.477 L 6.011 -3.524 L 6.957 -3.524 L 6.957 -3.988 L 5.797 -3.988 L 5.782 -3.987 L 5.767 -3.986 L 5.752 -3.983 L 5.737 -3.98 L 5.723 -3.976 L 5.709 -3.97 L 5.695 -3.964 L 5.681 -3.957 L 5.669 -3.949 L 5.656 -3.94 L 5.644 -3.93 L 5.633 -3.92 L 5.623 -3.909 L 5.613 -3.897 L 5.605 -3.885 L 5.597 -3.872 L 5.589 -3.859 L 5.583 -3.845 L 5.578 -3.83 L 5.573 -3.816 L 5.57 -3.801 L 5.567 -3.786 L 5.566 -3.771 L 5.565 -3.756 L 5.565 -3.748 L 5.565 -3.725 L 5.563 -3.688 L 5.559 -3.639 L 5.553 -3.579 L 5.544 -3.51 L 5.532 -3.432 L 5.516 -3.349 L 5.495 -3.259 L 5.47 -3.167 L 5.439 -3.072 L 5.403 -2.975 L 5.36 -2.881 L 5.313 -2.788 L 5.259 -2.7 L 5.199 -2.616 L 5.13 -2.539 L 5.053 -2.468 L 4.965 -2.405 L 4.867 -2.352 L 4.757 -2.308 L 4.635 -2.276 L 4.499 -2.256 L 4.349 -2.249 L 4.198 -2.256 L 4.062 -2.276 L 3.94 -2.308 L 3.83 -2.352 L 3.732 -2.405 L 3.644 -2.468 L 3.567 -2.539 L 3.498 -2.616 L 3.437 -2.7 L 3.384 -2.788 L 3.336 -2.881 L 3.294 -2.976 L 3.257 -3.072 L 3.226 -3.167 L 3.201 -3.26 L 3.18 -3.349 L 3.164 -3.433 L 3.152 -3.51 L 3.143 -3.579 L 3.137 -3.639 L 3.134 -3.688 L 3.132 -3.725 L 3.131 -3.748 L 3.131 -3.756 L 3.131 -3.756 L 3.128 -3.786 L 3.122 -3.816 L 3.112 -3.844 L 3.098 -3.871 L 3.081 -3.896 L 3.061 -3.918 L 3.039 -3.938 L 3.014 -3.954 L 2.987 -3.967 L 2.958 -3.977 L 2.929 -3.983 L 2.899 -3.985 L 2.869 -3.983 L 2.839 -3.977 L 2.811 -3.967 L 2.784 -3.954 L 2.759 -3.938 L 2.736 -3.918 L 2.716 -3.895 L 2.699 -3.871 L 2.685 -3.844 L 2.675 -3.815 L 2.669 -3.786 L 2.667 -3.756 L 2.667 -3.748 L 2.666 -3.725 L 2.664 -3.688 L 2.66 -3.639 L 2.654 -3.579 L 2.645 -3.51 L 2.633 -3.432 L 2.617 -3.349 L 2.597 -3.259 L 2.571 -3.167 L 2.541 -3.072 L 2.504 -2.975 L 2.462 -2.881 L 2.414 -2.788 L 2.361 -2.7 L 2.3 -2.616 L 2.231 -2.539 L 2.154 -2.468 L 2.067 -2.405 L 1.969 -2.352 L 1.859 -2.308 L 1.736 -2.276 L 1.6 -2.256 L 1.45 -2.249 L 1.299 -2.256 L 1.163 -2.276 L 1.041 -2.308 L 0.931 -2.352 L 0.833 -2.405 L 0.746 -2.468 L 0.668 -2.539 L 0.599 -2.616 L 0.539 -2.7 L 0.485 -2.788 L 0.438 -2.881 L 0.395 -2.976 L 0.358 -3.072 L 0.328 -3.167 L 0.302 -3.26 L 0.282 -3.349 L 0.266 -3.433 L 0.254 -3.51 L 0.245 -3.579 L 0.239 -3.639 L 0.235 -3.688 L 0.233 -3.725 L 0.232 -3.748 L 0.232 -3.756 L 0.232 -3.756 L 0.23 -3.786 L 0.223 -3.816 L 0.213 -3.844 L 0.2 -3.871 L 0.183 -3.896 L 0.163 -3.918 L 0.14 -3.938 L 0.115 -3.954 L 0.088 -3.967 L 0.059 -3.977 L 0.03 -3.983 L -0 -3.985 L -0.03 -3.983 L -0.06 -3.977 L -0.088 -3.967 L -0.115 -3.954 L -0.14 -3.938 L -0.163 -3.918 L -0.183 -3.895 L -0.2 -3.871 L -0.213 -3.844 L -0.223 -3.815 L -0.23 -3.786 L -0.232 -3.756 L -0.232 -3.748 L -0.233 -3.725 L -0.235 -3.688 L -0.239 -3.639 L -0.245 -3.579 L -0.253 -3.51 L -0.265 -3.432 L -0.281 -3.349 L -0.302 -3.259 L -0.327 -3.167 L -0.358 -3.072 L -0.395 -2.975 L -0.437 -2.881 L -0.484 -2.788 L -0.538 -2.7 L -0.599 -2.616 L -0.667 -2.539 L -0.745 -2.468 L -0.832 -2.405 L -0.93 -2.352 L -1.04 -2.308 L -1.162 -2.276 L -1.298 -2.256 L -1.449 -2.249 L -1.599 -2.256 L -1.735 -2.276 L -1.858 -2.308 L -1.968 -2.352 L -2.066 -2.405 L -2.153 -2.468 L -2.231 -2.539 L -2.299 -2.616 L -2.36 -2.7 L -2.414 -2.788 L -2.461 -2.881 L -2.503 -2.976 L -2.54 -3.072 L -2.571 -3.167 L -2.596 -3.26 L -2.617 -3.349 L -2.633 -3.433 L -2.645 -3.51 L -2.654 -3.579 L -2.66 -3.639 L -2.664 -3.688 L -2.666 -3.725 L -2.667 -3.748 L -2.667 -3.756 L -2.667 -3.756 L -2.667 -3.756 L -2.667 -3.756 L -2.667 -3.756 L -2.669 -3.786 L -2.675 -3.816 L -2.685 -3.844 L -2.699 -3.871 L -2.716 -3.896 L -2.736 -3.918 L -2.759 -3.938 L -2.784 -3.954 L -2.811 -3.967 L -2.839 -3.977 L -2.869 -3.983 L -2.899 -3.985 L -2.929 -3.983 L -2.958 -3.977 L -2.987 -3.967 L -3.014 -3.954 L -3.039 -3.938 L -3.062 -3.918 L -3.082 -3.895 L -3.098 -3.871 L -3.112 -3.844 L -3.122 -3.815 L -3.128 -3.786 L -3.131 -3.756 L -3.131 -3.748 L -3.132 -3.725 L -3.134 -3.688 L -3.137 -3.64 L -3.143 -3.58 L -3.152 -3.511 L -3.164 -3.434 L -3.18 -3.35 L -3.201 -3.262 L -3.226 -3.169 L -3.257 -3.075 L -3.293 -2.979 L -3.336 -2.885 L -3.383 -2.793 L -3.437 -2.705 L -3.497 -2.621 L -3.566 -2.544 L -3.643 -2.474 L -3.731 -2.411 L -3.829 -2.358 L -3.938 -2.315 L -4.061 -2.282 L -4.197 -2.262 L -4.347 -2.255 L -4.498 -2.262 L -4.634 -2.282 L -4.756 -2.315 L -4.866 -2.359 L -4.964 -2.412 L -5.052 -2.475 L -5.129 -2.546 L -5.198 -2.624 L -5.259 -2.708 L -5.312 -2.797 L -5.36 -2.889 L -5.402 -2.985 L -5.439 -3.081 L -5.47 -3.177 L -5.495 -3.27 L -5.516 -3.359 L -5.532 -3.443 L -5.544 -3.521 L -5.553 -3.591 L -5.559 -3.651 L -5.562 -3.7 L -5.564 -3.737 L -5.565 -3.76 L -5.565 -3.768 L -5.566 -3.783 L -5.567 -3.798 L -5.57 -3.813 L -5.573 -3.828 L -5.578 -3.843 L -5.583 -3.857 L -5.589 -3.871 L -5.597 -3.884 L -5.605 -3.897 L -5.613 -3.909 L -5.623 -3.921 L -5.633 -3.932 L -5.644 -3.942 L -5.656 -3.952 L -5.669 -3.961 L -5.681 -3.969 L -5.695 -3.976 L -5.709 -3.982 L -5.723 -3.988 L -5.737 -3.992 L -5.752 -3.996 L -5.767 -3.998 L -5.782 -3.999 L -5.797 -4 L -6.957 -4 L -6.957 -3.536 Z" /></svg>