<svg version="1.1" xmlns="http://www.w3.org/2000/svg" viewBox="-5.367 -5 10.735 10" fill="black" stroke="none"><path fill-rule="evenodd" d="M 2.178 -3.782 L 2.172 -3.782 L 2.155 -3.781 L 2.127 -3.78 L 2.09 -3.778 L 2.044 -3.773 L 1.991 -3.767 L 1.932 -3.758 L 1.868 -3.746 L 1.799 -3.73 L 1.727 -3.71 L 1.652 -3.686 L 1.577 -3.657 L 1.5 -3.622 L 1.424 -3.579 L 1.349 -3.53 L 1.277 -3.473 L 1.208 -3.409 L 1.145 -3.336 L 1.088 -3.256 L 1.039 -3.168 L 0.998 -3.071 L 0.968 -2.965 L 0.948 -2.85 L 0.942 -2.727 L 0.948 -2.608 L 0.966 -2.498 L 0.994 -2.396 L 1.031 -2.303 L 1.077 -2.217 L 1.131 -2.139 L 1.19 -2.068 L 1.254 -2.004 L 1.322 -1.948 L 1.393 -1.898 L 1.466 -1.855 L 1.54 -1.818 L 1.466 -1.781 L 1.393 -1.738 L 1.322 -1.688 L 1.254 -1.632 L 1.19 -1.568 L 1.131 -1.497 L 1.077 -1.419 L 1.031 -1.333 L 0.994 -1.239 L 0.966 -1.138 L 0.948 -1.027 L 0.942 -0.909 L 0.948 -0.79 L 0.966 -0.68 L 0.994 -0.578 L 1.031 -0.484 L 1.077 -0.399 L 1.131 -0.32 L 1.19 -0.25 L 1.254 -0.186 L 1.322 -0.129 L 1.393 -0.08 L 1.466 -0.037 L 1.54 0 L 1.466 0.037 L 1.393 0.08 L 1.322 0.13 L 1.254 0.186 L 1.19 0.25 L 1.131 0.321 L 1.077 0.399 L 1.031 0.485 L 0.994 0.579 L 0.966 0.681 L 0.948 0.791 L 0.942 0.909 L 0.948 1.028 L 0.966 1.138 L 0.994 1.24 L 1.032 1.334 L 1.078 1.42 L 1.131 1.498 L 1.19 1.569 L 1.255 1.633 L 1.323 1.689 L 1.394 1.739 L 1.467 1.782 L 1.541 1.819 L 1.467 1.856 L 1.395 1.899 L 1.324 1.949 L 1.256 2.005 L 1.192 2.069 L 1.133 2.14 L 1.08 2.218 L 1.035 2.304 L 0.997 2.397 L 0.969 2.499 L 0.951 2.609 L 0.945 2.728 L 0.952 2.851 L 0.971 2.966 L 1.002 3.071 L 1.042 3.168 L 1.092 3.257 L 1.149 3.337 L 1.213 3.409 L 1.281 3.474 L 1.354 3.531 L 1.429 3.58 L 1.506 3.622 L 1.582 3.657 L 1.658 3.686 L 1.733 3.71 L 1.805 3.73 L 1.875 3.746 L 1.939 3.758 L 1.999 3.767 L 2.051 3.773 L 2.097 3.778 L 2.134 3.78 L 2.162 3.781 L 2.18 3.782 L 2.186 3.782 L 4.367 3.782 L 4.367 3.491 L 2.186 3.491 L 2.181 3.491 L 2.166 3.49 L 2.143 3.489 L 2.112 3.487 L 2.074 3.483 L 2.03 3.477 L 1.982 3.47 L 1.929 3.46 L 1.873 3.447 L 1.814 3.431 L 1.754 3.412 L 1.694 3.388 L 1.634 3.362 L 1.576 3.332 L 1.52 3.298 L 1.468 3.26 L 1.419 3.217 L 1.374 3.169 L 1.335 3.114 L 1.301 3.053 L 1.274 2.984 L 1.253 2.907 L 1.24 2.822 L 1.236 2.728 L 1.24 2.633 L 1.253 2.548 L 1.273 2.471 L 1.301 2.402 L 1.334 2.341 L 1.373 2.286 L 1.417 2.237 L 1.466 2.194 L 1.518 2.156 L 1.573 2.123 L 1.631 2.093 L 1.69 2.066 L 1.75 2.043 L 1.81 2.024 L 1.868 2.008 L 1.923 1.995 L 1.976 1.985 L 2.024 1.977 L 2.067 1.972 L 2.105 1.968 L 2.135 1.966 L 2.158 1.964 L 2.173 1.964 L 2.178 1.964 L 2.178 1.964 L 2.178 1.964 L 2.178 1.964 L 2.178 1.964 L 2.178 1.964 L 2.178 1.964 L 2.178 1.964 L 2.178 1.964 L 2.178 1.964 L 2.178 1.964 L 2.178 1.964 L 2.178 1.964 L 2.197 1.962 L 2.215 1.958 L 2.233 1.952 L 2.25 1.943 L 2.266 1.933 L 2.28 1.92 L 2.292 1.906 L 2.302 1.89 L 2.311 1.873 L 2.317 1.855 L 2.32 1.837 L 2.321 1.818 L 2.32 1.799 L 2.317 1.781 L 2.311 1.763 L 2.302 1.746 L 2.292 1.73 L 2.28 1.716 L 2.265 1.703 L 2.25 1.693 L 2.233 1.684 L 2.215 1.678 L 2.197 1.674 L 2.178 1.673 L 2.178 1.673 L 2.178 1.673 L 2.178 1.673 L 2.178 1.673 L 2.178 1.673 L 2.178 1.673 L 2.178 1.673 L 2.178 1.673 L 2.178 1.673 L 2.178 1.673 L 2.178 1.673 L 2.178 1.673 L 2.173 1.673 L 2.158 1.672 L 2.135 1.671 L 2.104 1.668 L 2.067 1.665 L 2.023 1.659 L 1.975 1.652 L 1.922 1.641 L 1.867 1.629 L 1.808 1.613 L 1.749 1.593 L 1.688 1.57 L 1.629 1.544 L 1.571 1.514 L 1.516 1.48 L 1.463 1.442 L 1.414 1.399 L 1.37 1.351 L 1.331 1.296 L 1.297 1.235 L 1.27 1.166 L 1.25 1.089 L 1.237 1.004 L 1.233 0.909 L 1.237 0.815 L 1.25 0.73 L 1.27 0.653 L 1.297 0.584 L 1.331 0.523 L 1.37 0.468 L 1.415 0.419 L 1.463 0.376 L 1.516 0.338 L 1.571 0.305 L 1.629 0.275 L 1.689 0.248 L 1.749 0.225 L 1.808 0.206 L 1.867 0.19 L 1.922 0.177 L 1.975 0.167 L 2.024 0.159 L 2.067 0.154 L 2.105 0.15 L 2.135 0.147 L 2.158 0.146 L 2.173 0.146 L 2.178 0.145 L 2.178 0.145 L 2.178 0.145 L 2.178 0.145 L 2.178 0.145 L 2.178 0.145 L 2.178 0.145 L 2.178 0.145 L 2.178 0.145 L 2.178 0.145 L 2.178 0.145 L 2.178 0.145 L 2.178 0.145 L 2.197 0.144 L 2.215 0.14 L 2.233 0.134 L 2.25 0.125 L 2.266 0.115 L 2.28 0.102 L 2.292 0.088 L 2.302 0.072 L 2.311 0.055 L 2.317 0.037 L 2.32 0.019 L 2.321 -0 L 2.32 -0.019 L 2.317 -0.037 L 2.311 -0.055 L 2.302 -0.072 L 2.292 -0.088 L 2.28 -0.102 L 2.265 -0.115 L 2.25 -0.125 L 2.233 -0.134 L 2.215 -0.14 L 2.197 -0.144 L 2.178 -0.145 L 2.178 -0.145 L 2.178 -0.145 L 2.178 -0.145 L 2.178 -0.145 L 2.178 -0.145 L 2.178 -0.145 L 2.178 -0.145 L 2.178 -0.145 L 2.178 -0.145 L 2.178 -0.145 L 2.178 -0.145 L 2.178 -0.145 L 2.173 -0.146 L 2.158 -0.146 L 2.135 -0.147 L 2.104 -0.15 L 2.067 -0.153 L 2.023 -0.159 L 1.975 -0.167 L 1.922 -0.177 L 1.867 -0.19 L 1.808 -0.205 L 1.749 -0.225 L 1.688 -0.248 L 1.629 -0.274 L 1.571 -0.304 L 1.516 -0.338 L 1.463 -0.376 L 1.414 -0.419 L 1.37 -0.467 L 1.331 -0.522 L 1.297 -0.584 L 1.27 -0.652 L 1.25 -0.729 L 1.237 -0.814 L 1.233 -0.909 L 1.237 -1.003 L 1.25 -1.088 L 1.27 -1.165 L 1.297 -1.234 L 1.331 -1.295 L 1.37 -1.35 L 1.415 -1.399 L 1.463 -1.442 L 1.516 -1.48 L 1.571 -1.514 L 1.629 -1.543 L 1.689 -1.57 L 1.749 -1.593 L 1.808 -1.612 L 1.867 -1.628 L 1.922 -1.641 L 1.975 -1.651 L 2.024 -1.659 L 2.067 -1.665 L 2.105 -1.668 L 2.135 -1.671 L 2.158 -1.672 L 2.173 -1.673 L 2.178 -1.673 L 2.178 -1.673 L 2.178 -1.673 L 2.178 -1.673 L 2.178 -1.673 L 2.178 -1.673 L 2.178 -1.673 L 2.178 -1.673 L 2.178 -1.673 L 2.178 -1.673 L 2.178 -1.673 L 2.178 -1.673 L 2.178 -1.673 L 2.197 -1.674 L 2.215 -1.678 L 2.233 -1.684 L 2.25 -1.693 L 2.266 -1.704 L 2.28 -1.716 L 2.292 -1.73 L 2.302 -1.746 L 2.311 -1.763 L 2.317 -1.781 L 2.32 -1.799 L 2.321 -1.818 L 2.32 -1.837 L 2.317 -1.856 L 2.311 -1.873 L 2.302 -1.89 L 2.292 -1.906 L 2.28 -1.92 L 2.265 -1.933 L 2.25 -1.944 L 2.233 -1.952 L 2.215 -1.958 L 2.197 -1.962 L 2.178 -1.964 L 2.178 -1.964 L 2.178 -1.964 L 2.178 -1.964 L 2.178 -1.964 L 2.178 -1.964 L 2.178 -1.964 L 2.178 -1.964 L 2.178 -1.964 L 2.178 -1.964 L 2.178 -1.964 L 2.178 -1.964 L 2.178 -1.964 L 2.173 -1.964 L 2.158 -1.964 L 2.135 -1.966 L 2.104 -1.968 L 2.067 -1.972 L 2.023 -1.977 L 1.975 -1.985 L 1.922 -1.995 L 1.867 -2.008 L 1.808 -2.024 L 1.749 -2.043 L 1.688 -2.066 L 1.629 -2.093 L 1.571 -2.122 L 1.516 -2.156 L 1.463 -2.194 L 1.414 -2.237 L 1.37 -2.286 L 1.331 -2.34 L 1.297 -2.402 L 1.27 -2.471 L 1.25 -2.547 L 1.237 -2.633 L 1.233 -2.727 L 1.237 -2.821 L 1.25 -2.906 L 1.27 -2.983 L 1.297 -3.052 L 1.331 -3.114 L 1.37 -3.168 L 1.415 -3.217 L 1.463 -3.26 L 1.516 -3.298 L 1.571 -3.332 L 1.629 -3.362 L 1.689 -3.388 L 1.749 -3.411 L 1.808 -3.431 L 1.867 -3.447 L 1.922 -3.459 L 1.975 -3.47 L 2.024 -3.477 L 2.067 -3.483 L 2.105 -3.487 L 2.135 -3.489 L 2.158 -3.49 L 2.173 -3.491 L 2.178 -3.491 L 4.367 -3.491 L 4.367 -3.782 L 2.178 -3.782 L 2.178 -3.782 L 2.178 -3.782 L 2.178 -3.782 L 2.178 -3.782 L 2.178 -3.782 L 2.178 -3.782 L 2.178 -3.782 L 2.178 -3.782 L 2.178 -3.782 L 2.178 -3.782 L 2.178 -3.782 L 2.178 -3.782 L 2.178 -3.782 L 2.178 -3.782 L 2.178 -3.782 L 2.178 -3.782 L 2.178 -3.782 L 2.178 -3.782 L 2.178 -3.782 L 2.178 -3.782 L 2.178 -3.782 L 2.178 -3.782 L 2.178 -3.782 L 2.178 -3.782 L 2.178 -3.782 Z M 0.214 4 L 0.505 4 L 0.505 -4 L 0.214 -4 L 0.214 4 Z M -4.367 3.782 L -2.178 3.782 L -2.172 3.782 L -2.155 3.781 L -2.127 3.78 L -2.09 3.778 L -2.044 3.773 L -1.992 3.767 L -1.933 3.758 L -1.868 3.746 L -1.799 3.73 L -1.727 3.711 L -1.653 3.686 L -1.577 3.657 L -1.5 3.622 L -1.424 3.58 L -1.349 3.531 L -1.277 3.474 L -1.208 3.409 L -1.145 3.337 L -1.088 3.257 L -1.039 3.168 L -0.998 3.071 L -0.968 2.966 L -0.948 2.851 L -0.942 2.728 L -0.948 2.609 L -0.966 2.499 L -0.994 2.397 L -1.031 2.303 L -1.077 2.217 L -1.13 2.139 L -1.19 2.068 L -1.254 2.005 L -1.322 1.948 L -1.393 1.898 L -1.466 1.855 L -1.539 1.818 L -1.466 1.782 L -1.393 1.738 L -1.322 1.689 L -1.254 1.632 L -1.19 1.569 L -1.13 1.498 L -1.077 1.42 L -1.031 1.334 L -0.994 1.24 L -0.966 1.138 L -0.948 1.028 L -0.942 0.909 L -0.948 0.791 L -0.966 0.681 L -0.994 0.579 L -1.031 0.485 L -1.077 0.399 L -1.13 0.321 L -1.19 0.25 L -1.254 0.186 L -1.322 0.13 L -1.393 0.08 L -1.466 0.037 L -1.539 0 L -1.466 -0.037 L -1.393 -0.08 L -1.322 -0.129 L -1.254 -0.186 L -1.19 -0.25 L -1.13 -0.32 L -1.077 -0.399 L -1.031 -0.484 L -0.994 -0.578 L -0.966 -0.68 L -0.948 -0.79 L -0.942 -0.909 L -0.948 -1.028 L -0.966 -1.138 L -0.994 -1.24 L -1.032 -1.334 L -1.078 -1.42 L -1.131 -1.498 L -1.19 -1.569 L -1.255 -1.632 L -1.323 -1.689 L -1.394 -1.739 L -1.467 -1.782 L -1.541 -1.819 L -1.467 -1.855 L -1.395 -1.899 L -1.324 -1.948 L -1.256 -2.005 L -1.192 -2.068 L -1.134 -2.139 L -1.081 -2.217 L -1.035 -2.303 L -0.998 -2.397 L -0.97 -2.498 L -0.952 -2.608 L -0.946 -2.727 L -0.952 -2.851 L -0.972 -2.965 L -1.002 -3.071 L -1.043 -3.168 L -1.093 -3.256 L -1.15 -3.337 L -1.213 -3.409 L -1.282 -3.474 L -1.354 -3.53 L -1.429 -3.58 L -1.506 -3.622 L -1.583 -3.657 L -1.659 -3.686 L -1.733 -3.71 L -1.806 -3.73 L -1.875 -3.746 L -1.939 -3.758 L -1.999 -3.767 L -2.052 -3.773 L -2.097 -3.778 L -2.134 -3.78 L -2.162 -3.781 L -2.18 -3.782 L -2.186 -3.782 L -4.367 -3.782 L -4.367 -3.491 L -2.186 -3.491 L -2.181 -3.491 L -2.166 -3.49 L -2.143 -3.489 L -2.112 -3.487 L -2.074 -3.483 L -2.031 -3.477 L -1.982 -3.47 L -1.929 -3.46 L -1.873 -3.447 L -1.815 -3.431 L -1.755 -3.412 L -1.694 -3.388 L -1.634 -3.362 L -1.576 -3.332 L -1.521 -3.298 L -1.468 -3.26 L -1.419 -3.217 L -1.375 -3.169 L -1.335 -3.114 L -1.302 -3.052 L -1.274 -2.983 L -1.254 -2.907 L -1.241 -2.821 L -1.237 -2.727 L -1.241 -2.632 L -1.254 -2.547 L -1.274 -2.47 L -1.301 -2.401 L -1.335 -2.34 L -1.374 -2.285 L -1.418 -2.237 L -1.466 -2.194 L -1.519 -2.156 L -1.574 -2.122 L -1.631 -2.092 L -1.691 -2.066 L -1.751 -2.043 L -1.81 -2.023 L -1.868 -2.008 L -1.924 -1.995 L -1.976 -1.985 L -2.024 -1.977 L -2.068 -1.972 L -2.105 -1.968 L -2.136 -1.966 L -2.159 -1.964 L -2.173 -1.964 L -2.178 -1.964 L -2.197 -1.962 L -2.215 -1.958 L -2.233 -1.952 L -2.25 -1.944 L -2.265 -1.933 L -2.28 -1.92 L -2.292 -1.906 L -2.302 -1.89 L -2.311 -1.873 L -2.317 -1.856 L -2.32 -1.837 L -2.321 -1.818 L -2.32 -1.799 L -2.317 -1.781 L -2.311 -1.763 L -2.302 -1.746 L -2.292 -1.73 L -2.28 -1.716 L -2.266 -1.704 L -2.25 -1.693 L -2.233 -1.684 L -2.215 -1.678 L -2.197 -1.674 L -2.178 -1.673 L -2.178 -1.673 L -2.178 -1.673 L -2.178 -1.673 L -2.178 -1.673 L -2.173 -1.673 L -2.158 -1.672 L -2.135 -1.671 L -2.105 -1.668 L -2.067 -1.665 L -2.024 -1.659 L -1.975 -1.651 L -1.923 -1.641 L -1.867 -1.629 L -1.808 -1.613 L -1.749 -1.593 L -1.689 -1.57 L -1.629 -1.544 L -1.571 -1.514 L -1.516 -1.48 L -1.463 -1.442 L -1.415 -1.399 L -1.37 -1.351 L -1.331 -1.296 L -1.297 -1.234 L -1.27 -1.165 L -1.25 -1.088 L -1.237 -1.003 L -1.233 -0.909 L -1.237 -0.814 L -1.25 -0.729 L -1.27 -0.652 L -1.297 -0.583 L -1.331 -0.522 L -1.37 -0.467 L -1.415 -0.418 L -1.463 -0.375 L -1.516 -0.337 L -1.571 -0.304 L -1.629 -0.274 L -1.688 -0.248 L -1.749 -0.225 L -1.808 -0.205 L -1.867 -0.189 L -1.922 -0.177 L -1.975 -0.167 L -2.024 -0.159 L -2.067 -0.153 L -2.105 -0.15 L -2.135 -0.147 L -2.158 -0.146 L -2.173 -0.146 L -2.178 -0.145 L -2.197 -0.144 L -2.215 -0.14 L -2.233 -0.134 L -2.25 -0.125 L -2.265 -0.115 L -2.28 -0.102 L -2.292 -0.088 L -2.302 -0.072 L -2.311 -0.055 L -2.317 -0.037 L -2.32 -0.019 L -2.321 -0 L -2.32 0.019 L -2.317 0.037 L -2.311 0.055 L -2.302 0.072 L -2.292 0.088 L -2.28 0.102 L -2.266 0.115 L -2.25 0.125 L -2.233 0.134 L -2.215 0.14 L -2.197 0.144 L -2.178 0.145 L -2.178 0.145 L -2.173 0.146 L -2.158 0.146 L -2.135 0.147 L -2.105 0.15 L -2.067 0.153 L -2.024 0.159 L -1.975 0.167 L -1.923 0.177 L -1.867 0.19 L -1.808 0.205 L -1.749 0.225 L -1.689 0.248 L -1.629 0.274 L -1.571 0.304 L -1.516 0.338 L -1.463 0.376 L -1.415 0.419 L -1.37 0.468 L -1.331 0.522 L -1.297 0.584 L -1.27 0.653 L -1.25 0.73 L -1.237 0.815 L -1.233 0.909 L -1.237 1.004 L -1.25 1.089 L -1.27 1.166 L -1.297 1.235 L -1.331 1.296 L -1.37 1.351 L -1.415 1.4 L -1.463 1.443 L -1.516 1.481 L -1.571 1.514 L -1.629 1.544 L -1.688 1.571 L -1.749 1.594 L -1.808 1.613 L -1.867 1.629 L -1.922 1.642 L -1.975 1.652 L -2.024 1.659 L -2.067 1.665 L -2.105 1.669 L -2.135 1.671 L -2.158 1.672 L -2.173 1.673 L -2.178 1.673 L -2.197 1.674 L -2.215 1.678 L -2.233 1.684 L -2.25 1.693 L -2.265 1.703 L -2.28 1.716 L -2.292 1.73 L -2.302 1.746 L -2.311 1.763 L -2.317 1.781 L -2.32 1.799 L -2.321 1.818 L -2.32 1.837 L -2.317 1.855 L -2.311 1.873 L -2.302 1.89 L -2.292 1.906 L -2.28 1.92 L -2.266 1.933 L -2.25 1.943 L -2.233 1.952 L -2.215 1.958 L -2.197 1.962 L -2.178 1.964 L -2.178 1.964 L -2.178 1.964 L -2.178 1.964 L -2.178 1.964 L -2.173 1.964 L -2.158 1.964 L -2.135 1.966 L -2.105 1.968 L -2.067 1.972 L -2.024 1.977 L -1.975 1.985 L -1.923 1.995 L -1.867 2.008 L -1.808 2.024 L -1.749 2.043 L -1.689 2.066 L -1.629 2.093 L -1.571 2.122 L -1.516 2.156 L -1.463 2.194 L -1.415 2.237 L -1.37 2.286 L -1.331 2.341 L -1.297 2.402 L -1.27 2.471 L -1.25 2.548 L -1.237 2.633 L -1.233 2.728 L -1.237 2.822 L -1.25 2.907 L -1.27 2.984 L -1.297 3.053 L -1.331 3.115 L -1.37 3.169 L -1.415 3.218 L -1.463 3.261 L -1.516 3.299 L -1.571 3.332 L -1.629 3.362 L -1.688 3.389 L -1.749 3.412 L -1.808 3.431 L -1.867 3.447 L -1.922 3.46 L -1.975 3.47 L -2.024 3.477 L -2.067 3.483 L -2.105 3.487 L -2.135 3.489 L -2.158 3.49 L -2.173 3.491 L -2.178 3.491 L -4.367 3.491 L -4.367 3.782 Z M -0.513 4 L -0.222 4 L -0.222 -4 L -0.513 -4 L -0.513 4 Z" /></svg>