<svg version="1.1" xmlns="http://www.w3.org/2000/svg" viewBox="-11.90909151239671 -5.00000085454546 23.81818302479342 10.00000170909092" fill="black" stroke="none">
    <path fill-rule="evenodd" d="M 4.85087 3.09972 L 10.90909 3.09972 L 10.90909 2.37244 L 4.85703 2.37244 L 4.80847 2.23369 L 4.73437 2.08682 L 4.64259 1.95138 L 4.5347 1.82893 L 4.41226 1.72104 L 4.27682 1.62927 L 4.12995 1.55517 L 3.97321 1.50031 L 3.80816 1.46625 L 3.63636 1.45455 L 3.46457 1.46625 L 3.29952 1.50031 L 3.14278 1.55517 L 2.99591 1.62927 L 2.86047 1.72104 L 2.73802 1.82893 L 2.63013 1.95138 L 2.53836 2.08682 L 2.46426 2.23369 L 2.4094 2.39043 L 2.37534 2.55548 L 2.36364 2.72727 L 2.37534 2.89907 L 2.4094 3.06412 L 2.46426 3.22086 L 2.53836 3.36773 L 2.63013 3.50317 L 2.73802 3.62561 L 2.86047 3.7335 L 2.99591 3.82528 L 3.14278 3.89938 L 3.29952 3.95424 L 3.46457 3.9883 L 3.63636 4 L 3.80816 3.9883 L 3.97321 3.95424 L 4.12995 3.89938 L 4.27682 3.82528 L 4.41226 3.7335 L 4.5347 3.62561 L 4.64259 3.50317 L 4.73437 3.36773 L 4.80847 3.22086 L 4.85087 3.09972 Z M 3.63636 2.18182 L 3.71128 2.18672 L 3.78286 2.201 L 3.8505 2.22408 L 3.91358 2.25533 L 3.97151 2.29416 L 4.02367 2.33996 L 4.06947 2.39213 L 4.1083 2.45006 L 4.13956 2.51314 L 4.16263 2.58077 L 4.17692 2.65235 L 4.18182 2.72727 L 4.17692 2.80219 L 4.16263 2.87377 L 4.13956 2.94141 L 4.1083 3.00449 L 4.06947 3.06242 L 4.02367 3.11458 L 3.97151 3.16038 L 3.91358 3.19921 L 3.8505 3.23047 L 3.78286 3.25354 L 3.71128 3.26783 L 3.63636 3.27273 L 3.56144 3.26783 L 3.48986 3.25354 L 3.42223 3.23047 L 3.35915 3.19921 L 3.30122 3.16038 L 3.24905 3.11458 L 3.20325 3.06242 L 3.16442 3.00449 L 3.13317 2.94141 L 3.11009 2.87377 L 3.09581 2.80219 L 3.09091 2.72727 L 3.09581 2.65235 L 3.11009 2.58077 L 3.13317 2.51314 L 3.16442 2.45006 L 3.20325 2.39213 L 3.24905 2.33996 L 3.30122 2.29416 L 3.35915 2.25533 L 3.42223 2.22408 L 3.48986 2.201 L 3.56144 2.18672 L 3.63636 2.18182 Z M -1.81818 -4 L -1.81818 -3.27273 L -0.36364 -3.27273 L -0.36364 -1.27273 L -5.45455 -1.27273 L -5.45455 -0.54545 L 5.45455 -0.54545 L 5.45455 -1.27273 L 0.36364 -1.27273 L 0.36364 -3.27273 L 1.81818 -3.27273 L 1.81818 -4 L -1.81818 -4 Z M -4.85703 3.0821 L -4.80847 3.22086 L -4.73437 3.36773 L -4.64259 3.50317 L -4.5347 3.62561 L -4.41226 3.7335 L -4.27682 3.82528 L -4.12995 3.89938 L -3.97321 3.95424 L -3.80816 3.9883 L -3.63636 4 L -3.46457 3.9883 L -3.29952 3.95424 L -3.14278 3.89938 L -2.99591 3.82528 L -2.86047 3.7335 L -2.73802 3.62561 L -2.63013 3.50317 L -2.53836 3.36773 L -2.46426 3.22086 L -2.4094 3.06412 L -2.37534 2.89907 L -2.36364 2.72727 L -2.37534 2.55548 L -2.4094 2.39043 L -2.46426 2.23369 L -2.53836 2.08682 L -2.63013 1.95138 L -2.73802 1.82893 L -2.86047 1.72104 L -2.99591 1.62927 L -3.14278 1.55517 L -3.29952 1.50031 L -3.46457 1.46625 L -3.63636 1.45455 L -3.80816 1.46625 L -3.97321 1.50031 L -4.12995 1.55517 L -4.27682 1.62927 L -4.41226 1.72104 L -4.5347 1.82893 L -4.64259 1.95138 L -4.73437 2.08682 L -4.80847 2.23369 L -4.85087 2.35483 L -10.90909 2.35483 L -10.90909 3.0821 L -4.85703 3.0821 Z M -3.63636 2.18182 L -3.56144 2.18672 L -3.48986 2.201 L -3.42223 2.22408 L -3.35915 2.25533 L -3.30122 2.29416 L -3.24905 2.33996 L -3.20325 2.39213 L -3.16442 2.45006 L -3.13317 2.51314 L -3.11009 2.58077 L -3.09581 2.65235 L -3.09091 2.72727 L -3.09581 2.80219 L -3.11009 2.87377 L -3.13317 2.94141 L -3.16442 3.00449 L -3.20325 3.06242 L -3.24905 3.11458 L -3.30122 3.16038 L -3.35915 3.19921 L -3.42223 3.23047 L -3.48986 3.25354 L -3.56144 3.26783 L -3.63636 3.27273 L -3.71128 3.26783 L -3.78286 3.25354 L -3.8505 3.23047 L -3.91358 3.19921 L -3.97151 3.16038 L -4.02367 3.11458 L -4.06947 3.06242 L -4.1083 3.00449 L -4.13956 2.94141 L -4.16263 2.87377 L -4.17692 2.80219 L -4.18182 2.72727 L -4.17692 2.65235 L -4.16263 2.58077 L -4.13956 2.51314 L -4.1083 2.45006 L -4.06947 2.39213 L -4.02367 2.33996 L -3.97151 2.29416 L -3.91358 2.25533 L -3.8505 2.22408 L -3.78286 2.201 L -3.71128 2.18672 L -3.63636 2.18182 Z" />
</svg>