<svg version="1.1" xmlns="http://www.w3.org/2000/svg" viewBox="-8.307500989282333 -5.000000902566674 16.615001978564667 10.000001805133333" fill="black" stroke="none">
    <path fill-rule="evenodd" d="M 0.11998 -0.3911 L -0.41657 -2.39616 L -0.88718 -2.39616 L -1.95628 1.59633 L -3.02481 -2.39901 L -3.48533 -2.42889 L -4.42579 -0.14682 L -7.3075 -0.14682 L -7.3075 0.34035 L -4.26271 0.34035 L -4.03758 0.18963 L -3.30931 -1.57749 L -2.24047 2.41975 L -3.1584 3.51283 L -6.08958 3.51283 L -6.08958 4 L -2.93118 4 L -1.75682 2.60149 L -1.72126 2.60149 L -1.70461 2.53931 L -0.1087 0.6388 M -1.40668 1.42686 L -0.65197 -1.39118 L -0.26245 0.0643 M -0.26245 0.0643 L -1.40668 1.42686 M -0.1087 0.6388 L 0.41657 2.60149 L 0.88699 2.60188 L 1.95647 -1.36073 L 3.025 2.60188 L 3.48533 2.63118 L 4.4258 0.34625 L 7.3075 0.34625 L 7.3075 -0.14092 L 4.26271 -0.14092 L 4.03739 0.00999 L 3.30817 1.78168 L 2.24453 -2.16358 L 3.52358 -3.68677 L 3.1506 -4 L 1.77307 -2.35962 L 1.72126 -2.35962 L 1.69672 -2.26871 L 0.11998 -0.3911 M 0.27371 0.1834 L 1.39548 -1.15248 M 1.39548 -1.15248 L 0.65273 1.59975 L 0.27371 0.1834" />
</svg>