<svg version="1.1" xmlns="http://www.w3.org/2000/svg" viewBox="-7.219625900413828 -5.000000917071661 14.439251800827655 10.000001834143337" fill="black" stroke="none">
    <path fill-rule="evenodd" d="M -4.293 -3.70684 L -2.86663 -2.28047 L -3.15874 -1.98836 L -1.96043 -1.66743 L -2.28136 -2.86574 L -2.57347 -2.57363 L -3.99983 -4 L -4.293 -3.70684 Z M -6.21962 2.0502 L -3.62811 2.0502 L -3.4365 1.92193 L -2.81665 0.41788 L -1.86556 3.97473 L -1.46501 3.97473 L -0.55491 0.57645 L 0.35455 3.97473 L 0.75494 3.97506 L 1.66521 0.60237 L 2.57467 3.97506 L 2.96647 4 L 3.76692 2.05523 L 6.21962 2.05523 L 6.21962 1.64058 L 3.62811 1.64058 L 3.43634 1.76903 L 2.81568 3.27696 L 1.8654 -0.24782 L 1.46501 -0.24782 L 0.55556 3.12212 L -0.35455 -0.27891 L -0.7551 -0.27891 L -1.66505 3.1192 L -2.5745 -0.28134 L -2.96647 -0.30677 L -3.76692 1.63556 L -6.21962 1.63556 L -6.21962 2.0502 Z M -5.84791 -2.15193 L -4.42154 -0.72556 L -4.71365 -0.43345 L -3.51533 -0.11252 L -3.83626 -1.31083 L -4.12837 -1.01873 L -5.55474 -2.44509 L -5.84791 -2.15193 Z" />
</svg>