<svg version="1.1" xmlns="http://www.w3.org/2000/svg" viewBox="-4.731 -5 9.463 10" fill="black" stroke="none"><path fill-rule="evenodd" d="M -3.731 -1.406 L -0.586 -1.387 L -0.619 -1.285 L -0.65 -1.181 L -0.679 -1.075 L -0.704 -0.966 L -0.728 -0.855 L -0.748 -0.741 L -0.766 -0.625 L -0.78 -0.505 L -0.792 -0.383 L -0.8 -0.258 L -0.805 -0.131 L -0.807 0 L -0.805 0.131 L -0.8 0.258 L -0.792 0.383 L -0.78 0.505 L -0.766 0.624 L -0.748 0.741 L -0.728 0.855 L -0.705 0.966 L -0.679 1.075 L -0.65 1.181 L -0.619 1.285 L -0.586 1.386 L -3.731 1.402 L -3.73 1.71 L -0.461 1.693 L -0.351 1.915 L -0.23 2.122 L -0.098 2.316 L 0.044 2.497 L 0.194 2.664 L 0.352 2.819 L 0.517 2.962 L 0.687 3.093 L 0.861 3.212 L 1.038 3.321 L 1.218 3.418 L 1.398 3.505 L 1.671 3.619 L 1.939 3.715 L 2.2 3.792 L 2.449 3.854 L 2.683 3.903 L 2.898 3.939 L 3.09 3.965 L 3.255 3.982 L 3.391 3.993 L 3.492 3.998 L 3.555 4 L 3.577 4 L 3.731 4 L 3.731 -4 L 3.577 -4 L 3.555 -4 L 3.492 -3.998 L 3.391 -3.993 L 3.255 -3.982 L 3.09 -3.965 L 2.898 -3.939 L 2.683 -3.903 L 2.449 -3.854 L 2.2 -3.792 L 1.939 -3.715 L 1.671 -3.619 L 1.398 -3.505 L 1.218 -3.418 L 1.038 -3.321 L 0.861 -3.212 L 0.687 -3.093 L 0.517 -2.962 L 0.353 -2.819 L 0.195 -2.664 L 0.044 -2.497 L -0.098 -2.316 L -0.23 -2.122 L -0.351 -1.915 L -0.461 -1.694 L -3.729 -1.713 L -3.731 -1.406 Z M -0.5 0 L -0.479 -0.447 L -0.421 -0.855 L -0.327 -1.226 L -0.202 -1.563 L -0.048 -1.866 L 0.13 -2.138 L 0.329 -2.382 L 0.546 -2.597 L 0.778 -2.788 L 1.021 -2.955 L 1.271 -3.1 L 1.526 -3.225 L 1.725 -3.31 L 1.922 -3.385 L 2.116 -3.448 L 2.304 -3.502 L 2.485 -3.548 L 2.658 -3.585 L 2.82 -3.615 L 2.971 -3.639 L 3.108 -3.657 L 3.23 -3.671 L 3.336 -3.68 L 3.424 -3.686 L 3.424 3.686 L 3.336 3.68 L 3.23 3.671 L 3.108 3.657 L 2.971 3.639 L 2.82 3.615 L 2.658 3.585 L 2.485 3.548 L 2.304 3.502 L 2.116 3.448 L 1.922 3.385 L 1.725 3.31 L 1.526 3.225 L 1.271 3.1 L 1.021 2.955 L 0.778 2.788 L 0.546 2.597 L 0.329 2.382 L 0.13 2.138 L -0.048 1.866 L -0.202 1.563 L -0.327 1.226 L -0.421 0.855 L -0.479 0.447 L -0.5 0 Z" /></svg>