<svg version="1.1" xmlns="http://www.w3.org/2000/svg" viewBox="-8.164161042885489 -5.000000904478185 16.32832208577095 10.00000180895637" fill="black" stroke="none">
    <path fill-rule="evenodd" d="M 4.37967 3.40877 L 7.16416 3.40877 L 7.16416 2.93116 L 4.38372 2.93116 L 4.35183 2.84004 L 4.30317 2.74359 L 4.2429 2.65465 L 4.17204 2.57423 L 4.09163 2.50338 L 4.00269 2.44311 L 3.90624 2.39445 L 3.8033 2.35842 L 3.69491 2.33605 L 3.58209 2.32837 L 3.46927 2.33605 L 3.36088 2.35842 L 3.25795 2.39445 L 3.1615 2.44311 L 3.07255 2.50338 L 2.99214 2.57423 L 2.92129 2.65465 L 2.86102 2.74359 L 2.81236 2.84004 L 2.77633 2.94297 L 2.75396 3.05136 L 2.74628 3.16418 L 2.75396 3.277 L 2.77633 3.38539 L 2.81236 3.48833 L 2.86102 3.58478 L 2.92129 3.67372 L 2.99214 3.75413 L 3.07255 3.82499 L 3.1615 3.88526 L 3.25795 3.93392 L 3.36088 3.96995 L 3.46927 3.99232 L 3.58209 4 L 3.69491 3.99232 L 3.8033 3.96995 L 3.90624 3.93392 L 4.00269 3.88526 L 4.09163 3.82499 L 4.17204 3.75413 L 4.2429 3.67372 L 4.30317 3.58478 L 4.35183 3.48833 L 4.37967 3.40877 Z M 3.58209 2.80598 L 3.63129 2.80919 L 3.6783 2.81858 L 3.72272 2.83373 L 3.76414 2.85425 L 3.80218 2.87975 L 3.83644 2.90983 L 3.86652 2.94409 L 3.89202 2.98213 L 3.91255 3.02356 L 3.9277 3.06798 L 3.93708 3.11498 L 3.9403 3.16418 L 3.93708 3.21338 L 3.9277 3.26039 L 3.91255 3.30481 L 3.89202 3.34623 L 3.86652 3.38428 L 3.83644 3.41854 L 3.80218 3.44861 L 3.76414 3.47411 L 3.72272 3.49464 L 3.6783 3.50979 L 3.63129 3.51917 L 3.58209 3.52239 L 3.53289 3.51917 L 3.48588 3.50979 L 3.44147 3.49464 L 3.40004 3.47411 L 3.362 3.44861 L 3.32774 3.41854 L 3.29766 3.38428 L 3.27216 3.34623 L 3.25164 3.30481 L 3.23648 3.26039 L 3.2271 3.21338 L 3.22389 3.16418 L 3.2271 3.11498 L 3.23648 3.06798 L 3.25164 3.02356 L 3.27216 2.98213 L 3.29766 2.94409 L 3.32774 2.90983 L 3.362 2.87975 L 3.40004 2.85425 L 3.44147 2.83373 L 3.48588 2.81858 L 3.53289 2.80919 L 3.58209 2.80598 Z" />
    <path d="M -7.16416 -3.9999 L -7.16406 -3.9999 L -7.16406 -4 L -7.16416 -4 L -7.16416 -3.9999 Z" />
    <path d="M -7.16411 2.9196 L -7.16411 3.3972 L -4.17906 3.3972 L -4.17906 2.9196 L -7.16411 2.9196 Z" />
</svg>