<svg version="1.1" xmlns="http://www.w3.org/2000/svg" viewBox="-3.7333342968888896 -5.000000946666668 7.466668593777779 10.000001893333335" fill="black" stroke="none">
    <path d="M -1.53333 -1.66667 L -1.53333 -0.12323 L -2.73333 -0.12323 L -2.73333 0.14344 L -1.53333 0.14344 L -1.53333 1.66667 L -1.26667 1.66667 L -1.26667 -1.66667 L -1.53333 -1.66667 Z" />
    <path d="M 1.4 2.26667 L 2.46667 3.06667 L 2.46667 4 L 2.73333 4 L 2.73333 2.93333 L 1.4 1.93333 L 1.4 0.74896 L 2.72698 0.08219 L 2.72698 -4 L 2.46031 -4 L 2.46031 -2.11907 L -0.01146 -1.86667 L 2.46031 -1.86667 L 2.46031 -0.08219 L 1.4 0.45042 L 1.4 -0.33333 L 1.13333 -0.33333 L 1.13333 1.2 L -0.03521 1.2 L -0.09813 1.46667 L 1.13333 1.46667 L 1.13333 3 L 1.4 3 L 1.4 2.26667 Z" />
    <path d="M -0.17333 0.8464 L -0.9696 0.8944 L -0.53013 1.56 L -0.17333 0.8464 Z" />
</svg>