<svg version="1.1" xmlns="http://www.w3.org/2000/svg" viewBox="-5.978523641938507 -5.000000933619919 11.957047283876985 10.000001867239838" fill="black" stroke="none">
    <path d="M -4.97852 -3.99993 L -4.97846 -3.99993 L -4.97846 -4 L -4.97852 -4 L -4.97852 -3.99993 Z" />
    <path fill-rule="evenodd" d="M 1.17593 -0.43204 L -3.48494 -0.43204 L -3.48494 -0.26609 L -3.48494 0.81259 L -4.97849 0.81259 L -4.97849 1.14449 L -3.48494 1.14449 L -3.48494 2.38912 L -1.64522 2.38912 L -3.02144 3.76534 L -2.78678 4 L -1.1759 2.38912 L 3.48497 2.38912 L 3.48497 1.14449 L 4.97852 1.14449 L 4.97852 0.81259 L 3.48497 0.81259 L 3.48497 -0.43204 L 1.64526 -0.43204 L 2.90415 -1.69093 L 3.61656 -0.97851 L 3.85123 -1.21317 L 1.17593 -0.43204 Z M 1.31336 -0.10014 L 3.15307 -0.10014 L 3.15307 2.05722 L -0.844 2.05722 L 1.31336 -0.10014 Z M -3.15304 -0.10014 L 0.84403 -0.10014 L -1.31332 2.05722 L -3.15304 2.05722 L -3.15304 -0.10014 Z" />
</svg>