<svg version="1.1" xmlns="http://www.w3.org/2000/svg" viewBox="-5.94845061549109 -5.000000934020892 11.896901230982152 10.000001868041783" fill="black" stroke="none">
    <path d="M -4.94845 -3.99993 L -4.94838 -3.99993 L -4.94838 -4 L -4.94845 -4 L -4.94845 -3.99993 Z" />
    <path fill-rule="evenodd" d="M -3.04039 0.78352 L -4.94842 0.78352 L -4.94842 1.11341 L -3.04039 1.11341 L -3.02362 1.36213 L -2.94238 1.75901 L -2.81144 2.13544 L -2.63446 2.48776 L -2.4151 2.81234 L -2.15701 3.10549 L -1.86385 3.36358 L -1.53928 3.58294 L -1.18695 3.75992 L -0.81052 3.89086 L -0.41365 3.97211 L 0.00002 4 L 0.41368 3.97211 L 0.81056 3.89086 L 1.18699 3.75992 L 1.53931 3.58294 L 1.86389 3.36358 L 2.15704 3.10549 L 2.41513 2.81234 L 2.63449 2.48776 L 2.81147 2.13544 L 2.94241 1.75901 L 3.02366 1.36213 L 3.04043 1.11341 L 4.94845 1.11341 L 4.94845 0.78352 L 3.04043 0.78352 L 3.02366 0.5348 L 2.94241 0.13793 L 2.81147 -0.2385 L 2.63449 -0.59083 L 2.41513 -0.9154 L 2.15704 -1.20856 L 1.86389 -1.46665 L 1.53931 -1.68601 L 1.18699 -1.86299 L 0.81056 -1.99393 L 0.41368 -2.07517 L 0.00002 -2.10307 L -0.41365 -2.07517 L -0.81052 -1.99393 L -1.18695 -1.86299 L -1.53928 -1.68601 L -1.86385 -1.46665 L -2.15701 -1.20856 L -2.4151 -0.9154 L -2.63446 -0.59083 L -2.81144 -0.2385 L -2.94238 0.13793 L -3.02362 0.5348 L -3.04039 0.78352 Z M -2.71055 1.11341 L -0.77524 1.11341 L -0.77524 1.77321 L -0.44534 1.77321 L -0.44534 0.12373 L -0.77524 0.12373 L -0.77524 0.78352 L -2.71055 0.78352 L -2.69681 0.57875 L -2.62454 0.22427 L -2.50802 -0.11174 L -2.35047 -0.42606 L -2.15513 -0.71548 L -1.9252 -0.97675 L -1.66393 -1.20668 L -1.37451 -1.40202 L -1.06019 -1.55957 L -0.72418 -1.67609 L -0.3697 -1.74836 L 0.00002 -1.77317 L 0.36974 -1.74836 L 0.72421 -1.67609 L 1.06022 -1.55957 L 1.37455 -1.40202 L 1.66396 -1.20668 L 1.92524 -0.97675 L 2.15516 -0.71548 L 2.35051 -0.42606 L 2.50805 -0.11174 L 2.62457 0.22427 L 2.69685 0.57875 L 2.71059 0.78352 L 0.77527 0.78352 L 0.77527 -0.70101 L 0.44538 -0.70101 L 0.44538 2.59794 L 0.77527 2.59794 L 0.77527 1.11341 L 2.71059 1.11341 L 2.69685 1.31819 L 2.62457 1.67266 L 2.50805 2.00867 L 2.35051 2.323 L 2.15516 2.61241 L 1.92524 2.87369 L 1.66396 3.10361 L 1.37455 3.29895 L 1.06022 3.4565 L 0.72421 3.57302 L 0.36974 3.6453 L 0.00002 3.6701 L -0.3697 3.6453 L -0.72418 3.57302 L -1.06019 3.4565 L -1.37451 3.29895 L -1.66393 3.10361 L -1.9252 2.87369 L -2.15513 2.61241 L -2.35047 2.323 L -2.50802 2.00867 L -2.62454 1.67266 L -2.69681 1.31819 L -2.71055 1.11341 Z" />
</svg>