<svg version="1.1" xmlns="http://www.w3.org/2000/svg" viewBox="-7.22 -5 14.439 10" fill="black" stroke="none"><path fill-rule="evenodd" d="M -4.422 -0.726 L -4.714 -0.433 L -3.515 -0.113 L -3.836 -1.311 L -4.128 -1.019 L -5.555 -2.445 L -5.848 -2.152 L -4.422 -0.726 Z M -2.867 -2.28 L -3.159 -1.988 L -1.96 -1.667 L -2.281 -2.866 L -2.573 -2.574 L -4 -4 L -4.293 -3.707 L -2.867 -2.28 Z M -2.966 -0.307 L -3.767 1.636 L -6.22 1.636 L -6.22 2.05 L -3.628 2.05 L -3.437 1.922 L -2.817 0.418 L -1.866 3.975 L -1.465 3.975 L -0.555 0.576 L 0.355 3.975 L 0.755 3.975 L 1.665 0.602 L 2.575 3.975 L 2.966 4 L 3.767 2.055 L 6.22 2.055 L 6.22 1.641 L 3.628 1.641 L 3.436 1.769 L 2.816 3.277 L 1.865 -0.248 L 1.465 -0.248 L 0.556 3.122 L -0.355 -0.279 L -0.755 -0.279 L -1.665 3.119 L -2.575 -0.281 L -2.966 -0.307 Z" /></svg>