<svg version="1.1" xmlns="http://www.w3.org/2000/svg" viewBox="-6.579 -5 13.159 10" fill="black" stroke="none"><path fill-rule="evenodd" d="M 2.604 1.526 L 2.604 3.888 L 2.976 3.888 L 2.976 1.526 L 5.579 1.526 L 5.579 1.154 L 2.976 1.154 L 2.976 -1.208 L 2.604 -1.208 L 2.604 1.154 L 2.046 1.154 L 2.046 -1.208 L 1.674 -1.208 L 1.674 1.004 L -2.046 -1.32 L -2.046 1.154 L -5.579 1.154 L -5.579 1.526 L -2.046 1.526 L -2.046 4 L 1.674 1.675 L 1.674 3.888 L 2.046 3.888 L 2.046 1.526 L 2.604 1.526 Z M -1.674 3.329 L -1.674 -0.649 L 1.509 1.34 L -1.674 3.329 Z M 0.744 -3.037 L 0.744 -1.227 L 1.116 -1.227 L 1.116 -3.037 L 1.486 -3.037 L 0.93 -4 L 0.373 -3.037 L 0.744 -3.037 Z M -0.744 -3.037 L -0.373 -3.037 L -0.93 -4 L -1.486 -3.037 L -1.116 -3.037 L -1.116 -1.227 L -0.744 -1.227 L -0.744 -3.037 Z" /></svg>