<svg version="1.1" xmlns="http://www.w3.org/2000/svg" viewBox="-4.400002954660125 -5.000000946666831 8.80000590932025 10.000001893333689" fill="black" stroke="none">
    <path d="M -3.4 -3.99995 L -3.39995 -3.99995 L -3.39995 -4 L -3.4 -4 L -3.4 -3.99995 Z" />
    <path fill-rule="evenodd" d="M 1.80001 2.52411 L 1.80001 4 L 2.06667 4 L 2.06667 2.38077 L 2.31033 2.21611 L 2.57931 1.97931 L 2.81611 1.71033 L 3.01737 1.41252 L 3.17974 1.08923 L 3.29987 0.74381 L 3.37441 0.37962 L 3.4 0.00001 L 3.37441 -0.3796 L 3.29987 -0.74379 L 3.17974 -1.0892 L 3.01737 -1.41249 L 2.81611 -1.71031 L 2.57931 -1.97929 L 2.31033 -2.21608 L 2.06667 -2.38075 L 2.06667 -3.99997 L 1.80001 -3.99997 L 1.80001 -2.52408 L 1.68923 -2.57972 L 1.34381 -2.69985 L 0.97962 -2.77439 L 0.60001 -2.79998 L 0.2204 -2.77439 L -0.14379 -2.69985 L -0.4892 -2.57972 L -0.81249 -2.41735 L -1.11031 -2.21608 L -1.37929 -1.97929 L -1.61609 -1.71031 L -1.81735 -1.41249 L -1.97972 -1.0892 L -2.09985 -0.74379 L -2.17439 -0.3796 L -2.19099 -0.13332 L -3.39998 -0.13332 L -3.39998 0.13335 L -2.19099 0.13335 L -2.17439 0.37962 L -2.09985 0.74381 L -1.97972 1.08923 L -1.81735 1.41252 L -1.61609 1.71033 L -1.37929 1.97931 L -1.11031 2.21611 L -0.81249 2.41737 L -0.4892 2.57974 L -0.14379 2.69988 L 0.2204 2.77441 L 0.60001 2.8 L 0.97962 2.77441 L 1.34381 2.69988 L 1.68923 2.57974 L 1.80001 2.52411 Z M 2.06667 -2.06133 L 2.14872 -2.00594 L 2.39193 -1.79191 L 2.60597 -1.5487 L 2.78781 -1.27931 L 2.93448 -0.98674 L 3.04295 -0.67399 L 3.11024 -0.34408 L 3.13334 0.00001 L 3.11024 0.3441 L 3.04295 0.67402 L 2.93448 0.98676 L 2.78781 1.27933 L 2.60597 1.54872 L 2.39193 1.79194 L 2.14872 2.00597 L 1.87933 2.18782 L 1.58676 2.33448 L 1.27402 2.44295 L 0.9441 2.51024 L 0.60001 2.53334 L 0.25592 2.51024 L -0.07399 2.44295 L -0.38674 2.33448 L -0.67931 2.18782 L -0.9487 2.00597 L -1.19191 1.79194 L -1.40594 1.54872 L -1.58779 1.27933 L -1.73445 0.98676 L -1.84293 0.67402 L -1.91022 0.3441 L -1.92436 0.13335 L -0.86665 0.13335 L -0.86665 1.66667 L -0.59998 1.66667 L -0.59998 0.90199 L 1.19928 1.97949 L 1.33626 1.75074 L -0.59998 0.59116 L -0.59998 -0.57957 L 2.06667 -1.753 L 2.06667 -2.06133 Z M -1.92436 -0.13332 L -1.91022 -0.34408 L -1.84293 -0.67399 L -1.73445 -0.98674 L -1.58779 -1.27931 L -1.40594 -1.5487 L -1.19191 -1.79191 L -0.9487 -2.00594 L -0.67931 -2.18779 L -0.38674 -2.33445 L -0.07399 -2.44293 L 0.25592 -2.51022 L 0.60001 -2.53331 L 0.9441 -2.51022 L 1.27402 -2.44293 L 1.58676 -2.33445 L 1.80001 -2.22755 L 1.80001 -1.92696 L -0.59998 -0.87103 L -0.59998 -1.66665 L -0.86665 -1.66665 L -0.86665 -0.13332 L -1.92436 -0.13332 Z" />
</svg>