<svg version="1.1" xmlns="http://www.w3.org/2000/svg" viewBox="-10.15 -5 20.301 10" fill="black" stroke="none"><path fill-rule="evenodd" d="M -9.15 0.336 L -1.369 0.336 L -1.426 0.81 L -1.521 1.254 L -1.647 1.666 L -1.795 2.042 L -1.957 2.383 L -2.124 2.684 L -2.289 2.944 L -2.442 3.162 L -2.575 3.335 L -2.681 3.461 L -2.751 3.538 L -2.776 3.564 L -2.349 4 L -2.317 3.968 L -2.229 3.872 L -2.096 3.716 L -1.93 3.501 L -1.741 3.232 L -1.54 2.909 L -1.34 2.535 L -1.151 2.114 L -0.985 1.647 L -0.852 1.138 L -0.764 0.588 L -0.732 0 L -0.764 -0.588 L -0.852 -1.138 L -0.985 -1.647 L -1.151 -2.114 L -1.34 -2.535 L -1.54 -2.909 L -1.741 -3.232 L -1.93 -3.501 L -2.096 -3.716 L -2.229 -3.872 L -2.317 -3.968 L -2.349 -4 L -2.776 -3.564 L -2.75 -3.538 L -2.679 -3.459 L -2.571 -3.33 L -2.436 -3.154 L -2.28 -2.932 L -2.114 -2.667 L -1.945 -2.359 L -1.782 -2.013 L -1.634 -1.629 L -1.509 -1.21 L -1.416 -0.758 L -1.364 -0.275 L -9.15 -0.275 L -9.15 0.336 Z M 0.854 3.782 L 1.464 3.782 L 1.464 0.301 L 9.15 0.301 L 9.15 -0.309 L 1.464 -0.309 L 1.464 -3.782 L 0.854 -3.782 L 0.854 3.782 Z" /></svg>