<svg version="1.1" xmlns="http://www.w3.org/2000/svg" viewBox="-6.4 -5 12.801 10" fill="black" stroke="none"><path fill-rule="evenodd" d="M 3.304 1.684 L 5.4 1.684 L 5.4 1.324 L 3.301 1.324 L 3.28 1.264 L 3.244 1.191 L 3.198 1.124 L 3.145 1.064 L 3.084 1.01 L 3.017 0.965 L 2.944 0.928 L 2.867 0.901 L 2.785 0.884 L 2.7 0.878 L 2.615 0.884 L 2.533 0.901 L 2.456 0.928 L 2.383 0.965 L 2.316 1.01 L 2.255 1.064 L 2.202 1.124 L 2.157 1.191 L 2.12 1.264 L 2.093 1.342 L 2.076 1.423 L 2.07 1.508 L 2.076 1.593 L 2.093 1.675 L 2.12 1.753 L 2.157 1.825 L 2.202 1.892 L 2.255 1.953 L 2.316 2.006 L 2.383 2.052 L 2.456 2.088 L 2.533 2.116 L 2.615 2.133 L 2.7 2.138 L 2.785 2.133 L 2.867 2.116 L 2.944 2.088 L 3.017 2.052 L 3.084 2.006 L 3.145 1.953 L 3.198 1.892 L 3.244 1.825 L 3.28 1.753 L 3.304 1.684 Z M 2.43 1.508 L 2.433 1.471 L 2.44 1.436 L 2.451 1.402 L 2.467 1.371 L 2.486 1.342 L 2.508 1.317 L 2.534 1.294 L 2.563 1.275 L 2.594 1.259 L 2.628 1.248 L 2.663 1.241 L 2.7 1.238 L 2.737 1.241 L 2.773 1.248 L 2.806 1.259 L 2.837 1.275 L 2.866 1.294 L 2.892 1.317 L 2.915 1.342 L 2.934 1.371 L 2.949 1.402 L 2.961 1.436 L 2.968 1.471 L 2.97 1.508 L 2.968 1.545 L 2.961 1.581 L 2.949 1.614 L 2.934 1.646 L 2.915 1.674 L 2.892 1.7 L 2.866 1.723 L 2.837 1.742 L 2.806 1.757 L 2.773 1.769 L 2.737 1.776 L 2.7 1.778 L 2.663 1.776 L 2.628 1.769 L 2.594 1.757 L 2.563 1.742 L 2.534 1.723 L 2.508 1.7 L 2.486 1.674 L 2.467 1.646 L 2.451 1.614 L 2.44 1.581 L 2.433 1.545 L 2.43 1.508 Z M -2.241 1.937 L 3.54 4 L 3.661 3.661 L -2.08 1.612 L -2.076 1.593 L -2.07 1.508 L -2.076 1.423 L -2.093 1.342 L -2.12 1.264 L -2.157 1.191 L -2.202 1.124 L -2.255 1.064 L -2.316 1.01 L -2.383 0.965 L -2.456 0.928 L -2.533 0.901 L -2.615 0.884 L -2.7 0.878 L -2.785 0.884 L -2.867 0.901 L -2.944 0.928 L -3.017 0.965 L -3.084 1.01 L -3.145 1.064 L -3.198 1.124 L -3.244 1.191 L -3.28 1.264 L -3.304 1.333 L -5.4 1.333 L -5.4 1.693 L -3.301 1.693 L -3.28 1.753 L -3.244 1.825 L -3.198 1.892 L -3.145 1.953 L -3.084 2.006 L -3.017 2.052 L -2.944 2.088 L -2.867 2.116 L -2.785 2.133 L -2.7 2.138 L -2.615 2.133 L -2.533 2.116 L -2.456 2.088 L -2.383 2.052 L -2.316 2.006 L -2.255 1.953 L -2.241 1.937 Z M -2.97 1.508 L -2.968 1.471 L -2.961 1.436 L -2.949 1.402 L -2.934 1.371 L -2.915 1.342 L -2.892 1.317 L -2.866 1.294 L -2.837 1.275 L -2.806 1.259 L -2.773 1.248 L -2.737 1.241 L -2.7 1.238 L -2.663 1.241 L -2.628 1.248 L -2.594 1.259 L -2.563 1.275 L -2.534 1.294 L -2.508 1.317 L -2.486 1.342 L -2.467 1.371 L -2.451 1.402 L -2.44 1.436 L -2.433 1.471 L -2.43 1.508 L -2.433 1.545 L -2.44 1.581 L -2.451 1.614 L -2.467 1.646 L -2.486 1.674 L -2.508 1.7 L -2.534 1.723 L -2.563 1.742 L -2.594 1.757 L -2.628 1.769 L -2.663 1.776 L -2.7 1.778 L -2.737 1.776 L -2.773 1.769 L -2.806 1.757 L -2.837 1.742 L -2.866 1.723 L -2.892 1.7 L -2.915 1.674 L -2.934 1.646 L -2.949 1.614 L -2.961 1.581 L -2.968 1.545 L -2.97 1.508 Z M -4.5 -1.39 L 4.5 -1.39 L 4.5 -1.75 L -4.5 -1.75 L -4.5 -1.39 Z M -5.4 -3.64 L -4.666 -3.64 L -4.662 -3.603 L -4.657 -3.565 L -4.652 -3.524 L -4.645 -3.481 L -4.636 -3.437 L -4.627 -3.39 L -4.615 -3.342 L -4.602 -3.292 L -4.586 -3.24 L -4.569 -3.186 L -4.548 -3.131 L -4.526 -3.074 L -4.482 -2.979 L -4.43 -2.884 L -4.369 -2.791 L -4.299 -2.701 L -4.219 -2.617 L -4.13 -2.538 L -4.03 -2.467 L -3.92 -2.406 L -3.8 -2.356 L -3.67 -2.318 L -3.528 -2.294 L -3.375 -2.286 L -3.228 -2.293 L -3.092 -2.315 L -2.966 -2.35 L -2.85 -2.396 L -2.744 -2.453 L -2.647 -2.518 L -2.56 -2.591 L -2.481 -2.67 L -2.411 -2.754 L -2.35 -2.841 L -2.296 -2.931 L -2.251 -3.022 L -2.205 -2.931 L -2.152 -2.84 L -2.09 -2.752 L -2.02 -2.668 L -1.942 -2.588 L -1.854 -2.515 L -1.757 -2.449 L -1.651 -2.392 L -1.534 -2.345 L -1.408 -2.31 L -1.272 -2.288 L -1.125 -2.28 L -0.978 -2.288 L -0.842 -2.31 L -0.716 -2.345 L -0.6 -2.392 L -0.493 -2.448 L -0.396 -2.514 L -0.309 -2.587 L -0.23 -2.667 L -0.16 -2.751 L -0.099 -2.839 L -0.045 -2.929 L 0 -3.02 L 0.046 -2.929 L 0.099 -2.839 L 0.161 -2.751 L 0.231 -2.667 L 0.309 -2.587 L 0.397 -2.514 L 0.494 -2.448 L 0.6 -2.392 L 0.716 -2.345 L 0.842 -2.31 L 0.979 -2.288 L 1.125 -2.28 L 1.272 -2.288 L 1.409 -2.31 L 1.535 -2.345 L 1.651 -2.392 L 1.757 -2.448 L 1.854 -2.514 L 1.941 -2.587 L 2.02 -2.667 L 2.09 -2.751 L 2.151 -2.839 L 2.205 -2.929 L 2.25 -3.02 L 2.296 -2.929 L 2.349 -2.839 L 2.411 -2.751 L 2.481 -2.667 L 2.559 -2.587 L 2.647 -2.514 L 2.744 -2.448 L 2.85 -2.392 L 2.966 -2.345 L 3.092 -2.31 L 3.229 -2.288 L 3.376 -2.28 L 3.529 -2.289 L 3.67 -2.313 L 3.801 -2.35 L 3.921 -2.401 L 4.031 -2.462 L 4.13 -2.532 L 4.219 -2.611 L 4.299 -2.695 L 4.369 -2.785 L 4.43 -2.877 L 4.483 -2.972 L 4.526 -3.066 L 4.549 -3.123 L 4.569 -3.178 L 4.586 -3.232 L 4.602 -3.283 L 4.615 -3.333 L 4.627 -3.382 L 4.637 -3.428 L 4.645 -3.472 L 4.652 -3.515 L 4.658 -3.556 L 4.662 -3.594 L 4.666 -3.631 L 5.4 -3.631 L 5.4 -3.991 L 4.5 -3.991 L 4.488 -3.99 L 4.477 -3.989 L 4.465 -3.987 L 4.454 -3.984 L 4.442 -3.981 L 4.431 -3.977 L 4.421 -3.972 L 4.41 -3.966 L 4.4 -3.96 L 4.391 -3.953 L 4.382 -3.946 L 4.373 -3.938 L 4.365 -3.929 L 4.357 -3.92 L 4.351 -3.911 L 4.344 -3.901 L 4.339 -3.89 L 4.334 -3.879 L 4.33 -3.868 L 4.326 -3.857 L 4.324 -3.846 L 4.322 -3.834 L 4.321 -3.822 L 4.32 -3.811 L 4.32 -3.804 L 4.319 -3.786 L 4.318 -3.758 L 4.315 -3.72 L 4.31 -3.673 L 4.304 -3.619 L 4.294 -3.559 L 4.282 -3.494 L 4.266 -3.425 L 4.246 -3.353 L 4.222 -3.279 L 4.194 -3.205 L 4.161 -3.131 L 4.124 -3.059 L 4.083 -2.991 L 4.036 -2.926 L 3.982 -2.866 L 3.922 -2.811 L 3.854 -2.762 L 3.778 -2.721 L 3.693 -2.687 L 3.598 -2.662 L 3.492 -2.646 L 3.376 -2.641 L 3.259 -2.646 L 3.153 -2.662 L 3.058 -2.687 L 2.973 -2.721 L 2.897 -2.762 L 2.829 -2.811 L 2.769 -2.866 L 2.715 -2.926 L 2.668 -2.991 L 2.627 -3.06 L 2.59 -3.131 L 2.557 -3.205 L 2.528 -3.279 L 2.504 -3.353 L 2.485 -3.425 L 2.469 -3.494 L 2.456 -3.56 L 2.447 -3.62 L 2.44 -3.673 L 2.435 -3.72 L 2.432 -3.758 L 2.431 -3.786 L 2.43 -3.804 L 2.43 -3.811 L 2.43 -3.811 L 2.428 -3.834 L 2.423 -3.857 L 2.416 -3.879 L 2.405 -3.9 L 2.392 -3.919 L 2.376 -3.936 L 2.359 -3.952 L 2.339 -3.964 L 2.318 -3.975 L 2.296 -3.982 L 2.273 -3.987 L 2.25 -3.988 L 2.227 -3.987 L 2.204 -3.982 L 2.182 -3.975 L 2.161 -3.964 L 2.141 -3.952 L 2.124 -3.936 L 2.108 -3.919 L 2.095 -3.9 L 2.084 -3.879 L 2.077 -3.857 L 2.072 -3.834 L 2.07 -3.811 L 2.07 -3.804 L 2.069 -3.786 L 2.068 -3.758 L 2.065 -3.72 L 2.06 -3.673 L 2.053 -3.619 L 2.044 -3.559 L 2.032 -3.494 L 2.016 -3.425 L 1.996 -3.353 L 1.972 -3.279 L 1.944 -3.205 L 1.911 -3.131 L 1.874 -3.059 L 1.832 -2.991 L 1.785 -2.926 L 1.732 -2.866 L 1.672 -2.811 L 1.604 -2.762 L 1.528 -2.721 L 1.443 -2.687 L 1.348 -2.662 L 1.242 -2.646 L 1.125 -2.641 L 1.009 -2.646 L 0.903 -2.662 L 0.808 -2.687 L 0.723 -2.721 L 0.647 -2.762 L 0.579 -2.811 L 0.519 -2.866 L 0.465 -2.926 L 0.418 -2.991 L 0.377 -3.06 L 0.34 -3.131 L 0.307 -3.205 L 0.278 -3.279 L 0.254 -3.353 L 0.235 -3.425 L 0.219 -3.494 L 0.206 -3.56 L 0.197 -3.62 L 0.19 -3.673 L 0.185 -3.72 L 0.182 -3.758 L 0.181 -3.786 L 0.18 -3.804 L 0.18 -3.811 L 0.18 -3.811 L 0.178 -3.834 L 0.173 -3.857 L 0.166 -3.879 L 0.155 -3.9 L 0.142 -3.919 L 0.126 -3.936 L 0.109 -3.952 L 0.089 -3.964 L 0.068 -3.975 L 0.046 -3.982 L 0.023 -3.987 L -0 -3.988 L -0.023 -3.987 L -0.046 -3.982 L -0.068 -3.975 L -0.089 -3.964 L -0.109 -3.952 L -0.126 -3.936 L -0.142 -3.919 L -0.155 -3.9 L -0.166 -3.879 L -0.173 -3.857 L -0.178 -3.834 L -0.18 -3.811 L -0.18 -3.804 L -0.181 -3.786 L -0.182 -3.758 L -0.185 -3.72 L -0.19 -3.673 L -0.197 -3.619 L -0.206 -3.559 L -0.218 -3.494 L -0.234 -3.425 L -0.254 -3.353 L -0.278 -3.279 L -0.306 -3.205 L -0.339 -3.131 L -0.376 -3.059 L -0.418 -2.991 L -0.465 -2.926 L -0.518 -2.866 L -0.578 -2.811 L -0.646 -2.762 L -0.722 -2.721 L -0.807 -2.687 L -0.902 -2.662 L -1.008 -2.646 L -1.125 -2.641 L -1.241 -2.646 L -1.347 -2.662 L -1.442 -2.687 L -1.527 -2.721 L -1.604 -2.762 L -1.671 -2.811 L -1.732 -2.866 L -1.785 -2.926 L -1.832 -2.991 L -1.874 -3.06 L -1.91 -3.131 L -1.943 -3.205 L -1.972 -3.279 L -1.996 -3.353 L -2.016 -3.425 L -2.031 -3.494 L -2.044 -3.56 L -2.053 -3.62 L -2.06 -3.673 L -2.065 -3.72 L -2.068 -3.758 L -2.069 -3.786 L -2.07 -3.804 L -2.07 -3.811 L -2.07 -3.811 L -2.07 -3.811 L -2.07 -3.811 L -2.07 -3.811 L -2.072 -3.834 L -2.077 -3.857 L -2.085 -3.879 L -2.095 -3.9 L -2.108 -3.919 L -2.124 -3.936 L -2.141 -3.952 L -2.161 -3.964 L -2.182 -3.975 L -2.204 -3.982 L -2.227 -3.987 L -2.25 -3.988 L -2.273 -3.987 L -2.296 -3.982 L -2.318 -3.975 L -2.339 -3.964 L -2.359 -3.952 L -2.377 -3.936 L -2.392 -3.919 L -2.405 -3.9 L -2.416 -3.879 L -2.423 -3.857 L -2.428 -3.834 L -2.43 -3.811 L -2.43 -3.804 L -2.431 -3.787 L -2.432 -3.758 L -2.435 -3.72 L -2.44 -3.674 L -2.447 -3.62 L -2.456 -3.561 L -2.469 -3.496 L -2.484 -3.427 L -2.504 -3.355 L -2.528 -3.282 L -2.557 -3.208 L -2.589 -3.134 L -2.626 -3.063 L -2.668 -2.995 L -2.715 -2.93 L -2.768 -2.87 L -2.828 -2.815 L -2.896 -2.767 L -2.972 -2.725 L -3.057 -2.692 L -3.152 -2.667 L -3.258 -2.651 L -3.375 -2.646 L -3.492 -2.651 L -3.597 -2.667 L -3.692 -2.692 L -3.777 -2.726 L -3.854 -2.768 L -3.921 -2.816 L -3.982 -2.872 L -4.035 -2.932 L -4.082 -2.997 L -4.124 -3.066 L -4.16 -3.138 L -4.193 -3.212 L -4.222 -3.287 L -4.246 -3.361 L -4.266 -3.433 L -4.282 -3.503 L -4.294 -3.568 L -4.303 -3.628 L -4.31 -3.682 L -4.315 -3.729 L -4.318 -3.767 L -4.319 -3.796 L -4.32 -3.814 L -4.32 -3.82 L -4.321 -3.832 L -4.322 -3.843 L -4.324 -3.855 L -4.326 -3.867 L -4.33 -3.878 L -4.334 -3.889 L -4.339 -3.9 L -4.344 -3.91 L -4.351 -3.92 L -4.357 -3.93 L -4.365 -3.939 L -4.373 -3.947 L -4.382 -3.955 L -4.391 -3.963 L -4.4 -3.97 L -4.41 -3.976 L -4.421 -3.981 L -4.431 -3.986 L -4.442 -3.99 L -4.454 -3.994 L -4.465 -3.997 L -4.477 -3.998 L -4.488 -4 L -4.5 -4 L -5.4 -4 L -5.4 -3.64 Z" /></svg>