<svg version="1.1" xmlns="http://www.w3.org/2000/svg" viewBox="-5.48598042458565 -5.000000940187126 10.971960849171271 10.000001880374281" fill="black" stroke="none">
    <path fill-rule="evenodd" d="M 2.74495 3.62255 L 4.48598 3.62255 L 4.48598 3.32348 L 2.74242 3.32348 L 2.72498 3.27367 L 2.69451 3.21327 L 2.65677 3.15758 L 2.61241 3.10723 L 2.56206 3.06286 L 2.50636 3.02512 L 2.44597 2.99465 L 2.38151 2.97209 L 2.31364 2.95809 L 2.243 2.95327 L 2.17235 2.95809 L 2.10448 2.97209 L 2.04003 2.99465 L 1.97963 3.02512 L 1.92394 3.06286 L 1.87359 3.10723 L 1.82922 3.15758 L 1.79148 3.21327 L 1.76101 3.27367 L 1.73845 3.33812 L 1.72445 3.40599 L 1.71963 3.47664 L 1.72445 3.54728 L 1.73845 3.61515 L 1.76101 3.67961 L 1.79148 3.74 L 1.82922 3.7957 L 1.87359 3.84605 L 1.92394 3.89041 L 1.97963 3.92815 L 2.04003 3.95862 L 2.10448 3.98118 L 2.17235 3.99519 L 2.243 4 L 2.31364 3.99519 L 2.38151 3.98118 L 2.44597 3.95862 L 2.50636 3.92815 L 2.56206 3.89041 L 2.61241 3.84605 L 2.65677 3.7957 L 2.69451 3.74 L 2.72498 3.67961 L 2.74495 3.62255 Z M 2.243 3.25234 L 2.27381 3.25435 L 2.30324 3.26023 L 2.33105 3.26972 L 2.35699 3.28257 L 2.38081 3.29854 L 2.40226 3.31737 L 2.4211 3.33882 L 2.43707 3.36264 L 2.44992 3.38858 L 2.45941 3.4164 L 2.46528 3.44583 L 2.4673 3.47664 L 2.46528 3.50745 L 2.45941 3.53688 L 2.44992 3.56469 L 2.43707 3.59063 L 2.4211 3.61445 L 2.40226 3.6359 L 2.38081 3.65474 L 2.35699 3.67071 L 2.33105 3.68356 L 2.30324 3.69305 L 2.27381 3.69892 L 2.243 3.70094 L 2.21219 3.69892 L 2.18275 3.69305 L 2.15494 3.68356 L 2.129 3.67071 L 2.10518 3.65474 L 2.08373 3.6359 L 2.0649 3.61445 L 2.04893 3.59063 L 2.03608 3.56469 L 2.02659 3.53688 L 2.02071 3.50745 L 2.0187 3.47664 L 2.02071 3.44583 L 2.02659 3.4164 L 2.03608 3.38858 L 2.04893 3.36264 L 2.0649 3.33882 L 2.08373 3.31737 L 2.10518 3.29854 L 2.129 3.28257 L 2.15494 3.26972 L 2.18275 3.26023 L 2.21219 3.25435 L 2.243 3.25234 Z" />
    <path d="M -4.48595 1.77559 L -4.48595 2.07466 L -2.6168 2.07466 L -2.6168 1.77559 L -4.48595 1.77559 Z" />
    <path d="M -3.73829 -0.78503 L -3.73829 -0.48596 L 3.73832 -0.48596 L 3.73832 -0.78503 L -3.73829 -0.78503 Z" />
    <path d="M -4.48595 -2.65418 L -4.48595 -2.35512 L -3.87591 -2.35512 L -3.87274 -2.32476 L -3.86885 -2.29266 L -3.86411 -2.25887 L -3.85837 -2.22341 L -3.85149 -2.18634 L -3.84333 -2.14768 L -3.83374 -2.10749 L -3.8226 -2.06579 L -3.80975 -2.02263 L -3.79505 -1.97805 L -3.77836 -1.93209 L -3.75955 -1.88479 L -3.72341 -1.80597 L -3.68007 -1.7273 L -3.6293 -1.65006 L -3.57089 -1.57553 L -3.50464 -1.50498 L -3.43034 -1.43969 L -3.34776 -1.38094 L -3.25669 -1.33001 L -3.15693 -1.28817 L -3.04827 -1.25671 L -2.93048 -1.23689 L -2.80336 -1.23 L -2.68157 -1.2363 L -2.5685 -1.25443 L -2.46394 -1.28328 L -2.36766 -1.32175 L -2.27945 -1.36871 L -2.19909 -1.42304 L -2.12637 -1.48363 L -2.06106 -1.54937 L -2.00294 -1.61914 L -1.95181 -1.69182 L -1.90743 -1.76629 L -1.8696 -1.84145 L -1.83184 -1.76587 L -1.7875 -1.69095 L -1.73635 -1.6178 L -1.67819 -1.54757 L -1.6128 -1.48137 L -1.53996 -1.42033 L -1.45944 -1.36559 L -1.37104 -1.31828 L -1.27453 -1.27951 L -1.16971 -1.25042 L -1.05634 -1.23214 L -0.93421 -1.2258 L -0.81226 -1.23213 L -0.69905 -1.25036 L -0.59437 -1.27938 L -0.498 -1.31806 L -0.40971 -1.36527 L -0.3293 -1.41989 L -0.25654 -1.4808 L -0.19121 -1.54687 L -0.1331 -1.61698 L -0.08198 -1.69 L -0.03765 -1.76481 L 0.00013 -1.84028 L 0.03794 -1.7648 L 0.08232 -1.68999 L 0.13348 -1.61697 L 0.19163 -1.54686 L 0.25701 -1.48079 L 0.32981 -1.41988 L 0.41027 -1.36526 L 0.4986 -1.31805 L 0.59501 -1.27938 L 0.69973 -1.25036 L 0.81297 -1.23213 L 0.93494 -1.2258 L 1.05689 -1.23213 L 1.1701 -1.25036 L 1.27478 -1.27938 L 1.37115 -1.31806 L 1.45944 -1.36527 L 1.53985 -1.41989 L 1.61261 -1.4808 L 1.67794 -1.54687 L 1.73605 -1.61698 L 1.78717 -1.69 L 1.83151 -1.76481 L 1.86928 -1.84028 L 1.90709 -1.7648 L 1.95147 -1.68999 L 2.00263 -1.61697 L 2.06078 -1.54686 L 2.12616 -1.48079 L 2.19896 -1.41988 L 2.27942 -1.36526 L 2.36775 -1.31805 L 2.46416 -1.27938 L 2.56888 -1.25036 L 2.68212 -1.23213 L 2.80409 -1.2258 L 2.93116 -1.23267 L 3.0489 -1.25242 L 3.15752 -1.28379 L 3.25724 -1.3255 L 3.34826 -1.37628 L 3.4308 -1.43486 L 3.50506 -1.49995 L 3.57128 -1.5703 L 3.62965 -1.64462 L 3.68038 -1.72165 L 3.7237 -1.8001 L 3.75981 -1.87872 L 3.77857 -1.92579 L 3.79522 -1.97153 L 3.80989 -2.01591 L 3.82272 -2.05889 L 3.83386 -2.10042 L 3.84344 -2.14046 L 3.8516 -2.17898 L 3.85849 -2.21594 L 3.86424 -2.25129 L 3.86899 -2.28499 L 3.87288 -2.317 L 3.87605 -2.34729 L 4.48598 -2.34729 L 4.48598 -2.64635 L 3.73832 -2.64635 L 3.72854 -2.64603 L 3.7188 -2.64507 L 3.70915 -2.64348 L 3.69962 -2.64126 L 3.69026 -2.63841 L 3.6811 -2.63497 L 3.67219 -2.63093 L 3.66356 -2.62632 L 3.65525 -2.62115 L 3.64729 -2.61545 L 3.63973 -2.60924 L 3.63259 -2.60255 L 3.6259 -2.59541 L 3.61969 -2.58785 L 3.61399 -2.57989 L 3.60882 -2.57158 L 3.60421 -2.56296 L 3.60017 -2.55404 L 3.59673 -2.54489 L 3.59388 -2.53552 L 3.59166 -2.52599 L 3.59007 -2.51634 L 3.58911 -2.5066 L 3.58879 -2.49682 L 3.58869 -2.49165 L 3.58817 -2.47674 L 3.58687 -2.45302 L 3.58447 -2.42138 L 3.5806 -2.38276 L 3.57494 -2.33807 L 3.56712 -2.28821 L 3.55681 -2.23411 L 3.54367 -2.17668 L 3.52734 -2.11683 L 3.50749 -2.05548 L 3.48376 -1.99355 L 3.45652 -1.9323 L 3.42593 -1.87284 L 3.39139 -1.81583 L 3.35232 -1.76196 L 3.3081 -1.7119 L 3.25813 -1.66633 L 3.20182 -1.62591 L 3.13857 -1.59134 L 3.06777 -1.56327 L 2.98882 -1.54238 L 2.90113 -1.52935 L 2.80409 -1.52486 L 2.70705 -1.52936 L 2.61935 -1.54239 L 2.54038 -1.56328 L 2.46956 -1.59136 L 2.40627 -1.62595 L 2.34993 -1.66638 L 2.29993 -1.71197 L 2.25567 -1.76204 L 2.21656 -1.81592 L 2.18198 -1.87294 L 2.15136 -1.93241 L 2.12407 -1.99367 L 2.10031 -2.0556 L 2.08042 -2.11695 L 2.06405 -2.17678 L 2.05087 -2.2342 L 2.04052 -2.28829 L 2.03267 -2.33813 L 2.02697 -2.38281 L 2.02308 -2.42142 L 2.02065 -2.45304 L 2.01933 -2.47675 L 2.0188 -2.49165 L 2.0187 -2.49682 L 2.0187 -2.49682 L 2.0187 -2.49683 L 2.0187 -2.49684 L 2.0187 -2.49685 L 2.0187 -2.49687 L 2.0187 -2.49688 L 2.0187 -2.4969 L 2.0187 -2.49691 L 2.0187 -2.49692 L 2.0187 -2.49693 L 2.0187 -2.49694 L 2.0187 -2.49694 L 2.01716 -2.51627 L 2.01314 -2.53523 L 2.00669 -2.55351 L 1.99794 -2.57081 L 1.98702 -2.58683 L 1.97412 -2.6013 L 1.95946 -2.61398 L 1.94328 -2.62466 L 1.92585 -2.63315 L 1.90748 -2.63932 L 1.88845 -2.64307 L 1.86911 -2.64431 L 1.84976 -2.64305 L 1.83074 -2.63929 L 1.81237 -2.63311 L 1.79495 -2.6246 L 1.77878 -2.61391 L 1.76413 -2.60122 L 1.75124 -2.58673 L 1.74034 -2.57071 L 1.7316 -2.5534 L 1.72517 -2.53511 L 1.72116 -2.51615 L 1.71963 -2.49682 L 1.71954 -2.49165 L 1.71901 -2.47674 L 1.71772 -2.45302 L 1.71532 -2.42138 L 1.71145 -2.38276 L 1.70578 -2.33807 L 1.69797 -2.28821 L 1.68766 -2.23411 L 1.67452 -2.17668 L 1.65819 -2.11683 L 1.63834 -2.05548 L 1.61461 -1.99355 L 1.58737 -1.9323 L 1.55678 -1.87284 L 1.52224 -1.81583 L 1.48317 -1.76196 L 1.43895 -1.7119 L 1.38898 -1.66633 L 1.33267 -1.62591 L 1.26942 -1.59134 L 1.19862 -1.56327 L 1.11967 -1.54238 L 1.03198 -1.52935 L 0.93494 -1.52486 L 0.8379 -1.52936 L 0.7502 -1.54239 L 0.67123 -1.56328 L 0.60041 -1.59136 L 0.53712 -1.62595 L 0.48078 -1.66638 L 0.43078 -1.71197 L 0.38652 -1.76204 L 0.3474 -1.81592 L 0.31283 -1.87294 L 0.2822 -1.93241 L 0.25492 -1.99367 L 0.23116 -2.0556 L 0.21127 -2.11695 L 0.1949 -2.17678 L 0.18172 -2.2342 L 0.17137 -2.28829 L 0.16352 -2.33813 L 0.15782 -2.38281 L 0.15392 -2.42142 L 0.15149 -2.45304 L 0.15018 -2.47675 L 0.14965 -2.49165 L 0.14955 -2.49682 L 0.14955 -2.49682 L 0.14955 -2.49683 L 0.14955 -2.49684 L 0.14955 -2.49685 L 0.14955 -2.49687 L 0.14955 -2.49688 L 0.14955 -2.4969 L 0.14955 -2.49691 L 0.14955 -2.49692 L 0.14955 -2.49693 L 0.14955 -2.49694 L 0.14955 -2.49694 L 0.14801 -2.51627 L 0.14399 -2.53523 L 0.13754 -2.55351 L 0.12879 -2.57081 L 0.11787 -2.58683 L 0.10497 -2.6013 L 0.09031 -2.61398 L 0.07413 -2.62466 L 0.0567 -2.63315 L 0.03832 -2.63932 L 0.0193 -2.64307 L -0.00004 -2.64431 L -0.01939 -2.64305 L -0.03841 -2.63929 L -0.05678 -2.63311 L -0.0742 -2.6246 L -0.09037 -2.61391 L -0.10502 -2.60122 L -0.11791 -2.58673 L -0.12882 -2.57071 L -0.13756 -2.5534 L -0.14399 -2.53511 L -0.148 -2.51615 L -0.14952 -2.49682 L -0.14961 -2.49165 L -0.15014 -2.47674 L -0.15143 -2.45302 L -0.15383 -2.42138 L -0.1577 -2.38276 L -0.16337 -2.33807 L -0.17118 -2.28821 L -0.18149 -2.23411 L -0.19463 -2.17668 L -0.21096 -2.11683 L -0.23082 -2.05548 L -0.25454 -1.99355 L -0.28179 -1.9323 L -0.31238 -1.87284 L -0.34691 -1.81583 L -0.38599 -1.76196 L -0.43021 -1.7119 L -0.48017 -1.66633 L -0.53648 -1.62591 L -0.59974 -1.59134 L -0.67054 -1.56327 L -0.74948 -1.54238 L -0.83717 -1.52935 L -0.93421 -1.52486 L -1.03125 -1.52936 L -1.11896 -1.54239 L -1.19792 -1.56328 L -1.26874 -1.59136 L -1.33203 -1.62595 L -1.38837 -1.66638 L -1.43837 -1.71197 L -1.48263 -1.76204 L -1.52175 -1.81592 L -1.55632 -1.87294 L -1.58695 -1.93241 L -1.61423 -1.99367 L -1.63799 -2.0556 L -1.65788 -2.11695 L -1.67425 -2.17678 L -1.68743 -2.2342 L -1.69778 -2.28829 L -1.70563 -2.33813 L -1.71133 -2.38281 L -1.71523 -2.42142 L -1.71766 -2.45304 L -1.71897 -2.47675 L -1.7195 -2.49165 L -1.7196 -2.49682 L -1.7196 -2.49682 L -1.7196 -2.49683 L -1.7196 -2.49684 L -1.7196 -2.49685 L -1.7196 -2.49687 L -1.7196 -2.49688 L -1.7196 -2.4969 L -1.7196 -2.49691 L -1.7196 -2.49692 L -1.7196 -2.49693 L -1.7196 -2.49694 L -1.7196 -2.49694 L -1.72114 -2.51627 L -1.72517 -2.53523 L -1.73161 -2.55351 L -1.74037 -2.57081 L -1.75128 -2.58683 L -1.76418 -2.6013 L -1.77885 -2.61398 L -1.79503 -2.62466 L -1.81245 -2.63315 L -1.83083 -2.63932 L -1.84985 -2.64307 L -1.8692 -2.64431 L -1.88854 -2.64305 L -1.90756 -2.63929 L -1.92593 -2.63311 L -1.94335 -2.6246 L -1.95952 -2.61391 L -1.97417 -2.60122 L -1.98706 -2.58673 L -1.99797 -2.57071 L -2.00671 -2.5534 L -2.01314 -2.53511 L -2.01715 -2.51615 L -2.01867 -2.49682 L -2.01877 -2.49167 L -2.01929 -2.47684 L -2.02059 -2.45322 L -2.023 -2.42174 L -2.02687 -2.3833 L -2.03255 -2.33882 L -2.04037 -2.28919 L -2.05068 -2.23534 L -2.06382 -2.17818 L -2.08014 -2.11861 L -2.09998 -2.05754 L -2.12369 -1.99589 L -2.15092 -1.93491 L -2.18149 -1.8757 L -2.216 -1.81893 L -2.25505 -1.76528 L -2.29926 -1.71542 L -2.34921 -1.67002 L -2.40551 -1.62976 L -2.46877 -1.5953 L -2.53958 -1.56734 L -2.61855 -1.54652 L -2.70628 -1.53354 L -2.80336 -1.52907 L -2.90036 -1.53358 L -2.98804 -1.54665 L -3.06698 -1.56761 L -3.1378 -1.59578 L -3.20108 -1.63048 L -3.25743 -1.67104 L -3.30744 -1.71679 L -3.35171 -1.76703 L -3.39084 -1.8211 L -3.42544 -1.87833 L -3.45608 -1.93802 L -3.48338 -1.99951 L -3.50716 -2.06168 L -3.52706 -2.12327 L -3.54343 -2.18334 L -3.55662 -2.24098 L -3.56696 -2.29529 L -3.57481 -2.34532 L -3.58051 -2.39018 L -3.58439 -2.42894 L -3.58682 -2.46069 L -3.58813 -2.4845 L -3.58866 -2.49946 L -3.58876 -2.50465 L -3.58908 -2.51443 L -3.59004 -2.52417 L -3.59163 -2.53382 L -3.59385 -2.54335 L -3.5967 -2.55271 L -3.60014 -2.56187 L -3.60418 -2.57078 L -3.60879 -2.57941 L -3.61396 -2.58772 L -3.61966 -2.59567 L -3.62587 -2.60324 L -3.63256 -2.61038 L -3.6397 -2.61707 L -3.64726 -2.62328 L -3.65522 -2.62898 L -3.66353 -2.63414 L -3.67216 -2.63876 L -3.68107 -2.64279 L -3.69023 -2.64624 L -3.69959 -2.64908 L -3.70912 -2.6513 L -3.71877 -2.6529 L -3.72851 -2.65386 L -3.73829 -2.65418 L -4.48595 -2.65418 Z" />
    <path fill-rule="evenodd" d="M 2.74495 0.63191 L 4.48598 0.63191 L 4.48598 0.33284 L 2.74242 0.33284 L 2.72498 0.28303 L 2.69451 0.22263 L 2.65677 0.16694 L 2.61241 0.11659 L 2.56206 0.07222 L 2.50636 0.03448 L 2.44597 0.00401 L 2.38151 -0.01855 L 2.31364 -0.03256 L 2.243 -0.03737 L 2.17235 -0.03256 L 2.10448 -0.01855 L 2.04003 0.00401 L 1.97963 0.03448 L 1.92394 0.07222 L 1.87359 0.11659 L 1.82922 0.16694 L 1.79148 0.22263 L 1.76101 0.28303 L 1.73845 0.34748 L 1.72445 0.41535 L 1.71963 0.48599 L 1.72445 0.55664 L 1.73845 0.62451 L 1.76101 0.68896 L 1.79148 0.74936 L 1.82922 0.80505 L 1.87359 0.8554 L 1.92394 0.89977 L 1.97963 0.93751 L 2.04003 0.96798 L 2.10448 0.99054 L 2.17235 1.00455 L 2.243 1.00936 L 2.31364 1.00455 L 2.38151 0.99054 L 2.44597 0.96798 L 2.50636 0.93751 L 2.56206 0.89977 L 2.61241 0.8554 L 2.65677 0.80505 L 2.69451 0.74936 L 2.72498 0.68896 L 2.74495 0.63191 Z M 2.243 0.2617 L 2.27381 0.26371 L 2.30324 0.26959 L 2.33105 0.27907 L 2.35699 0.29193 L 2.38081 0.30789 L 2.40226 0.32673 L 2.4211 0.34818 L 2.43707 0.372 L 2.44992 0.39794 L 2.45941 0.42575 L 2.46528 0.45519 L 2.4673 0.48599 L 2.46528 0.5168 L 2.45941 0.54624 L 2.44992 0.57405 L 2.43707 0.59999 L 2.4211 0.62381 L 2.40226 0.64526 L 2.38081 0.6641 L 2.35699 0.68006 L 2.33105 0.69292 L 2.30324 0.7024 L 2.27381 0.70828 L 2.243 0.71029 L 2.21219 0.70828 L 2.18275 0.7024 L 2.15494 0.69292 L 2.129 0.68006 L 2.10518 0.6641 L 2.08373 0.64526 L 2.0649 0.62381 L 2.04893 0.59999 L 2.03608 0.57405 L 2.02659 0.54624 L 2.02071 0.5168 L 2.0187 0.48599 L 2.02071 0.45519 L 2.02659 0.42575 L 2.03608 0.39794 L 2.04893 0.372 L 2.0649 0.34818 L 2.08373 0.32673 L 2.10518 0.30789 L 2.129 0.29193 L 2.15494 0.27907 L 2.18275 0.26959 L 2.21219 0.26371 L 2.243 0.2617 Z" />
    <path d="M -4.48598 -3.99994 L -4.48592 -3.99994 L -4.48592 -4 L -4.48598 -4 L -4.48598 -3.99994 Z" />
</svg>