<svg version="1.1" xmlns="http://www.w3.org/2000/svg" viewBox="-5.615385544378699 -5.00000093846154 11.230771088757399 10.00000187692308" fill="black" stroke="none">
    <path fill-rule="evenodd" d="M -3.23077 -4 L -3.23077 -3.84615 L -3.23077 -1.69231 L -4.61538 -1.69231 L -4.61538 -1.38462 L -3.23077 -1.38462 L -3.23077 1.38462 L -4.61538 1.38462 L -4.61538 1.69231 L -3.23077 1.69231 L -3.23077 4 L 3.23077 4 L 3.23077 1.69231 L 4.61538 1.69231 L 4.61538 1.38462 L 3.23077 1.38462 L 3.23077 -1.38462 L 4.61538 -1.38462 L 4.61538 -1.69231 L 3.23077 -1.69231 L 3.23077 -4 L -3.23077 -4 Z M -2.92308 -3.69231 L 2.92308 -3.69231 L 2.92308 3.69231 L -2.92308 3.69231 L -2.92308 -3.69231 Z M 1.35385 0.41538 L 1.35385 0.72308 L 2.50769 0.72308 L 2.50769 0.41538 L 1.35385 0.41538 Z M -2.49231 0.41538 L -2.49231 0.72308 L -1.33846 0.72308 L -1.33846 0.41538 L -2.49231 0.41538 Z M -2.49231 -2.66154 L -2.49231 -2.35385 L -1.33846 -2.35385 L -1.33846 -2.66154 L -2.49231 -2.66154 Z M 2.25046 1.77846 L 2.37354 1.85785 L 2.28985 2.05231 L 2.16677 1.96369 L 2.16022 1.97422 L 2.15323 1.98447 L 2.14581 1.99442 L 2.13798 2.00404 L 2.12975 2.01332 L 2.12114 2.02225 L 2.11216 2.03081 L 2.10283 2.03898 L 2.09316 2.04675 L 2.08317 2.0541 L 2.07288 2.06103 L 2.06231 2.06752 L 2.05147 2.07355 L 2.04039 2.07913 L 2.02909 2.08423 L 2.01757 2.08885 L 2.00588 2.09298 L 1.99402 2.09662 L 1.98202 2.09975 L 1.96989 2.10237 L 1.95767 2.10448 L 1.94537 2.10607 L 1.93301 2.10714 L 1.92062 2.10769 L 1.90688 2.10773 L 1.89316 2.10717 L 1.87948 2.10601 L 1.86587 2.10424 L 1.85234 2.10188 L 1.83893 2.09893 L 1.82566 2.0954 L 1.81256 2.09128 L 1.79966 2.08659 L 1.78697 2.08134 L 1.77452 2.07554 L 1.76234 2.0692 L 1.75046 2.06232 L 1.73888 2.05494 L 1.72764 2.04705 L 1.71676 2.03867 L 1.70626 2.02983 L 1.69615 2.02053 L 1.68647 2.0108 L 1.67721 2.00065 L 1.66842 1.99011 L 1.66009 1.97919 L 1.65226 1.96792 L 1.64492 1.95631 L 1.63569 1.94025 L 1.62685 1.92398 L 1.6184 1.9075 L 1.61035 1.89082 L 1.60271 1.87395 L 1.59547 1.8569 L 1.58864 1.83969 L 1.58223 1.82231 L 1.57624 1.80479 L 1.57067 1.78713 L 1.56553 1.76933 L 1.56081 1.75142 L 1.55653 1.73341 L 1.55268 1.71529 L 1.54927 1.69709 L 1.5463 1.67881 L 1.54377 1.66046 L 1.54168 1.64206 L 1.54003 1.62361 L 1.53883 1.60513 L 1.53807 1.58663 L 1.53775 1.56811 L 1.53789 1.54959 L 1.53846 1.53108 L 1.53766 1.51272 L 1.5373 1.49435 L 1.53738 1.47598 L 1.5379 1.45761 L 1.53886 1.43926 L 1.54025 1.42094 L 1.54209 1.40266 L 1.54435 1.38443 L 1.54706 1.36625 L 1.55019 1.34815 L 1.55376 1.33012 L 1.55776 1.31219 L 1.56218 1.29436 L 1.56703 1.27664 L 1.5723 1.25904 L 1.57799 1.24156 L 1.5841 1.22424 L 1.59062 1.20706 L 1.59754 1.19004 L 1.60487 1.17319 L 1.6126 1.15652 L 1.62073 1.14004 L 1.62925 1.12376 L 1.63815 1.10769 L 1.65319 1.08527 L 1.67009 1.06422 L 1.68871 1.04468 L 1.70893 1.02679 L 1.7306 1.01069 L 1.75356 0.99649 L 1.77764 0.9843 L 1.80268 0.9742 L 1.82848 0.96627 L 1.85487 0.96056 L 1.88164 0.95712 L 1.90862 0.95597 L 1.93559 0.95712 L 1.96236 0.96056 L 1.98875 0.96627 L 2.01455 0.9742 L 2.03959 0.9843 L 2.06367 0.99649 L 2.08663 1.01069 L 2.1083 1.02679 L 2.12852 1.04468 L 2.14714 1.06422 L 2.16404 1.08527 L 2.17908 1.10769 L 2.1879 1.12379 L 2.19634 1.14009 L 2.20439 1.15659 L 2.21204 1.17327 L 2.21929 1.19013 L 2.22613 1.20716 L 2.23257 1.22435 L 2.2386 1.24169 L 2.24421 1.25917 L 2.2494 1.27677 L 2.25417 1.2945 L 2.25852 1.31233 L 2.26244 1.33026 L 2.26593 1.34828 L 2.26899 1.36638 L 2.27161 1.38455 L 2.27381 1.40277 L 2.27556 1.42104 L 2.27688 1.43935 L 2.27777 1.45769 L 2.27821 1.47604 L 2.27822 1.49439 L 2.27779 1.51274 L 2.27692 1.53108 L 2.2764 1.57705 L 2.27496 1.61735 L 2.27279 1.65229 L 2.27006 1.68219 L 2.26697 1.70737 L 2.26369 1.72815 L 2.26042 1.74486 L 2.25732 1.75781 L 2.2546 1.76733 L 2.25242 1.77373 L 2.25098 1.77733 L 2.25046 1.77846 Z M 2.10462 1.69662 L 2.10589 1.6898 L 2.10711 1.68297 L 2.10827 1.67613 L 2.10938 1.66928 L 2.11042 1.66243 L 2.11141 1.65556 L 2.11235 1.64869 L 2.11322 1.64181 L 2.11404 1.63492 L 2.1148 1.62802 L 2.1155 1.62112 L 2.11615 1.61422 L 2.11673 1.6073 L 2.11726 1.60039 L 2.11774 1.59347 L 2.11815 1.58654 L 2.11851 1.57962 L 2.11881 1.57269 L 2.11905 1.56575 L 2.11923 1.55882 L 2.11936 1.55189 L 2.11942 1.54495 L 2.11943 1.53801 L 2.11938 1.53108 L 2.12005 1.51866 L 2.12045 1.50624 L 2.12057 1.49381 L 2.12043 1.48138 L 2.12001 1.46895 L 2.11932 1.45654 L 2.11836 1.44415 L 2.11713 1.43177 L 2.11563 1.41943 L 2.11386 1.40713 L 2.11183 1.39487 L 2.10952 1.38265 L 2.10695 1.37049 L 2.10411 1.35838 L 2.10101 1.34634 L 2.09765 1.33438 L 2.09403 1.32248 L 2.09015 1.31067 L 2.08601 1.29895 L 2.08162 1.28732 L 2.07697 1.27579 L 2.07207 1.26436 L 2.06693 1.25305 L 2.06154 1.24185 L 2.05407 1.22766 L 2.04529 1.21424 L 2.03529 1.20171 L 2.02415 1.19018 L 2.01197 1.17975 L 1.99886 1.17051 L 1.98494 1.16255 L 1.97034 1.15594 L 1.95517 1.15074 L 1.93958 1.14699 L 1.92371 1.14472 L 1.90769 1.14397 L 1.89168 1.14472 L 1.8758 1.14699 L 1.86021 1.15074 L 1.84505 1.15594 L 1.83044 1.16255 L 1.81652 1.17051 L 1.80341 1.17975 L 1.79124 1.19018 L 1.7801 1.20171 L 1.77009 1.21424 L 1.76132 1.22766 L 1.75385 1.24185 L 1.7483 1.25298 L 1.743 1.26423 L 1.73795 1.2756 L 1.73314 1.28707 L 1.72859 1.29865 L 1.7243 1.31032 L 1.72026 1.32209 L 1.71648 1.33394 L 1.71296 1.34587 L 1.7097 1.35787 L 1.70671 1.36995 L 1.70398 1.38208 L 1.70152 1.39428 L 1.69933 1.40652 L 1.69741 1.41881 L 1.69575 1.43114 L 1.69437 1.4435 L 1.69326 1.45589 L 1.69242 1.4683 L 1.69185 1.48072 L 1.69156 1.49316 L 1.69153 1.5056 L 1.69178 1.51803 L 1.69231 1.53046 L 1.69178 1.54304 L 1.69153 1.55562 L 1.69155 1.56821 L 1.69185 1.58079 L 1.69241 1.59337 L 1.69325 1.60593 L 1.69436 1.61847 L 1.69574 1.63098 L 1.69739 1.64346 L 1.69932 1.6559 L 1.70151 1.66829 L 1.70397 1.68064 L 1.70669 1.69293 L 1.70969 1.70515 L 1.71294 1.71731 L 1.71646 1.7294 L 1.72024 1.74141 L 1.72428 1.75333 L 1.72858 1.76516 L 1.73313 1.77689 L 1.73793 1.78853 L 1.74299 1.80006 L 1.7483 1.81147 L 1.75385 1.82277 L 1.75743 1.82964 L 1.76131 1.83635 L 1.76549 1.84287 L 1.76995 1.84921 L 1.77469 1.85534 L 1.77969 1.86126 L 1.78496 1.86694 L 1.79047 1.87239 L 1.79621 1.87759 L 1.80218 1.88253 L 1.80837 1.8872 L 1.81475 1.89159 L 1.82132 1.8957 L 1.82807 1.8995 L 1.83498 1.90301 L 1.84204 1.90621 L 1.84924 1.90909 L 1.85655 1.91164 L 1.86397 1.91388 L 1.87149 1.91578 L 1.87907 1.91734 L 1.88673 1.91857 L 1.89442 1.91946 L 1.90215 1.92 L 1.90767 1.92004 L 1.91319 1.91987 L 1.91869 1.9195 L 1.92418 1.91893 L 1.92965 1.91815 L 1.93508 1.91717 L 1.94047 1.91599 L 1.94581 1.9146 L 1.9511 1.91302 L 1.95632 1.91125 L 1.96148 1.90928 L 1.96655 1.90712 L 1.97155 1.90477 L 1.97645 1.90224 L 1.98126 1.89953 L 1.98596 1.89664 L 1.99055 1.89358 L 1.99503 1.89035 L 1.99938 1.88696 L 2.0036 1.8834 L 2.00768 1.87969 L 2.01163 1.87584 L 2.01543 1.87183 L 2.01908 1.86769 L 1.896 1.77908 L 1.98954 1.61538 L 2.10462 1.69662 Z M -2.30769 2.10769 L -2.30769 0.97169 L -1.944 0.97169 L -1.93555 0.97126 L -1.92709 0.97098 L -1.91863 0.97085 L -1.91016 0.97086 L -1.9017 0.97103 L -1.89324 0.97134 L -1.88479 0.9718 L -1.87635 0.9724 L -1.86792 0.97315 L -1.8595 0.97405 L -1.8511 0.9751 L -1.84272 0.97629 L -1.83437 0.97763 L -1.82603 0.97911 L -1.81773 0.98074 L -1.80945 0.98252 L -1.80121 0.98444 L -1.793 0.9865 L -1.78483 0.9887 L -1.7767 0.99105 L -1.76861 0.99354 L -1.76056 0.99617 L -1.75256 0.99894 L -1.74462 1.00185 L -1.73917 1.00491 L -1.73381 1.00813 L -1.72854 1.01149 L -1.72337 1.015 L -1.7183 1.01865 L -1.71333 1.02245 L -1.70847 1.02637 L -1.70372 1.03044 L -1.69908 1.03463 L -1.69456 1.03895 L -1.69017 1.04339 L -1.6859 1.04796 L -1.68176 1.05264 L -1.67775 1.05744 L -1.67387 1.06234 L -1.67014 1.06735 L -1.66654 1.07246 L -1.66309 1.07768 L -1.65978 1.08298 L -1.65663 1.08838 L -1.65362 1.09386 L -1.65077 1.09942 L -1.64808 1.10506 L -1.64554 1.11077 L -1.64233 1.11787 L -1.63927 1.12503 L -1.63633 1.13225 L -1.63354 1.13953 L -1.63089 1.14686 L -1.62838 1.15423 L -1.62601 1.16166 L -1.62378 1.16912 L -1.62169 1.17663 L -1.61975 1.18418 L -1.61796 1.19176 L -1.61631 1.19937 L -1.6148 1.20702 L -1.61344 1.21469 L -1.61223 1.22239 L -1.61117 1.23011 L -1.61025 1.23785 L -1.60948 1.2456 L -1.60886 1.25337 L -1.60839 1.26115 L -1.60807 1.26893 L -1.6079 1.27672 L -1.60787 1.28452 L -1.608 1.29231 L -1.6077 1.30141 L -1.60763 1.31051 L -1.60779 1.31962 L -1.60817 1.32872 L -1.60877 1.3378 L -1.6096 1.34687 L -1.61065 1.35592 L -1.61192 1.36493 L -1.61341 1.37392 L -1.61513 1.38286 L -1.61707 1.39176 L -1.61922 1.40061 L -1.62159 1.4094 L -1.62418 1.41813 L -1.62698 1.42679 L -1.63 1.43538 L -1.63323 1.4439 L -1.63666 1.45233 L -1.6403 1.46068 L -1.64415 1.46893 L -1.6482 1.47709 L -1.65245 1.48514 L -1.6569 1.49309 L -1.66154 1.50092 L -1.66647 1.5079 L -1.67164 1.51471 L -1.67705 1.52133 L -1.68268 1.52776 L -1.68853 1.53399 L -1.6946 1.54002 L -1.70087 1.54583 L -1.70734 1.55142 L -1.71399 1.55678 L -1.72083 1.5619 L -1.72785 1.56679 L -1.73503 1.57143 L -1.74237 1.57582 L -1.74985 1.57995 L -1.75747 1.58381 L -1.76523 1.58741 L -1.7731 1.59074 L -1.78108 1.5938 L -1.78917 1.59657 L -1.79735 1.59906 L -1.8056 1.60127 L -1.81393 1.60319 L -1.82233 1.60482 L -1.83077 1.60615 L -1.82637 1.60954 L -1.822 1.61297 L -1.81769 1.61647 L -1.81342 1.62001 L -1.80919 1.62362 L -1.80501 1.62727 L -1.80088 1.63098 L -1.7968 1.63474 L -1.79276 1.63856 L -1.78877 1.64242 L -1.78484 1.64633 L -1.78095 1.6503 L -1.77712 1.65431 L -1.77333 1.65838 L -1.7696 1.66249 L -1.76592 1.66665 L -1.7623 1.67085 L -1.75872 1.6751 L -1.75521 1.6794 L -1.75175 1.68374 L -1.74834 1.68813 L -1.74499 1.69256 L -1.7417 1.69703 L -1.73846 1.70154 L -1.73377 1.7089 L -1.72913 1.71629 L -1.72454 1.72371 L -1.72 1.73117 L -1.71551 1.73865 L -1.71107 1.74616 L -1.70668 1.75371 L -1.70234 1.76128 L -1.69805 1.76888 L -1.69382 1.77651 L -1.68963 1.78417 L -1.6855 1.79186 L -1.68142 1.79957 L -1.67739 1.80731 L -1.67341 1.81508 L -1.66949 1.82288 L -1.66562 1.8307 L -1.6618 1.83855 L -1.65803 1.84642 L -1.65432 1.85432 L -1.65066 1.86224 L -1.64705 1.87019 L -1.6435 1.87816 L -1.64 1.88615 L -1.53538 2.10769 L -1.74523 2.10769 L -1.86831 1.86154 L -1.8717 1.85438 L -1.87513 1.84724 L -1.8786 1.84012 L -1.8821 1.83301 L -1.88563 1.82592 L -1.8892 1.81885 L -1.89281 1.81179 L -1.89645 1.80476 L -1.90013 1.79774 L -1.90384 1.79074 L -1.90758 1.78376 L -1.91136 1.7768 L -1.91518 1.76985 L -1.91903 1.76293 L -1.92291 1.75602 L -1.92683 1.74914 L -1.93078 1.74227 L -1.93476 1.73543 L -1.93878 1.7286 L -1.94284 1.72179 L -1.94692 1.71501 L -1.95104 1.70824 L -1.9552 1.70149 L -1.95938 1.69477 L -1.96098 1.69228 L -1.96263 1.68983 L -1.96434 1.68741 L -1.9661 1.68504 L -1.96792 1.6827 L -1.96978 1.68041 L -1.9717 1.67816 L -1.97367 1.67595 L -1.97569 1.67378 L -1.97775 1.67167 L -1.97986 1.6696 L -1.98202 1.66757 L -1.98422 1.6656 L -1.98647 1.66368 L -1.98876 1.6618 L -1.99109 1.65998 L -1.99346 1.65821 L -1.99587 1.6565 L -1.99831 1.65484 L -2.0008 1.65323 L -2.00332 1.65169 L -2.00587 1.65019 L -2.00846 1.64876 L -2.01108 1.64738 L -2.01454 1.64615 L -2.01803 1.64497 L -2.02154 1.64385 L -2.02506 1.64279 L -2.0286 1.64179 L -2.03216 1.64085 L -2.03574 1.63998 L -2.03933 1.63916 L -2.04293 1.6384 L -2.04654 1.6377 L -2.05017 1.63707 L -2.0538 1.6365 L -2.05745 1.63599 L -2.0611 1.63554 L -2.06476 1.63515 L -2.06843 1.63482 L -2.0721 1.63456 L -2.07577 1.63436 L -2.07945 1.63422 L -2.08313 1.63414 L -2.08681 1.63413 L -2.09049 1.63418 L -2.09417 1.63429 L -2.09785 1.63446 L -2.13292 1.63446 L -2.13292 2.10892 L -2.30769 2.10769 Z M -2.13477 1.45169 L -2.00738 1.45169 L -2.00086 1.45208 L -1.99433 1.45239 L -1.9878 1.45261 L -1.98126 1.45275 L -1.97472 1.45281 L -1.96819 1.45278 L -1.96165 1.45267 L -1.95512 1.45248 L -1.94859 1.4522 L -1.94206 1.45184 L -1.93554 1.4514 L -1.92902 1.45088 L -1.92251 1.45027 L -1.91601 1.44958 L -1.90952 1.44881 L -1.90304 1.44795 L -1.89657 1.44701 L -1.89011 1.44599 L -1.88367 1.44489 L -1.87724 1.44371 L -1.87083 1.44244 L -1.86443 1.44109 L -1.85805 1.43966 L -1.85169 1.43815 L -1.8491 1.43688 L -1.84655 1.43554 L -1.84404 1.43412 L -1.84157 1.43263 L -1.83914 1.43107 L -1.83676 1.42944 L -1.83443 1.42775 L -1.83214 1.42599 L -1.82991 1.42416 L -1.82773 1.42227 L -1.8256 1.42032 L -1.82354 1.41831 L -1.82153 1.41624 L -1.81957 1.41412 L -1.81769 1.41194 L -1.81586 1.4097 L -1.8141 1.40742 L -1.8124 1.40509 L -1.81078 1.4027 L -1.80922 1.40028 L -1.80773 1.39781 L -1.80631 1.39529 L -1.80496 1.39274 L -1.80369 1.39015 L -1.80209 1.38683 L -1.80056 1.38348 L -1.79909 1.3801 L -1.79769 1.37669 L -1.79636 1.37325 L -1.7951 1.36978 L -1.79391 1.3663 L -1.79279 1.36278 L -1.79173 1.35925 L -1.79075 1.3557 L -1.78984 1.35212 L -1.789 1.34853 L -1.78824 1.34493 L -1.78754 1.34131 L -1.78692 1.33767 L -1.78637 1.33403 L -1.7859 1.33037 L -1.78549 1.32671 L -1.78516 1.32303 L -1.78491 1.31936 L -1.78472 1.31567 L -1.78461 1.31199 L -1.78458 1.3083 L -1.78462 1.30462 L -1.78449 1.30059 L -1.78446 1.29657 L -1.78453 1.29254 L -1.7847 1.28852 L -1.78496 1.28451 L -1.78532 1.2805 L -1.78578 1.2765 L -1.78634 1.27252 L -1.78699 1.26855 L -1.78774 1.26459 L -1.78859 1.26066 L -1.78953 1.25674 L -1.79056 1.25285 L -1.79169 1.24899 L -1.79292 1.24516 L -1.79423 1.24136 L -1.79564 1.23759 L -1.79714 1.23385 L -1.79873 1.23015 L -1.80041 1.2265 L -1.80218 1.22288 L -1.80403 1.21931 L -1.80597 1.21578 L -1.808 1.21231 L -1.8099 1.20953 L -1.8119 1.20681 L -1.81399 1.20416 L -1.81617 1.20159 L -1.81843 1.19909 L -1.82078 1.19667 L -1.82321 1.19433 L -1.82571 1.19208 L -1.8283 1.18991 L -1.83095 1.18783 L -1.83367 1.18585 L -1.83646 1.18395 L -1.83932 1.18215 L -1.84223 1.18046 L -1.8452 1.17886 L -1.84822 1.17736 L -1.85129 1.17597 L -1.8544 1.17468 L -1.85756 1.17349 L -1.86075 1.17242 L -1.86398 1.17146 L -1.86725 1.1706 L -1.87053 1.16986 L -1.87385 1.16923 L -1.87896 1.16881 L -1.88408 1.16842 L -1.8892 1.16805 L -1.89432 1.1677 L -1.89944 1.16738 L -1.90457 1.16708 L -1.90969 1.1668 L -1.91482 1.16654 L -1.91995 1.16631 L -1.92508 1.16609 L -1.9302 1.16591 L -1.93534 1.16574 L -1.94047 1.1656 L -1.9456 1.16548 L -1.95073 1.16538 L -1.95586 1.16531 L -1.96099 1.16526 L -1.96613 1.16523 L -1.97126 1.16522 L -1.97639 1.16524 L -1.98153 1.16528 L -1.98666 1.16534 L -1.99179 1.16543 L -1.99692 1.16554 L -2.13477 1.16554 L -2.13477 1.45169 Z M -2.33846 -1.35385 L -2.14523 -1.37477 L -2.14444 -1.36732 L -2.14345 -1.3599 L -2.14226 -1.35251 L -2.14088 -1.34515 L -2.1393 -1.33784 L -2.13752 -1.33056 L -2.13556 -1.32334 L -2.1334 -1.31617 L -2.13105 -1.30906 L -2.12851 -1.30202 L -2.12579 -1.29504 L -2.12288 -1.28815 L -2.11979 -1.28133 L -2.11652 -1.27459 L -2.11307 -1.26795 L -2.10945 -1.2614 L -2.10565 -1.25495 L -2.10168 -1.2486 L -2.09755 -1.24236 L -2.09325 -1.23623 L -2.08878 -1.23022 L -2.08416 -1.22433 L -2.07939 -1.21856 L -2.07446 -1.21292 L -2.06956 -1.20859 L -2.06451 -1.20443 L -2.05933 -1.20043 L -2.05402 -1.1966 L -2.04859 -1.19295 L -2.04304 -1.18948 L -2.03738 -1.1862 L -2.03162 -1.1831 L -2.02575 -1.1802 L -2.0198 -1.17749 L -2.01376 -1.17498 L -2.00763 -1.17267 L -2.00144 -1.17056 L -1.99518 -1.16865 L -1.98886 -1.16696 L -1.98249 -1.16547 L -1.97607 -1.16419 L -1.96961 -1.16313 L -1.96313 -1.16227 L -1.95661 -1.16163 L -1.95008 -1.16121 L -1.94354 -1.161 L -1.937 -1.16101 L -1.93046 -1.16123 L -1.92397 -1.16075 L -1.91746 -1.16048 L -1.91095 -1.16042 L -1.90445 -1.16056 L -1.89794 -1.16092 L -1.89146 -1.16148 L -1.88499 -1.16225 L -1.87856 -1.16323 L -1.87216 -1.16441 L -1.8658 -1.1658 L -1.85948 -1.16739 L -1.85322 -1.16918 L -1.84703 -1.17117 L -1.84089 -1.17336 L -1.83484 -1.17575 L -1.82886 -1.17833 L -1.82297 -1.18109 L -1.81717 -1.18405 L -1.81146 -1.18719 L -1.80586 -1.19051 L -1.80037 -1.19401 L -1.795 -1.19768 L -1.78974 -1.20153 L -1.78462 -1.20554 L -1.78086 -1.20895 L -1.77723 -1.2125 L -1.77373 -1.21617 L -1.77035 -1.21997 L -1.76712 -1.22388 L -1.76403 -1.2279 L -1.76108 -1.23204 L -1.75828 -1.23627 L -1.75564 -1.2406 L -1.75315 -1.24502 L -1.75081 -1.24953 L -1.74864 -1.25412 L -1.74664 -1.25878 L -1.7448 -1.26351 L -1.74313 -1.26831 L -1.74163 -1.27315 L -1.74031 -1.27805 L -1.73916 -1.283 L -1.73818 -1.28798 L -1.73739 -1.29299 L -1.73677 -1.29803 L -1.73633 -1.30309 L -1.73608 -1.30816 L -1.736 -1.31323 L -1.73595 -1.3162 L -1.73598 -1.31917 L -1.7361 -1.32214 L -1.73629 -1.32511 L -1.73656 -1.32807 L -1.73691 -1.33102 L -1.73734 -1.33396 L -1.73785 -1.33689 L -1.73844 -1.3398 L -1.73911 -1.3427 L -1.73985 -1.34557 L -1.74068 -1.34843 L -1.74158 -1.35126 L -1.74255 -1.35407 L -1.7436 -1.35685 L -1.74473 -1.3596 L -1.74593 -1.36232 L -1.7472 -1.365 L -1.74854 -1.36765 L -1.74996 -1.37026 L -1.75144 -1.37284 L -1.753 -1.37537 L -1.75462 -1.37786 L -1.75631 -1.38031 L -1.75871 -1.38304 L -1.76117 -1.38572 L -1.76369 -1.38835 L -1.76627 -1.39092 L -1.7689 -1.39343 L -1.77159 -1.39589 L -1.77433 -1.39829 L -1.77712 -1.40062 L -1.77997 -1.4029 L -1.78286 -1.40511 L -1.7858 -1.40725 L -1.78879 -1.40933 L -1.79182 -1.41135 L -1.79489 -1.4133 L -1.79801 -1.41518 L -1.80117 -1.41699 L -1.80436 -1.41874 L -1.80759 -1.42041 L -1.81086 -1.42201 L -1.81417 -1.42354 L -1.8175 -1.425 L -1.82087 -1.42638 L -1.82427 -1.42769 L -1.82769 -1.42892 L -1.83415 -1.43124 L -1.84185 -1.43389 L -1.85078 -1.43687 L -1.86095 -1.44016 L -1.87235 -1.44377 L -1.885 -1.44769 L -1.89889 -1.45192 L -1.91403 -1.45646 L -1.93041 -1.46129 L -1.94805 -1.46642 L -1.96694 -1.47183 L -1.98708 -1.47754 L -1.99734 -1.47982 L -2.00754 -1.48231 L -2.0177 -1.48501 L -2.0278 -1.48793 L -2.03783 -1.49105 L -2.0478 -1.49438 L -2.05769 -1.49791 L -2.06751 -1.50165 L -2.07726 -1.50559 L -2.08691 -1.50974 L -2.09648 -1.51408 L -2.10596 -1.51862 L -2.11534 -1.52335 L -2.12462 -1.52828 L -2.1338 -1.5334 L -2.14287 -1.53871 L -2.15183 -1.5442 L -2.16067 -1.54988 L -2.16939 -1.55574 L -2.17799 -1.56179 L -2.18646 -1.568 L -2.1948 -1.5744 L -2.20301 -1.58096 L -2.21108 -1.58769 L -2.21828 -1.59511 L -2.22523 -1.60278 L -2.23192 -1.61067 L -2.23834 -1.61878 L -2.24448 -1.6271 L -2.25034 -1.63562 L -2.25591 -1.64434 L -2.26119 -1.65323 L -2.26616 -1.6623 L -2.27082 -1.67154 L -2.27518 -1.68092 L -2.27921 -1.69044 L -2.28292 -1.7001 L -2.28631 -1.70987 L -2.28936 -1.71975 L -2.29208 -1.72973 L -2.29447 -1.7398 L -2.29651 -1.74994 L -2.29821 -1.76014 L -2.29957 -1.77039 L -2.30058 -1.78069 L -2.30125 -1.79101 L -2.30157 -1.80135 L -2.30154 -1.81169 L -2.30151 -1.81856 L -2.30133 -1.82542 L -2.301 -1.83227 L -2.30052 -1.83912 L -2.29989 -1.84595 L -2.29911 -1.85277 L -2.29818 -1.85957 L -2.2971 -1.86635 L -2.29588 -1.87311 L -2.2945 -1.87983 L -2.29298 -1.88652 L -2.29132 -1.89318 L -2.28951 -1.8998 L -2.28755 -1.90638 L -2.28546 -1.91292 L -2.28322 -1.9194 L -2.28083 -1.92584 L -2.27831 -1.93223 L -2.27565 -1.93855 L -2.27285 -1.94482 L -2.26992 -1.95102 L -2.26685 -1.95716 L -2.26364 -1.96323 L -2.26031 -1.96923 L -2.25671 -1.97533 L -2.25297 -1.98134 L -2.24906 -1.98724 L -2.24501 -1.99305 L -2.24082 -1.99875 L -2.23647 -2.00434 L -2.23199 -2.00982 L -2.22736 -2.01518 L -2.2226 -2.02042 L -2.21771 -2.02553 L -2.21269 -2.03052 L -2.20754 -2.03538 L -2.20227 -2.04011 L -2.19688 -2.0447 L -2.19138 -2.04915 L -2.18576 -2.05345 L -2.18003 -2.05762 L -2.1742 -2.06163 L -2.16827 -2.06549 L -2.16224 -2.0692 L -2.15612 -2.07276 L -2.1499 -2.07615 L -2.14361 -2.07939 L -2.13723 -2.08246 L -2.12962 -2.0858 L -2.12195 -2.08899 L -2.11423 -2.09204 L -2.10644 -2.09494 L -2.09861 -2.0977 L -2.09072 -2.10031 L -2.08279 -2.10277 L -2.07481 -2.10508 L -2.06679 -2.10724 L -2.05873 -2.10925 L -2.05063 -2.11111 L -2.0425 -2.11281 L -2.03434 -2.11436 L -2.02615 -2.11576 L -2.01794 -2.11701 L -2.0097 -2.1181 L -2.00145 -2.11903 L -1.99318 -2.11981 L -1.9849 -2.12044 L -1.9766 -2.12091 L -1.9683 -2.12122 L -1.96 -2.12138 L -1.95169 -2.12138 L -1.94338 -2.12123 L -1.9309 -2.12202 L -1.9184 -2.1224 L -1.90589 -2.12237 L -1.89339 -2.12193 L -1.88091 -2.12108 L -1.86847 -2.11981 L -1.85607 -2.11815 L -1.84374 -2.11607 L -1.83148 -2.11359 L -1.81931 -2.11071 L -1.80724 -2.10743 L -1.79528 -2.10376 L -1.78345 -2.0997 L -1.77176 -2.09525 L -1.76022 -2.09042 L -1.74885 -2.08521 L -1.73765 -2.07963 L -1.72665 -2.07369 L -1.71584 -2.06739 L -1.70525 -2.06074 L -1.69488 -2.05374 L -1.68475 -2.04641 L -1.67486 -2.03875 L -1.66523 -2.03077 L -1.6574 -2.02257 L -1.64984 -2.01411 L -1.64256 -2.0054 L -1.63558 -1.99646 L -1.6289 -1.98729 L -1.62253 -1.97791 L -1.61647 -1.96831 L -1.61074 -1.95853 L -1.60533 -1.94855 L -1.60026 -1.93841 L -1.59553 -1.9281 L -1.59114 -1.91764 L -1.5871 -1.90703 L -1.58342 -1.89631 L -1.5801 -1.88546 L -1.57713 -1.87451 L -1.57454 -1.86347 L -1.57231 -1.85234 L -1.57045 -1.84115 L -1.56896 -1.82991 L -1.56785 -1.81862 L -1.56711 -1.8073 L -1.56675 -1.79596 L -1.56677 -1.78462 L -1.76554 -1.77477 L -1.76602 -1.78048 L -1.76667 -1.78617 L -1.76748 -1.79184 L -1.76846 -1.79748 L -1.7696 -1.8031 L -1.7709 -1.80868 L -1.77237 -1.81421 L -1.77399 -1.81971 L -1.77578 -1.82515 L -1.77772 -1.83054 L -1.77982 -1.83587 L -1.78207 -1.84114 L -1.78448 -1.84634 L -1.78703 -1.85146 L -1.78973 -1.85651 L -1.79258 -1.86148 L -1.79558 -1.86637 L -1.79871 -1.87116 L -1.80198 -1.87587 L -1.80539 -1.88047 L -1.80893 -1.88498 L -1.81259 -1.88938 L -1.81639 -1.89367 L -1.82031 -1.89785 L -1.82469 -1.90114 L -1.82917 -1.9043 L -1.83374 -1.90732 L -1.8384 -1.9102 L -1.84315 -1.91294 L -1.84798 -1.91553 L -1.85289 -1.91798 L -1.85786 -1.92028 L -1.86291 -1.92242 L -1.86801 -1.92441 L -1.87318 -1.92625 L -1.8784 -1.92793 L -1.88366 -1.92945 L -1.88897 -1.93081 L -1.89432 -1.932 L -1.8997 -1.93304 L -1.90512 -1.93391 L -1.91055 -1.93462 L -1.916 -1.93516 L -1.92147 -1.93554 L -1.92695 -1.93575 L -1.93243 -1.93579 L -1.93791 -1.93567 L -1.94338 -1.93538 L -1.94938 -1.93565 L -1.95538 -1.93573 L -1.96138 -1.93565 L -1.96737 -1.93539 L -1.97336 -1.93496 L -1.97933 -1.93436 L -1.98528 -1.93359 L -1.9912 -1.93265 L -1.9971 -1.93153 L -2.00296 -1.93025 L -2.00878 -1.9288 L -2.01456 -1.92718 L -2.02029 -1.9254 L -2.02597 -1.92345 L -2.03159 -1.92135 L -2.03714 -1.91908 L -2.04263 -1.91665 L -2.04804 -1.91406 L -2.05338 -1.91132 L -2.05864 -1.90843 L -2.06381 -1.90539 L -2.06889 -1.9022 L -2.07388 -1.89886 L -2.07877 -1.89538 L -2.08133 -1.89328 L -2.0838 -1.89108 L -2.08618 -1.88879 L -2.08848 -1.8864 L -2.09067 -1.88392 L -2.09277 -1.88136 L -2.09477 -1.87872 L -2.09666 -1.876 L -2.09844 -1.87321 L -2.10012 -1.87036 L -2.10167 -1.86744 L -2.10312 -1.86446 L -2.10444 -1.86142 L -2.10565 -1.85834 L -2.10673 -1.85521 L -2.10769 -1.85204 L -2.10852 -1.84884 L -2.10923 -1.8456 L -2.10981 -1.84234 L -2.11026 -1.83907 L -2.11058 -1.83577 L -2.11077 -1.83247 L -2.11084 -1.82916 L -2.11077 -1.82585 L -2.11074 -1.82268 L -2.1106 -1.81951 L -2.11036 -1.81635 L -2.11 -1.8132 L -2.10953 -1.81007 L -2.10895 -1.80695 L -2.10826 -1.80385 L -2.10746 -1.80079 L -2.10656 -1.79775 L -2.10555 -1.79474 L -2.10444 -1.79178 L -2.10322 -1.78885 L -2.1019 -1.78597 L -2.10049 -1.78313 L -2.09897 -1.78035 L -2.09736 -1.77762 L -2.09565 -1.77495 L -2.09385 -1.77234 L -2.09196 -1.7698 L -2.08998 -1.76732 L -2.08791 -1.76492 L -2.08576 -1.76258 L -2.08354 -1.76033 L -2.08123 -1.75815 L -2.07425 -1.75357 L -2.06719 -1.74911 L -2.06005 -1.74477 L -2.05284 -1.74055 L -2.04556 -1.73646 L -2.03821 -1.73249 L -2.03079 -1.72865 L -2.0233 -1.72494 L -2.01576 -1.72135 L -2.00815 -1.7179 L -2.00049 -1.71458 L -1.99277 -1.71138 L -1.985 -1.70833 L -1.97717 -1.7054 L -1.9693 -1.70261 L -1.96138 -1.69996 L -1.95341 -1.69744 L -1.94541 -1.69506 L -1.93736 -1.69282 L -1.92928 -1.69071 L -1.92116 -1.68875 L -1.91301 -1.68692 L -1.90482 -1.68524 L -1.89662 -1.68369 L -1.88732 -1.68149 L -1.87805 -1.67918 L -1.86881 -1.67678 L -1.85959 -1.67427 L -1.8504 -1.67167 L -1.84124 -1.66896 L -1.83211 -1.66616 L -1.82301 -1.66326 L -1.81394 -1.66026 L -1.8049 -1.65716 L -1.7959 -1.65396 L -1.78693 -1.65067 L -1.778 -1.64728 L -1.76911 -1.64379 L -1.76026 -1.6402 L -1.75144 -1.63652 L -1.74267 -1.63275 L -1.73393 -1.62888 L -1.72524 -1.62491 L -1.7166 -1.62086 L -1.70799 -1.6167 L -1.69944 -1.61246 L -1.69092 -1.60812 L -1.68246 -1.60369 L -1.67679 -1.60026 L -1.67119 -1.59671 L -1.66568 -1.59303 L -1.66026 -1.58922 L -1.65492 -1.58529 L -1.64967 -1.58124 L -1.64451 -1.57708 L -1.63946 -1.5728 L -1.6345 -1.5684 L -1.62964 -1.56389 L -1.62488 -1.55927 L -1.62023 -1.55455 L -1.61569 -1.54972 L -1.61126 -1.54479 L -1.60695 -1.53976 L -1.60275 -1.53463 L -1.59866 -1.52941 L -1.5947 -1.5241 L -1.59086 -1.5187 L -1.58714 -1.51321 L -1.58354 -1.50764 L -1.58008 -1.50199 L -1.57674 -1.49626 L -1.57354 -1.49046 L -1.57035 -1.48359 L -1.5673 -1.47664 L -1.5644 -1.46964 L -1.56164 -1.46258 L -1.55903 -1.45546 L -1.55656 -1.44829 L -1.55425 -1.44108 L -1.55209 -1.43381 L -1.55008 -1.4265 L -1.54822 -1.41915 L -1.54651 -1.41177 L -1.54495 -1.40435 L -1.54356 -1.3969 L -1.54231 -1.38942 L -1.54122 -1.38192 L -1.54029 -1.37439 L -1.53951 -1.36685 L -1.53889 -1.3593 L -1.53843 -1.35173 L -1.53812 -1.34416 L -1.53797 -1.33658 L -1.53798 -1.329 L -1.53814 -1.32142 L -1.53846 -1.31385 L -1.5385 -1.30602 L -1.53871 -1.2982 L -1.53909 -1.29038 L -1.53964 -1.28258 L -1.54036 -1.27479 L -1.54124 -1.26701 L -1.5423 -1.25926 L -1.54352 -1.25153 L -1.54491 -1.24383 L -1.54647 -1.23616 L -1.54819 -1.22853 L -1.55008 -1.22094 L -1.55214 -1.21339 L -1.55435 -1.20588 L -1.55673 -1.19843 L -1.55927 -1.19103 L -1.56197 -1.18368 L -1.56483 -1.1764 L -1.56784 -1.16918 L -1.57102 -1.16203 L -1.57434 -1.15494 L -1.57782 -1.14794 L -1.58145 -1.141 L -1.58523 -1.13415 L -1.58908 -1.12752 L -1.59309 -1.12098 L -1.59728 -1.11455 L -1.60163 -1.10823 L -1.60614 -1.10203 L -1.61082 -1.09595 L -1.61565 -1.08999 L -1.62063 -1.08415 L -1.62576 -1.07845 L -1.63104 -1.07289 L -1.63646 -1.06746 L -1.64202 -1.06217 L -1.64772 -1.05704 L -1.65355 -1.05205 L -1.6595 -1.04721 L -1.66558 -1.04253 L -1.67178 -1.03801 L -1.67809 -1.03365 L -1.68452 -1.02946 L -1.69105 -1.02544 L -1.69768 -1.02158 L -1.70442 -1.01791 L -1.71124 -1.0144 L -1.71815 -1.01108 L -1.72659 -1.00753 L -1.7351 -1.00413 L -1.74366 -1.00089 L -1.75228 -0.99781 L -1.76096 -0.99489 L -1.76969 -0.99213 L -1.77847 -0.98953 L -1.78729 -0.98709 L -1.79616 -0.98481 L -1.80506 -0.98269 L -1.81401 -0.98074 L -1.82299 -0.97895 L -1.832 -0.97733 L -1.84104 -0.97587 L -1.8501 -0.97458 L -1.85919 -0.97345 L -1.86829 -0.97249 L -1.87741 -0.9717 L -1.88655 -0.97107 L -1.89569 -0.97062 L -1.90484 -0.97033 L -1.914 -0.9702 L -1.92315 -0.97025 L -1.93231 -0.97046 L -1.94525 -0.96981 L -1.95821 -0.96959 L -1.97117 -0.96979 L -1.98411 -0.97042 L -1.99703 -0.97148 L -2.0099 -0.97296 L -2.02272 -0.97487 L -2.03547 -0.97719 L -2.04814 -0.97994 L -2.0607 -0.9831 L -2.07316 -0.98667 L -2.0855 -0.99065 L -2.09769 -0.99504 L -2.10973 -0.99983 L -2.12161 -1.00501 L -2.13332 -1.01058 L -2.14483 -1.01653 L -2.15614 -1.02286 L -2.16723 -1.02955 L -2.1781 -1.03661 L -2.18873 -1.04402 L -2.19911 -1.05178 L -2.20923 -1.05988 L -2.21908 -1.06831 L -2.22788 -1.07809 L -2.23639 -1.08814 L -2.24461 -1.09842 L -2.25252 -1.10894 L -2.26012 -1.11969 L -2.2674 -1.13066 L -2.27436 -1.14183 L -2.28099 -1.1532 L -2.28729 -1.16477 L -2.29324 -1.17651 L -2.29884 -1.18842 L -2.3041 -1.20049 L -2.309 -1.2127 L -2.31354 -1.22506 L -2.31771 -1.23754 L -2.32152 -1.25015 L -2.32496 -1.26285 L -2.32803 -1.27565 L -2.33072 -1.28854 L -2.33303 -1.3015 L -2.33496 -1.31452 L -2.33651 -1.32759 L -2.33768 -1.34071 L -2.33846 -1.35385 Z M 2.25046 -1.29846 L 2.37354 -1.21908 L 2.28985 -1.02462 L 2.16677 -1.11323 L 2.16022 -1.1027 L 2.15323 -1.09245 L 2.14581 -1.08251 L 2.13798 -1.07289 L 2.12975 -1.0636 L 2.12114 -1.05467 L 2.11216 -1.04612 L 2.10283 -1.03795 L 2.09316 -1.03018 L 2.08317 -1.02282 L 2.07288 -1.01589 L 2.06231 -1.00941 L 2.05147 -1.00337 L 2.04039 -0.9978 L 2.02909 -0.99269 L 2.01757 -0.98807 L 2.00588 -0.98394 L 1.99402 -0.98031 L 1.98202 -0.97718 L 1.96989 -0.97455 L 1.95767 -0.97244 L 1.94537 -0.97085 L 1.93301 -0.96978 L 1.92062 -0.96923 L 1.90688 -0.96919 L 1.89316 -0.96975 L 1.87948 -0.97092 L 1.86587 -0.97268 L 1.85234 -0.97504 L 1.83893 -0.97799 L 1.82566 -0.98153 L 1.81256 -0.98564 L 1.79966 -0.99033 L 1.78697 -0.99558 L 1.77452 -1.00138 L 1.76234 -1.00773 L 1.75046 -1.0146 L 1.73888 -1.02199 L 1.72764 -1.02987 L 1.71676 -1.03825 L 1.70626 -1.04709 L 1.69615 -1.05639 L 1.68647 -1.06612 L 1.67721 -1.07627 L 1.66842 -1.08681 L 1.66009 -1.09773 L 1.65226 -1.10901 L 1.64492 -1.12062 L 1.63569 -1.13667 L 1.62685 -1.15294 L 1.6184 -1.16943 L 1.61035 -1.1861 L 1.60271 -1.20297 L 1.59547 -1.22002 L 1.58864 -1.23724 L 1.58223 -1.25461 L 1.57624 -1.27213 L 1.57067 -1.2898 L 1.56553 -1.30759 L 1.56081 -1.3255 L 1.55653 -1.34352 L 1.55268 -1.36163 L 1.54927 -1.37984 L 1.5463 -1.39812 L 1.54377 -1.41646 L 1.54168 -1.43487 L 1.54003 -1.45331 L 1.53883 -1.47179 L 1.53807 -1.4903 L 1.53775 -1.50882 L 1.53789 -1.52733 L 1.53846 -1.54585 L 1.53766 -1.5642 L 1.5373 -1.58257 L 1.53738 -1.60095 L 1.5379 -1.61931 L 1.53886 -1.63766 L 1.54025 -1.65598 L 1.54209 -1.67426 L 1.54435 -1.6925 L 1.54706 -1.71067 L 1.55019 -1.72877 L 1.55376 -1.7468 L 1.55776 -1.76473 L 1.56218 -1.78256 L 1.56703 -1.80029 L 1.5723 -1.81789 L 1.57799 -1.83536 L 1.5841 -1.85269 L 1.59062 -1.86987 L 1.59754 -1.88688 L 1.60487 -1.90373 L 1.6126 -1.9204 L 1.62073 -1.93688 L 1.62925 -1.95316 L 1.63815 -1.96923 L 1.65319 -1.99165 L 1.67009 -2.0127 L 1.68871 -2.03225 L 1.70893 -2.05013 L 1.7306 -2.06623 L 1.75356 -2.08043 L 1.77764 -2.09263 L 1.80268 -2.10273 L 1.82848 -2.11066 L 1.85487 -2.11636 L 1.88164 -2.1198 L 1.90862 -2.12095 L 1.93559 -2.1198 L 1.96236 -2.11636 L 1.98875 -2.11066 L 2.01455 -2.10273 L 2.03959 -2.09263 L 2.06367 -2.08043 L 2.08663 -2.06623 L 2.1083 -2.05013 L 2.12852 -2.03225 L 2.14714 -2.0127 L 2.16404 -1.99165 L 2.17908 -1.96923 L 2.1879 -1.95314 L 2.19634 -1.93684 L 2.20439 -1.92034 L 2.21204 -1.90365 L 2.21929 -1.88679 L 2.22613 -1.86976 L 2.23257 -1.85257 L 2.2386 -1.83523 L 2.24421 -1.81776 L 2.2494 -1.80015 L 2.25417 -1.78242 L 2.25852 -1.76459 L 2.26244 -1.74666 L 2.26593 -1.72864 L 2.26899 -1.71054 L 2.27161 -1.69237 L 2.27381 -1.67415 L 2.27556 -1.65588 L 2.27688 -1.63757 L 2.27777 -1.61924 L 2.27821 -1.60089 L 2.27822 -1.58253 L 2.27779 -1.56418 L 2.27692 -1.54585 L 2.2764 -1.49987 L 2.27496 -1.45957 L 2.27279 -1.42463 L 2.27006 -1.39474 L 2.26697 -1.36955 L 2.26369 -1.34877 L 2.26042 -1.33206 L 2.25732 -1.31911 L 2.2546 -1.3096 L 2.25242 -1.3032 L 2.25098 -1.29959 L 2.25046 -1.29846 Z M 2.10462 -1.38031 L 2.10589 -1.38713 L 2.10711 -1.39395 L 2.10827 -1.40079 L 2.10938 -1.40764 L 2.11042 -1.4145 L 2.11141 -1.42136 L 2.11235 -1.42824 L 2.11322 -1.43512 L 2.11404 -1.44201 L 2.1148 -1.4489 L 2.1155 -1.4558 L 2.11615 -1.46271 L 2.11673 -1.46962 L 2.11726 -1.47653 L 2.11774 -1.48345 L 2.11815 -1.49038 L 2.11851 -1.49731 L 2.11881 -1.50424 L 2.11905 -1.51117 L 2.11923 -1.5181 L 2.11936 -1.52504 L 2.11942 -1.53197 L 2.11943 -1.53891 L 2.11938 -1.54585 L 2.12005 -1.55826 L 2.12045 -1.57068 L 2.12057 -1.58312 L 2.12043 -1.59555 L 2.12001 -1.60797 L 2.11932 -1.62038 L 2.11836 -1.63278 L 2.11713 -1.64515 L 2.11563 -1.65749 L 2.11386 -1.66979 L 2.11183 -1.68206 L 2.10952 -1.69427 L 2.10695 -1.70644 L 2.10411 -1.71854 L 2.10101 -1.73058 L 2.09765 -1.74255 L 2.09403 -1.75444 L 2.09015 -1.76625 L 2.08601 -1.77797 L 2.08162 -1.7896 L 2.07697 -1.80113 L 2.07207 -1.81256 L 2.06693 -1.82388 L 2.06154 -1.83508 L 2.05407 -1.84926 L 2.04529 -1.86268 L 2.03529 -1.87521 L 2.02415 -1.88675 L 2.01197 -1.89718 L 1.99886 -1.90641 L 1.98494 -1.91437 L 1.97034 -1.92098 L 1.95517 -1.92619 L 1.93958 -1.92994 L 1.92371 -1.9322 L 1.90769 -1.93296 L 1.89168 -1.9322 L 1.8758 -1.92994 L 1.86021 -1.92619 L 1.84505 -1.92098 L 1.83044 -1.91437 L 1.81652 -1.90641 L 1.80341 -1.89718 L 1.79124 -1.88675 L 1.7801 -1.87521 L 1.77009 -1.86268 L 1.76132 -1.84926 L 1.75385 -1.83508 L 1.7483 -1.82394 L 1.743 -1.81269 L 1.73795 -1.80132 L 1.73314 -1.78985 L 1.72859 -1.77827 L 1.7243 -1.7666 L 1.72026 -1.75484 L 1.71648 -1.74299 L 1.71296 -1.73105 L 1.7097 -1.71905 L 1.70671 -1.70698 L 1.70398 -1.69484 L 1.70152 -1.68265 L 1.69933 -1.6704 L 1.69741 -1.65811 L 1.69575 -1.64579 L 1.69437 -1.63342 L 1.69326 -1.62104 L 1.69242 -1.60863 L 1.69185 -1.5962 L 1.69156 -1.58376 L 1.69153 -1.57133 L 1.69178 -1.55889 L 1.69231 -1.54646 L 1.69178 -1.53388 L 1.69153 -1.5213 L 1.69155 -1.50871 L 1.69185 -1.49613 L 1.69241 -1.48355 L 1.69325 -1.47099 L 1.69436 -1.45846 L 1.69574 -1.44594 L 1.69739 -1.43346 L 1.69932 -1.42102 L 1.70151 -1.40863 L 1.70397 -1.39628 L 1.70669 -1.384 L 1.70969 -1.37177 L 1.71294 -1.35961 L 1.71646 -1.34752 L 1.72024 -1.33552 L 1.72428 -1.3236 L 1.72858 -1.31176 L 1.73313 -1.30003 L 1.73793 -1.28839 L 1.74299 -1.27687 L 1.7483 -1.26545 L 1.75385 -1.25415 L 1.75743 -1.24728 L 1.76131 -1.24058 L 1.76549 -1.23405 L 1.76995 -1.22771 L 1.77469 -1.22158 L 1.77969 -1.21567 L 1.78496 -1.20998 L 1.79047 -1.20453 L 1.79621 -1.19933 L 1.80218 -1.19439 L 1.80837 -1.18972 L 1.81475 -1.18533 L 1.82132 -1.18123 L 1.82807 -1.17742 L 1.83498 -1.17391 L 1.84204 -1.17072 L 1.84924 -1.16784 L 1.85655 -1.16528 L 1.86397 -1.16305 L 1.87149 -1.16115 L 1.87907 -1.15958 L 1.88673 -1.15835 L 1.89442 -1.15747 L 1.90215 -1.15692 L 1.90767 -1.15688 L 1.91319 -1.15705 L 1.91869 -1.15742 L 1.92418 -1.15799 L 1.92965 -1.15877 L 1.93508 -1.15975 L 1.94047 -1.16094 L 1.94581 -1.16232 L 1.9511 -1.1639 L 1.95632 -1.16567 L 1.96148 -1.16764 L 1.96655 -1.1698 L 1.97155 -1.17215 L 1.97645 -1.17468 L 1.98126 -1.17739 L 1.98596 -1.18028 L 1.99055 -1.18334 L 1.99503 -1.18657 L 1.99938 -1.18997 L 2.0036 -1.19352 L 2.00768 -1.19723 L 2.01163 -1.20109 L 2.01543 -1.20509 L 2.01908 -1.20923 L 1.896 -1.29785 L 1.98954 -1.46154 L 2.10462 -1.38031 Z" />
</svg>