<svg version="1.1" xmlns="http://www.w3.org/2000/svg" viewBox="-9.759 -5 19.518 10" fill="black" stroke="none"><path fill-rule="evenodd" d="M 3.65 -2.248 L 4.818 -2.248 L 4.818 -1.08 L 5.401 -1.08 L 5.401 -2.248 L 6.569 -2.248 L 6.569 -2.832 L 5.401 -2.832 L 5.401 -4 L 4.818 -4 L 4.818 -2.832 L 3.65 -2.832 L 3.65 -2.248 Z M 0.818 4 L 1.401 4 L 1.401 0.701 L 8.759 0.701 L 8.759 0.117 L 1.401 0.117 L 1.401 -3.241 L 0.818 -3.241 L 0.818 4 Z M -8.759 0.668 L -1.401 0.668 L -1.401 4 L -0.818 4 L -0.818 -3.241 L -1.401 -3.241 L -1.401 0.084 L -8.759 0.084 L -8.759 0.668 Z" /></svg>