<svg version="1.1" xmlns="http://www.w3.org/2000/svg" viewBox="-7.956837954421077 -5.000000907242167 15.913675908842155 10.000001814484348" fill="black" stroke="none">
    <path fill-rule="evenodd" d="M -2.67227 3.17649 L -2.66679 3.09597 L -2.67425 2.98642 L -2.69597 2.88116 L -2.73096 2.78121 L -2.77821 2.68755 L -2.83674 2.60118 L -2.90554 2.52309 L -2.98362 2.45429 L -3.06999 2.39576 L -3.16365 2.34851 L -3.26361 2.31353 L -3.36886 2.2918 L -3.47842 2.28434 L -3.58797 2.2918 L -3.69323 2.31353 L -3.79318 2.34851 L -3.88684 2.39576 L -3.97321 2.45429 L -4.0513 2.52309 L -4.1201 2.60118 L -4.17863 2.68755 L -4.22588 2.78121 L -4.25685 2.8697 L -6.95684 2.8697 L -6.95684 3.33348 L -4.25292 3.33348 L -4.22588 3.41074 L -4.17863 3.5044 L -4.1201 3.59077 L -4.0513 3.66885 L -3.97321 3.73766 L -3.88684 3.79618 L -3.79318 3.84344 L -3.69323 3.87842 L -3.58797 3.90014 L -3.47842 3.9076 L -3.36886 3.90014 L -3.26361 3.87842 L -3.16365 3.84344 L -3.06999 3.79618 L -2.98362 3.73766 L -2.90554 3.66885 L -2.87205 3.63084 L 4.62648 4 L 4.64931 3.53694 L 4.17249 3.51346 L 4.17863 3.5044 L 4.22588 3.41074 L 4.25685 3.32225 L 6.95684 3.32225 L 6.95684 2.85846 L 4.25292 2.85846 L 4.22588 2.78121 L 4.17863 2.68755 L 4.1201 2.60118 L 4.0513 2.52309 L 3.97321 2.45429 L 3.88684 2.39576 L 3.79318 2.34851 L 3.69323 2.31353 L 3.58797 2.2918 L 3.47842 2.28434 L 3.36886 2.2918 L 3.26361 2.31353 L 3.16365 2.34851 L 3.06999 2.39576 L 2.98362 2.45429 L 2.90554 2.52309 L 2.83674 2.60118 L 2.77821 2.68755 L 2.73096 2.78121 L 2.69597 2.88116 L 2.67425 2.98642 L 2.66679 3.09597 L 2.67425 3.20553 L 2.69597 3.31078 L 2.73096 3.41074 L 2.74739 3.4433 L -2.67227 3.17649 Z M -3.47842 2.74813 L -3.43064 2.75125 L -3.38499 2.76037 L -3.34186 2.77508 L -3.30164 2.79501 L -3.26469 2.81977 L -3.23143 2.84898 L -3.20222 2.88225 L -3.17746 2.91919 L -3.15753 2.95942 L -3.14281 3.00255 L -3.1337 3.0482 L -3.13058 3.09597 L -3.1337 3.14375 L -3.14281 3.1894 L -3.15753 3.23253 L -3.17746 3.27276 L -3.20222 3.3097 L -3.23143 3.34297 L -3.26469 3.37217 L -3.30164 3.39694 L -3.34186 3.41687 L -3.38499 3.43158 L -3.43064 3.44069 L -3.47842 3.44382 L -3.5262 3.44069 L -3.57184 3.43158 L -3.61497 3.41687 L -3.6552 3.39694 L -3.69214 3.37217 L -3.72541 3.34297 L -3.75462 3.3097 L -3.77938 3.27276 L -3.79931 3.23253 L -3.81403 3.1894 L -3.82314 3.14375 L -3.82626 3.09597 L -3.82314 3.0482 L -3.81403 3.00255 L -3.79931 2.95942 L -3.77938 2.91919 L -3.75462 2.88225 L -3.72541 2.84898 L -3.69214 2.81977 L -3.6552 2.79501 L -3.61497 2.77508 L -3.57184 2.76037 L -3.5262 2.75125 L -3.47842 2.74813 Z M 3.47842 2.74813 L 3.5262 2.75125 L 3.57184 2.76037 L 3.61497 2.77508 L 3.6552 2.79501 L 3.69214 2.81977 L 3.72541 2.84898 L 3.75462 2.88225 L 3.77938 2.91919 L 3.79931 2.95942 L 3.81403 3.00255 L 3.82314 3.0482 L 3.82626 3.09597 L 3.82314 3.14375 L 3.81403 3.1894 L 3.79931 3.23253 L 3.77938 3.27276 L 3.75462 3.3097 L 3.72541 3.34297 L 3.69214 3.37217 L 3.6552 3.39694 L 3.61497 3.41687 L 3.57184 3.43158 L 3.5262 3.44069 L 3.47842 3.44382 L 3.43064 3.44069 L 3.38499 3.43158 L 3.34186 3.41687 L 3.30164 3.39694 L 3.26469 3.37217 L 3.23143 3.34297 L 3.20222 3.3097 L 3.17746 3.27276 L 3.15753 3.23253 L 3.14281 3.1894 L 3.1337 3.14375 L 3.13058 3.09597 L 3.1337 3.0482 L 3.14281 3.00255 L 3.15753 2.95942 L 3.17746 2.91919 L 3.20222 2.88225 L 3.23143 2.84898 L 3.26469 2.81977 L 3.30164 2.79501 L 3.34186 2.77508 L 3.38499 2.76037 L 3.43064 2.75125 L 3.47842 2.74813 Z M -6.95684 -4 L -6.95684 -3.53621 L -6.01078 -3.53621 L -6.00586 -3.48913 L -5.99984 -3.43936 L -5.99248 -3.38695 L -5.98358 -3.33196 L -5.97291 -3.27447 L -5.96026 -3.21452 L -5.9454 -3.15219 L -5.92811 -3.08752 L -5.90818 -3.02059 L -5.88539 -2.95146 L -5.85951 -2.88019 L -5.83034 -2.80683 L -5.7743 -2.68459 L -5.70707 -2.56259 L -5.62834 -2.44281 L -5.53777 -2.32722 L -5.43503 -2.21781 L -5.31979 -2.11657 L -5.19173 -2.02546 L -5.0505 -1.94648 L -4.8958 -1.8816 L -4.72728 -1.8328 L -4.54462 -1.80207 L -4.34748 -1.79139 L -4.1586 -1.80114 L -3.98326 -1.82926 L -3.8211 -1.87401 L -3.67179 -1.93366 L -3.535 -2.00648 L -3.41038 -2.09074 L -3.29759 -2.18471 L -3.19631 -2.28666 L -3.10619 -2.39485 L -3.02689 -2.50757 L -2.95807 -2.62306 L -2.89941 -2.73962 L -2.84084 -2.62241 L -2.77207 -2.50622 L -2.69276 -2.39279 L -2.60257 -2.28386 L -2.50116 -2.1812 L -2.38819 -2.08655 L -2.26333 -2.00166 L -2.12623 -1.92828 L -1.97657 -1.86816 L -1.814 -1.82305 L -1.63819 -1.7947 L -1.4488 -1.78486 L -1.25967 -1.79468 L -1.08411 -1.82296 L -0.92177 -1.86796 L -0.77232 -1.92794 L -0.63541 -2.00116 L -0.5107 -2.08587 L -0.39787 -2.18032 L -0.29656 -2.28278 L -0.20644 -2.39151 L -0.12717 -2.50475 L -0.05841 -2.62076 L 0.00018 -2.73781 L 0.05882 -2.62075 L 0.12764 -2.50473 L 0.20697 -2.39149 L 0.29716 -2.28277 L 0.39854 -2.18031 L 0.51145 -2.08585 L 0.63622 -2.00115 L 0.7732 -1.92793 L 0.92272 -1.86795 L 1.08511 -1.82295 L 1.26072 -1.79468 L 1.44988 -1.78486 L 1.63901 -1.79468 L 1.81457 -1.82296 L 1.97691 -1.86796 L 2.12636 -1.92794 L 2.26327 -2.00116 L 2.38798 -2.08587 L 2.50082 -2.18032 L 2.60213 -2.28278 L 2.69225 -2.39151 L 2.77152 -2.50475 L 2.84028 -2.62076 L 2.89886 -2.73781 L 2.9575 -2.62075 L 3.02632 -2.50473 L 3.10565 -2.39149 L 3.19584 -2.28277 L 3.29722 -2.18031 L 3.41013 -2.08585 L 3.53491 -2.00115 L 3.67188 -1.92793 L 3.8214 -1.86795 L 3.9838 -1.82295 L 4.15941 -1.79468 L 4.34857 -1.78486 L 4.54563 -1.79551 L 4.72822 -1.82615 L 4.89667 -1.8748 L 5.0513 -1.93949 L 5.19246 -2.01823 L 5.32046 -2.10907 L 5.43563 -2.21002 L 5.53832 -2.31912 L 5.62883 -2.43438 L 5.70752 -2.55383 L 5.7747 -2.6755 L 5.8307 -2.79741 L 5.85979 -2.87041 L 5.8856 -2.94135 L 5.90835 -3.01017 L 5.92825 -3.07682 L 5.94553 -3.14123 L 5.96038 -3.20333 L 5.97304 -3.26306 L 5.98372 -3.32037 L 5.99264 -3.37519 L 6 -3.42745 L 6.00604 -3.4771 L 6.01096 -3.52407 L 6.95684 -3.52407 L 6.95684 -3.98786 L 5.79736 -3.98786 L 5.7822 -3.98736 L 5.7671 -3.98588 L 5.75213 -3.9834 L 5.73735 -3.97996 L 5.72283 -3.97555 L 5.70863 -3.9702 L 5.6948 -3.96394 L 5.68142 -3.95679 L 5.66854 -3.94877 L 5.6562 -3.93993 L 5.64447 -3.93031 L 5.6334 -3.91993 L 5.62302 -3.90886 L 5.6134 -3.89713 L 5.60456 -3.8848 L 5.59654 -3.87191 L 5.58939 -3.85853 L 5.58313 -3.84471 L 5.57778 -3.8305 L 5.57338 -3.81598 L 5.56993 -3.80121 L 5.56746 -3.78623 L 5.56597 -3.77113 L 5.56547 -3.75597 L 5.56532 -3.74795 L 5.56451 -3.72483 L 5.5625 -3.68803 L 5.55877 -3.63898 L 5.55278 -3.57908 L 5.54399 -3.50977 L 5.53187 -3.43245 L 5.51588 -3.34855 L 5.4955 -3.25949 L 5.47018 -3.16668 L 5.43939 -3.07154 L 5.4026 -2.9755 L 5.36035 -2.88051 L 5.31291 -2.78829 L 5.25935 -2.69989 L 5.19875 -2.61634 L 5.13018 -2.53871 L 5.05269 -2.46804 L 4.96537 -2.40536 L 4.86727 -2.35174 L 4.75747 -2.30821 L 4.63504 -2.27582 L 4.49905 -2.25562 L 4.34857 -2.24865 L 4.19807 -2.25562 L 4.06206 -2.27583 L 3.93961 -2.30823 L 3.82977 -2.35178 L 3.73163 -2.40542 L 3.64425 -2.46812 L 3.56671 -2.53881 L 3.49807 -2.61647 L 3.43741 -2.70003 L 3.3838 -2.78845 L 3.3363 -2.88068 L 3.29399 -2.97568 L 3.25714 -3.07172 L 3.22629 -3.16686 L 3.20091 -3.25965 L 3.18047 -3.3487 L 3.16442 -3.43258 L 3.15224 -3.50987 L 3.1434 -3.57916 L 3.13736 -3.63903 L 3.1336 -3.68807 L 3.13156 -3.72484 L 3.13073 -3.74795 L 3.13058 -3.75597 L 3.13058 -3.75597 L 3.13058 -3.75598 L 3.13058 -3.756 L 3.13058 -3.75602 L 3.13058 -3.75604 L 3.13058 -3.75606 L 3.13058 -3.75608 L 3.13058 -3.7561 L 3.13058 -3.75612 L 3.13058 -3.75614 L 3.13058 -3.75615 L 3.13058 -3.75615 L 3.12819 -3.78612 L 3.12195 -3.81553 L 3.11196 -3.84388 L 3.09838 -3.87071 L 3.08145 -3.89555 L 3.06144 -3.91799 L 3.03871 -3.93766 L 3.01361 -3.95422 L 2.98659 -3.96739 L 2.95809 -3.97696 L 2.92859 -3.98276 L 2.89859 -3.9847 L 2.86859 -3.98274 L 2.8391 -3.97691 L 2.8106 -3.96732 L 2.78359 -3.95413 L 2.75851 -3.93755 L 2.73579 -3.91786 L 2.7158 -3.8954 L 2.69889 -3.87055 L 2.68534 -3.84371 L 2.67537 -3.81535 L 2.66915 -3.78594 L 2.66679 -3.75597 L 2.66664 -3.74795 L 2.66583 -3.72483 L 2.66382 -3.68803 L 2.66009 -3.63898 L 2.6541 -3.57908 L 2.64531 -3.50977 L 2.63319 -3.43245 L 2.6172 -3.34855 L 2.59682 -3.25949 L 2.5715 -3.16668 L 2.54071 -3.07154 L 2.50392 -2.9755 L 2.46166 -2.88051 L 2.41423 -2.78829 L 2.36067 -2.69989 L 2.30007 -2.61634 L 2.23149 -2.53871 L 2.15401 -2.46804 L 2.06668 -2.40536 L 1.96859 -2.35174 L 1.85879 -2.30821 L 1.73636 -2.27582 L 1.60037 -2.25562 L 1.44988 -2.24865 L 1.29939 -2.25562 L 1.16338 -2.27583 L 1.04092 -2.30823 L 0.93109 -2.35178 L 0.83295 -2.40542 L 0.74557 -2.46812 L 0.66803 -2.53881 L 0.59939 -2.61647 L 0.53873 -2.70003 L 0.48512 -2.78845 L 0.43762 -2.88068 L 0.39531 -2.97568 L 0.35846 -3.07172 L 0.32761 -3.16686 L 0.30223 -3.25965 L 0.28178 -3.3487 L 0.26574 -3.43258 L 0.25356 -3.50987 L 0.24472 -3.57916 L 0.23868 -3.63903 L 0.23491 -3.68807 L 0.23288 -3.72484 L 0.23205 -3.74795 L 0.23189 -3.75597 L 0.23189 -3.75597 L 0.23189 -3.75598 L 0.23189 -3.756 L 0.23189 -3.75602 L 0.23189 -3.75604 L 0.23189 -3.75606 L 0.23189 -3.75608 L 0.23189 -3.7561 L 0.23189 -3.75612 L 0.23189 -3.75614 L 0.23189 -3.75615 L 0.23189 -3.75615 L 0.22951 -3.78612 L 0.22327 -3.81553 L 0.21328 -3.84388 L 0.1997 -3.87071 L 0.18277 -3.89555 L 0.16276 -3.91799 L 0.14002 -3.93766 L 0.11493 -3.95422 L 0.08791 -3.96739 L 0.05941 -3.97696 L 0.02991 -3.98276 L -0.00009 -3.9847 L -0.03009 -3.98274 L -0.05959 -3.97691 L -0.08808 -3.96732 L -0.11509 -3.95413 L -0.14017 -3.93755 L -0.16289 -3.91786 L -0.18288 -3.8954 L -0.19979 -3.87055 L -0.21335 -3.84371 L -0.22332 -3.81535 L -0.22953 -3.78594 L -0.23189 -3.75597 L -0.23205 -3.74795 L -0.23286 -3.72483 L -0.23486 -3.68803 L -0.23859 -3.63898 L -0.24458 -3.57908 L -0.25337 -3.50977 L -0.26549 -3.43245 L -0.28148 -3.34855 L -0.30186 -3.25949 L -0.32718 -3.16668 L -0.35797 -3.07154 L -0.39476 -2.9755 L -0.43702 -2.88051 L -0.48446 -2.78829 L -0.53801 -2.69989 L -0.59861 -2.61634 L -0.66719 -2.53871 L -0.74467 -2.46804 L -0.832 -2.40536 L -0.93009 -2.35174 L -1.03989 -2.30821 L -1.16232 -2.27582 L -1.29831 -2.25562 L -1.4488 -2.24865 L -1.59929 -2.25562 L -1.7353 -2.27583 L -1.85776 -2.30823 L -1.96759 -2.35178 L -2.06573 -2.40542 L -2.15311 -2.46812 L -2.23065 -2.53881 L -2.29929 -2.61647 L -2.35995 -2.70003 L -2.41357 -2.78845 L -2.46106 -2.88068 L -2.50337 -2.97568 L -2.54022 -3.07172 L -2.57107 -3.16686 L -2.59645 -3.25965 L -2.6169 -3.3487 L -2.63294 -3.43258 L -2.64512 -3.50987 L -2.65396 -3.57916 L -2.66 -3.63903 L -2.66377 -3.68807 L -2.6658 -3.72484 L -2.66663 -3.74795 L -2.66679 -3.75597 L -2.66679 -3.75597 L -2.66679 -3.75598 L -2.66679 -3.756 L -2.66679 -3.75602 L -2.66679 -3.75604 L -2.66679 -3.75606 L -2.66679 -3.75608 L -2.66679 -3.7561 L -2.66679 -3.75612 L -2.66679 -3.75614 L -2.66679 -3.75615 L -2.66679 -3.75615 L -2.66917 -3.78612 L -2.67541 -3.81553 L -2.68541 -3.84388 L -2.69898 -3.87071 L -2.71592 -3.89555 L -2.73592 -3.91799 L -2.75866 -3.93766 L -2.78375 -3.95422 L -2.81077 -3.96739 L -2.83927 -3.97696 L -2.86877 -3.98276 L -2.89877 -3.9847 L -2.92877 -3.98274 L -2.95827 -3.97691 L -2.98676 -3.96732 L -3.01377 -3.95413 L -3.03885 -3.93755 L -3.06157 -3.91786 L -3.08156 -3.8954 L -3.09847 -3.87055 L -3.11203 -3.84371 L -3.122 -3.81535 L -3.12822 -3.78594 L -3.13058 -3.75597 L -3.13073 -3.74798 L -3.13155 -3.72498 L -3.13356 -3.68836 L -3.1373 -3.63953 L -3.1433 -3.57992 L -3.1521 -3.51093 L -3.16423 -3.43398 L -3.18021 -3.35047 L -3.2006 -3.26182 L -3.22591 -3.16943 L -3.25668 -3.07473 L -3.29345 -2.97912 L -3.33567 -2.88455 L -3.38307 -2.79273 L -3.43659 -2.70469 L -3.49716 -2.62149 L -3.56571 -2.54416 L -3.64318 -2.47376 L -3.7305 -2.41132 L -3.8286 -2.35789 L -3.93841 -2.31452 L -4.06087 -2.28225 L -4.19692 -2.26212 L -4.34748 -2.25517 L -4.49791 -2.26217 L -4.63387 -2.28244 L -4.7563 -2.31494 L -4.86612 -2.35863 L -4.96426 -2.41245 L -5.05164 -2.47535 L -5.1292 -2.54629 L -5.19786 -2.62421 L -5.25855 -2.70806 L -5.31219 -2.7968 L -5.35972 -2.88938 L -5.40206 -2.98474 L -5.43893 -3.08115 L -5.46979 -3.17666 L -5.49518 -3.26982 L -5.51563 -3.35921 L -5.53167 -3.44342 L -5.54384 -3.52102 L -5.55268 -3.59059 L -5.55871 -3.6507 L -5.56247 -3.69993 L -5.56449 -3.73686 L -5.56531 -3.76006 L -5.56547 -3.76811 L -5.56597 -3.78327 L -5.56746 -3.79837 L -5.56993 -3.81334 L -5.57338 -3.82812 L -5.57778 -3.84264 L -5.58313 -3.85684 L -5.58939 -3.87067 L -5.59654 -3.88405 L -5.60456 -3.89693 L -5.6134 -3.90927 L -5.62302 -3.921 L -5.6334 -3.93207 L -5.64447 -3.94245 L -5.6562 -3.95207 L -5.66854 -3.96091 L -5.68142 -3.96892 L -5.6948 -3.97608 L -5.70863 -3.98234 L -5.72283 -3.98769 L -5.73735 -3.99209 L -5.75213 -3.99554 L -5.7671 -3.99801 L -5.7822 -3.9995 L -5.79736 -4 L -6.95684 -4 Z M -5.79736 -1.10132 L -5.79736 -0.63753 L 5.79736 -0.63753 L 5.79736 -1.10132 L -5.79736 -1.10132 Z" />
</svg>