<svg version="1.1" xmlns="http://www.w3.org/2000/svg" viewBox="-7.4948527150662665 -5.00000091340197 14.989705430132533 10.000001826803954" fill="black" stroke="none">
    <path d="M -0.2165 1.17423 L -0.2165 1.39073 L 0.2165 1.39073 L 0.2165 1.17423 L -0.2165 1.17423 Z" />
    <path fill-rule="evenodd" d="M -3.97446 3.45267 L -3.94525 3.53613 L -3.90114 3.62357 L -3.8465 3.7042 L -3.78226 3.7771 L -3.70936 3.84134 L -3.62873 3.89598 L -3.54129 3.94009 L -3.44797 3.97275 L -3.34971 3.99303 L -3.24743 4 L -3.14514 3.99303 L -3.04688 3.97275 L -2.95356 3.94009 L -2.86612 3.89598 L -2.78549 3.84134 L -2.71259 3.7771 L -2.64836 3.7042 L -2.59372 3.62357 L -2.5496 3.53613 L -2.51694 3.44281 L -2.49666 3.34455 L -2.48969 3.24227 L -2.49666 3.13999 L -2.51694 3.04172 L -2.5496 2.94841 L -2.59372 2.86096 L -2.64836 2.78033 L -2.71259 2.70743 L -2.78549 2.6432 L -2.86612 2.58856 L -2.95356 2.54444 L -3.04688 2.51178 L -3.14514 2.4915 L -3.24743 2.48453 L -3.34971 2.4915 L -3.44797 2.51178 L -3.54129 2.54444 L -3.62873 2.58856 L -3.70936 2.6432 L -3.78226 2.70743 L -3.8465 2.78033 L -3.90114 2.86096 L -3.94525 2.94841 L -3.9702 3.01968 L -6.49485 3.01968 L -6.49485 3.45267 L -3.97446 3.45267 Z M -3.24743 2.91752 L -3.20282 2.92044 L -3.16021 2.92895 L -3.11994 2.94268 L -3.08238 2.96129 L -3.04789 2.98441 L -3.01684 3.01168 L -2.98957 3.04274 L -2.96645 3.07722 L -2.94784 3.11478 L -2.93411 3.15505 L -2.9256 3.19766 L -2.92268 3.24227 L -2.9256 3.28687 L -2.93411 3.32949 L -2.94784 3.36975 L -2.96645 3.40731 L -2.98957 3.4418 L -3.01684 3.47286 L -3.04789 3.50012 L -3.08238 3.52324 L -3.11994 3.54185 L -3.16021 3.55559 L -3.20282 3.56409 L -3.24743 3.56701 L -3.29203 3.56409 L -3.33465 3.55559 L -3.37491 3.54185 L -3.41247 3.52324 L -3.44696 3.50012 L -3.47802 3.47286 L -3.50528 3.4418 L -3.5284 3.40731 L -3.54701 3.36975 L -3.56075 3.32949 L -3.56925 3.28687 L -3.57217 3.24227 L -3.56925 3.19766 L -3.56075 3.15505 L -3.54701 3.11478 L -3.5284 3.07722 L -3.50528 3.04274 L -3.47802 3.01168 L -3.44696 2.98441 L -3.41247 2.96129 L -3.37491 2.94268 L -3.33465 2.92895 L -3.29203 2.92044 L -3.24743 2.91752 Z" />
    <path fill-rule="evenodd" d="M -3.97446 -2.99888 L -3.94525 -2.91542 L -3.90114 -2.82798 L -3.8465 -2.74735 L -3.78226 -2.67445 L -3.70936 -2.61022 L -3.62873 -2.55558 L -3.54129 -2.51146 L -3.44797 -2.4788 L -3.34971 -2.45852 L -3.24743 -2.45155 L -3.14514 -2.45852 L -3.04688 -2.4788 L -2.95356 -2.51146 L -2.86612 -2.55558 L -2.78549 -2.61022 L -2.71259 -2.67445 L -2.64836 -2.74735 L -2.59372 -2.82798 L -2.5496 -2.91542 L -2.51694 -3.00874 L -2.49666 -3.107 L -2.48969 -3.20929 L -2.49666 -3.31157 L -2.51694 -3.40983 L -2.5496 -3.50315 L -2.59372 -3.59059 L -2.64836 -3.67122 L -2.71259 -3.74412 L -2.78549 -3.80836 L -2.86612 -3.863 L -2.95356 -3.90711 L -3.04688 -3.93977 L -3.14514 -3.96005 L -3.24743 -3.96702 L -3.34971 -3.96005 L -3.44797 -3.93977 L -3.54129 -3.90711 L -3.62873 -3.863 L -3.70936 -3.80836 L -3.78226 -3.74412 L -3.8465 -3.67122 L -3.90114 -3.59059 L -3.94525 -3.50315 L -3.9702 -3.43187 L -6.49485 -3.43187 L -6.49485 -2.99888 L -3.97446 -2.99888 Z M -3.24743 -3.53403 L -3.20282 -3.53111 L -3.16021 -3.52261 L -3.11994 -3.50887 L -3.08238 -3.49026 L -3.04789 -3.46714 L -3.01684 -3.43987 L -2.98957 -3.40882 L -2.96645 -3.37433 L -2.94784 -3.33677 L -2.93411 -3.29651 L -2.9256 -3.25389 L -2.92268 -3.20929 L -2.9256 -3.16468 L -2.93411 -3.12207 L -2.94784 -3.0818 L -2.96645 -3.04424 L -2.98957 -3.00975 L -3.01684 -2.9787 L -3.04789 -2.95143 L -3.08238 -2.92831 L -3.11994 -2.9097 L -3.16021 -2.89597 L -3.20282 -2.88746 L -3.24743 -2.88454 L -3.29203 -2.88746 L -3.33465 -2.89597 L -3.37491 -2.9097 L -3.41247 -2.92831 L -3.44696 -2.95143 L -3.47802 -2.9787 L -3.50528 -3.00975 L -3.5284 -3.04424 L -3.54701 -3.0818 L -3.56075 -3.12207 L -3.56925 -3.16468 L -3.57217 -3.20929 L -3.56925 -3.25389 L -3.56075 -3.29651 L -3.54701 -3.33677 L -3.5284 -3.37433 L -3.50528 -3.40882 L -3.47802 -3.43987 L -3.44696 -3.46714 L -3.41247 -3.49026 L -3.37491 -3.50887 L -3.33465 -3.52261 L -3.29203 -3.53111 L -3.24743 -3.53403 Z" />
    <path fill-rule="evenodd" d="M 3.97055 -2.98772 L 6.49485 -2.98772 L 6.49485 -3.42071 L 3.97411 -3.42071 L 3.94525 -3.50315 L 3.90114 -3.59059 L 3.8465 -3.67122 L 3.78226 -3.74412 L 3.70936 -3.80836 L 3.62873 -3.863 L 3.54129 -3.90711 L 3.44797 -3.93977 L 3.34971 -3.96005 L 3.24743 -3.96702 L 3.14514 -3.96005 L 3.04688 -3.93977 L 2.95356 -3.90711 L 2.86612 -3.863 L 2.78549 -3.80836 L 2.71259 -3.74412 L 2.64836 -3.67122 L 2.59372 -3.59059 L 2.5496 -3.50315 L 2.51694 -3.40983 L 2.49666 -3.31157 L 2.48969 -3.20929 L 2.49666 -3.107 L 2.51694 -3.00874 L 2.5496 -2.91542 L 2.59372 -2.82798 L 2.64836 -2.74735 L 2.71259 -2.67445 L 2.78549 -2.61022 L 2.86612 -2.55558 L 2.95356 -2.51146 L 3.04688 -2.4788 L 3.14514 -2.45852 L 3.24743 -2.45155 L 3.34971 -2.45852 L 3.44797 -2.4788 L 3.54129 -2.51146 L 3.62873 -2.55558 L 3.70936 -2.61022 L 3.78226 -2.67445 L 3.8465 -2.74735 L 3.90114 -2.82798 L 3.94525 -2.91542 L 3.97055 -2.98772 Z M 3.24743 -3.53403 L 3.29203 -3.53111 L 3.33465 -3.52261 L 3.37491 -3.50887 L 3.41247 -3.49026 L 3.44696 -3.46714 L 3.47802 -3.43987 L 3.50528 -3.40882 L 3.5284 -3.37433 L 3.54701 -3.33677 L 3.56075 -3.29651 L 3.56925 -3.25389 L 3.57217 -3.20929 L 3.56925 -3.16468 L 3.56075 -3.12207 L 3.54701 -3.0818 L 3.5284 -3.04424 L 3.50528 -3.00975 L 3.47802 -2.9787 L 3.44696 -2.95143 L 3.41247 -2.92831 L 3.37491 -2.9097 L 3.33465 -2.89597 L 3.29203 -2.88746 L 3.24743 -2.88454 L 3.20282 -2.88746 L 3.16021 -2.89597 L 3.11994 -2.9097 L 3.08238 -2.92831 L 3.04789 -2.95143 L 3.01684 -2.9787 L 2.98957 -3.00975 L 2.96645 -3.04424 L 2.94784 -3.0818 L 2.93411 -3.12207 L 2.9256 -3.16468 L 2.92268 -3.20929 L 2.9256 -3.25389 L 2.93411 -3.29651 L 2.94784 -3.33677 L 2.96645 -3.37433 L 2.98957 -3.40882 L 3.01684 -3.43987 L 3.04789 -3.46714 L 3.08238 -3.49026 L 3.11994 -3.50887 L 3.16021 -3.52261 L 3.20282 -3.53111 L 3.24743 -3.53403 Z" />
    <path fill-rule="evenodd" d="M 3.97055 3.46384 L 6.49485 3.46384 L 6.49485 3.03085 L 3.97411 3.03085 L 3.94525 2.94841 L 3.90114 2.86096 L 3.8465 2.78033 L 3.78226 2.70743 L 3.70936 2.6432 L 3.62873 2.58856 L 3.54129 2.54444 L 3.44797 2.51178 L 3.34971 2.4915 L 3.24743 2.48453 L 3.14514 2.4915 L 3.04688 2.51178 L 2.95356 2.54444 L 2.86612 2.58856 L 2.78549 2.6432 L 2.71259 2.70743 L 2.64836 2.78033 L 2.59372 2.86096 L 2.5496 2.94841 L 2.51694 3.04172 L 2.49666 3.13999 L 2.48969 3.24227 L 2.49666 3.34455 L 2.51694 3.44281 L 2.5496 3.53613 L 2.59372 3.62357 L 2.64836 3.7042 L 2.71259 3.7771 L 2.78549 3.84134 L 2.86612 3.89598 L 2.95356 3.94009 L 3.04688 3.97275 L 3.14514 3.99303 L 3.24743 4 L 3.34971 3.99303 L 3.44797 3.97275 L 3.54129 3.94009 L 3.62873 3.89598 L 3.70936 3.84134 L 3.78226 3.7771 L 3.8465 3.7042 L 3.90114 3.62357 L 3.94525 3.53613 L 3.97055 3.46384 Z M 3.24743 2.91752 L 3.29203 2.92044 L 3.33465 2.92895 L 3.37491 2.94268 L 3.41247 2.96129 L 3.44696 2.98441 L 3.47802 3.01168 L 3.50528 3.04274 L 3.5284 3.07722 L 3.54701 3.11478 L 3.56075 3.15505 L 3.56925 3.19766 L 3.57217 3.24227 L 3.56925 3.28687 L 3.56075 3.32949 L 3.54701 3.36975 L 3.5284 3.40731 L 3.50528 3.4418 L 3.47802 3.47286 L 3.44696 3.50012 L 3.41247 3.52324 L 3.37491 3.54185 L 3.33465 3.55559 L 3.29203 3.56409 L 3.24743 3.56701 L 3.20282 3.56409 L 3.16021 3.55559 L 3.11994 3.54185 L 3.08238 3.52324 L 3.04789 3.50012 L 3.01684 3.47286 L 2.98957 3.4418 L 2.96645 3.40731 L 2.94784 3.36975 L 2.93411 3.32949 L 2.9256 3.28687 L 2.92268 3.24227 L 2.9256 3.19766 L 2.93411 3.15505 L 2.94784 3.11478 L 2.96645 3.07722 L 2.98957 3.04274 L 3.01684 3.01168 L 3.04789 2.98441 L 3.08238 2.96129 L 3.11994 2.94268 L 3.16021 2.92895 L 3.20282 2.92044 L 3.24743 2.91752 Z" />
    <path d="M -0.2165 -4 L -0.2165 -3.7835 L 0.2165 -3.7835 L 0.2165 -4 L -0.2165 -4 Z" />
    <path d="M -0.2165 0.26935 L -0.2165 0.71959 L 0.2165 0.71959 L 0.2165 0.26935 L -0.2165 0.26935 Z" />
    <path d="M -0.2165 -0.6313 L -0.2165 -0.18106 L 0.2165 -0.18106 L 0.2165 -0.6313 L -0.2165 -0.6313 Z" />
    <path d="M -0.2165 -1.53196 L -0.2165 -1.08171 L 0.2165 -1.08171 L 0.2165 -1.53196 L -0.2165 -1.53196 Z" />
    <path d="M -0.2165 -3.33326 L -0.2165 -2.88285 L 0.2165 -2.88285 L 0.2165 -3.33326 L -0.2165 -3.33326 Z" />
    <path d="M -0.2165 -2.43261 L -0.2165 -1.9822 L 0.2165 -1.9822 L 0.2165 -2.43261 L -0.2165 -2.43261 Z" />
</svg>