<svg version="1.1" xmlns="http://www.w3.org/2000/svg" viewBox="-8.5 -5 17 10" fill="black" stroke="none"><path fill-rule="evenodd" d="M -4.779 2.756 L -4.124 2.756 L -4.184 2.877 L -4.242 2.991 L -4.298 3.098 L -4.35 3.197 L -4.399 3.288 L -4.444 3.369 L -4.484 3.44 L -4.518 3.499 L -4.545 3.547 L -4.566 3.582 L -4.579 3.604 L -4.583 3.611 L -4.842 4 L -1.875 4 L -0.99 3.934 L -0.18 3.75 L 0.555 3.469 L 1.215 3.115 L 1.802 2.709 L 2.315 2.273 L 2.756 1.828 L 3.125 1.397 L 3.422 1.002 L 3.648 0.664 L 3.805 0.406 L 3.891 0.25 L 7.5 0.25 L 7.5 -0.25 L 3.891 -0.25 L 3.805 -0.406 L 3.648 -0.664 L 3.422 -1.002 L 3.125 -1.397 L 2.756 -1.828 L 2.315 -2.273 L 1.802 -2.709 L 1.215 -3.115 L 0.555 -3.469 L -0.18 -3.75 L -0.99 -3.934 L -1.875 -4 L -4.842 -4 L -4.583 -3.611 L -4.579 -3.604 L -4.566 -3.583 L -4.546 -3.548 L -4.519 -3.501 L -4.485 -3.442 L -4.446 -3.372 L -4.402 -3.292 L -4.354 -3.203 L -4.302 -3.105 L -4.247 -3 L -4.19 -2.888 L -4.13 -2.769 L -4.819 -2.769 L -4.93 -3.009 L -5.081 -3.307 L -5.214 -3.55 L -5.32 -3.732 L -5.39 -3.847 L -5.415 -3.886 L -5.835 -3.614 L -5.811 -3.575 L -5.745 -3.465 L -5.646 -3.289 L -5.521 -3.056 L -5.38 -2.772 L -5.378 -2.769 L -7.5 -2.769 L -7.5 -2.269 L -5.158 -2.269 L -5.08 -2.078 L -4.939 -1.684 L -4.814 -1.267 L -4.715 -0.834 L -4.649 -0.393 L -4.625 0.05 L -4.649 0.492 L -4.714 0.93 L -4.814 1.358 L -4.938 1.77 L -5.079 2.159 L -5.12 2.256 M -4.608 -2.269 L -3.899 -2.269 L -3.831 -2.102 L -3.766 -1.929 L -3.702 -1.751 L -3.642 -1.568 L -3.586 -1.381 L -3.535 -1.19 L -3.489 -0.996 L -3.45 -0.799 L -3.419 -0.601 L -3.395 -0.401 L -3.38 -0.201 L -3.375 0 L -3.38 0.199 L -3.395 0.399 L -3.418 0.597 L -3.449 0.794 L -3.488 0.989 L -3.533 1.182 L -3.584 1.372 L -3.639 1.558 L -3.699 1.74 L -3.761 1.918 L -3.827 2.09 L -3.894 2.256 L -4.574 2.256 M -5.34 2.756 L -5.379 2.839 L -5.52 3.117 L -5.644 3.345 L -5.744 3.516 L -5.809 3.624 L -5.833 3.661 L -5.417 3.939 L -5.392 3.9 L -5.321 3.789 L -5.215 3.61 L -5.082 3.372 L -4.931 3.079 L -4.779 2.756 M -3.934 3.5 L -3.835 3.322 L -3.727 3.116 L -3.612 2.884 L -3.495 2.627 L -3.378 2.349 L -3.266 2.052 L -3.161 1.738 L -3.067 1.41 L -2.988 1.069 L -2.928 0.719 L -2.889 0.362 L -2.875 0 L -2.889 -0.362 L -2.928 -0.719 L -2.988 -1.069 L -3.067 -1.41 L -3.161 -1.738 L -3.266 -2.052 L -3.378 -2.349 L -3.495 -2.627 L -3.612 -2.884 L -3.727 -3.116 L -3.835 -3.322 L -3.934 -3.5 L -1.875 -3.5 L -1.058 -3.437 L -0.309 -3.263 L 0.371 -2.999 L 0.984 -2.664 L 1.528 -2.282 L 2.005 -1.871 L 2.415 -1.454 L 2.757 -1.051 L 3.032 -0.683 L 3.241 -0.371 L 3.383 -0.137 L 3.459 0 L 3.383 0.137 L 3.241 0.371 L 3.032 0.683 L 2.757 1.051 L 2.415 1.454 L 2.005 1.871 L 1.528 2.282 L 0.984 2.664 L 0.371 2.999 L -0.309 3.263 L -1.058 3.437 L -1.875 3.5 L -3.934 3.5 Z M -4.574 2.256 L -4.46 1.941 L -4.327 1.495 L -4.221 1.028 L -4.15 0.544 L -4.125 0.05 L -4.15 -0.445 L -4.221 -0.931 L -4.327 -1.403 L -4.46 -1.853 L -4.608 -2.269 M -5.12 2.256 L -7.5 2.256 L -7.5 2.756 L -5.34 2.756" /></svg>