<svg version="1.1" xmlns="http://www.w3.org/2000/svg" viewBox="-8.848949452174939 -5.000000895347362 17.697898904349877 10.000001790694709" fill="black" stroke="none">
    <path d="M 4.1489 -4 L 3.70004 -3.7306 L 4.56997 -2.28059 L 1.25583 -0.33614 L 1.25583 -2.53098 L 0.73257 -2.53098 L 0.73257 -0.02892 L -0.73257 0.83058 L -0.73257 -2.53098 L -1.25583 -2.53098 L -1.25583 0.44856 L -7.84895 0.44856 L -7.84895 0.97182 L -1.25583 0.97182 L -1.25583 1.13759 L -5.36508 3.54869 L -5.10018 4 L -1.25583 1.74445 L -1.25583 3.95748 L -0.73257 3.95748 L -0.73257 1.43744 L 0.73257 0.57774 L 0.73257 3.95748 L 1.25583 3.95748 L 1.25583 1.00105 L 7.84895 1.00105 L 7.84895 0.47778 L 1.25583 0.47778 L 1.25583 0.27073 L 4.83937 -1.83193 L 5.66228 -0.46021 L 6.11114 -0.7296 L 4.1489 -4 Z" />
</svg>