<svg version="1.1" xmlns="http://www.w3.org/2000/svg" viewBox="-8.792 -5 17.584 10" fill="black" stroke="none"><path d="M 3.556 -2.447 L 4.178 -1.619 L 5.195 -4 L 2.623 -3.69 L 3.245 -2.862 L -0.195 -0.282 L -0.231 -0.334 L -0.332 -0.455 L -0.445 -0.57 L -0.572 -0.676 L -0.712 -0.771 L -0.865 -0.853 L -1.032 -0.92 L -1.214 -0.97 L -1.411 -1.002 L -1.623 -1.013 L -1.835 -1.002 L -2.032 -0.97 L -2.214 -0.92 L -2.381 -0.852 L -2.535 -0.77 L -2.675 -0.675 L -2.801 -0.569 L -2.915 -0.454 L -3.016 -0.332 L -3.105 -0.205 L -3.182 -0.075 L -3.247 0.056 L -3.313 -0.075 L -3.39 -0.204 L -3.479 -0.33 L -3.58 -0.452 L -3.693 -0.566 L -3.82 -0.671 L -3.959 -0.766 L -4.113 -0.847 L -4.28 -0.914 L -4.461 -0.964 L -4.658 -0.996 L -4.87 -1.007 L -5.09 -0.995 L -5.295 -0.96 L -5.484 -0.906 L -5.657 -0.833 L -5.815 -0.744 L -5.959 -0.642 L -6.088 -0.529 L -6.203 -0.406 L -6.304 -0.277 L -6.392 -0.143 L -6.468 -0.006 L -6.53 0.131 L -6.563 0.213 L -6.592 0.293 L -6.618 0.371 L -6.64 0.446 L -6.659 0.518 L -6.676 0.588 L -6.69 0.655 L -6.702 0.72 L -6.712 0.781 L -6.72 0.84 L -6.727 0.896 L -6.733 0.949 L -7.792 0.949 L -7.792 1.468 L -6.494 1.468 L -6.477 1.468 L -6.46 1.466 L -6.443 1.463 L -6.426 1.459 L -6.41 1.454 L -6.394 1.448 L -6.379 1.441 L -6.364 1.433 L -6.349 1.424 L -6.335 1.414 L -6.322 1.404 L -6.31 1.392 L -6.298 1.38 L -6.287 1.367 L -6.278 1.353 L -6.269 1.338 L -6.261 1.323 L -6.254 1.308 L -6.248 1.292 L -6.243 1.276 L -6.239 1.259 L -6.236 1.242 L -6.234 1.225 L -6.234 1.208 L -6.234 1.199 L -6.233 1.173 L -6.23 1.132 L -6.226 1.077 L -6.219 1.009 L -6.21 0.931 L -6.196 0.844 L -6.178 0.75 L -6.155 0.65 L -6.127 0.545 L -6.092 0.438 L -6.051 0.33 L -6.003 0.223 L -5.95 0.12 L -5.89 0.02 L -5.822 -0.074 L -5.745 -0.161 L -5.658 -0.24 L -5.56 -0.311 L -5.45 -0.371 L -5.327 -0.42 L -5.19 -0.457 L -5.038 -0.479 L -4.87 -0.487 L -4.701 -0.479 L -4.549 -0.457 L -4.411 -0.421 L -4.288 -0.372 L -4.178 -0.312 L -4.081 -0.242 L -3.994 -0.163 L -3.917 -0.077 L -3.849 0.017 L -3.789 0.115 L -3.736 0.218 L -3.689 0.324 L -3.648 0.431 L -3.613 0.537 L -3.585 0.641 L -3.562 0.74 L -3.544 0.834 L -3.531 0.92 L -3.521 0.997 L -3.514 1.064 L -3.51 1.119 L -3.508 1.16 L -3.507 1.186 L -3.506 1.195 L -3.506 1.195 L -3.506 1.195 L -3.506 1.195 L -3.506 1.195 L -3.506 1.195 L -3.506 1.195 L -3.506 1.195 L -3.506 1.195 L -3.506 1.195 L -3.506 1.195 L -3.506 1.195 L -3.506 1.195 L -3.504 1.228 L -3.497 1.261 L -3.486 1.293 L -3.471 1.323 L -3.452 1.351 L -3.429 1.376 L -3.404 1.398 L -3.376 1.417 L -3.345 1.432 L -3.313 1.442 L -3.28 1.449 L -3.247 1.451 L -3.213 1.449 L -3.18 1.442 L -3.148 1.432 L -3.118 1.417 L -3.09 1.398 L -3.064 1.376 L -3.042 1.351 L -3.023 1.323 L -3.008 1.293 L -2.997 1.262 L -2.99 1.229 L -2.987 1.195 L -2.987 1.195 L -2.987 1.195 L -2.987 1.195 L -2.987 1.195 L -2.987 1.195 L -2.987 1.195 L -2.987 1.195 L -2.987 1.195 L -2.987 1.195 L -2.987 1.195 L -2.987 1.195 L -2.987 1.195 L -2.987 1.186 L -2.986 1.16 L -2.984 1.119 L -2.979 1.064 L -2.973 0.997 L -2.963 0.919 L -2.949 0.832 L -2.931 0.738 L -2.908 0.639 L -2.88 0.535 L -2.845 0.428 L -2.804 0.321 L -2.757 0.214 L -2.703 0.111 L -2.643 0.012 L -2.575 -0.082 L -2.499 -0.169 L -2.412 -0.248 L -2.314 -0.318 L -2.204 -0.378 L -2.081 -0.427 L -1.944 -0.463 L -1.791 -0.486 L -1.623 -0.494 L -1.454 -0.486 L -1.302 -0.463 L -1.165 -0.427 L -1.042 -0.378 L -0.932 -0.318 L -0.834 -0.248 L -0.747 -0.169 L -0.67 -0.082 L -0.603 0.012 L -0.598 0.02 L -5.351 3.584 L -5.039 4 L -0.377 0.503 L -0.366 0.535 L -0.338 0.639 L -0.315 0.738 L -0.297 0.832 L -0.284 0.919 L -0.274 0.997 L -0.267 1.064 L -0.263 1.119 L -0.261 1.16 L -0.26 1.186 L -0.26 1.195 L -0.26 1.195 L -0.26 1.195 L -0.26 1.195 L -0.26 1.195 L -0.26 1.195 L -0.26 1.195 L -0.26 1.195 L -0.26 1.195 L -0.26 1.195 L -0.26 1.195 L -0.26 1.195 L -0.26 1.195 L -0.257 1.228 L -0.25 1.261 L -0.239 1.293 L -0.224 1.323 L -0.205 1.351 L -0.182 1.376 L -0.157 1.398 L -0.129 1.417 L -0.099 1.432 L -0.067 1.442 L -0.034 1.449 L -0 1.451 L 0.034 1.449 L 0.067 1.442 L 0.098 1.432 L 0.129 1.417 L 0.157 1.398 L 0.182 1.376 L 0.205 1.351 L 0.224 1.323 L 0.239 1.293 L 0.25 1.262 L 0.257 1.229 L 0.26 1.195 L 0.26 1.195 L 0.26 1.195 L 0.26 1.195 L 0.26 1.195 L 0.26 1.195 L 0.26 1.195 L 0.26 1.195 L 0.26 1.195 L 0.26 1.195 L 0.26 1.195 L 0.26 1.195 L 0.26 1.195 L 0.26 1.186 L 0.261 1.16 L 0.263 1.119 L 0.267 1.064 L 0.274 0.997 L 0.284 0.919 L 0.298 0.832 L 0.316 0.738 L 0.339 0.639 L 0.367 0.535 L 0.402 0.428 L 0.443 0.321 L 0.49 0.214 L 0.543 0.111 L 0.603 0.012 L 0.671 -0.082 L 0.748 -0.169 L 0.835 -0.248 L 0.933 -0.318 L 1.043 -0.378 L 1.166 -0.427 L 1.303 -0.463 L 1.455 -0.486 L 1.624 -0.494 L 1.793 -0.486 L 1.945 -0.463 L 2.082 -0.427 L 2.205 -0.378 L 2.315 -0.318 L 2.413 -0.248 L 2.499 -0.169 L 2.576 -0.082 L 2.644 0.012 L 2.704 0.111 L 2.757 0.214 L 2.805 0.321 L 2.846 0.428 L 2.88 0.535 L 2.909 0.639 L 2.931 0.738 L 2.949 0.832 L 2.963 0.919 L 2.973 0.997 L 2.98 1.064 L 2.984 1.119 L 2.986 1.16 L 2.987 1.186 L 2.987 1.195 L 2.987 1.195 L 2.987 1.195 L 2.987 1.195 L 2.987 1.195 L 2.987 1.195 L 2.987 1.195 L 2.987 1.195 L 2.987 1.195 L 2.987 1.195 L 2.987 1.195 L 2.987 1.195 L 2.987 1.195 L 2.99 1.228 L 2.997 1.261 L 3.008 1.293 L 3.023 1.323 L 3.042 1.351 L 3.064 1.376 L 3.09 1.398 L 3.118 1.417 L 3.148 1.432 L 3.18 1.442 L 3.213 1.449 L 3.247 1.451 L 3.28 1.449 L 3.313 1.442 L 3.345 1.432 L 3.375 1.417 L 3.404 1.398 L 3.429 1.376 L 3.451 1.351 L 3.47 1.323 L 3.486 1.293 L 3.497 1.262 L 3.504 1.229 L 3.506 1.195 L 3.506 1.195 L 3.506 1.195 L 3.506 1.195 L 3.506 1.195 L 3.506 1.195 L 3.506 1.195 L 3.506 1.195 L 3.506 1.195 L 3.506 1.195 L 3.506 1.195 L 3.506 1.195 L 3.506 1.195 L 3.507 1.186 L 3.508 1.16 L 3.51 1.119 L 3.514 1.064 L 3.521 0.997 L 3.531 0.919 L 3.544 0.832 L 3.562 0.738 L 3.585 0.639 L 3.614 0.535 L 3.648 0.428 L 3.69 0.321 L 3.737 0.214 L 3.79 0.111 L 3.85 0.012 L 3.918 -0.082 L 3.995 -0.169 L 4.082 -0.248 L 4.18 -0.318 L 4.29 -0.378 L 4.413 -0.427 L 4.55 -0.463 L 4.702 -0.486 L 4.871 -0.493 L 5.039 -0.486 L 5.192 -0.463 L 5.329 -0.427 L 5.452 -0.378 L 5.562 -0.318 L 5.659 -0.248 L 5.746 -0.169 L 5.823 -0.082 L 5.891 0.012 L 5.951 0.111 L 6.004 0.214 L 6.051 0.321 L 6.093 0.428 L 6.127 0.535 L 6.155 0.639 L 6.178 0.738 L 6.196 0.832 L 6.21 0.919 L 6.22 0.997 L 6.226 1.064 L 6.23 1.119 L 6.233 1.16 L 6.234 1.186 L 6.234 1.195 L 6.234 1.212 L 6.236 1.229 L 6.239 1.245 L 6.243 1.262 L 6.248 1.278 L 6.253 1.294 L 6.261 1.31 L 6.269 1.325 L 6.277 1.339 L 6.287 1.353 L 6.298 1.366 L 6.31 1.378 L 6.322 1.39 L 6.335 1.401 L 6.349 1.411 L 6.364 1.42 L 6.379 1.428 L 6.394 1.435 L 6.41 1.441 L 6.426 1.446 L 6.443 1.45 L 6.46 1.452 L 6.477 1.454 L 6.494 1.455 L 7.792 1.455 L 7.792 0.935 L 6.733 0.935 L 6.727 0.882 L 6.72 0.827 L 6.712 0.768 L 6.702 0.707 L 6.69 0.643 L 6.676 0.576 L 6.659 0.506 L 6.64 0.434 L 6.618 0.359 L 6.592 0.282 L 6.563 0.203 L 6.531 0.121 L 6.468 -0.016 L 6.393 -0.152 L 6.305 -0.286 L 6.203 -0.415 L 6.088 -0.537 L 5.959 -0.65 L 5.816 -0.752 L 5.658 -0.84 L 5.485 -0.912 L 5.296 -0.967 L 5.091 -1.001 L 4.871 -1.013 L 4.659 -1.002 L 4.462 -0.97 L 4.28 -0.92 L 4.113 -0.853 L 3.959 -0.771 L 3.82 -0.676 L 3.693 -0.57 L 3.58 -0.455 L 3.479 -0.334 L 3.39 -0.207 L 3.313 -0.077 L 3.247 0.054 L 3.182 -0.077 L 3.105 -0.207 L 3.016 -0.334 L 2.915 -0.455 L 2.801 -0.57 L 2.675 -0.676 L 2.535 -0.771 L 2.382 -0.853 L 2.214 -0.92 L 2.033 -0.97 L 1.836 -1.002 L 1.643 -1.012 L 3.556 -2.447 Z" /></svg>