<svg version="1.1" xmlns="http://www.w3.org/2000/svg" viewBox="-6.998360448690784 -5.000000920021875 13.996720897381568 10.00000184004375" fill="black" stroke="none">
    <path fill-rule="evenodd" d="M 2.89041 -0.25082 L 4.04609 -0.56033 L 3.76438 -0.84205 L 5.14 -2.21767 L 4.85727 -2.50041 L 3.48164 -1.12479 L 3.19992 -1.4065 L 2.89041 -0.25082 Z M 1.39082 -1.75041 L 2.5465 -2.05992 L 2.26479 -2.34164 L 3.64041 -3.71726 L 3.35768 -4 L 1.98205 -2.62438 L 1.70033 -2.90609 L 1.39082 -1.75041 Z M -5.99836 1.33995 L -2.1994 1.33995 L -2.1994 4 L 1.79951 1.50068 L 1.79951 3.87925 L 2.1994 3.87925 L 2.1994 1.33995 L 5.99836 1.33995 L 5.99836 0.94006 L 2.1994 0.94006 L 2.1994 -1.59925 L 1.79951 -1.59925 L 1.79951 0.77932 L -2.1994 -1.72 L -2.1994 0.94006 L -5.99836 0.94006 L -5.99836 1.33995 Z M -1.79951 3.27863 L -1.79951 -0.99863 L 1.62237 1.14 L -1.79951 3.27863 Z" />
</svg>