<svg version="1.1" xmlns="http://www.w3.org/2000/svg" viewBox="-7.998519856797544 -5.000000906686416 15.997039713595088 10.000001813372831" fill="black" stroke="none">
    <path d="M 1.65304 -2.23032 L -4.89896 -2.23032 L -4.89896 -1.99704 L -4.89896 -0.48069 L -6.99852 -0.48069 L -6.99852 -0.01412 L -4.89896 -0.01412 L -4.89896 1.73551 L -2.31279 1.73551 L -4.24741 3.67012 L -3.91753 4 L -1.65304 1.73551 L 4.89896 1.73551 L 4.89896 -0.01412 L 6.99852 -0.01412 L 6.99852 -0.48069 L 4.89896 -0.48069 L 4.89896 -2.23032 L 2.31279 -2.23032 L 4.08247 -4 L 5.08395 -2.99852 L 5.41383 -3.3284 L 1.65304 -2.23032 Z" />
    <path d="M 1.84622 -1.76375 L 4.4324 -1.76375 L 4.4324 1.26894 L -1.18647 1.26894 L 1.84622 -1.76375 Z" />
    <path d="M -4.4324 -1.76375 L 1.18647 -1.76375 L -1.84622 1.26894 L -4.4324 1.26894 L -4.4324 -1.76375 Z" />
</svg>