<svg version="1.1" xmlns="http://www.w3.org/2000/svg" viewBox="-6.052628061736562 -5.000000932631864 12.105256123473097 10.000001865263728" fill="black" stroke="none">
    <path d="M 1.5158 3.54859 L 1.5158 4 L 1.85264 4 L 1.85264 3.61596 L 2.4933 3.74408 L 2.55935 3.41382 L 1.85264 3.27247 L 1.85264 2.90527 L 5.05263 2.90527 L 5.05263 2.56843 L 1.5158 2.56843 L 1.5158 3.2051 L 0.16844 2.93561 L 0.16844 2.98948 L -0.1684 2.98948 L -0.1684 2.86823 L -1.66734 2.56843 L -1.70103 2.90527 L 1.5158 3.54859 Z" />
    <path d="M -0.1684 1.97896 L -0.1684 2.3158 L 0.16844 2.3158 L 0.16844 1.97896 L -0.1684 1.97896 Z" />
    <path d="M -0.1684 1.30527 L -0.1684 1.64212 L 0.16844 1.64212 L 0.16844 1.30527 L -0.1684 1.30527 Z" />
    <path fill-rule="evenodd" d="M -0.1684 0.80001 L -0.1684 0.96843 L 0.16844 0.96843 L 0.16844 0.80001 L 1.01054 0.80001 L 1.01054 -0.46314 L 5.05263 -0.46314 L 5.05263 -0.79998 L 1.01054 -0.79998 L 1.01054 -2.06313 L -1.01051 -2.06313 L -1.01051 -1.89471 L -1.01051 -0.79998 L -5.05259 -0.79998 L -5.05259 -0.46314 L -1.01051 -0.46314 L -1.01051 0.80001 L -0.1684 0.80001 Z M -0.67366 -1.72629 L 0.6737 -1.72629 L 0.6737 0.46317 L -0.67366 0.46317 L -0.67366 -1.72629 Z" />
    <path d="M -5.05263 -3.99993 L -5.05256 -3.99993 L -5.05256 -4 L -5.05263 -4 L -5.05263 -3.99993 Z" />
</svg>