<svg version="1.1" xmlns="http://www.w3.org/2000/svg" viewBox="-15.1176473944637 -5.000000811764715 30.2352947889274 10.00000162352943" fill="black" stroke="none">
    <path fill-rule="evenodd" d="M 3.96818 0.47059 L 14.11765 0.47059 L 14.11765 -0.47059 L 3.96818 -0.47059 L 3.96338 -0.5416 L 3.85673 -1.06142 L 3.68488 -1.55463 L 3.45264 -2.0164 L 3.16486 -2.44191 L 2.82634 -2.82634 L 2.44191 -3.16486 L 2.0164 -3.45264 L 1.55463 -3.68488 L 1.06142 -3.85673 L 0.5416 -3.96338 L 0 -4 L -0.5416 -3.96338 L -1.06142 -3.85673 L -1.55463 -3.68488 L -2.0164 -3.45264 L -2.44191 -3.16486 L -2.82634 -2.82634 L -3.16486 -2.44191 L -3.45264 -2.0164 L -3.68488 -1.55463 L -3.85673 -1.06142 L -3.96338 -0.5416 L -3.97059 -0.43493 L -14.11765 -0.43493 L -14.11765 0.50625 L -3.96577 0.50625 L -3.96338 0.5416 L -3.85673 1.06142 L -3.68488 1.55463 L -3.45264 2.0164 L -3.16486 2.44191 L -2.82634 2.82634 L -2.44191 3.16486 L -2.0164 3.45264 L -1.55463 3.68488 L -1.06142 3.85673 L -0.5416 3.96338 L 0 4 L 0.5416 3.96338 L 1.06142 3.85673 L 1.55463 3.68488 L 2.0164 3.45264 L 2.44191 3.16486 L 2.82634 2.82634 L 3.16486 2.44191 L 3.45264 2.0164 L 3.68488 1.55463 L 3.85673 1.06142 L 3.96338 0.5416 L 3.96818 0.47059 Z M -3.05882 0 L -3.03101 -0.41623 L -2.94995 -0.81509 L -2.81923 -1.19298 L -2.64244 -1.54632 L -2.42317 -1.87153 L -2.165 -2.165 L -1.87153 -2.42317 L -1.54632 -2.64244 L -1.19298 -2.81923 L -0.81509 -2.94995 L -0.41623 -3.03101 L 0 -3.05882 L 0.41623 -3.03101 L 0.81509 -2.94995 L 1.19298 -2.81923 L 1.54632 -2.64244 L 1.87153 -2.42317 L 2.165 -2.165 L 2.42317 -1.87153 L 2.64244 -1.54632 L 2.81923 -1.19298 L 2.94995 -0.81509 L 3.03101 -0.41623 L 3.05882 0 L 3.03101 0.41623 L 2.94995 0.81509 L 2.81923 1.19298 L 2.64244 1.54632 L 2.42317 1.87153 L 2.165 2.165 L 1.87153 2.42317 L 1.54632 2.64244 L 1.19298 2.81923 L 0.81509 2.94995 L 0.41623 3.03101 L 0 3.05882 L -0.41623 3.03101 L -0.81509 2.94995 L -1.19298 2.81923 L -1.54632 2.64244 L -1.87153 2.42317 L -2.165 2.165 L -2.42317 1.87153 L -2.64244 1.54632 L -2.81923 1.19298 L -2.94995 0.81509 L -3.03101 0.41623 L -3.05882 0 Z" />
</svg>