<svg version="1.1" xmlns="http://www.w3.org/2000/svg" viewBox="-5.367 -5 10.734 10" fill="black" stroke="none"><path fill-rule="evenodd" d="M -0.513 4 L -0.222 4 L -0.222 -4 L -0.513 -4 L -0.513 4 Z M -4.367 3.782 L -2.178 3.782 L -2.172 3.782 L -2.154 3.781 L -2.127 3.78 L -2.09 3.778 L -2.044 3.773 L -1.991 3.767 L -1.932 3.758 L -1.868 3.746 L -1.799 3.73 L -1.727 3.711 L -1.652 3.686 L -1.576 3.657 L -1.5 3.622 L -1.424 3.58 L -1.349 3.531 L -1.276 3.474 L -1.208 3.409 L -1.145 3.337 L -1.088 3.257 L -1.038 3.168 L -0.998 3.071 L -0.967 2.966 L -0.948 2.851 L -0.941 2.728 L -0.947 2.609 L -0.965 2.499 L -0.993 2.397 L -1.031 2.303 L -1.077 2.217 L -1.13 2.139 L -1.189 2.068 L -1.254 2.005 L -1.322 1.948 L -1.393 1.898 L -1.466 1.855 L -1.539 1.818 L -1.466 1.782 L -1.393 1.738 L -1.322 1.689 L -1.254 1.632 L -1.189 1.569 L -1.13 1.498 L -1.077 1.42 L -1.031 1.334 L -0.993 1.24 L -0.965 1.138 L -0.947 1.028 L -0.941 0.909 L -0.947 0.791 L -0.965 0.681 L -0.993 0.579 L -1.031 0.485 L -1.077 0.399 L -1.13 0.321 L -1.189 0.25 L -1.254 0.186 L -1.322 0.13 L -1.393 0.08 L -1.466 0.037 L -1.539 0 L -1.466 -0.037 L -1.393 -0.08 L -1.322 -0.129 L -1.254 -0.186 L -1.189 -0.25 L -1.13 -0.32 L -1.077 -0.399 L -1.031 -0.484 L -0.993 -0.578 L -0.965 -0.68 L -0.947 -0.79 L -0.941 -0.909 L -0.947 -1.028 L -0.965 -1.138 L -0.994 -1.24 L -1.031 -1.334 L -1.077 -1.42 L -1.131 -1.498 L -1.19 -1.569 L -1.254 -1.632 L -1.323 -1.689 L -1.394 -1.739 L -1.467 -1.782 L -1.54 -1.819 L -1.467 -1.855 L -1.395 -1.899 L -1.324 -1.948 L -1.256 -2.005 L -1.192 -2.068 L -1.133 -2.139 L -1.08 -2.217 L -1.035 -2.303 L -0.997 -2.397 L -0.969 -2.498 L -0.952 -2.608 L -0.945 -2.727 L -0.952 -2.851 L -0.971 -2.965 L -1.002 -3.071 L -1.043 -3.168 L -1.092 -3.256 L -1.149 -3.337 L -1.213 -3.409 L -1.282 -3.474 L -1.354 -3.53 L -1.429 -3.58 L -1.506 -3.622 L -1.582 -3.657 L -1.658 -3.686 L -1.733 -3.71 L -1.805 -3.73 L -1.874 -3.746 L -1.939 -3.758 L -1.998 -3.767 L -2.051 -3.773 L -2.097 -3.778 L -2.134 -3.78 L -2.162 -3.781 L -2.179 -3.782 L -2.185 -3.782 L -4.367 -3.782 L -4.367 -3.491 L -2.185 -3.491 L -2.18 -3.491 L -2.166 -3.49 L -2.143 -3.489 L -2.112 -3.487 L -2.074 -3.483 L -2.03 -3.477 L -1.982 -3.47 L -1.929 -3.46 L -1.873 -3.447 L -1.814 -3.431 L -1.754 -3.412 L -1.694 -3.388 L -1.634 -3.362 L -1.576 -3.332 L -1.52 -3.298 L -1.468 -3.26 L -1.419 -3.217 L -1.374 -3.169 L -1.335 -3.114 L -1.301 -3.052 L -1.274 -2.983 L -1.253 -2.907 L -1.241 -2.821 L -1.236 -2.727 L -1.241 -2.632 L -1.253 -2.547 L -1.274 -2.47 L -1.301 -2.401 L -1.334 -2.34 L -1.373 -2.285 L -1.418 -2.237 L -1.466 -2.194 L -1.518 -2.156 L -1.573 -2.122 L -1.631 -2.092 L -1.69 -2.066 L -1.75 -2.043 L -1.81 -2.023 L -1.868 -2.008 L -1.923 -1.995 L -1.976 -1.985 L -2.024 -1.977 L -2.067 -1.972 L -2.105 -1.968 L -2.135 -1.966 L -2.158 -1.964 L -2.173 -1.964 L -2.178 -1.964 L -2.196 -1.962 L -2.215 -1.958 L -2.233 -1.952 L -2.25 -1.944 L -2.265 -1.933 L -2.279 -1.92 L -2.292 -1.906 L -2.302 -1.89 L -2.31 -1.873 L -2.316 -1.856 L -2.32 -1.837 L -2.321 -1.818 L -2.32 -1.799 L -2.316 -1.781 L -2.31 -1.763 L -2.302 -1.746 L -2.292 -1.73 L -2.279 -1.716 L -2.265 -1.704 L -2.25 -1.693 L -2.233 -1.684 L -2.215 -1.678 L -2.197 -1.674 L -2.178 -1.673 L -2.178 -1.673 L -2.178 -1.673 L -2.178 -1.673 L -2.178 -1.673 L -2.173 -1.673 L -2.158 -1.672 L -2.135 -1.671 L -2.104 -1.668 L -2.067 -1.665 L -2.023 -1.659 L -1.975 -1.651 L -1.922 -1.641 L -1.866 -1.629 L -1.808 -1.613 L -1.748 -1.593 L -1.688 -1.57 L -1.629 -1.544 L -1.571 -1.514 L -1.515 -1.48 L -1.463 -1.442 L -1.414 -1.399 L -1.37 -1.351 L -1.331 -1.296 L -1.297 -1.234 L -1.27 -1.165 L -1.249 -1.088 L -1.237 -1.003 L -1.232 -0.909 L -1.237 -0.814 L -1.249 -0.729 L -1.27 -0.652 L -1.297 -0.583 L -1.331 -0.522 L -1.37 -0.467 L -1.414 -0.418 L -1.463 -0.375 L -1.515 -0.337 L -1.571 -0.304 L -1.629 -0.274 L -1.688 -0.248 L -1.748 -0.225 L -1.808 -0.205 L -1.866 -0.189 L -1.922 -0.177 L -1.975 -0.167 L -2.023 -0.159 L -2.067 -0.153 L -2.104 -0.15 L -2.135 -0.147 L -2.158 -0.146 L -2.173 -0.146 L -2.178 -0.145 L -2.196 -0.144 L -2.215 -0.14 L -2.233 -0.134 L -2.25 -0.125 L -2.265 -0.115 L -2.279 -0.102 L -2.292 -0.088 L -2.302 -0.072 L -2.31 -0.055 L -2.316 -0.037 L -2.32 -0.019 L -2.321 -0 L -2.32 0.019 L -2.316 0.037 L -2.31 0.055 L -2.302 0.072 L -2.292 0.088 L -2.279 0.102 L -2.265 0.115 L -2.25 0.125 L -2.233 0.134 L -2.215 0.14 L -2.197 0.144 L -2.178 0.145 L -2.178 0.145 L -2.173 0.146 L -2.158 0.146 L -2.135 0.147 L -2.104 0.15 L -2.067 0.153 L -2.023 0.159 L -1.975 0.167 L -1.922 0.177 L -1.866 0.19 L -1.808 0.205 L -1.748 0.225 L -1.688 0.248 L -1.629 0.274 L -1.571 0.304 L -1.515 0.338 L -1.463 0.376 L -1.414 0.419 L -1.37 0.468 L -1.331 0.522 L -1.297 0.584 L -1.27 0.653 L -1.249 0.73 L -1.237 0.815 L -1.232 0.909 L -1.237 1.004 L -1.249 1.089 L -1.27 1.166 L -1.297 1.235 L -1.331 1.296 L -1.37 1.351 L -1.414 1.4 L -1.463 1.443 L -1.515 1.481 L -1.571 1.514 L -1.629 1.544 L -1.688 1.571 L -1.748 1.594 L -1.808 1.613 L -1.866 1.629 L -1.922 1.642 L -1.975 1.652 L -2.023 1.659 L -2.067 1.665 L -2.104 1.669 L -2.135 1.671 L -2.158 1.672 L -2.173 1.673 L -2.178 1.673 L -2.196 1.674 L -2.215 1.678 L -2.233 1.684 L -2.25 1.693 L -2.265 1.703 L -2.279 1.716 L -2.292 1.73 L -2.302 1.746 L -2.31 1.763 L -2.316 1.781 L -2.32 1.799 L -2.321 1.818 L -2.32 1.837 L -2.316 1.855 L -2.31 1.873 L -2.302 1.89 L -2.292 1.906 L -2.279 1.92 L -2.265 1.933 L -2.25 1.943 L -2.233 1.952 L -2.215 1.958 L -2.197 1.962 L -2.178 1.964 L -2.178 1.964 L -2.178 1.964 L -2.178 1.964 L -2.178 1.964 L -2.173 1.964 L -2.158 1.964 L -2.135 1.966 L -2.104 1.968 L -2.067 1.972 L -2.023 1.977 L -1.975 1.985 L -1.922 1.995 L -1.866 2.008 L -1.808 2.024 L -1.748 2.043 L -1.688 2.066 L -1.629 2.093 L -1.571 2.122 L -1.515 2.156 L -1.463 2.194 L -1.414 2.237 L -1.37 2.286 L -1.331 2.341 L -1.297 2.402 L -1.27 2.471 L -1.249 2.548 L -1.237 2.633 L -1.232 2.728 L -1.237 2.822 L -1.249 2.907 L -1.27 2.984 L -1.297 3.053 L -1.331 3.115 L -1.37 3.169 L -1.414 3.218 L -1.463 3.261 L -1.515 3.299 L -1.571 3.332 L -1.629 3.362 L -1.688 3.389 L -1.748 3.412 L -1.808 3.431 L -1.866 3.447 L -1.922 3.46 L -1.975 3.47 L -2.023 3.477 L -2.067 3.483 L -2.104 3.487 L -2.135 3.489 L -2.158 3.49 L -2.173 3.491 L -2.178 3.491 L -4.367 3.491 L -4.367 3.782 Z M 0.215 4 L 0.506 4 L 0.506 -4 L 0.215 -4 L 0.215 4 Z M 0.935 2.818 L 0.937 2.876 L 0.942 2.933 L 0.95 2.987 L 0.961 3.04 L 0.975 3.091 L 0.992 3.139 L 1.012 3.186 L 1.034 3.231 L 1.058 3.273 L 1.084 3.314 L 1.112 3.352 L 1.142 3.388 L 1.174 3.421 L 1.207 3.453 L 1.241 3.482 L 1.276 3.51 L 1.312 3.536 L 1.348 3.56 L 1.385 3.582 L 1.423 3.603 L 1.461 3.622 L 1.499 3.639 L 1.537 3.655 L 1.575 3.67 L 1.65 3.696 L 1.724 3.718 L 1.796 3.736 L 1.864 3.75 L 1.928 3.76 L 1.987 3.769 L 2.039 3.774 L 2.084 3.778 L 2.121 3.78 L 2.148 3.781 L 2.165 3.782 L 2.171 3.782 L 4.353 3.782 L 4.353 3.491 L 2.171 3.491 L 2.166 3.491 L 2.152 3.49 L 2.128 3.489 L 2.097 3.487 L 2.059 3.484 L 2.015 3.479 L 1.966 3.472 L 1.913 3.462 L 1.857 3.451 L 1.798 3.436 L 1.738 3.419 L 1.677 3.398 L 1.647 3.386 L 1.617 3.373 L 1.588 3.36 L 1.559 3.345 L 1.531 3.33 L 1.503 3.313 L 1.477 3.296 L 1.451 3.278 L 1.426 3.258 L 1.403 3.238 L 1.381 3.217 L 1.36 3.194 L 1.34 3.171 L 1.322 3.147 L 1.305 3.121 L 1.289 3.095 L 1.275 3.066 L 1.262 3.037 L 1.252 3.005 L 1.243 2.972 L 1.235 2.936 L 1.23 2.899 L 1.227 2.86 L 1.226 2.818 L 1.227 2.776 L 1.23 2.736 L 1.235 2.699 L 1.243 2.664 L 1.252 2.63 L 1.262 2.599 L 1.275 2.569 L 1.289 2.541 L 1.305 2.514 L 1.322 2.489 L 1.34 2.464 L 1.36 2.441 L 1.381 2.419 L 1.403 2.398 L 1.426 2.377 L 1.451 2.358 L 1.477 2.34 L 1.503 2.323 L 1.531 2.306 L 1.559 2.291 L 1.588 2.276 L 1.617 2.262 L 1.647 2.25 L 1.677 2.238 L 1.738 2.217 L 1.798 2.199 L 1.857 2.185 L 1.913 2.173 L 1.966 2.164 L 2.015 2.157 L 2.059 2.152 L 2.097 2.149 L 2.128 2.147 L 2.152 2.146 L 2.166 2.145 L 2.171 2.145 L 2.171 2.145 L 2.171 2.145 L 2.171 2.145 L 2.171 2.145 L 2.171 2.145 L 2.19 2.144 L 2.209 2.14 L 2.226 2.133 L 2.243 2.125 L 2.259 2.114 L 2.273 2.102 L 2.285 2.088 L 2.296 2.072 L 2.304 2.055 L 2.31 2.037 L 2.314 2.018 L 2.315 2 L 2.314 1.981 L 2.31 1.962 L 2.304 1.944 L 2.296 1.928 L 2.285 1.912 L 2.273 1.898 L 2.259 1.885 L 2.243 1.874 L 2.226 1.866 L 2.209 1.86 L 2.19 1.856 L 2.171 1.854 L 2.166 1.854 L 2.152 1.854 L 2.128 1.852 L 2.097 1.85 L 2.059 1.847 L 2.015 1.842 L 1.966 1.835 L 1.913 1.826 L 1.857 1.814 L 1.798 1.8 L 1.738 1.782 L 1.677 1.761 L 1.647 1.749 L 1.617 1.737 L 1.588 1.723 L 1.559 1.709 L 1.531 1.693 L 1.503 1.677 L 1.477 1.659 L 1.451 1.641 L 1.426 1.622 L 1.403 1.601 L 1.381 1.58 L 1.36 1.558 L 1.34 1.535 L 1.322 1.51 L 1.305 1.485 L 1.289 1.458 L 1.275 1.43 L 1.262 1.4 L 1.252 1.369 L 1.243 1.336 L 1.235 1.3 L 1.23 1.263 L 1.227 1.224 L 1.226 1.182 L 1.227 1.14 L 1.23 1.1 L 1.235 1.063 L 1.243 1.028 L 1.252 0.995 L 1.262 0.963 L 1.275 0.933 L 1.289 0.905 L 1.305 0.878 L 1.322 0.853 L 1.34 0.829 L 1.36 0.805 L 1.381 0.783 L 1.403 0.762 L 1.426 0.742 L 1.451 0.722 L 1.477 0.704 L 1.503 0.687 L 1.531 0.67 L 1.559 0.655 L 1.588 0.64 L 1.617 0.627 L 1.647 0.614 L 1.677 0.602 L 1.738 0.581 L 1.798 0.564 L 1.857 0.549 L 1.913 0.537 L 1.966 0.528 L 2.015 0.521 L 2.059 0.516 L 2.097 0.513 L 2.128 0.511 L 2.152 0.51 L 2.166 0.509 L 2.171 0.509 L 4.36 0.509 L 4.36 0.218 L 2.171 0.218 L 2.165 0.218 L 2.148 0.219 L 2.121 0.22 L 2.084 0.222 L 2.039 0.226 L 1.987 0.231 L 1.928 0.239 L 1.864 0.25 L 1.796 0.264 L 1.724 0.282 L 1.65 0.304 L 1.575 0.33 L 1.537 0.344 L 1.499 0.361 L 1.461 0.378 L 1.423 0.397 L 1.385 0.418 L 1.348 0.44 L 1.312 0.464 L 1.276 0.49 L 1.241 0.517 L 1.207 0.547 L 1.174 0.578 L 1.142 0.612 L 1.112 0.648 L 1.084 0.686 L 1.058 0.726 L 1.034 0.769 L 1.012 0.814 L 0.992 0.86 L 0.975 0.909 L 0.961 0.96 L 0.95 1.012 L 0.942 1.067 L 0.937 1.123 L 0.935 1.182 L 0.937 1.24 L 0.942 1.296 L 0.95 1.351 L 0.961 1.404 L 0.975 1.454 L 0.992 1.503 L 1.012 1.55 L 1.034 1.594 L 1.058 1.637 L 1.084 1.677 L 1.112 1.715 L 1.142 1.751 L 1.169 1.78 L 1.196 1.807 L 1.225 1.832 L 1.254 1.855 L 1.284 1.878 L 1.314 1.898 L 1.345 1.918 L 1.377 1.936 L 1.409 1.954 L 1.441 1.97 L 1.473 1.985 L 1.505 2 L 1.473 2.014 L 1.44 2.029 L 1.409 2.046 L 1.377 2.063 L 1.345 2.081 L 1.314 2.101 L 1.284 2.122 L 1.254 2.144 L 1.225 2.167 L 1.196 2.193 L 1.169 2.219 L 1.142 2.248 L 1.112 2.284 L 1.084 2.322 L 1.058 2.362 L 1.034 2.405 L 1.012 2.449 L 0.992 2.496 L 0.975 2.545 L 0.961 2.596 L 0.95 2.648 L 0.942 2.703 L 0.937 2.759 L 0.935 2.818 Z M 0.942 -1.182 L 0.944 -1.124 L 0.949 -1.067 L 0.957 -1.013 L 0.968 -0.96 L 0.982 -0.909 L 0.999 -0.861 L 1.019 -0.814 L 1.041 -0.769 L 1.065 -0.727 L 1.091 -0.686 L 1.119 -0.648 L 1.149 -0.612 L 1.181 -0.579 L 1.214 -0.547 L 1.248 -0.518 L 1.283 -0.49 L 1.318 -0.464 L 1.355 -0.44 L 1.392 -0.418 L 1.43 -0.397 L 1.468 -0.378 L 1.506 -0.361 L 1.544 -0.345 L 1.582 -0.33 L 1.657 -0.304 L 1.731 -0.282 L 1.803 -0.264 L 1.871 -0.25 L 1.935 -0.24 L 1.994 -0.231 L 2.046 -0.226 L 2.091 -0.222 L 2.128 -0.22 L 2.155 -0.219 L 2.172 -0.218 L 2.178 -0.218 L 4.36 -0.218 L 4.36 -0.509 L 2.178 -0.509 L 2.173 -0.509 L 2.159 -0.51 L 2.135 -0.511 L 2.104 -0.513 L 2.066 -0.516 L 2.022 -0.521 L 1.973 -0.528 L 1.92 -0.538 L 1.864 -0.549 L 1.805 -0.564 L 1.745 -0.581 L 1.684 -0.602 L 1.654 -0.614 L 1.624 -0.627 L 1.595 -0.64 L 1.566 -0.655 L 1.538 -0.67 L 1.51 -0.687 L 1.484 -0.704 L 1.458 -0.722 L 1.433 -0.742 L 1.41 -0.762 L 1.388 -0.783 L 1.367 -0.806 L 1.347 -0.829 L 1.329 -0.853 L 1.312 -0.879 L 1.296 -0.905 L 1.282 -0.934 L 1.269 -0.963 L 1.259 -0.995 L 1.25 -1.028 L 1.242 -1.064 L 1.237 -1.101 L 1.234 -1.14 L 1.233 -1.182 L 1.234 -1.224 L 1.237 -1.264 L 1.242 -1.301 L 1.25 -1.336 L 1.259 -1.37 L 1.269 -1.401 L 1.282 -1.431 L 1.296 -1.459 L 1.312 -1.486 L 1.329 -1.511 L 1.347 -1.536 L 1.367 -1.559 L 1.388 -1.581 L 1.41 -1.602 L 1.433 -1.623 L 1.458 -1.642 L 1.484 -1.66 L 1.51 -1.677 L 1.538 -1.694 L 1.566 -1.709 L 1.595 -1.724 L 1.624 -1.738 L 1.654 -1.75 L 1.684 -1.762 L 1.745 -1.783 L 1.805 -1.801 L 1.864 -1.815 L 1.92 -1.827 L 1.973 -1.836 L 2.022 -1.843 L 2.066 -1.848 L 2.104 -1.851 L 2.135 -1.853 L 2.158 -1.854 L 2.173 -1.855 L 2.178 -1.855 L 2.178 -1.855 L 2.178 -1.855 L 2.178 -1.855 L 2.178 -1.855 L 2.197 -1.856 L 2.216 -1.86 L 2.233 -1.867 L 2.25 -1.875 L 2.266 -1.886 L 2.28 -1.898 L 2.292 -1.912 L 2.303 -1.928 L 2.311 -1.945 L 2.317 -1.963 L 2.321 -1.981 L 2.322 -2 L 2.321 -2.019 L 2.317 -2.038 L 2.311 -2.055 L 2.303 -2.072 L 2.292 -2.088 L 2.28 -2.102 L 2.266 -2.115 L 2.25 -2.126 L 2.233 -2.134 L 2.216 -2.14 L 2.197 -2.144 L 2.178 -2.146 L 2.178 -2.146 L 2.178 -2.146 L 2.178 -2.146 L 2.178 -2.146 L 2.173 -2.146 L 2.159 -2.146 L 2.135 -2.148 L 2.104 -2.15 L 2.066 -2.153 L 2.022 -2.158 L 1.973 -2.165 L 1.92 -2.174 L 1.864 -2.186 L 1.805 -2.2 L 1.745 -2.218 L 1.684 -2.239 L 1.654 -2.251 L 1.624 -2.263 L 1.595 -2.277 L 1.566 -2.291 L 1.538 -2.307 L 1.51 -2.323 L 1.484 -2.341 L 1.458 -2.359 L 1.433 -2.378 L 1.41 -2.399 L 1.388 -2.42 L 1.367 -2.442 L 1.347 -2.465 L 1.329 -2.49 L 1.312 -2.515 L 1.296 -2.542 L 1.282 -2.57 L 1.269 -2.6 L 1.259 -2.631 L 1.25 -2.664 L 1.242 -2.7 L 1.237 -2.737 L 1.234 -2.776 L 1.233 -2.818 L 1.234 -2.86 L 1.237 -2.9 L 1.242 -2.937 L 1.25 -2.972 L 1.259 -3.005 L 1.269 -3.037 L 1.282 -3.067 L 1.296 -3.095 L 1.312 -3.122 L 1.329 -3.147 L 1.347 -3.171 L 1.367 -3.195 L 1.388 -3.217 L 1.41 -3.238 L 1.433 -3.258 L 1.458 -3.278 L 1.484 -3.296 L 1.51 -3.313 L 1.538 -3.33 L 1.566 -3.345 L 1.595 -3.36 L 1.624 -3.373 L 1.654 -3.386 L 1.684 -3.398 L 1.745 -3.419 L 1.805 -3.436 L 1.864 -3.451 L 1.92 -3.463 L 1.973 -3.472 L 2.022 -3.479 L 2.066 -3.484 L 2.104 -3.487 L 2.135 -3.489 L 2.159 -3.49 L 2.173 -3.491 L 2.178 -3.491 L 4.367 -3.491 L 4.367 -3.782 L 2.178 -3.782 L 2.172 -3.782 L 2.155 -3.781 L 2.128 -3.78 L 2.091 -3.778 L 2.046 -3.774 L 1.994 -3.769 L 1.935 -3.761 L 1.871 -3.75 L 1.803 -3.736 L 1.731 -3.718 L 1.657 -3.696 L 1.582 -3.67 L 1.544 -3.656 L 1.506 -3.639 L 1.468 -3.622 L 1.43 -3.603 L 1.392 -3.582 L 1.355 -3.56 L 1.319 -3.536 L 1.283 -3.51 L 1.248 -3.483 L 1.214 -3.453 L 1.181 -3.422 L 1.149 -3.388 L 1.119 -3.352 L 1.091 -3.314 L 1.065 -3.274 L 1.041 -3.231 L 1.019 -3.186 L 0.999 -3.14 L 0.982 -3.091 L 0.968 -3.04 L 0.957 -2.988 L 0.949 -2.933 L 0.944 -2.877 L 0.942 -2.818 L 0.944 -2.76 L 0.949 -2.704 L 0.957 -2.649 L 0.968 -2.596 L 0.982 -2.546 L 0.999 -2.497 L 1.019 -2.45 L 1.041 -2.406 L 1.065 -2.363 L 1.091 -2.323 L 1.119 -2.285 L 1.149 -2.249 L 1.176 -2.22 L 1.203 -2.193 L 1.232 -2.168 L 1.261 -2.145 L 1.291 -2.122 L 1.321 -2.102 L 1.352 -2.082 L 1.384 -2.064 L 1.416 -2.046 L 1.448 -2.03 L 1.48 -2.015 L 1.512 -2 L 1.48 -1.986 L 1.448 -1.971 L 1.416 -1.954 L 1.384 -1.937 L 1.352 -1.919 L 1.321 -1.899 L 1.291 -1.878 L 1.261 -1.856 L 1.232 -1.833 L 1.203 -1.807 L 1.176 -1.781 L 1.149 -1.752 L 1.119 -1.716 L 1.091 -1.678 L 1.065 -1.638 L 1.04 -1.595 L 1.019 -1.551 L 0.999 -1.504 L 0.982 -1.455 L 0.968 -1.404 L 0.957 -1.352 L 0.949 -1.297 L 0.944 -1.241 L 0.942 -1.182 Z" /></svg>