<svg version="1.1" xmlns="http://www.w3.org/2000/svg" viewBox="-15.1176473944637 -5.000000811764715 30.2352947889274 10.000001623529432" fill="black" stroke="none">
    <path fill-rule="evenodd" d="M -9.88235 -0.58713 L -14.11765 -0.58713 L -14.11765 0.35404 L -9.88235 0.35404 L -9.88235 4 L 9.88235 4 L 9.88235 0.47059 L 14.11765 0.47059 L 14.11765 -0.47059 L 9.88235 -0.47059 L 9.88235 -4 L -9.88235 -4 L -9.88235 -3.52941 L -9.88235 -0.58713 Z M -8.94118 -0.58713 L -8.94118 -3.05882 L 7.05882 -3.05882 L 7.05882 -0.47059 L 3.05882 -0.47059 L 3.05882 1.31765 L 0.47059 1.31765 L 0.47059 -2.25882 L -4 -2.25882 L -4 -0.58713 L -8.94118 -0.58713 Z M 7.05882 0.47059 L 7.05882 3.05882 L -8.94118 3.05882 L -8.94118 0.35404 L -3.05882 0.35404 L -3.05882 -1.31765 L -0.47059 -1.31765 L -0.47059 2.25882 L 4 2.25882 L 4 0.47059 L 7.05882 0.47059 Z" />
</svg>