<svg version="1.1" xmlns="http://www.w3.org/2000/svg" viewBox="-6.868756265373865 -5.000000921749923 13.73751253074773 10.00000184349986" fill="black" stroke="none">
    <path d="M 0 -1.08625 L -0.50335 -1.0666 L -0.99819 -1.01227 L -1.47779 -0.9302 L -1.93544 -0.82732 L -2.36442 -0.71056 L -2.75801 -0.58688 L -3.10948 -0.46319 L -3.41212 -0.34643 L -3.6592 -0.24355 L -3.84401 -0.16148 L -3.95983 -0.10715 L -3.99992 -0.0875 L -3.82508 0.26249 L -3.78855 0.24505 L -3.68306 0.19669 L -3.5148 0.12333 L -3.28995 0.03089 L -3.01469 -0.07468 L -2.6952 -0.18746 L -2.33766 -0.30153 L -1.94826 -0.41096 L -1.53318 -0.50982 L -1.09859 -0.59218 L -0.65068 -0.65212 L -0.19563 -0.68369 L -0.19563 4 L 0.19563 4 L 0.19563 -0.68369 L 0.65068 -0.65212 L 1.09859 -0.59218 L 1.53318 -0.50982 L 1.94826 -0.41096 L 2.33766 -0.30153 L 2.6952 -0.18746 L 3.01469 -0.07468 L 3.28995 0.03089 L 3.5148 0.12333 L 3.68306 0.19669 L 3.78855 0.24505 L 3.82508 0.26249 L 3.99992 -0.0875 L 3.95983 -0.10715 L 3.84401 -0.16148 L 3.6592 -0.24355 L 3.41212 -0.34643 L 3.10948 -0.46319 L 2.75801 -0.58688 L 2.36442 -0.71056 L 1.93544 -0.82732 L 1.47779 -0.9302 L 0.99819 -1.01227 L 0.50335 -1.0666 L 0 -1.08625 Z" />
    <path d="M -3.82508 -4 L -3.99992 -3.65001 L -3.95983 -3.63036 L -3.84401 -3.57603 L -3.6592 -3.49396 L -3.41212 -3.39108 L -3.10948 -3.27432 L -2.75801 -3.15064 L -2.36442 -3.02695 L -1.93544 -2.91019 L -1.47779 -2.80731 L -0.99819 -2.72524 L -0.50335 -2.67091 L 0 -2.65126 L 0.50335 -2.67091 L 0.99819 -2.72524 L 1.47779 -2.80731 L 1.93544 -2.91019 L 2.36442 -3.02695 L 2.75801 -3.15064 L 3.10948 -3.27432 L 3.41212 -3.39108 L 3.6592 -3.49396 L 3.84401 -3.57603 L 3.95983 -3.63036 L 3.99992 -3.65001 L 3.82508 -4 L 3.78593 -3.98116 L 3.67307 -3.92907 L 3.49334 -3.85039 L 3.25363 -3.75176 L 2.96079 -3.63983 L 2.62168 -3.52125 L 2.24318 -3.40267 L 1.83215 -3.29075 L 1.39545 -3.19211 L 0.93995 -3.11343 L 0.47251 -3.06135 L 0 -3.04251 L -0.47251 -3.06135 L -0.93995 -3.11343 L -1.39545 -3.19211 L -1.83215 -3.29075 L -2.24318 -3.40267 L -2.62168 -3.52125 L -2.96079 -3.63983 L -3.25363 -3.75176 L -3.49334 -3.85039 L -3.67307 -3.92907 L -3.78594 -3.98116 L -3.82508 -4 Z" />
    <path d="M -5.86876 -2.10351 L -5.86876 -1.71226 L 5.86876 -1.71226 L 5.86876 -2.10351 L -5.86876 -2.10351 Z" />
</svg>