<svg version="1.1" xmlns="http://www.w3.org/2000/svg" viewBox="-8.502 -5 17.004 10" fill="black" stroke="none"><path fill-rule="evenodd" d="M -0.25 2.941 L -3.502 2.488 L -3.509 2.384 L -3.533 2.27 L -3.57 2.162 L -3.621 2.061 L -3.684 1.968 L -3.758 1.884 L -3.843 1.81 L -3.936 1.747 L -4.037 1.696 L -4.145 1.658 L -4.258 1.635 L -4.376 1.627 L -4.494 1.635 L -4.608 1.658 L -4.716 1.696 L -4.817 1.747 L -4.91 1.81 L -4.994 1.884 L -5.068 1.968 L -5.131 2.061 L -5.182 2.162 L -5.203 2.221 L -7.502 2.221 L -7.502 2.721 L -5.223 2.721 L -5.22 2.734 L -5.182 2.841 L -5.131 2.942 L -5.068 3.035 L -4.994 3.12 L -4.91 3.194 L -4.817 3.257 L -4.716 3.308 L -4.608 3.346 L -4.494 3.369 L -4.376 3.377 L -4.258 3.369 L -4.145 3.346 L -4.037 3.308 L -3.936 3.257 L -3.843 3.194 L -3.758 3.12 L -3.684 3.035 L -3.642 2.973 L 3.717 4 L 3.786 3.505 L 2.713 3.355 L 3.117 2.74 L 7.502 2.74 L 7.502 2.24 L 1.876 2.24 L 1.876 2.727 L 1.876 2.74 L 1.884 2.74 L 2.246 3.29 L 0.25 3.011 L 0.25 2.852 L -0.25 2.852 L -0.25 2.941 Z M -4.751 2.502 L -4.748 2.45 L -4.738 2.401 L -4.722 2.355 L -4.701 2.311 L -4.674 2.271 L -4.643 2.236 L -4.607 2.204 L -4.567 2.177 L -4.524 2.156 L -4.477 2.14 L -4.428 2.13 L -4.376 2.127 L -4.325 2.13 L -4.276 2.14 L -4.229 2.156 L -4.186 2.177 L -4.146 2.204 L -4.11 2.236 L -4.078 2.271 L -4.052 2.311 L -4.03 2.355 L -4.014 2.401 L -4.005 2.45 L -4.001 2.502 L -4.005 2.553 L -4.014 2.603 L -4.03 2.649 L -4.052 2.693 L -4.078 2.732 L -4.11 2.768 L -4.146 2.8 L -4.186 2.826 L -4.229 2.848 L -4.276 2.864 L -4.325 2.874 L -4.376 2.877 L -4.428 2.874 L -4.477 2.864 L -4.524 2.848 L -4.567 2.826 L -4.607 2.8 L -4.643 2.768 L -4.674 2.732 L -4.701 2.693 L -4.722 2.649 L -4.738 2.603 L -4.748 2.553 L -4.751 2.502 Z M -0.25 2.302 L 0.25 2.302 L 0.25 1.752 L -0.25 1.752 L -0.25 2.302 Z M -0.25 -0.999 L 0.25 -0.999 L 5.252 -0.999 L 5.252 -2.249 L 7.502 -2.249 L 7.502 -2.75 L 5.252 -2.75 L 5.252 -4 L -5.252 -4 L -5.252 -2.769 L -7.502 -2.769 L -7.502 -2.268 L -5.252 -2.268 L -5.252 -0.999 L -0.25 -0.999 Z M -4.751 -1.499 L -4.751 -3.5 L 4.751 -3.5 L 4.751 -1.499 L -4.751 -1.499 Z M -0.25 0.101 L 0.25 0.101 L 0.25 -0.449 L -0.25 -0.449 L -0.25 0.101 Z M -0.25 1.202 L 0.25 1.202 L 0.25 0.651 L -0.25 0.651 L -0.25 1.202 Z" /></svg>