<svg version="1.1" xmlns="http://www.w3.org/2000/svg" viewBox="-4.400000954666668 -5.000000946666668 8.800001909333336 10.000001893333335" fill="black" stroke="none">
    <path fill-rule="evenodd" d="M -2.19101 -0.13333 L -3.4 -0.13333 L -3.4 0.13333 L -2.19101 0.13333 L -2.17441 0.37961 L -2.09987 0.7438 L -1.97974 1.08922 L -1.81737 1.41251 L -1.6161 1.71032 L -1.37931 1.97931 L -1.11032 2.2161 L -0.81251 2.41737 L -0.48922 2.57974 L -0.1438 2.69987 L 0.22039 2.77441 L 0.6 2.8 L 0.97961 2.77441 L 1.3438 2.69987 L 1.68922 2.57974 L 1.8 2.5241 L 1.8 4 L 2.06667 4 L 2.06667 2.38077 L 2.31032 2.2161 L 2.57931 1.97931 L 2.8161 1.71032 L 3.01737 1.41251 L 3.17974 1.08922 L 3.29987 0.7438 L 3.37441 0.37961 L 3.4 0 L 3.37441 -0.37961 L 3.29987 -0.7438 L 3.17974 -1.08922 L 3.01737 -1.41251 L 2.8161 -1.71032 L 2.57931 -1.97931 L 2.31032 -2.2161 L 2.05812 -2.38654 L 2.05812 -4 L 1.79146 -4 L 1.79146 -2.52839 L 1.68922 -2.57974 L 1.3438 -2.69987 L 0.97961 -2.77441 L 0.6 -2.8 L 0.22039 -2.77441 L -0.1438 -2.69987 L -0.48922 -2.57974 L -0.81251 -2.41737 L -1.11032 -2.2161 L -1.37931 -1.97931 L -1.6161 -1.71032 L -1.81737 -1.41251 L -1.97974 -1.08922 L -2.09987 -0.7438 L -2.17441 -0.37961 L -2.19101 -0.13333 Z M 1.8 2.22757 L 1.58675 2.33447 L 1.27401 2.44295 L 0.94409 2.51024 L 0.6 2.53333 L 0.25591 2.51024 L -0.07401 2.44295 L -0.38675 2.33447 L -0.67932 2.18781 L -0.94872 2.00596 L -1.19193 1.79193 L -1.40596 1.54872 L -1.58781 1.27932 L -1.73447 0.98675 L -1.84295 0.67401 L -1.91024 0.34409 L -1.92438 0.13333 L -0.86667 0.13333 L -0.86667 1.66667 L -0.6 1.66667 L -0.6 0.87104 L 1.8 1.92698 L 1.8 2.22757 Z M -1.92438 -0.13333 L -1.91024 -0.34409 L -1.84295 -0.67401 L -1.73447 -0.98675 L -1.58781 -1.27932 L -1.40596 -1.54872 L -1.19193 -1.79193 L -0.94872 -2.00596 L -0.67932 -2.18781 L -0.38675 -2.33447 L -0.07401 -2.44295 L 0.25591 -2.51024 L 0.6 -2.53333 L 0.94409 -2.51024 L 1.27401 -2.44295 L 1.58675 -2.33447 L 1.63139 -2.3121 L -0.15042 -1.2374 L -0.01271 -1.00906 L 1.90876 -2.16794 L 2.14872 -2.00596 L 2.39193 -1.79193 L 2.60596 -1.54872 L 2.78781 -1.27932 L 2.93447 -0.98675 L 3.04295 -0.67401 L 3.11024 -0.34409 L 3.13333 0 L 3.11024 0.34409 L 3.04295 0.67401 L 2.93447 0.98675 L 2.78781 1.27932 L 2.60596 1.54872 L 2.39193 1.79193 L 2.14872 2.00596 L 2.06667 2.06135 L 2.06667 1.75302 L -0.6 0.57958 L -0.6 -1.66667 L -0.86667 -1.66667 L -0.86667 -0.13333 L -1.92438 -0.13333 Z" />
</svg>