<svg version="1.1" xmlns="http://www.w3.org/2000/svg" viewBox="-5.94845061549109 -5.000000934020892 11.896901230982152 10.000001868041783" fill="black" stroke="none">
    <path fill-rule="evenodd" d="M 3.02514 3.59163 L 4.94845 3.59163 L 4.94845 3.26173 L 3.02794 3.26173 L 3.00591 3.19879 L 2.9723 3.13217 L 2.93067 3.07073 L 2.88173 3.01519 L 2.82618 2.96625 L 2.76475 2.92462 L 2.69813 2.89101 L 2.62703 2.86612 L 2.55216 2.85067 L 2.47423 2.84537 L 2.3963 2.85067 L 2.32144 2.86612 L 2.25034 2.89101 L 2.18372 2.92462 L 2.12228 2.96625 L 2.06674 3.01519 L 2.0178 3.07073 L 1.97617 3.13217 L 1.94256 3.19879 L 1.91767 3.26989 L 1.90222 3.34475 L 1.89692 3.42268 L 1.90222 3.50061 L 1.91767 3.57548 L 1.94256 3.64658 L 1.97617 3.7132 L 2.0178 3.77463 L 2.06674 3.83017 L 2.12228 3.87912 L 2.18372 3.92075 L 2.25034 3.95436 L 2.32144 3.97924 L 2.3963 3.99469 L 2.47423 4 L 2.55216 3.99469 L 2.62703 3.97924 L 2.69813 3.95436 L 2.76475 3.92075 L 2.82618 3.87912 L 2.88173 3.83017 L 2.93067 3.77463 L 2.9723 3.7132 L 3.00591 3.64658 L 3.02514 3.59163 Z M 2.47423 3.17526 L 2.50822 3.17748 L 2.54069 3.18396 L 2.57136 3.19443 L 2.59998 3.20861 L 2.62626 3.22622 L 2.64992 3.247 L 2.67069 3.27066 L 2.68831 3.29694 L 2.70249 3.32555 L 2.71295 3.35623 L 2.71943 3.3887 L 2.72165 3.42268 L 2.71943 3.45667 L 2.71295 3.48914 L 2.70249 3.51981 L 2.68831 3.54843 L 2.67069 3.57471 L 2.64992 3.59837 L 2.62626 3.61914 L 2.59998 3.63676 L 2.57136 3.65094 L 2.54069 3.6614 L 2.50822 3.66788 L 2.47423 3.6701 L 2.44025 3.66788 L 2.40778 3.6614 L 2.3771 3.65094 L 2.34849 3.63676 L 2.32221 3.61914 L 2.29855 3.59837 L 2.27777 3.57471 L 2.26016 3.54843 L 2.24598 3.51981 L 2.23551 3.48914 L 2.22903 3.45667 L 2.22681 3.42268 L 2.22903 3.3887 L 2.23551 3.35623 L 2.24598 3.32555 L 2.26016 3.29694 L 2.27777 3.27066 L 2.29855 3.247 L 2.32221 3.22622 L 2.34849 3.20861 L 2.3771 3.19443 L 2.40778 3.18396 L 2.44025 3.17748 L 2.47423 3.17526 Z" />
    <path d="M -4.94842 0.77952 L -4.94842 1.10942 L -2.88657 1.10942 L -2.88657 0.77952 L -4.94842 0.77952 Z" />
    <path fill-rule="evenodd" d="M 3.02514 -1.35681 L 4.94845 -1.35681 L 4.94845 -1.6867 L 3.02794 -1.6867 L 3.00591 -1.74964 L 2.9723 -1.81626 L 2.93067 -1.8777 L 2.88173 -1.93324 L 2.82618 -1.98218 L 2.76475 -2.02381 L 2.69813 -2.05742 L 2.62703 -2.08231 L 2.55216 -2.09776 L 2.47423 -2.10307 L 2.3963 -2.09776 L 2.32144 -2.08231 L 2.25034 -2.05742 L 2.18372 -2.02381 L 2.12228 -1.98218 L 2.06674 -1.93324 L 2.0178 -1.8777 L 1.97617 -1.81626 L 1.94256 -1.74964 L 1.91767 -1.67855 L 1.90222 -1.60368 L 1.89692 -1.52575 L 1.90222 -1.44782 L 1.91767 -1.37296 L 1.94256 -1.30186 L 1.97617 -1.23524 L 2.0178 -1.1738 L 2.06674 -1.11826 L 2.12228 -1.06932 L 2.18372 -1.02769 L 2.25034 -0.99408 L 2.32144 -0.96919 L 2.3963 -0.95374 L 2.47423 -0.94843 L 2.55216 -0.95374 L 2.62703 -0.96919 L 2.69813 -0.99408 L 2.76475 -1.02769 L 2.82618 -1.06932 L 2.88173 -1.11826 L 2.93067 -1.1738 L 2.9723 -1.23524 L 3.00591 -1.30186 L 3.02514 -1.35681 Z M 2.47423 -1.77317 L 2.50822 -1.77095 L 2.54069 -1.76447 L 2.57136 -1.754 L 2.59998 -1.73983 L 2.62626 -1.72221 L 2.64992 -1.70144 L 2.67069 -1.67777 L 2.68831 -1.6515 L 2.70249 -1.62288 L 2.71295 -1.5922 L 2.71943 -1.55973 L 2.72165 -1.52575 L 2.71943 -1.49177 L 2.71295 -1.4593 L 2.70249 -1.42862 L 2.68831 -1.4 L 2.67069 -1.37373 L 2.64992 -1.35006 L 2.62626 -1.32929 L 2.59998 -1.31167 L 2.57136 -1.2975 L 2.54069 -1.28703 L 2.50822 -1.28055 L 2.47423 -1.27833 L 2.44025 -1.28055 L 2.40778 -1.28703 L 2.3771 -1.2975 L 2.34849 -1.31167 L 2.32221 -1.32929 L 2.29855 -1.35006 L 2.27777 -1.37373 L 2.26016 -1.4 L 2.24598 -1.42862 L 2.23551 -1.4593 L 2.22903 -1.49177 L 2.22681 -1.52575 L 2.22903 -1.55973 L 2.23551 -1.5922 L 2.24598 -1.62288 L 2.26016 -1.6515 L 2.27777 -1.67777 L 2.29855 -1.70144 L 2.32221 -1.72221 L 2.34849 -1.73983 L 2.3771 -1.754 L 2.40778 -1.76447 L 2.44025 -1.77095 L 2.47423 -1.77317 Z" />
    <path d="M -4.94845 -3.99993 L -4.94838 -3.99993 L -4.94838 -4 L -4.94845 -4 L -4.94845 -3.99993 Z" />
</svg>