<svg version="1.1" xmlns="http://www.w3.org/2000/svg" viewBox="-5.1035659061908865 -5.000000945299319 10.207131812381773 10.000001890598664" fill="black" stroke="none">
    <path d="M -1.42986 -3.79485 L -1.42986 -3.52134 L -0.85817 -3.52134 L -0.85817 -3.79485 L -1.42986 -3.79485 Z" />
    <path d="M -2.57312 -3.79485 L -2.57312 -3.52134 L -2.00144 -3.52134 L -2.00144 -3.79485 L -2.57312 -3.79485 Z" />
    <path d="M -0.28659 -3.79485 L -0.28659 -3.52134 L 0.28499 -3.52134 L 0.28499 -3.79485 L -0.28659 -3.79485 Z" />
    <path d="M 0.85667 -3.79485 L 0.85667 -3.52134 L 1.42825 -3.52134 L 1.42825 -3.79485 L 0.85667 -3.79485 Z" />
    <path d="M 1.99994 -3.79485 L 1.99994 -3.52134 L 2.57152 -3.52134 L 2.57152 -3.79485 L 1.99994 -3.79485 Z" />
    <path d="M -3.55496 -3.79485 L -3.55496 -3.38459 L -3.28145 -3.38459 L -3.28145 -3.52134 L -3.1447 -3.52134 L -3.1447 -3.79485 L -3.55496 -3.79485 Z" />
    <path d="M -1.42708 3.7265 L -1.42708 4 L -0.8555 4 L -0.8555 3.7265 L -1.42708 3.7265 Z" />
    <path d="M -2.57034 3.7265 L -2.57034 4 L -1.99876 4 L -1.99876 3.7265 L -2.57034 3.7265 Z" />
    <path d="M -0.28381 3.7265 L -0.28381 4 L 0.28777 4 L 0.28777 3.7265 L -0.28381 3.7265 Z" />
    <path d="M 0.85935 3.7265 L 0.85935 4 L 1.43103 4 L 1.43103 3.7265 L 0.85935 3.7265 Z" />
    <path d="M 2.00261 3.7265 L 2.00261 4 L 2.5743 4 L 2.5743 3.7265 L 2.00261 3.7265 Z" />
    <path d="M 3.28263 3.58974 L 3.28263 3.7265 L 3.14588 3.7265 L 3.14588 4 L 3.55613 4 L 3.55613 3.58974 L 3.28263 3.58974 Z" />
    <path d="M -0.02403 0.92309 L -0.02403 1.1955 L 0.68435 0.78634 L -0.02403 0.37717 L -0.02403 0.64958 L -0.90529 0.64958 L -0.90529 0.92309 L -0.02403 0.92309 Z" />
    <path d="M -0.02403 -0.44443 L -0.02403 -0.17202 L 0.68435 -0.58118 L -0.02403 -0.99034 L -0.02403 -0.71793 L -0.90529 -0.71793 L -0.90529 -0.44443 L -0.02403 -0.44443 Z" />
    <path d="M -4.10199 -3.99995 L -4.10193 -3.99995 L -4.10193 -4 L -4.10199 -4 L -4.10199 -3.99995 Z" />
    <path d="M 3.28263 -2.49769 L 3.28263 -2.31141 L 3.55613 -2.31141 L 3.55613 -2.49813 L 4.10335 -2.49902 L 3.55613 -2.56653 L 3.55613 -2.84795 L 3.28263 -2.84795 L 3.28263 -2.60027 L 1.91511 -2.76899 L 1.91511 -1.33812 L 1.16298 -0.83674 L 1.16298 -1.26494 L 0.88947 -1.26494 L 0.88947 1.47009 L 1.16298 1.47009 L 1.16298 1.04189 L 1.91511 1.54328 L 1.91511 2.97479 L 3.28263 2.97045 L 3.28263 3.05481 L 3.55613 3.05481 L 3.55613 2.96958 L 4.10356 2.96785 L 4.10271 2.69434 L 3.55613 2.69608 L 3.55613 2.51817 L 3.28263 2.51817 L 3.28263 2.69695 L 2.18861 2.70043 L 2.18861 1.39691 L 1.16298 0.71315 L 1.16298 -0.508 L 2.18861 -1.19176 L 2.18861 -2.49592 L 3.28263 -2.49769 Z" />
    <path d="M 3.28263 1.44488 L 3.28263 1.98152 L 3.55613 1.98152 L 3.55613 1.44488 L 3.28263 1.44488 Z" />
    <path d="M 3.28263 0.3717 L 3.28263 0.90834 L 3.55613 0.90834 L 3.55613 0.3717 L 3.28263 0.3717 Z" />
    <path d="M 3.28263 -0.70148 L 3.28263 -0.16494 L 3.55613 -0.16494 L 3.55613 -0.70148 L 3.28263 -0.70148 Z" />
    <path d="M 3.28263 -1.77477 L 3.28263 -1.23812 L 3.55613 -1.23812 L 3.55613 -1.77477 L 3.28263 -1.77477 Z" />
    <path fill-rule="evenodd" d="M -3.55496 -2.58184 L -4.10356 -2.51974 L -3.55496 -2.51332 L -3.55496 -2.31301 L -3.28145 -2.31301 L -3.28145 -2.51012 L -2.18744 -2.49731 L -2.18744 -0.71793 L -2.95571 -0.71793 L -2.85677 -0.52007 L -2.27195 0.64958 L -2.89855 0.64958 L -2.89855 0.92309 L -2.18744 0.92309 L -2.18744 2.69968 L -3.28145 2.69064 L -3.28145 2.51656 L -3.55496 2.51656 L -3.55496 2.68838 L -4.10079 2.68387 L -4.10314 2.95738 L -3.55496 2.96192 L -3.55496 3.0531 L -3.28145 3.0531 L -3.28145 2.96419 L -1.91394 2.97554 L -1.91394 0.92309 L -1.20283 0.92309 L -1.20283 0.64958 L -1.82943 0.64958 L -1.14567 -0.71793 L -1.91394 -0.71793 L -1.91394 -2.76761 L -3.28145 -2.6128 L -3.28145 -2.84966 L -3.55496 -2.84966 L -3.55496 -2.58184 Z M -2.51319 -0.44443 L -1.58819 -0.44443 L -2.05069 0.48057 L -2.51319 -0.44443 Z" />
    <path d="M -3.55496 1.44328 L -3.55496 1.97992 L -3.28145 1.97992 L -3.28145 1.44328 L -3.55496 1.44328 Z" />
    <path d="M -3.55496 0.3701 L -3.55496 0.90663 L -3.28145 0.90663 L -3.28145 0.3701 L -3.55496 0.3701 Z" />
    <path d="M -3.55496 -0.70319 L -3.55496 -0.16655 L -3.28145 -0.16655 L -3.28145 -0.70319 L -3.55496 -0.70319 Z" />
    <path d="M -3.55496 -1.77637 L -3.55496 -1.23973 L -3.28145 -1.23973 L -3.28145 -1.77637 L -3.55496 -1.77637 Z" />
    <path d="M -3.55496 3.58974 L -3.55496 4 L -3.1447 4 L -3.1447 3.7265 L -3.28145 3.7265 L -3.28145 3.58974 L -3.55496 3.58974 Z" />
    <path d="M 3.14588 -3.79485 L 3.14588 -3.52134 L 3.28263 -3.52134 L 3.28263 -3.38459 L 3.55613 -3.38459 L 3.55613 -3.79485 L 3.14588 -3.79485 Z" />
</svg>