<svg version="1.1" xmlns="http://www.w3.org/2000/svg" viewBox="-3.733338519097103 -5.000000946666831 7.466677038194206 10.000001893333689" fill="black" stroke="none">
    <path d="M 1.40001 2.26667 L 2.46667 3.06667 L 2.46667 4 L 2.73334 4 L 2.73334 2.93334 L 1.40001 1.93334 L 1.40001 0.74897 L 2.72698 0.0822 L 2.72698 -3.99997 L 2.46032 -3.99997 L 2.46032 -2.11905 L -0.01144 -1.86665 L 2.46032 -1.86665 L 2.46032 -0.08217 L 1.40001 0.45043 L 1.40001 -0.33332 L 1.13334 -0.33332 L 1.13334 1.20001 L -0.03519 1.20001 L -0.09811 1.46668 L 1.13334 1.46668 L 1.13334 3 L 1.40001 3 L 1.40001 2.26667 Z" />
    <path d="M -0.06665 1.33334 L -0.50612 0.66774 L -0.86292 1.38134 L -0.06665 1.33334 Z" />
    <path d="M -2.73334 -3.99995 L -2.73328 -3.99995 L -2.73328 -4 L -2.73334 -4 L -2.73334 -3.99995 Z" />
    <path d="M -1.53331 -1.66665 L -1.53331 -0.12322 L -2.73331 -0.12322 L -2.73331 0.14345 L -1.53331 0.14345 L -1.53331 1.66667 L -1.26665 1.66667 L -1.26665 -1.66665 L -1.53331 -1.66665 Z" />
</svg>