<svg version="1.1" xmlns="http://www.w3.org/2000/svg" viewBox="-9.000000786666671 -5.000000893333336 18.000001573333343 10.000001786666672" fill="black" stroke="none">
    <path fill-rule="evenodd" d="M 4 -2.4 L 5.06667 -2.4 L 5.06667 -1.33333 L 5.6 -1.33333 L 5.6 -2.4 L 6.66667 -2.4 L 6.66667 -2.93333 L 5.6 -2.93333 L 5.6 -4 L 5.06667 -4 L 5.06667 -2.93333 L 4 -2.93333 L 4 -2.4 Z M 2.72 4 L 3.25333 4 L 3.25333 1.6 L 8 1.6 L 8 1.06667 L 3.25333 1.06667 L 3.25333 -1.33333 L 2.72 -1.33333 L 2.72 4 Z M 0.72 2.66667 L 1.25333 2.66667 L 1.25333 0 L 0.72 0 L 0.72 2.66667 Z M -1.28 4 L -0.74667 4 L -0.74667 -1.33333 L -1.28 -1.33333 L -1.28 4 Z M -8 1.6 L -3.28 1.6 L -3.28 2.66667 L -2.74667 2.66667 L -2.74667 0 L -3.28 0 L -3.28 1.06667 L -8 1.06667 L -8 1.6 Z M -6.66667 -2.4 L -4 -2.4 L -4 -2.93333 L -6.66667 -2.93333 L -6.66667 -2.4 Z" />
</svg>