<svg version="1.1" xmlns="http://www.w3.org/2000/svg" viewBox="-5.533334252740743 -5.00000092888889 11.066668505481484 10.00000185777778" fill="black" stroke="none">
    <path fill-rule="evenodd" d="M -2.5633 -1.60431 L -2.63965 -1.45229 L -2.79983 -0.99174 L -2.89921 -0.50615 L -2.93333 0 L -2.89921 0.50615 L -2.79983 0.99174 L -2.63965 1.45229 L -2.56547 1.6 L -4.53333 1.6 L -4.53333 1.95556 L -2.37436 1.95556 L -2.15481 2.28043 L -1.83907 2.63907 L -1.48043 2.95481 L -1.08335 3.22316 L -0.65229 3.43965 L -0.19174 3.59983 L 0.29385 3.69921 L 0.8 3.73333 L 1.30615 3.69921 L 1.79174 3.59983 L 2.25229 3.43965 L 2.68335 3.22316 L 3.08043 2.95481 L 3.43907 2.63907 L 3.75481 2.28043 L 4.02316 1.88335 L 4.17778 1.57549 L 4.17778 4 L 4.53333 4 L 4.53333 0 L 4.53333 -4 L 4.17778 -4 L 4.17778 -1.57549 L 4.02316 -1.88335 L 3.75481 -2.28043 L 3.43907 -2.63907 L 3.08043 -2.95481 L 2.68335 -3.22316 L 2.25229 -3.43965 L 1.79174 -3.59983 L 1.30615 -3.69921 L 0.8 -3.73333 L 0.29385 -3.69921 L -0.19174 -3.59983 L -0.65229 -3.43965 L -1.08335 -3.22316 L -1.48043 -2.95481 L -1.83907 -2.63907 L -2.15481 -2.28043 L -2.37145 -1.95986 L -4.53333 -1.95986 L -4.53333 -1.60431 L -2.5633 -1.60431 Z M 0.8 -3.37778 L 1.25879 -3.34698 L 1.69868 -3.25727 L 2.11567 -3.11263 L 2.50576 -2.91708 L 2.86495 -2.67461 L 3.18924 -2.38924 L 3.47461 -2.06495 L 3.71708 -1.70576 L 3.91263 -1.31567 L 4.05727 -0.89868 L 4.14698 -0.45879 L 4.17778 0 L 4.14698 0.45879 L 4.05727 0.89868 L 3.91263 1.31567 L 3.71708 1.70576 L 3.47461 2.06495 L 3.18924 2.38924 L 2.86495 2.67461 L 2.50576 2.91708 L 2.11567 3.11263 L 1.69868 3.25727 L 1.25879 3.34698 L 0.8 3.37778 L 0.34121 3.34698 L -0.09868 3.25727 L -0.51567 3.11263 L -0.90576 2.91708 L -1.26495 2.67461 L -1.58924 2.38924 L -1.87461 2.06495 L -2.11708 1.70576 L -2.31263 1.31567 L -2.45727 0.89868 L -2.54698 0.45879 L -2.57778 0 L -2.54698 -0.45879 L -2.45727 -0.89868 L -2.31263 -1.31567 L -2.11708 -1.70576 L -1.87461 -2.06495 L -1.58924 -2.38924 L -1.26495 -2.67461 L -0.90576 -2.91708 L -0.51567 -3.11263 L -0.09868 -3.25727 L 0.34121 -3.34698 L 0.8 -3.37778 Z" />
</svg>