<svg version="1.1" xmlns="http://www.w3.org/2000/svg" viewBox="-6.1384135584015596 -5.000000931487833 12.276827116803119 10.000001862975665" fill="black" stroke="none">
    <path fill-rule="evenodd" d="M -3.6529 -1.29479 L -3.89423 -1.05346 L -2.90423 -0.78832 L -3.16937 -1.77832 L -3.4107 -1.53699 L -4.58911 -2.7154 L -4.83131 -2.4732 L -3.6529 -1.29479 Z M -2.3683 -2.57939 L -2.60963 -2.33806 L -1.61963 -2.07292 L -1.88477 -3.06292 L -2.1261 -2.82159 L -3.30451 -4 L -3.54671 -3.7578 L -2.3683 -2.57939 Z M -3.15714 0.66003 L -5.13841 0.66003 L -5.13841 1.00259 L -3.15714 1.00259 L -3.13972 1.26086 L -3.05536 1.67297 L -2.91939 2.06385 L -2.73562 2.42971 L -2.50783 2.76674 L -2.23984 3.07115 L -1.93543 3.33915 L -1.59839 3.56693 L -1.23254 3.7507 L -0.84166 3.88667 L -0.42955 3.97103 L 0 4 L 0.42955 3.97103 L 0.84166 3.88667 L 1.23254 3.7507 L 1.59839 3.56693 L 1.93543 3.33915 L 2.23984 3.07115 L 2.50783 2.76674 L 2.73562 2.42971 L 2.91939 2.06385 L 3.05536 1.67297 L 3.13972 1.26086 L 3.15714 1.00259 L 5.13841 1.00259 L 5.13841 0.66003 L 3.15714 0.66003 L 3.13972 0.40177 L 3.05536 -0.01035 L 2.91939 -0.40123 L 2.73562 -0.76708 L 2.50783 -1.10411 L 2.23984 -1.40853 L 1.93543 -1.67652 L 1.59839 -1.90431 L 1.23254 -2.08808 L 0.84166 -2.22405 L 0.42955 -2.30841 L 0 -2.33738 L -0.42955 -2.30841 L -0.84166 -2.22405 L -1.23254 -2.08808 L -1.59839 -1.90431 L -1.93543 -1.67652 L -2.23984 -1.40853 L -2.50783 -1.10411 L -2.73562 -0.76708 L -2.91939 -0.40123 L -3.05536 -0.01035 L -3.13972 0.40177 L -3.15714 0.66003 Z M -2.81463 1.00259 L -0.80502 1.00259 L -0.80502 1.68771 L -0.46246 1.68771 L -0.46246 -0.02509 L -0.80502 -0.02509 L -0.80502 0.66003 L -2.81463 0.66003 L -2.80037 0.4474 L -2.72532 0.07931 L -2.60432 -0.2696 L -2.44073 -0.59599 L -2.23788 -0.89651 L -1.99913 -1.16782 L -1.72782 -1.40657 L -1.4273 -1.60942 L -1.10091 -1.77301 L -0.752 -1.894 L -0.38391 -1.96905 L 0 -1.99481 L 0.38391 -1.96905 L 0.752 -1.894 L 1.10091 -1.77301 L 1.4273 -1.60942 L 1.72782 -1.40657 L 1.99913 -1.16782 L 2.23788 -0.89651 L 2.44073 -0.59599 L 2.60432 -0.2696 L 2.72532 0.07931 L 2.80037 0.4474 L 2.81463 0.66003 L 0.80502 0.66003 L 0.80502 -0.88149 L 0.46246 -0.88149 L 0.46246 2.54412 L 0.80502 2.54412 L 0.80502 1.00259 L 2.81463 1.00259 L 2.80037 1.21523 L 2.72532 1.58331 L 2.60432 1.93222 L 2.44073 2.25861 L 2.23788 2.55914 L 1.99913 2.83045 L 1.72782 3.0692 L 1.4273 3.27204 L 1.10091 3.43563 L 0.752 3.55663 L 0.38391 3.63168 L 0 3.65744 L -0.38391 3.63168 L -0.752 3.55663 L -1.10091 3.43563 L -1.4273 3.27204 L -1.72782 3.0692 L -1.99913 2.83045 L -2.23788 2.55914 L -2.44073 2.25861 L -2.60432 1.93222 L -2.72532 1.58331 L -2.80037 1.21523 L -2.81463 1.00259 Z" />
</svg>