<svg version="1.1" xmlns="http://www.w3.org/2000/svg" viewBox="-6.55093879208341 -5.000000925987504 13.10187758416682 10.000001851974993" fill="black" stroke="none">
    <path fill-rule="evenodd" d="M -3.88566 -4 L -3.88566 -3.70063 L -3.88566 -0.18503 L -5.55094 -0.18503 L -5.55094 0.18503 L -3.88566 0.18503 L -3.88566 4 L 3.74428 0.18503 L 5.55094 0.18503 L 5.55094 -0.18503 L 3.74428 -0.18503 L -3.88566 -4 Z M -3.51559 -3.40125 L 3.28691 0 L -3.51559 3.40125 L -3.51559 -3.40125 Z M -0.27755 -0.49958 L 0.70312 -0.49958 L 0.70312 -0.86965 L -1.81331 -0.86965 L -1.81331 0.51809 L -2.77547 0.51809 L -2.77547 0.88815 L -0.27755 0.88815 L -0.27755 -0.49958 Z M -1.44324 0.51809 L -1.44324 -0.49958 L -0.64761 -0.49958 L -0.64761 0.51809 L -1.44324 0.51809 Z" />
</svg>