<svg version="1.1" xmlns="http://www.w3.org/2000/svg" viewBox="-8.500000812500005 -5.0000009000000025 17.00000162500001 10.000001800000005" fill="black" stroke="none">
    <path fill-rule="evenodd" d="M -7.5 0.25 L -5.25 0.25 L -5.25 2.125 L -2.09635 2.125 L -3.24219 3.5 L -6.25 3.5 L -6.25 4 L -3.00781 4 L -1.44531 2.125 L 5.25 2.125 L 5.25 0.25 L 7.5 0.25 L 7.5 -0.25 L 5.25 -0.25 L 5.25 -2.125 L 2.09635 -2.125 L 3.24219 -3.5 L 6.25 -3.5 L 6.25 -4 L 3.00781 -4 L 1.44531 -2.125 L -5.25 -2.125 L -5.25 -0.25 L -7.5 -0.25 L -7.5 0.25 Z M -4.75 1.625 L -4.75 -1.625 L 4.75 -1.625 L 4.75 1.625 L -4.75 1.625 Z" />
</svg>