<svg version="1.1" xmlns="http://www.w3.org/2000/svg" viewBox="-11.909 -5 23.818 10" fill="black" stroke="none"><path fill-rule="evenodd" d="M 4.851 3.1 L 10.909 3.1 L 10.909 2.372 L 4.857 2.372 L 4.808 2.234 L 4.734 2.087 L 4.643 1.951 L 4.535 1.829 L 4.412 1.721 L 4.277 1.629 L 4.13 1.555 L 3.973 1.5 L 3.808 1.466 L 3.636 1.455 L 3.465 1.466 L 3.3 1.5 L 3.143 1.555 L 2.996 1.629 L 2.86 1.721 L 2.738 1.829 L 2.63 1.951 L 2.538 2.087 L 2.464 2.234 L 2.409 2.39 L 2.375 2.555 L 2.364 2.727 L 2.375 2.899 L 2.409 3.064 L 2.464 3.221 L 2.538 3.368 L 2.63 3.503 L 2.738 3.626 L 2.86 3.733 L 2.996 3.825 L 3.143 3.899 L 3.3 3.954 L 3.465 3.988 L 3.636 4 L 3.808 3.988 L 3.973 3.954 L 4.13 3.899 L 4.277 3.825 L 4.412 3.733 L 4.535 3.626 L 4.643 3.503 L 4.734 3.368 L 4.808 3.221 L 4.851 3.1 Z M 3.091 2.727 L 3.096 2.652 L 3.11 2.581 L 3.133 2.513 L 3.164 2.45 L 3.203 2.392 L 3.249 2.34 L 3.301 2.294 L 3.359 2.255 L 3.422 2.224 L 3.49 2.201 L 3.561 2.187 L 3.636 2.182 L 3.711 2.187 L 3.783 2.201 L 3.85 2.224 L 3.914 2.255 L 3.972 2.294 L 4.024 2.34 L 4.069 2.392 L 4.108 2.45 L 4.14 2.513 L 4.163 2.581 L 4.177 2.652 L 4.182 2.727 L 4.177 2.802 L 4.163 2.874 L 4.14 2.941 L 4.108 3.004 L 4.069 3.062 L 4.024 3.115 L 3.972 3.16 L 3.914 3.199 L 3.85 3.23 L 3.783 3.254 L 3.711 3.268 L 3.636 3.273 L 3.561 3.268 L 3.49 3.254 L 3.422 3.23 L 3.359 3.199 L 3.301 3.16 L 3.249 3.115 L 3.203 3.062 L 3.164 3.004 L 3.133 2.941 L 3.11 2.874 L 3.096 2.802 L 3.091 2.727 Z M -4.857 3.082 L -4.808 3.221 L -4.734 3.368 L -4.643 3.503 L -4.535 3.626 L -4.412 3.733 L -4.277 3.825 L -4.13 3.899 L -3.973 3.954 L -3.808 3.988 L -3.636 4 L -3.465 3.988 L -3.3 3.954 L -3.143 3.899 L -2.996 3.825 L -2.86 3.733 L -2.738 3.626 L -2.63 3.503 L -2.538 3.368 L -2.464 3.221 L -2.409 3.064 L -2.375 2.899 L -2.364 2.727 L -2.375 2.555 L -2.409 2.39 L -2.464 2.234 L -2.538 2.087 L -2.63 1.951 L -2.738 1.829 L -2.86 1.721 L -2.996 1.629 L -3.143 1.555 L -3.3 1.5 L -3.465 1.466 L -3.636 1.455 L -3.808 1.466 L -3.973 1.5 L -4.13 1.555 L -4.277 1.629 L -4.412 1.721 L -4.535 1.829 L -4.643 1.951 L -4.734 2.087 L -4.808 2.234 L -4.851 2.355 L -10.909 2.355 L -10.909 3.082 L -4.857 3.082 Z M -4.182 2.727 L -4.177 2.652 L -4.163 2.581 L -4.14 2.513 L -4.108 2.45 L -4.069 2.392 L -4.024 2.34 L -3.972 2.294 L -3.914 2.255 L -3.85 2.224 L -3.783 2.201 L -3.711 2.187 L -3.636 2.182 L -3.561 2.187 L -3.49 2.201 L -3.422 2.224 L -3.359 2.255 L -3.301 2.294 L -3.249 2.34 L -3.203 2.392 L -3.164 2.45 L -3.133 2.513 L -3.11 2.581 L -3.096 2.652 L -3.091 2.727 L -3.096 2.802 L -3.11 2.874 L -3.133 2.941 L -3.164 3.004 L -3.203 3.062 L -3.249 3.115 L -3.301 3.16 L -3.359 3.199 L -3.422 3.23 L -3.49 3.254 L -3.561 3.268 L -3.636 3.273 L -3.711 3.268 L -3.783 3.254 L -3.85 3.23 L -3.914 3.199 L -3.972 3.16 L -4.024 3.115 L -4.069 3.062 L -4.108 3.004 L -4.14 2.941 L -4.163 2.874 L -4.177 2.802 L -4.182 2.727 Z M -5.455 -0.545 L 5.455 -0.545 L 5.455 -1.273 L 0.364 -1.273 L 0.364 -3.273 L 1.818 -3.273 L 1.818 -4 L -1.818 -4 L -1.818 -3.273 L -0.364 -3.273 L -0.364 -1.273 L -5.455 -1.273 L -5.455 -0.545 Z" /></svg>