<svg version="1.1" xmlns="http://www.w3.org/2000/svg" viewBox="-6.895788127967726 -5.000000921389505 13.791576255935452 10.00000184277901" fill="black" stroke="none">
    <path fill-rule="evenodd" d="M -5.89579 0.12229 L -3.43921 0.12229 L -3.25758 0.00069 L -2.66999 -1.42505 L -1.87931 1.53193 L -4.06947 3.7221 L -3.79157 4 L -1.73818 1.94661 L -1.38873 1.94661 L -1.26092 1.46934 L -0.10183 0.31026 L 0.33609 1.94661 L 0.71563 1.94692 L 1.5785 -1.25016 L 2.44061 1.94692 L 2.81201 1.97057 L 3.57079 0.12705 L 5.89579 0.12705 L 5.89579 -0.266 L 3.43921 -0.266 L 3.25742 -0.14425 L 2.66907 1.28517 L 1.87365 -1.66522 L 2.86949 -2.66106 L 3.42349 -2.10706 L 3.93052 -4 L 2.03758 -3.49296 L 2.59159 -2.93896 L 1.7087 -2.05608 L 1.38873 -2.05608 L 1.27047 -1.61784 L 0.1018 -0.44918 L -0.33609 -2.08556 L -0.71579 -2.08556 L -1.57835 1.13563 L -2.44046 -2.08786 L -2.81201 -2.11197 L -3.57079 -0.27076 L -5.89579 -0.27076 L -5.89579 0.12229 Z M 0.21913 -0.01071 L 1.06503 -0.8566 L 0.52663 1.13839 L 0.21913 -0.01071 Z M -1.05762 0.71024 L -0.52601 -1.27473 L -0.21918 -0.1282 L -1.05762 0.71024 Z" />
</svg>