<svg version="1.1" xmlns="http://www.w3.org/2000/svg" viewBox="-5.715125817346511 -5.000000937131879 11.430251634692993 10.000001874263758" fill="black" stroke="none">
    <path d="M 1.41455 3.33108 L 1.41455 4 L 4.71512 4 L 4.71512 3.68566 L 1.72889 3.68566 L 1.72889 3.42538 L 2.31238 3.60044 L 2.40276 3.29936 L 1.72889 3.15252 L 1.72889 2.66405 L 1.41455 2.66405 L 1.41455 3.08402 L -1.59453 2.4283 L 1.41455 3.33108 Z" />
    <path d="M 1.57172 0.55797 L 1.57172 0.87231 L 4.71512 0.87231 L 4.71512 0.55797 L 1.57172 0.55797 Z" />
    <path d="M -0.15715 1.89392 L -0.15715 2.20826 L 0.15719 2.20826 L 0.15719 1.89392 L -0.15715 1.89392 Z" />
    <path d="M -0.15715 1.26524 L -0.15715 1.57958 L 0.15719 1.57958 L 0.15719 1.26524 L -0.15715 1.26524 Z" />
    <path d="M -0.15715 0.63656 L -0.15715 0.9509 L 0.15719 0.9509 L 0.15719 0.63656 L -0.15715 0.63656 Z" />
    <path d="M -0.15715 0.00787 L -0.15715 0.32221 L 0.15719 0.32221 L 0.15719 0.00787 L -0.15715 0.00787 Z" />
    <path d="M -0.15715 -0.62081 L -0.15715 -0.30647 L 0.15719 -0.30647 L 0.15719 -0.62081 L -0.15715 -0.62081 Z" />
    <path fill-rule="evenodd" d="M -0.15715 -1.09232 L -0.15715 -0.93515 L 0.15719 -0.93515 L 0.15719 -1.09232 L 0.94304 -1.09232 L 0.94304 -2.2711 L 4.71512 -2.2711 L 4.71512 -2.58544 L 0.94304 -2.58544 L 0.94304 -3.76421 L -0.94301 -3.76421 L -0.94301 -3.60704 L -0.94301 -2.58544 L -4.71509 -2.58544 L -4.71509 -2.2711 L -0.94301 -2.2711 L -0.94301 -1.09232 L -0.15715 -1.09232 Z M -0.62867 -3.44987 L 0.6287 -3.44987 L 0.6287 -1.40666 L -0.62867 -1.40666 L -0.62867 -3.44987 Z" />
    <path d="M -4.71512 -3.99994 L -4.71506 -3.99994 L -4.71506 -4 L -4.71512 -4 L -4.71512 -3.99994 Z" />
</svg>