<svg version="1.1" xmlns="http://www.w3.org/2000/svg" viewBox="-5.615385544378699 -5.00000093846154 11.230771088757399 10.00000187692308" fill="black" stroke="none">
    <path d="M -3.23077 1.38462 L -4.61538 1.38462 L -4.61538 1.69231 L -3.23077 1.69231 L -3.23077 1.38462 Z" />
    <path d="M -2.92308 0.67416 L -2.92308 -3.69231 L 2.92308 -3.69231 L 2.92308 3.69231 L -2.92308 3.69231 L -2.92308 2.40276 L -3.23077 2.55661 L -3.23077 4 L 3.23077 4 L 3.23077 1.69231 L 4.61538 1.69231 L 4.61538 1.38462 L 3.23077 1.38462 L 3.23077 -1.38462 L 4.61538 -1.38462 L 4.61538 -1.69231 L 3.23077 -1.69231 L 3.23077 -4 L -3.23077 -4 L -3.23077 -3.84615 L -3.23077 -1.69231 L -4.61538 -1.69231 L -4.61538 -1.38462 L -3.23077 -1.38462 L -3.23077 0.52031 L -2.92308 0.67416 Z" />
</svg>