<svg version="1.1" xmlns="http://www.w3.org/2000/svg" viewBox="-7.956522577819791 -5.000000907246379 15.913045155639582 10.000001814492759" fill="black" stroke="none">
    <path fill-rule="evenodd" d="M 3.09331 3.42591 L 6.95652 3.42591 L 6.95652 2.96214 L 3.09724 2.96214 L 3.06627 2.87366 L 3.01902 2.78 L 2.96049 2.69363 L 2.89169 2.61555 L 2.81361 2.54675 L 2.72725 2.48823 L 2.63359 2.44098 L 2.53364 2.40599 L 2.42839 2.38427 L 2.31884 2.37681 L 2.20929 2.38427 L 2.10404 2.40599 L 2.00409 2.44098 L 1.91043 2.48823 L 1.82407 2.54675 L 1.74599 2.61555 L 1.67719 2.69363 L 1.61866 2.78 L 1.57141 2.87366 L 1.53643 2.97361 L 1.51471 3.07885 L 1.50725 3.18841 L 1.51471 3.29796 L 1.53643 3.40321 L 1.57141 3.50316 L 1.61866 3.59681 L 1.67719 3.68318 L 1.74599 3.76126 L 1.82407 3.83006 L 1.91043 3.88858 L 2.00409 3.93583 L 2.10404 3.97082 L 2.20929 3.99254 L 2.31884 4 L 2.42839 3.99254 L 2.53364 3.97082 L 2.63359 3.93583 L 2.72725 3.88858 L 2.81361 3.83006 L 2.89169 3.76126 L 2.96049 3.68318 L 3.01902 3.59681 L 3.06627 3.50316 L 3.09331 3.42591 Z M 2.31884 2.84058 L 2.36662 2.8437 L 2.41226 2.85281 L 2.45539 2.86753 L 2.49562 2.88746 L 2.53255 2.91222 L 2.56582 2.94143 L 2.59503 2.97469 L 2.61979 3.01163 L 2.63972 3.05186 L 2.65443 3.09499 L 2.66354 3.14063 L 2.66667 3.18841 L 2.66354 3.23618 L 2.65443 3.28183 L 2.63972 3.32495 L 2.61979 3.36518 L 2.59503 3.40212 L 2.56582 3.43539 L 2.53255 3.46459 L 2.49562 3.48935 L 2.45539 3.50928 L 2.41226 3.524 L 2.36662 3.53311 L 2.31884 3.53623 L 2.27107 3.53311 L 2.22542 3.524 L 2.18229 3.50928 L 2.14207 3.48935 L 2.10513 3.46459 L 2.07186 3.43539 L 2.04265 3.40212 L 2.01789 3.36518 L 1.99796 3.32495 L 1.98325 3.28183 L 1.97414 3.23618 L 1.97101 3.18841 L 1.97414 3.14063 L 1.98325 3.09499 L 1.99796 3.05186 L 2.01789 3.01163 L 2.04265 2.97469 L 2.07186 2.94143 L 2.10513 2.91222 L 2.14207 2.88746 L 2.18229 2.86753 L 2.22542 2.85281 L 2.27107 2.8437 L 2.31884 2.84058 Z" />
    <path d="M 2.89855 -1.67554 L 2.89855 -1.21178 L 6.95652 -1.21178 L 6.95652 -1.67554 L 2.89855 -1.67554 Z" />
    <path d="M -6.95652 -1.68678 L -6.95652 -1.22301 L -2.89855 -1.22301 L -2.89855 -1.68678 L -6.95652 -1.68678 Z" />
    <path d="M -1.15942 -4 L -1.15942 -3.53623 L -0.23188 -3.53623 L -0.23188 -0.52174 L -3.47826 -0.52174 L -3.47826 -0.05797 L 3.47826 -0.05797 L 3.47826 -0.52174 L 0.23188 -0.52174 L 0.23188 -3.53623 L 1.15942 -3.53623 L 1.15942 -4 L -1.15942 -4 Z" />
    <path fill-rule="evenodd" d="M -3.09724 3.41467 L -3.06627 3.50316 L -3.01902 3.59681 L -2.96049 3.68318 L -2.89169 3.76126 L -2.81361 3.83006 L -2.72725 3.88858 L -2.63359 3.93583 L -2.53364 3.97082 L -2.42839 3.99254 L -2.31884 4 L -2.20929 3.99254 L -2.10404 3.97082 L -2.00409 3.93583 L -1.91043 3.88858 L -1.82407 3.83006 L -1.74599 3.76126 L -1.67719 3.68318 L -1.61866 3.59681 L -1.57141 3.50316 L -1.53643 3.40321 L -1.51471 3.29796 L -1.50725 3.18841 L -1.51471 3.07885 L -1.53643 2.97361 L -1.57141 2.87366 L -1.61866 2.78 L -1.67719 2.69363 L -1.74599 2.61555 L -1.82407 2.54675 L -1.91043 2.48823 L -2.00409 2.44098 L -2.10404 2.40599 L -2.20929 2.38427 L -2.31884 2.37681 L -2.42839 2.38427 L -2.53364 2.40599 L -2.63359 2.44098 L -2.72725 2.48823 L -2.81361 2.54675 L -2.89169 2.61555 L -2.96049 2.69363 L -3.01902 2.78 L -3.06627 2.87366 L -3.09331 2.95091 L -6.95652 2.95091 L -6.95652 3.41467 L -3.09724 3.41467 Z M -2.31884 2.84058 L -2.27107 2.8437 L -2.22542 2.85281 L -2.18229 2.86753 L -2.14207 2.88746 L -2.10513 2.91222 L -2.07186 2.94143 L -2.04265 2.97469 L -2.01789 3.01163 L -1.99796 3.05186 L -1.98325 3.09499 L -1.97414 3.14063 L -1.97101 3.18841 L -1.97414 3.23618 L -1.98325 3.28183 L -1.99796 3.32495 L -2.01789 3.36518 L -2.04265 3.40212 L -2.07186 3.43539 L -2.10513 3.46459 L -2.14207 3.48935 L -2.18229 3.50928 L -2.22542 3.524 L -2.27107 3.53311 L -2.31884 3.53623 L -2.36662 3.53311 L -2.41226 3.524 L -2.45539 3.50928 L -2.49562 3.48935 L -2.53255 3.46459 L -2.56582 3.43539 L -2.59503 3.40212 L -2.61979 3.36518 L -2.63972 3.32495 L -2.65443 3.28183 L -2.66354 3.23618 L -2.66667 3.18841 L -2.66354 3.14063 L -2.65443 3.09499 L -2.63972 3.05186 L -2.61979 3.01163 L -2.59503 2.97469 L -2.56582 2.94143 L -2.53255 2.91222 L -2.49562 2.88746 L -2.45539 2.86753 L -2.41226 2.85281 L -2.36662 2.8437 L -2.31884 2.84058 Z" />
</svg>