<svg version="1.1" xmlns="http://www.w3.org/2000/svg" viewBox="-8.5 -5 17 10" fill="black" stroke="none"><path fill-rule="evenodd" d="M 3.963 0.586 L 3.963 0.586 L 4.048 0.713 L 4.149 0.827 L 4.263 0.928 L 4.39 1.013 L 4.527 1.082 L 4.673 1.133 L 4.827 1.165 L 4.988 1.176 L 5.149 1.165 L 5.303 1.133 L 5.449 1.082 L 5.586 1.013 L 5.713 0.928 L 5.827 0.827 L 5.928 0.713 L 6.013 0.586 L 6.082 0.449 L 6.133 0.303 L 6.144 0.25 L 7.5 0.25 L 7.5 -0.25 L 6.149 -0.25 L 6.133 -0.327 L 6.082 -0.473 L 6.013 -0.61 L 5.928 -0.737 L 5.827 -0.851 L 5.713 -0.952 L 5.586 -1.037 L 5.449 -1.106 L 5.303 -1.157 L 5.149 -1.189 L 4.988 -1.2 L 4.827 -1.189 L 4.673 -1.157 L 4.527 -1.106 L 4.39 -1.037 L 4.263 -0.952 L 4.149 -0.851 L 4.048 -0.737 L 3.963 -0.61 L 3.96 -0.605 L 3.918 -0.906 L 3.82 -1.306 L 3.687 -1.671 L 3.523 -2.004 L 3.33 -2.306 L 3.112 -2.576 L 2.87 -2.818 L 2.609 -3.031 L 2.33 -3.217 L 2.038 -3.378 L 1.733 -3.513 L 1.421 -3.627 L 1.102 -3.721 L 0.78 -3.798 L 0.457 -3.859 L 0.135 -3.907 L -0.183 -3.942 L -0.494 -3.967 L -0.797 -3.984 L -1.089 -3.993 L -1.368 -3.998 L -1.631 -4 L -1.875 -4 L -4.625 -4 L -4.625 -2.769 L -7.5 -2.769 L -7.5 -2.269 L -4.625 -2.269 L -4.625 2.256 L -7.5 2.256 L -7.5 2.756 L -4.625 2.756 L -4.625 4 L -1.875 4 L -1.631 4 L -1.368 3.998 L -1.089 3.993 L -0.797 3.984 L -0.494 3.967 L -0.183 3.942 L 0.135 3.907 L 0.457 3.859 L 0.78 3.798 L 1.102 3.721 L 1.421 3.627 L 1.733 3.513 L 2.038 3.378 L 2.33 3.217 L 2.609 3.031 L 2.87 2.818 L 3.112 2.576 L 3.33 2.306 L 3.523 2.004 L 3.687 1.671 L 3.82 1.306 L 3.918 0.906 L 3.963 0.586 Z M 4.3 -0.012 L 4.306 -0.106 L 4.324 -0.196 L 4.354 -0.281 L 4.393 -0.36 L 4.442 -0.434 L 4.5 -0.5 L 4.566 -0.558 L 4.639 -0.607 L 4.719 -0.646 L 4.804 -0.676 L 4.894 -0.694 L 4.988 -0.7 L 5.082 -0.694 L 5.172 -0.676 L 5.257 -0.646 L 5.337 -0.607 L 5.41 -0.558 L 5.476 -0.5 L 5.534 -0.434 L 5.583 -0.36 L 5.622 -0.281 L 5.652 -0.196 L 5.67 -0.106 L 5.676 -0.012 L 5.67 0.082 L 5.652 0.172 L 5.622 0.257 L 5.583 0.337 L 5.534 0.41 L 5.476 0.476 L 5.41 0.534 L 5.337 0.583 L 5.257 0.622 L 5.172 0.652 L 5.082 0.67 L 4.988 0.676 L 4.894 0.67 L 4.804 0.652 L 4.719 0.622 L 4.639 0.583 L 4.566 0.534 L 4.5 0.476 L 4.442 0.41 L 4.393 0.337 L 4.354 0.257 L 4.324 0.172 L 4.306 0.082 L 4.3 -0.012 Z M -4.125 3.5 L -4.125 -3.5 L -1.875 -3.5 L -1.632 -3.5 L -1.373 -3.497 L -1.1 -3.492 L -0.817 -3.482 L -0.525 -3.465 L -0.227 -3.441 L 0.074 -3.407 L 0.376 -3.363 L 0.677 -3.307 L 0.975 -3.236 L 1.266 -3.151 L 1.548 -3.049 L 1.819 -2.93 L 2.077 -2.794 L 2.32 -2.638 L 2.546 -2.46 L 2.753 -2.258 L 2.939 -2.03 L 3.102 -1.774 L 3.24 -1.488 L 3.351 -1.17 L 3.432 -0.817 L 3.483 -0.428 L 3.5 0 L 3.483 0.428 L 3.432 0.817 L 3.351 1.17 L 3.24 1.488 L 3.102 1.774 L 2.939 2.03 L 2.753 2.258 L 2.546 2.46 L 2.32 2.638 L 2.077 2.794 L 1.819 2.93 L 1.548 3.049 L 1.266 3.151 L 0.975 3.236 L 0.677 3.307 L 0.376 3.363 L 0.074 3.407 L -0.227 3.441 L -0.525 3.465 L -0.817 3.482 L -1.1 3.492 L -1.373 3.497 L -1.632 3.5 L -1.875 3.5 L -4.125 3.5 Z" /></svg>