<svg version="1.1" xmlns="http://www.w3.org/2000/svg" viewBox="-5.7288436806137355 -5.000000936948974 11.457687361227443 10.000001873897949" fill="black" stroke="none">
    <path d="M 1.96542 3.68474 L 1.57629 3.09327 L 1.18716 3.68474 L 1.18222 3.68474 L 1.18222 3.69226 L 1.18222 4 L 4.72884 4 L 4.72884 3.68474 L 1.96542 3.68474 Z" />
    <path d="M -0.16512 2.54158 L -0.16512 2.6992 L 0.15013 2.6992 L 0.15013 2.54158 L -0.16512 2.54158 Z" />
    <path d="M -0.16512 1.92055 L -0.16512 2.22952 L 0.15013 2.22952 L 0.15013 1.92055 L -0.16512 1.92055 Z" />
    <path d="M -0.16512 1.3026 L -0.16512 1.61157 L 0.15013 1.61157 L 0.15013 1.3026 L -0.16512 1.3026 Z" />
    <path d="M -0.16512 0.68477 L -0.16512 0.99362 L 0.15013 0.99362 L 0.15013 0.68477 L -0.16512 0.68477 Z" />
    <path d="M -0.16512 0.06682 L -0.16512 0.3758 L 0.15013 0.3758 L 0.15013 0.06682 L -0.16512 0.06682 Z" />
    <path d="M -0.16512 -0.55113 L -0.16512 -0.24215 L 0.15013 -0.24215 L 0.15013 -0.55113 L -0.16512 -0.55113 Z" />
    <path d="M -0.16512 -1.16895 L -0.16512 -0.85998 L 0.15013 -0.85998 L 0.15013 -1.16895 L -0.16512 -1.16895 Z" />
    <path d="M -4.72884 -3.99994 L -4.72878 -3.99994 L -4.72878 -4 L -4.72884 -4 L -4.72884 -3.99994 Z" />
    <path d="M 1.96493 0.92626 L 1.57629 1.517 L 1.18765 0.92626 L 1.18222 0.92626 L 1.18222 0.91801 L 1.18222 0.61101 L 4.72884 0.61101 L 4.72884 0.92626 L 1.96493 0.92626 Z" />
    <path fill-rule="evenodd" d="M 0.15013 -1.47793 L 3.31019 -1.47793 L 3.31019 -2.26607 L 4.72884 -2.26607 L 4.72884 -2.58132 L 3.31019 -2.58132 L 3.31019 -3.36946 L -3.31016 -3.36946 L -3.31016 -3.21183 L -3.31016 -2.59327 L -4.72881 -2.59327 L -4.72881 -2.27801 L -3.31016 -2.27801 L -3.31016 -1.47793 L -0.16512 -1.47793 L -0.16512 -1.63555 L 0.15013 -1.63555 L 0.15013 -1.47793 Z M -2.99491 -3.0542 L 2.99494 -3.0542 L 2.99494 -1.79318 L -2.99491 -1.79318 L -2.99491 -3.0542 Z" />
    <path d="M -4.72881 2.12793 L -4.72881 2.44318 L -3.15254 2.44318 L -3.15254 2.12793 L -4.72881 2.12793 Z" />
</svg>