<svg version="1.1" xmlns="http://www.w3.org/2000/svg" viewBox="-6.369122294864533 -5.000000928411954 12.738244589729039 10.000001856823909" fill="black" stroke="none">
    <path d="M -0.17895 3.4094 L -0.17895 3.58837 L 0.17899 3.58837 L 0.17899 3.4094 L -0.17895 3.4094 Z" />
    <path fill-rule="evenodd" d="M -3.7377 3.31558 L -3.73583 3.32463 L -3.70883 3.40177 L -3.67236 3.47405 L -3.62719 3.54071 L -3.57409 3.60097 L -3.51383 3.65407 L -3.44717 3.69924 L -3.37489 3.73571 L -3.29774 3.76271 L -3.21651 3.77948 L -3.13196 3.78524 L -3.04741 3.77948 L -2.96617 3.76271 L -2.88903 3.73571 L -2.81675 3.69924 L -2.75009 3.65407 L -2.68983 3.60097 L -2.63673 3.54071 L -2.59156 3.47405 L -2.55509 3.40177 L -2.52809 3.32463 L -2.51132 3.24339 L -2.50556 3.15884 L -2.51132 3.07429 L -2.52809 2.99306 L -2.55509 2.91591 L -2.59156 2.84363 L -2.63673 2.77697 L -2.68983 2.71671 L -2.75009 2.66361 L -2.81675 2.61844 L -2.88903 2.58197 L -2.96617 2.55497 L -3.04741 2.5382 L -3.13196 2.53244 L -3.21651 2.5382 L -3.29774 2.55497 L -3.37489 2.58197 L -3.44717 2.61844 L -3.51383 2.66361 L -3.57409 2.71671 L -3.62719 2.77697 L -3.67236 2.84363 L -3.70883 2.91591 L -3.72344 2.95764 L -5.36909 2.95764 L -5.36909 3.31558 L -3.7377 3.31558 Z M -3.13196 2.89039 L -3.09509 2.8928 L -3.05986 2.89983 L -3.02657 2.91118 L -2.99552 2.92657 L -2.96701 2.94568 L -2.94134 2.96822 L -2.9188 2.99389 L -2.89968 3.0224 L -2.8843 3.05345 L -2.87295 3.08674 L -2.86591 3.12197 L -2.8635 3.15884 L -2.86591 3.19571 L -2.87295 3.23094 L -2.8843 3.26423 L -2.89968 3.29528 L -2.9188 3.32379 L -2.94134 3.34946 L -2.96701 3.372 L -2.99552 3.39111 L -3.02657 3.4065 L -3.05986 3.41785 L -3.09509 3.42489 L -3.13196 3.4273 L -3.16883 3.42489 L -3.20406 3.41785 L -3.23735 3.4065 L -3.2684 3.39111 L -3.29691 3.372 L -3.32258 3.34946 L -3.34512 3.32379 L -3.36423 3.29528 L -3.37962 3.26423 L -3.39097 3.23094 L -3.398 3.19571 L -3.40041 3.15884 L -3.398 3.12197 L -3.39097 3.08674 L -3.37962 3.05345 L -3.36423 3.0224 L -3.34512 2.99389 L -3.32258 2.96822 L -3.29691 2.94568 L -3.2684 2.92657 L -3.23735 2.91118 L -3.20406 2.89983 L -3.16883 2.8928 L -3.13196 2.89039 Z" />
    <path d="M 2.23098 3.32928 L 1.78972 4 L 1.34846 3.32928 L 1.34229 3.32928 L 1.34229 3.31991 L 1.34229 2.97134 L 5.36912 2.97134 L 5.36912 3.32928 L 2.23098 3.32928 Z" />
    <path d="M -5.36912 -3.99993 L -5.36905 -3.99993 L -5.36905 -4 L -5.36912 -4 L -5.36912 -3.99993 Z" />
    <path fill-rule="evenodd" d="M -0.17895 0.65326 L 0.17899 0.65326 L 3.75839 0.65326 L 3.75839 -0.24159 L 5.36912 -0.24159 L 5.36912 -0.59953 L 3.75839 -0.59953 L 3.75839 -1.49438 L -3.75835 -1.49438 L -3.75835 -1.31541 L -3.75835 -0.61309 L -5.36909 -0.61309 L -5.36909 -0.25515 L -3.75835 -0.25515 L -3.75835 0.65326 L -0.17895 0.65326 Z M -3.40041 -1.13644 L 3.40045 -1.13644 L 3.40045 0.29532 L -3.40041 0.29532 L -3.40041 -1.13644 Z" />
    <path d="M -0.17895 2.62193 L -0.17895 3.01566 L 0.17899 3.01566 L 0.17899 2.62193 L -0.17895 2.62193 Z" />
    <path d="M -0.17895 1.04699 L -0.17895 1.44073 L 0.17899 1.44073 L 0.17899 1.04699 L -0.17895 1.04699 Z" />
    <path d="M -0.17895 1.83446 L -0.17895 2.2282 L 0.17899 2.2282 L 0.17899 1.83446 L -0.17895 1.83446 Z" />
</svg>