<svg version="1.1" xmlns="http://www.w3.org/2000/svg" viewBox="-26.125 -5 52.249 10" fill="black" stroke="none"><path d="M -5.232 -4 L -5.916 -3.964 L -6.551 -3.862 L -7.138 -3.699 L -7.678 -3.482 L -8.173 -3.217 L -8.624 -2.911 L -9.032 -2.569 L -9.398 -2.199 L -9.724 -1.805 L -10.011 -1.396 L -10.259 -0.976 L -10.471 -0.553 L -10.682 -0.974 L -10.931 -1.392 L -11.217 -1.799 L -11.543 -2.19 L -11.909 -2.558 L -12.316 -2.898 L -12.766 -3.202 L -13.26 -3.466 L -13.8 -3.681 L -14.385 -3.843 L -15.019 -3.944 L -15.701 -3.98 L -16.413 -3.941 L -17.073 -3.83 L -17.681 -3.654 L -18.24 -3.419 L -18.75 -3.134 L -19.213 -2.805 L -19.629 -2.439 L -20 -2.044 L -20.327 -1.626 L -20.611 -1.194 L -20.854 -0.753 L -21.056 -0.311 L -21.162 -0.046 L -21.255 0.212 L -21.338 0.462 L -21.41 0.703 L -21.472 0.937 L -21.526 1.163 L -21.571 1.379 L -21.61 1.587 L -21.642 1.786 L -21.669 1.975 L -21.69 2.155 L -21.708 2.325 L -25.125 2.325 L -25.125 4 L -20.937 4 L -20.883 3.998 L -20.828 3.993 L -20.774 3.984 L -20.721 3.971 L -20.668 3.956 L -20.617 3.936 L -20.567 3.914 L -20.519 3.888 L -20.472 3.859 L -20.427 3.827 L -20.385 3.792 L -20.345 3.755 L -20.308 3.715 L -20.273 3.672 L -20.241 3.628 L -20.212 3.581 L -20.186 3.533 L -20.164 3.483 L -20.144 3.432 L -20.128 3.379 L -20.116 3.326 L -20.107 3.272 L -20.102 3.217 L -20.1 3.163 L -20.099 3.133 L -20.096 3.05 L -20.089 2.916 L -20.075 2.738 L -20.054 2.521 L -20.022 2.27 L -19.978 1.989 L -19.92 1.685 L -19.846 1.362 L -19.754 1.025 L -19.643 0.68 L -19.51 0.331 L -19.357 -0.013 L -19.185 -0.348 L -18.991 -0.668 L -18.772 -0.971 L -18.524 -1.253 L -18.244 -1.509 L -17.928 -1.737 L -17.574 -1.931 L -17.177 -2.089 L -16.735 -2.206 L -16.244 -2.279 L -15.701 -2.305 L -15.157 -2.28 L -14.666 -2.207 L -14.224 -2.09 L -13.827 -1.934 L -13.473 -1.741 L -13.157 -1.515 L -12.878 -1.261 L -12.63 -0.981 L -12.411 -0.681 L -12.218 -0.362 L -12.047 -0.031 L -11.894 0.311 L -11.762 0.657 L -11.65 0.999 L -11.559 1.333 L -11.485 1.653 L -11.428 1.955 L -11.384 2.233 L -11.352 2.482 L -11.33 2.697 L -11.317 2.874 L -11.31 3.006 L -11.307 3.089 L -11.306 3.118 L -11.306 3.118 L -11.306 3.118 L -11.306 3.118 L -11.306 3.118 L -11.306 3.118 L -11.306 3.118 L -11.306 3.118 L -11.306 3.119 L -11.306 3.119 L -11.306 3.119 L -11.306 3.119 L -11.306 3.119 L -11.298 3.227 L -11.275 3.333 L -11.239 3.436 L -11.19 3.533 L -11.129 3.622 L -11.057 3.703 L -10.975 3.774 L -10.884 3.834 L -10.787 3.882 L -10.684 3.917 L -10.577 3.938 L -10.469 3.945 L -10.361 3.938 L -10.254 3.917 L -10.151 3.882 L -10.054 3.835 L -9.963 3.775 L -9.881 3.704 L -9.809 3.623 L -9.747 3.533 L -9.698 3.436 L -9.662 3.334 L -9.64 3.228 L -9.631 3.119 L -9.631 3.119 L -9.631 3.119 L -9.631 3.119 L -9.631 3.119 L -9.631 3.119 L -9.631 3.119 L -9.631 3.119 L -9.631 3.119 L -9.631 3.119 L -9.631 3.119 L -9.631 3.119 L -9.631 3.119 L -9.631 3.09 L -9.628 3.006 L -9.62 2.873 L -9.607 2.696 L -9.585 2.48 L -9.553 2.23 L -9.509 1.95 L -9.451 1.647 L -9.377 1.326 L -9.285 0.991 L -9.174 0.647 L -9.041 0.3 L -8.888 -0.043 L -8.717 -0.376 L -8.523 -0.695 L -8.304 -0.997 L -8.056 -1.278 L -7.776 -1.533 L -7.46 -1.759 L -7.106 -1.953 L -6.709 -2.11 L -6.267 -2.227 L -5.776 -2.3 L -5.232 -2.325 L -4.689 -2.3 L -4.198 -2.227 L -3.756 -2.11 L -3.359 -1.953 L -3.005 -1.759 L -2.689 -1.533 L -2.41 -1.277 L -2.162 -0.997 L -1.943 -0.695 L -1.75 -0.376 L -1.578 -0.043 L -1.426 0.3 L -1.293 0.647 L -1.182 0.99 L -1.09 1.326 L -1.017 1.647 L -0.959 1.95 L -0.915 2.229 L -0.883 2.479 L -0.862 2.696 L -0.848 2.873 L -0.841 3.006 L -0.838 3.089 L -0.837 3.118 L -0.837 3.118 L -0.837 3.118 L -0.837 3.118 L -0.837 3.118 L -0.837 3.118 L -0.837 3.118 L -0.837 3.118 L -0.837 3.119 L -0.837 3.119 L -0.837 3.119 L -0.837 3.119 L -0.837 3.119 L -0.829 3.227 L -0.807 3.333 L -0.77 3.436 L -0.722 3.533 L -0.66 3.622 L -0.588 3.703 L -0.506 3.774 L -0.416 3.834 L -0.318 3.882 L -0.215 3.917 L -0.109 3.938 L -0 3.945 L 0.108 3.938 L 0.215 3.917 L 0.317 3.882 L 0.415 3.835 L 0.506 3.775 L 0.588 3.704 L 0.66 3.623 L 0.721 3.533 L 0.77 3.436 L 0.806 3.334 L 0.829 3.228 L 0.837 3.119 L 0.837 3.119 L 0.837 3.119 L 0.837 3.119 L 0.837 3.119 L 0.837 3.119 L 0.837 3.119 L 0.837 3.119 L 0.837 3.119 L 0.837 3.119 L 0.837 3.119 L 0.837 3.119 L 0.837 3.119 L 0.838 3.09 L 0.841 3.006 L 0.848 2.873 L 0.862 2.696 L 0.884 2.48 L 0.916 2.23 L 0.96 1.95 L 1.018 1.647 L 1.092 1.326 L 1.183 0.991 L 1.295 0.647 L 1.428 0.3 L 1.58 -0.043 L 1.752 -0.376 L 1.946 -0.695 L 2.165 -0.997 L 2.413 -1.278 L 2.693 -1.533 L 3.008 -1.759 L 3.363 -1.953 L 3.759 -2.11 L 4.202 -2.227 L 4.693 -2.3 L 5.236 -2.325 L 5.78 -2.3 L 6.271 -2.227 L 6.713 -2.11 L 7.11 -1.953 L 7.464 -1.759 L 7.779 -1.533 L 8.059 -1.277 L 8.307 -0.997 L 8.526 -0.695 L 8.719 -0.376 L 8.89 -0.043 L 9.043 0.3 L 9.176 0.647 L 9.287 0.99 L 9.378 1.326 L 9.452 1.647 L 9.51 1.95 L 9.554 2.229 L 9.585 2.479 L 9.607 2.696 L 9.62 2.873 L 9.628 3.006 L 9.631 3.089 L 9.631 3.118 L 9.631 3.118 L 9.631 3.118 L 9.631 3.118 L 9.631 3.118 L 9.631 3.118 L 9.631 3.118 L 9.631 3.118 L 9.631 3.119 L 9.631 3.119 L 9.631 3.119 L 9.631 3.119 L 9.631 3.119 L 9.64 3.227 L 9.662 3.333 L 9.698 3.436 L 9.747 3.533 L 9.808 3.622 L 9.88 3.703 L 9.962 3.774 L 10.053 3.834 L 10.151 3.882 L 10.253 3.917 L 10.36 3.938 L 10.468 3.945 L 10.577 3.938 L 10.683 3.917 L 10.786 3.882 L 10.884 3.835 L 10.974 3.775 L 11.056 3.704 L 11.129 3.623 L 11.19 3.533 L 11.239 3.436 L 11.275 3.334 L 11.298 3.228 L 11.306 3.119 L 11.306 3.119 L 11.306 3.119 L 11.306 3.119 L 11.306 3.119 L 11.306 3.119 L 11.306 3.119 L 11.306 3.119 L 11.306 3.119 L 11.306 3.119 L 11.306 3.119 L 11.306 3.119 L 11.306 3.119 L 11.307 3.09 L 11.31 3.006 L 11.317 2.873 L 11.331 2.696 L 11.352 2.48 L 11.384 2.23 L 11.428 1.95 L 11.486 1.647 L 11.56 1.326 L 11.652 0.991 L 11.763 0.647 L 11.896 0.3 L 12.049 -0.043 L 12.221 -0.376 L 12.414 -0.695 L 12.633 -0.997 L 12.881 -1.277 L 13.161 -1.533 L 13.477 -1.759 L 13.831 -1.953 L 14.228 -2.11 L 14.67 -2.227 L 15.161 -2.3 L 15.705 -2.325 L 16.248 -2.3 L 16.74 -2.227 L 17.182 -2.11 L 17.578 -1.953 L 17.932 -1.759 L 18.248 -1.533 L 18.528 -1.277 L 18.775 -0.997 L 18.994 -0.695 L 19.188 -0.376 L 19.359 -0.043 L 19.512 0.3 L 19.644 0.647 L 19.756 0.99 L 19.847 1.326 L 19.921 1.647 L 19.978 1.95 L 20.022 2.229 L 20.054 2.479 L 20.076 2.696 L 20.089 2.873 L 20.096 3.006 L 20.099 3.089 L 20.1 3.118 L 20.102 3.173 L 20.107 3.227 L 20.116 3.281 L 20.128 3.335 L 20.144 3.387 L 20.163 3.439 L 20.186 3.489 L 20.212 3.537 L 20.241 3.584 L 20.273 3.628 L 20.307 3.671 L 20.345 3.711 L 20.385 3.748 L 20.427 3.783 L 20.472 3.815 L 20.518 3.844 L 20.567 3.87 L 20.617 3.892 L 20.668 3.912 L 20.72 3.928 L 20.774 3.94 L 20.828 3.949 L 20.882 3.954 L 20.937 3.956 L 25.125 3.956 L 25.125 2.281 L 21.709 2.281 L 21.691 2.112 L 21.669 1.932 L 21.643 1.743 L 21.61 1.545 L 21.572 1.338 L 21.526 1.123 L 21.472 0.898 L 21.41 0.666 L 21.338 0.425 L 21.256 0.176 L 21.163 -0.08 L 21.058 -0.344 L 20.855 -0.784 L 20.613 -1.223 L 20.329 -1.655 L 20.002 -2.071 L 19.631 -2.465 L 19.215 -2.829 L 18.753 -3.157 L 18.243 -3.442 L 17.684 -3.675 L 17.076 -3.851 L 16.417 -3.962 L 15.705 -4 L 15.022 -3.965 L 14.388 -3.862 L 13.801 -3.7 L 13.261 -3.483 L 12.767 -3.219 L 12.316 -2.913 L 11.908 -2.572 L 11.542 -2.202 L 11.217 -1.809 L 10.93 -1.4 L 10.682 -0.981 L 10.47 -0.558 L 10.258 -0.981 L 10.01 -1.4 L 9.724 -1.809 L 9.398 -2.202 L 9.032 -2.572 L 8.625 -2.913 L 8.174 -3.219 L 7.68 -3.483 L 7.14 -3.7 L 6.554 -3.862 L 5.919 -3.965 L 5.236 -4 L 4.553 -3.965 L 3.919 -3.862 L 3.333 -3.7 L 2.793 -3.483 L 2.298 -3.219 L 1.848 -2.913 L 1.44 -2.572 L 1.074 -2.202 L 0.748 -1.809 L 0.462 -1.4 L 0.213 -0.981 L 0.001 -0.558 L -0.21 -0.981 L -0.459 -1.4 L -0.745 -1.809 L -1.07 -2.202 L -1.436 -2.572 L -1.844 -2.913 L -2.294 -3.219 L -2.789 -3.483 L -3.329 -3.7 L -3.915 -3.862 L -4.549 -3.965 L -5.232 -4 Z" /></svg>