<svg version="1.1" xmlns="http://www.w3.org/2000/svg" viewBox="-7.604605882429943 -46.364987737126086 47.624866119556025 51.364988649064685" fill="black" stroke="none">
    <path fill-rule="evenodd" d="M 0.11404 -0.98408 L -0.3765 -2.81719 L -0.80184 -2.81719 L -1.76811 0.79126 L -2.73386 -2.81977 L -3.15009 -2.84677 L -4.00009 -0.78421 L -6.6046 -0.78421 L -6.6046 -0.3439 L -3.85269 -0.3439 L -3.64922 -0.48012 L -2.99099 -2.07727 L -2.10525 1.23521 L -4.55873 3.68869 L -4.24741 4 L -1.94715 1.69974 L -1.55569 1.69974 L -1.41251 1.16509 L -0.11408 -0.13334 M -1.18477 0.31473 L -0.58925 -1.90889 L -0.24553 -0.62451 M -0.24553 -0.62451 L -1.18477 0.31473 M -0.11408 -0.13334 L 0.3765 1.69974 L 0.80167 1.70009 L 1.76828 -1.88136 L 2.73403 1.70009 L 3.15009 1.72658 L 4.00009 -0.33857 L 6.6046 -0.33857 L 6.6046 -0.77888 L 3.85269 -0.77888 L 3.64904 -0.64249 L 2.98996 0.95879 L 2.09891 -2.34632 L 3.44127 -3.68869 L 3.12996 -4 L 1.91413 -2.78417 L 1.55569 -2.78417 L 1.42321 -2.29324 L 0.11404 -0.98408 M 0.24548 -0.49289 L 1.19307 -1.44048 M 1.19307 -1.44048 L 0.58994 0.79436 L 0.24548 -0.49289 M 38.45226 -43.24447 L 39.02026 -45.36499 L 36.89974 -44.79699 L 38.45226 -43.24447 Z" />
</svg>