<svg version="1.1" xmlns="http://www.w3.org/2000/svg" viewBox="-8.50219895644629 -5.000000899970694 17.00439791289258 10.000001799941387" fill="black" stroke="none">
    <path fill-rule="evenodd" d="M -0.25007 2.94141 L -3.502 2.48766 L -3.50907 2.38376 L -3.5325 2.27026 L -3.57022 2.16247 L -3.62118 2.06146 L -3.6843 1.96832 L -3.75849 1.88412 L -3.8427 1.80992 L -3.93584 1.74681 L -4.03684 1.69585 L -4.14463 1.65812 L -4.25814 1.6347 L -4.37628 1.62665 L -4.49443 1.6347 L -4.60793 1.65812 L -4.71572 1.69585 L -4.81672 1.74681 L -4.90987 1.80992 L -4.99407 1.88412 L -5.06827 1.96832 L -5.13138 2.06146 L -5.18234 2.16247 L -5.20275 2.22077 L -7.5022 2.22077 L -7.5022 2.72091 L -5.22268 2.72091 L -5.22007 2.73355 L -5.18234 2.84134 L -5.13138 2.94235 L -5.06827 3.03549 L -4.99407 3.11969 L -4.90987 3.19389 L -4.81672 3.25701 L -4.71572 3.30796 L -4.60793 3.34569 L -4.49443 3.36911 L -4.37628 3.37716 L -4.25814 3.36911 L -4.14463 3.34569 L -4.03684 3.30796 L -3.93584 3.25701 L -3.8427 3.19389 L -3.75849 3.11969 L -3.6843 3.03549 L -3.6421 2.97322 L 3.71652 4 L 3.78568 3.50454 L 2.71284 3.35484 L 3.1173 2.74006 L 7.5022 2.74006 L 7.5022 2.23991 L 1.87555 2.23991 L 1.87555 2.72697 L 1.87555 2.74006 L 1.88416 2.74006 L 2.24575 3.28967 L 0.25007 3.0112 L 0.25007 2.85201 L -0.25007 2.85201 L -0.25007 2.94141 Z M -4.37628 2.1268 L -4.32476 2.13016 L -4.27553 2.13999 L -4.22902 2.15586 L -4.18564 2.17735 L -4.1458 2.20405 L -4.10993 2.23555 L -4.07843 2.27143 L -4.05173 2.31126 L -4.03023 2.35465 L -4.01437 2.40116 L -4.00454 2.45038 L -4.00117 2.5019 L -4.00454 2.55343 L -4.01437 2.60265 L -4.03023 2.64916 L -4.05173 2.69255 L -4.07843 2.73238 L -4.10993 2.76826 L -4.1458 2.79976 L -4.18564 2.82646 L -4.22902 2.84795 L -4.27553 2.86382 L -4.32476 2.87365 L -4.37628 2.87701 L -4.4278 2.87365 L -4.47703 2.86382 L -4.52354 2.84795 L -4.56692 2.82646 L -4.60676 2.79976 L -4.64264 2.76826 L -4.67413 2.73238 L -4.70084 2.69255 L -4.72233 2.64916 L -4.7382 2.60265 L -4.74802 2.55343 L -4.75139 2.5019 L -4.74802 2.45038 L -4.7382 2.40116 L -4.72233 2.35465 L -4.70084 2.31126 L -4.67413 2.27143 L -4.64264 2.23555 L -4.60676 2.20405 L -4.56692 2.17735 L -4.52354 2.15586 L -4.47703 2.13999 L -4.4278 2.13016 L -4.37628 2.1268 Z" />
    <path d="M -0.25007 1.75169 L -0.25007 2.30185 L 0.25007 2.30185 L 0.25007 1.75169 L -0.25007 1.75169 Z" />
    <path fill-rule="evenodd" d="M -0.25007 -0.99912 L 0.25007 -0.99912 L 5.25154 -0.99912 L 5.25154 -2.24949 L 7.5022 -2.24949 L 7.5022 -2.74963 L 5.25154 -2.74963 L 5.25154 -4 L -5.25154 -4 L -5.25154 -3.74993 L -5.25154 -2.76858 L -7.5022 -2.76858 L -7.5022 -2.26844 L -5.25154 -2.26844 L -5.25154 -0.99912 L -0.25007 -0.99912 Z M -4.75139 -3.49985 L 4.75139 -3.49985 L 4.75139 -1.49927 L -4.75139 -1.49927 L -4.75139 -3.49985 Z" />
    <path d="M -0.25007 -0.44896 L -0.25007 0.1012 L 0.25007 0.1012 L 0.25007 -0.44896 L -0.25007 -0.44896 Z" />
    <path d="M -0.25007 0.65136 L -0.25007 1.20152 L 0.25007 1.20152 L 0.25007 0.65136 L -0.25007 0.65136 Z" />
</svg>