<svg version="1.1" xmlns="http://www.w3.org/2000/svg" viewBox="-7.666927935401624 -5.000000911111114 15.333855870803248 10.000001822222227" fill="black" stroke="none">
    <path fill-rule="evenodd" d="M 2.00026 3.40439 L 2.00026 4 L 2.4447 4 L 2.4447 3.49327 L 3.29002 3.66233 L 3.37717 3.22656 L 2.4447 3.04006 L 2.4447 2.55556 L 6.66693 2.55556 L 6.66693 2.11111 L 2.00026 2.11111 L 2.00026 2.95116 L 0.22248 2.59559 L 0.22248 2.22222 L -0.22196 2.22222 L -0.22196 2.50669 L -2.19974 2.11111 L -6.66589 2.10052 L -6.66693 2.54497 L -2.24418 2.55556 L 2.00026 3.40439 Z M -0.22196 1.33333 L -0.22196 1.77778 L 0.22248 1.77778 L 0.22248 1.33333 L -0.22196 1.33333 Z M -0.22196 0.44444 L -0.22196 0.88889 L 0.22248 0.88889 L 0.22248 0.44444 L -0.22196 0.44444 Z M -0.22196 -0.22222 L -0.22196 0 L 0.22248 0 L 0.22248 -0.22222 L 1.33359 -0.22222 L 1.33359 -1.88889 L 6.66693 -1.88889 L 6.66693 -2.33333 L 1.33359 -2.33333 L 1.33359 -4 L -1.33307 -4 L -1.33307 -3.77778 L -1.33307 -2.33333 L -6.66641 -2.33333 L -6.66641 -1.88889 L -1.33307 -1.88889 L -1.33307 -0.22222 L -0.22196 -0.22222 Z M -0.88863 -3.55556 L 0.88915 -3.55556 L 0.88915 -0.66667 L -0.88863 -0.66667 L -0.88863 -3.55556 Z" />
</svg>