<svg version="1.1" xmlns="http://www.w3.org/2000/svg" viewBox="-6.714 -5 13.429 10" fill="black" stroke="none"><path fill-rule="evenodd" d="M -3.987 -0.19 L -5.714 -0.19 L -5.714 0.19 L -3.987 0.19 L -3.963 0.542 L -3.857 1.063 L -3.685 1.556 L -3.453 2.018 L -3.166 2.443 L -2.828 2.828 L -2.443 3.166 L -2.018 3.453 L -1.556 3.685 L -1.063 3.857 L -0.542 3.963 L 0 4 L 0.542 3.963 L 1.063 3.857 L 1.556 3.685 L 2.018 3.453 L 2.443 3.166 L 2.828 2.828 L 3.166 2.443 L 3.453 2.018 L 3.685 1.556 L 3.857 1.063 L 3.963 0.542 L 3.987 0.19 L 5.714 0.19 L 5.714 -0.19 L 3.987 -0.19 L 3.963 -0.542 L 3.857 -1.063 L 3.685 -1.556 L 3.453 -2.018 L 3.166 -2.443 L 2.828 -2.828 L 2.443 -3.166 L 2.018 -3.453 L 1.556 -3.685 L 1.063 -3.857 L 0.542 -3.963 L 0 -4 L -0.542 -3.963 L -1.063 -3.857 L -1.556 -3.685 L -2.018 -3.453 L -2.443 -3.166 L -2.828 -2.828 L -3.166 -2.443 L -3.453 -2.018 L -3.685 -1.556 L -3.857 -1.063 L -3.963 -0.542 L -3.987 -0.19 Z M -3.606 -0.19 L -3.586 -0.492 L -3.49 -0.963 L -3.335 -1.41 L -3.125 -1.828 L -2.866 -2.212 L -2.56 -2.56 L -2.212 -2.866 L -1.828 -3.125 L -1.41 -3.335 L -0.963 -3.49 L -0.492 -3.586 L 0 -3.619 L 0.492 -3.586 L 0.963 -3.49 L 1.41 -3.335 L 1.828 -3.125 L 2.212 -2.866 L 2.56 -2.56 L 2.866 -2.212 L 3.125 -1.828 L 3.335 -1.41 L 3.49 -0.963 L 3.586 -0.492 L 3.606 -0.19 L 2.077 -0.19 L 2.072 -0.239 L 2.067 -0.291 L 2.059 -0.348 L 2.049 -0.41 L 2.036 -0.475 L 2.02 -0.545 L 2.001 -0.618 L 1.978 -0.695 L 1.95 -0.776 L 1.918 -0.86 L 1.88 -0.947 L 1.837 -1.038 L 1.766 -1.168 L 1.681 -1.297 L 1.583 -1.423 L 1.471 -1.544 L 1.344 -1.657 L 1.202 -1.762 L 1.044 -1.856 L 0.87 -1.937 L 0.679 -2.003 L 0.471 -2.053 L 0.245 -2.084 L 0 -2.095 L -0.245 -2.084 L -0.471 -2.053 L -0.679 -2.003 L -0.87 -1.937 L -1.044 -1.856 L -1.202 -1.762 L -1.344 -1.657 L -1.471 -1.544 L -1.583 -1.423 L -1.681 -1.297 L -1.766 -1.168 L -1.837 -1.038 L -1.88 -0.947 L -1.918 -0.86 L -1.95 -0.776 L -1.978 -0.695 L -2.001 -0.618 L -2.02 -0.545 L -2.036 -0.475 L -2.049 -0.41 L -2.059 -0.348 L -2.067 -0.291 L -2.072 -0.239 L -2.077 -0.19 L -3.606 -0.19 Z M 3.606 0.19 L 3.586 0.492 L 3.49 0.963 L 3.335 1.41 L 3.125 1.828 L 2.866 2.212 L 2.56 2.56 L 2.212 2.866 L 1.828 3.125 L 1.41 3.335 L 0.963 3.49 L 0.492 3.586 L 0 3.619 L -0.492 3.586 L -0.963 3.49 L -1.41 3.335 L -1.828 3.125 L -2.212 2.866 L -2.56 2.56 L -2.866 2.212 L -3.125 1.828 L -3.335 1.41 L -3.49 0.963 L -3.586 0.492 L -3.606 0.19 L -1.714 0.19 L -1.714 0 L -1.714 -0.009 L -1.713 -0.034 L -1.711 -0.075 L -1.706 -0.129 L -1.698 -0.195 L -1.686 -0.272 L -1.67 -0.358 L -1.649 -0.451 L -1.621 -0.55 L -1.587 -0.653 L -1.546 -0.76 L -1.496 -0.867 L -1.439 -0.974 L -1.372 -1.08 L -1.297 -1.181 L -1.21 -1.278 L -1.112 -1.369 L -1.001 -1.452 L -0.875 -1.527 L -0.735 -1.59 L -0.579 -1.643 L -0.405 -1.681 L -0.212 -1.706 L 0 -1.714 L 0.212 -1.706 L 0.405 -1.681 L 0.579 -1.643 L 0.735 -1.59 L 0.875 -1.527 L 1.001 -1.452 L 1.112 -1.369 L 1.21 -1.278 L 1.297 -1.181 L 1.372 -1.08 L 1.439 -0.974 L 1.496 -0.867 L 1.546 -0.76 L 1.587 -0.653 L 1.621 -0.55 L 1.649 -0.451 L 1.67 -0.358 L 1.686 -0.272 L 1.698 -0.195 L 1.706 -0.129 L 1.711 -0.075 L 1.713 -0.034 L 1.714 -0.009 L 1.714 0 L 1.714 0.19 L 3.606 0.19 Z" /></svg>