<svg version="1.1" xmlns="http://www.w3.org/2000/svg" viewBox="-10.285 -5 20.57 10" fill="black" stroke="none"><path d="M 4.088 -2.321 L 4.742 -1.275 L 6.19 -4 L 3.106 -3.892 L 3.76 -2.846 L 1.486 -1.424 L 1.486 -3.969 L 0.867 -3.969 L 0.867 -1.037 L -0.867 0.046 L -0.867 -3.969 L -1.486 -3.969 L -1.486 -0.444 L -9.285 -0.444 L -9.285 0.175 L -1.486 0.175 L -1.486 0.433 L -6.354 3.475 L -6.026 4 L -1.486 1.162 L -1.486 3.707 L -0.867 3.707 L -0.867 0.776 L 0.867 -0.307 L 0.867 3.707 L 1.486 3.707 L 1.486 0.209 L 9.285 0.209 L 9.285 -0.41 L 1.486 -0.41 L 1.486 -0.694 L 4.088 -2.321 Z" /></svg>