<svg version="1.1" xmlns="http://www.w3.org/2000/svg" viewBox="-6.9434534778279895 -5.000000920754231 13.886906955655952 10.000001841508462" fill="black" stroke="none">
    <path d="M -3.59963 1.74056 L -5.94341 1.74056 L -5.94341 2.13679 L -3.46698 2.13679 L -3.28388 2.01421 L -2.69155 0.57695 L -1.7827 3.97585 L -1.39994 3.97585 L -0.53025 0.72847 L 0.33883 3.97585 L 0.72143 3.97616 L 1.59128 0.75325 L 2.46035 3.97616 L 2.83476 4 L 3.59967 2.14159 L 5.94345 2.14159 L 5.94345 1.74536 L 3.46702 1.74536 L 3.28377 1.8681 L 2.69066 3.30907 L 1.78259 -0.05919 L 1.39998 -0.05919 L 0.5309 3.1611 L -0.33879 -0.0889 L -0.72155 -0.0889 L -1.59109 3.15832 L -2.46016 -0.09122 L -3.59963 1.74056 Z" />
    <path d="M -5.94345 -3.99992 L -5.94337 -3.99992 L -5.94337 -4 L -5.94345 -4 L -5.94345 -3.99992 Z" />
</svg>