<svg version="1.1" xmlns="http://www.w3.org/2000/svg" viewBox="-5.000000946666859 -5.000000946666831 10.000001893333689 10.000001893333689" fill="black" stroke="none">
    <path d="M -0.13332 2.42774 L -0.13332 4 L 0.13335 4 L 0.13335 2.42774 L 0.53174 2.42774 L 0.00001 1.50667 L -0.53172 2.42774 L -0.13332 2.42774 Z" />
    <path d="M -4 -3.99995 L -3.99995 -3.99995 L -3.99995 -4 L -4 -4 L -4 -3.99995 Z" />
    <path d="M -2.42258 -0.13655 L -3.99997 -0.13655 L -3.99997 0.13012 L -2.33331 0.13012 L -2.21008 0.04762 L -1.81144 -0.91967 L -1.19977 1.36782 L -0.94217 1.36782 L -0.35686 -0.81769 L 0.22803 1.36782 L 0.48553 1.36803 L 1.07095 -0.80102 L 1.65584 1.36803 L 1.90782 1.38408 L 2.42261 0.13335 L 4 0.13335 L 4 -0.13332 L 2.33334 -0.13332 L 2.21001 -0.05072 L 1.81084 0.91907 L 1.1997 -1.34779 L 0.9422 -1.34779 L 0.3573 0.81949 L -0.22801 -1.36779 L -0.48561 -1.36779 L -1.07082 0.81761 L -1.65571 -1.36936 L -2.42258 -0.13655 Z" />
</svg>