<svg version="1.1" xmlns="http://www.w3.org/2000/svg" viewBox="-26.263 -5 52.526 10" fill="black" stroke="none"><path fill-rule="evenodd" d="M 11.234 -0.19 L 25.263 -0.19 L 25.263 -1.874 L 11.248 -1.874 L 11.135 -2.196 L 10.964 -2.536 L 10.751 -2.849 L 10.501 -3.133 L 10.218 -3.383 L 9.904 -3.595 L 9.564 -3.767 L 9.201 -3.894 L 8.819 -3.973 L 8.421 -4 L 8.023 -3.973 L 7.641 -3.894 L 7.278 -3.767 L 6.938 -3.595 L 6.624 -3.383 L 6.341 -3.133 L 6.091 -2.849 L 5.878 -2.536 L 5.707 -2.196 L 5.58 -1.833 L 5.501 -1.45 L 5.474 -1.053 L 5.501 -0.655 L 5.58 -0.273 L 5.707 0.09 L 5.878 0.431 L 6.091 0.744 L 6.341 1.028 L 6.624 1.278 L 6.938 1.49 L 7.278 1.662 L 7.641 1.789 L 8.023 1.868 L 8.421 1.895 L 8.819 1.868 L 9.201 1.789 L 9.564 1.662 L 9.904 1.49 L 10.218 1.278 L 10.501 1.028 L 10.751 0.744 L 10.964 0.431 L 11.135 0.09 L 11.234 -0.19 Z M 7.158 -1.053 L 7.169 -1.226 L 7.202 -1.392 L 7.256 -1.549 L 7.328 -1.695 L 7.418 -1.829 L 7.524 -1.95 L 7.645 -2.056 L 7.779 -2.146 L 7.925 -2.218 L 8.082 -2.271 L 8.248 -2.304 L 8.421 -2.316 L 8.595 -2.304 L 8.76 -2.271 L 8.917 -2.218 L 9.063 -2.146 L 9.197 -2.056 L 9.318 -1.95 L 9.424 -1.829 L 9.514 -1.695 L 9.586 -1.549 L 9.64 -1.392 L 9.673 -1.226 L 9.684 -1.053 L 9.673 -0.879 L 9.64 -0.713 L 9.586 -0.557 L 9.514 -0.411 L 9.424 -0.277 L 9.318 -0.156 L 9.197 -0.05 L 9.063 0.04 L 8.917 0.113 L 8.76 0.166 L 8.595 0.199 L 8.421 0.211 L 8.248 0.199 L 8.082 0.166 L 7.925 0.113 L 7.779 0.04 L 7.645 -0.05 L 7.524 -0.156 L 7.418 -0.277 L 7.328 -0.411 L 7.256 -0.557 L 7.202 -0.713 L 7.169 -0.879 L 7.158 -1.053 Z M -11.248 -0.231 L -11.135 0.09 L -10.964 0.431 L -10.751 0.744 L -10.501 1.028 L -10.218 1.278 L -9.904 1.49 L -9.564 1.662 L -9.201 1.789 L -8.819 1.868 L -8.421 1.895 L -8.023 1.868 L -7.641 1.789 L -7.278 1.662 L -6.938 1.49 L -6.624 1.278 L -6.341 1.028 L -6.091 0.744 L -5.878 0.431 L -5.707 0.09 L -5.58 -0.273 L -5.501 -0.655 L -5.474 -1.053 L -5.501 -1.45 L -5.58 -1.833 L -5.707 -2.196 L -5.878 -2.536 L -6.091 -2.849 L -6.341 -3.133 L -6.624 -3.383 L -6.938 -3.595 L -7.278 -3.767 L -7.641 -3.894 L -8.023 -3.973 L -8.421 -4 L -8.819 -3.973 L -9.201 -3.894 L -9.564 -3.767 L -9.904 -3.595 L -10.218 -3.383 L -10.501 -3.133 L -10.751 -2.849 L -10.964 -2.536 L -11.135 -2.196 L -11.234 -1.915 L -25.263 -1.915 L -25.263 -0.231 L -11.248 -0.231 Z M -9.684 -1.053 L -9.673 -1.226 L -9.64 -1.392 L -9.586 -1.549 L -9.514 -1.695 L -9.424 -1.829 L -9.318 -1.95 L -9.197 -2.056 L -9.063 -2.146 L -8.917 -2.218 L -8.76 -2.271 L -8.595 -2.304 L -8.421 -2.316 L -8.248 -2.304 L -8.082 -2.271 L -7.925 -2.218 L -7.779 -2.146 L -7.645 -2.056 L -7.524 -1.95 L -7.418 -1.829 L -7.328 -1.695 L -7.256 -1.549 L -7.202 -1.392 L -7.169 -1.226 L -7.158 -1.053 L -7.169 -0.879 L -7.202 -0.713 L -7.256 -0.557 L -7.328 -0.411 L -7.418 -0.277 L -7.524 -0.156 L -7.645 -0.05 L -7.779 0.04 L -7.925 0.113 L -8.082 0.166 L -8.248 0.199 L -8.421 0.211 L -8.595 0.199 L -8.76 0.166 L -8.917 0.113 L -9.063 0.04 L -9.197 -0.05 L -9.318 -0.156 L -9.424 -0.277 L -9.514 -0.411 L -9.586 -0.557 L -9.64 -0.713 L -9.673 -0.879 L -9.684 -1.053 Z M -12.632 4 L 12.632 4 L 12.632 2.316 L 0.842 2.316 L 0.842 -2.316 L 4.211 -2.316 L 4.211 -4 L -4.211 -4 L -4.211 -2.316 L -0.842 -2.316 L -0.842 2.316 L -12.632 2.316 L -12.632 4 Z" /></svg>