<svg version="1.1" xmlns="http://www.w3.org/2000/svg" viewBox="-7.486487346238134 -5.0000009135135155 14.972974692476267 10.000001827027031" fill="black" stroke="none">
    <path fill-rule="evenodd" d="M 3.96538 3.4647 L 6.48649 3.4647 L 6.48649 3.03226 L 3.96905 3.03226 L 3.94017 2.94976 L 3.89611 2.86243 L 3.84154 2.7819 L 3.77739 2.7091 L 3.70459 2.64494 L 3.62405 2.59038 L 3.53673 2.54632 L 3.44353 2.5137 L 3.34539 2.49344 L 3.24324 2.48649 L 3.14109 2.49344 L 3.04296 2.5137 L 2.94976 2.54632 L 2.86243 2.59038 L 2.7819 2.64494 L 2.7091 2.7091 L 2.64494 2.7819 L 2.59038 2.86243 L 2.54632 2.94976 L 2.5137 3.04296 L 2.49344 3.14109 L 2.48649 3.24324 L 2.49344 3.34539 L 2.5137 3.44353 L 2.54632 3.53673 L 2.59038 3.62405 L 2.64494 3.70459 L 2.7091 3.77739 L 2.7819 3.84154 L 2.86243 3.89611 L 2.94976 3.94017 L 3.04296 3.97279 L 3.14109 3.99304 L 3.24324 4 L 3.34539 3.99304 L 3.44353 3.97279 L 3.53673 3.94017 L 3.62405 3.89611 L 3.70459 3.84154 L 3.77739 3.77739 L 3.84154 3.70459 L 3.89611 3.62405 L 3.94017 3.53673 L 3.96538 3.4647 Z M 3.24324 2.91892 L 3.28779 2.92183 L 3.33035 2.93033 L 3.37057 2.94405 L 3.40807 2.96263 L 3.44252 2.98572 L 3.47354 3.01295 L 3.50077 3.04397 L 3.52386 3.07841 L 3.54244 3.11592 L 3.55616 3.15614 L 3.56466 3.1987 L 3.56757 3.24324 L 3.56466 3.28779 L 3.55616 3.33035 L 3.54244 3.37057 L 3.52386 3.40807 L 3.50077 3.44252 L 3.47354 3.47354 L 3.44252 3.50077 L 3.40807 3.52386 L 3.37057 3.54244 L 3.33035 3.55616 L 3.28779 3.56466 L 3.24324 3.56757 L 3.1987 3.56466 L 3.15614 3.55616 L 3.11592 3.54244 L 3.07841 3.52386 L 3.04397 3.50077 L 3.01295 3.47354 L 2.98572 3.44252 L 2.96263 3.40807 L 2.94405 3.37057 L 2.93033 3.33035 L 2.92183 3.28779 L 2.91892 3.24324 L 2.92183 3.1987 L 2.93033 3.15614 L 2.94405 3.11592 L 2.96263 3.07841 L 2.98572 3.04397 L 3.01295 3.01295 L 3.04397 2.98572 L 3.07841 2.96263 L 3.11592 2.94405 L 3.15614 2.93033 L 3.1987 2.92183 L 3.24324 2.91892 Z" />
    <path fill-rule="evenodd" d="M -2.68906 -0.51141 L -2.7091 -0.53415 L -2.7819 -0.5983 L -2.86243 -0.65287 L -2.94976 -0.69693 L -3.04296 -0.72955 L -3.14109 -0.7498 L -3.24324 -0.75676 L -3.34539 -0.7498 L -3.44353 -0.72955 L -3.53673 -0.69693 L -3.62405 -0.65287 L -3.70459 -0.5983 L -3.77739 -0.53415 L -3.84154 -0.46134 L -3.89611 -0.38081 L -3.94017 -0.29348 L -3.96538 -0.22145 L -6.48649 -0.22145 L -6.48649 0.21098 L -3.96905 0.21098 L -3.94017 0.29348 L -3.89611 0.38081 L -3.84154 0.46134 L -3.77739 0.53415 L -3.70459 0.5983 L -3.62405 0.65287 L -3.53673 0.69693 L -3.44353 0.72955 L -3.34539 0.7498 L -3.24324 0.75676 L -3.14109 0.7498 L -3.04296 0.72955 L -2.94976 0.69693 L -2.86243 0.65287 L -2.7819 0.5983 L -2.7091 0.53415 L -2.64494 0.46134 L -2.59038 0.38081 L -2.54632 0.29348 L -2.5137 0.20029 L -2.49344 0.10215 L -2.48649 0 L -2.49344 -0.10215 L -2.49678 -0.11831 L 4.38784 -2.23666 L 4.26081 -2.64983 L -2.68906 -0.51141 Z M -3.24324 -0.32432 L -3.1987 -0.32141 L -3.15614 -0.31292 L -3.11592 -0.2992 L -3.07841 -0.28061 L -3.04397 -0.25753 L -3.01295 -0.23029 L -2.98572 -0.19927 L -2.96263 -0.16483 L -2.94405 -0.12732 L -2.93033 -0.08711 L -2.92183 -0.04455 L -2.91892 0 L -2.92183 0.04455 L -2.93033 0.08711 L -2.94405 0.12732 L -2.96263 0.16483 L -2.98572 0.19927 L -3.01295 0.23029 L -3.04397 0.25753 L -3.07841 0.28061 L -3.11592 0.2992 L -3.15614 0.31292 L -3.1987 0.32141 L -3.24324 0.32432 L -3.28779 0.32141 L -3.33035 0.31292 L -3.37057 0.2992 L -3.40807 0.28061 L -3.44252 0.25753 L -3.47354 0.23029 L -3.50077 0.19927 L -3.52386 0.16483 L -3.54244 0.12732 L -3.55616 0.08711 L -3.56466 0.04455 L -3.56757 0 L -3.56466 -0.04455 L -3.55616 -0.08711 L -3.54244 -0.12732 L -3.52386 -0.16483 L -3.50077 -0.19927 L -3.47354 -0.23029 L -3.44252 -0.25753 L -3.40807 -0.28061 L -3.37057 -0.2992 L -3.33035 -0.31292 L -3.28779 -0.32141 L -3.24324 -0.32432 Z" />
    <path fill-rule="evenodd" d="M 3.96538 -3.02179 L 6.48649 -3.02179 L 6.48649 -3.45422 L 3.96905 -3.45422 L 3.94017 -3.53673 L 3.89611 -3.62405 L 3.84154 -3.70459 L 3.77739 -3.77739 L 3.70459 -3.84154 L 3.62405 -3.89611 L 3.53673 -3.94017 L 3.44353 -3.97279 L 3.34539 -3.99304 L 3.24324 -4 L 3.14109 -3.99304 L 3.04296 -3.97279 L 2.94976 -3.94017 L 2.86243 -3.89611 L 2.7819 -3.84154 L 2.7091 -3.77739 L 2.64494 -3.70459 L 2.59038 -3.62405 L 2.54632 -3.53673 L 2.5137 -3.44353 L 2.49344 -3.34539 L 2.48649 -3.24324 L 2.49344 -3.14109 L 2.5137 -3.04296 L 2.54632 -2.94976 L 2.59038 -2.86243 L 2.64494 -2.7819 L 2.7091 -2.7091 L 2.7819 -2.64494 L 2.86243 -2.59038 L 2.94976 -2.54632 L 3.04296 -2.5137 L 3.14109 -2.49344 L 3.24324 -2.48649 L 3.34539 -2.49344 L 3.44353 -2.5137 L 3.53673 -2.54632 L 3.62405 -2.59038 L 3.70459 -2.64494 L 3.77739 -2.7091 L 3.84154 -2.7819 L 3.89611 -2.86243 L 3.94017 -2.94976 L 3.96538 -3.02179 Z M 3.24324 -3.56757 L 3.28779 -3.56466 L 3.33035 -3.55616 L 3.37057 -3.54244 L 3.40807 -3.52386 L 3.44252 -3.50077 L 3.47354 -3.47354 L 3.50077 -3.44252 L 3.52386 -3.40807 L 3.54244 -3.37057 L 3.55616 -3.33035 L 3.56466 -3.28779 L 3.56757 -3.24324 L 3.56466 -3.1987 L 3.55616 -3.15614 L 3.54244 -3.11592 L 3.52386 -3.07841 L 3.50077 -3.04397 L 3.47354 -3.01295 L 3.44252 -2.98572 L 3.40807 -2.96263 L 3.37057 -2.94405 L 3.33035 -2.93033 L 3.28779 -2.92183 L 3.24324 -2.91892 L 3.1987 -2.92183 L 3.15614 -2.93033 L 3.11592 -2.94405 L 3.07841 -2.96263 L 3.04397 -2.98572 L 3.01295 -3.01295 L 2.98572 -3.04397 L 2.96263 -3.07841 L 2.94405 -3.11592 L 2.93033 -3.15614 L 2.92183 -3.1987 L 2.91892 -3.24324 L 2.92183 -3.28779 L 2.93033 -3.33035 L 2.94405 -3.37057 L 2.96263 -3.40807 L 2.98572 -3.44252 L 3.01295 -3.47354 L 3.04397 -3.50077 L 3.07841 -3.52386 L 3.11592 -3.54244 L 3.15614 -3.55616 L 3.1987 -3.56466 L 3.24324 -3.56757 Z" />
</svg>