<svg version="1.1" xmlns="http://www.w3.org/2000/svg" viewBox="-9.136 -5 18.271 10" fill="black" stroke="none"><path fill-rule="evenodd" d="M 0.272 0.61 L 1.627 0.61 L 1.627 -1.424 L 8.136 -1.424 L 8.136 -1.966 L 1.627 -1.966 L 1.627 -4 L -1.627 -4 L -1.627 -1.966 L -8.135 -1.966 L -8.135 -1.424 L -1.627 -1.424 L -1.627 0.61 L -0.271 0.61 L -0.271 0.881 L 0.272 0.881 L 0.272 0.61 Z M -1.084 0.068 L -1.084 -3.458 L 1.085 -3.458 L 1.085 0.068 L -1.084 0.068 Z M -8.136 3.987 L -2.663 4 L 2.807 1.949 L 2.617 1.441 L -2.76 3.457 L -8.134 3.445 L -8.136 3.987 Z M 2.712 4 L 8.136 4 L 8.136 3.457 L 2.712 3.457 L 2.712 4 Z M -0.271 1.966 L 0.272 1.966 L 0.272 1.424 L -0.271 1.424 L -0.271 1.966 Z" /></svg>