<svg version="1.1" xmlns="http://www.w3.org/2000/svg" viewBox="-6.714 -5 13.429 10" fill="black" stroke="none"><path fill-rule="evenodd" d="M -3.987 0.19 L -3.963 0.542 L -3.857 1.063 L -3.685 1.556 L -3.453 2.018 L -3.166 2.443 L -2.828 2.828 L -2.443 3.166 L -2.018 3.453 L -1.556 3.685 L -1.063 3.857 L -0.542 3.963 L 0 4 L 0.542 3.963 L 1.063 3.857 L 1.556 3.685 L 2.018 3.453 L 2.443 3.166 L 2.828 2.828 L 3.166 2.443 L 3.453 2.018 L 3.685 1.556 L 3.857 1.063 L 3.963 0.542 L 3.987 0.19 L 5.714 0.19 L 5.714 -0.19 L 3.987 -0.19 L 3.963 -0.542 L 3.857 -1.063 L 3.685 -1.556 L 3.453 -2.018 L 3.166 -2.443 L 2.828 -2.828 L 2.443 -3.166 L 2.018 -3.453 L 1.556 -3.685 L 1.063 -3.857 L 0.542 -3.963 L 0 -4 L -0.542 -3.963 L -1.063 -3.857 L -1.556 -3.685 L -2.018 -3.453 L -2.443 -3.166 L -2.828 -2.828 L -3.166 -2.443 L -3.453 -2.018 L -3.685 -1.556 L -3.857 -1.063 L -3.963 -0.542 L -3.987 -0.19 L -5.714 -0.19 L -5.714 0.19 L -3.987 0.19 Z M -3.619 0 L -3.586 -0.492 L -3.49 -0.963 L -3.335 -1.41 L -3.125 -1.828 L -2.866 -2.212 L -2.56 -2.56 L -2.212 -2.866 L -1.828 -3.125 L -1.41 -3.335 L -0.963 -3.49 L -0.492 -3.586 L 0 -3.619 L 0.492 -3.586 L 0.963 -3.49 L 1.41 -3.335 L 1.828 -3.125 L 2.212 -2.866 L 2.56 -2.56 L 2.866 -2.212 L 3.125 -1.828 L 3.335 -1.41 L 3.49 -0.963 L 3.586 -0.492 L 3.619 0 L 3.586 0.492 L 3.49 0.963 L 3.335 1.41 L 3.125 1.828 L 2.866 2.212 L 2.56 2.56 L 2.212 2.866 L 1.828 3.125 L 1.41 3.335 L 0.963 3.49 L 0.492 3.586 L 0 3.619 L -0.492 3.586 L -0.963 3.49 L -1.41 3.335 L -1.828 3.125 L -2.212 2.866 L -2.56 2.56 L -2.866 2.212 L -3.125 1.828 L -3.335 1.41 L -3.49 0.963 L -3.586 0.492 L -3.619 0 Z M -3.072 -0.043 L -2.719 0.101 L -2.71 0.08 L -2.682 0.021 L -2.634 -0.067 L -2.566 -0.177 L -2.477 -0.302 L -2.367 -0.435 L -2.234 -0.568 L -2.078 -0.693 L -1.898 -0.804 L -1.694 -0.892 L -1.464 -0.95 L -1.209 -0.971 L -1.152 -0.969 L -1.099 -0.964 L -1.051 -0.954 L -1.005 -0.94 L -0.963 -0.922 L -0.924 -0.901 L -0.887 -0.875 L -0.852 -0.846 L -0.818 -0.812 L -0.785 -0.775 L -0.753 -0.733 L -0.721 -0.688 L -0.689 -0.639 L -0.658 -0.586 L -0.628 -0.53 L -0.598 -0.471 L -0.569 -0.409 L -0.54 -0.344 L -0.511 -0.277 L -0.482 -0.208 L -0.453 -0.138 L -0.424 -0.066 L -0.394 0.008 L -0.364 0.082 L -0.333 0.157 L -0.301 0.232 L -0.267 0.307 L -0.232 0.383 L -0.195 0.457 L -0.156 0.532 L -0.115 0.605 L -0.07 0.677 L -0.023 0.747 L 0.028 0.816 L 0.082 0.882 L 0.14 0.946 L 0.202 1.008 L 0.269 1.065 L 0.34 1.119 L 0.416 1.168 L 0.496 1.213 L 0.582 1.253 L 0.671 1.288 L 0.766 1.317 L 0.865 1.34 L 0.969 1.357 L 1.077 1.368 L 1.191 1.371 L 1.403 1.365 L 1.599 1.346 L 1.78 1.316 L 1.946 1.276 L 2.097 1.227 L 2.234 1.169 L 2.358 1.105 L 2.468 1.034 L 2.566 0.959 L 2.652 0.879 L 2.727 0.797 L 2.791 0.713 L 2.844 0.628 L 2.888 0.543 L 2.923 0.461 L 2.951 0.382 L 2.972 0.308 L 2.987 0.239 L 2.998 0.178 L 3.004 0.125 L 3.008 0.081 L 3.009 0.049 L 3.01 0.028 L 3.009 0.021 L 2.629 0.037 L 2.629 0.041 L 2.629 0.055 L 2.628 0.076 L 2.625 0.104 L 2.621 0.138 L 2.613 0.178 L 2.603 0.224 L 2.588 0.273 L 2.569 0.326 L 2.544 0.381 L 2.514 0.439 L 2.476 0.497 L 2.432 0.556 L 2.38 0.616 L 2.319 0.674 L 2.248 0.73 L 2.165 0.783 L 2.071 0.832 L 1.963 0.877 L 1.841 0.915 L 1.704 0.947 L 1.551 0.97 L 1.38 0.985 L 1.191 0.99 L 1.1 0.988 L 1.016 0.981 L 0.937 0.969 L 0.863 0.953 L 0.794 0.932 L 0.73 0.907 L 0.67 0.879 L 0.613 0.847 L 0.559 0.811 L 0.509 0.771 L 0.461 0.729 L 0.415 0.683 L 0.371 0.635 L 0.329 0.583 L 0.289 0.528 L 0.251 0.47 L 0.214 0.41 L 0.179 0.348 L 0.145 0.283 L 0.112 0.217 L 0.08 0.149 L 0.049 0.079 L 0.018 0.009 L -0.011 -0.063 L -0.041 -0.135 L -0.07 -0.208 L -0.099 -0.28 L -0.128 -0.353 L -0.158 -0.425 L -0.189 -0.497 L -0.221 -0.568 L -0.254 -0.638 L -0.289 -0.707 L -0.326 -0.774 L -0.365 -0.84 L -0.406 -0.903 L -0.451 -0.965 L -0.5 -1.024 L -0.553 -1.079 L -0.61 -1.131 L -0.671 -1.179 L -0.736 -1.222 L -0.805 -1.26 L -0.878 -1.292 L -0.955 -1.317 L -1.036 -1.337 L -1.121 -1.348 L -1.209 -1.352 L -1.524 -1.327 L -1.807 -1.255 L -2.06 -1.148 L -2.281 -1.013 L -2.474 -0.86 L -2.638 -0.698 L -2.774 -0.536 L -2.883 -0.382 L -2.967 -0.248 L -3.026 -0.14 L -3.06 -0.069 L -3.072 -0.043 Z" /></svg>