<svg version="1.1" xmlns="http://www.w3.org/2000/svg" viewBox="-6.400275074709841 -5.000000927996346 12.800550149419681 10.000001855992693" fill="black" stroke="none">
    <path fill-rule="evenodd" d="M 3.3044 1.68393 L 5.40027 1.68393 L 5.40027 1.32391 L 3.30135 1.32391 L 3.28036 1.26394 L 3.24368 1.19124 L 3.19825 1.12419 L 3.14484 1.06358 L 3.08422 1.01017 L 3.01718 0.96474 L 2.94447 0.92806 L 2.86688 0.9009 L 2.78518 0.88404 L 2.70014 0.87825 L 2.61509 0.88404 L 2.53339 0.9009 L 2.4558 0.92806 L 2.3831 0.96474 L 2.31605 1.01017 L 2.25544 1.06358 L 2.20203 1.12419 L 2.1566 1.19124 L 2.11992 1.26394 L 2.09276 1.34153 L 2.0759 1.42324 L 2.07011 1.50828 L 2.0759 1.59332 L 2.09276 1.67503 L 2.11992 1.75262 L 2.1566 1.82532 L 2.20203 1.89237 L 2.25544 1.95298 L 2.31605 2.00639 L 2.3831 2.05182 L 2.4558 2.0885 L 2.53339 2.11566 L 2.61509 2.13252 L 2.70014 2.13831 L 2.78518 2.13252 L 2.86688 2.11566 L 2.94447 2.0885 L 3.01718 2.05182 L 3.08422 2.00639 L 3.14484 1.95298 L 3.19825 1.89237 L 3.24368 1.82532 L 3.28036 1.75262 L 3.3044 1.68393 Z M 2.43012 1.50828 L 2.43255 1.47119 L 2.43962 1.43576 L 2.45104 1.40228 L 2.46651 1.37105 L 2.48574 1.34238 L 2.50841 1.31655 L 2.53423 1.29388 L 2.56291 1.27466 L 2.59414 1.25919 L 2.62762 1.24776 L 2.66305 1.24069 L 2.70014 1.23827 L 2.73722 1.24069 L 2.77266 1.24776 L 2.80614 1.25919 L 2.83737 1.27466 L 2.86604 1.29388 L 2.89187 1.31655 L 2.91454 1.34238 L 2.93376 1.37105 L 2.94923 1.40228 L 2.96065 1.43576 L 2.96773 1.47119 L 2.97015 1.50828 L 2.96773 1.54537 L 2.96065 1.5808 L 2.94923 1.61428 L 2.93376 1.64551 L 2.91454 1.67418 L 2.89187 1.70001 L 2.86604 1.72268 L 2.83737 1.7419 L 2.80614 1.75737 L 2.77266 1.7688 L 2.73722 1.77587 L 2.70014 1.77829 L 2.66305 1.77587 L 2.62762 1.7688 L 2.59414 1.75737 L 2.56291 1.7419 L 2.53423 1.72268 L 2.50841 1.70001 L 2.48574 1.67418 L 2.46651 1.64551 L 2.45104 1.61428 L 2.43962 1.5808 L 2.43255 1.54537 L 2.43012 1.50828 Z M -2.24109 1.9367 L 3.53971 4 L 3.66065 3.6608 L -2.07973 1.61192 L -2.0759 1.59332 L -2.07011 1.50828 L -2.0759 1.42324 L -2.09276 1.34153 L -2.11992 1.26394 L -2.1566 1.19124 L -2.20203 1.12419 L -2.25544 1.06358 L -2.31605 1.01017 L -2.3831 0.96474 L -2.4558 0.92806 L -2.53339 0.9009 L -2.61509 0.88404 L -2.70014 0.87825 L -2.78518 0.88404 L -2.86688 0.9009 L -2.94447 0.92806 L -3.01718 0.96474 L -3.08422 1.01017 L -3.14484 1.06358 L -3.19825 1.12419 L -3.24368 1.19124 L -3.28036 1.26394 L -3.3044 1.33263 L -5.40027 1.33263 L -5.40027 1.69265 L -3.30135 1.69265 L -3.28036 1.75262 L -3.24368 1.82532 L -3.19825 1.89237 L -3.14484 1.95298 L -3.08422 2.00639 L -3.01718 2.05182 L -2.94447 2.0885 L -2.86688 2.11566 L -2.78518 2.13252 L -2.70014 2.13831 L -2.61509 2.13252 L -2.53339 2.11566 L -2.4558 2.0885 L -2.3831 2.05182 L -2.31605 2.00639 L -2.25544 1.95298 L -2.24109 1.9367 Z M -2.97015 1.50828 L -2.96773 1.47119 L -2.96065 1.43576 L -2.94923 1.40228 L -2.93376 1.37105 L -2.91454 1.34238 L -2.89187 1.31655 L -2.86604 1.29388 L -2.83737 1.27466 L -2.80614 1.25919 L -2.77266 1.24776 L -2.73722 1.24069 L -2.70014 1.23827 L -2.66305 1.24069 L -2.62762 1.24776 L -2.59414 1.25919 L -2.56291 1.27466 L -2.53423 1.29388 L -2.50841 1.31655 L -2.48574 1.34238 L -2.46651 1.37105 L -2.45104 1.40228 L -2.43962 1.43576 L -2.43255 1.47119 L -2.43012 1.50828 L -2.43255 1.54537 L -2.43962 1.5808 L -2.45104 1.61428 L -2.46651 1.64551 L -2.48574 1.67418 L -2.50841 1.70001 L -2.53423 1.72268 L -2.56291 1.7419 L -2.59414 1.75737 L -2.62762 1.7688 L -2.66305 1.77587 L -2.70014 1.77829 L -2.73722 1.77587 L -2.77266 1.7688 L -2.80614 1.75737 L -2.83737 1.7419 L -2.86604 1.72268 L -2.89187 1.70001 L -2.91454 1.67418 L -2.93376 1.64551 L -2.94923 1.61428 L -2.96065 1.5808 L -2.96773 1.54537 L -2.97015 1.50828 Z M -4.50023 -1.38987 L 4.50023 -1.38987 L 4.50023 -1.74989 L -4.50023 -1.74989 L -4.50023 -1.38987 Z M -5.40027 -3.63998 L -4.66589 -3.63998 L -4.66208 -3.60344 L -4.6574 -3.5648 L -4.65169 -3.52412 L -4.64478 -3.48143 L -4.6365 -3.4368 L -4.62668 -3.39027 L -4.61514 -3.34188 L -4.60172 -3.29169 L -4.58625 -3.23973 L -4.56856 -3.18607 L -4.54847 -3.13074 L -4.52582 -3.0738 L -4.48232 -2.97891 L -4.43014 -2.88421 L -4.36902 -2.79122 L -4.29872 -2.7015 L -4.21896 -2.61657 L -4.12951 -2.53798 L -4.0301 -2.46726 L -3.92048 -2.40594 L -3.80038 -2.35558 L -3.66957 -2.3177 L -3.52778 -2.29385 L -3.37475 -2.28555 L -3.22813 -2.29313 L -3.09202 -2.31496 L -2.96614 -2.34969 L -2.85024 -2.396 L -2.74406 -2.45253 L -2.64732 -2.51793 L -2.55977 -2.59088 L -2.48115 -2.67001 L -2.41119 -2.754 L -2.34963 -2.84149 L -2.29622 -2.93115 L -2.25068 -3.02162 L -2.20522 -2.93064 L -2.15183 -2.84045 L -2.09027 -2.75239 L -2.02025 -2.66784 L -1.94153 -2.58815 L -1.85384 -2.51468 L -1.75692 -2.44878 L -1.6505 -2.39182 L -1.53432 -2.34515 L -1.40813 -2.31013 L -1.27165 -2.28813 L -1.12464 -2.28049 L -0.97783 -2.28811 L -0.84155 -2.31006 L -0.71553 -2.345 L -0.59952 -2.39156 L -0.49324 -2.44839 L -0.39644 -2.51415 L -0.30885 -2.58747 L -0.2302 -2.667 L -0.16025 -2.7514 L -0.09871 -2.8393 L -0.04534 -2.92936 L 0.00014 -3.02022 L 0.04566 -2.92935 L 0.09908 -2.83929 L 0.16066 -2.75139 L 0.23067 -2.66699 L 0.30937 -2.58745 L 0.39702 -2.51413 L 0.49387 -2.44838 L 0.6002 -2.39155 L 0.71627 -2.34499 L 0.84232 -2.31006 L 0.97864 -2.28811 L 1.12548 -2.28049 L 1.27229 -2.28811 L 1.40857 -2.31006 L 1.53458 -2.345 L 1.6506 -2.39156 L 1.75688 -2.44839 L 1.85368 -2.51415 L 1.94127 -2.58747 L 2.01991 -2.667 L 2.08987 -2.7514 L 2.1514 -2.8393 L 2.20478 -2.92936 L 2.25025 -3.02022 L 2.29577 -2.92935 L 2.34919 -2.83929 L 2.41078 -2.75139 L 2.48079 -2.66699 L 2.55948 -2.58745 L 2.64713 -2.51413 L 2.74399 -2.44838 L 2.85032 -2.39155 L 2.96638 -2.34499 L 3.09244 -2.31006 L 3.22876 -2.28811 L 3.37559 -2.28049 L 3.52856 -2.28876 L 3.6703 -2.31254 L 3.80106 -2.3503 L 3.9211 -2.40052 L 4.03067 -2.46165 L 4.13003 -2.53216 L 4.21943 -2.61052 L 4.29914 -2.69521 L 4.36941 -2.78468 L 4.43048 -2.8774 L 4.48263 -2.97185 L 4.5261 -3.06648 L 4.54869 -3.12315 L 4.56872 -3.17822 L 4.58638 -3.23164 L 4.60183 -3.28338 L 4.61524 -3.33337 L 4.62677 -3.38158 L 4.6366 -3.42795 L 4.64489 -3.47244 L 4.65181 -3.51499 L 4.65753 -3.55556 L 4.66221 -3.5941 L 4.66603 -3.63056 L 5.40027 -3.63056 L 5.40027 -3.99058 L 4.50023 -3.99058 L 4.48846 -3.99019 L 4.47673 -3.98904 L 4.46511 -3.98712 L 4.45364 -3.98444 L 4.44237 -3.98102 L 4.43134 -3.97687 L 4.42062 -3.97201 L 4.41023 -3.96646 L 4.40022 -3.96024 L 4.39065 -3.95337 L 4.38155 -3.9459 L 4.37295 -3.93785 L 4.3649 -3.92925 L 4.35742 -3.92015 L 4.35056 -3.91057 L 4.34434 -3.90057 L 4.33879 -3.89018 L 4.33393 -3.87945 L 4.32978 -3.86843 L 4.32636 -3.85716 L 4.32368 -3.84569 L 4.32176 -3.83406 L 4.32061 -3.82234 L 4.32022 -3.81057 L 4.3201 -3.80434 L 4.31947 -3.7864 L 4.31792 -3.75783 L 4.31502 -3.71976 L 4.31037 -3.67326 L 4.30355 -3.61946 L 4.29414 -3.55944 L 4.28173 -3.49431 L 4.2659 -3.42517 L 4.24625 -3.35313 L 4.22235 -3.27928 L 4.19379 -3.20473 L 4.16099 -3.13099 L 4.12417 -3.0594 L 4.0826 -2.99078 L 4.03555 -2.92593 L 3.98232 -2.86567 L 3.92217 -2.81081 L 3.85439 -2.76216 L 3.77824 -2.72053 L 3.69301 -2.68674 L 3.59797 -2.6616 L 3.49241 -2.64592 L 3.37559 -2.64051 L 3.25877 -2.64592 L 3.15319 -2.66161 L 3.05814 -2.68676 L 2.97288 -2.72056 L 2.89669 -2.7622 L 2.82887 -2.81087 L 2.76867 -2.86575 L 2.71539 -2.92603 L 2.66831 -2.99089 L 2.62669 -3.05953 L 2.58982 -3.13112 L 2.55697 -3.20487 L 2.52837 -3.27942 L 2.50442 -3.35327 L 2.48472 -3.4253 L 2.46885 -3.49442 L 2.45639 -3.55954 L 2.44694 -3.61954 L 2.44008 -3.67332 L 2.43539 -3.7198 L 2.43247 -3.75786 L 2.43089 -3.78641 L 2.43025 -3.80435 L 2.43012 -3.81057 L 2.43012 -3.81071 L 2.42827 -3.83398 L 2.42343 -3.8568 L 2.41567 -3.87881 L 2.40513 -3.89964 L 2.39199 -3.91892 L 2.37646 -3.93634 L 2.35881 -3.95161 L 2.33933 -3.96446 L 2.31835 -3.97469 L 2.29623 -3.98212 L 2.27333 -3.98662 L 2.25004 -3.98812 L 2.22676 -3.9866 L 2.20386 -3.98208 L 2.18174 -3.97463 L 2.16077 -3.96439 L 2.14131 -3.95152 L 2.12367 -3.93624 L 2.10815 -3.91881 L 2.09503 -3.89951 L 2.0845 -3.87868 L 2.07676 -3.85667 L 2.07194 -3.83383 L 2.07011 -3.81057 L 2.06999 -3.80434 L 2.06936 -3.7864 L 2.0678 -3.75783 L 2.06491 -3.71976 L 2.06026 -3.67326 L 2.05343 -3.61946 L 2.04402 -3.55944 L 2.03161 -3.49431 L 2.01579 -3.42517 L 1.99614 -3.35313 L 1.97224 -3.27928 L 1.94368 -3.20473 L 1.91088 -3.13099 L 1.87405 -3.0594 L 1.83248 -2.99078 L 1.78544 -2.92593 L 1.73221 -2.86567 L 1.67206 -2.81081 L 1.60427 -2.76216 L 1.52812 -2.72053 L 1.44289 -2.68674 L 1.34786 -2.6616 L 1.24229 -2.64592 L 1.12548 -2.64051 L 1.00866 -2.64592 L 0.90308 -2.66161 L 0.80802 -2.68676 L 0.72276 -2.72056 L 0.64658 -2.7622 L 0.57875 -2.81087 L 0.51856 -2.86575 L 0.46528 -2.92603 L 0.41819 -2.99089 L 0.37657 -3.05953 L 0.3397 -3.13112 L 0.30686 -3.20487 L 0.27826 -3.27942 L 0.25431 -3.35327 L 0.23461 -3.4253 L 0.21874 -3.49442 L 0.20628 -3.55954 L 0.19683 -3.61954 L 0.18997 -3.67332 L 0.18528 -3.7198 L 0.18235 -3.75786 L 0.18077 -3.78641 L 0.18013 -3.80435 L 0.18001 -3.81057 L 0.18001 -3.81071 L 0.17816 -3.83398 L 0.17331 -3.8568 L 0.16556 -3.87881 L 0.15502 -3.89964 L 0.14187 -3.91892 L 0.12635 -3.93634 L 0.10869 -3.95161 L 0.08922 -3.96446 L 0.06824 -3.97469 L 0.04612 -3.98212 L 0.02322 -3.98662 L -0.00007 -3.98812 L -0.02336 -3.9866 L -0.04625 -3.98208 L -0.06837 -3.97463 L -0.08934 -3.96439 L -0.10881 -3.95152 L -0.12645 -3.93624 L -0.14196 -3.91881 L -0.15509 -3.89951 L -0.16561 -3.87868 L -0.17335 -3.85667 L -0.17818 -3.83383 L -0.18001 -3.81057 L -0.18013 -3.80434 L -0.18076 -3.7864 L -0.18231 -3.75783 L -0.18521 -3.71976 L -0.18986 -3.67326 L -0.19668 -3.61946 L -0.20609 -3.55944 L -0.2185 -3.49431 L -0.23432 -3.42517 L -0.25398 -3.35313 L -0.27788 -3.27928 L -0.30644 -3.20473 L -0.33924 -3.13099 L -0.37606 -3.0594 L -0.41763 -2.99078 L -0.46467 -2.92593 L -0.51791 -2.86567 L -0.57806 -2.81081 L -0.64584 -2.76216 L -0.72199 -2.72053 L -0.80722 -2.68674 L -0.90226 -2.6616 L -1.00782 -2.64592 L -1.12464 -2.64051 L -1.24146 -2.64592 L -1.34703 -2.66161 L -1.44209 -2.68676 L -1.52735 -2.72056 L -1.60354 -2.7622 L -1.67136 -2.81087 L -1.73155 -2.86575 L -1.78483 -2.92603 L -1.83192 -2.99089 L -1.87354 -3.05953 L -1.91041 -3.13112 L -1.94325 -3.20487 L -1.97186 -3.27942 L -1.9958 -3.35327 L -2.01551 -3.4253 L -2.03138 -3.49442 L -2.04383 -3.55954 L -2.05329 -3.61954 L -2.06015 -3.67332 L -2.06484 -3.7198 L -2.06776 -3.75786 L -2.06934 -3.78641 L -2.06998 -3.80435 L -2.07011 -3.81057 L -2.07011 -3.81061 L -2.07011 -3.81062 L -2.07011 -3.81064 L -2.07011 -3.81071 L -2.07196 -3.83398 L -2.0768 -3.8568 L -2.08456 -3.87881 L -2.0951 -3.89964 L -2.10824 -3.91892 L -2.12377 -3.93634 L -2.14142 -3.95161 L -2.1609 -3.96446 L -2.18187 -3.97469 L -2.204 -3.98212 L -2.2269 -3.98662 L -2.25019 -3.98812 L -2.27347 -3.9866 L -2.29637 -3.98208 L -2.31848 -3.97463 L -2.33945 -3.96439 L -2.35892 -3.95152 L -2.37656 -3.93624 L -2.39207 -3.91881 L -2.4052 -3.89951 L -2.41573 -3.87868 L -2.42346 -3.85667 L -2.42829 -3.83383 L -2.43012 -3.81057 L -2.43024 -3.80437 L -2.43088 -3.78651 L -2.43244 -3.75808 L -2.43534 -3.72019 L -2.44 -3.67391 L -2.44683 -3.62036 L -2.45624 -3.56062 L -2.46865 -3.4958 L -2.48448 -3.42698 L -2.50412 -3.35527 L -2.52801 -3.28176 L -2.55655 -3.20754 L -2.58933 -3.13413 L -2.62612 -3.06285 L -2.66767 -2.99451 L -2.71469 -2.92992 L -2.7679 -2.8699 L -2.82803 -2.81525 L -2.89581 -2.76678 L -2.97196 -2.72531 L -3.05721 -2.69164 L -3.15227 -2.66659 L -3.25788 -2.65096 L -3.37475 -2.64557 L -3.49152 -2.651 L -3.59706 -2.66673 L -3.6921 -2.69197 L -3.77735 -2.72588 L -3.85353 -2.76766 L -3.92136 -2.81649 L -3.98156 -2.87155 L -4.03486 -2.93204 L -4.08197 -2.99713 L -4.12361 -3.06601 L -4.1605 -3.13787 L -4.19337 -3.2119 L -4.22199 -3.28674 L -4.24595 -3.36088 L -4.26566 -3.43319 L -4.28153 -3.50259 L -4.29398 -3.56796 L -4.30343 -3.62819 L -4.31029 -3.68219 L -4.31497 -3.72886 L -4.31789 -3.76707 L -4.31946 -3.79573 L -4.3201 -3.81374 L -4.32022 -3.81999 L -4.32061 -3.83176 L -4.32176 -3.84349 L -4.32368 -3.85511 L -4.32636 -3.86658 L -4.32978 -3.87785 L -4.33393 -3.88887 L -4.33879 -3.8996 L -4.34434 -3.90999 L -4.35056 -3.91999 L -4.35742 -3.92957 L -4.3649 -3.93867 L -4.37295 -3.94727 L -4.38155 -3.95532 L -4.39065 -3.9628 L -4.40022 -3.96966 L -4.41023 -3.97588 L -4.42062 -3.98143 L -4.43134 -3.98629 L -4.44237 -3.99044 L -4.45364 -3.99386 L -4.46511 -3.99654 L -4.47673 -3.99846 L -4.48846 -3.99961 L -4.50023 -4 L -5.40027 -4 L -5.40027 -3.63998 Z" />
</svg>