<svg version="1.1" xmlns="http://www.w3.org/2000/svg" viewBox="-5.102778301919976 -5.000000945299319 10.205556603839923 10.000001890598664" fill="black" stroke="none">
    <path d="M 3.28184 2.97045 L 3.28184 3.05481 L 3.55534 3.05481 L 3.55534 2.96958 L 4.10278 2.96785 L 4.10192 2.69434 L 3.55534 2.69608 L 3.55534 2.51817 L 3.28184 2.51817 L 3.28184 2.69695 L 2.18783 2.70043 L 2.18783 1.39691 L 1.16219 0.71315 L 1.16219 -0.508 L 2.18783 -1.19176 L 2.18783 -2.49592 L 3.28184 -2.49769 L 3.28184 -2.31141 L 3.55534 -2.31141 L 3.55534 -2.49813 L 4.10256 -2.49902 L 3.55534 -2.56653 L 3.55534 -2.84795 L 3.28184 -2.84795 L 3.28184 -2.60027 L 1.91432 -2.76899 L 1.91432 -1.33812 L 1.16219 -0.83674 L 1.16219 -1.26494 L 0.88869 -1.26494 L 0.88869 1.47009 L 1.16219 1.47009 L 1.16219 1.04189 L 1.91432 1.54328 L 1.91432 2.97479 L 3.28184 2.97045 Z" />
    <path d="M 3.14509 -3.79485 L 3.14509 -3.52134 L 3.28184 -3.52134 L 3.28184 -3.38459 L 3.55534 -3.38459 L 3.55534 -3.79485 L 3.14509 -3.79485 Z" />
    <path d="M 1.99915 -3.79485 L 1.99915 -3.52134 L 2.57073 -3.52134 L 2.57073 -3.79485 L 1.99915 -3.79485 Z" />
    <path d="M 0.85589 -3.79485 L 0.85589 -3.52134 L 1.42747 -3.52134 L 1.42747 -3.79485 L 0.85589 -3.79485 Z" />
    <path d="M -0.28738 -3.79485 L -0.28738 -3.52134 L 0.2842 -3.52134 L 0.2842 -3.79485 L -0.28738 -3.79485 Z" />
    <path d="M -1.43064 -3.79485 L -1.43064 -3.52134 L -0.85896 -3.52134 L -0.85896 -3.79485 L -1.43064 -3.79485 Z" />
    <path d="M -2.57391 -3.79485 L -2.57391 -3.52134 L -2.00222 -3.52134 L -2.00222 -3.79485 L -2.57391 -3.79485 Z" />
    <path d="M -3.55574 -3.79485 L -3.55574 -3.38459 L -3.28224 -3.38459 L -3.28224 -3.52134 L -3.14549 -3.52134 L -3.14549 -3.79485 L -3.55574 -3.79485 Z" />
    <path d="M -3.55574 2.51656 L -3.55574 3.0531 L -3.28224 3.0531 L -3.28224 2.51656 L -3.55574 2.51656 Z" />
    <path d="M -3.55574 -2.84966 L -3.55574 -2.31301 L -3.28224 -2.31301 L -3.28224 -2.84966 L -3.55574 -2.84966 Z" />
    <path d="M -3.55574 3.58974 L -3.55574 4 L -3.14549 4 L -3.14549 3.7265 L -3.28224 3.7265 L -3.28224 3.58974 L -3.55574 3.58974 Z" />
    <path d="M 2.00182 3.7265 L 2.00182 4 L 2.57351 4 L 2.57351 3.7265 L 2.00182 3.7265 Z" />
    <path d="M 0.85856 3.7265 L 0.85856 4 L 1.43024 4 L 1.43024 3.7265 L 0.85856 3.7265 Z" />
    <path d="M -0.2846 3.7265 L -0.2846 4 L 0.28698 4 L 0.28698 3.7265 L -0.2846 3.7265 Z" />
    <path d="M -1.42787 3.7265 L -1.42787 4 L -0.85629 4 L -0.85629 3.7265 L -1.42787 3.7265 Z" />
    <path d="M -2.57113 3.7265 L -2.57113 4 L -1.99955 4 L -1.99955 3.7265 L -2.57113 3.7265 Z" />
    <path d="M 3.28184 3.58974 L 3.28184 3.7265 L 3.14509 3.7265 L 3.14509 4 L 3.55534 4 L 3.55534 3.58974 L 3.28184 3.58974 Z" />
    <path d="M -0.02482 0.92309 L -0.02482 1.1955 L 0.68356 0.78634 L -0.02482 0.37717 L -0.02482 0.64958 L -0.90607 0.64958 L -0.90607 0.92309 L -0.02482 0.92309 Z" />
    <path d="M -0.02482 -0.44443 L -0.02482 -0.17202 L 0.68356 -0.58118 L -0.02482 -0.99034 L -0.02482 -0.71793 L -0.90607 -0.71793 L -0.90607 -0.44443 L -0.02482 -0.44443 Z" />
    <path d="M -4.10278 -3.99995 L -4.10272 -3.99995 L -4.10272 -4 L -4.10278 -4 L -4.10278 -3.99995 Z" />
</svg>