<svg version="1.1" xmlns="http://www.w3.org/2000/svg" viewBox="-3.733 -5 7.467 10" fill="black" stroke="none"><path fill-rule="evenodd" d="M 1.855 2.608 L 2.068 3.107 L 2.231 2.89 L 2.467 3.067 L 2.467 4 L 2.733 4 L 2.733 2.933 L 2.391 2.676 L 2.547 2.468 L 2.031 2.406 L 1.4 1.933 L 1.4 0.749 L 2.727 0.082 L 2.727 -4 L 2.46 -4 L 2.46 -2.133 L -0.122 -2.133 L -1.267 -0.989 L -1.267 -1.667 L -1.533 -1.667 L -1.533 -0.123 L -2.733 -0.123 L -2.733 0.143 L -1.533 0.143 L -1.533 1.667 L -1.267 1.667 L -1.267 0.882 L -0.835 1.098 L -0.53 1.56 L -0.406 1.313 L -0.098 1.467 L 1.133 1.467 L 1.133 3 L 1.4 3 L 1.4 2.267 L 1.855 2.608 Z M -0.287 1.074 L -0.173 0.846 L -0.681 0.877 L -1.267 0.584 L -1.267 -0.611 L -0.011 -1.867 L 2.46 -1.867 L 2.46 -0.082 L 1.4 0.45 L 1.4 -0.333 L 1.133 -0.333 L 1.133 1.2 L -0.035 1.2 L -0.287 1.074 Z" /></svg>