<svg version="1.1" xmlns="http://www.w3.org/2000/svg" viewBox="-8.500000812500005 -5.0000009000000025 17.00000162500001 10.000001800000005" fill="black" stroke="none">
    <path fill-rule="evenodd" d="M -7.5 2.75605 L -4.625 2.75605 L -4.625 4 L -1.875 4 L -1.63066 3.99986 L -1.36802 3.99828 L -1.08948 3.99347 L -0.79747 3.98367 L -0.4944 3.96711 L -0.1827 3.94203 L 0.13521 3.90664 L 0.45693 3.85918 L 0.78002 3.79789 L 1.10208 3.72099 L 1.42068 3.62671 L 1.7334 3.51328 L 2.02392 3.38415 L 2.30378 3.23218 L 2.57056 3.05643 L 2.82183 2.85596 L 3.05518 2.62984 L 3.26818 2.37712 L 3.45841 2.09688 L 3.62344 1.78818 L 3.76086 1.45007 L 3.86824 1.08163 L 3.94316 0.68192 L 3.9832 0.25 L 7.5 0.25 L 7.5 -0.25 L 3.9832 -0.25 L 3.94316 -0.68192 L 3.86824 -1.08163 L 3.76086 -1.45007 L 3.62344 -1.78818 L 3.45841 -2.09688 L 3.26818 -2.37712 L 3.05518 -2.62984 L 2.82183 -2.85596 L 2.57056 -3.05643 L 2.30378 -3.23218 L 2.02392 -3.38415 L 1.7334 -3.51328 L 1.42068 -3.62671 L 1.10208 -3.72099 L 0.78002 -3.79789 L 0.45693 -3.85918 L 0.13521 -3.90664 L -0.1827 -3.94203 L -0.4944 -3.96711 L -0.79747 -3.98367 L -1.08948 -3.99347 L -1.36802 -3.99828 L -1.63066 -3.99986 L -1.875 -4 L -4.625 -4 L -4.625 -2.76895 L -7.5 -2.76895 L -7.5 -2.26895 L -4.625 -2.26895 L -4.625 2.25605 L -7.5 2.25605 L -7.5 2.75605 Z M -4.125 3.5 L -4.125 -3.5 L -1.875 -3.5 L -1.63187 -3.49959 L -1.37287 -3.49738 L -1.10046 -3.49188 L -0.81711 -3.48161 L -0.52529 -3.46507 L -0.22745 -3.44079 L 0.07393 -3.40727 L 0.3764 -3.36304 L 0.6775 -3.3066 L 0.97474 -3.23648 L 1.26568 -3.15118 L 1.54785 -3.04922 L 1.81899 -2.93035 L 2.07712 -2.79391 L 2.32025 -2.63778 L 2.54634 -2.45988 L 2.75338 -2.25809 L 2.93937 -2.03031 L 3.10227 -1.77443 L 3.24007 -1.48836 L 3.35077 -1.16998 L 3.43233 -0.8172 L 3.48275 -0.42791 L 3.5 0 L 3.48275 0.42791 L 3.43233 0.8172 L 3.35077 1.16998 L 3.24007 1.48836 L 3.10227 1.77443 L 2.93937 2.03031 L 2.75338 2.25809 L 2.54634 2.45988 L 2.32025 2.63778 L 2.07712 2.79391 L 1.81899 2.93035 L 1.54785 3.04922 L 1.26568 3.15118 L 0.97474 3.23648 L 0.6775 3.3066 L 0.3764 3.36304 L 0.07393 3.40727 L -0.22745 3.44079 L -0.52529 3.46507 L -0.81711 3.48161 L -1.10046 3.49188 L -1.37287 3.49738 L -1.63187 3.49959 L -1.875 3.5 L -4.125 3.5 Z" />
</svg>