<svg version="1.1" xmlns="http://www.w3.org/2000/svg" viewBox="-6.895788127967726 -5.000000921389505 13.791576255935452 10.00000184277901" fill="black" stroke="none">
    <path fill-rule="evenodd" d="M -5.89579 0.12705 L -4.12705 0.12705 L -4.12705 1.601 L -1.94837 1.601 L -4.06947 3.7221 L -3.79157 4 L -1.39257 1.601 L 4.12705 1.601 L 4.12705 0.12705 L 5.89579 0.12705 L 5.89579 -0.266 L 4.12705 -0.266 L 4.12705 -1.73995 L 1.94837 -1.73995 L 2.86949 -2.66106 L 3.42349 -2.10706 L 3.93052 -4 L 2.03758 -3.49296 L 2.59159 -2.93896 L 1.39257 -1.73995 L -4.12705 -1.73995 L -4.12705 -0.266 L -5.89579 -0.266 L -5.89579 0.12705 Z M -0.99952 1.20795 L 1.55532 -1.3469 L 3.734 -1.3469 L 3.734 1.20795 L -0.99952 1.20795 Z M -3.734 1.20795 L -3.734 -1.3469 L 0.99952 -1.3469 L -1.55532 1.20795 L -3.734 1.20795 Z" />
</svg>