<svg version="1.1" xmlns="http://www.w3.org/2000/svg" viewBox="-5.134759527994669 -5.000000945392665 10.269519055989338 10.000001890785356" fill="black" stroke="none">
    <path fill-rule="evenodd" d="M 2.48151 1.37778 L 4.07333 1.37778 L 4.07333 1.10475 L 2.48382 1.10475 L 2.46559 1.05265 L 2.43777 0.99751 L 2.40331 0.94667 L 2.36281 0.9007 L 2.31684 0.86019 L 2.26599 0.82574 L 2.21086 0.79792 L 2.15201 0.77732 L 2.09005 0.76454 L 2.02555 0.76014 L 1.96105 0.76454 L 1.89909 0.77732 L 1.84025 0.79792 L 1.78511 0.82574 L 1.73426 0.86019 L 1.68829 0.9007 L 1.64779 0.94667 L 1.61333 0.99751 L 1.58551 1.05265 L 1.56492 1.1115 L 1.55213 1.17346 L 1.54774 1.23796 L 1.55213 1.30245 L 1.56492 1.36442 L 1.58551 1.42326 L 1.61333 1.4784 L 1.64779 1.52925 L 1.68829 1.57522 L 1.73426 1.61572 L 1.78511 1.65018 L 1.84025 1.67799 L 1.89909 1.69859 L 1.96105 1.71138 L 2.02555 1.71577 L 2.09005 1.71138 L 2.15201 1.69859 L 2.21086 1.67799 L 2.26599 1.65018 L 2.31684 1.61572 L 2.36281 1.57522 L 2.40331 1.52925 L 2.43777 1.4784 L 2.46559 1.42326 L 2.48151 1.37778 Z M 2.02555 1.03318 L 2.05368 1.03502 L 2.08055 1.04038 L 2.10594 1.04904 L 2.12962 1.06078 L 2.15137 1.07536 L 2.17096 1.09255 L 2.18815 1.11214 L 2.20273 1.13388 L 2.21446 1.15757 L 2.22313 1.18296 L 2.22849 1.20983 L 2.23033 1.23796 L 2.22849 1.26608 L 2.22313 1.29296 L 2.21446 1.31835 L 2.20273 1.34203 L 2.18815 1.36378 L 2.17096 1.38336 L 2.15137 1.40056 L 2.12962 1.41514 L 2.10594 1.42687 L 2.08055 1.43553 L 2.05368 1.4409 L 2.02555 1.44273 L 1.99742 1.4409 L 1.97055 1.43553 L 1.94516 1.42687 L 1.92148 1.41514 L 1.89973 1.40056 L 1.88014 1.38336 L 1.86295 1.36378 L 1.84837 1.34203 L 1.83664 1.31835 L 1.82798 1.29296 L 1.82261 1.26608 L 1.82077 1.23796 L 1.82261 1.20983 L 1.82798 1.18296 L 1.83664 1.15757 L 1.84837 1.13388 L 1.86295 1.11214 L 1.88014 1.09255 L 1.89973 1.07536 L 1.92148 1.06078 L 1.94516 1.04904 L 1.97055 1.04038 L 1.99742 1.03502 L 2.02555 1.03318 Z" />
    <path d="M -4.13473 2.34482 L -4.13473 2.61786 L -2.42825 2.61786 L -2.42825 2.34482 L -4.13473 2.34482 Z" />
    <path fill-rule="evenodd" d="M 2.42828 -0.79236 L 2.42828 -0.64045 L 4.13476 -0.64045 L 4.13476 -0.91349 L 2.48378 -0.91349 L 2.48618 -0.92034 L 2.49897 -0.98231 L 2.50336 -1.0468 L 2.49897 -1.1113 L 2.48618 -1.17326 L 2.46559 -1.23211 L 2.43777 -1.28725 L 2.40331 -1.33809 L 2.36281 -1.38406 L 2.31684 -1.42457 L 2.26599 -1.45902 L 2.21086 -1.48684 L 2.15201 -1.50744 L 2.09005 -1.52023 L 2.02555 -1.52462 L 1.96105 -1.52023 L 1.89909 -1.50744 L 1.84025 -1.48684 L 1.78511 -1.45902 L 1.73426 -1.42457 L 1.68829 -1.38406 L 1.64779 -1.33809 L 1.61333 -1.28725 L 1.58551 -1.23211 L 1.56492 -1.17326 L 1.55213 -1.1113 L 1.54774 -1.0468 L 1.55213 -0.98231 L 1.56492 -0.92034 L 1.58551 -0.8615 L 1.61333 -0.80636 L 1.64779 -0.75551 L 1.68829 -0.70955 L 1.73426 -0.66904 L 1.78511 -0.63459 L 1.84025 -0.60677 L 1.89909 -0.58617 L 1.96105 -0.57338 L 2.02555 -0.56899 L 2.09005 -0.57338 L 2.15201 -0.58617 L 2.21086 -0.60677 L 2.26599 -0.63459 L 2.31684 -0.66904 L 2.36281 -0.70955 L 2.40331 -0.75551 L 2.42828 -0.79236 Z M 2.02555 -1.25158 L 2.05368 -1.24974 L 2.08055 -1.24438 L 2.10594 -1.23572 L 2.12962 -1.22398 L 2.15137 -1.20941 L 2.17096 -1.19221 L 2.18815 -1.17263 L 2.20273 -1.15088 L 2.21446 -1.1272 L 2.22313 -1.1018 L 2.22849 -1.07493 L 2.23033 -1.0468 L 2.22849 -1.01868 L 2.22313 -0.99181 L 2.21446 -0.96641 L 2.20273 -0.94273 L 2.18815 -0.92098 L 2.17096 -0.9014 L 2.15137 -0.8842 L 2.12962 -0.86963 L 2.10594 -0.85789 L 2.08055 -0.84923 L 2.05368 -0.84387 L 2.02555 -0.84203 L 1.99742 -0.84387 L 1.97055 -0.84923 L 1.94516 -0.85789 L 1.92148 -0.86963 L 1.89973 -0.8842 L 1.88014 -0.9014 L 1.86295 -0.92098 L 1.84837 -0.94273 L 1.83664 -0.96641 L 1.82798 -0.99181 L 1.82261 -1.01868 L 1.82077 -1.0468 L 1.82261 -1.07493 L 1.82798 -1.1018 L 1.83664 -1.1272 L 1.84837 -1.15088 L 1.86295 -1.17263 L 1.88014 -1.19221 L 1.89973 -1.20941 L 1.92148 -1.22398 L 1.94516 -1.23572 L 1.97055 -1.24438 L 1.99742 -1.24974 L 2.02555 -1.25158 Z" />
    <path d="M -4.13473 -2.09202 L -4.13473 -1.81899 L -2.42825 -1.81899 L -2.42825 -2.09202 L -4.13473 -2.09202 Z" />
    <path fill-rule="evenodd" d="M 2.48151 -3.19121 L 4.07333 -3.19121 L 4.07333 -3.46424 L 2.48382 -3.46424 L 2.46559 -3.51634 L 2.43777 -3.57148 L 2.40331 -3.62232 L 2.36281 -3.66829 L 2.31684 -3.7088 L 2.26599 -3.74325 L 2.21086 -3.77107 L 2.15201 -3.79167 L 2.09005 -3.80445 L 2.02555 -3.80885 L 1.96105 -3.80445 L 1.89909 -3.79167 L 1.84025 -3.77107 L 1.78511 -3.74325 L 1.73426 -3.7088 L 1.68829 -3.66829 L 1.64779 -3.62232 L 1.61333 -3.57148 L 1.58551 -3.51634 L 1.56492 -3.45749 L 1.55213 -3.39553 L 1.54774 -3.33103 L 1.55213 -3.26654 L 1.56492 -3.20457 L 1.58551 -3.14573 L 1.61333 -3.09059 L 1.64779 -3.03974 L 1.68829 -2.99377 L 1.73426 -2.95327 L 1.78511 -2.91881 L 1.84025 -2.891 L 1.89909 -2.8704 L 1.96105 -2.85761 L 2.02555 -2.85322 L 2.09005 -2.85761 L 2.15201 -2.8704 L 2.21086 -2.891 L 2.26599 -2.91881 L 2.31684 -2.95327 L 2.36281 -2.99377 L 2.40331 -3.03974 L 2.43777 -3.09059 L 2.46559 -3.14573 L 2.48151 -3.19121 Z M 2.02555 -3.53581 L 2.05368 -3.53397 L 2.08055 -3.52861 L 2.10594 -3.51995 L 2.12962 -3.50821 L 2.15137 -3.49363 L 2.17096 -3.47644 L 2.18815 -3.45685 L 2.20273 -3.43511 L 2.21446 -3.41142 L 2.22313 -3.38603 L 2.22849 -3.35916 L 2.23033 -3.33103 L 2.22849 -3.30291 L 2.22313 -3.27603 L 2.21446 -3.25064 L 2.20273 -3.22696 L 2.18815 -3.20521 L 2.17096 -3.18563 L 2.15137 -3.16843 L 2.12962 -3.15385 L 2.10594 -3.14212 L 2.08055 -3.13346 L 2.05368 -3.12809 L 2.02555 -3.12626 L 1.99742 -3.12809 L 1.97055 -3.13346 L 1.94516 -3.14212 L 1.92148 -3.15385 L 1.89973 -3.16843 L 1.88014 -3.18563 L 1.86295 -3.20521 L 1.84837 -3.22696 L 1.83664 -3.25064 L 1.82798 -3.27603 L 1.82261 -3.30291 L 1.82077 -3.33103 L 1.82261 -3.35916 L 1.82798 -3.38603 L 1.83664 -3.41142 L 1.84837 -3.43511 L 1.86295 -3.45685 L 1.88014 -3.47644 L 1.89973 -3.49363 L 1.92148 -3.50821 L 1.94516 -3.51995 L 1.97055 -3.52861 L 1.99742 -3.53397 L 2.02555 -3.53581 Z" />
    <path d="M -0.1757 -2.11602 L -0.1757 -1.9795 L 0.09734 -1.9795 L 0.09734 -2.11602 L -0.1757 -2.11602 Z" />
    <path d="M -0.1757 -1.68844 L -0.1757 -1.39738 L 0.09734 -1.39738 L 0.09734 -1.68844 L -0.1757 -1.68844 Z" />
    <path d="M -0.1757 -1.10632 L -0.1757 -0.81526 L 0.09734 -0.81526 L 0.09734 -1.10632 L -0.1757 -1.10632 Z" />
    <path d="M -0.1757 -0.5242 L -0.1757 -0.23313 L 0.09734 -0.23313 L 0.09734 -0.5242 L -0.1757 -0.5242 Z" />
    <path d="M -0.1757 0.05793 L -0.1757 0.34899 L 0.09734 0.34899 L 0.09734 0.05793 L -0.1757 0.05793 Z" />
    <path d="M -0.1757 0.64005 L -0.1757 0.93111 L 0.09734 0.93111 L 0.09734 0.64005 L -0.1757 0.64005 Z" />
    <path d="M -0.1757 1.22217 L -0.1757 1.51323 L 0.09734 1.51323 L 0.09734 1.22217 L -0.1757 1.22217 Z" />
    <path d="M -0.1757 1.80206 L -0.1757 1.93857 L 0.09734 1.93857 L 0.09734 1.80206 L -0.1757 1.80206 Z" />
    <path d="M -4.13476 -3.99995 L -4.1347 -3.99995 L -4.1347 -4 L -4.13476 -4 L -4.13476 -3.99995 Z" />
    <path fill-rule="evenodd" d="M 2.41804 3.79174 L 2.41804 3.93014 L 4.12452 3.93014 L 4.12452 3.6571 L 2.48322 3.6571 L 2.48618 3.64865 L 2.49897 3.58668 L 2.50336 3.52219 L 2.49897 3.45769 L 2.48618 3.39573 L 2.46559 3.33688 L 2.43777 3.28174 L 2.40331 3.2309 L 2.36281 3.18493 L 2.31684 3.14442 L 2.26599 3.10997 L 2.21086 3.08215 L 2.15201 3.06155 L 2.09005 3.04876 L 2.02555 3.04437 L 1.96105 3.04876 L 1.89909 3.06155 L 1.84025 3.08215 L 1.78511 3.10997 L 1.73426 3.14442 L 1.68829 3.18493 L 1.64779 3.2309 L 1.61333 3.28174 L 1.58551 3.33688 L 1.56492 3.39573 L 1.55213 3.45769 L 1.54774 3.52219 L 1.55213 3.58668 L 1.56492 3.64865 L 1.58551 3.70749 L 1.61333 3.76263 L 1.64779 3.81348 L 1.68829 3.85945 L 1.73426 3.89995 L 1.78511 3.9344 L 1.84025 3.96222 L 1.89909 3.98282 L 1.96105 3.99561 L 2.02555 4 L 2.09005 3.99561 L 2.15201 3.98282 L 2.21086 3.96222 L 2.26599 3.9344 L 2.31684 3.89995 L 2.36281 3.85945 L 2.40331 3.81348 L 2.41804 3.79174 Z M 2.02555 3.31741 L 2.05368 3.31925 L 2.08055 3.32461 L 2.10594 3.33327 L 2.12962 3.34501 L 2.15137 3.35959 L 2.17096 3.37678 L 2.18815 3.39636 L 2.20273 3.41811 L 2.21446 3.4418 L 2.22313 3.46719 L 2.22849 3.49406 L 2.23033 3.52219 L 2.22849 3.55031 L 2.22313 3.57719 L 2.21446 3.60258 L 2.20273 3.62626 L 2.18815 3.64801 L 2.17096 3.66759 L 2.15137 3.68479 L 2.12962 3.69936 L 2.10594 3.7111 L 2.08055 3.71976 L 2.05368 3.72512 L 2.02555 3.72696 L 1.99742 3.72512 L 1.97055 3.71976 L 1.94516 3.7111 L 1.92148 3.69936 L 1.89973 3.68479 L 1.88014 3.66759 L 1.86295 3.64801 L 1.84837 3.62626 L 1.83664 3.60258 L 1.82798 3.57719 L 1.82261 3.55031 L 1.82077 3.52219 L 1.82261 3.49406 L 1.82798 3.46719 L 1.83664 3.4418 L 1.84837 3.41811 L 1.86295 3.39636 L 1.88014 3.37678 L 1.89973 3.35959 L 1.92148 3.34501 L 1.94516 3.33327 L 1.97055 3.32461 L 1.99742 3.31925 L 2.02555 3.31741 Z" />
</svg>