<svg version="1.1" xmlns="http://www.w3.org/2000/svg" viewBox="-5.204491850286842 -5.000000944055945 10.408983700573684 10.00000188811189" fill="black" stroke="none">
    <path fill-rule="evenodd" d="M 2.57371 1.31359 L 4.20449 1.31359 L 4.20449 1.03387 L 2.57608 1.03387 L 2.5574 0.9805 L 2.5289 0.92402 L 2.4936 0.87192 L 2.4521 0.82483 L 2.40501 0.78333 L 2.35292 0.74804 L 2.29643 0.71954 L 2.23614 0.69844 L 2.17266 0.68534 L 2.10659 0.68083 L 2.04051 0.68534 L 1.97703 0.69844 L 1.91675 0.71954 L 1.86026 0.74804 L 1.80817 0.78333 L 1.76107 0.82483 L 1.71958 0.87192 L 1.68428 0.92402 L 1.65578 0.9805 L 1.63468 1.04079 L 1.62158 1.10427 L 1.61708 1.17035 L 1.62158 1.23642 L 1.63468 1.2999 L 1.65578 1.36019 L 1.68428 1.41667 L 1.71958 1.46877 L 1.76107 1.51586 L 1.80817 1.55736 L 1.86026 1.59265 L 1.89262 1.60898 L -1.64653 2.28414 L -1.65578 2.25771 L -1.68428 2.20122 L -1.71958 2.14913 L -1.76107 2.10204 L -1.80817 2.06054 L -1.86026 2.02524 L -1.91675 1.99674 L -1.97703 1.97564 L -2.04051 1.96254 L -2.10659 1.95804 L -2.17266 1.96254 L -2.23614 1.97564 L -2.29643 1.99674 L -2.35292 2.02524 L -2.40501 2.06054 L -2.4521 2.10204 L -2.4936 2.14913 L -2.5289 2.20122 L -2.5574 2.25771 L -2.57371 2.3043 L -4.20449 2.3043 L -4.20449 2.58403 L -2.57608 2.58403 L -2.5574 2.63739 L -2.5289 2.69388 L -2.4936 2.74597 L -2.4521 2.79307 L -2.40501 2.83456 L -2.35292 2.86986 L -2.29643 2.89836 L -2.23614 2.91946 L -2.17266 2.93256 L -2.10659 2.93706 L -2.04051 2.93256 L -1.97703 2.91946 L -1.91675 2.89836 L -1.86026 2.86986 L -1.80817 2.83456 L -1.76107 2.79307 L -1.71958 2.74597 L -1.68428 2.69388 L -1.65578 2.63739 L -1.63468 2.57711 L -1.63242 2.56615 L 2.81474 1.71777 L 2.76229 1.44307 L 2.46652 1.4995 L 2.4936 1.46877 L 2.5289 1.41667 L 2.5574 1.36019 L 2.57371 1.31359 Z M 2.10659 0.96056 L 2.1354 0.96244 L 2.16293 0.96793 L 2.18895 0.97681 L 2.21321 0.98883 L 2.23549 1.00376 L 2.25555 1.02138 L 2.27317 1.04144 L 2.2881 1.06372 L 2.30013 1.08799 L 2.309 1.114 L 2.3145 1.14153 L 2.31638 1.17035 L 2.3145 1.19916 L 2.309 1.22669 L 2.30013 1.2527 L 2.2881 1.27697 L 2.27317 1.29925 L 2.25555 1.31931 L 2.23549 1.33693 L 2.21321 1.35186 L 2.18895 1.36388 L 2.16293 1.37276 L 2.1354 1.37825 L 2.10659 1.38014 L 2.07777 1.37825 L 2.05024 1.37276 L 2.02423 1.36388 L 1.99997 1.35186 L 1.97769 1.33693 L 1.95762 1.31931 L 1.94001 1.29925 L 1.92507 1.27697 L 1.91305 1.2527 L 1.90418 1.22669 L 1.89868 1.19916 L 1.8968 1.17035 L 1.89868 1.14153 L 1.90418 1.114 L 1.91305 1.08799 L 1.92507 1.06372 L 1.94001 1.04144 L 1.95762 1.02138 L 1.97769 1.00376 L 1.99997 0.98883 L 2.02423 0.97681 L 2.05024 0.96793 L 2.07777 0.96244 L 2.10659 0.96056 Z M -2.10659 2.23776 L -2.07777 2.23965 L -2.05024 2.24514 L -2.02423 2.25402 L -1.99997 2.26604 L -1.97769 2.28097 L -1.95762 2.29859 L -1.94001 2.31865 L -1.92507 2.34093 L -1.91305 2.36519 L -1.90418 2.39121 L -1.89868 2.41874 L -1.8968 2.44755 L -1.89868 2.47637 L -1.90418 2.5039 L -1.91305 2.52991 L -1.92507 2.55417 L -1.94001 2.57645 L -1.95762 2.59652 L -1.97769 2.61413 L -1.99997 2.62907 L -2.02423 2.64109 L -2.05024 2.64996 L -2.07777 2.65546 L -2.10659 2.65734 L -2.1354 2.65546 L -2.16293 2.64996 L -2.18895 2.64109 L -2.21321 2.62907 L -2.23549 2.61413 L -2.25555 2.59652 L -2.27317 2.57645 L -2.2881 2.55417 L -2.30013 2.52991 L -2.309 2.5039 L -2.3145 2.47637 L -2.31638 2.44755 L -2.3145 2.41874 L -2.309 2.39121 L -2.30013 2.36519 L -2.2881 2.34093 L -2.27317 2.31865 L -2.25555 2.29859 L -2.23549 2.28097 L -2.21321 2.26604 L -2.18895 2.25402 L -2.16293 2.24514 L -2.1354 2.23965 L -2.10659 2.23776 Z M -0.14855 0.5578 L -0.14855 0.85599 L 0.13117 0.85599 L 0.13117 0.5578 L -0.14855 0.5578 Z M -0.14855 1.74825 L -0.14855 1.88811 L 0.13117 1.88811 L 0.13117 1.74825 L -0.14855 1.74825 Z M -0.14855 1.15417 L -0.14855 1.45236 L 0.13117 1.45236 L 0.13117 1.15417 L -0.14855 1.15417 Z M -0.14855 -2.26573 L -0.14855 -2.12587 L 0.13117 -2.12587 L 0.13117 -2.26573 L -0.14855 -2.26573 Z M 2.57371 -3.36724 L 4.20449 -3.36724 L 4.20449 -3.64696 L 2.57608 -3.64696 L 2.5574 -3.70033 L 2.5289 -3.75682 L 2.4936 -3.80891 L 2.4521 -3.856 L 2.40501 -3.8975 L 2.35292 -3.9328 L 2.29643 -3.9613 L 2.23614 -3.9824 L 2.17266 -3.9955 L 2.10659 -4 L 2.04051 -3.9955 L 1.97703 -3.9824 L 1.91675 -3.9613 L 1.86026 -3.9328 L 1.80817 -3.8975 L 1.76107 -3.856 L 1.71958 -3.80891 L 1.68428 -3.75682 L 1.65578 -3.70033 L 1.63468 -3.64005 L 1.62158 -3.57657 L 1.61708 -3.51049 L 1.62158 -3.44441 L 1.63468 -3.38093 L 1.65578 -3.32065 L 1.68428 -3.26416 L 1.71958 -3.21207 L 1.76107 -3.16497 L 1.80817 -3.12348 L 1.86026 -3.08818 L 1.87661 -3.07993 L -1.64834 -2.26648 L -1.65578 -2.28774 L -1.68428 -2.34423 L -1.71958 -2.39632 L -1.76107 -2.44342 L -1.80817 -2.48491 L -1.86026 -2.52021 L -1.91675 -2.54871 L -1.97703 -2.56981 L -2.04051 -2.58291 L -2.10659 -2.58741 L -2.17266 -2.58291 L -2.23614 -2.56981 L -2.29643 -2.54871 L -2.35292 -2.52021 L -2.40501 -2.48491 L -2.4521 -2.44342 L -2.4936 -2.39632 L -2.5289 -2.34423 L -2.5574 -2.28774 L -2.57371 -2.24115 L -4.20449 -2.24115 L -4.20449 -1.96143 L -2.57608 -1.96143 L -2.5574 -1.90806 L -2.5289 -1.85157 L -2.4936 -1.79948 L -2.4521 -1.75239 L -2.40501 -1.71089 L -2.35292 -1.67559 L -2.29643 -1.64709 L -2.23614 -1.62599 L -2.17266 -1.61289 L -2.10659 -1.60839 L -2.04051 -1.61289 L -1.97703 -1.62599 L -1.91675 -1.64709 L -1.86026 -1.67559 L -1.80817 -1.71089 L -1.76107 -1.75239 L -1.71958 -1.79948 L -1.68428 -1.85157 L -1.65578 -1.90806 L -1.63468 -1.96835 L -1.63159 -1.98331 L 2.81998 -3.0106 L 2.75705 -3.28311 L 2.50183 -3.22421 L 2.5289 -3.26416 L 2.5574 -3.32065 L 2.57371 -3.36724 Z M 2.10659 -3.72028 L 2.1354 -3.7184 L 2.16293 -3.7129 L 2.18895 -3.70403 L 2.21321 -3.69201 L 2.23549 -3.67707 L 2.25555 -3.65945 L 2.27317 -3.63939 L 2.2881 -3.61711 L 2.30013 -3.59285 L 2.309 -3.56684 L 2.3145 -3.5393 L 2.31638 -3.51049 L 2.3145 -3.48167 L 2.309 -3.45414 L 2.30013 -3.42813 L 2.2881 -3.40387 L 2.27317 -3.38159 L 2.25555 -3.36152 L 2.23549 -3.34391 L 2.21321 -3.32897 L 2.18895 -3.31695 L 2.16293 -3.30808 L 2.1354 -3.30258 L 2.10659 -3.3007 L 2.07777 -3.30258 L 2.05024 -3.30808 L 2.02423 -3.31695 L 1.99997 -3.32897 L 1.97769 -3.34391 L 1.95762 -3.36152 L 1.94001 -3.38159 L 1.92507 -3.40387 L 1.91305 -3.42813 L 1.90418 -3.45414 L 1.89868 -3.48167 L 1.8968 -3.51049 L 1.89868 -3.5393 L 1.90418 -3.56684 L 1.91305 -3.59285 L 1.92507 -3.61711 L 1.94001 -3.63939 L 1.95762 -3.65945 L 1.97769 -3.67707 L 1.99997 -3.69201 L 2.02423 -3.70403 L 2.05024 -3.7129 L 2.07777 -3.7184 L 2.10659 -3.72028 Z M -2.10659 -2.30769 L -2.07777 -2.30581 L -2.05024 -2.30031 L -2.02423 -2.29144 L -1.99997 -2.27942 L -1.97769 -2.26448 L -1.95762 -2.24687 L -1.94001 -2.2268 L -1.92507 -2.20452 L -1.91305 -2.18026 L -1.90418 -2.15425 L -1.89868 -2.12672 L -1.8968 -2.0979 L -1.89868 -2.06909 L -1.90418 -2.04156 L -1.91305 -2.01554 L -1.92507 -1.99128 L -1.94001 -1.969 L -1.95762 -1.94894 L -1.97769 -1.93132 L -1.99997 -1.91639 L -2.02423 -1.90437 L -2.05024 -1.89549 L -2.07777 -1.89 L -2.10659 -1.88811 L -2.1354 -1.89 L -2.16293 -1.89549 L -2.18895 -1.90437 L -2.21321 -1.91639 L -2.23549 -1.93132 L -2.25555 -1.94894 L -2.27317 -1.969 L -2.2881 -1.99128 L -2.30013 -2.01554 L -2.309 -2.04156 L -2.3145 -2.06909 L -2.31638 -2.0979 L -2.3145 -2.12672 L -2.309 -2.15425 L -2.30013 -2.18026 L -2.2881 -2.20452 L -2.27317 -2.2268 L -2.25555 -2.24687 L -2.23549 -2.26448 L -2.21321 -2.27942 L -2.18895 -2.29144 L -2.16293 -2.30031 L -2.1354 -2.30581 L -2.10659 -2.30769 Z M 2.57352 -1.02655 L 4.20449 -1.02655 L 4.20449 -1.30627 L 2.57627 -1.30627 L 2.5574 -1.36019 L 2.5289 -1.41667 L 2.4936 -1.46877 L 2.4521 -1.51586 L 2.40501 -1.55736 L 2.35292 -1.59266 L 2.29643 -1.62115 L 2.23614 -1.64225 L 2.17266 -1.65536 L 2.10659 -1.65986 L 2.04051 -1.65536 L 1.97703 -1.64225 L 1.91675 -1.62115 L 1.86026 -1.59266 L 1.80817 -1.55736 L 1.76107 -1.51586 L 1.71958 -1.46877 L 1.68428 -1.41667 L 1.65578 -1.36019 L 1.63468 -1.2999 L 1.62158 -1.23642 L 1.61708 -1.17035 L 1.62158 -1.10427 L 1.63468 -1.04079 L 1.65578 -0.9805 L 1.68428 -0.92402 L 1.71958 -0.87192 L 1.76107 -0.82483 L 1.80817 -0.78333 L 1.86026 -0.74804 L 1.91675 -0.71954 L 1.97703 -0.69844 L 2.04051 -0.68534 L 2.10659 -0.68083 L 2.17266 -0.68534 L 2.23614 -0.69844 L 2.29643 -0.71954 L 2.35292 -0.74804 L 2.40501 -0.78333 L 2.4521 -0.82483 L 2.4936 -0.87192 L 2.5289 -0.92402 L 2.5574 -0.9805 L 2.57352 -1.02655 Z M 2.10659 -1.38014 L 2.1354 -1.37825 L 2.16293 -1.37276 L 2.18895 -1.36388 L 2.21321 -1.35186 L 2.23549 -1.33693 L 2.25555 -1.31931 L 2.27317 -1.29925 L 2.2881 -1.27697 L 2.30013 -1.2527 L 2.309 -1.22669 L 2.3145 -1.19916 L 2.31638 -1.17035 L 2.3145 -1.14153 L 2.309 -1.114 L 2.30013 -1.08799 L 2.2881 -1.06372 L 2.27317 -1.04144 L 2.25555 -1.02138 L 2.23549 -1.00376 L 2.21321 -0.98883 L 2.18895 -0.97681 L 2.16293 -0.96793 L 2.1354 -0.96244 L 2.10659 -0.96056 L 2.07777 -0.96244 L 2.05024 -0.96793 L 2.02423 -0.97681 L 1.99997 -0.98883 L 1.97769 -1.00376 L 1.95762 -1.02138 L 1.94001 -1.04144 L 1.92507 -1.06372 L 1.91305 -1.08799 L 1.90418 -1.114 L 1.89868 -1.14153 L 1.8968 -1.17035 L 1.89868 -1.19916 L 1.90418 -1.22669 L 1.91305 -1.2527 L 1.92507 -1.27697 L 1.94001 -1.29925 L 1.95762 -1.31931 L 1.97769 -1.33693 L 1.99997 -1.35186 L 2.02423 -1.36388 L 2.05024 -1.37276 L 2.07777 -1.37825 L 2.10659 -1.38014 Z M -0.14855 -1.82769 L -0.14855 -1.5295 L 0.13117 -1.5295 L 0.13117 -1.82769 L -0.14855 -1.82769 Z M -0.14855 -0.03857 L -0.14855 0.25962 L 0.13117 0.25962 L 0.13117 -0.03857 L -0.14855 -0.03857 Z M -0.14855 -0.63494 L -0.14855 -0.33676 L 0.13117 -0.33676 L 0.13117 -0.63494 L -0.14855 -0.63494 Z M -0.14855 -1.23132 L -0.14855 -0.93313 L 0.13117 -0.93313 L 0.13117 -1.23132 L -0.14855 -1.23132 Z M 2.57371 3.65374 L 4.20449 3.65374 L 4.20449 3.37402 L 2.57608 3.37402 L 2.5574 3.32065 L 2.5289 3.26416 L 2.4936 3.21207 L 2.4521 3.16497 L 2.40501 3.12348 L 2.35292 3.08818 L 2.29643 3.05968 L 2.23614 3.03858 L 2.17266 3.02548 L 2.10659 3.02098 L 2.04051 3.02548 L 1.97703 3.03858 L 1.91675 3.05968 L 1.86026 3.08818 L 1.80817 3.12348 L 1.76107 3.16497 L 1.71958 3.21207 L 1.68428 3.26416 L 1.65578 3.32065 L 1.63468 3.38093 L 1.62158 3.44441 L 1.61708 3.51049 L 1.62158 3.57657 L 1.63468 3.64005 L 1.65578 3.70033 L 1.68428 3.75682 L 1.71958 3.80891 L 1.76107 3.856 L 1.80817 3.8975 L 1.86026 3.9328 L 1.91675 3.9613 L 1.97703 3.9824 L 2.04051 3.9955 L 2.10659 4 L 2.17266 3.9955 L 2.23614 3.9824 L 2.29643 3.9613 L 2.35292 3.9328 L 2.40501 3.8975 L 2.4521 3.856 L 2.4936 3.80891 L 2.5289 3.75682 L 2.5574 3.70033 L 2.57371 3.65374 Z M 2.10659 3.3007 L 2.1354 3.30258 L 2.16293 3.30808 L 2.18895 3.31695 L 2.21321 3.32897 L 2.23549 3.34391 L 2.25555 3.36152 L 2.27317 3.38159 L 2.2881 3.40387 L 2.30013 3.42813 L 2.309 3.45414 L 2.3145 3.48167 L 2.31638 3.51049 L 2.3145 3.5393 L 2.309 3.56684 L 2.30013 3.59285 L 2.2881 3.61711 L 2.27317 3.63939 L 2.25555 3.65945 L 2.23549 3.67707 L 2.21321 3.69201 L 2.18895 3.70403 L 2.16293 3.7129 L 2.1354 3.7184 L 2.10659 3.72028 L 2.07777 3.7184 L 2.05024 3.7129 L 2.02423 3.70403 L 1.99997 3.69201 L 1.97769 3.67707 L 1.95762 3.65945 L 1.94001 3.63939 L 1.92507 3.61711 L 1.91305 3.59285 L 1.90418 3.56684 L 1.89868 3.5393 L 1.8968 3.51049 L 1.89868 3.48167 L 1.90418 3.45414 L 1.91305 3.42813 L 1.92507 3.40387 L 1.94001 3.38159 L 1.95762 3.36152 L 1.97769 3.34391 L 1.99997 3.32897 L 2.02423 3.31695 L 2.05024 3.30808 L 2.07777 3.30258 L 2.10659 3.3007 Z" />
</svg>