<svg version="1.1" xmlns="http://www.w3.org/2000/svg" viewBox="-8.5 -5 17 10" fill="black" stroke="none"><path fill-rule="evenodd" d="M -7.5 2.756 L -4.625 2.756 L -4.625 4 L -1.875 4 L -1.631 4 L -1.368 3.998 L -1.089 3.993 L -0.797 3.984 L -0.494 3.967 L -0.183 3.942 L 0.135 3.907 L 0.457 3.859 L 0.78 3.798 L 1.102 3.721 L 1.421 3.627 L 1.733 3.513 L 2.024 3.384 L 2.304 3.232 L 2.571 3.056 L 2.822 2.856 L 3.055 2.63 L 3.268 2.377 L 3.458 2.097 L 3.623 1.788 L 3.761 1.45 L 3.868 1.082 L 3.943 0.682 L 3.983 0.25 L 7.5 0.25 L 7.5 -0.25 L 3.983 -0.25 L 3.943 -0.682 L 3.868 -1.082 L 3.761 -1.45 L 3.623 -1.788 L 3.458 -2.097 L 3.268 -2.377 L 3.055 -2.63 L 2.822 -2.856 L 2.571 -3.056 L 2.304 -3.232 L 2.024 -3.384 L 1.733 -3.513 L 1.421 -3.627 L 1.102 -3.721 L 0.78 -3.798 L 0.457 -3.859 L 0.135 -3.907 L -0.183 -3.942 L -0.494 -3.967 L -0.797 -3.984 L -1.089 -3.993 L -1.368 -3.998 L -1.631 -4 L -1.875 -4 L -4.625 -4 L -4.625 -2.769 L -7.5 -2.769 L -7.5 -2.269 L -4.625 -2.269 L -4.625 2.256 L -7.5 2.256 L -7.5 2.756 Z M -4.125 3.5 L -4.125 -3.5 L -1.875 -3.5 L -1.632 -3.5 L -1.373 -3.497 L -1.1 -3.492 L -0.817 -3.482 L -0.525 -3.465 L -0.227 -3.441 L 0.074 -3.407 L 0.376 -3.363 L 0.677 -3.307 L 0.975 -3.236 L 1.266 -3.151 L 1.548 -3.049 L 1.819 -2.93 L 2.077 -2.794 L 2.32 -2.638 L 2.546 -2.46 L 2.753 -2.258 L 2.939 -2.03 L 3.102 -1.774 L 3.24 -1.488 L 3.351 -1.17 L 3.432 -0.817 L 3.483 -0.428 L 3.5 0 L 3.483 0.428 L 3.432 0.817 L 3.351 1.17 L 3.24 1.488 L 3.102 1.774 L 2.939 2.03 L 2.753 2.258 L 2.546 2.46 L 2.32 2.638 L 2.077 2.794 L 1.819 2.93 L 1.548 3.049 L 1.266 3.151 L 0.975 3.236 L 0.677 3.307 L 0.376 3.363 L 0.074 3.407 L -0.227 3.441 L -0.525 3.465 L -0.817 3.482 L -1.1 3.492 L -1.373 3.497 L -1.632 3.5 L -1.875 3.5 L -4.125 3.5 Z" /></svg>