<svg version="1.1" xmlns="http://www.w3.org/2000/svg" viewBox="-5.211568853311329 -5.00000094385965 10.423137706622658 10.0000018877193" fill="black" stroke="none">
    <path d="M -1.46749 -4 L -1.46749 -3.7193 L -0.88076 -3.7193 L -0.88076 -4 L -1.46749 -4 Z" />
    <path d="M -2.64084 -4 L -2.64084 -3.7193 L -2.05411 -3.7193 L -2.05411 -4 L -2.64084 -4 Z" />
    <path d="M -0.29413 -4 L -0.29413 -3.7193 L 0.29249 -3.7193 L 0.29249 -4 L -0.29413 -4 Z" />
    <path d="M 0.87922 -4 L 0.87922 -3.7193 L 1.46584 -3.7193 L 1.46584 -4 L 0.87922 -4 Z" />
    <path d="M 2.05258 -4 L 2.05258 -3.7193 L 2.6392 -3.7193 L 2.6392 -4 L 2.05258 -4 Z" />
    <path d="M -3.64852 -4 L -3.64852 -3.57895 L -3.36782 -3.57895 L -3.36782 -3.7193 L -3.22747 -3.7193 L -3.22747 -4 L -3.64852 -4 Z" />
    <path d="M -1.46464 3.7193 L -1.46464 4 L -0.87802 4 L -0.87802 3.7193 L -1.46464 3.7193 Z" />
    <path d="M -2.63799 3.7193 L -2.63799 4 L -2.05137 4 L -2.05137 3.7193 L -2.63799 3.7193 Z" />
    <path d="M -0.29128 3.7193 L -0.29128 4 L 0.29534 4 L 0.29534 3.7193 L -0.29128 3.7193 Z" />
    <path d="M 0.88196 3.7193 L 0.88196 4 L 1.4687 4 L 1.4687 3.7193 L 0.88196 3.7193 Z" />
    <path d="M 2.05532 3.7193 L 2.05532 4 L 2.64205 4 L 2.64205 3.7193 L 2.05532 3.7193 Z" />
    <path d="M 3.36902 3.57895 L 3.36902 3.7193 L 3.22867 3.7193 L 3.22867 4 L 3.64973 4 L 3.64973 3.57895 L 3.36902 3.57895 Z" />
    <path d="M -0.02466 0.84211 L -0.02466 1.12168 L 0.70236 0.70175 L -0.02466 0.28182 L -0.02466 0.5614 L -0.92911 0.5614 L -0.92911 0.84211 L -0.02466 0.84211 Z" />
    <path d="M -0.02466 -0.5614 L -0.02466 -0.28182 L 0.70236 -0.70175 L -0.02466 -1.12168 L -0.02466 -0.84211 L -0.92911 -0.84211 L -0.92911 -0.5614 L -0.02466 -0.5614 Z" />
    <path d="M 3.36902 -2.6687 L 3.36902 -2.47752 L 3.64973 -2.47752 L 3.64973 -2.66916 L 4.21135 -2.67007 L 4.21091 -2.95077 L 3.64973 -2.94986 L 3.64973 -3.02818 L 3.36902 -3.02818 L 3.36902 -2.94941 L 1.96552 -2.94715 L 1.96552 -1.47862 L 1.19359 -0.96404 L 1.19359 -1.40351 L 0.91288 -1.40351 L 0.91288 1.40351 L 1.19359 1.40351 L 1.19359 0.96404 L 1.47867 1.15408 L 1.34292 1.35354 L 1.82634 1.38584 L 1.96552 1.47862 L 1.96552 2.94781 L 3.36902 2.94335 L 3.36902 3.02993 L 3.64973 3.02993 L 3.64973 2.94246 L 4.21157 2.94068 L 4.21069 2.65998 L 3.64973 2.66176 L 3.64973 2.47917 L 3.36902 2.47917 L 3.36902 2.66266 L 2.24622 2.66623 L 2.24622 1.3284 L 1.98536 1.15449 L 1.77352 0.72084 L 1.63662 0.922 L 1.19359 0.62664 L 1.19359 -0.62664 L 2.24622 -1.3284 L 2.24622 -2.66689 L 3.36902 -2.6687 Z" />
    <path d="M 3.36902 1.37763 L 3.36902 1.9284 L 3.64973 1.9284 L 3.64973 1.37763 L 3.36902 1.37763 Z" />
    <path d="M 3.36902 0.27621 L 3.36902 0.82697 L 3.64973 0.82697 L 3.64973 0.27621 L 3.36902 0.27621 Z" />
    <path d="M 3.36902 -0.82522 L 3.36902 -0.27456 L 3.64973 -0.27456 L 3.64973 -0.82522 L 3.36902 -0.82522 Z" />
    <path d="M 3.36902 -1.92675 L 3.36902 -1.37599 L 3.64973 -1.37599 L 3.64973 -1.92675 L 3.36902 -1.92675 Z" />
    <path fill-rule="evenodd" d="M -3.64852 -2.96547 L -4.20828 -2.97204 L -4.21157 -2.69134 L -3.64852 -2.68474 L -3.64852 -2.47917 L -3.36782 -2.47917 L -3.36782 -2.68146 L -2.24501 -2.66831 L -2.24501 -0.84211 L -3.0335 -0.84211 L -2.93196 -0.63904 L -2.33174 0.5614 L -2.97484 0.5614 L -2.97484 0.84211 L -2.24501 0.84211 L -2.24501 2.66546 L -3.36782 2.65618 L -3.36782 2.47752 L -3.64852 2.47752 L -3.64852 2.65386 L -4.20872 2.64923 L -4.21113 2.92993 L -3.64852 2.9346 L -3.64852 3.02818 L -3.36782 3.02818 L -3.36782 2.93693 L -1.96431 2.94857 L -1.96431 0.84211 L -1.23448 0.84211 L -1.23448 0.5614 L -1.87758 0.5614 L -1.17582 -0.84211 L -1.96431 -0.84211 L -1.96431 -2.94572 L -3.36782 -2.96218 L -3.36782 -3.02993 L -3.64852 -3.02993 L -3.64852 -2.96547 Z M -2.57933 -0.5614 L -1.62999 -0.5614 L -2.10466 0.38794 L -2.57933 -0.5614 Z" />
    <path d="M -3.64852 1.37599 L -3.64852 1.92675 L -3.36782 1.92675 L -3.36782 1.37599 L -3.64852 1.37599 Z" />
    <path d="M -3.64852 0.27456 L -3.64852 0.82522 L -3.36782 0.82522 L -3.36782 0.27456 L -3.64852 0.27456 Z" />
    <path d="M -3.64852 -0.82697 L -3.64852 -0.27621 L -3.36782 -0.27621 L -3.36782 -0.82697 L -3.64852 -0.82697 Z" />
    <path d="M -3.64852 -1.9284 L -3.64852 -1.37763 L -3.36782 -1.37763 L -3.36782 -1.9284 L -3.64852 -1.9284 Z" />
    <path d="M -3.64852 3.57895 L -3.64852 4 L -3.22747 4 L -3.22747 3.7193 L -3.36782 3.7193 L -3.36782 3.57895 L -3.64852 3.57895 Z" />
    <path d="M 3.22867 -4 L 3.22867 -3.7193 L 3.36902 -3.7193 L 3.36902 -3.57895 L 3.64973 -3.57895 L 3.64973 -4 L 3.22867 -4 Z" />
</svg>