<svg version="1.1" xmlns="http://www.w3.org/2000/svg" viewBox="-9 -5 18 10" fill="black" stroke="none"><path fill-rule="evenodd" d="M 4 -2.4 L 5.067 -2.4 L 5.067 -1.333 L 5.6 -1.333 L 5.6 -2.4 L 6.667 -2.4 L 6.667 -2.933 L 5.6 -2.933 L 5.6 -4 L 5.067 -4 L 5.067 -2.933 L 4 -2.933 L 4 -2.4 Z M 2.72 4 L 3.253 4 L 3.253 1.6 L 8 1.6 L 8 1.067 L 3.253 1.067 L 3.253 -1.333 L 2.72 -1.333 L 2.72 4 Z M 0.72 2.667 L 1.253 2.667 L 1.253 0 L 0.72 0 L 0.72 2.667 Z M -1.28 4 L -0.747 4 L -0.747 -1.333 L -1.28 -1.333 L -1.28 4 Z M -8 1.6 L -3.28 1.6 L -3.28 2.667 L -2.747 2.667 L -2.747 0 L -3.28 0 L -3.28 1.067 L -8 1.067 L -8 1.6 Z M -6.667 -2.4 L -4 -2.4 L -4 -2.933 L -6.667 -2.933 L -6.667 -2.4 Z" /></svg>