<svg version="1.1" xmlns="http://www.w3.org/2000/svg" viewBox="-5.858300516464786 -5.0000009352226735 11.716601032929573 10.000001870445347" fill="black" stroke="none">
    <path d="M -0.16194 -0.76113 L -0.16194 -0.43725 L 0.16194 -0.43725 L 0.16194 -0.76113 L -0.16194 -0.76113 Z" />
    <path d="M -0.16194 -0.11336 L -0.16194 0.21053 L 0.16194 0.21053 L 0.16194 -0.11336 L -0.16194 -0.11336 Z" />
    <path d="M -0.16194 0.53441 L -0.16194 0.8583 L 0.16194 0.8583 L 0.16194 0.53441 L -0.16194 0.53441 Z" />
    <path d="M -0.16194 1.18219 L -0.16194 1.50607 L 0.16194 1.50607 L 0.16194 1.18219 L -0.16194 1.18219 Z" />
    <path d="M -0.16194 1.82996 L -0.16194 2.15385 L 0.16194 2.15385 L 0.16194 1.82996 L -0.16194 1.82996 Z" />
    <path d="M -0.16194 2.47773 L -0.16194 2.63968 L 0.16194 2.63968 L 0.16194 2.47773 L -0.16194 2.47773 Z" />
    <path d="M 1.45749 3.31076 L 1.45749 4 L 4.8583 4 L 4.8583 3.67611 L 1.78138 3.67611 L 1.78138 3.40793 L 2.38259 3.58831 L 2.47571 3.27809 L 1.78138 3.12678 L 1.78138 2.62348 L 1.45749 2.62348 L 1.45749 3.0562 L -1.64297 2.38057 L 1.45749 3.31076 Z" />
    <path fill-rule="evenodd" d="M -0.16194 -1.24696 L -0.16194 -1.08502 L 0.16194 -1.08502 L 0.16194 -1.24696 L 0.97166 -1.24696 L 0.97166 -2.46154 L 4.8583 -2.46154 L 4.8583 -2.78543 L 0.97166 -2.78543 L 0.97166 -4 L -0.97166 -4 L -0.97166 -3.83806 L -0.97166 -2.78543 L -4.8583 -2.78543 L -4.8583 -2.46154 L -0.97166 -2.46154 L -0.97166 -1.24696 L -0.16194 -1.24696 Z M -0.64777 -3.67611 L 0.64777 -3.67611 L 0.64777 -1.57085 L -0.64777 -1.57085 L -0.64777 -3.67611 Z" />
    <path d="M 1.61943 0.45344 L 1.61943 0.77733 L 4.8583 0.77733 L 4.8583 0.45344 L 1.61943 0.45344 Z" />
</svg>