<svg version="1.1" xmlns="http://www.w3.org/2000/svg" viewBox="-5 -5 10 10" fill="black" stroke="none"><path fill-rule="evenodd" d="M -2.8 0.451 L -2.8 1.2 L -4 1.2 L -4 1.467 L -2.8 1.467 L -2.8 2.216 L -2.8 3.467 L -0.148 3.467 L -0.148 4 L 0.118 4 L 0.118 3.467 L 2.8 3.467 L 2.8 1.467 L 4 1.467 L 4 1.2 L 2.8 1.2 L 2.8 -1.2 L 4 -1.2 L 4 -1.467 L 2.8 -1.467 L 2.8 -3.467 L 0.148 -3.467 L 0.148 -4 L -0.118 -4 L -0.118 -3.467 L -2.8 -3.467 L -2.8 -1.467 L -4 -1.467 L -4 -1.2 L -2.8 -1.2 L -2.8 0.451 Z M -2.533 2.082 L -1.035 1.333 L -2.533 0.584 L -2.533 -3.2 L 2.533 -3.2 L 2.533 3.2 L -2.533 3.2 L -2.533 2.082 Z M -2.533 1.784 L -2.533 0.882 L -1.631 1.333 L -2.533 1.784 Z M 1.332 -1.372 L 1.333 -1.356 L 1.333 -1.34 L 1.333 -1.324 L 1.333 -1.308 L 1.333 -1.292 L 1.334 -1.276 L 1.335 -1.26 L 1.336 -1.244 L 1.338 -1.228 L 1.34 -1.212 L 1.343 -1.196 L 1.346 -1.18 L 1.349 -1.164 L 1.353 -1.149 L 1.357 -1.133 L 1.361 -1.118 L 1.366 -1.103 L 1.371 -1.087 L 1.377 -1.072 L 1.383 -1.057 L 1.389 -1.043 L 1.396 -1.028 L 1.403 -1.014 L 1.41 -0.999 L 1.418 -0.985 L 1.426 -0.971 L 1.432 -0.961 L 1.439 -0.951 L 1.446 -0.942 L 1.454 -0.933 L 1.462 -0.924 L 1.47 -0.916 L 1.479 -0.907 L 1.488 -0.9 L 1.497 -0.893 L 1.507 -0.886 L 1.517 -0.879 L 1.527 -0.873 L 1.538 -0.868 L 1.549 -0.863 L 1.56 -0.858 L 1.571 -0.854 L 1.582 -0.851 L 1.594 -0.848 L 1.605 -0.845 L 1.617 -0.843 L 1.629 -0.841 L 1.641 -0.84 L 1.653 -0.84 L 1.665 -0.84 L 1.675 -0.84 L 1.686 -0.841 L 1.697 -0.843 L 1.707 -0.845 L 1.718 -0.847 L 1.728 -0.85 L 1.738 -0.853 L 1.749 -0.856 L 1.759 -0.86 L 1.768 -0.865 L 1.778 -0.87 L 1.787 -0.875 L 1.796 -0.88 L 1.805 -0.886 L 1.814 -0.893 L 1.822 -0.9 L 1.831 -0.907 L 1.838 -0.914 L 1.846 -0.922 L 1.853 -0.93 L 1.86 -0.938 L 1.866 -0.947 L 1.872 -0.956 L 1.878 -0.965 L 1.985 -0.888 L 2.057 -1.057 L 1.95 -1.125 L 1.951 -1.126 L 1.952 -1.129 L 1.954 -1.135 L 1.956 -1.143 L 1.959 -1.154 L 1.962 -1.169 L 1.965 -1.187 L 1.967 -1.209 L 1.97 -1.235 L 1.972 -1.265 L 1.973 -1.3 L 1.973 -1.34 L 1.974 -1.356 L 1.974 -1.372 L 1.974 -1.387 L 1.974 -1.403 L 1.973 -1.419 L 1.972 -1.435 L 1.971 -1.451 L 1.969 -1.467 L 1.966 -1.482 L 1.964 -1.498 L 1.961 -1.514 L 1.957 -1.529 L 1.954 -1.545 L 1.949 -1.56 L 1.945 -1.575 L 1.94 -1.591 L 1.935 -1.606 L 1.929 -1.62 L 1.923 -1.635 L 1.917 -1.65 L 1.91 -1.664 L 1.903 -1.679 L 1.896 -1.693 L 1.889 -1.707 L 1.875 -1.726 L 1.861 -1.744 L 1.845 -1.761 L 1.827 -1.777 L 1.808 -1.791 L 1.789 -1.803 L 1.768 -1.814 L 1.746 -1.822 L 1.724 -1.829 L 1.701 -1.834 L 1.678 -1.837 L 1.654 -1.838 L 1.631 -1.837 L 1.608 -1.834 L 1.585 -1.829 L 1.562 -1.822 L 1.541 -1.814 L 1.52 -1.803 L 1.5 -1.791 L 1.481 -1.777 L 1.464 -1.761 L 1.447 -1.744 L 1.433 -1.726 L 1.42 -1.707 L 1.412 -1.693 L 1.405 -1.679 L 1.398 -1.664 L 1.391 -1.65 L 1.385 -1.635 L 1.379 -1.621 L 1.373 -1.606 L 1.368 -1.591 L 1.363 -1.575 L 1.358 -1.56 L 1.354 -1.545 L 1.35 -1.529 L 1.347 -1.514 L 1.343 -1.498 L 1.341 -1.483 L 1.338 -1.467 L 1.336 -1.451 L 1.335 -1.435 L 1.334 -1.419 L 1.333 -1.403 L 1.332 -1.387 L 1.332 -1.372 Z M 1.466 -1.318 L 1.466 -1.329 L 1.467 -1.34 L 1.466 -1.351 L 1.466 -1.362 L 1.466 -1.373 L 1.466 -1.383 L 1.467 -1.394 L 1.467 -1.405 L 1.468 -1.416 L 1.47 -1.426 L 1.471 -1.437 L 1.473 -1.448 L 1.475 -1.458 L 1.477 -1.469 L 1.479 -1.479 L 1.482 -1.49 L 1.485 -1.5 L 1.488 -1.511 L 1.491 -1.521 L 1.494 -1.531 L 1.498 -1.541 L 1.502 -1.551 L 1.506 -1.561 L 1.511 -1.571 L 1.515 -1.581 L 1.52 -1.59 L 1.526 -1.603 L 1.534 -1.614 L 1.543 -1.625 L 1.552 -1.635 L 1.563 -1.644 L 1.574 -1.652 L 1.586 -1.659 L 1.599 -1.665 L 1.612 -1.669 L 1.626 -1.673 L 1.639 -1.675 L 1.653 -1.675 L 1.667 -1.675 L 1.681 -1.673 L 1.694 -1.669 L 1.708 -1.665 L 1.72 -1.659 L 1.732 -1.652 L 1.744 -1.644 L 1.754 -1.635 L 1.764 -1.625 L 1.773 -1.614 L 1.78 -1.603 L 1.787 -1.59 L 1.791 -1.581 L 1.796 -1.571 L 1.8 -1.561 L 1.804 -1.551 L 1.808 -1.541 L 1.811 -1.531 L 1.815 -1.521 L 1.818 -1.51 L 1.821 -1.5 L 1.824 -1.489 L 1.826 -1.479 L 1.828 -1.468 L 1.83 -1.458 L 1.832 -1.447 L 1.834 -1.436 L 1.835 -1.426 L 1.836 -1.415 L 1.837 -1.404 L 1.837 -1.394 L 1.838 -1.383 L 1.838 -1.372 L 1.838 -1.361 L 1.837 -1.35 L 1.837 -1.34 L 1.837 -1.334 L 1.837 -1.328 L 1.837 -1.322 L 1.837 -1.316 L 1.837 -1.31 L 1.836 -1.304 L 1.836 -1.298 L 1.836 -1.292 L 1.835 -1.286 L 1.835 -1.28 L 1.835 -1.274 L 1.834 -1.268 L 1.833 -1.262 L 1.833 -1.256 L 1.832 -1.25 L 1.831 -1.244 L 1.831 -1.238 L 1.83 -1.232 L 1.829 -1.226 L 1.828 -1.22 L 1.827 -1.214 L 1.826 -1.208 L 1.825 -1.202 L 1.824 -1.196 L 1.724 -1.267 L 1.643 -1.125 L 1.75 -1.048 L 1.747 -1.044 L 1.743 -1.041 L 1.74 -1.038 L 1.736 -1.034 L 1.733 -1.031 L 1.729 -1.028 L 1.725 -1.026 L 1.721 -1.023 L 1.717 -1.02 L 1.713 -1.018 L 1.709 -1.016 L 1.704 -1.014 L 1.7 -1.012 L 1.695 -1.01 L 1.691 -1.009 L 1.686 -1.007 L 1.682 -1.006 L 1.677 -1.005 L 1.672 -1.004 L 1.668 -1.004 L 1.663 -1.003 L 1.658 -1.003 L 1.653 -1.003 L 1.649 -1.003 L 1.642 -1.003 L 1.635 -1.004 L 1.629 -1.005 L 1.622 -1.006 L 1.615 -1.008 L 1.609 -1.01 L 1.603 -1.012 L 1.596 -1.015 L 1.59 -1.017 L 1.584 -1.02 L 1.578 -1.024 L 1.573 -1.027 L 1.567 -1.031 L 1.562 -1.035 L 1.557 -1.039 L 1.552 -1.044 L 1.547 -1.049 L 1.542 -1.054 L 1.538 -1.059 L 1.534 -1.064 L 1.53 -1.07 L 1.526 -1.075 L 1.523 -1.081 L 1.52 -1.087 L 1.515 -1.097 L 1.511 -1.107 L 1.506 -1.117 L 1.502 -1.127 L 1.498 -1.137 L 1.494 -1.147 L 1.491 -1.157 L 1.488 -1.168 L 1.485 -1.178 L 1.482 -1.189 L 1.479 -1.199 L 1.477 -1.21 L 1.475 -1.221 L 1.473 -1.232 L 1.471 -1.242 L 1.47 -1.253 L 1.468 -1.264 L 1.467 -1.275 L 1.467 -1.286 L 1.466 -1.297 L 1.466 -1.308 L 1.466 -1.318 Z M 1.332 1.295 L 1.333 1.311 L 1.333 1.327 L 1.333 1.343 L 1.333 1.359 L 1.333 1.375 L 1.334 1.391 L 1.335 1.407 L 1.336 1.423 L 1.338 1.439 L 1.34 1.455 L 1.343 1.471 L 1.346 1.487 L 1.349 1.502 L 1.353 1.518 L 1.357 1.533 L 1.361 1.549 L 1.366 1.564 L 1.371 1.579 L 1.377 1.594 L 1.383 1.609 L 1.389 1.624 L 1.396 1.639 L 1.403 1.653 L 1.41 1.667 L 1.418 1.682 L 1.426 1.695 L 1.432 1.706 L 1.439 1.715 L 1.446 1.725 L 1.454 1.734 L 1.462 1.743 L 1.47 1.751 L 1.479 1.759 L 1.488 1.767 L 1.497 1.774 L 1.507 1.781 L 1.517 1.787 L 1.527 1.793 L 1.538 1.799 L 1.549 1.804 L 1.56 1.808 L 1.571 1.812 L 1.582 1.816 L 1.594 1.819 L 1.605 1.822 L 1.617 1.824 L 1.629 1.825 L 1.641 1.826 L 1.653 1.827 L 1.665 1.827 L 1.675 1.826 L 1.686 1.825 L 1.697 1.824 L 1.707 1.822 L 1.718 1.82 L 1.728 1.817 L 1.738 1.814 L 1.749 1.81 L 1.759 1.806 L 1.768 1.802 L 1.778 1.797 L 1.787 1.792 L 1.796 1.786 L 1.805 1.78 L 1.814 1.774 L 1.822 1.767 L 1.831 1.76 L 1.838 1.753 L 1.846 1.745 L 1.853 1.737 L 1.86 1.728 L 1.866 1.72 L 1.872 1.711 L 1.878 1.702 L 1.985 1.779 L 2.057 1.61 L 1.95 1.541 L 1.951 1.54 L 1.952 1.537 L 1.954 1.532 L 1.956 1.523 L 1.959 1.512 L 1.962 1.498 L 1.965 1.48 L 1.967 1.458 L 1.97 1.432 L 1.972 1.402 L 1.973 1.367 L 1.973 1.327 L 1.974 1.311 L 1.974 1.295 L 1.974 1.279 L 1.974 1.263 L 1.973 1.247 L 1.972 1.232 L 1.971 1.216 L 1.969 1.2 L 1.966 1.184 L 1.964 1.169 L 1.961 1.153 L 1.957 1.137 L 1.954 1.122 L 1.949 1.107 L 1.945 1.091 L 1.94 1.076 L 1.935 1.061 L 1.929 1.046 L 1.923 1.031 L 1.917 1.017 L 1.91 1.002 L 1.903 0.988 L 1.896 0.974 L 1.889 0.96 L 1.875 0.941 L 1.861 0.922 L 1.845 0.905 L 1.827 0.89 L 1.808 0.876 L 1.789 0.864 L 1.768 0.853 L 1.746 0.844 L 1.724 0.837 L 1.701 0.832 L 1.678 0.83 L 1.654 0.829 L 1.631 0.83 L 1.608 0.832 L 1.585 0.837 L 1.562 0.844 L 1.541 0.853 L 1.52 0.864 L 1.5 0.876 L 1.481 0.89 L 1.464 0.905 L 1.447 0.922 L 1.433 0.941 L 1.42 0.96 L 1.412 0.974 L 1.405 0.988 L 1.398 1.002 L 1.391 1.017 L 1.385 1.031 L 1.379 1.046 L 1.373 1.061 L 1.368 1.076 L 1.363 1.091 L 1.358 1.106 L 1.354 1.122 L 1.35 1.137 L 1.347 1.153 L 1.343 1.168 L 1.341 1.184 L 1.338 1.2 L 1.336 1.216 L 1.335 1.231 L 1.334 1.247 L 1.333 1.263 L 1.332 1.279 L 1.332 1.295 Z M 1.466 1.348 L 1.466 1.337 L 1.467 1.326 L 1.466 1.316 L 1.466 1.305 L 1.466 1.294 L 1.466 1.283 L 1.467 1.273 L 1.467 1.262 L 1.468 1.251 L 1.47 1.24 L 1.471 1.23 L 1.473 1.219 L 1.475 1.208 L 1.477 1.198 L 1.479 1.187 L 1.482 1.177 L 1.485 1.166 L 1.488 1.156 L 1.491 1.146 L 1.494 1.136 L 1.498 1.125 L 1.502 1.115 L 1.506 1.106 L 1.511 1.096 L 1.515 1.086 L 1.52 1.076 L 1.526 1.064 L 1.534 1.052 L 1.543 1.041 L 1.552 1.031 L 1.563 1.022 L 1.574 1.014 L 1.586 1.008 L 1.599 1.002 L 1.612 0.997 L 1.626 0.994 L 1.639 0.992 L 1.653 0.991 L 1.667 0.992 L 1.681 0.994 L 1.694 0.997 L 1.708 1.002 L 1.72 1.008 L 1.732 1.014 L 1.744 1.022 L 1.754 1.031 L 1.764 1.041 L 1.773 1.052 L 1.78 1.064 L 1.787 1.076 L 1.791 1.086 L 1.796 1.096 L 1.8 1.106 L 1.804 1.116 L 1.808 1.126 L 1.811 1.136 L 1.815 1.146 L 1.818 1.156 L 1.821 1.167 L 1.824 1.177 L 1.826 1.188 L 1.828 1.198 L 1.83 1.209 L 1.832 1.22 L 1.834 1.23 L 1.835 1.241 L 1.836 1.252 L 1.837 1.262 L 1.837 1.273 L 1.838 1.284 L 1.838 1.295 L 1.838 1.305 L 1.837 1.316 L 1.837 1.327 L 1.837 1.333 L 1.837 1.339 L 1.837 1.345 L 1.837 1.351 L 1.837 1.357 L 1.836 1.363 L 1.836 1.369 L 1.836 1.375 L 1.835 1.381 L 1.835 1.387 L 1.835 1.393 L 1.834 1.399 L 1.833 1.405 L 1.833 1.411 L 1.832 1.417 L 1.831 1.423 L 1.831 1.429 L 1.83 1.435 L 1.829 1.441 L 1.828 1.447 L 1.827 1.453 L 1.826 1.459 L 1.825 1.464 L 1.824 1.47 L 1.724 1.4 L 1.643 1.542 L 1.75 1.619 L 1.747 1.622 L 1.743 1.626 L 1.74 1.629 L 1.736 1.632 L 1.733 1.635 L 1.729 1.638 L 1.725 1.641 L 1.721 1.644 L 1.717 1.646 L 1.713 1.649 L 1.709 1.651 L 1.704 1.653 L 1.7 1.655 L 1.695 1.656 L 1.691 1.658 L 1.686 1.659 L 1.682 1.661 L 1.677 1.662 L 1.672 1.662 L 1.668 1.663 L 1.663 1.664 L 1.658 1.664 L 1.653 1.664 L 1.649 1.664 L 1.642 1.664 L 1.635 1.663 L 1.629 1.662 L 1.622 1.66 L 1.615 1.659 L 1.609 1.657 L 1.603 1.655 L 1.596 1.652 L 1.59 1.649 L 1.584 1.646 L 1.578 1.643 L 1.573 1.639 L 1.567 1.636 L 1.562 1.632 L 1.557 1.627 L 1.552 1.623 L 1.547 1.618 L 1.542 1.613 L 1.538 1.608 L 1.534 1.603 L 1.53 1.597 L 1.526 1.591 L 1.523 1.586 L 1.52 1.58 L 1.515 1.57 L 1.511 1.56 L 1.506 1.55 L 1.502 1.54 L 1.498 1.53 L 1.494 1.52 L 1.491 1.509 L 1.488 1.499 L 1.485 1.488 L 1.482 1.478 L 1.479 1.467 L 1.477 1.457 L 1.475 1.446 L 1.473 1.435 L 1.471 1.424 L 1.47 1.414 L 1.468 1.403 L 1.467 1.392 L 1.467 1.381 L 1.466 1.37 L 1.466 1.359 L 1.466 1.348 Z M 1.173 0.36 L 1.173 0.627 L 2.173 0.627 L 2.173 0.36 L 1.173 0.36 Z M -2 -0.84 L -1.695 -0.84 L -1.689 -0.84 L -1.683 -0.84 L -1.677 -0.84 L -1.671 -0.84 L -1.665 -0.84 L -1.659 -0.84 L -1.653 -0.841 L -1.647 -0.841 L -1.641 -0.842 L -1.635 -0.842 L -1.629 -0.843 L -1.623 -0.844 L -1.617 -0.845 L -1.611 -0.846 L -1.605 -0.847 L -1.599 -0.848 L -1.594 -0.849 L -1.588 -0.851 L -1.582 -0.852 L -1.576 -0.854 L -1.57 -0.855 L -1.565 -0.857 L -1.559 -0.859 L -1.553 -0.861 L -1.548 -0.863 L -1.542 -0.865 L -1.537 -0.867 L -1.532 -0.87 L -1.526 -0.872 L -1.521 -0.875 L -1.516 -0.878 L -1.511 -0.88 L -1.506 -0.883 L -1.501 -0.886 L -1.496 -0.89 L -1.492 -0.893 L -1.487 -0.896 L -1.482 -0.9 L -1.478 -0.903 L -1.473 -0.907 L -1.469 -0.911 L -1.464 -0.914 L -1.46 -0.918 L -1.456 -0.922 L -1.452 -0.926 L -1.448 -0.931 L -1.444 -0.935 L -1.44 -0.939 L -1.435 -0.946 L -1.43 -0.952 L -1.426 -0.959 L -1.421 -0.966 L -1.417 -0.972 L -1.413 -0.979 L -1.409 -0.986 L -1.405 -0.993 L -1.401 -1 L -1.397 -1.008 L -1.393 -1.015 L -1.39 -1.022 L -1.386 -1.029 L -1.383 -1.037 L -1.38 -1.044 L -1.377 -1.052 L -1.374 -1.059 L -1.371 -1.067 L -1.369 -1.075 L -1.366 -1.082 L -1.364 -1.09 L -1.362 -1.098 L -1.36 -1.106 L -1.358 -1.114 L -1.356 -1.122 L -1.354 -1.131 L -1.352 -1.139 L -1.35 -1.148 L -1.348 -1.157 L -1.346 -1.165 L -1.345 -1.174 L -1.343 -1.183 L -1.342 -1.191 L -1.341 -1.2 L -1.34 -1.209 L -1.338 -1.218 L -1.337 -1.226 L -1.337 -1.235 L -1.336 -1.244 L -1.335 -1.253 L -1.335 -1.261 L -1.334 -1.27 L -1.334 -1.279 L -1.333 -1.288 L -1.333 -1.297 L -1.333 -1.306 L -1.333 -1.314 L -1.333 -1.323 L -1.333 -1.333 L -1.333 -1.343 L -1.333 -1.352 L -1.333 -1.362 L -1.334 -1.372 L -1.334 -1.382 L -1.335 -1.391 L -1.335 -1.401 L -1.336 -1.411 L -1.337 -1.421 L -1.338 -1.43 L -1.339 -1.44 L -1.34 -1.45 L -1.341 -1.459 L -1.342 -1.469 L -1.344 -1.479 L -1.345 -1.488 L -1.347 -1.498 L -1.349 -1.508 L -1.351 -1.517 L -1.353 -1.527 L -1.355 -1.536 L -1.357 -1.546 L -1.359 -1.555 L -1.361 -1.562 L -1.363 -1.57 L -1.365 -1.577 L -1.368 -1.584 L -1.37 -1.591 L -1.372 -1.598 L -1.375 -1.605 L -1.378 -1.612 L -1.38 -1.619 L -1.383 -1.625 L -1.386 -1.632 L -1.389 -1.639 L -1.393 -1.646 L -1.396 -1.652 L -1.4 -1.659 L -1.403 -1.665 L -1.407 -1.672 L -1.41 -1.678 L -1.414 -1.685 L -1.418 -1.691 L -1.422 -1.697 L -1.427 -1.703 L -1.431 -1.709 L -1.435 -1.715 L -1.439 -1.72 L -1.443 -1.725 L -1.447 -1.73 L -1.451 -1.735 L -1.456 -1.74 L -1.46 -1.744 L -1.465 -1.749 L -1.469 -1.753 L -1.474 -1.757 L -1.479 -1.761 L -1.484 -1.765 L -1.489 -1.769 L -1.494 -1.773 L -1.499 -1.777 L -1.504 -1.78 L -1.51 -1.784 L -1.515 -1.787 L -1.521 -1.79 L -1.526 -1.793 L -1.532 -1.796 L -1.538 -1.798 L -1.543 -1.801 L -1.549 -1.804 L -1.555 -1.806 L -1.561 -1.808 L -1.567 -1.809 L -1.574 -1.811 L -1.58 -1.812 L -1.586 -1.814 L -1.592 -1.815 L -1.599 -1.816 L -1.605 -1.818 L -1.611 -1.819 L -1.617 -1.82 L -1.624 -1.821 L -1.63 -1.821 L -1.637 -1.822 L -1.643 -1.823 L -1.649 -1.823 L -1.656 -1.824 L -1.662 -1.824 L -1.668 -1.825 L -1.675 -1.825 L -1.681 -1.825 L -1.688 -1.825 L -1.694 -1.825 L -1.7 -1.825 L -1.707 -1.825 L -2 -1.825 L -2 -0.84 Z M -1.84 -1.006 L -1.84 -1.658 L -1.767 -1.656 L -1.762 -1.656 L -1.756 -1.656 L -1.751 -1.656 L -1.745 -1.657 L -1.74 -1.657 L -1.734 -1.656 L -1.729 -1.656 L -1.723 -1.656 L -1.718 -1.656 L -1.712 -1.656 L -1.707 -1.655 L -1.701 -1.655 L -1.696 -1.655 L -1.69 -1.654 L -1.685 -1.654 L -1.679 -1.653 L -1.674 -1.652 L -1.668 -1.652 L -1.663 -1.651 L -1.657 -1.65 L -1.652 -1.649 L -1.647 -1.648 L -1.641 -1.647 L -1.636 -1.646 L -1.632 -1.645 L -1.629 -1.644 L -1.625 -1.643 L -1.621 -1.642 L -1.618 -1.641 L -1.615 -1.639 L -1.611 -1.638 L -1.608 -1.636 L -1.604 -1.635 L -1.601 -1.633 L -1.598 -1.631 L -1.595 -1.629 L -1.592 -1.627 L -1.589 -1.625 L -1.586 -1.623 L -1.583 -1.621 L -1.58 -1.618 L -1.577 -1.616 L -1.574 -1.613 L -1.571 -1.611 L -1.569 -1.608 L -1.566 -1.606 L -1.564 -1.603 L -1.561 -1.6 L -1.558 -1.597 L -1.556 -1.593 L -1.553 -1.59 L -1.551 -1.586 L -1.548 -1.583 L -1.546 -1.579 L -1.544 -1.576 L -1.542 -1.572 L -1.54 -1.568 L -1.537 -1.564 L -1.535 -1.561 L -1.533 -1.557 L -1.532 -1.553 L -1.53 -1.549 L -1.528 -1.545 L -1.526 -1.541 L -1.525 -1.537 L -1.523 -1.533 L -1.522 -1.529 L -1.52 -1.525 L -1.519 -1.521 L -1.518 -1.517 L -1.517 -1.513 L -1.516 -1.509 L -1.514 -1.502 L -1.513 -1.494 L -1.511 -1.487 L -1.51 -1.48 L -1.509 -1.473 L -1.507 -1.465 L -1.506 -1.458 L -1.505 -1.451 L -1.504 -1.444 L -1.503 -1.436 L -1.503 -1.429 L -1.502 -1.422 L -1.501 -1.414 L -1.501 -1.407 L -1.5 -1.4 L -1.5 -1.392 L -1.499 -1.385 L -1.499 -1.377 L -1.499 -1.37 L -1.499 -1.363 L -1.499 -1.355 L -1.499 -1.348 L -1.499 -1.341 L -1.499 -1.333 L -1.499 -1.326 L -1.499 -1.318 L -1.499 -1.31 L -1.499 -1.302 L -1.499 -1.295 L -1.499 -1.287 L -1.499 -1.279 L -1.5 -1.272 L -1.5 -1.264 L -1.501 -1.256 L -1.501 -1.249 L -1.502 -1.241 L -1.503 -1.233 L -1.503 -1.225 L -1.504 -1.218 L -1.505 -1.21 L -1.506 -1.203 L -1.507 -1.195 L -1.509 -1.187 L -1.51 -1.18 L -1.511 -1.172 L -1.513 -1.164 L -1.514 -1.157 L -1.516 -1.149 L -1.517 -1.145 L -1.517 -1.141 L -1.518 -1.137 L -1.519 -1.132 L -1.521 -1.128 L -1.522 -1.124 L -1.523 -1.12 L -1.525 -1.116 L -1.526 -1.111 L -1.528 -1.107 L -1.529 -1.103 L -1.531 -1.099 L -1.533 -1.095 L -1.535 -1.091 L -1.537 -1.087 L -1.539 -1.084 L -1.541 -1.08 L -1.543 -1.076 L -1.545 -1.072 L -1.548 -1.069 L -1.55 -1.065 L -1.553 -1.061 L -1.555 -1.058 L -1.558 -1.054 L -1.56 -1.052 L -1.562 -1.05 L -1.564 -1.047 L -1.567 -1.045 L -1.569 -1.043 L -1.572 -1.041 L -1.574 -1.039 L -1.577 -1.037 L -1.579 -1.035 L -1.582 -1.033 L -1.584 -1.031 L -1.587 -1.029 L -1.59 -1.028 L -1.593 -1.026 L -1.596 -1.024 L -1.598 -1.023 L -1.601 -1.021 L -1.604 -1.02 L -1.607 -1.019 L -1.61 -1.017 L -1.613 -1.016 L -1.616 -1.015 L -1.619 -1.014 L -1.622 -1.013 L -1.626 -1.012 L -1.63 -1.012 L -1.634 -1.011 L -1.638 -1.01 L -1.643 -1.01 L -1.647 -1.009 L -1.651 -1.008 L -1.655 -1.008 L -1.659 -1.007 L -1.663 -1.007 L -1.667 -1.006 L -1.671 -1.006 L -1.675 -1.006 L -1.679 -1.006 L -1.683 -1.005 L -1.687 -1.005 L -1.691 -1.005 L -1.695 -1.005 L -1.7 -1.005 L -1.704 -1.005 L -1.708 -1.005 L -1.712 -1.005 L -1.716 -1.006 L -1.72 -1.006 L -1.84 -1.006 Z M -0.36 -1.998 L -0.359 -1.987 L -0.358 -1.976 L -0.357 -1.964 L -0.355 -1.953 L -0.353 -1.942 L -0.35 -1.931 L -0.347 -1.919 L -0.344 -1.908 L -0.341 -1.897 L -0.337 -1.887 L -0.333 -1.876 L -0.328 -1.865 L -0.324 -1.855 L -0.319 -1.845 L -0.313 -1.835 L -0.308 -1.825 L -0.302 -1.815 L -0.296 -1.805 L -0.289 -1.796 L -0.282 -1.786 L -0.275 -1.777 L -0.268 -1.768 L -0.261 -1.76 L -0.253 -1.751 L -0.244 -1.744 L -0.235 -1.737 L -0.227 -1.73 L -0.217 -1.724 L -0.208 -1.718 L -0.198 -1.712 L -0.188 -1.707 L -0.178 -1.701 L -0.168 -1.697 L -0.158 -1.692 L -0.148 -1.688 L -0.137 -1.684 L -0.126 -1.681 L -0.116 -1.678 L -0.105 -1.675 L -0.094 -1.673 L -0.083 -1.67 L -0.072 -1.669 L -0.06 -1.668 L -0.049 -1.667 L -0.038 -1.666 L -0.027 -1.666 L -0.015 -1.666 L -0.004 -1.667 L 0.004 -1.666 L 0.012 -1.666 L 0.02 -1.667 L 0.027 -1.667 L 0.035 -1.667 L 0.043 -1.668 L 0.051 -1.668 L 0.059 -1.669 L 0.067 -1.67 L 0.075 -1.671 L 0.083 -1.673 L 0.09 -1.674 L 0.098 -1.676 L 0.106 -1.677 L 0.114 -1.679 L 0.121 -1.681 L 0.129 -1.683 L 0.137 -1.685 L 0.144 -1.688 L 0.152 -1.69 L 0.159 -1.693 L 0.167 -1.696 L 0.174 -1.699 L 0.181 -1.702 L 0.187 -1.705 L 0.193 -1.708 L 0.199 -1.711 L 0.205 -1.714 L 0.21 -1.718 L 0.216 -1.721 L 0.222 -1.725 L 0.227 -1.729 L 0.232 -1.733 L 0.237 -1.737 L 0.242 -1.742 L 0.247 -1.746 L 0.252 -1.751 L 0.257 -1.755 L 0.261 -1.76 L 0.266 -1.765 L 0.27 -1.77 L 0.274 -1.775 L 0.278 -1.781 L 0.282 -1.786 L 0.286 -1.792 L 0.29 -1.797 L 0.293 -1.803 L 0.297 -1.809 L 0.3 -1.814 L 0.303 -1.82 L 0.306 -1.827 L 0.309 -1.833 L 0.312 -1.839 L 0.314 -1.845 L 0.317 -1.851 L 0.319 -1.858 L 0.321 -1.864 L 0.323 -1.871 L 0.325 -1.877 L 0.327 -1.884 L 0.329 -1.89 L 0.33 -1.897 L 0.331 -1.904 L 0.333 -1.91 L 0.334 -1.917 L 0.335 -1.924 L 0.335 -1.93 L 0.336 -1.937 L 0.337 -1.944 L 0.337 -1.951 L 0.337 -1.957 L 0.337 -1.964 L 0.337 -1.971 L 0.337 -1.978 L 0.337 -1.984 L 0.337 -1.991 L 0.336 -1.997 L 0.336 -2.004 L 0.335 -2.011 L 0.334 -2.017 L 0.333 -2.024 L 0.332 -2.03 L 0.331 -2.037 L 0.33 -2.043 L 0.328 -2.05 L 0.327 -2.056 L 0.325 -2.063 L 0.323 -2.069 L 0.321 -2.076 L 0.319 -2.082 L 0.316 -2.088 L 0.314 -2.094 L 0.311 -2.1 L 0.309 -2.106 L 0.306 -2.112 L 0.303 -2.118 L 0.3 -2.123 L 0.297 -2.128 L 0.294 -2.133 L 0.291 -2.138 L 0.288 -2.143 L 0.285 -2.148 L 0.281 -2.152 L 0.278 -2.157 L 0.274 -2.161 L 0.27 -2.165 L 0.266 -2.17 L 0.262 -2.174 L 0.258 -2.178 L 0.254 -2.182 L 0.25 -2.186 L 0.246 -2.19 L 0.241 -2.193 L 0.237 -2.197 L 0.232 -2.201 L 0.228 -2.204 L 0.223 -2.207 L 0.218 -2.21 L 0.213 -2.214 L 0.209 -2.217 L 0.201 -2.22 L 0.194 -2.224 L 0.186 -2.228 L 0.179 -2.231 L 0.171 -2.235 L 0.164 -2.238 L 0.156 -2.242 L 0.149 -2.245 L 0.141 -2.248 L 0.133 -2.251 L 0.126 -2.254 L 0.118 -2.257 L 0.11 -2.26 L 0.102 -2.263 L 0.095 -2.266 L 0.087 -2.268 L 0.079 -2.271 L 0.071 -2.273 L 0.063 -2.275 L 0.055 -2.278 L 0.047 -2.28 L 0.039 -2.282 L 0.031 -2.284 L 0.023 -2.286 L 0.016 -2.287 L 0.009 -2.289 L 0.002 -2.29 L -0.005 -2.292 L -0.012 -2.294 L -0.019 -2.296 L -0.026 -2.298 L -0.033 -2.3 L -0.04 -2.302 L -0.047 -2.305 L -0.054 -2.307 L -0.06 -2.31 L -0.067 -2.313 L -0.074 -2.316 L -0.08 -2.319 L -0.087 -2.322 L -0.093 -2.325 L -0.1 -2.328 L -0.106 -2.332 L -0.112 -2.335 L -0.119 -2.339 L -0.125 -2.343 L -0.131 -2.346 L -0.137 -2.35 L -0.139 -2.352 L -0.141 -2.354 L -0.143 -2.356 L -0.145 -2.358 L -0.146 -2.36 L -0.148 -2.363 L -0.15 -2.365 L -0.151 -2.367 L -0.152 -2.37 L -0.154 -2.372 L -0.155 -2.374 L -0.156 -2.377 L -0.157 -2.38 L -0.158 -2.382 L -0.159 -2.385 L -0.16 -2.387 L -0.16 -2.39 L -0.161 -2.393 L -0.162 -2.395 L -0.162 -2.398 L -0.162 -2.401 L -0.163 -2.404 L -0.163 -2.406 L -0.163 -2.409 L -0.163 -2.412 L -0.163 -2.415 L -0.163 -2.418 L -0.162 -2.421 L -0.162 -2.423 L -0.161 -2.426 L -0.161 -2.429 L -0.16 -2.432 L -0.159 -2.435 L -0.158 -2.437 L -0.157 -2.44 L -0.156 -2.443 L -0.155 -2.445 L -0.153 -2.448 L -0.152 -2.45 L -0.15 -2.453 L -0.149 -2.455 L -0.147 -2.457 L -0.145 -2.459 L -0.143 -2.462 L -0.141 -2.464 L -0.139 -2.466 L -0.137 -2.468 L -0.135 -2.469 L -0.131 -2.472 L -0.126 -2.475 L -0.122 -2.478 L -0.117 -2.481 L -0.113 -2.483 L -0.108 -2.486 L -0.104 -2.488 L -0.099 -2.49 L -0.094 -2.492 L -0.089 -2.494 L -0.084 -2.495 L -0.079 -2.497 L -0.074 -2.498 L -0.069 -2.5 L -0.064 -2.501 L -0.059 -2.502 L -0.054 -2.502 L -0.049 -2.503 L -0.044 -2.504 L -0.038 -2.504 L -0.033 -2.504 L -0.028 -2.504 L -0.023 -2.504 L -0.018 -2.504 L -0.013 -2.504 L -0.008 -2.504 L -0.003 -2.504 L 0.001 -2.504 L 0.006 -2.504 L 0.011 -2.503 L 0.016 -2.503 L 0.02 -2.502 L 0.025 -2.501 L 0.03 -2.5 L 0.034 -2.499 L 0.039 -2.498 L 0.043 -2.496 L 0.048 -2.494 L 0.052 -2.493 L 0.057 -2.491 L 0.061 -2.489 L 0.065 -2.487 L 0.069 -2.485 L 0.073 -2.482 L 0.077 -2.48 L 0.081 -2.477 L 0.085 -2.474 L 0.089 -2.471 L 0.092 -2.468 L 0.096 -2.464 L 0.099 -2.46 L 0.102 -2.456 L 0.105 -2.452 L 0.108 -2.448 L 0.111 -2.444 L 0.113 -2.44 L 0.116 -2.436 L 0.118 -2.431 L 0.12 -2.427 L 0.122 -2.422 L 0.124 -2.418 L 0.126 -2.413 L 0.128 -2.408 L 0.129 -2.404 L 0.131 -2.399 L 0.132 -2.394 L 0.133 -2.389 L 0.134 -2.384 L 0.135 -2.38 L 0.136 -2.375 L 0.136 -2.37 L 0.137 -2.365 L 0.309 -2.373 L 0.309 -2.383 L 0.308 -2.393 L 0.308 -2.403 L 0.307 -2.413 L 0.306 -2.422 L 0.304 -2.432 L 0.302 -2.442 L 0.3 -2.451 L 0.297 -2.461 L 0.294 -2.47 L 0.291 -2.479 L 0.288 -2.489 L 0.284 -2.498 L 0.28 -2.507 L 0.275 -2.515 L 0.271 -2.524 L 0.266 -2.533 L 0.26 -2.541 L 0.255 -2.549 L 0.249 -2.557 L 0.243 -2.565 L 0.237 -2.572 L 0.23 -2.58 L 0.223 -2.587 L 0.215 -2.594 L 0.207 -2.6 L 0.198 -2.607 L 0.189 -2.613 L 0.18 -2.619 L 0.17 -2.624 L 0.161 -2.63 L 0.151 -2.635 L 0.141 -2.639 L 0.131 -2.643 L 0.121 -2.647 L 0.111 -2.651 L 0.1 -2.654 L 0.09 -2.657 L 0.079 -2.66 L 0.069 -2.662 L 0.058 -2.664 L 0.047 -2.665 L 0.036 -2.666 L 0.025 -2.667 L 0.015 -2.668 L 0.004 -2.668 L -0.007 -2.667 L -0.018 -2.667 L -0.025 -2.667 L -0.032 -2.667 L -0.04 -2.667 L -0.047 -2.666 L -0.054 -2.666 L -0.061 -2.665 L -0.068 -2.665 L -0.075 -2.664 L -0.083 -2.663 L -0.09 -2.662 L -0.097 -2.661 L -0.104 -2.659 L -0.111 -2.658 L -0.118 -2.656 L -0.125 -2.654 L -0.132 -2.653 L -0.139 -2.651 L -0.145 -2.648 L -0.152 -2.646 L -0.159 -2.644 L -0.166 -2.641 L -0.172 -2.639 L -0.179 -2.636 L -0.186 -2.633 L -0.191 -2.63 L -0.197 -2.628 L -0.202 -2.625 L -0.207 -2.622 L -0.212 -2.618 L -0.218 -2.615 L -0.223 -2.612 L -0.228 -2.608 L -0.233 -2.604 L -0.237 -2.6 L -0.242 -2.596 L -0.247 -2.592 L -0.251 -2.588 L -0.255 -2.584 L -0.26 -2.579 L -0.264 -2.575 L -0.268 -2.57 L -0.272 -2.565 L -0.275 -2.561 L -0.279 -2.556 L -0.283 -2.551 L -0.286 -2.545 L -0.289 -2.54 L -0.292 -2.535 L -0.295 -2.53 L -0.298 -2.524 L -0.301 -2.519 L -0.303 -2.514 L -0.306 -2.508 L -0.308 -2.503 L -0.311 -2.497 L -0.313 -2.491 L -0.315 -2.486 L -0.317 -2.48 L -0.318 -2.474 L -0.32 -2.468 L -0.321 -2.462 L -0.323 -2.457 L -0.324 -2.451 L -0.325 -2.445 L -0.326 -2.439 L -0.327 -2.433 L -0.328 -2.427 L -0.328 -2.421 L -0.329 -2.415 L -0.329 -2.409 L -0.329 -2.403 L -0.329 -2.397 L -0.329 -2.388 L -0.329 -2.379 L -0.328 -2.37 L -0.327 -2.361 L -0.326 -2.352 L -0.325 -2.343 L -0.323 -2.334 L -0.321 -2.326 L -0.319 -2.317 L -0.316 -2.309 L -0.313 -2.3 L -0.31 -2.292 L -0.306 -2.283 L -0.302 -2.275 L -0.298 -2.267 L -0.294 -2.259 L -0.29 -2.252 L -0.285 -2.244 L -0.28 -2.237 L -0.274 -2.23 L -0.269 -2.223 L -0.263 -2.216 L -0.257 -2.209 L -0.251 -2.203 L -0.244 -2.197 L -0.237 -2.191 L -0.229 -2.186 L -0.222 -2.18 L -0.215 -2.175 L -0.207 -2.17 L -0.2 -2.165 L -0.192 -2.16 L -0.184 -2.156 L -0.176 -2.151 L -0.168 -2.147 L -0.16 -2.143 L -0.152 -2.139 L -0.144 -2.135 L -0.135 -2.132 L -0.127 -2.128 L -0.118 -2.125 L -0.11 -2.122 L -0.101 -2.119 L -0.093 -2.116 L -0.084 -2.114 L -0.075 -2.111 L -0.066 -2.109 L -0.058 -2.107 L -0.04 -2.102 L -0.024 -2.098 L -0.008 -2.093 L 0.006 -2.089 L 0.019 -2.085 L 0.031 -2.081 L 0.042 -2.078 L 0.052 -2.075 L 0.061 -2.072 L 0.068 -2.069 L 0.075 -2.067 L 0.081 -2.065 L 0.084 -2.064 L 0.086 -2.063 L 0.089 -2.062 L 0.092 -2.06 L 0.095 -2.059 L 0.098 -2.058 L 0.101 -2.056 L 0.104 -2.055 L 0.106 -2.053 L 0.109 -2.052 L 0.112 -2.05 L 0.114 -2.048 L 0.117 -2.046 L 0.119 -2.044 L 0.122 -2.043 L 0.124 -2.041 L 0.127 -2.039 L 0.129 -2.036 L 0.131 -2.034 L 0.134 -2.032 L 0.136 -2.03 L 0.138 -2.028 L 0.14 -2.025 L 0.142 -2.023 L 0.144 -2.021 L 0.145 -2.019 L 0.147 -2.016 L 0.148 -2.014 L 0.149 -2.012 L 0.15 -2.01 L 0.151 -2.007 L 0.152 -2.005 L 0.153 -2.003 L 0.154 -2 L 0.155 -1.998 L 0.156 -1.995 L 0.157 -1.993 L 0.157 -1.99 L 0.158 -1.988 L 0.158 -1.985 L 0.159 -1.983 L 0.159 -1.98 L 0.16 -1.978 L 0.16 -1.975 L 0.16 -1.973 L 0.16 -1.97 L 0.16 -1.967 L 0.16 -1.965 L 0.16 -1.96 L 0.16 -1.956 L 0.159 -1.952 L 0.159 -1.947 L 0.158 -1.943 L 0.157 -1.939 L 0.157 -1.934 L 0.155 -1.93 L 0.154 -1.926 L 0.153 -1.922 L 0.151 -1.918 L 0.15 -1.914 L 0.148 -1.91 L 0.146 -1.906 L 0.144 -1.902 L 0.141 -1.898 L 0.139 -1.895 L 0.136 -1.891 L 0.134 -1.887 L 0.131 -1.884 L 0.128 -1.881 L 0.125 -1.878 L 0.122 -1.874 L 0.119 -1.871 L 0.115 -1.868 L 0.11 -1.865 L 0.105 -1.861 L 0.101 -1.858 L 0.096 -1.855 L 0.091 -1.853 L 0.086 -1.85 L 0.081 -1.847 L 0.076 -1.845 L 0.071 -1.843 L 0.065 -1.841 L 0.06 -1.839 L 0.055 -1.838 L 0.049 -1.836 L 0.044 -1.835 L 0.038 -1.834 L 0.033 -1.833 L 0.027 -1.832 L 0.022 -1.832 L 0.016 -1.831 L 0.01 -1.831 L 0.005 -1.831 L -0.001 -1.831 L -0.006 -1.831 L -0.012 -1.831 L -0.018 -1.831 L -0.023 -1.831 L -0.029 -1.832 L -0.035 -1.832 L -0.04 -1.833 L -0.046 -1.834 L -0.051 -1.835 L -0.057 -1.836 L -0.062 -1.838 L -0.068 -1.84 L -0.073 -1.841 L -0.079 -1.843 L -0.084 -1.846 L -0.089 -1.848 L -0.094 -1.85 L -0.099 -1.853 L -0.104 -1.856 L -0.109 -1.859 L -0.113 -1.862 L -0.118 -1.865 L -0.123 -1.869 L -0.127 -1.873 L -0.131 -1.876 L -0.135 -1.881 L -0.14 -1.886 L -0.144 -1.891 L -0.147 -1.896 L -0.151 -1.902 L -0.155 -1.907 L -0.158 -1.913 L -0.162 -1.918 L -0.165 -1.924 L -0.168 -1.93 L -0.17 -1.936 L -0.173 -1.941 L -0.176 -1.947 L -0.178 -1.953 L -0.18 -1.96 L -0.182 -1.966 L -0.184 -1.972 L -0.186 -1.978 L -0.187 -1.985 L -0.189 -1.991 L -0.19 -1.997 L -0.191 -2.004 L -0.192 -2.01 L -0.193 -2.017 L -0.36 -1.998 Z M -0.333 2.667 L -0.182 2.667 L -0.182 2.257 L -0.151 2.257 L -0.148 2.256 L -0.145 2.256 L -0.142 2.256 L -0.139 2.256 L -0.136 2.256 L -0.132 2.256 L -0.129 2.257 L -0.126 2.257 L -0.123 2.257 L -0.12 2.257 L -0.116 2.258 L -0.113 2.258 L -0.11 2.259 L -0.107 2.259 L -0.104 2.26 L -0.101 2.261 L -0.098 2.261 L -0.095 2.262 L -0.091 2.263 L -0.088 2.264 L -0.085 2.265 L -0.082 2.266 L -0.079 2.267 L -0.076 2.268 L -0.074 2.269 L -0.072 2.27 L -0.07 2.271 L -0.067 2.273 L -0.065 2.274 L -0.063 2.276 L -0.061 2.277 L -0.059 2.279 L -0.057 2.28 L -0.055 2.282 L -0.053 2.284 L -0.051 2.285 L -0.049 2.287 L -0.047 2.289 L -0.046 2.291 L -0.044 2.292 L -0.042 2.294 L -0.04 2.296 L -0.039 2.298 L -0.037 2.3 L -0.036 2.302 L -0.034 2.305 L -0.033 2.307 L -0.031 2.309 L -0.028 2.315 L -0.024 2.32 L -0.021 2.326 L -0.017 2.332 L -0.014 2.338 L -0.01 2.344 L -0.007 2.35 L -0.003 2.356 L 0 2.362 L 0.004 2.368 L 0.007 2.374 L 0.01 2.38 L 0.013 2.386 L 0.017 2.392 L 0.02 2.398 L 0.023 2.404 L 0.026 2.41 L 0.029 2.416 L 0.032 2.422 L 0.036 2.429 L 0.039 2.435 L 0.042 2.441 L 0.045 2.447 L 0.047 2.453 L 0.154 2.667 L 0.336 2.667 L 0.245 2.475 L 0.242 2.468 L 0.239 2.461 L 0.236 2.454 L 0.233 2.447 L 0.23 2.44 L 0.226 2.433 L 0.223 2.427 L 0.22 2.42 L 0.216 2.413 L 0.213 2.406 L 0.209 2.4 L 0.206 2.393 L 0.202 2.386 L 0.199 2.38 L 0.195 2.373 L 0.191 2.366 L 0.188 2.36 L 0.184 2.353 L 0.18 2.347 L 0.176 2.34 L 0.172 2.334 L 0.168 2.327 L 0.164 2.321 L 0.16 2.315 L 0.157 2.311 L 0.154 2.307 L 0.151 2.303 L 0.148 2.299 L 0.145 2.295 L 0.142 2.292 L 0.139 2.288 L 0.135 2.284 L 0.132 2.281 L 0.129 2.277 L 0.125 2.274 L 0.122 2.27 L 0.118 2.267 L 0.115 2.263 L 0.111 2.26 L 0.108 2.257 L 0.104 2.253 L 0.1 2.25 L 0.097 2.247 L 0.093 2.244 L 0.089 2.241 L 0.085 2.238 L 0.081 2.235 L 0.077 2.232 L 0.085 2.231 L 0.092 2.229 L 0.099 2.228 L 0.106 2.226 L 0.113 2.224 L 0.12 2.221 L 0.127 2.219 L 0.134 2.216 L 0.141 2.213 L 0.147 2.209 L 0.154 2.206 L 0.16 2.202 L 0.167 2.198 L 0.173 2.194 L 0.179 2.189 L 0.184 2.185 L 0.19 2.18 L 0.195 2.175 L 0.201 2.169 L 0.206 2.164 L 0.211 2.158 L 0.215 2.153 L 0.22 2.147 L 0.224 2.141 L 0.228 2.134 L 0.232 2.127 L 0.236 2.12 L 0.24 2.113 L 0.243 2.106 L 0.246 2.098 L 0.25 2.091 L 0.253 2.084 L 0.255 2.076 L 0.258 2.068 L 0.26 2.061 L 0.262 2.053 L 0.264 2.045 L 0.266 2.037 L 0.268 2.03 L 0.269 2.022 L 0.27 2.014 L 0.271 2.006 L 0.272 1.998 L 0.273 1.99 L 0.273 1.982 L 0.273 1.974 L 0.273 1.966 L 0.273 1.958 L 0.273 1.951 L 0.273 1.945 L 0.273 1.938 L 0.273 1.931 L 0.272 1.925 L 0.272 1.918 L 0.271 1.911 L 0.27 1.905 L 0.269 1.898 L 0.268 1.892 L 0.267 1.885 L 0.266 1.878 L 0.264 1.872 L 0.263 1.865 L 0.261 1.859 L 0.259 1.853 L 0.257 1.846 L 0.255 1.84 L 0.253 1.834 L 0.251 1.827 L 0.248 1.821 L 0.246 1.815 L 0.243 1.809 L 0.241 1.803 L 0.238 1.798 L 0.236 1.793 L 0.234 1.788 L 0.231 1.783 L 0.228 1.779 L 0.225 1.774 L 0.222 1.769 L 0.219 1.765 L 0.216 1.761 L 0.213 1.756 L 0.209 1.752 L 0.206 1.748 L 0.202 1.744 L 0.198 1.74 L 0.194 1.737 L 0.19 1.733 L 0.186 1.73 L 0.182 1.726 L 0.177 1.723 L 0.173 1.72 L 0.169 1.717 L 0.164 1.714 L 0.159 1.711 L 0.155 1.708 L 0.148 1.706 L 0.141 1.703 L 0.134 1.701 L 0.127 1.699 L 0.12 1.697 L 0.113 1.695 L 0.106 1.693 L 0.098 1.692 L 0.091 1.69 L 0.084 1.689 L 0.077 1.687 L 0.07 1.686 L 0.062 1.685 L 0.055 1.684 L 0.048 1.683 L 0.041 1.683 L 0.033 1.682 L 0.026 1.682 L 0.019 1.682 L 0.011 1.681 L 0.004 1.681 L -0.003 1.682 L -0.011 1.682 L -0.018 1.682 L -0.333 1.682 L -0.333 2.667 Z M -0.183 2.098 L -0.183 1.849 L -0.061 1.849 L -0.057 1.848 L -0.052 1.848 L -0.048 1.848 L -0.044 1.848 L -0.039 1.848 L -0.035 1.848 L -0.03 1.848 L -0.026 1.848 L -0.021 1.848 L -0.017 1.848 L -0.012 1.849 L -0.008 1.849 L -0.004 1.849 L 0.001 1.849 L 0.005 1.849 L 0.01 1.849 L 0.014 1.85 L 0.019 1.85 L 0.023 1.85 L 0.028 1.85 L 0.032 1.851 L 0.036 1.851 L 0.041 1.851 L 0.045 1.852 L 0.048 1.852 L 0.051 1.853 L 0.053 1.854 L 0.056 1.855 L 0.059 1.856 L 0.061 1.857 L 0.064 1.859 L 0.066 1.86 L 0.069 1.861 L 0.071 1.863 L 0.074 1.864 L 0.076 1.866 L 0.078 1.868 L 0.08 1.869 L 0.082 1.871 L 0.085 1.873 L 0.087 1.875 L 0.089 1.877 L 0.09 1.879 L 0.092 1.881 L 0.094 1.884 L 0.096 1.886 L 0.097 1.888 L 0.099 1.891 L 0.1 1.894 L 0.102 1.897 L 0.104 1.9 L 0.105 1.903 L 0.107 1.906 L 0.108 1.909 L 0.109 1.913 L 0.111 1.916 L 0.112 1.919 L 0.113 1.922 L 0.114 1.926 L 0.115 1.929 L 0.115 1.933 L 0.116 1.936 L 0.117 1.939 L 0.117 1.943 L 0.118 1.946 L 0.118 1.95 L 0.119 1.953 L 0.119 1.957 L 0.119 1.96 L 0.119 1.964 L 0.119 1.967 L 0.119 1.971 L 0.119 1.974 L 0.119 1.977 L 0.119 1.98 L 0.119 1.983 L 0.119 1.987 L 0.118 1.99 L 0.118 1.993 L 0.118 1.996 L 0.117 1.999 L 0.117 2.002 L 0.116 2.006 L 0.116 2.009 L 0.115 2.012 L 0.114 2.015 L 0.113 2.018 L 0.113 2.021 L 0.112 2.024 L 0.111 2.027 L 0.11 2.03 L 0.108 2.033 L 0.107 2.036 L 0.106 2.039 L 0.105 2.042 L 0.103 2.045 L 0.102 2.047 L 0.101 2.049 L 0.1 2.051 L 0.099 2.054 L 0.097 2.056 L 0.096 2.058 L 0.094 2.06 L 0.093 2.062 L 0.091 2.064 L 0.09 2.066 L 0.088 2.067 L 0.086 2.069 L 0.084 2.071 L 0.083 2.073 L 0.081 2.074 L 0.079 2.076 L 0.077 2.077 L 0.075 2.079 L 0.073 2.08 L 0.071 2.082 L 0.069 2.083 L 0.066 2.084 L 0.064 2.085 L 0.062 2.086 L 0.056 2.088 L 0.051 2.089 L 0.045 2.09 L 0.04 2.091 L 0.034 2.092 L 0.029 2.093 L 0.023 2.094 L 0.017 2.095 L 0.012 2.096 L 0.006 2.096 L 0 2.097 L -0.005 2.097 L -0.011 2.098 L -0.016 2.098 L -0.022 2.099 L -0.028 2.099 L -0.033 2.099 L -0.039 2.099 L -0.045 2.099 L -0.05 2.099 L -0.056 2.099 L -0.062 2.099 L -0.067 2.098 L -0.073 2.098 L -0.183 2.098 Z" /></svg>