<svg version="1.1" xmlns="http://www.w3.org/2000/svg" viewBox="-5.7058805109685276 -5.000000937255149 11.411761021937028 10.000001874510298" fill="black" stroke="none">
    <path d="M -4.70588 -3.99994 L -4.70582 -3.99994 L -4.70582 -4 L -4.70588 -4 L -4.70588 -3.99994 Z" />
    <path fill-rule="evenodd" d="M -3.28351 0.86276 L -3.26398 1.1525 L -3.17629 1.58095 L -3.03496 1.98732 L -2.84393 2.36767 L -2.60716 2.71803 L -2.32857 3.03448 L -2.01212 3.31307 L -1.66176 3.54984 L -1.28141 3.74087 L -0.87504 3.8822 L -0.44658 3.96989 L 0.00002 4 L 0.44662 3.96989 L 0.87507 3.8822 L 1.28145 3.74087 L 1.66179 3.54984 L 2.01215 3.31307 L 2.3286 3.03448 L 2.60719 2.71803 L 2.84397 2.36767 L 3.03499 1.98732 L 3.17632 1.58095 L 3.26401 1.1525 L 3.28355 0.86276 L 4.70588 0.86276 L 4.70588 0.54903 L 3.28355 0.54903 L 3.26401 0.2593 L 3.17632 -0.16916 L 3.03499 -0.57553 L 2.84397 -0.95588 L 2.60719 -1.30624 L 2.3286 -1.62269 L 2.01215 -1.90128 L 1.66179 -2.13805 L 1.28145 -2.32908 L 0.87507 -2.47041 L 0.44662 -2.5581 L 0.00002 -2.58821 L -0.44658 -2.5581 L -0.87504 -2.47041 L -1.28141 -2.32908 L -1.66176 -2.13805 L -2.01212 -1.90128 L -2.32857 -1.62269 L -2.60716 -1.30624 L -2.84393 -0.95588 L -3.03496 -0.57553 L -3.17629 -0.16916 L -3.26398 0.2593 L -3.28351 0.54903 L -4.70585 0.54903 L -4.70585 0.86276 L -3.28351 0.86276 Z M 0.00002 -2.27449 L 0.40483 -2.24731 L 0.79296 -2.16815 L 1.1609 -2.04053 L 1.5051 -1.86799 L 1.82203 -1.65405 L 2.10816 -1.40225 L 2.35996 -1.11612 L 2.5739 -0.79918 L 2.74644 -0.45499 L 2.87406 -0.08705 L 2.95322 0.30109 L 2.9804 0.7059 L 2.95322 1.11071 L 2.87406 1.49884 L 2.74644 1.86678 L 2.5739 2.21098 L 2.35996 2.52791 L 2.10816 2.81404 L 1.82203 3.06584 L 1.5051 3.27978 L 1.1609 3.45232 L 0.79296 3.57994 L 0.40483 3.6591 L 0.00002 3.68628 L -0.40479 3.6591 L -0.79293 3.57994 L -1.16087 3.45232 L -1.50506 3.27978 L -1.822 3.06584 L -2.10813 2.81404 L -2.35993 2.52791 L -2.57387 2.21098 L -2.74641 1.86678 L -2.87403 1.49884 L -2.95319 1.11071 L -2.98036 0.7059 L -2.95319 0.30109 L -2.87403 -0.08705 L -2.74641 -0.45499 L -2.57387 -0.79918 L -2.35993 -1.11612 L -2.10813 -1.40225 L -1.822 -1.65405 L -1.50506 -1.86799 L -1.16087 -2.04053 L -0.79293 -2.16815 L -0.40479 -2.24731 L 0.00002 -2.27449 Z" />
    <path d="M -2.35292 0.54903 L -2.35292 0.86276 L 1.0021 0.86276 L 1.0021 0.54903 L -2.35292 0.54903 Z" />
</svg>