<svg version="1.1" xmlns="http://www.w3.org/2000/svg" viewBox="-5.615385544378699 -5.00000093846154 11.230771088757399 10.00000187692308" fill="black" stroke="none">
    <path fill-rule="evenodd" d="M -4.61538 1.69231 L -3.23077 1.69231 L -3.23077 4 L 3.23077 4 L 3.23077 1.69231 L 4.61538 1.69231 L 4.61538 1.38462 L 3.23077 1.38462 L 3.23077 -1.38462 L 4.61538 -1.38462 L 4.61538 -1.69231 L 3.23077 -1.69231 L 3.23077 -4 L -3.23077 -4 L -3.23077 -1.69231 L -4.61538 -1.69231 L -4.61538 -1.38462 L -3.23077 -1.38462 L -3.23077 1.38462 L -4.61538 1.38462 L -4.61538 1.69231 Z M -2.92308 3.69231 L -2.92308 -3.69231 L 2.92308 -3.69231 L 2.92308 3.69231 L -2.92308 3.69231 Z M 1.5373 -1.58257 L 1.53766 -1.5642 L 1.53846 -1.54585 L 1.53789 -1.52733 L 1.53775 -1.50882 L 1.53807 -1.4903 L 1.53883 -1.47179 L 1.54003 -1.45331 L 1.54168 -1.43487 L 1.54377 -1.41646 L 1.5463 -1.39812 L 1.54927 -1.37984 L 1.55268 -1.36163 L 1.55653 -1.34352 L 1.56081 -1.3255 L 1.56553 -1.30759 L 1.57067 -1.2898 L 1.57624 -1.27213 L 1.58223 -1.25461 L 1.58864 -1.23724 L 1.59547 -1.22002 L 1.60271 -1.20297 L 1.61035 -1.1861 L 1.6184 -1.16943 L 1.62685 -1.15294 L 1.63569 -1.13667 L 1.64492 -1.12062 L 1.65226 -1.10901 L 1.66009 -1.09773 L 1.66842 -1.08681 L 1.67721 -1.07627 L 1.68647 -1.06612 L 1.69615 -1.05639 L 1.70626 -1.04709 L 1.71676 -1.03825 L 1.72764 -1.02987 L 1.73888 -1.02199 L 1.75046 -1.0146 L 1.76234 -1.00773 L 1.77452 -1.00138 L 1.78697 -0.99558 L 1.79966 -0.99033 L 1.81256 -0.98564 L 1.82566 -0.98153 L 1.83893 -0.97799 L 1.85234 -0.97504 L 1.86587 -0.97268 L 1.87948 -0.97092 L 1.89316 -0.96975 L 1.90688 -0.96919 L 1.92062 -0.96923 L 1.93301 -0.96978 L 1.94537 -0.97085 L 1.95767 -0.97244 L 1.96989 -0.97455 L 1.98202 -0.97718 L 1.99402 -0.98031 L 2.00588 -0.98394 L 2.01757 -0.98807 L 2.02909 -0.99269 L 2.04039 -0.9978 L 2.05147 -1.00337 L 2.06231 -1.00941 L 2.07288 -1.01589 L 2.08317 -1.02282 L 2.09316 -1.03018 L 2.10283 -1.03795 L 2.11216 -1.04612 L 2.12114 -1.05467 L 2.12975 -1.0636 L 2.13798 -1.07289 L 2.14581 -1.08251 L 2.15323 -1.09245 L 2.16022 -1.1027 L 2.16677 -1.11323 L 2.28985 -1.02462 L 2.37354 -1.21908 L 2.25046 -1.29846 L 2.25098 -1.29959 L 2.25242 -1.3032 L 2.2546 -1.3096 L 2.25732 -1.31911 L 2.26042 -1.33206 L 2.26369 -1.34877 L 2.26697 -1.36955 L 2.27006 -1.39474 L 2.27279 -1.42463 L 2.27496 -1.45957 L 2.2764 -1.49987 L 2.27692 -1.54585 L 2.27779 -1.56418 L 2.27822 -1.58253 L 2.27821 -1.60089 L 2.27777 -1.61924 L 2.27688 -1.63757 L 2.27556 -1.65588 L 2.27381 -1.67415 L 2.27161 -1.69237 L 2.26899 -1.71054 L 2.26593 -1.72864 L 2.26244 -1.74666 L 2.25852 -1.76459 L 2.25417 -1.78242 L 2.2494 -1.80015 L 2.24421 -1.81776 L 2.2386 -1.83523 L 2.23257 -1.85257 L 2.22613 -1.86976 L 2.21929 -1.88679 L 2.21204 -1.90365 L 2.20439 -1.92034 L 2.19634 -1.93684 L 2.1879 -1.95314 L 2.17908 -1.96923 L 2.16404 -1.99165 L 2.14714 -2.0127 L 2.12852 -2.03225 L 2.1083 -2.05013 L 2.08663 -2.06623 L 2.06367 -2.08043 L 2.03959 -2.09263 L 2.01455 -2.10273 L 1.98875 -2.11066 L 1.96236 -2.11636 L 1.93559 -2.1198 L 1.90862 -2.12095 L 1.88164 -2.1198 L 1.85487 -2.11636 L 1.82848 -2.11066 L 1.80268 -2.10273 L 1.77764 -2.09263 L 1.75356 -2.08043 L 1.7306 -2.06623 L 1.70893 -2.05013 L 1.68871 -2.03225 L 1.67009 -2.0127 L 1.65319 -1.99165 L 1.63815 -1.96923 L 1.62925 -1.95316 L 1.62073 -1.93688 L 1.6126 -1.9204 L 1.60487 -1.90373 L 1.59754 -1.88688 L 1.59062 -1.86987 L 1.5841 -1.85269 L 1.57799 -1.83536 L 1.5723 -1.81789 L 1.56703 -1.80029 L 1.56218 -1.78256 L 1.55776 -1.76473 L 1.55376 -1.7468 L 1.55019 -1.72877 L 1.54706 -1.71067 L 1.54435 -1.6925 L 1.54209 -1.67426 L 1.54025 -1.65598 L 1.53886 -1.63766 L 1.5379 -1.61931 L 1.53738 -1.60095 L 1.5373 -1.58257 Z M 1.69153 -1.5213 L 1.69178 -1.53388 L 1.69231 -1.54646 L 1.69178 -1.55889 L 1.69153 -1.57133 L 1.69156 -1.58376 L 1.69185 -1.5962 L 1.69242 -1.60863 L 1.69326 -1.62104 L 1.69437 -1.63342 L 1.69575 -1.64579 L 1.69741 -1.65811 L 1.69933 -1.6704 L 1.70152 -1.68265 L 1.70398 -1.69484 L 1.70671 -1.70698 L 1.7097 -1.71905 L 1.71296 -1.73105 L 1.71648 -1.74299 L 1.72026 -1.75484 L 1.7243 -1.7666 L 1.72859 -1.77827 L 1.73314 -1.78985 L 1.73795 -1.80132 L 1.743 -1.81269 L 1.7483 -1.82394 L 1.75385 -1.83508 L 1.76132 -1.84926 L 1.77009 -1.86268 L 1.7801 -1.87521 L 1.79124 -1.88675 L 1.80341 -1.89718 L 1.81652 -1.90641 L 1.83044 -1.91437 L 1.84505 -1.92098 L 1.86021 -1.92619 L 1.8758 -1.92994 L 1.89168 -1.9322 L 1.90769 -1.93296 L 1.92371 -1.9322 L 1.93958 -1.92994 L 1.95517 -1.92619 L 1.97034 -1.92098 L 1.98494 -1.91437 L 1.99886 -1.90641 L 2.01197 -1.89718 L 2.02415 -1.88675 L 2.03529 -1.87521 L 2.04529 -1.86268 L 2.05407 -1.84926 L 2.06154 -1.83508 L 2.06693 -1.82388 L 2.07207 -1.81256 L 2.07697 -1.80113 L 2.08162 -1.7896 L 2.08601 -1.77797 L 2.09015 -1.76625 L 2.09403 -1.75444 L 2.09765 -1.74255 L 2.10101 -1.73058 L 2.10411 -1.71854 L 2.10695 -1.70644 L 2.10952 -1.69427 L 2.11183 -1.68206 L 2.11386 -1.66979 L 2.11563 -1.65749 L 2.11713 -1.64515 L 2.11836 -1.63278 L 2.11932 -1.62038 L 2.12001 -1.60797 L 2.12043 -1.59555 L 2.12057 -1.58312 L 2.12045 -1.57068 L 2.12005 -1.55826 L 2.11938 -1.54585 L 2.11943 -1.53891 L 2.11942 -1.53197 L 2.11936 -1.52504 L 2.11923 -1.5181 L 2.11905 -1.51117 L 2.11881 -1.50424 L 2.11851 -1.49731 L 2.11815 -1.49038 L 2.11774 -1.48345 L 2.11726 -1.47653 L 2.11673 -1.46962 L 2.11615 -1.46271 L 2.1155 -1.4558 L 2.1148 -1.4489 L 2.11404 -1.44201 L 2.11322 -1.43512 L 2.11235 -1.42824 L 2.11141 -1.42136 L 2.11042 -1.4145 L 2.10938 -1.40764 L 2.10827 -1.40079 L 2.10711 -1.39395 L 2.10589 -1.38713 L 2.10462 -1.38031 L 1.98954 -1.46154 L 1.896 -1.29785 L 2.01908 -1.20923 L 2.01543 -1.20509 L 2.01163 -1.20109 L 2.00768 -1.19723 L 2.0036 -1.19352 L 1.99938 -1.18997 L 1.99503 -1.18657 L 1.99055 -1.18334 L 1.98596 -1.18028 L 1.98126 -1.17739 L 1.97645 -1.17468 L 1.97155 -1.17215 L 1.96655 -1.1698 L 1.96148 -1.16764 L 1.95632 -1.16567 L 1.9511 -1.1639 L 1.94581 -1.16232 L 1.94047 -1.16094 L 1.93508 -1.15975 L 1.92965 -1.15877 L 1.92418 -1.15799 L 1.91869 -1.15742 L 1.91319 -1.15705 L 1.90767 -1.15688 L 1.90215 -1.15692 L 1.89442 -1.15747 L 1.88673 -1.15835 L 1.87907 -1.15958 L 1.87149 -1.16115 L 1.86397 -1.16305 L 1.85655 -1.16528 L 1.84924 -1.16784 L 1.84204 -1.17072 L 1.83498 -1.17391 L 1.82807 -1.17742 L 1.82132 -1.18123 L 1.81475 -1.18533 L 1.80837 -1.18972 L 1.80218 -1.19439 L 1.79621 -1.19933 L 1.79047 -1.20453 L 1.78496 -1.20998 L 1.77969 -1.21567 L 1.77469 -1.22158 L 1.76995 -1.22771 L 1.76549 -1.23405 L 1.76131 -1.24058 L 1.75743 -1.24728 L 1.75385 -1.25415 L 1.7483 -1.26545 L 1.74299 -1.27687 L 1.73793 -1.28839 L 1.73313 -1.30003 L 1.72858 -1.31176 L 1.72428 -1.3236 L 1.72024 -1.33552 L 1.71646 -1.34752 L 1.71294 -1.35961 L 1.70969 -1.37177 L 1.70669 -1.384 L 1.70397 -1.39628 L 1.70151 -1.40863 L 1.69932 -1.42102 L 1.69739 -1.43346 L 1.69574 -1.44594 L 1.69436 -1.45846 L 1.69325 -1.47099 L 1.69241 -1.48355 L 1.69185 -1.49613 L 1.69155 -1.50871 L 1.69153 -1.5213 Z M 1.5373 1.49435 L 1.53766 1.51272 L 1.53846 1.53108 L 1.53789 1.54959 L 1.53775 1.56811 L 1.53807 1.58663 L 1.53883 1.60513 L 1.54003 1.62361 L 1.54168 1.64206 L 1.54377 1.66046 L 1.5463 1.67881 L 1.54927 1.69709 L 1.55268 1.71529 L 1.55653 1.73341 L 1.56081 1.75142 L 1.56553 1.76933 L 1.57067 1.78713 L 1.57624 1.80479 L 1.58223 1.82231 L 1.58864 1.83969 L 1.59547 1.8569 L 1.60271 1.87395 L 1.61035 1.89082 L 1.6184 1.9075 L 1.62685 1.92398 L 1.63569 1.94025 L 1.64492 1.95631 L 1.65226 1.96792 L 1.66009 1.97919 L 1.66842 1.99011 L 1.67721 2.00065 L 1.68647 2.0108 L 1.69615 2.02053 L 1.70626 2.02983 L 1.71676 2.03867 L 1.72764 2.04705 L 1.73888 2.05494 L 1.75046 2.06232 L 1.76234 2.0692 L 1.77452 2.07554 L 1.78697 2.08134 L 1.79966 2.08659 L 1.81256 2.09128 L 1.82566 2.0954 L 1.83893 2.09893 L 1.85234 2.10188 L 1.86587 2.10424 L 1.87948 2.10601 L 1.89316 2.10717 L 1.90688 2.10773 L 1.92062 2.10769 L 1.93301 2.10714 L 1.94537 2.10607 L 1.95767 2.10448 L 1.96989 2.10237 L 1.98202 2.09975 L 1.99402 2.09662 L 2.00588 2.09298 L 2.01757 2.08885 L 2.02909 2.08423 L 2.04039 2.07913 L 2.05147 2.07355 L 2.06231 2.06752 L 2.07288 2.06103 L 2.08317 2.0541 L 2.09316 2.04675 L 2.10283 2.03898 L 2.11216 2.03081 L 2.12114 2.02225 L 2.12975 2.01332 L 2.13798 2.00404 L 2.14581 1.99442 L 2.15323 1.98447 L 2.16022 1.97422 L 2.16677 1.96369 L 2.28985 2.05231 L 2.37354 1.85785 L 2.25046 1.77846 L 2.25098 1.77733 L 2.25242 1.77373 L 2.2546 1.76733 L 2.25732 1.75781 L 2.26042 1.74486 L 2.26369 1.72815 L 2.26697 1.70737 L 2.27006 1.68219 L 2.27279 1.65229 L 2.27496 1.61735 L 2.2764 1.57705 L 2.27692 1.53108 L 2.27779 1.51274 L 2.27822 1.49439 L 2.27821 1.47604 L 2.27777 1.45769 L 2.27688 1.43935 L 2.27556 1.42104 L 2.27381 1.40277 L 2.27161 1.38455 L 2.26899 1.36638 L 2.26593 1.34828 L 2.26244 1.33026 L 2.25852 1.31233 L 2.25417 1.2945 L 2.2494 1.27677 L 2.24421 1.25917 L 2.2386 1.24169 L 2.23257 1.22435 L 2.22613 1.20716 L 2.21929 1.19013 L 2.21204 1.17327 L 2.20439 1.15659 L 2.19634 1.14009 L 2.1879 1.12379 L 2.17908 1.10769 L 2.16404 1.08527 L 2.14714 1.06422 L 2.12852 1.04468 L 2.1083 1.02679 L 2.08663 1.01069 L 2.06367 0.99649 L 2.03959 0.9843 L 2.01455 0.9742 L 1.98875 0.96627 L 1.96236 0.96056 L 1.93559 0.95712 L 1.90862 0.95597 L 1.88164 0.95712 L 1.85487 0.96056 L 1.82848 0.96627 L 1.80268 0.9742 L 1.77764 0.9843 L 1.75356 0.99649 L 1.7306 1.01069 L 1.70893 1.02679 L 1.68871 1.04468 L 1.67009 1.06422 L 1.65319 1.08527 L 1.63815 1.10769 L 1.62925 1.12376 L 1.62073 1.14004 L 1.6126 1.15652 L 1.60487 1.17319 L 1.59754 1.19004 L 1.59062 1.20706 L 1.5841 1.22424 L 1.57799 1.24156 L 1.5723 1.25904 L 1.56703 1.27664 L 1.56218 1.29436 L 1.55776 1.31219 L 1.55376 1.33012 L 1.55019 1.34815 L 1.54706 1.36625 L 1.54435 1.38443 L 1.54209 1.40266 L 1.54025 1.42094 L 1.53886 1.43926 L 1.5379 1.45761 L 1.53738 1.47598 L 1.5373 1.49435 Z M 1.69153 1.55562 L 1.69178 1.54304 L 1.69231 1.53046 L 1.69178 1.51803 L 1.69153 1.5056 L 1.69156 1.49316 L 1.69185 1.48072 L 1.69242 1.4683 L 1.69326 1.45589 L 1.69437 1.4435 L 1.69575 1.43114 L 1.69741 1.41881 L 1.69933 1.40652 L 1.70152 1.39428 L 1.70398 1.38208 L 1.70671 1.36995 L 1.7097 1.35787 L 1.71296 1.34587 L 1.71648 1.33394 L 1.72026 1.32209 L 1.7243 1.31032 L 1.72859 1.29865 L 1.73314 1.28707 L 1.73795 1.2756 L 1.743 1.26423 L 1.7483 1.25298 L 1.75385 1.24185 L 1.76132 1.22766 L 1.77009 1.21424 L 1.7801 1.20171 L 1.79124 1.19018 L 1.80341 1.17975 L 1.81652 1.17051 L 1.83044 1.16255 L 1.84505 1.15594 L 1.86021 1.15074 L 1.8758 1.14699 L 1.89168 1.14472 L 1.90769 1.14397 L 1.92371 1.14472 L 1.93958 1.14699 L 1.95517 1.15074 L 1.97034 1.15594 L 1.98494 1.16255 L 1.99886 1.17051 L 2.01197 1.17975 L 2.02415 1.19018 L 2.03529 1.20171 L 2.04529 1.21424 L 2.05407 1.22766 L 2.06154 1.24185 L 2.06693 1.25305 L 2.07207 1.26436 L 2.07697 1.27579 L 2.08162 1.28732 L 2.08601 1.29895 L 2.09015 1.31067 L 2.09403 1.32248 L 2.09765 1.33438 L 2.10101 1.34634 L 2.10411 1.35838 L 2.10695 1.37049 L 2.10952 1.38265 L 2.11183 1.39487 L 2.11386 1.40713 L 2.11563 1.41943 L 2.11713 1.43177 L 2.11836 1.44415 L 2.11932 1.45654 L 2.12001 1.46895 L 2.12043 1.48138 L 2.12057 1.49381 L 2.12045 1.50624 L 2.12005 1.51866 L 2.11938 1.53108 L 2.11943 1.53801 L 2.11942 1.54495 L 2.11936 1.55189 L 2.11923 1.55882 L 2.11905 1.56575 L 2.11881 1.57269 L 2.11851 1.57962 L 2.11815 1.58654 L 2.11774 1.59347 L 2.11726 1.60039 L 2.11673 1.6073 L 2.11615 1.61422 L 2.1155 1.62112 L 2.1148 1.62802 L 2.11404 1.63492 L 2.11322 1.64181 L 2.11235 1.64869 L 2.11141 1.65556 L 2.11042 1.66243 L 2.10938 1.66928 L 2.10827 1.67613 L 2.10711 1.68297 L 2.10589 1.6898 L 2.10462 1.69662 L 1.98954 1.61538 L 1.896 1.77908 L 2.01908 1.86769 L 2.01543 1.87183 L 2.01163 1.87584 L 2.00768 1.87969 L 2.0036 1.8834 L 1.99938 1.88696 L 1.99503 1.89035 L 1.99055 1.89358 L 1.98596 1.89664 L 1.98126 1.89953 L 1.97645 1.90224 L 1.97155 1.90477 L 1.96655 1.90712 L 1.96148 1.90928 L 1.95632 1.91125 L 1.9511 1.91302 L 1.94581 1.9146 L 1.94047 1.91599 L 1.93508 1.91717 L 1.92965 1.91815 L 1.92418 1.91893 L 1.91869 1.9195 L 1.91319 1.91987 L 1.90767 1.92004 L 1.90215 1.92 L 1.89442 1.91946 L 1.88673 1.91857 L 1.87907 1.91734 L 1.87149 1.91578 L 1.86397 1.91388 L 1.85655 1.91164 L 1.84924 1.90909 L 1.84204 1.90621 L 1.83498 1.90301 L 1.82807 1.8995 L 1.82132 1.8957 L 1.81475 1.89159 L 1.80837 1.8872 L 1.80218 1.88253 L 1.79621 1.87759 L 1.79047 1.87239 L 1.78496 1.86694 L 1.77969 1.86126 L 1.77469 1.85534 L 1.76995 1.84921 L 1.76549 1.84287 L 1.76131 1.83635 L 1.75743 1.82964 L 1.75385 1.82277 L 1.7483 1.81147 L 1.74299 1.80006 L 1.73793 1.78853 L 1.73313 1.77689 L 1.72858 1.76516 L 1.72428 1.75333 L 1.72024 1.74141 L 1.71646 1.7294 L 1.71294 1.71731 L 1.70969 1.70515 L 1.70669 1.69293 L 1.70397 1.68064 L 1.70151 1.66829 L 1.69932 1.6559 L 1.69739 1.64346 L 1.69574 1.63098 L 1.69436 1.61847 L 1.69325 1.60593 L 1.69241 1.59337 L 1.69185 1.58079 L 1.69155 1.56821 L 1.69153 1.55562 Z M 1.35385 0.41538 L 1.35385 0.72308 L 2.50769 0.72308 L 2.50769 0.41538 L 1.35385 0.41538 Z M -2.30769 2.10523 L -1.53846 2.10585 L -1.53846 1.91446 L -2.10338 1.91446 L -2.10338 1.60677 L -1.59569 1.60677 L -1.59569 1.41538 L -2.10338 1.41538 L -2.10338 1.16123 L -1.55754 1.16123 L -1.55754 0.96923 L -2.30769 0.96923 L -2.30769 2.10523 Z M -2.30769 -0.96923 L -1.95569 -0.96923 L -1.94876 -0.96903 L -1.94183 -0.96894 L -1.9349 -0.96895 L -1.92797 -0.96907 L -1.92104 -0.96929 L -1.91412 -0.96962 L -1.9072 -0.97005 L -1.90029 -0.97059 L -1.89339 -0.97123 L -1.8865 -0.97197 L -1.87962 -0.97282 L -1.87275 -0.97378 L -1.8659 -0.97483 L -1.85907 -0.97599 L -1.85225 -0.97726 L -1.84546 -0.97863 L -1.83869 -0.9801 L -1.83193 -0.98167 L -1.82521 -0.98334 L -1.81851 -0.98512 L -1.81184 -0.987 L -1.80519 -0.98897 L -1.79858 -0.99105 L -1.792 -0.99323 L -1.78575 -0.99561 L -1.77956 -0.99813 L -1.77342 -1.00077 L -1.76734 -1.00355 L -1.76131 -1.00645 L -1.75535 -1.00947 L -1.74945 -1.01262 L -1.74363 -1.0159 L -1.73787 -1.01929 L -1.73218 -1.02281 L -1.72657 -1.02644 L -1.72104 -1.03019 L -1.71558 -1.03406 L -1.71021 -1.03804 L -1.70493 -1.04213 L -1.69973 -1.04634 L -1.69462 -1.05065 L -1.6896 -1.05506 L -1.68467 -1.05959 L -1.67985 -1.06421 L -1.67512 -1.06894 L -1.67049 -1.07376 L -1.66596 -1.07868 L -1.66154 -1.08369 L -1.65596 -1.09118 L -1.65051 -1.09876 L -1.64519 -1.10643 L -1.64001 -1.11419 L -1.63496 -1.12205 L -1.63005 -1.12999 L -1.62528 -1.13802 L -1.62065 -1.14612 L -1.61617 -1.15431 L -1.61182 -1.16258 L -1.60763 -1.17091 L -1.60358 -1.17933 L -1.59967 -1.18781 L -1.59592 -1.19635 L -1.59231 -1.20497 L -1.58886 -1.21364 L -1.58555 -1.22237 L -1.5824 -1.23116 L -1.57941 -1.24 L -1.57657 -1.2489 L -1.57388 -1.25784 L -1.57135 -1.26682 L -1.56898 -1.27585 L -1.56677 -1.28492 L -1.56428 -1.29479 L -1.56191 -1.30469 L -1.55965 -1.31461 L -1.5575 -1.32456 L -1.55547 -1.33453 L -1.55355 -1.34452 L -1.55174 -1.35454 L -1.55004 -1.36457 L -1.54846 -1.37463 L -1.54699 -1.3847 L -1.54564 -1.39478 L -1.5444 -1.40488 L -1.54327 -1.415 L -1.54226 -1.42512 L -1.54136 -1.43526 L -1.54058 -1.44541 L -1.53991 -1.45556 L -1.53936 -1.46573 L -1.53892 -1.47589 L -1.5386 -1.48607 L -1.53839 -1.49624 L -1.5383 -1.50642 L -1.53832 -1.51659 L -1.53846 -1.52677 L -1.53828 -1.53803 L -1.53823 -1.54928 L -1.5383 -1.56054 L -1.5385 -1.5718 L -1.53882 -1.58305 L -1.53927 -1.5943 L -1.53984 -1.60554 L -1.54054 -1.61678 L -1.54136 -1.62801 L -1.54231 -1.63922 L -1.54339 -1.65043 L -1.54458 -1.66162 L -1.54591 -1.6728 L -1.54735 -1.68397 L -1.54892 -1.69512 L -1.55062 -1.70625 L -1.55244 -1.71736 L -1.55438 -1.72844 L -1.55645 -1.73951 L -1.55863 -1.75055 L -1.56095 -1.76157 L -1.56338 -1.77256 L -1.56594 -1.78353 L -1.56862 -1.79446 L -1.57078 -1.80275 L -1.57307 -1.811 L -1.5755 -1.81921 L -1.57806 -1.82739 L -1.58076 -1.83551 L -1.58359 -1.8436 L -1.58655 -1.85164 L -1.58963 -1.85963 L -1.59285 -1.86756 L -1.5962 -1.87545 L -1.59967 -1.88327 L -1.60327 -1.89105 L -1.607 -1.89876 L -1.61085 -1.90641 L -1.61483 -1.91399 L -1.61893 -1.92151 L -1.62315 -1.92896 L -1.62749 -1.93635 L -1.63195 -1.94366 L -1.63653 -1.9509 L -1.64122 -1.95806 L -1.64603 -1.96515 L -1.65096 -1.97215 L -1.656 -1.97908 L -1.66043 -1.98491 L -1.66501 -1.99064 L -1.66972 -1.99626 L -1.67456 -2.00177 L -1.67953 -2.00715 L -1.68462 -2.01242 L -1.68984 -2.01757 L -1.69519 -2.02259 L -1.70065 -2.02748 L -1.70622 -2.03224 L -1.71191 -2.03686 L -1.7177 -2.04135 L -1.7236 -2.0457 L -1.72961 -2.0499 L -1.73571 -2.05397 L -1.7419 -2.05788 L -1.74819 -2.06165 L -1.75457 -2.06527 L -1.76103 -2.06873 L -1.76757 -2.07204 L -1.77418 -2.07519 L -1.78088 -2.07819 L -1.78764 -2.08102 L -1.79446 -2.08369 L -1.80154 -2.08574 L -1.80865 -2.08769 L -1.81579 -2.08954 L -1.82294 -2.09129 L -1.83013 -2.09295 L -1.83733 -2.0945 L -1.84456 -2.09595 L -1.8518 -2.09731 L -1.85907 -2.09856 L -1.86635 -2.09972 L -1.87364 -2.10077 L -1.88095 -2.10172 L -1.88827 -2.10257 L -1.89561 -2.10332 L -1.90295 -2.10397 L -1.9103 -2.10452 L -1.91766 -2.10496 L -1.92502 -2.10531 L -1.93239 -2.10555 L -1.93975 -2.10569 L -1.94713 -2.10573 L -1.9545 -2.10566 L -1.96186 -2.1055 L -1.96923 -2.10523 L -2.30769 -2.10523 L -2.30769 -0.96923 Z M -2.12308 -1.16062 L -2.12308 -1.91323 L -2.03938 -1.91077 L -2.03302 -1.91101 L -2.02666 -1.91118 L -2.0203 -1.9113 L -2.01394 -1.91135 L -2.00757 -1.91134 L -2.00121 -1.91128 L -1.99485 -1.91115 L -1.98848 -1.91096 L -1.98213 -1.91071 L -1.97577 -1.9104 L -1.96942 -1.91003 L -1.96307 -1.90959 L -1.95672 -1.9091 L -1.95038 -1.90855 L -1.94405 -1.90793 L -1.93772 -1.90726 L -1.9314 -1.90652 L -1.92508 -1.90573 L -1.91878 -1.90487 L -1.91248 -1.90396 L -1.90619 -1.90298 L -1.89991 -1.90194 L -1.89364 -1.90085 L -1.88738 -1.89969 L -1.88323 -1.89859 L -1.87911 -1.89739 L -1.87502 -1.89608 L -1.87097 -1.89466 L -1.86695 -1.89314 L -1.86298 -1.89151 L -1.85904 -1.88978 L -1.85516 -1.88796 L -1.85132 -1.88603 L -1.84753 -1.884 L -1.8438 -1.88188 L -1.84012 -1.87966 L -1.8365 -1.87734 L -1.83295 -1.87494 L -1.82945 -1.87244 L -1.82602 -1.86985 L -1.82266 -1.86718 L -1.81937 -1.86442 L -1.81616 -1.86157 L -1.81301 -1.85864 L -1.80995 -1.85564 L -1.80696 -1.85255 L -1.80405 -1.84939 L -1.80123 -1.84615 L -1.79818 -1.84228 L -1.79519 -1.83835 L -1.79228 -1.83436 L -1.78944 -1.83033 L -1.78667 -1.82624 L -1.78398 -1.82211 L -1.78136 -1.81793 L -1.77882 -1.8137 L -1.77635 -1.80943 L -1.77395 -1.80511 L -1.77164 -1.80076 L -1.7694 -1.79636 L -1.76725 -1.79192 L -1.76517 -1.78744 L -1.76317 -1.78293 L -1.76126 -1.77838 L -1.75943 -1.7738 L -1.75767 -1.76919 L -1.75601 -1.76455 L -1.75442 -1.75987 L -1.75292 -1.75517 L -1.7515 -1.75045 L -1.75017 -1.7457 L -1.74892 -1.74092 L -1.74712 -1.73262 L -1.7454 -1.7243 L -1.74377 -1.71596 L -1.74222 -1.70761 L -1.74076 -1.69924 L -1.73939 -1.69086 L -1.73811 -1.68246 L -1.73692 -1.67405 L -1.73581 -1.66562 L -1.73479 -1.65719 L -1.73387 -1.64875 L -1.73302 -1.64029 L -1.73227 -1.63183 L -1.73161 -1.62336 L -1.73103 -1.61488 L -1.73054 -1.6064 L -1.73015 -1.59792 L -1.72984 -1.58943 L -1.72962 -1.58093 L -1.72948 -1.57244 L -1.72944 -1.56394 L -1.72949 -1.55545 L -1.72962 -1.54695 L -1.72985 -1.53846 L -1.72961 -1.52956 L -1.72946 -1.52066 L -1.7294 -1.51176 L -1.72944 -1.50285 L -1.72956 -1.49395 L -1.72977 -1.48505 L -1.73008 -1.47615 L -1.73047 -1.46725 L -1.73095 -1.45836 L -1.73152 -1.44948 L -1.73218 -1.4406 L -1.73294 -1.43173 L -1.73378 -1.42286 L -1.73471 -1.41401 L -1.73573 -1.40516 L -1.73684 -1.39633 L -1.73804 -1.38751 L -1.73933 -1.3787 L -1.74071 -1.3699 L -1.74217 -1.36112 L -1.74373 -1.35235 L -1.74537 -1.3436 L -1.7471 -1.33487 L -1.74892 -1.32615 L -1.74985 -1.3212 L -1.75088 -1.31626 L -1.75201 -1.31135 L -1.75324 -1.30646 L -1.75457 -1.30159 L -1.75599 -1.29676 L -1.75752 -1.29195 L -1.75914 -1.28717 L -1.76085 -1.28243 L -1.76266 -1.27772 L -1.76457 -1.27306 L -1.76657 -1.26843 L -1.76866 -1.26384 L -1.77084 -1.25929 L -1.77312 -1.25479 L -1.77548 -1.25034 L -1.77794 -1.24594 L -1.78048 -1.24158 L -1.78311 -1.23728 L -1.78583 -1.23303 L -1.78863 -1.22884 L -1.79152 -1.22471 L -1.79449 -1.22063 L -1.79754 -1.21662 L -1.80002 -1.21383 L -1.80257 -1.21111 L -1.80518 -1.20845 L -1.80786 -1.20586 L -1.8106 -1.20332 L -1.81339 -1.20086 L -1.81625 -1.19846 L -1.81916 -1.19613 L -1.82213 -1.19388 L -1.82515 -1.19169 L -1.82822 -1.18958 L -1.83134 -1.18754 L -1.83451 -1.18557 L -1.83773 -1.18368 L -1.84099 -1.18187 L -1.84429 -1.18014 L -1.84763 -1.17849 L -1.85101 -1.17692 L -1.85443 -1.17543 L -1.85788 -1.17402 L -1.86137 -1.1727 L -1.86488 -1.17146 L -1.86843 -1.1703 L -1.872 -1.16923 L -1.87662 -1.16824 L -1.88124 -1.1673 L -1.88588 -1.16642 L -1.89053 -1.16559 L -1.89519 -1.16482 L -1.89986 -1.1641 L -1.90453 -1.16344 L -1.90921 -1.16283 L -1.9139 -1.16228 L -1.9186 -1.16178 L -1.9233 -1.16133 L -1.928 -1.16095 L -1.93271 -1.16061 L -1.93743 -1.16034 L -1.94214 -1.16012 L -1.94686 -1.15995 L -1.95158 -1.15984 L -1.9563 -1.15978 L -1.96103 -1.15978 L -1.96575 -1.15984 L -1.97047 -1.15995 L -1.97519 -1.16012 L -1.9799 -1.16034 L -1.98462 -1.16062 L -2.12308 -1.16062 Z" />
</svg>