<svg version="1.1" xmlns="http://www.w3.org/2000/svg" viewBox="-5.615 -5 11.231 10" fill="black" stroke="none"><path fill-rule="evenodd" d="M -3.231 0.125 L -3.231 1.018 L -3.231 1.385 L -4.615 1.385 L -4.615 1.692 L -3.231 1.692 L -3.231 4 L 3.231 4 L 3.231 1.692 L 4.615 1.692 L 4.615 1.385 L 3.231 1.385 L 3.231 -1.385 L 4.615 -1.385 L 4.615 -1.692 L 3.231 -1.692 L 3.231 -4 L -3.231 -4 L -3.231 -1.692 L -4.615 -1.692 L -4.615 -1.385 L -3.231 -1.385 L -3.231 -1.018 L -3.231 -0.183 L -4.615 -0.183 L -4.615 0.125 L -3.231 0.125 Z M -2.923 0.864 L -1.194 0 L -2.923 -0.864 L -2.923 -3.692 L 2.923 -3.692 L 2.923 3.692 L -2.923 3.692 L -2.923 0.864 Z M -2.923 0.52 L -2.923 -0.52 L -1.882 0 L -2.923 0.52 Z M 1.354 0.723 L 2.508 0.723 L 2.508 0.415 L 1.354 0.415 L 1.354 0.723 Z M 1.537 1.494 L 1.538 1.513 L 1.538 1.531 L 1.538 1.55 L 1.538 1.568 L 1.538 1.587 L 1.539 1.605 L 1.54 1.624 L 1.542 1.642 L 1.544 1.66 L 1.546 1.679 L 1.549 1.697 L 1.553 1.715 L 1.557 1.733 L 1.561 1.751 L 1.566 1.769 L 1.571 1.787 L 1.576 1.805 L 1.582 1.822 L 1.589 1.84 L 1.595 1.857 L 1.603 1.874 L 1.61 1.891 L 1.618 1.907 L 1.627 1.924 L 1.636 1.94 L 1.645 1.956 L 1.652 1.968 L 1.66 1.979 L 1.668 1.99 L 1.677 2.001 L 1.686 2.011 L 1.696 2.021 L 1.706 2.03 L 1.717 2.039 L 1.728 2.047 L 1.739 2.055 L 1.75 2.062 L 1.762 2.069 L 1.775 2.076 L 1.787 2.081 L 1.8 2.087 L 1.813 2.091 L 1.826 2.095 L 1.839 2.099 L 1.852 2.102 L 1.866 2.104 L 1.879 2.106 L 1.893 2.107 L 1.907 2.108 L 1.921 2.108 L 1.933 2.107 L 1.945 2.106 L 1.958 2.104 L 1.97 2.102 L 1.982 2.1 L 1.994 2.097 L 2.006 2.093 L 2.018 2.089 L 2.029 2.084 L 2.04 2.079 L 2.051 2.074 L 2.062 2.068 L 2.073 2.061 L 2.083 2.054 L 2.093 2.047 L 2.103 2.039 L 2.112 2.031 L 2.121 2.022 L 2.13 2.013 L 2.138 2.004 L 2.146 1.994 L 2.153 1.984 L 2.16 1.974 L 2.167 1.964 L 2.29 2.052 L 2.374 1.858 L 2.25 1.778 L 2.251 1.777 L 2.252 1.774 L 2.255 1.767 L 2.257 1.758 L 2.26 1.745 L 2.264 1.728 L 2.267 1.707 L 2.27 1.682 L 2.273 1.652 L 2.275 1.617 L 2.276 1.577 L 2.277 1.531 L 2.278 1.513 L 2.278 1.494 L 2.278 1.476 L 2.278 1.458 L 2.277 1.439 L 2.276 1.421 L 2.274 1.403 L 2.272 1.385 L 2.269 1.366 L 2.266 1.348 L 2.262 1.33 L 2.259 1.312 L 2.254 1.294 L 2.249 1.277 L 2.244 1.259 L 2.239 1.242 L 2.233 1.224 L 2.226 1.207 L 2.219 1.19 L 2.212 1.173 L 2.204 1.157 L 2.196 1.14 L 2.188 1.124 L 2.179 1.108 L 2.164 1.085 L 2.147 1.064 L 2.129 1.045 L 2.108 1.027 L 2.087 1.011 L 2.064 0.996 L 2.04 0.984 L 2.015 0.974 L 1.989 0.966 L 1.962 0.961 L 1.936 0.957 L 1.909 0.956 L 1.882 0.957 L 1.855 0.961 L 1.828 0.966 L 1.803 0.974 L 1.778 0.984 L 1.754 0.996 L 1.731 1.011 L 1.709 1.027 L 1.689 1.045 L 1.67 1.064 L 1.653 1.085 L 1.638 1.108 L 1.629 1.124 L 1.621 1.14 L 1.613 1.157 L 1.605 1.173 L 1.598 1.19 L 1.591 1.207 L 1.584 1.224 L 1.578 1.242 L 1.572 1.259 L 1.567 1.277 L 1.562 1.294 L 1.558 1.312 L 1.554 1.33 L 1.55 1.348 L 1.547 1.366 L 1.544 1.384 L 1.542 1.403 L 1.54 1.421 L 1.539 1.439 L 1.538 1.458 L 1.537 1.476 L 1.537 1.494 Z M 1.692 1.556 L 1.692 1.543 L 1.692 1.53 L 1.692 1.518 L 1.692 1.506 L 1.692 1.493 L 1.692 1.481 L 1.692 1.468 L 1.693 1.456 L 1.694 1.444 L 1.696 1.431 L 1.697 1.419 L 1.699 1.407 L 1.702 1.394 L 1.704 1.382 L 1.707 1.37 L 1.71 1.358 L 1.713 1.346 L 1.716 1.334 L 1.72 1.322 L 1.724 1.31 L 1.729 1.299 L 1.733 1.287 L 1.738 1.276 L 1.743 1.264 L 1.748 1.253 L 1.754 1.242 L 1.761 1.228 L 1.77 1.214 L 1.78 1.202 L 1.791 1.19 L 1.803 1.18 L 1.817 1.171 L 1.83 1.163 L 1.845 1.156 L 1.86 1.151 L 1.876 1.147 L 1.892 1.145 L 1.908 1.144 L 1.924 1.145 L 1.94 1.147 L 1.955 1.151 L 1.97 1.156 L 1.985 1.163 L 1.999 1.171 L 2.012 1.18 L 2.024 1.19 L 2.035 1.202 L 2.045 1.214 L 2.054 1.228 L 2.062 1.242 L 2.067 1.253 L 2.072 1.264 L 2.077 1.276 L 2.082 1.287 L 2.086 1.299 L 2.09 1.311 L 2.094 1.322 L 2.098 1.334 L 2.101 1.346 L 2.104 1.358 L 2.107 1.37 L 2.11 1.383 L 2.112 1.395 L 2.114 1.407 L 2.116 1.419 L 2.117 1.432 L 2.118 1.444 L 2.119 1.457 L 2.12 1.469 L 2.12 1.481 L 2.121 1.494 L 2.12 1.506 L 2.12 1.519 L 2.119 1.531 L 2.119 1.538 L 2.119 1.545 L 2.119 1.552 L 2.119 1.559 L 2.119 1.566 L 2.119 1.573 L 2.119 1.58 L 2.118 1.587 L 2.118 1.593 L 2.117 1.6 L 2.117 1.607 L 2.116 1.614 L 2.115 1.621 L 2.115 1.628 L 2.114 1.635 L 2.113 1.642 L 2.112 1.649 L 2.111 1.656 L 2.11 1.662 L 2.109 1.669 L 2.108 1.676 L 2.107 1.683 L 2.106 1.69 L 2.105 1.697 L 1.99 1.615 L 1.896 1.779 L 2.019 1.868 L 2.015 1.872 L 2.012 1.876 L 2.008 1.88 L 2.004 1.883 L 1.999 1.887 L 1.995 1.89 L 1.991 1.894 L 1.986 1.897 L 1.981 1.9 L 1.976 1.902 L 1.972 1.905 L 1.967 1.907 L 1.961 1.909 L 1.956 1.911 L 1.951 1.913 L 1.946 1.915 L 1.94 1.916 L 1.935 1.917 L 1.93 1.918 L 1.924 1.919 L 1.919 1.919 L 1.913 1.92 L 1.908 1.92 L 1.902 1.92 L 1.894 1.919 L 1.887 1.919 L 1.879 1.917 L 1.871 1.916 L 1.864 1.914 L 1.857 1.912 L 1.849 1.909 L 1.842 1.906 L 1.835 1.903 L 1.828 1.899 L 1.821 1.896 L 1.815 1.892 L 1.808 1.887 L 1.802 1.883 L 1.796 1.878 L 1.79 1.872 L 1.785 1.867 L 1.78 1.861 L 1.775 1.855 L 1.77 1.849 L 1.765 1.843 L 1.761 1.836 L 1.757 1.83 L 1.754 1.823 L 1.748 1.811 L 1.743 1.8 L 1.738 1.789 L 1.733 1.777 L 1.729 1.765 L 1.724 1.753 L 1.72 1.741 L 1.716 1.729 L 1.713 1.717 L 1.71 1.705 L 1.707 1.693 L 1.704 1.681 L 1.702 1.668 L 1.699 1.656 L 1.697 1.643 L 1.696 1.631 L 1.694 1.618 L 1.693 1.606 L 1.692 1.593 L 1.692 1.581 L 1.692 1.568 L 1.692 1.556 Z M 1.537 -1.583 L 1.538 -1.564 L 1.538 -1.546 L 1.538 -1.527 L 1.538 -1.509 L 1.538 -1.49 L 1.539 -1.472 L 1.54 -1.453 L 1.542 -1.435 L 1.544 -1.416 L 1.546 -1.398 L 1.549 -1.38 L 1.553 -1.362 L 1.557 -1.344 L 1.561 -1.325 L 1.566 -1.308 L 1.571 -1.29 L 1.576 -1.272 L 1.582 -1.255 L 1.589 -1.237 L 1.595 -1.22 L 1.603 -1.203 L 1.61 -1.186 L 1.618 -1.169 L 1.627 -1.153 L 1.636 -1.137 L 1.645 -1.121 L 1.652 -1.109 L 1.66 -1.098 L 1.668 -1.087 L 1.677 -1.076 L 1.686 -1.066 L 1.696 -1.056 L 1.706 -1.047 L 1.717 -1.038 L 1.728 -1.03 L 1.739 -1.022 L 1.75 -1.015 L 1.762 -1.008 L 1.775 -1.001 L 1.787 -0.996 L 1.8 -0.99 L 1.813 -0.986 L 1.826 -0.982 L 1.839 -0.978 L 1.852 -0.975 L 1.866 -0.973 L 1.879 -0.971 L 1.893 -0.97 L 1.907 -0.969 L 1.921 -0.969 L 1.933 -0.97 L 1.945 -0.971 L 1.958 -0.972 L 1.97 -0.975 L 1.982 -0.977 L 1.994 -0.98 L 2.006 -0.984 L 2.018 -0.988 L 2.029 -0.993 L 2.04 -0.998 L 2.051 -1.003 L 2.062 -1.009 L 2.073 -1.016 L 2.083 -1.023 L 2.093 -1.03 L 2.103 -1.038 L 2.112 -1.046 L 2.121 -1.055 L 2.13 -1.064 L 2.138 -1.073 L 2.146 -1.083 L 2.153 -1.092 L 2.16 -1.103 L 2.167 -1.113 L 2.29 -1.025 L 2.374 -1.219 L 2.25 -1.298 L 2.251 -1.3 L 2.252 -1.303 L 2.255 -1.31 L 2.257 -1.319 L 2.26 -1.332 L 2.264 -1.349 L 2.267 -1.37 L 2.27 -1.395 L 2.273 -1.425 L 2.275 -1.46 L 2.276 -1.5 L 2.277 -1.546 L 2.278 -1.564 L 2.278 -1.583 L 2.278 -1.601 L 2.278 -1.619 L 2.277 -1.638 L 2.276 -1.656 L 2.274 -1.674 L 2.272 -1.692 L 2.269 -1.711 L 2.266 -1.729 L 2.262 -1.747 L 2.259 -1.765 L 2.254 -1.782 L 2.249 -1.8 L 2.244 -1.818 L 2.239 -1.835 L 2.233 -1.853 L 2.226 -1.87 L 2.219 -1.887 L 2.212 -1.904 L 2.204 -1.92 L 2.196 -1.937 L 2.188 -1.953 L 2.179 -1.969 L 2.164 -1.992 L 2.147 -2.013 L 2.129 -2.032 L 2.108 -2.05 L 2.087 -2.066 L 2.064 -2.08 L 2.04 -2.093 L 2.015 -2.103 L 1.989 -2.111 L 1.962 -2.116 L 1.936 -2.12 L 1.909 -2.121 L 1.882 -2.12 L 1.855 -2.116 L 1.828 -2.111 L 1.803 -2.103 L 1.778 -2.093 L 1.754 -2.08 L 1.731 -2.066 L 1.709 -2.05 L 1.689 -2.032 L 1.67 -2.013 L 1.653 -1.992 L 1.638 -1.969 L 1.629 -1.953 L 1.621 -1.937 L 1.613 -1.92 L 1.605 -1.904 L 1.598 -1.887 L 1.591 -1.87 L 1.584 -1.853 L 1.578 -1.835 L 1.572 -1.818 L 1.567 -1.8 L 1.562 -1.783 L 1.558 -1.765 L 1.554 -1.747 L 1.55 -1.729 L 1.547 -1.711 L 1.544 -1.692 L 1.542 -1.674 L 1.54 -1.656 L 1.539 -1.638 L 1.538 -1.619 L 1.537 -1.601 L 1.537 -1.583 Z M 1.692 -1.521 L 1.692 -1.534 L 1.692 -1.546 L 1.692 -1.559 L 1.692 -1.571 L 1.692 -1.584 L 1.692 -1.596 L 1.692 -1.609 L 1.693 -1.621 L 1.694 -1.633 L 1.696 -1.646 L 1.697 -1.658 L 1.699 -1.67 L 1.702 -1.683 L 1.704 -1.695 L 1.707 -1.707 L 1.71 -1.719 L 1.713 -1.731 L 1.716 -1.743 L 1.72 -1.755 L 1.724 -1.767 L 1.729 -1.778 L 1.733 -1.79 L 1.738 -1.801 L 1.743 -1.813 L 1.748 -1.824 L 1.754 -1.835 L 1.761 -1.849 L 1.77 -1.863 L 1.78 -1.875 L 1.791 -1.887 L 1.803 -1.897 L 1.817 -1.906 L 1.83 -1.914 L 1.845 -1.921 L 1.86 -1.926 L 1.876 -1.93 L 1.892 -1.932 L 1.908 -1.933 L 1.924 -1.932 L 1.94 -1.93 L 1.955 -1.926 L 1.97 -1.921 L 1.985 -1.914 L 1.999 -1.906 L 2.012 -1.897 L 2.024 -1.887 L 2.035 -1.875 L 2.045 -1.863 L 2.054 -1.849 L 2.062 -1.835 L 2.067 -1.824 L 2.072 -1.813 L 2.077 -1.801 L 2.082 -1.79 L 2.086 -1.778 L 2.09 -1.766 L 2.094 -1.754 L 2.098 -1.743 L 2.101 -1.731 L 2.104 -1.719 L 2.107 -1.706 L 2.11 -1.694 L 2.112 -1.682 L 2.114 -1.67 L 2.116 -1.657 L 2.117 -1.645 L 2.118 -1.633 L 2.119 -1.62 L 2.12 -1.608 L 2.12 -1.596 L 2.121 -1.583 L 2.12 -1.571 L 2.12 -1.558 L 2.119 -1.546 L 2.119 -1.539 L 2.119 -1.532 L 2.119 -1.525 L 2.119 -1.518 L 2.119 -1.511 L 2.119 -1.504 L 2.119 -1.497 L 2.118 -1.49 L 2.118 -1.483 L 2.117 -1.477 L 2.117 -1.47 L 2.116 -1.463 L 2.115 -1.456 L 2.115 -1.449 L 2.114 -1.442 L 2.113 -1.435 L 2.112 -1.428 L 2.111 -1.421 L 2.11 -1.415 L 2.109 -1.408 L 2.108 -1.401 L 2.107 -1.394 L 2.106 -1.387 L 2.105 -1.38 L 1.99 -1.462 L 1.896 -1.298 L 2.019 -1.209 L 2.015 -1.205 L 2.012 -1.201 L 2.008 -1.197 L 2.004 -1.194 L 1.999 -1.19 L 1.995 -1.187 L 1.991 -1.183 L 1.986 -1.18 L 1.981 -1.177 L 1.976 -1.175 L 1.972 -1.172 L 1.967 -1.17 L 1.961 -1.168 L 1.956 -1.166 L 1.951 -1.164 L 1.946 -1.162 L 1.94 -1.161 L 1.935 -1.16 L 1.93 -1.159 L 1.924 -1.158 L 1.919 -1.157 L 1.913 -1.157 L 1.908 -1.157 L 1.902 -1.157 L 1.894 -1.157 L 1.887 -1.158 L 1.879 -1.16 L 1.871 -1.161 L 1.864 -1.163 L 1.857 -1.165 L 1.849 -1.168 L 1.842 -1.171 L 1.835 -1.174 L 1.828 -1.177 L 1.821 -1.181 L 1.815 -1.185 L 1.808 -1.19 L 1.802 -1.194 L 1.796 -1.199 L 1.79 -1.205 L 1.785 -1.21 L 1.78 -1.216 L 1.775 -1.222 L 1.77 -1.228 L 1.765 -1.234 L 1.761 -1.241 L 1.757 -1.247 L 1.754 -1.254 L 1.748 -1.265 L 1.743 -1.277 L 1.738 -1.288 L 1.733 -1.3 L 1.729 -1.312 L 1.724 -1.324 L 1.72 -1.336 L 1.716 -1.348 L 1.713 -1.36 L 1.71 -1.372 L 1.707 -1.384 L 1.704 -1.396 L 1.702 -1.409 L 1.699 -1.421 L 1.697 -1.433 L 1.696 -1.446 L 1.694 -1.458 L 1.693 -1.471 L 1.692 -1.484 L 1.692 -1.496 L 1.692 -1.509 L 1.692 -1.521 Z M -2.306 -1.414 L -2.305 -1.382 L -2.303 -1.35 L -2.299 -1.316 L -2.294 -1.282 L -2.288 -1.248 L -2.28 -1.215 L -2.272 -1.183 L -2.261 -1.153 L -2.25 -1.125 L -2.238 -1.101 L -2.224 -1.079 L -2.209 -1.062 L -2.2 -1.053 L -2.19 -1.046 L -2.18 -1.038 L -2.17 -1.031 L -2.16 -1.024 L -2.149 -1.018 L -2.138 -1.012 L -2.127 -1.006 L -2.116 -1.001 L -2.105 -0.996 L -2.093 -0.991 L -2.081 -0.987 L -2.07 -0.983 L -2.058 -0.98 L -2.046 -0.977 L -2.034 -0.974 L -2.021 -0.972 L -2.009 -0.97 L -1.997 -0.968 L -1.984 -0.967 L -1.972 -0.967 L -1.96 -0.967 L -1.947 -0.967 L -1.935 -0.967 L -1.924 -0.967 L -1.913 -0.967 L -1.903 -0.967 L -1.892 -0.968 L -1.881 -0.968 L -1.871 -0.969 L -1.86 -0.97 L -1.849 -0.972 L -1.839 -0.974 L -1.828 -0.976 L -1.818 -0.978 L -1.807 -0.98 L -1.797 -0.983 L -1.787 -0.986 L -1.776 -0.989 L -1.766 -0.993 L -1.756 -0.996 L -1.746 -1 L -1.736 -1.004 L -1.727 -1.009 L -1.717 -1.014 L -1.707 -1.018 L -1.698 -1.024 L -1.689 -1.029 L -1.681 -1.034 L -1.674 -1.039 L -1.667 -1.044 L -1.66 -1.049 L -1.654 -1.055 L -1.647 -1.06 L -1.641 -1.066 L -1.635 -1.072 L -1.628 -1.078 L -1.623 -1.085 L -1.617 -1.091 L -1.611 -1.098 L -1.606 -1.105 L -1.601 -1.112 L -1.596 -1.119 L -1.591 -1.126 L -1.587 -1.134 L -1.582 -1.141 L -1.578 -1.149 L -1.574 -1.156 L -1.57 -1.164 L -1.567 -1.172 L -1.564 -1.18 L -1.561 -1.188 L -1.558 -1.197 L -1.556 -1.206 L -1.554 -1.215 L -1.552 -1.224 L -1.55 -1.233 L -1.548 -1.242 L -1.546 -1.25 L -1.544 -1.259 L -1.543 -1.268 L -1.542 -1.278 L -1.54 -1.287 L -1.539 -1.296 L -1.538 -1.305 L -1.537 -1.314 L -1.537 -1.323 L -1.536 -1.332 L -1.535 -1.341 L -1.535 -1.35 L -1.535 -1.359 L -1.534 -1.368 L -1.534 -1.378 L -1.534 -1.387 L -1.534 -1.396 L -1.535 -1.405 L -1.535 -2.123 L -1.777 -2.123 L -1.778 -1.391 L -1.778 -1.383 L -1.777 -1.376 L -1.777 -1.368 L -1.776 -1.36 L -1.776 -1.352 L -1.777 -1.344 L -1.777 -1.336 L -1.778 -1.328 L -1.778 -1.32 L -1.779 -1.312 L -1.78 -1.304 L -1.782 -1.297 L -1.783 -1.289 L -1.785 -1.281 L -1.787 -1.273 L -1.789 -1.266 L -1.791 -1.258 L -1.794 -1.251 L -1.796 -1.243 L -1.799 -1.236 L -1.802 -1.228 L -1.805 -1.221 L -1.809 -1.214 L -1.812 -1.207 L -1.816 -1.203 L -1.82 -1.199 L -1.824 -1.196 L -1.828 -1.192 L -1.832 -1.189 L -1.836 -1.186 L -1.841 -1.183 L -1.845 -1.18 L -1.85 -1.178 L -1.855 -1.175 L -1.859 -1.173 L -1.864 -1.171 L -1.869 -1.17 L -1.874 -1.168 L -1.879 -1.167 L -1.885 -1.165 L -1.89 -1.164 L -1.895 -1.164 L -1.9 -1.163 L -1.906 -1.163 L -1.911 -1.162 L -1.916 -1.162 L -1.921 -1.163 L -1.927 -1.163 L -1.933 -1.163 L -1.939 -1.163 L -1.944 -1.163 L -1.95 -1.164 L -1.956 -1.165 L -1.962 -1.166 L -1.968 -1.167 L -1.973 -1.169 L -1.979 -1.171 L -1.984 -1.173 L -1.99 -1.175 L -1.995 -1.177 L -2 -1.18 L -2.005 -1.183 L -2.01 -1.187 L -2.015 -1.19 L -2.02 -1.194 L -2.024 -1.198 L -2.028 -1.202 L -2.032 -1.206 L -2.036 -1.21 L -2.04 -1.215 L -2.043 -1.22 L -2.047 -1.225 L -2.049 -1.232 L -2.052 -1.24 L -2.054 -1.248 L -2.056 -1.255 L -2.058 -1.263 L -2.06 -1.271 L -2.062 -1.279 L -2.064 -1.286 L -2.065 -1.294 L -2.067 -1.302 L -2.068 -1.31 L -2.07 -1.318 L -2.071 -1.326 L -2.072 -1.334 L -2.073 -1.342 L -2.074 -1.35 L -2.075 -1.358 L -2.075 -1.366 L -2.076 -1.374 L -2.076 -1.382 L -2.077 -1.39 L -2.077 -1.398 L -2.077 -1.406 L -2.077 -1.414 L -2.306 -1.414 Z M -2.304 2.092 L -2.132 2.092 L -2.132 1.749 L -1.992 1.559 L -1.758 2.092 L -1.535 2.092 L -1.874 1.396 L -1.553 0.954 L -1.785 0.954 L -2.132 1.458 L -2.132 0.954 L -2.304 0.954 L -2.304 2.092 Z" /></svg>