<svg version="1.1" xmlns="http://www.w3.org/2000/svg" viewBox="-8.500000812500005 -5.0000009000000025 48.25000178125 57.25000186874999" fill="black" stroke="none">
    <path fill-rule="evenodd" d="M 0.11674 -0.53071 L -0.42754 -2.56465 L -0.91055 -2.56465 L -2.00781 1.53301 L -3.10449 -2.56758 L -3.57715 -2.59824 L -4.54238 -0.25605 L -7.5 -0.25605 L -7.5 0.24395 L -4.375 0.24395 L -4.14395 0.08926 L -3.39648 -1.72441 L -2.30138 2.37103 L -3.24219 3.5 L -6.25 3.5 L -6.25 4 L -3.00781 4 L -1.81169 2.56465 L -1.7666 2.56465 L -1.74525 2.48493 L -0.11678 0.53076 M -1.43694 1.3337 L -0.66914 -1.5332 L -0.27503 -0.06058 M -0.27503 -0.06058 L -1.43694 1.3337 M -0.11678 0.53076 L 0.42754 2.56465 L 0.91035 2.56505 L 2.00801 -1.50194 L 3.10469 2.56505 L 3.57715 2.59513 L 4.54238 0.25 L 7.5 0.25 L 7.5 -0.25 L 4.375 -0.25 L 4.14375 -0.09512 L 3.39531 1.72324 L 2.29392 -2.36208 L 3.24219 -3.5 L 6.25 -3.5 L 6.25 -4 L 3.00781 -4 L 1.78044 -2.52715 L 1.7666 -2.52715 L 1.75998 -2.50259 L 0.11674 -0.53071 M 0.27498 0.06065 L 1.44815 -1.34716 M 1.44815 -1.34716 L 0.66992 1.53652 L 0.27498 0.06065 M 38.75 48.75 L 37.817 51.25 L 37.182 51.25 L 36.25 48.75 L 36.838 48.75 L 37.35 50.238 L 37.35237 50.24471 L 37.355 50.25233 L 37.35786 50.26087 L 37.36096 50.27033 L 37.3643 50.28071 L 37.36788 50.292 L 37.37168 50.30421 L 37.3757 50.31733 L 37.37995 50.33137 L 37.38442 50.34633 L 37.3891 50.36221 L 37.394 50.379 L 37.455 50.598 L 37.46009 50.61696 L 37.46485 50.63534 L 37.4693 50.65314 L 37.47344 50.67037 L 37.4773 50.68703 L 37.48088 50.70312 L 37.48418 50.71866 L 37.48722 50.73363 L 37.49002 50.74805 L 37.49257 50.76191 L 37.49489 50.77523 L 37.497 50.788 L 37.49889 50.77523 L 37.50107 50.76191 L 37.50353 50.74805 L 37.50626 50.73363 L 37.50925 50.71866 L 37.5125 50.70312 L 37.516 50.68703 L 37.51974 50.67037 L 37.52372 50.65314 L 37.52793 50.63534 L 37.53236 50.61696 L 37.537 50.598 L 37.54177 50.57885 L 37.54658 50.55991 L 37.55142 50.54116 L 37.5563 50.52259 L 37.5612 50.50421 L 37.56612 50.486 L 37.57107 50.46796 L 37.57604 50.45007 L 37.58102 50.43234 L 37.586 50.41476 L 37.591 50.39731 L 37.596 50.38 L 37.60086 50.36321 L 37.60543 50.34733 L 37.60973 50.33236 L 37.61378 50.3183 L 37.61757 50.30514 L 37.62112 50.29287 L 37.62445 50.28151 L 37.62756 50.27104 L 37.63045 50.26145 L 37.63315 50.25275 L 37.63566 50.24494 L 37.638 50.238 L 38.158 48.75 L 38.75 48.75 Z" />
</svg>