<svg version="1.1" xmlns="http://www.w3.org/2000/svg" viewBox="-10.614422324325005 -5.000000871807716 21.22884464865001 10.000001743615432" fill="black" stroke="none">
    <path d="M 5.5979 -3.69329 L 1.53831 -1.31147 L 1.53831 -4 L 0.89735 -4 L 0.89735 -0.93515 L -0.89735 0.11768 L -0.89735 -4 L -1.53831 -4 L -1.53831 -0.35028 L -9.61442 -0.35028 L -9.61442 0.29069 L -1.53831 0.29069 L -1.53831 0.49374 L -6.57186 3.44717 L -6.24737 4 L -1.53831 1.23711 L -1.53831 3.94792 L -0.89735 3.94792 L -0.89735 0.86104 L 0.89735 -0.19204 L 0.89735 3.94792 L 1.53831 3.94792 L 1.53831 0.32649 L 9.61442 0.32649 L 9.61442 -0.31447 L 1.53831 -0.31447 L 1.53831 -0.5681 L 5.92789 -3.14372 L 6.9359 -1.46345 L 7.48573 -1.79344 L 5.5979 -3.69329 Z" />
</svg>