<svg version="1.1" xmlns="http://www.w3.org/2000/svg" viewBox="-4.4 -5 8.8 10" fill="black" stroke="none"><path fill-rule="evenodd" d="M -2.191 0.133 L -2.174 0.38 L -2.1 0.744 L -1.98 1.089 L -1.817 1.413 L -1.616 1.71 L -1.379 1.979 L -1.11 2.216 L -0.813 2.417 L -0.489 2.58 L -0.144 2.7 L 0.22 2.774 L 0.6 2.8 L 0.98 2.774 L 1.344 2.7 L 1.689 2.58 L 1.782 2.533 L 1.782 4 L 2.049 4 L 2.049 2.393 L 2.31 2.216 L 2.579 1.979 L 2.816 1.71 L 3.017 1.413 L 3.18 1.089 L 3.3 0.744 L 3.374 0.38 L 3.4 0 L 3.374 -0.38 L 3.3 -0.744 L 3.18 -1.089 L 3.017 -1.413 L 2.816 -1.71 L 2.579 -1.979 L 2.31 -2.216 L 2.049 -2.393 L 2.049 -4 L 1.782 -4 L 1.782 -2.533 L 1.689 -2.58 L 1.344 -2.7 L 0.98 -2.774 L 0.6 -2.8 L 0.22 -2.774 L -0.144 -2.7 L -0.489 -2.58 L -0.813 -2.417 L -1.11 -2.216 L -1.379 -1.979 L -1.616 -1.71 L -1.817 -1.413 L -1.98 -1.089 L -2.1 -0.744 L -2.174 -0.38 L -2.191 -0.133 L -3.4 -0.133 L -3.4 0.133 L -2.191 0.133 Z M 2.049 -2.074 L 2.149 -2.006 L 2.392 -1.792 L 2.606 -1.549 L 2.788 -1.279 L 2.934 -0.987 L 3.043 -0.674 L 3.11 -0.344 L 3.133 0 L 3.11 0.344 L 3.043 0.674 L 2.934 0.987 L 2.788 1.279 L 2.606 1.549 L 2.392 1.792 L 2.149 2.006 L 2.049 2.074 L 2.049 0.867 L 0.067 0.867 L 0.067 -0.867 L 2.049 -0.867 L 2.049 -2.074 Z M -1.846 0.133 L -1.83 0.181 L -1.803 0.235 L -1.769 0.284 L -1.729 0.329 L -1.684 0.369 L -1.635 0.403 L -1.581 0.43 L -1.524 0.45 L -1.463 0.462 L -1.4 0.467 L -1.337 0.462 L -1.276 0.45 L -1.219 0.43 L -1.165 0.403 L -1.116 0.369 L -1.071 0.329 L -1.031 0.284 L -0.997 0.235 L -0.97 0.181 L -0.95 0.124 L -0.938 0.063 L -0.933 0 L -0.938 -0.063 L -0.95 -0.124 L -0.97 -0.181 L -0.997 -0.235 L -1.031 -0.284 L -1.071 -0.329 L -1.116 -0.369 L -1.165 -0.403 L -1.219 -0.43 L -1.276 -0.45 L -1.337 -0.462 L -1.4 -0.467 L -1.463 -0.462 L -1.524 -0.45 L -1.581 -0.43 L -1.635 -0.403 L -1.684 -0.369 L -1.729 -0.329 L -1.769 -0.284 L -1.803 -0.235 L -1.83 -0.181 L -1.846 -0.133 L -1.924 -0.133 L -1.91 -0.344 L -1.843 -0.674 L -1.734 -0.987 L -1.588 -1.279 L -1.406 -1.549 L -1.192 -1.792 L -0.949 -2.006 L -0.679 -2.188 L -0.387 -2.334 L -0.074 -2.443 L 0.256 -2.51 L 0.6 -2.533 L 0.944 -2.51 L 1.274 -2.443 L 1.587 -2.334 L 1.782 -2.237 L 1.782 -1.133 L 0.067 -1.133 L 0.067 -1.667 L -0.2 -1.667 L -0.2 1.667 L 0.067 1.667 L 0.067 1.133 L 1.782 1.133 L 1.782 2.237 L 1.587 2.334 L 1.274 2.443 L 0.944 2.51 L 0.6 2.533 L 0.256 2.51 L -0.074 2.443 L -0.387 2.334 L -0.679 2.188 L -0.949 2.006 L -1.192 1.792 L -1.406 1.549 L -1.588 1.279 L -1.734 0.987 L -1.843 0.674 L -1.91 0.344 L -1.924 0.133 L -1.846 0.133 Z M -1.6 0 L -1.598 -0.027 L -1.593 -0.054 L -1.585 -0.079 L -1.573 -0.102 L -1.559 -0.123 L -1.542 -0.142 L -1.523 -0.159 L -1.502 -0.173 L -1.479 -0.185 L -1.454 -0.193 L -1.427 -0.198 L -1.4 -0.2 L -1.373 -0.198 L -1.346 -0.193 L -1.321 -0.185 L -1.298 -0.173 L -1.277 -0.159 L -1.258 -0.142 L -1.241 -0.123 L -1.227 -0.102 L -1.215 -0.079 L -1.207 -0.054 L -1.202 -0.027 L -1.2 0 L -1.202 0.027 L -1.207 0.054 L -1.215 0.079 L -1.227 0.102 L -1.241 0.123 L -1.258 0.142 L -1.277 0.159 L -1.298 0.173 L -1.321 0.185 L -1.346 0.193 L -1.373 0.198 L -1.4 0.2 L -1.427 0.198 L -1.454 0.193 L -1.479 0.185 L -1.502 0.173 L -1.523 0.159 L -1.542 0.142 L -1.559 0.123 L -1.573 0.102 L -1.585 0.079 L -1.593 0.054 L -1.598 0.027 L -1.6 0 Z M -0.867 1.333 L -0.6 1.333 L -0.6 -1.333 L -0.867 -1.333 L -0.867 1.333 Z" /></svg>