<svg version="1.1" xmlns="http://www.w3.org/2000/svg" viewBox="-5.212 -5 10.423 10" fill="black" stroke="none"><path fill-rule="evenodd" d="M -1.467 -3.719 L -0.881 -3.719 L -0.881 -4 L -1.467 -4 L -1.467 -3.719 Z M -2.641 -3.719 L -2.054 -3.719 L -2.054 -4 L -2.641 -4 L -2.641 -3.719 Z M -0.294 -3.719 L 0.292 -3.719 L 0.292 -4 L -0.294 -4 L -0.294 -3.719 Z M 0.879 -3.719 L 1.466 -3.719 L 1.466 -4 L 0.879 -4 L 0.879 -3.719 Z M 2.053 -3.719 L 2.639 -3.719 L 2.639 -4 L 2.053 -4 L 2.053 -3.719 Z M -3.649 -4 L -3.649 -3.579 L -3.368 -3.579 L -3.368 -3.719 L -3.227 -3.719 L -3.227 -4 L -3.649 -4 Z M -1.465 4 L -0.878 4 L -0.878 3.719 L -1.465 3.719 L -1.465 4 Z M -2.638 4 L -2.051 4 L -2.051 3.719 L -2.638 3.719 L -2.638 4 Z M -0.291 4 L 0.295 4 L 0.295 3.719 L -0.291 3.719 L -0.291 4 Z M 0.882 4 L 1.469 4 L 1.469 3.719 L 0.882 3.719 L 0.882 4 Z M 2.055 4 L 2.642 4 L 2.642 3.719 L 2.055 3.719 L 2.055 4 Z M 3.369 3.579 L 3.369 3.719 L 3.229 3.719 L 3.229 4 L 3.65 4 L 3.65 3.579 L 3.369 3.579 Z M -0.025 0.842 L -0.025 1.122 L 0.702 0.702 L -0.025 0.282 L -0.025 0.561 L -0.929 0.561 L -0.929 0.842 L -0.025 0.842 Z M -0.025 -0.561 L -0.025 -0.282 L 0.702 -0.702 L -0.025 -1.122 L -0.025 -0.842 L -0.929 -0.842 L -0.929 -0.561 L -0.025 -0.561 Z M 3.65 2.942 L 4.212 2.941 L 4.211 2.66 L 3.65 2.662 L 3.65 2.479 L 3.369 2.479 L 3.369 2.663 L 2.246 2.666 L 2.246 1.328 L 1.985 1.154 L 1.774 0.721 L 1.637 0.922 L 1.194 0.627 L 1.194 -0.627 L 2.246 -1.328 L 2.246 -2.667 L 3.369 -2.669 L 3.369 -2.478 L 3.65 -2.478 L 3.65 -2.669 L 4.211 -2.67 L 4.211 -2.951 L 3.65 -2.95 L 3.65 -3.028 L 3.369 -3.028 L 3.369 -2.949 L 1.966 -2.947 L 1.966 -1.479 L 1.194 -0.964 L 1.194 -1.404 L 0.913 -1.404 L 0.913 1.404 L 1.194 1.404 L 1.194 0.964 L 1.479 1.154 L 1.343 1.354 L 1.826 1.386 L 1.966 1.479 L 1.966 2.948 L 3.369 2.943 L 3.369 3.03 L 3.65 3.03 L 3.65 2.942 Z M 3.369 -1.376 L 3.65 -1.376 L 3.65 -1.927 L 3.369 -1.927 L 3.369 -1.376 Z M 3.369 -0.275 L 3.65 -0.275 L 3.65 -0.825 L 3.369 -0.825 L 3.369 -0.275 Z M 3.369 0.827 L 3.65 0.827 L 3.65 0.276 L 3.369 0.276 L 3.369 0.827 Z M 3.369 1.928 L 3.65 1.928 L 3.65 1.378 L 3.369 1.378 L 3.369 1.928 Z M -3.368 2.656 L -3.368 2.478 L -3.649 2.478 L -3.649 2.654 L -4.209 2.649 L -4.211 2.93 L -3.649 2.935 L -3.649 3.028 L -3.368 3.028 L -3.368 2.937 L -1.964 2.949 L -1.964 0.842 L -1.234 0.842 L -1.234 0.561 L -1.878 0.561 L -1.176 -0.842 L -1.964 -0.842 L -1.964 -2.946 L -3.368 -2.962 L -3.368 -3.03 L -3.649 -3.03 L -3.649 -2.965 L -4.208 -2.972 L -4.212 -2.691 L -3.649 -2.685 L -3.649 -2.479 L -3.368 -2.479 L -3.368 -2.681 L -2.245 -2.668 L -2.245 -0.842 L -3.034 -0.842 L -2.932 -0.639 L -2.332 0.561 L -2.975 0.561 L -2.975 0.842 L -2.245 0.842 L -2.245 2.665 L -3.368 2.656 Z M -2.579 -0.561 L -1.63 -0.561 L -2.105 0.388 L -2.579 -0.561 Z M -3.649 -1.378 L -3.368 -1.378 L -3.368 -1.928 L -3.649 -1.928 L -3.649 -1.378 Z M -3.649 -0.276 L -3.368 -0.276 L -3.368 -0.827 L -3.649 -0.827 L -3.649 -0.276 Z M -3.649 0.825 L -3.368 0.825 L -3.368 0.275 L -3.649 0.275 L -3.649 0.825 Z M -3.649 1.927 L -3.368 1.927 L -3.368 1.376 L -3.649 1.376 L -3.649 1.927 Z M -3.649 3.579 L -3.649 4 L -3.227 4 L -3.227 3.719 L -3.368 3.719 L -3.368 3.579 L -3.649 3.579 Z M 3.229 -4 L 3.229 -3.719 L 3.369 -3.719 L 3.369 -3.579 L 3.65 -3.579 L 3.65 -4 L 3.229 -4 Z" /></svg>