<svg version="1.1" xmlns="http://www.w3.org/2000/svg" viewBox="-6.942 -5 13.883 10" fill="black" stroke="none"><path fill-rule="evenodd" d="M -0.198 1.665 L -0.198 4 L 0.198 4 L 0.198 1.665 L 0.79 1.665 L 0 0.296 L -0.79 1.665 L -0.198 1.665 Z M -2.834 -4 L -3.599 -2.144 L -5.942 -2.144 L -5.942 -1.748 L -3.466 -1.748 L -3.283 -1.871 L -2.691 -3.308 L -1.782 0.09 L -1.4 0.09 L -0.53 -3.156 L 0.339 0.09 L 0.721 0.09 L 1.591 -3.131 L 2.46 0.09 L 2.834 0.114 L 3.599 -1.744 L 5.942 -1.744 L 5.942 -2.14 L 3.466 -2.14 L 3.283 -2.017 L 2.69 -0.576 L 1.782 -3.944 L 1.4 -3.944 L 0.531 -0.724 L -0.339 -3.973 L -0.721 -3.973 L -1.591 -0.727 L -2.459 -3.976 L -2.834 -4 Z" /></svg>