<svg version="1.1" xmlns="http://www.w3.org/2000/svg" viewBox="-6.753286207862548 -5.000000923289523 13.506572415725095 10.00000184657906" fill="black" stroke="none">
    <path fill-rule="evenodd" d="M -1.60089 0.86018 L -2.48665 1.91495 L -4.7944 1.91495 L -4.7944 2.2985 L -2.30776 2.2985 L -1.09996 0.86018 L 4.0273 0.86018 L 4.0273 -0.57814 L 5.75329 -0.57814 L 5.75329 -0.9617 L 4.0273 -0.9617 L 4.0273 -2.40002 L 1.6377 -2.40002 L 2.77416 -3.75339 L 2.48051 -4 L 1.1369 -2.40002 L -4.0273 -2.40002 L -4.0273 -2.20824 L -4.0273 -0.9617 L -5.75329 -0.9617 L -5.75329 -0.57814 L -4.0273 -0.57814 L -4.0273 0.86018 L -1.60089 0.86018 Z M 1.31563 -2.01646 L 3.64375 -2.01646 L 3.64375 0.47663 L -0.77788 0.47663 L 1.31563 -2.01646 Z M -1.2788 0.47663 L -3.64375 0.47663 L -3.64375 -2.01646 L 0.81481 -2.01646 L -1.2788 0.47663 Z" />
    <path d="M 2.78766 2.51789 L 2.78766 2.82473 L 2.53145 2.82473 L 2.53145 3.40773 L 2.53119 3.41637 L 2.53099 3.42501 L 2.53083 3.43365 L 2.53072 3.44229 L 2.53066 3.45093 L 2.53064 3.45957 L 2.53067 3.46821 L 2.53075 3.47685 L 2.53087 3.48549 L 2.53104 3.49413 L 2.53126 3.50277 L 2.53152 3.5114 L 2.53183 3.52004 L 2.53219 3.52867 L 2.5326 3.5373 L 2.53305 3.54593 L 2.53355 3.55456 L 2.53409 3.56318 L 2.53469 3.5718 L 2.53533 3.58042 L 2.53601 3.58903 L 2.53674 3.59764 L 2.53752 3.60625 L 2.53835 3.61485 L 2.53904 3.61726 L 2.5398 3.61964 L 2.54063 3.62201 L 2.54153 3.62435 L 2.54249 3.62666 L 2.54352 3.62894 L 2.54462 3.6312 L 2.54578 3.63342 L 2.547 3.63561 L 2.54828 3.63776 L 2.54963 3.63987 L 2.55103 3.64194 L 2.55249 3.64398 L 2.55402 3.64597 L 2.55559 3.64791 L 2.55723 3.64981 L 2.55891 3.65167 L 2.56065 3.65347 L 2.56244 3.65522 L 2.56428 3.65692 L 2.56617 3.65857 L 2.5681 3.66016 L 2.57008 3.6617 L 2.5721 3.66318 L 2.5744 3.66475 L 2.57675 3.66626 L 2.57913 3.6677 L 2.58155 3.66909 L 2.584 3.67041 L 2.58649 3.67166 L 2.58901 3.67285 L 2.59156 3.67397 L 2.59414 3.67502 L 2.59674 3.67601 L 2.59937 3.67693 L 2.60203 3.67778 L 2.6047 3.67855 L 2.6074 3.67926 L 2.61011 3.67989 L 2.61284 3.68046 L 2.61558 3.68095 L 2.61833 3.68137 L 2.6211 3.68172 L 2.62387 3.68199 L 2.62665 3.68219 L 2.62943 3.68232 L 2.63222 3.68237 L 2.635 3.68236 L 2.64303 3.68155 L 2.65104 3.68066 L 2.65905 3.67967 L 2.66704 3.6786 L 2.67502 3.67744 L 2.68299 3.67618 L 2.69094 3.67484 L 2.69887 3.67341 L 2.70679 3.67189 L 2.7147 3.67029 L 2.72258 3.66859 L 2.73044 3.66681 L 2.73829 3.66494 L 2.74611 3.66298 L 2.75391 3.66093 L 2.76169 3.6588 L 2.76944 3.65658 L 2.77717 3.65427 L 2.78487 3.65188 L 2.79254 3.6494 L 2.80019 3.64684 L 2.8078 3.64419 L 2.81539 3.64145 L 2.82295 3.63863 L 2.82295 3.93627 L 2.81106 3.94136 L 2.79909 3.94625 L 2.78704 3.95093 L 2.77491 3.95541 L 2.76271 3.95968 L 2.75043 3.96374 L 2.73809 3.96759 L 2.72568 3.97122 L 2.71322 3.97465 L 2.70069 3.97786 L 2.68812 3.98085 L 2.67549 3.98363 L 2.66282 3.9862 L 2.6501 3.98854 L 2.63735 3.99067 L 2.62456 3.99258 L 2.61174 3.99427 L 2.5989 3.99574 L 2.58603 3.99699 L 2.57314 3.99802 L 2.56024 3.99883 L 2.54732 3.99942 L 2.5344 3.99979 L 2.52147 3.99994 L 2.51367 4 L 2.50587 3.99993 L 2.49807 3.99972 L 2.49027 3.99938 L 2.48248 3.9989 L 2.4747 3.99829 L 2.46693 3.99754 L 2.45918 3.99666 L 2.45144 3.99565 L 2.44372 3.9945 L 2.43602 3.99322 L 2.42835 3.9918 L 2.4207 3.99026 L 2.41308 3.98858 L 2.40549 3.98677 L 2.39793 3.98483 L 2.39041 3.98275 L 2.38292 3.98055 L 2.37547 3.97822 L 2.36807 3.97576 L 2.36071 3.97317 L 2.35339 3.97046 L 2.34612 3.96762 L 2.3389 3.96465 L 2.33301 3.96237 L 2.32718 3.95994 L 2.3214 3.95738 L 2.31569 3.95469 L 2.31004 3.95185 L 2.30446 3.94889 L 2.29895 3.94579 L 2.29352 3.94256 L 2.28817 3.9392 L 2.2829 3.93572 L 2.27771 3.93211 L 2.27261 3.92838 L 2.26761 3.92453 L 2.26269 3.92056 L 2.25787 3.91647 L 2.25315 3.91228 L 2.24853 3.90797 L 2.24401 3.90355 L 2.2396 3.89902 L 2.2353 3.8944 L 2.23111 3.88967 L 2.22704 3.88484 L 2.22308 3.87992 L 2.21923 3.8749 L 2.21575 3.86922 L 2.21236 3.86348 L 2.20908 3.85768 L 2.20591 3.85181 L 2.20285 3.84589 L 2.19989 3.83992 L 2.19705 3.83389 L 2.19432 3.82781 L 2.19169 3.82169 L 2.18919 3.81551 L 2.18679 3.80929 L 2.18451 3.80303 L 2.18234 3.79673 L 2.18029 3.79038 L 2.17836 3.78401 L 2.17655 3.77759 L 2.17485 3.77115 L 2.17327 3.76467 L 2.17181 3.75817 L 2.17047 3.75164 L 2.16924 3.74509 L 2.16814 3.73852 L 2.16716 3.73192 L 2.1663 3.72531 L 2.16509 3.71414 L 2.16394 3.70296 L 2.16285 3.69178 L 2.16183 3.68059 L 2.16087 3.66939 L 2.15997 3.65819 L 2.15914 3.64698 L 2.15837 3.63577 L 2.15767 3.62455 L 2.15703 3.61333 L 2.15645 3.60211 L 2.15594 3.59088 L 2.15549 3.57965 L 2.15511 3.56842 L 2.15479 3.55719 L 2.15454 3.54596 L 2.15434 3.53472 L 2.15422 3.52348 L 2.15415 3.51224 L 2.15415 3.50101 L 2.15422 3.48977 L 2.15435 3.47853 L 2.15454 3.46729 L 2.1548 3.45606 L 2.1548 2.82473 L 1.90089 2.82473 L 1.90089 2.51789 L 2.1548 2.51789 L 2.1548 1.98092 L 2.53145 1.98092 L 2.53145 2.51789 L 2.78766 2.51789 Z" />
    <path fill-rule="evenodd" d="M 2.96639 2.03615 L 2.96643 2.02197 L 2.96694 2.00779 L 2.96792 1.99364 L 2.96937 1.97954 L 2.9713 1.96549 L 2.97369 1.95151 L 2.97655 1.93761 L 2.97988 1.92383 L 2.98366 1.91016 L 2.9879 1.89662 L 2.99258 1.88324 L 2.99772 1.87002 L 3.00329 1.85697 L 3.00929 1.84412 L 3.01572 1.83148 L 3.02257 1.81906 L 3.02983 1.80688 L 3.03749 1.79495 L 3.04555 1.78327 L 3.054 1.77188 L 3.06282 1.76077 L 3.072 1.74997 L 3.08154 1.73947 L 3.09143 1.72931 L 3.10128 1.71934 L 3.11146 1.70971 L 3.12197 1.70043 L 3.13279 1.69152 L 3.14391 1.68299 L 3.15531 1.67484 L 3.16699 1.66709 L 3.17892 1.65975 L 3.1911 1.65281 L 3.20351 1.6463 L 3.21614 1.64022 L 3.22897 1.63457 L 3.24198 1.62937 L 3.25516 1.62462 L 3.2685 1.62032 L 3.28198 1.61648 L 3.29558 1.6131 L 3.30929 1.6102 L 3.32309 1.60776 L 3.33697 1.6058 L 3.35091 1.60431 L 3.36488 1.60331 L 3.37889 1.60278 L 3.3929 1.60274 L 3.40691 1.60276 L 3.42091 1.60328 L 3.43488 1.60428 L 3.4488 1.60576 L 3.46267 1.60773 L 3.47646 1.61017 L 3.49016 1.61309 L 3.50375 1.61648 L 3.51721 1.62034 L 3.53053 1.62467 L 3.5437 1.62945 L 3.55669 1.63469 L 3.56949 1.64038 L 3.58208 1.6465 L 3.59446 1.65306 L 3.6066 1.66004 L 3.61849 1.66744 L 3.63012 1.67524 L 3.64147 1.68344 L 3.65254 1.69204 L 3.66329 1.70101 L 3.67373 1.71034 L 3.68384 1.72004 L 3.69361 1.73007 L 3.71266 1.75098 L 3.73033 1.77307 L 3.74654 1.79625 L 3.76123 1.82042 L 3.77434 1.84549 L 3.78581 1.87134 L 3.7956 1.89788 L 3.80367 1.92499 L 3.80998 1.95257 L 3.8145 1.98049 L 3.81722 2.00864 L 3.81813 2.03692 L 3.81722 2.06519 L 3.8145 2.09334 L 3.80998 2.12126 L 3.80367 2.14884 L 3.7956 2.17595 L 3.78581 2.20249 L 3.77434 2.22834 L 3.76123 2.25341 L 3.74654 2.27758 L 3.73033 2.30076 L 3.71266 2.32285 L 3.69361 2.34376 L 3.67351 2.36327 L 3.65216 2.38139 L 3.62963 2.39803 L 3.60605 2.41314 L 3.5815 2.42663 L 3.55611 2.43844 L 3.52998 2.44853 L 3.50324 2.45685 L 3.476 2.46336 L 3.44838 2.46803 L 3.42051 2.47084 L 3.39252 2.47178 L 3.36453 2.47084 L 3.33666 2.46803 L 3.30905 2.46336 L 3.2818 2.45685 L 3.25506 2.44853 L 3.22893 2.43844 L 3.20354 2.42663 L 3.17899 2.41314 L 3.15541 2.39803 L 3.13289 2.38139 L 3.11153 2.36327 L 3.09143 2.34376 L 3.08151 2.33357 L 3.07194 2.32306 L 3.06273 2.31224 L 3.05388 2.30111 L 3.04542 2.28968 L 3.03734 2.27799 L 3.02966 2.26602 L 3.02239 2.25381 L 3.01552 2.24136 L 3.00909 2.22868 L 3.00308 2.2158 L 2.9975 2.20272 L 2.99237 2.18946 L 2.98769 2.17604 L 2.98346 2.16247 L 2.97969 2.14876 L 2.97638 2.13494 L 2.97353 2.12101 L 2.97116 2.10699 L 2.96925 2.0929 L 2.96782 2.07876 L 2.96687 2.06457 L 2.96639 2.05037 L 2.96639 2.03615 Z M 3.18809 2.03615 L 3.18811 2.04297 L 3.18836 2.04978 L 3.18884 2.05659 L 3.18955 2.06337 L 3.19048 2.07013 L 3.19165 2.07685 L 3.19304 2.08352 L 3.19465 2.09015 L 3.19648 2.09672 L 3.19854 2.10322 L 3.20081 2.10965 L 3.2033 2.116 L 3.206 2.12226 L 3.20891 2.12843 L 3.21203 2.13449 L 3.21535 2.14045 L 3.21886 2.1463 L 3.22258 2.15202 L 3.22648 2.15761 L 3.23057 2.16307 L 3.23484 2.16838 L 3.23929 2.17356 L 3.2439 2.17857 L 3.24869 2.18343 L 3.25836 2.19269 L 3.26863 2.20128 L 3.27944 2.20917 L 3.29075 2.21633 L 3.30252 2.22272 L 3.31468 2.22832 L 3.32718 2.23309 L 3.33997 2.23703 L 3.353 2.24011 L 3.3662 2.24232 L 3.37952 2.24366 L 3.3929 2.2441 L 3.40628 2.24366 L 3.4196 2.24232 L 3.43281 2.24011 L 3.44583 2.23703 L 3.45863 2.23309 L 3.47113 2.22832 L 3.48329 2.22272 L 3.49505 2.21633 L 3.50637 2.20917 L 3.51718 2.20128 L 3.52745 2.19269 L 3.53712 2.18343 L 3.54184 2.17854 L 3.5464 2.17349 L 3.55079 2.1683 L 3.55501 2.16296 L 3.55904 2.15748 L 3.56289 2.15187 L 3.56656 2.14614 L 3.57003 2.14029 L 3.5733 2.13433 L 3.57637 2.12826 L 3.57924 2.12209 L 3.58191 2.11583 L 3.58436 2.10949 L 3.58661 2.10307 L 3.58864 2.09658 L 3.59045 2.09002 L 3.59204 2.08341 L 3.59341 2.07674 L 3.59457 2.07004 L 3.59549 2.0633 L 3.5962 2.05653 L 3.59667 2.04975 L 3.59693 2.04295 L 3.59695 2.03615 L 3.59696 2.02934 L 3.59673 2.02254 L 3.59628 2.01575 L 3.5956 2.00898 L 3.59469 2.00223 L 3.59356 1.99552 L 3.5922 1.98885 L 3.59062 1.98223 L 3.58881 1.97566 L 3.58679 1.96917 L 3.58455 1.96274 L 3.58209 1.95639 L 3.57943 1.95013 L 3.57655 1.94396 L 3.57347 1.93789 L 3.57018 1.93193 L 3.5667 1.92608 L 3.56302 1.92035 L 3.55915 1.91475 L 3.5551 1.90928 L 3.55087 1.90396 L 3.54645 1.89877 L 3.54187 1.89374 L 3.53712 1.88887 L 3.5275 1.87952 L 3.51727 1.87084 L 3.50648 1.86286 L 3.49518 1.85563 L 3.48343 1.84916 L 3.47126 1.8435 L 3.45875 1.83867 L 3.44594 1.83468 L 3.43289 1.83156 L 3.41966 1.82933 L 3.40631 1.82798 L 3.3929 1.82753 L 3.3795 1.82798 L 3.36615 1.82933 L 3.35292 1.83156 L 3.33987 1.83468 L 3.32706 1.83867 L 3.31455 1.8435 L 3.30238 1.84916 L 3.29063 1.85563 L 3.27933 1.86286 L 3.26854 1.87084 L 3.25831 1.87952 L 3.24869 1.88887 L 3.24388 1.89371 L 3.23923 1.89871 L 3.23476 1.90386 L 3.23047 1.90917 L 3.22636 1.91462 L 3.22244 1.92021 L 3.21872 1.92592 L 3.21519 1.93176 L 3.21186 1.93772 L 3.20873 1.94379 L 3.20582 1.94996 L 3.20311 1.95622 L 3.20062 1.96258 L 3.19835 1.96901 L 3.1963 1.97552 L 3.19448 1.9821 L 3.19287 1.98873 L 3.1915 1.99541 L 3.19035 2.00214 L 3.18944 2.0089 L 3.18875 2.01569 L 3.1883 2.0225 L 3.18808 2.02932 L 3.18809 2.03615 Z" />
</svg>