<svg version="1.1" xmlns="http://www.w3.org/2000/svg" viewBox="-5.615385544378699 -5.00000093846154 11.230771088757399 10.00000187692308" fill="black" stroke="none">
    <path fill-rule="evenodd" d="M -3.23077 -4 L -3.23077 -3.84615 L -3.23077 -1.69231 L -4.61538 -1.69231 L -4.61538 -1.38462 L -3.23077 -1.38462 L -3.23077 1.38462 L -4.61538 1.38462 L -4.61538 1.69231 L -3.23077 1.69231 L -3.23077 4 L 3.23077 4 L 3.23077 1.69231 L 4.61538 1.69231 L 4.61538 1.38462 L 3.23077 1.38462 L 3.23077 -1.38462 L 4.61538 -1.38462 L 4.61538 -1.69231 L 3.23077 -1.69231 L 3.23077 -4 L -3.23077 -4 Z M -2.92308 -3.69231 L 2.92308 -3.69231 L 2.92308 3.69231 L -2.92308 3.69231 L -2.92308 -3.69231 Z" />
    <path d="M 1.76942 2.28725 L 1.77308 2.28645 L 1.77842 2.28507 L 1.78371 2.28349 L 1.78894 2.28171 L 1.79409 2.27974 L 1.79917 2.27758 L 1.80416 2.27523 L 1.80907 2.2727 L 1.81387 2.26999 L 1.81858 2.2671 L 1.82317 2.26404 L 1.82764 2.26081 L 1.83199 2.25742 L 1.83621 2.25386 L 1.8403 2.25015 L 1.84425 2.2463 L 1.84804 2.24229 L 1.85169 2.23815 L 1.72862 2.14954 L 1.82215 1.98585 L 1.93723 2.06708 L 1.93851 2.06026 L 1.93972 2.05343 L 1.94089 2.04659 L 1.94199 2.03974 L 1.94304 2.03289 L 1.94403 2.02602 L 1.94496 2.01915 L 1.94584 2.01227 L 1.94665 2.00538 L 1.94741 1.99848 L 1.94812 1.99158 L 1.94876 1.98468 L 1.94935 1.97777 L 1.94988 1.97085 L 1.95035 1.96393 L 1.95077 1.95701 L 1.95112 1.95008 L 1.95142 1.94315 L 1.95166 1.93622 L 1.95185 1.92928 L 1.95197 1.92235 L 1.95204 1.91541 L 1.95205 1.90847 L 1.952 1.90154 L 1.95267 1.88912 L 1.95306 1.8767 L 1.95319 1.86427 L 1.95304 1.85184 L 1.95263 1.83941 L 1.95194 1.827 L 1.95098 1.81461 L 1.94975 1.80224 L 1.94825 1.7899 L 1.94648 1.77759 L 1.94444 1.76533 L 1.94214 1.75311 L 1.93957 1.74095 L 1.93673 1.72884 L 1.93363 1.71681 L 1.93027 1.70484 L 1.92665 1.69295 L 1.92276 1.68114 L 1.91863 1.66941 L 1.91423 1.65778 L 1.90959 1.64625 L 1.90469 1.63483 L 1.89954 1.62351 L 1.89415 1.61231 L 1.88668 1.59812 L 1.87791 1.5847 L 1.8679 1.57217 L 1.85676 1.56064 L 1.84459 1.55021 L 1.83148 1.54097 L 1.81756 1.53301 L 1.80295 1.5264 L 1.78779 1.5212 L 1.7722 1.51745 L 1.75632 1.51518 L 1.74031 1.51443 L 1.72429 1.51518 L 1.70842 1.51745 L 1.69283 1.5212 L 1.67766 1.5264 L 1.66306 1.53301 L 1.64914 1.54097 L 1.63603 1.55021 L 1.62385 1.56064 L 1.61271 1.57217 L 1.60271 1.5847 L 1.59393 1.59812 L 1.58646 1.61231 L 1.58091 1.62344 L 1.57561 1.63469 L 1.57056 1.64606 L 1.56576 1.65753 L 1.56121 1.66911 L 1.55691 1.68078 L 1.55287 1.69255 L 1.54909 1.7044 L 1.54558 1.71633 L 1.54232 1.72834 L 1.53933 1.74041 L 1.5366 1.75254 L 1.53414 1.76474 L 1.53195 1.77698 L 1.53002 1.78927 L 1.52837 1.8016 L 1.52699 1.81396 L 1.52587 1.82635 L 1.52504 1.83876 L 1.52447 1.85119 L 1.52417 1.86362 L 1.52415 1.87606 L 1.5244 1.8885 L 1.52492 1.90092 L 1.5244 1.9135 L 1.52415 1.92608 L 1.52417 1.93867 L 1.52446 1.95126 L 1.52503 1.96383 L 1.52586 1.97639 L 1.52698 1.98893 L 1.52836 2.00144 L 1.53001 2.01392 L 1.53193 2.02636 L 1.53412 2.03876 L 1.53658 2.0511 L 1.53931 2.06339 L 1.5423 2.07562 L 1.54556 2.08777 L 1.54908 2.09986 L 1.55286 2.11187 L 1.5569 2.12379 L 1.56119 2.13562 L 1.56574 2.14736 L 1.56733 2.15119 L 1.56123 2.14154 L 1.552 2.12548 L 1.54316 2.10921 L 1.53471 2.09273 L 1.52666 2.07605 L 1.51901 2.05918 L 1.51177 2.04213 L 1.50495 2.02492 L 1.49854 2.00754 L 1.49255 1.99002 L 1.48698 1.97236 L 1.48183 1.95456 L 1.47712 1.93665 L 1.47284 1.91864 L 1.46899 1.90052 L 1.46558 1.88232 L 1.46261 1.86404 L 1.46008 1.84569 L 1.45799 1.82729 L 1.45634 1.80884 L 1.45513 1.79036 L 1.45438 1.77186 L 1.45406 1.75334 L 1.45419 1.73482 L 1.45477 1.71631 L 1.45397 1.69795 L 1.45361 1.67958 L 1.45369 1.66121 L 1.45421 1.64284 L 1.45517 1.62449 L 1.45656 1.60617 L 1.45839 1.58789 L 1.46066 1.56966 L 1.46337 1.55148 L 1.4665 1.53338 L 1.47007 1.51536 L 1.47407 1.49742 L 1.47849 1.47959 L 1.48334 1.46187 L 1.48861 1.44427 L 1.4943 1.4268 L 1.50041 1.40947 L 1.50692 1.39229 L 1.51385 1.37527 L 1.52118 1.35842 L 1.52891 1.34175 L 1.53704 1.32527 L 1.54556 1.30899 L 1.55446 1.29292 L 1.5695 1.27051 L 1.58639 1.24945 L 1.60502 1.22991 L 1.62524 1.21202 L 1.64691 1.19592 L 1.66987 1.18172 L 1.69395 1.16953 L 1.71899 1.15943 L 1.74479 1.1515 L 1.77118 1.14579 L 1.79795 1.14235 L 1.82492 1.1412 L 1.85189 1.14235 L 1.87867 1.14579 L 1.90505 1.1515 L 1.93086 1.15943 L 1.95589 1.16953 L 1.97998 1.18172 L 2.00294 1.19592 L 2.02461 1.21202 L 2.04483 1.22991 L 2.06345 1.24945 L 2.08034 1.27051 L 2.09538 1.29292 L 2.10421 1.30902 L 2.11265 1.32532 L 2.12069 1.34182 L 2.12835 1.3585 L 2.1356 1.37536 L 2.14244 1.39239 L 2.14888 1.40958 L 2.15491 1.42692 L 2.16052 1.4444 L 2.16571 1.462 L 2.17048 1.47973 L 2.17483 1.49756 L 2.17875 1.51549 L 2.18224 1.53352 L 2.18529 1.55161 L 2.18792 1.56978 L 2.19011 1.588 L 2.19187 1.60628 L 2.19319 1.62458 L 2.19408 1.64292 L 2.19452 1.66127 L 2.19453 1.67962 L 2.1941 1.69797 L 2.19323 1.71631 L 2.19271 1.76228 L 2.19127 1.80258 L 2.1891 1.83752 L 2.18637 1.86742 L 2.18328 1.8926 L 2.18 1.91338 L 2.17672 1.93009 L 2.17363 1.94304 L 2.1709 1.95256 L 2.16873 1.95896 L 2.16729 1.96256 L 2.16677 1.96369 L 2.08308 2.14892 L 2.07652 2.15946 L 2.06953 2.1697 L 2.06212 2.17965 L 2.05429 2.18927 L 2.04606 2.19855 L 2.03745 2.20748 L 2.02847 2.21604 L 2.01914 2.22421 L 2.00947 2.23198 L 1.99948 2.23933 L 1.98919 2.24626 L 1.97862 2.25275 L 1.96778 2.25878 L 1.9567 2.26436 L 1.94539 2.26946 L 1.93388 2.27408 L 1.92219 2.27821 L 1.91033 2.28185 L 1.89832 2.28498 L 1.8862 2.2876 L 1.87398 2.28971 L 1.86167 2.2913 L 1.84932 2.29237 L 1.83692 2.29292 L 1.82319 2.29296 L 1.80947 2.2924 L 1.79579 2.29124 L 1.78217 2.28948 L 1.76942 2.28725 Z" />
    <path d="M 1.85311 -0.9749 L 1.85677 -0.97571 L 1.86212 -0.97709 L 1.8674 -0.97867 L 1.87263 -0.98044 L 1.87778 -0.98241 L 1.88286 -0.98457 L 1.88786 -0.98692 L 1.89276 -0.98945 L 1.89757 -0.99216 L 1.90227 -0.99505 L 1.90686 -0.99811 L 1.91133 -1.00134 L 1.91568 -1.00474 L 1.91991 -1.00829 L 1.92399 -1.012 L 1.92794 -1.01586 L 1.93174 -1.01986 L 1.93538 -1.024 L 1.81231 -1.11262 L 1.90585 -1.27631 L 2.02092 -1.19508 L 2.0222 -1.2019 L 2.02342 -1.20872 L 2.02458 -1.21556 L 2.02568 -1.22241 L 2.02673 -1.22927 L 2.02772 -1.23613 L 2.02865 -1.24301 L 2.02953 -1.24989 L 2.03035 -1.25677 L 2.03111 -1.26367 L 2.03181 -1.27057 L 2.03245 -1.27748 L 2.03304 -1.28439 L 2.03357 -1.2913 L 2.03404 -1.29822 L 2.03446 -1.30515 L 2.03482 -1.31208 L 2.03511 -1.31901 L 2.03536 -1.32594 L 2.03554 -1.33287 L 2.03566 -1.33981 L 2.03573 -1.34674 L 2.03574 -1.35368 L 2.03569 -1.36062 L 2.03636 -1.37303 L 2.03676 -1.38545 L 2.03688 -1.39788 L 2.03674 -1.41032 L 2.03632 -1.42274 L 2.03563 -1.43515 L 2.03467 -1.44755 L 2.03344 -1.45992 L 2.03194 -1.47226 L 2.03017 -1.48456 L 2.02813 -1.49683 L 2.02583 -1.50904 L 2.02326 -1.52121 L 2.02042 -1.53331 L 2.01732 -1.54535 L 2.01396 -1.55732 L 2.01034 -1.56921 L 2.00646 -1.58102 L 2.00232 -1.59274 L 1.99793 -1.60437 L 1.99328 -1.6159 L 1.98838 -1.62733 L 1.98324 -1.63864 L 1.97785 -1.64985 L 1.97037 -1.66403 L 1.9616 -1.67745 L 1.9516 -1.68998 L 1.94046 -1.70152 L 1.92828 -1.71195 L 1.91517 -1.72118 L 1.90125 -1.72914 L 1.88664 -1.73575 L 1.87148 -1.74096 L 1.85589 -1.74471 L 1.84002 -1.74697 L 1.824 -1.74773 L 1.80798 -1.74697 L 1.79211 -1.74471 L 1.77652 -1.74096 L 1.76136 -1.73575 L 1.74675 -1.72914 L 1.73283 -1.72118 L 1.71972 -1.71195 L 1.70754 -1.70152 L 1.6964 -1.68998 L 1.6864 -1.67745 L 1.67763 -1.66403 L 1.67015 -1.64985 L 1.66461 -1.63871 L 1.65931 -1.62746 L 1.65425 -1.61609 L 1.64945 -1.60462 L 1.6449 -1.59304 L 1.6406 -1.58137 L 1.63657 -1.5696 L 1.63279 -1.55775 L 1.62927 -1.54582 L 1.62601 -1.53382 L 1.62302 -1.52175 L 1.62029 -1.50961 L 1.61783 -1.49742 L 1.61564 -1.48517 L 1.61372 -1.47288 L 1.61206 -1.46056 L 1.61068 -1.44819 L 1.60957 -1.4358 L 1.60873 -1.42339 L 1.60816 -1.41097 L 1.60786 -1.39853 L 1.60784 -1.38609 L 1.60809 -1.37366 L 1.60862 -1.36123 L 1.60809 -1.34865 L 1.60784 -1.33607 L 1.60786 -1.32348 L 1.60815 -1.3109 L 1.60872 -1.29832 L 1.60956 -1.28576 L 1.61067 -1.27322 L 1.61205 -1.26071 L 1.6137 -1.24823 L 1.61562 -1.23579 L 1.61782 -1.2234 L 1.62028 -1.21105 L 1.623 -1.19877 L 1.62599 -1.18654 L 1.62925 -1.17438 L 1.63277 -1.16229 L 1.63655 -1.15029 L 1.64059 -1.13836 L 1.64488 -1.12653 L 1.64944 -1.1148 L 1.65102 -1.11097 L 1.64492 -1.12062 L 1.63569 -1.13667 L 1.62685 -1.15294 L 1.6184 -1.16943 L 1.61035 -1.1861 L 1.60271 -1.20297 L 1.59547 -1.22002 L 1.58864 -1.23724 L 1.58223 -1.25461 L 1.57624 -1.27213 L 1.57067 -1.2898 L 1.56553 -1.30759 L 1.56081 -1.3255 L 1.55653 -1.34352 L 1.55268 -1.36163 L 1.54927 -1.37984 L 1.5463 -1.39812 L 1.54377 -1.41646 L 1.54168 -1.43487 L 1.54003 -1.45331 L 1.53883 -1.47179 L 1.53807 -1.4903 L 1.53775 -1.50882 L 1.53789 -1.52733 L 1.53846 -1.54585 L 1.53766 -1.5642 L 1.5373 -1.58257 L 1.53738 -1.60095 L 1.5379 -1.61931 L 1.53886 -1.63766 L 1.54025 -1.65598 L 1.54209 -1.67426 L 1.54435 -1.6925 L 1.54706 -1.71067 L 1.55019 -1.72877 L 1.55376 -1.7468 L 1.55776 -1.76473 L 1.56218 -1.78256 L 1.56703 -1.80029 L 1.5723 -1.81789 L 1.57799 -1.83536 L 1.5841 -1.85269 L 1.59062 -1.86987 L 1.59754 -1.88688 L 1.60487 -1.90373 L 1.6126 -1.9204 L 1.62073 -1.93688 L 1.62925 -1.95316 L 1.63815 -1.96923 L 1.65319 -1.99165 L 1.67009 -2.0127 L 1.68871 -2.03225 L 1.70893 -2.05013 L 1.7306 -2.06623 L 1.75356 -2.08043 L 1.77764 -2.09263 L 1.80268 -2.10273 L 1.82848 -2.11066 L 1.85487 -2.11636 L 1.88164 -2.1198 L 1.90862 -2.12095 L 1.93559 -2.1198 L 1.96236 -2.11636 L 1.98875 -2.11066 L 2.01455 -2.10273 L 2.03959 -2.09263 L 2.06367 -2.08043 L 2.08663 -2.06623 L 2.1083 -2.05013 L 2.12852 -2.03225 L 2.14714 -2.0127 L 2.16404 -1.99165 L 2.17908 -1.96923 L 2.1879 -1.95314 L 2.19634 -1.93684 L 2.20439 -1.92034 L 2.21204 -1.90365 L 2.21929 -1.88679 L 2.22613 -1.86976 L 2.23257 -1.85257 L 2.2386 -1.83523 L 2.24421 -1.81776 L 2.2494 -1.80015 L 2.25417 -1.78242 L 2.25852 -1.76459 L 2.26244 -1.74666 L 2.26593 -1.72864 L 2.26899 -1.71054 L 2.27161 -1.69237 L 2.27381 -1.67415 L 2.27556 -1.65588 L 2.27688 -1.63757 L 2.27777 -1.61924 L 2.27821 -1.60089 L 2.27822 -1.58253 L 2.27779 -1.56418 L 2.27692 -1.54585 L 2.2764 -1.49987 L 2.27496 -1.45957 L 2.27279 -1.42463 L 2.27006 -1.39474 L 2.26697 -1.36955 L 2.26369 -1.34877 L 2.26042 -1.33206 L 2.25732 -1.31911 L 2.2546 -1.3096 L 2.25242 -1.3032 L 2.25098 -1.29959 L 2.25046 -1.29846 L 2.16677 -1.11323 L 2.16022 -1.1027 L 2.15323 -1.09245 L 2.14581 -1.08251 L 2.13798 -1.07289 L 2.12975 -1.0636 L 2.12114 -1.05467 L 2.11216 -1.04612 L 2.10283 -1.03795 L 2.09316 -1.03018 L 2.08317 -1.02282 L 2.07288 -1.01589 L 2.06231 -1.00941 L 2.05147 -1.00337 L 2.04039 -0.9978 L 2.02909 -0.99269 L 2.01757 -0.98807 L 2.00588 -0.98394 L 1.99402 -0.98031 L 1.98202 -0.97718 L 1.96989 -0.97455 L 1.95767 -0.97244 L 1.94537 -0.97085 L 1.93301 -0.96978 L 1.92062 -0.96923 L 1.90688 -0.96919 L 1.89316 -0.96975 L 1.87948 -0.97092 L 1.86587 -0.97268 L 1.85311 -0.9749 Z" />
    <path d="M 1.35385 0.41538 L 1.35385 0.72308 L 2.50769 0.72308 L 2.50769 0.41538 L 1.35385 0.41538 Z" />
    <path d="M -2.30769 2.10523 L -2.30769 0.96923 L -1.55754 0.96923 L -1.55754 1.16123 L -2.10338 1.16123 L -2.10338 1.41538 L -1.59569 1.41538 L -1.59569 1.60677 L -2.10338 1.60677 L -2.10338 1.91446 L -1.53846 1.91446 L -1.53846 2.10585 L -2.30769 2.10523 Z" />
    <path fill-rule="evenodd" d="M -2.30769 -2.10523 L -1.96923 -2.10523 L -1.96186 -2.1055 L -1.9545 -2.10566 L -1.94713 -2.10573 L -1.93975 -2.10569 L -1.93239 -2.10555 L -1.92502 -2.10531 L -1.91766 -2.10496 L -1.9103 -2.10452 L -1.90295 -2.10397 L -1.89561 -2.10332 L -1.88827 -2.10257 L -1.88095 -2.10172 L -1.87364 -2.10077 L -1.86635 -2.09972 L -1.85907 -2.09856 L -1.8518 -2.09731 L -1.84456 -2.09595 L -1.83733 -2.0945 L -1.83013 -2.09295 L -1.82294 -2.09129 L -1.81579 -2.08954 L -1.80865 -2.08769 L -1.80154 -2.08574 L -1.79446 -2.08369 L -1.78764 -2.08102 L -1.78088 -2.07819 L -1.77418 -2.07519 L -1.76757 -2.07204 L -1.76103 -2.06873 L -1.75457 -2.06527 L -1.74819 -2.06165 L -1.7419 -2.05788 L -1.73571 -2.05397 L -1.72961 -2.0499 L -1.7236 -2.0457 L -1.7177 -2.04135 L -1.71191 -2.03686 L -1.70622 -2.03224 L -1.70065 -2.02748 L -1.69519 -2.02259 L -1.68984 -2.01757 L -1.68462 -2.01242 L -1.67953 -2.00715 L -1.67456 -2.00177 L -1.66972 -1.99626 L -1.66501 -1.99064 L -1.66043 -1.98491 L -1.656 -1.97908 L -1.65096 -1.97215 L -1.64603 -1.96515 L -1.64122 -1.95806 L -1.63653 -1.9509 L -1.63195 -1.94366 L -1.62749 -1.93635 L -1.62315 -1.92896 L -1.61893 -1.92151 L -1.61483 -1.91399 L -1.61085 -1.90641 L -1.607 -1.89876 L -1.60327 -1.89105 L -1.59967 -1.88327 L -1.5962 -1.87545 L -1.59285 -1.86756 L -1.58963 -1.85963 L -1.58655 -1.85164 L -1.58359 -1.8436 L -1.58076 -1.83551 L -1.57806 -1.82739 L -1.5755 -1.81921 L -1.57307 -1.811 L -1.57078 -1.80275 L -1.56862 -1.79446 L -1.56594 -1.78353 L -1.56338 -1.77256 L -1.56095 -1.76157 L -1.55863 -1.75055 L -1.55645 -1.73951 L -1.55438 -1.72844 L -1.55244 -1.71736 L -1.55062 -1.70625 L -1.54892 -1.69512 L -1.54735 -1.68397 L -1.54591 -1.6728 L -1.54458 -1.66162 L -1.54339 -1.65043 L -1.54231 -1.63922 L -1.54136 -1.62801 L -1.54054 -1.61678 L -1.53984 -1.60554 L -1.53927 -1.5943 L -1.53882 -1.58305 L -1.5385 -1.5718 L -1.5383 -1.56054 L -1.53823 -1.54928 L -1.53828 -1.53803 L -1.53846 -1.52677 L -1.53832 -1.51659 L -1.5383 -1.50642 L -1.53839 -1.49624 L -1.5386 -1.48607 L -1.53892 -1.47589 L -1.53936 -1.46573 L -1.53991 -1.45556 L -1.54058 -1.44541 L -1.54136 -1.43526 L -1.54226 -1.42512 L -1.54327 -1.415 L -1.5444 -1.40488 L -1.54564 -1.39478 L -1.54699 -1.3847 L -1.54846 -1.37463 L -1.55004 -1.36457 L -1.55174 -1.35454 L -1.55355 -1.34452 L -1.55547 -1.33453 L -1.5575 -1.32456 L -1.55965 -1.31461 L -1.56191 -1.30469 L -1.56428 -1.29479 L -1.56677 -1.28492 L -1.56898 -1.27585 L -1.57135 -1.26682 L -1.57388 -1.25784 L -1.57657 -1.2489 L -1.57941 -1.24 L -1.5824 -1.23116 L -1.58555 -1.22237 L -1.58886 -1.21364 L -1.59231 -1.20497 L -1.59592 -1.19635 L -1.59967 -1.18781 L -1.60358 -1.17933 L -1.60763 -1.17091 L -1.61182 -1.16258 L -1.61617 -1.15431 L -1.62065 -1.14612 L -1.62528 -1.13802 L -1.63005 -1.12999 L -1.63496 -1.12205 L -1.64001 -1.11419 L -1.64519 -1.10643 L -1.65051 -1.09876 L -1.65596 -1.09118 L -1.66154 -1.08369 L -1.66596 -1.07868 L -1.67049 -1.07376 L -1.67512 -1.06894 L -1.67985 -1.06421 L -1.68467 -1.05959 L -1.6896 -1.05506 L -1.69462 -1.05065 L -1.69973 -1.04634 L -1.70493 -1.04213 L -1.71021 -1.03804 L -1.71558 -1.03406 L -1.72104 -1.03019 L -1.72657 -1.02644 L -1.73218 -1.02281 L -1.73787 -1.01929 L -1.74363 -1.0159 L -1.74945 -1.01262 L -1.75535 -1.00947 L -1.76131 -1.00645 L -1.76734 -1.00355 L -1.77342 -1.00077 L -1.77956 -0.99813 L -1.78575 -0.99561 L -1.792 -0.99323 L -1.79858 -0.99105 L -1.80519 -0.98897 L -1.81184 -0.987 L -1.81851 -0.98512 L -1.82521 -0.98334 L -1.83193 -0.98167 L -1.83869 -0.9801 L -1.84546 -0.97863 L -1.85225 -0.97726 L -1.85907 -0.97599 L -1.8659 -0.97483 L -1.87275 -0.97378 L -1.87962 -0.97282 L -1.8865 -0.97197 L -1.89339 -0.97123 L -1.90029 -0.97059 L -1.9072 -0.97005 L -1.91412 -0.96962 L -1.92104 -0.96929 L -1.92797 -0.96907 L -1.9349 -0.96895 L -1.94183 -0.96894 L -1.94876 -0.96903 L -1.95569 -0.96923 L -2.30769 -0.96923 L -2.30769 -2.10523 Z M -2.12308 -1.91323 L -2.12308 -1.16062 L -1.98462 -1.16062 L -1.9799 -1.16034 L -1.97519 -1.16012 L -1.97047 -1.15995 L -1.96575 -1.15984 L -1.96103 -1.15978 L -1.9563 -1.15978 L -1.95158 -1.15984 L -1.94686 -1.15995 L -1.94214 -1.16012 L -1.93743 -1.16034 L -1.93271 -1.16061 L -1.928 -1.16095 L -1.9233 -1.16133 L -1.9186 -1.16178 L -1.9139 -1.16228 L -1.90921 -1.16283 L -1.90453 -1.16344 L -1.89986 -1.1641 L -1.89519 -1.16482 L -1.89053 -1.16559 L -1.88588 -1.16642 L -1.88124 -1.1673 L -1.87662 -1.16824 L -1.872 -1.16923 L -1.86843 -1.1703 L -1.86488 -1.17146 L -1.86137 -1.1727 L -1.85788 -1.17402 L -1.85443 -1.17543 L -1.85101 -1.17692 L -1.84763 -1.17849 L -1.84429 -1.18014 L -1.84099 -1.18187 L -1.83773 -1.18368 L -1.83451 -1.18557 L -1.83134 -1.18754 L -1.82822 -1.18958 L -1.82515 -1.19169 L -1.82213 -1.19388 L -1.81916 -1.19613 L -1.81625 -1.19846 L -1.81339 -1.20086 L -1.8106 -1.20332 L -1.80786 -1.20586 L -1.80518 -1.20845 L -1.80257 -1.21111 L -1.80002 -1.21383 L -1.79754 -1.21662 L -1.79449 -1.22063 L -1.79152 -1.22471 L -1.78863 -1.22884 L -1.78583 -1.23303 L -1.78311 -1.23728 L -1.78048 -1.24158 L -1.77794 -1.24594 L -1.77548 -1.25034 L -1.77312 -1.25479 L -1.77084 -1.25929 L -1.76866 -1.26384 L -1.76657 -1.26843 L -1.76457 -1.27306 L -1.76266 -1.27772 L -1.76085 -1.28243 L -1.75914 -1.28717 L -1.75752 -1.29195 L -1.75599 -1.29676 L -1.75457 -1.30159 L -1.75324 -1.30646 L -1.75201 -1.31135 L -1.75088 -1.31626 L -1.74985 -1.3212 L -1.74892 -1.32615 L -1.7471 -1.33487 L -1.74537 -1.3436 L -1.74373 -1.35235 L -1.74217 -1.36112 L -1.74071 -1.3699 L -1.73933 -1.3787 L -1.73804 -1.38751 L -1.73684 -1.39633 L -1.73573 -1.40516 L -1.73471 -1.41401 L -1.73378 -1.42286 L -1.73294 -1.43173 L -1.73218 -1.4406 L -1.73152 -1.44948 L -1.73095 -1.45836 L -1.73047 -1.46725 L -1.73008 -1.47615 L -1.72977 -1.48505 L -1.72956 -1.49395 L -1.72944 -1.50285 L -1.7294 -1.51176 L -1.72946 -1.52066 L -1.72961 -1.52956 L -1.72985 -1.53846 L -1.72962 -1.54695 L -1.72949 -1.55545 L -1.72944 -1.56394 L -1.72948 -1.57244 L -1.72962 -1.58093 L -1.72984 -1.58943 L -1.73015 -1.59792 L -1.73054 -1.6064 L -1.73103 -1.61488 L -1.73161 -1.62336 L -1.73227 -1.63183 L -1.73302 -1.64029 L -1.73387 -1.64875 L -1.73479 -1.65719 L -1.73581 -1.66562 L -1.73692 -1.67405 L -1.73811 -1.68246 L -1.73939 -1.69086 L -1.74076 -1.69924 L -1.74222 -1.70761 L -1.74377 -1.71596 L -1.7454 -1.7243 L -1.74712 -1.73262 L -1.74892 -1.74092 L -1.75017 -1.7457 L -1.7515 -1.75045 L -1.75292 -1.75517 L -1.75442 -1.75987 L -1.75601 -1.76455 L -1.75767 -1.76919 L -1.75943 -1.7738 L -1.76126 -1.77838 L -1.76317 -1.78293 L -1.76517 -1.78744 L -1.76725 -1.79192 L -1.7694 -1.79636 L -1.77164 -1.80076 L -1.77395 -1.80511 L -1.77635 -1.80943 L -1.77882 -1.8137 L -1.78136 -1.81793 L -1.78398 -1.82211 L -1.78667 -1.82624 L -1.78944 -1.83033 L -1.79228 -1.83436 L -1.79519 -1.83835 L -1.79818 -1.84228 L -1.80123 -1.84615 L -1.80405 -1.84939 L -1.80696 -1.85255 L -1.80995 -1.85564 L -1.81301 -1.85864 L -1.81616 -1.86157 L -1.81937 -1.86442 L -1.82266 -1.86718 L -1.82602 -1.86985 L -1.82945 -1.87244 L -1.83295 -1.87494 L -1.8365 -1.87734 L -1.84012 -1.87966 L -1.8438 -1.88188 L -1.84753 -1.884 L -1.85132 -1.88603 L -1.85516 -1.88796 L -1.85904 -1.88978 L -1.86298 -1.89151 L -1.86695 -1.89314 L -1.87097 -1.89466 L -1.87502 -1.89608 L -1.87911 -1.89739 L -1.88323 -1.89859 L -1.88738 -1.89969 L -1.89364 -1.90085 L -1.89991 -1.90194 L -1.90619 -1.90298 L -1.91248 -1.90396 L -1.91878 -1.90487 L -1.92508 -1.90573 L -1.9314 -1.90652 L -1.93772 -1.90726 L -1.94405 -1.90793 L -1.95038 -1.90855 L -1.95672 -1.9091 L -1.96307 -1.90959 L -1.96942 -1.91003 L -1.97577 -1.9104 L -1.98213 -1.91071 L -1.98848 -1.91096 L -1.99485 -1.91115 L -2.00121 -1.91128 L -2.00757 -1.91134 L -2.01394 -1.91135 L -2.0203 -1.9113 L -2.02666 -1.91118 L -2.03302 -1.91101 L -2.03938 -1.91077 L -2.12308 -1.91323 Z" />
</svg>