<svg version="1.1" xmlns="http://www.w3.org/2000/svg" viewBox="-9.135696683281711 -5.000000891528295 18.271393366563423 10.00000178305659" fill="black" stroke="none">
    <path fill-rule="evenodd" d="M 0.2715 0.61005 L 1.62739 0.61005 L 1.62739 -1.4238 L 8.1357 -1.4238 L 8.1357 -1.96616 L 1.62739 -1.96616 L 1.62739 -4 L -1.62676 -4 L -1.62676 -1.96616 L -8.13506 -1.96616 L -8.13506 -1.4238 L -1.62676 -1.4238 L -1.62676 0.61005 L -0.27086 0.61005 L -0.27086 0.88123 L 0.2715 0.88123 L 0.2715 0.61005 Z M -1.0844 0.06769 L -1.0844 -3.45764 L 1.08503 -3.45764 L 1.08503 0.06769 L -1.0844 0.06769 Z M -8.1357 3.98687 L -2.66254 4 L 2.80723 1.94878 L 2.61699 1.44075 L -2.76041 3.45722 L -8.13442 3.44451 L -8.1357 3.98687 Z M 2.71211 3.99979 L 8.1357 3.99979 L 8.1357 3.45743 L 2.71211 3.45743 L 2.71211 3.99979 Z M -0.27086 1.96594 L 0.2715 1.96594 L 0.2715 1.42359 L -0.27086 1.42359 L -0.27086 1.96594 Z" />
</svg>