<svg version="1.1" xmlns="http://www.w3.org/2000/svg" viewBox="-6.55093879208341 -5.000000925987504 13.10187758416682 10.000001851974993" fill="black" stroke="none">
    <path fill-rule="evenodd" d="M -3.88566 -4 L -3.88566 -3.70063 L -3.88566 -2.03534 L -5.55094 -2.03534 L -5.55094 -1.66528 L -3.88566 -1.66528 L -3.88566 1.66528 L -5.55094 1.66528 L -5.55094 2.03534 L -3.88566 2.03534 L -3.88566 4 L 3.74428 0.18503 L 5.55094 0.18503 L 5.55094 -0.18503 L 3.74428 -0.18503 L -3.88566 -4 Z M -3.51559 -3.40125 L 3.28691 0 L -3.51559 3.40125 L -3.51559 -3.40125 Z" />
    <path d="M -2.99751 1.44324 L -2.99751 1.81331 L -1.62828 1.81331 L -1.62828 1.44324 L -2.99751 1.44324 Z" />
    <path d="M -2.49792 -2.31289 L -2.49792 -1.81331 L -2.99751 -1.81331 L -2.99751 -1.44324 L -2.49792 -1.44324 L -2.49792 -0.94366 L -2.12786 -0.94366 L -2.12786 -1.44324 L -1.62828 -1.44324 L -1.62828 -1.81331 L -2.12786 -1.81331 L -2.12786 -2.31289 L -2.49792 -2.31289 Z" />
</svg>