<svg version="1.1" xmlns="http://www.w3.org/2000/svg" viewBox="-9.759124831850398 -5.0000008832116825 19.518249663700797 10.000001766423365" fill="black" stroke="none">
    <path d="M 0.81752 -3.24088 L 0.81752 4 L 1.40146 4 L 1.40146 0.70073 L 8.75912 0.70073 L 8.75912 0.11679 L 1.40146 0.11679 L 1.40146 -3.24088 L 0.81752 -3.24088 Z" />
    <path d="M 4.81752 -4 L 4.81752 -2.83212 L 3.64963 -2.83212 L 3.64963 -2.24818 L 4.81752 -2.24818 L 4.81752 -1.08029 L 5.40146 -1.08029 L 5.40146 -2.24818 L 6.56934 -2.24818 L 6.56934 -2.83212 L 5.40146 -2.83212 L 5.40146 -4 L 4.81752 -4 Z" />
    <path d="M -1.40146 -3.24088 L -1.40146 0.08417 L -8.75912 0.08417 L -8.75912 0.66811 L -1.40146 0.66811 L -1.40146 4 L -0.81752 4 L -0.81752 -3.24088 L -1.40146 -3.24088 Z" />
</svg>