<svg version="1.1" xmlns="http://www.w3.org/2000/svg" viewBox="-4.731250942596155 -5.00000093846154 9.46250188519231 10.00000187692308" fill="black" stroke="none">
    <path fill-rule="evenodd" d="M -3.73125 -1.40553 L -0.58618 -1.38654 L -0.61936 -1.28508 L -0.65021 -1.18126 L -0.67862 -1.07502 L -0.70449 -0.96629 L -0.72771 -0.85503 L -0.74817 -0.74116 L -0.76577 -0.62463 L -0.78041 -0.50538 L -0.79198 -0.38335 L -0.80037 -0.25849 L -0.80548 -0.13072 L -0.80721 0 L -0.80548 0.13068 L -0.80037 0.25841 L -0.79199 0.38324 L -0.78042 0.50523 L -0.76579 0.62445 L -0.7482 0.74095 L -0.72775 0.85479 L -0.70454 0.96603 L -0.67869 1.07473 L -0.6503 1.18095 L -0.61946 1.28474 L -0.5863 1.38618 L -3.73101 1.4018 L -3.72957 1.7095 L -0.46082 1.69327 L -0.35137 1.91481 L -0.23003 2.1223 L -0.09788 2.31612 L 0.04398 2.49664 L 0.19447 2.6642 L 0.3525 2.81919 L 0.517 2.96197 L 0.68686 3.09289 L 0.86101 3.21233 L 1.03836 3.32066 L 1.21783 3.41823 L 1.39832 3.50541 L 1.67077 3.61949 L 1.9392 3.71453 L 2.19985 3.79226 L 2.44898 3.85442 L 2.68284 3.90275 L 2.89768 3.93899 L 3.08976 3.96488 L 3.25531 3.98216 L 3.39061 3.99258 L 3.49188 3.99786 L 3.5554 3.99976 L 3.5774 4 L 3.73125 4 L 3.73125 -4 L 3.5774 -4 L 3.5554 -3.99976 L 3.49188 -3.99786 L 3.39061 -3.99258 L 3.25531 -3.98216 L 3.08976 -3.96488 L 2.89768 -3.93899 L 2.68284 -3.90275 L 2.44898 -3.85442 L 2.19985 -3.79226 L 1.9392 -3.71453 L 1.67077 -3.61949 L 1.39832 -3.50541 L 1.21784 -3.41823 L 1.0384 -3.32067 L 0.86106 -3.21236 L 0.68693 -3.09293 L 0.51708 -2.96203 L 0.3526 -2.81927 L 0.19457 -2.6643 L 0.04409 -2.49676 L -0.09776 -2.31627 L -0.2299 -2.12248 L -0.35124 -1.91501 L -0.4607 -1.69351 L -3.72933 -1.71322 L -3.73125 -1.40553 Z M -0.49952 0 L -0.4792 -0.44672 L -0.42051 -0.85479 L -0.32687 -1.2261 L -0.20168 -1.56255 L -0.04837 -1.86601 L 0.12966 -2.13839 L 0.32899 -2.38155 L 0.54621 -2.5974 L 0.7779 -2.78782 L 1.02066 -2.95469 L 1.27107 -3.09991 L 1.52572 -3.22536 L 1.72518 -3.31047 L 1.92244 -3.3845 L 2.11591 -3.44821 L 2.30401 -3.50238 L 2.48512 -3.5478 L 2.65766 -3.58523 L 2.82004 -3.61546 L 2.97065 -3.63926 L 3.1079 -3.6574 L 3.2302 -3.67067 L 3.33595 -3.67985 L 3.42356 -3.6857 L 3.42356 3.6857 L 3.33595 3.67985 L 3.2302 3.67067 L 3.1079 3.6574 L 2.97065 3.63926 L 2.82004 3.61546 L 2.65766 3.58523 L 2.48512 3.5478 L 2.30401 3.50238 L 2.11591 3.44821 L 1.92244 3.3845 L 1.72518 3.31047 L 1.52572 3.22536 L 1.27107 3.09991 L 1.02066 2.95469 L 0.7779 2.78782 L 0.54621 2.5974 L 0.32899 2.38155 L 0.12966 2.13839 L -0.04837 1.86601 L -0.20168 1.56255 L -0.32687 1.2261 L -0.42051 0.85479 L -0.4792 0.44672 L -0.49952 0 Z" />
</svg>