<svg version="1.1" xmlns="http://www.w3.org/2000/svg" viewBox="-6.95972619031712 -5.000000920536998 13.91945238063424 10.000001841073995" fill="black" stroke="none">
    <path d="M -0.19866 1.65743 L -0.19866 4 L 0.19866 4 L 0.19866 1.65743 L 0.79225 1.65743 L 0 0.2851 L -0.79225 1.65743 L -0.19866 1.65743 Z" />
    <path d="M -3.60951 -2.16319 L -5.95973 -2.16319 L -5.95973 -1.76588 L -3.47651 -1.76588 L -3.2929 -1.8888 L -2.69895 -3.33 L -1.78761 0.07822 L -1.40379 0.07822 L -0.53172 -3.17805 L 0.33974 0.07822 L 0.72339 0.07854 L 1.59562 -3.15322 L 2.46708 0.07854 L 2.84251 0.10244 L 3.60951 -1.76107 L 5.95973 -1.76107 L 5.95973 -2.15838 L 3.47651 -2.15838 L 3.29275 -2.03531 L 2.69802 -0.59039 L 1.78745 -3.96787 L 1.40379 -3.96787 L 0.53234 -0.73876 L -0.33974 -3.99767 L -0.72355 -3.99767 L -1.59547 -0.74155 L -2.46692 -4 L -3.60951 -2.16319 Z" />
</svg>