<svg version="1.1" xmlns="http://www.w3.org/2000/svg" viewBox="-6.71428660544218 -5.000000923809526 13.428573210884359 10.000001847619052" fill="black" stroke="none">
    <path fill-rule="evenodd" d="M -3.98716 -0.19048 L -5.71429 -0.19048 L -5.71429 0.19048 L -3.98716 0.19048 L -3.96344 0.5423 L -3.85696 1.06257 L -3.68534 1.55603 L -3.45338 2.01787 L -3.16586 2.44332 L -2.82758 2.82758 L -2.44332 3.16586 L -2.01787 3.45338 L -1.55603 3.68534 L -1.06257 3.85696 L -0.5423 3.96344 L 0 4 L 0.5423 3.96344 L 1.06257 3.85696 L 1.55603 3.68534 L 2.01787 3.45338 L 2.44332 3.16586 L 2.82758 2.82758 L 3.16586 2.44332 L 3.45338 2.01787 L 3.68534 1.55603 L 3.85696 1.06257 L 3.96344 0.5423 L 3.98716 0.19048 L 5.71429 0.19048 L 5.71429 -0.19048 L 3.98716 -0.19048 L 3.96344 -0.5423 L 3.85696 -1.06257 L 3.68534 -1.55603 L 3.45338 -2.01787 L 3.16586 -2.44332 L 2.82758 -2.82758 L 2.44332 -3.16586 L 2.01787 -3.45338 L 1.55603 -3.68534 L 1.06257 -3.85696 L 0.5423 -3.96344 L 0 -4 L -0.5423 -3.96344 L -1.06257 -3.85696 L -1.55603 -3.68534 L -2.01787 -3.45338 L -2.44332 -3.16586 L -2.82758 -2.82758 L -3.16586 -2.44332 L -3.45338 -2.01787 L -3.68534 -1.55603 L -3.85696 -1.06257 L -3.96344 -0.5423 L -3.98716 -0.19048 Z M -3.60626 -0.19048 L -3.58605 -0.49156 L -3.48993 -0.96287 L -3.33496 -1.40965 L -3.12544 -1.8276 L -2.86566 -2.21245 L -2.5599 -2.5599 L -2.21245 -2.86566 L -1.8276 -3.12544 L -1.40965 -3.33496 L -0.96287 -3.48993 L -0.49156 -3.58605 L 0 -3.61905 L 0.49156 -3.58605 L 0.96287 -3.48993 L 1.40965 -3.33496 L 1.8276 -3.12544 L 2.21245 -2.86566 L 2.5599 -2.5599 L 2.86566 -2.21245 L 3.12544 -1.8276 L 3.33496 -1.40965 L 3.48993 -0.96287 L 3.58605 -0.49156 L 3.60626 -0.19048 L 2.07679 -0.19048 L 2.07239 -0.2386 L 2.06652 -0.29128 L 2.05878 -0.34838 L 2.04875 -0.40974 L 2.03603 -0.47524 L 2.0202 -0.54472 L 2.00086 -0.61806 L 1.97759 -0.6951 L 1.94998 -0.7757 L 1.91763 -0.85973 L 1.88012 -0.94704 L 1.83705 -1.0375 L 1.76552 -1.16789 L 1.68096 -1.29697 L 1.58284 -1.42283 L 1.47061 -1.54356 L 1.34374 -1.65725 L 1.20167 -1.76198 L 1.04388 -1.85584 L 0.86981 -1.93693 L 0.67893 -2.00332 L 0.4707 -2.05311 L 0.24457 -2.08439 L 0 -2.09524 L -0.24457 -2.08439 L -0.4707 -2.05311 L -0.67893 -2.00332 L -0.86981 -1.93693 L -1.04388 -1.85584 L -1.20167 -1.76198 L -1.34374 -1.65725 L -1.47061 -1.54356 L -1.58284 -1.42283 L -1.68096 -1.29697 L -1.76552 -1.16789 L -1.83705 -1.0375 L -1.88012 -0.94704 L -1.91763 -0.85973 L -1.94998 -0.7757 L -1.97759 -0.6951 L -2.00086 -0.61806 L -2.0202 -0.54472 L -2.03603 -0.47524 L -2.04875 -0.40974 L -2.05878 -0.34838 L -2.06652 -0.29128 L -2.07239 -0.2386 L -2.07679 -0.19048 L -3.60626 -0.19048 Z M 3.60626 0.19048 L 3.58605 0.49156 L 3.48993 0.96287 L 3.33496 1.40965 L 3.12544 1.8276 L 2.86566 2.21245 L 2.5599 2.5599 L 2.21245 2.86566 L 1.8276 3.12544 L 1.40965 3.33496 L 0.96287 3.48993 L 0.49156 3.58605 L 0 3.61905 L -0.49156 3.58605 L -0.96287 3.48993 L -1.40965 3.33496 L -1.8276 3.12544 L -2.21245 2.86566 L -2.5599 2.5599 L -2.86566 2.21245 L -3.12544 1.8276 L -3.33496 1.40965 L -3.48993 0.96287 L -3.58605 0.49156 L -3.60626 0.19048 L -1.71429 0.19048 L -1.71429 0 L -1.71411 -0.00884 L -1.71309 -0.03433 L -1.71051 -0.07493 L -1.70563 -0.12912 L -1.69772 -0.19535 L -1.68605 -0.2721 L -1.6699 -0.35781 L -1.64852 -0.45097 L -1.62121 -0.55003 L -1.58721 -0.65345 L -1.54581 -0.75971 L -1.49628 -0.86726 L -1.43857 -0.97442 L -1.37239 -1.07957 L -1.29662 -1.18134 L -1.21016 -1.27831 L -1.11189 -1.3691 L -1.00071 -1.45231 L -0.87549 -1.52654 L -0.73512 -1.59041 L -0.57851 -1.64251 L -0.40452 -1.68146 L -0.21206 -1.70585 L 0 -1.71429 L 0.21206 -1.70585 L 0.40452 -1.68146 L 0.57851 -1.64251 L 0.73512 -1.59041 L 0.87549 -1.52654 L 1.00071 -1.45231 L 1.11189 -1.3691 L 1.21016 -1.27831 L 1.29662 -1.18134 L 1.37239 -1.07957 L 1.43857 -0.97442 L 1.49628 -0.86726 L 1.54581 -0.75971 L 1.58721 -0.65345 L 1.62121 -0.55003 L 1.64852 -0.45097 L 1.6699 -0.35781 L 1.68605 -0.2721 L 1.69772 -0.19535 L 1.70563 -0.12912 L 1.71051 -0.07493 L 1.71309 -0.03433 L 1.71411 -0.00884 L 1.71429 0 L 1.71429 0.19048 L 3.60626 0.19048 Z" />
</svg>