<svg version="1.1" xmlns="http://www.w3.org/2000/svg" viewBox="-6.795133783877477 -5.000000922731556 13.590267567754953 10.000001845463126" fill="black" stroke="none">
    <path fill-rule="evenodd" d="M 2.55122 -4 L 2.27806 -3.72684 L 3.10734 -2.89757 L 1.3688 -1.15903 L -4.05659 -1.15903 L -4.05659 -0.96586 L -4.05659 0.28976 L -5.79513 0.28976 L -5.79513 0.6761 L -4.05659 0.6761 L -4.05659 2.12488 L -1.91511 2.12488 L -3.51707 3.72684 L -3.24392 4 L -1.3688 2.12488 L 4.05659 2.12488 L 4.05659 0.6761 L 5.79513 0.6761 L 5.79513 0.28976 L 4.05659 0.28976 L 4.05659 -1.15903 L 1.91511 -1.15903 L 3.38049 -2.62441 L 4.20977 -1.79513 L 4.48293 -2.06829 L 2.55122 -4 Z M 1.52877 -0.77268 L 3.67025 -0.77268 L 3.67025 1.73854 L -0.98246 1.73854 L 1.52877 -0.77268 Z M -3.67025 -0.77268 L 0.98246 -0.77268 L -1.52877 1.73854 L -3.67025 1.73854 L -3.67025 -0.77268 Z" />
</svg>