<svg version="1.1" xmlns="http://www.w3.org/2000/svg" viewBox="-7.956522577819791 -5.000000907246379 15.913045155639582 10.000001814492759" fill="black" stroke="none">
    <path fill-rule="evenodd" d="M 3.09331 3.42591 L 6.95652 3.42591 L 6.95652 2.96214 L 3.09724 2.96214 L 3.06627 2.87366 L 3.01902 2.78 L 2.96049 2.69363 L 2.89169 2.61555 L 2.81361 2.54675 L 2.72725 2.48823 L 2.63359 2.44098 L 2.53364 2.40599 L 2.42839 2.38427 L 2.31884 2.37681 L 2.20929 2.38427 L 2.10404 2.40599 L 2.00409 2.44098 L 1.91043 2.48823 L 1.82407 2.54675 L 1.74599 2.61555 L 1.67719 2.69363 L 1.61866 2.78 L 1.57141 2.87366 L 1.53643 2.97361 L 1.51471 3.07885 L 1.50725 3.18841 L 1.51471 3.29796 L 1.53643 3.40321 L 1.57141 3.50316 L 1.61866 3.59681 L 1.67719 3.68318 L 1.74599 3.76126 L 1.82407 3.83006 L 1.91043 3.88858 L 2.00409 3.93583 L 2.10404 3.97082 L 2.20929 3.99254 L 2.31884 4 L 2.42839 3.99254 L 2.53364 3.97082 L 2.63359 3.93583 L 2.72725 3.88858 L 2.81361 3.83006 L 2.89169 3.76126 L 2.96049 3.68318 L 3.01902 3.59681 L 3.06627 3.50316 L 3.09331 3.42591 Z M 2.31884 2.84058 L 2.36662 2.8437 L 2.41226 2.85281 L 2.45539 2.86753 L 2.49562 2.88746 L 2.53255 2.91222 L 2.56582 2.94143 L 2.59503 2.97469 L 2.61979 3.01163 L 2.63972 3.05186 L 2.65443 3.09499 L 2.66354 3.14063 L 2.66667 3.18841 L 2.66354 3.23618 L 2.65443 3.28183 L 2.63972 3.32495 L 2.61979 3.36518 L 2.59503 3.40212 L 2.56582 3.43539 L 2.53255 3.46459 L 2.49562 3.48935 L 2.45539 3.50928 L 2.41226 3.524 L 2.36662 3.53311 L 2.31884 3.53623 L 2.27107 3.53311 L 2.22542 3.524 L 2.18229 3.50928 L 2.14207 3.48935 L 2.10513 3.46459 L 2.07186 3.43539 L 2.04265 3.40212 L 2.01789 3.36518 L 1.99796 3.32495 L 1.98325 3.28183 L 1.97414 3.23618 L 1.97101 3.18841 L 1.97414 3.14063 L 1.98325 3.09499 L 1.99796 3.05186 L 2.01789 3.01163 L 2.04265 2.97469 L 2.07186 2.94143 L 2.10513 2.91222 L 2.14207 2.88746 L 2.18229 2.86753 L 2.22542 2.85281 L 2.27107 2.8437 L 2.31884 2.84058 Z M 3.09331 -1.21178 L 6.95652 -1.21178 L 6.95652 -1.67554 L 3.09724 -1.67554 L 3.06627 -1.76403 L 3.01902 -1.85768 L 2.96049 -1.94405 L 2.89169 -2.02213 L 2.81361 -2.09093 L 2.72725 -2.14945 L 2.63359 -2.1967 L 2.53364 -2.23169 L 2.42839 -2.25341 L 2.31884 -2.26087 L 2.20929 -2.25341 L 2.10404 -2.23169 L 2.00409 -2.1967 L 1.91043 -2.14945 L 1.82407 -2.09093 L 1.74599 -2.02213 L 1.67719 -1.94405 L 1.61866 -1.85768 L 1.57141 -1.76403 L 1.53643 -1.66408 L 1.51471 -1.55883 L 1.50725 -1.44928 L 1.51471 -1.33972 L 1.53643 -1.23448 L 1.57141 -1.13453 L 1.61866 -1.04087 L 1.67719 -0.9545 L 1.74599 -0.87642 L 1.82407 -0.80762 L 1.91043 -0.7491 L 2.00409 -0.70185 L 2.10404 -0.66686 L 2.20929 -0.64514 L 2.31884 -0.63768 L 2.42839 -0.64514 L 2.53364 -0.66686 L 2.63359 -0.70185 L 2.72725 -0.7491 L 2.81361 -0.80762 L 2.89169 -0.87642 L 2.96049 -0.9545 L 3.01902 -1.04087 L 3.06627 -1.13453 L 3.09331 -1.21178 Z M 2.31884 -1.7971 L 2.36662 -1.79398 L 2.41226 -1.78487 L 2.45539 -1.77015 L 2.49562 -1.75022 L 2.53255 -1.72546 L 2.56582 -1.69626 L 2.59503 -1.66299 L 2.61979 -1.62605 L 2.63972 -1.58582 L 2.65443 -1.54269 L 2.66354 -1.49705 L 2.66667 -1.44928 L 2.66354 -1.4015 L 2.65443 -1.35586 L 2.63972 -1.31273 L 2.61979 -1.2725 L 2.59503 -1.23556 L 2.56582 -1.2023 L 2.53255 -1.17309 L 2.49562 -1.14833 L 2.45539 -1.1284 L 2.41226 -1.11368 L 2.36662 -1.10457 L 2.31884 -1.10145 L 2.27107 -1.10457 L 2.22542 -1.11368 L 2.18229 -1.1284 L 2.14207 -1.14833 L 2.10513 -1.17309 L 2.07186 -1.2023 L 2.04265 -1.23556 L 2.01789 -1.2725 L 1.99796 -1.31273 L 1.98325 -1.35586 L 1.97414 -1.4015 L 1.97101 -1.44928 L 1.97414 -1.49705 L 1.98325 -1.54269 L 1.99796 -1.58582 L 2.01789 -1.62605 L 2.04265 -1.66299 L 2.07186 -1.69626 L 2.10513 -1.72546 L 2.14207 -1.75022 L 2.18229 -1.77015 L 2.22542 -1.78487 L 2.27107 -1.79398 L 2.31884 -1.7971 Z M -1.15942 -4 L -1.15942 -3.53623 L -0.23188 -3.53623 L -0.23188 -0.52174 L -3.47826 -0.52174 L -3.47826 -0.05797 L 3.47826 -0.05797 L 3.47826 -0.52174 L 0.23188 -0.52174 L 0.23188 -3.53623 L 1.15942 -3.53623 L 1.15942 -4 L -1.15942 -4 Z M -3.09724 -1.22301 L -3.06627 -1.13453 L -3.01902 -1.04087 L -2.96049 -0.9545 L -2.89169 -0.87642 L -2.81361 -0.80762 L -2.72725 -0.7491 L -2.63359 -0.70185 L -2.53364 -0.66686 L -2.42839 -0.64514 L -2.31884 -0.63768 L -2.20929 -0.64514 L -2.10404 -0.66686 L -2.00409 -0.70185 L -1.91043 -0.7491 L -1.82407 -0.80762 L -1.74599 -0.87642 L -1.67719 -0.9545 L -1.61866 -1.04087 L -1.57141 -1.13453 L -1.53643 -1.23448 L -1.51471 -1.33972 L -1.50725 -1.44928 L -1.51471 -1.55883 L -1.53643 -1.66408 L -1.57141 -1.76403 L -1.61866 -1.85768 L -1.67719 -1.94405 L -1.74599 -2.02213 L -1.82407 -2.09093 L -1.91043 -2.14945 L -2.00409 -2.1967 L -2.10404 -2.23169 L -2.20929 -2.25341 L -2.31884 -2.26087 L -2.42839 -2.25341 L -2.53364 -2.23169 L -2.63359 -2.1967 L -2.72725 -2.14945 L -2.81361 -2.09093 L -2.89169 -2.02213 L -2.96049 -1.94405 L -3.01902 -1.85768 L -3.06627 -1.76403 L -3.09331 -1.68678 L -6.95652 -1.68678 L -6.95652 -1.22301 L -3.09724 -1.22301 Z M -2.31884 -1.7971 L -2.27107 -1.79398 L -2.22542 -1.78487 L -2.18229 -1.77015 L -2.14207 -1.75022 L -2.10513 -1.72546 L -2.07186 -1.69626 L -2.04265 -1.66299 L -2.01789 -1.62605 L -1.99796 -1.58582 L -1.98325 -1.54269 L -1.97414 -1.49705 L -1.97101 -1.44928 L -1.97414 -1.4015 L -1.98325 -1.35586 L -1.99796 -1.31273 L -2.01789 -1.2725 L -2.04265 -1.23556 L -2.07186 -1.2023 L -2.10513 -1.17309 L -2.14207 -1.14833 L -2.18229 -1.1284 L -2.22542 -1.11368 L -2.27107 -1.10457 L -2.31884 -1.10145 L -2.36662 -1.10457 L -2.41226 -1.11368 L -2.45539 -1.1284 L -2.49562 -1.14833 L -2.53255 -1.17309 L -2.56582 -1.2023 L -2.59503 -1.23556 L -2.61979 -1.2725 L -2.63972 -1.31273 L -2.65443 -1.35586 L -2.66354 -1.4015 L -2.66667 -1.44928 L -2.66354 -1.49705 L -2.65443 -1.54269 L -2.63972 -1.58582 L -2.61979 -1.62605 L -2.59503 -1.66299 L -2.56582 -1.69626 L -2.53255 -1.72546 L -2.49562 -1.75022 L -2.45539 -1.77015 L -2.41226 -1.78487 L -2.36662 -1.79398 L -2.31884 -1.7971 Z M -3.09724 3.41467 L -3.06627 3.50316 L -3.01902 3.59681 L -2.96049 3.68318 L -2.89169 3.76126 L -2.81361 3.83006 L -2.72725 3.88858 L -2.63359 3.93583 L -2.53364 3.97082 L -2.42839 3.99254 L -2.31884 4 L -2.20929 3.99254 L -2.10404 3.97082 L -2.00409 3.93583 L -1.91043 3.88858 L -1.82407 3.83006 L -1.74599 3.76126 L -1.67719 3.68318 L -1.61866 3.59681 L -1.57141 3.50316 L -1.53643 3.40321 L -1.51471 3.29796 L -1.50725 3.18841 L -1.51471 3.07885 L -1.53643 2.97361 L -1.57141 2.87366 L -1.61866 2.78 L -1.67719 2.69363 L -1.74599 2.61555 L -1.82407 2.54675 L -1.91043 2.48823 L -2.00409 2.44098 L -2.10404 2.40599 L -2.20929 2.38427 L -2.31884 2.37681 L -2.42839 2.38427 L -2.53364 2.40599 L -2.63359 2.44098 L -2.72725 2.48823 L -2.81361 2.54675 L -2.89169 2.61555 L -2.96049 2.69363 L -3.01902 2.78 L -3.06627 2.87366 L -3.09331 2.95091 L -6.95652 2.95091 L -6.95652 3.41467 L -3.09724 3.41467 Z M -2.31884 2.84058 L -2.27107 2.8437 L -2.22542 2.85281 L -2.18229 2.86753 L -2.14207 2.88746 L -2.10513 2.91222 L -2.07186 2.94143 L -2.04265 2.97469 L -2.01789 3.01163 L -1.99796 3.05186 L -1.98325 3.09499 L -1.97414 3.14063 L -1.97101 3.18841 L -1.97414 3.23618 L -1.98325 3.28183 L -1.99796 3.32495 L -2.01789 3.36518 L -2.04265 3.40212 L -2.07186 3.43539 L -2.10513 3.46459 L -2.14207 3.48935 L -2.18229 3.50928 L -2.22542 3.524 L -2.27107 3.53311 L -2.31884 3.53623 L -2.36662 3.53311 L -2.41226 3.524 L -2.45539 3.50928 L -2.49562 3.48935 L -2.53255 3.46459 L -2.56582 3.43539 L -2.59503 3.40212 L -2.61979 3.36518 L -2.63972 3.32495 L -2.65443 3.28183 L -2.66354 3.23618 L -2.66667 3.18841 L -2.66354 3.14063 L -2.65443 3.09499 L -2.63972 3.05186 L -2.61979 3.01163 L -2.59503 2.97469 L -2.56582 2.94143 L -2.53255 2.91222 L -2.49562 2.88746 L -2.45539 2.86753 L -2.41226 2.85281 L -2.36662 2.8437 L -2.31884 2.84058 Z" />
</svg>