<svg version="1.1" xmlns="http://www.w3.org/2000/svg" viewBox="-8.03812400203817 -5.000000906158361 16.07624800407634 10.000001812316722" fill="black" stroke="none">
    <path fill-rule="evenodd" d="M 4.30659 3.40781 L 7.03812 3.40781 L 7.03812 2.9386 L 4.30261 2.9386 L 4.27526 2.86044 L 4.22745 2.76569 L 4.16824 2.67831 L 4.09863 2.59931 L 4.01964 2.52971 L 3.93226 2.4705 L 3.8375 2.42269 L 3.73638 2.3873 L 3.6299 2.36532 L 3.51906 2.35777 L 3.40822 2.36532 L 3.30174 2.3873 L 3.20062 2.42269 L 3.10586 2.4705 L 3.01848 2.52971 L 2.93949 2.59931 L 2.86988 2.67831 L 2.81067 2.76569 L 2.76287 2.86044 L 2.72747 2.96157 L 2.7055 3.06805 L 2.69795 3.17889 L 2.7055 3.28972 L 2.72747 3.39621 L 2.76287 3.49733 L 2.81067 3.59208 L 2.86988 3.67946 L 2.93949 3.75846 L 3.01848 3.82807 L 3.10586 3.88728 L 3.20062 3.93508 L 3.30174 3.97048 L 3.40822 3.99245 L 3.51906 4 L 3.6299 3.99245 L 3.73638 3.97048 L 3.8375 3.93508 L 3.93226 3.88728 L 4.01964 3.82807 L 4.09863 3.75846 L 4.16824 3.67946 L 4.22745 3.59208 L 4.27526 3.49733 L 4.30659 3.40781 Z M 3.51906 2.82698 L 3.5674 2.83014 L 3.61358 2.83936 L 3.65721 2.85424 L 3.69791 2.87441 L 3.73528 2.89946 L 3.76894 2.92901 L 3.79849 2.96266 L 3.82354 3.00004 L 3.8437 3.04074 L 3.85859 3.08437 L 3.86781 3.13055 L 3.87097 3.17889 L 3.86781 3.22722 L 3.85859 3.2734 L 3.8437 3.31704 L 3.82354 3.35773 L 3.79849 3.39511 L 3.76894 3.42876 L 3.73528 3.45831 L 3.69791 3.48336 L 3.65721 3.50353 L 3.61358 3.51841 L 3.5674 3.52763 L 3.51906 3.53079 L 3.47073 3.52763 L 3.42455 3.51841 L 3.38091 3.50353 L 3.34021 3.48336 L 3.30284 3.45831 L 3.26918 3.42876 L 3.23964 3.39511 L 3.21458 3.35773 L 3.19442 3.31704 L 3.17953 3.2734 L 3.17031 3.22722 L 3.16716 3.17889 L 3.17031 3.13055 L 3.17953 3.08437 L 3.19442 3.04074 L 3.21458 3.00004 L 3.23964 2.96266 L 3.26918 2.92901 L 3.30284 2.89946 L 3.34021 2.87441 L 3.38091 2.85424 L 3.42455 2.83936 L 3.47073 2.83014 L 3.51906 2.82698 Z" />
    <path d="M -7.03812 -4 L -7.03812 -3.53079 L -6.08101 -3.53079 L -6.07604 -3.48316 L -6.06994 -3.43281 L -6.0625 -3.37979 L -6.0535 -3.32416 L -6.0427 -3.26599 L -6.0299 -3.20534 L -6.01487 -3.14228 L -5.99738 -3.07686 L -5.97722 -3.00915 L -5.95416 -2.93921 L -5.92798 -2.8671 L -5.89846 -2.79289 L -5.84176 -2.66922 L -5.77376 -2.5458 L -5.6941 -2.42461 L -5.60247 -2.30768 L -5.49853 -2.19699 L -5.38195 -2.09456 L -5.25239 -2.00239 L -5.10952 -1.92248 L -4.953 -1.85684 L -4.78251 -1.80748 L -4.59772 -1.77639 L -4.39828 -1.76558 L -4.2072 -1.77545 L -4.0298 -1.8039 L -3.86575 -1.84917 L -3.71469 -1.90952 L -3.5763 -1.98319 L -3.45022 -2.06844 L -3.33612 -2.1635 L -3.23366 -2.26664 L -3.14248 -2.3761 L -3.06226 -2.49013 L -2.99264 -2.60697 L -2.93328 -2.72489 L -2.87404 -2.60632 L -2.80446 -2.48877 L -2.72422 -2.37401 L -2.63298 -2.26381 L -2.53038 -2.15995 L -2.41609 -2.06419 L -2.28977 -1.97831 L -2.15108 -1.90407 L -1.99967 -1.84325 L -1.8352 -1.79761 L -1.65733 -1.76893 L -1.46573 -1.75898 L -1.27439 -1.76891 L -1.09678 -1.79752 L -0.93254 -1.84305 L -0.78134 -1.90373 L -0.64283 -1.9778 L -0.51667 -2.0635 L -0.40251 -2.15906 L -0.30002 -2.26272 L -0.20885 -2.37271 L -0.12865 -2.48728 L -0.05909 -2.60465 L 0.00018 -2.72306 L 0.05951 -2.60464 L 0.12913 -2.48726 L 0.20939 -2.3727 L 0.30063 -2.2627 L 0.4032 -2.15904 L 0.51743 -2.06349 L 0.64366 -1.97779 L 0.78224 -1.90372 L 0.9335 -1.84304 L 1.09779 -1.79752 L 1.27545 -1.76891 L 1.46683 -1.75898 L 1.65816 -1.76891 L 1.83577 -1.79752 L 2.00001 -1.84305 L 2.15121 -1.90373 L 2.28972 -1.9778 L 2.41588 -2.0635 L 2.53004 -2.15906 L 2.63253 -2.26272 L 2.7237 -2.37271 L 2.8039 -2.48728 L 2.87346 -2.60465 L 2.93273 -2.72306 L 2.99206 -2.60464 L 3.06168 -2.48726 L 3.14194 -2.3727 L 3.23318 -2.2627 L 3.33575 -2.15904 L 3.44998 -2.06349 L 3.57621 -1.97779 L 3.71479 -1.90372 L 3.86605 -1.84304 L 4.03034 -1.79752 L 4.20801 -1.76891 L 4.39938 -1.75898 L 4.59874 -1.76976 L 4.78346 -1.80075 L 4.95388 -1.84997 L 5.11032 -1.91541 L 5.25313 -1.99508 L 5.38262 -2.08698 L 5.49914 -2.18911 L 5.60303 -2.29948 L 5.6946 -2.41608 L 5.77421 -2.53693 L 5.84217 -2.66002 L 5.89883 -2.78336 L 5.92826 -2.85721 L 5.95437 -2.92898 L 5.97739 -2.99861 L 5.99752 -3.06603 L 6.01499 -3.13119 L 6.03003 -3.19402 L 6.04283 -3.25445 L 6.05364 -3.31243 L 6.06266 -3.36789 L 6.07011 -3.42076 L 6.07622 -3.47099 L 6.08119 -3.51851 L 7.03812 -3.51851 L 7.03812 -3.98772 L 5.8651 -3.98772 L 5.84976 -3.98722 L 5.83448 -3.98571 L 5.81934 -3.98321 L 5.80438 -3.97972 L 5.78969 -3.97526 L 5.77533 -3.96986 L 5.76134 -3.96352 L 5.74781 -3.95628 L 5.73477 -3.94817 L 5.72229 -3.93923 L 5.71042 -3.92949 L 5.69922 -3.919 L 5.68872 -3.90779 L 5.67899 -3.89593 L 5.67004 -3.88345 L 5.66194 -3.87041 L 5.6547 -3.85687 L 5.64836 -3.84289 L 5.64295 -3.82852 L 5.6385 -3.81383 L 5.63501 -3.79888 L 5.63251 -3.78374 L 5.631 -3.76846 L 5.6305 -3.75312 L 5.63035 -3.745 L 5.62953 -3.72161 L 5.6275 -3.68439 L 5.62372 -3.63476 L 5.61766 -3.57417 L 5.60877 -3.50404 L 5.59651 -3.42582 L 5.58033 -3.34094 L 5.55971 -3.25084 L 5.53409 -3.15694 L 5.50295 -3.06069 L 5.46573 -2.96353 L 5.42298 -2.86743 L 5.37499 -2.77413 L 5.32081 -2.68469 L 5.2595 -2.60018 L 5.19012 -2.52164 L 5.11173 -2.45014 L 5.02338 -2.38673 L 4.92414 -2.33248 L 4.81306 -2.28844 L 4.6892 -2.25567 L 4.55162 -2.23524 L 4.39938 -2.22819 L 4.24713 -2.23524 L 4.10953 -2.25568 L 3.98564 -2.28846 L 3.87452 -2.33252 L 3.77523 -2.38679 L 3.68683 -2.45022 L 3.60838 -2.52174 L 3.53895 -2.6003 L 3.47758 -2.68484 L 3.42334 -2.77429 L 3.37528 -2.8676 L 3.33248 -2.96371 L 3.2952 -3.06088 L 3.26399 -3.15712 L 3.23831 -3.251 L 3.21763 -3.34109 L 3.20139 -3.42595 L 3.18908 -3.50414 L 3.18013 -3.57424 L 3.17402 -3.63481 L 3.17021 -3.68442 L 3.16815 -3.72163 L 3.16731 -3.745 L 3.16716 -3.75312 L 3.16716 -3.75312 L 3.16716 -3.75313 L 3.16716 -3.75315 L 3.16716 -3.75316 L 3.16716 -3.75319 L 3.16716 -3.75321 L 3.16716 -3.75323 L 3.16716 -3.75325 L 3.16716 -3.75327 L 3.16716 -3.75329 L 3.16716 -3.7533 L 3.16716 -3.7533 L 3.16474 -3.78362 L 3.15843 -3.81337 L 3.14832 -3.84206 L 3.13458 -3.8692 L 3.11745 -3.89433 L 3.09722 -3.91703 L 3.07421 -3.93693 L 3.04883 -3.95368 L 3.02149 -3.96701 L 2.99265 -3.97669 L 2.96281 -3.98256 L 2.93246 -3.98452 L 2.90211 -3.98254 L 2.87227 -3.97664 L 2.84344 -3.96694 L 2.81612 -3.95359 L 2.79074 -3.93682 L 2.76776 -3.9169 L 2.74754 -3.89418 L 2.73043 -3.86904 L 2.71671 -3.84189 L 2.70663 -3.81319 L 2.70034 -3.78344 L 2.69795 -3.75312 L 2.69779 -3.745 L 2.69697 -3.72161 L 2.69495 -3.68439 L 2.69117 -3.63476 L 2.68511 -3.57417 L 2.67622 -3.50404 L 2.66396 -3.42582 L 2.64778 -3.34094 L 2.62716 -3.25084 L 2.60154 -3.15694 L 2.5704 -3.06069 L 2.53317 -2.96353 L 2.49043 -2.86743 L 2.44243 -2.77413 L 2.38825 -2.68469 L 2.32695 -2.60018 L 2.25757 -2.52164 L 2.17918 -2.45014 L 2.09083 -2.38673 L 1.99159 -2.33248 L 1.88051 -2.28844 L 1.75665 -2.25567 L 1.61907 -2.23524 L 1.46683 -2.22819 L 1.31457 -2.23524 L 1.17697 -2.25568 L 1.05309 -2.28846 L 0.94197 -2.33252 L 0.84268 -2.38679 L 0.75428 -2.45022 L 0.67583 -2.52174 L 0.60639 -2.6003 L 0.54502 -2.68484 L 0.49078 -2.77429 L 0.44273 -2.8676 L 0.39993 -2.96371 L 0.36265 -3.06088 L 0.33144 -3.15712 L 0.30576 -3.251 L 0.28508 -3.34109 L 0.26884 -3.42595 L 0.25652 -3.50414 L 0.24758 -3.57424 L 0.24147 -3.63481 L 0.23766 -3.68442 L 0.2356 -3.72163 L 0.23476 -3.745 L 0.2346 -3.75312 L 0.2346 -3.75312 L 0.2346 -3.75313 L 0.2346 -3.75315 L 0.2346 -3.75316 L 0.2346 -3.75319 L 0.2346 -3.75321 L 0.2346 -3.75323 L 0.2346 -3.75325 L 0.2346 -3.75327 L 0.2346 -3.75329 L 0.2346 -3.7533 L 0.2346 -3.7533 L 0.23219 -3.78362 L 0.22588 -3.81337 L 0.21577 -3.84206 L 0.20203 -3.8692 L 0.1849 -3.89433 L 0.16466 -3.91703 L 0.14166 -3.93693 L 0.11627 -3.95368 L 0.08894 -3.96701 L 0.0601 -3.97669 L 0.03026 -3.98256 L -0.00009 -3.98452 L -0.03044 -3.98254 L -0.06028 -3.97664 L -0.08911 -3.96694 L -0.11644 -3.95359 L -0.14181 -3.93682 L -0.1648 -3.9169 L -0.18501 -3.89418 L -0.20213 -3.86904 L -0.21584 -3.84189 L -0.22593 -3.81319 L -0.23222 -3.78344 L -0.2346 -3.75312 L -0.23476 -3.745 L -0.23558 -3.72161 L -0.2376 -3.68439 L -0.24138 -3.63476 L -0.24744 -3.57417 L -0.25633 -3.50404 L -0.26859 -3.42582 L -0.28477 -3.34094 L -0.30539 -3.25084 L -0.33101 -3.15694 L -0.36215 -3.06069 L -0.39938 -2.96353 L -0.44212 -2.86743 L -0.49012 -2.77413 L -0.5443 -2.68469 L -0.6056 -2.60018 L -0.67498 -2.52164 L -0.75337 -2.45014 L -0.84172 -2.38673 L -0.94096 -2.33248 L -1.05204 -2.28844 L -1.1759 -2.25567 L -1.31348 -2.23524 L -1.46573 -2.22819 L -1.61798 -2.23524 L -1.75558 -2.25568 L -1.87947 -2.28846 L -1.99058 -2.33252 L -2.08987 -2.38679 L -2.17827 -2.45022 L -2.25672 -2.52174 L -2.32616 -2.6003 L -2.38753 -2.68484 L -2.44177 -2.77429 L -2.48982 -2.8676 L -2.53262 -2.96371 L -2.5699 -3.06088 L -2.60111 -3.15712 L -2.62679 -3.251 L -2.64748 -3.34109 L -2.66371 -3.42595 L -2.67603 -3.50414 L -2.68497 -3.57424 L -2.69108 -3.63481 L -2.69489 -3.68442 L -2.69695 -3.72163 L -2.69779 -3.745 L -2.69795 -3.75312 L -2.69795 -3.75312 L -2.69795 -3.75313 L -2.69795 -3.75315 L -2.69795 -3.75316 L -2.69795 -3.75319 L -2.69795 -3.75321 L -2.69795 -3.75323 L -2.69795 -3.75325 L -2.69795 -3.75327 L -2.69795 -3.75329 L -2.69795 -3.7533 L -2.69795 -3.7533 L -2.70036 -3.78362 L -2.70667 -3.81337 L -2.71678 -3.84206 L -2.73052 -3.8692 L -2.74765 -3.89433 L -2.76789 -3.91703 L -2.79089 -3.93693 L -2.81628 -3.95368 L -2.84362 -3.96701 L -2.87245 -3.97669 L -2.90229 -3.98256 L -2.93264 -3.98452 L -2.96299 -3.98254 L -2.99283 -3.97664 L -3.02166 -3.96694 L -3.04899 -3.95359 L -3.07436 -3.93682 L -3.09735 -3.9169 L -3.11757 -3.89418 L -3.13468 -3.86904 L -3.14839 -3.84189 L -3.15848 -3.81319 L -3.16477 -3.78344 L -3.16716 -3.75312 L -3.16731 -3.74504 L -3.16814 -3.72176 L -3.17017 -3.68471 L -3.17396 -3.63532 L -3.18003 -3.57501 L -3.18893 -3.50522 L -3.2012 -3.42736 L -3.21737 -3.34288 L -3.23799 -3.25319 L -3.2636 -3.15973 L -3.29473 -3.06392 L -3.33193 -2.96719 L -3.37464 -2.87152 L -3.4226 -2.77862 L -3.47675 -2.68956 L -3.53802 -2.60538 L -3.60738 -2.52715 L -3.68575 -2.45593 L -3.77408 -2.39276 L -3.87333 -2.33871 L -3.98443 -2.29483 L -4.10832 -2.26218 L -4.24596 -2.24181 L -4.39828 -2.23479 L -4.55046 -2.24186 L -4.68802 -2.26237 L -4.81188 -2.29525 L -4.92298 -2.33945 L -5.02226 -2.3939 L -5.11067 -2.45754 L -5.18913 -2.5293 L -5.25859 -2.60813 L -5.31999 -2.69297 L -5.37426 -2.78274 L -5.42234 -2.8764 L -5.46518 -2.97287 L -5.50248 -3.07042 L -5.5337 -3.16704 L -5.55939 -3.26129 L -5.58007 -3.35173 L -5.5963 -3.43692 L -5.60862 -3.51543 L -5.61755 -3.58581 L -5.62366 -3.64662 L -5.62746 -3.69642 L -5.62951 -3.73378 L -5.63034 -3.75725 L -5.6305 -3.7654 L -5.631 -3.78074 L -5.63251 -3.79602 L -5.63501 -3.81116 L -5.6385 -3.82611 L -5.64295 -3.8408 L -5.64836 -3.85517 L -5.6547 -3.86915 L -5.66194 -3.88269 L -5.67004 -3.89573 L -5.67899 -3.90821 L -5.68872 -3.92007 L -5.69922 -3.93128 L -5.71042 -3.94177 L -5.72229 -3.95151 L -5.73477 -3.96045 L -5.74781 -3.96856 L -5.76134 -3.9758 L -5.77533 -3.98214 L -5.78969 -3.98754 L -5.80438 -3.992 L -5.81934 -3.99549 L -5.83448 -3.99799 L -5.84976 -3.9995 L -5.8651 -4 L -7.03812 -4 Z" />
    <path d="M -5.8651 -1.06745 L -5.8651 -0.59824 L 5.8651 -0.59824 L 5.8651 -1.06745 L -5.8651 -1.06745 Z" />
    <path fill-rule="evenodd" d="M -4.30261 3.41917 L -4.27526 3.49733 L -4.22745 3.59208 L -4.16824 3.67946 L -4.09863 3.75846 L -4.01964 3.82807 L -3.93226 3.88728 L -3.8375 3.93508 L -3.73638 3.97048 L -3.6299 3.99245 L -3.51906 4 L -3.40822 3.99245 L -3.30174 3.97048 L -3.20062 3.93508 L -3.10586 3.88728 L -3.01849 3.82807 L -2.93949 3.75846 L -2.86988 3.67946 L -2.81067 3.59208 L -2.76287 3.49733 L -2.72747 3.39621 L -2.7055 3.28972 L -2.69795 3.17889 L -2.7055 3.06805 L -2.72747 2.96157 L -2.76287 2.86044 L -2.81067 2.76569 L -2.86988 2.67831 L -2.93949 2.59931 L -3.01849 2.52971 L -3.10586 2.4705 L -3.20062 2.42269 L -3.30174 2.3873 L -3.40822 2.36532 L -3.51906 2.35777 L -3.6299 2.36532 L -3.73638 2.3873 L -3.8375 2.42269 L -3.93226 2.4705 L -4.01964 2.52971 L -4.09863 2.59931 L -4.16824 2.67831 L -4.22745 2.76569 L -4.27526 2.86044 L -4.30659 2.94996 L -7.03812 2.94996 L -7.03812 3.41917 L -4.30261 3.41917 Z M -3.51906 2.82698 L -3.47073 2.83014 L -3.42455 2.83936 L -3.38091 2.85424 L -3.34021 2.87441 L -3.30284 2.89946 L -3.26918 2.92901 L -3.23964 2.96266 L -3.21458 3.00004 L -3.19442 3.04074 L -3.17953 3.08437 L -3.17031 3.13055 L -3.16716 3.17889 L -3.17031 3.22722 L -3.17953 3.2734 L -3.19442 3.31704 L -3.21458 3.35773 L -3.23964 3.39511 L -3.26918 3.42876 L -3.30284 3.45831 L -3.34021 3.48336 L -3.38091 3.50353 L -3.42455 3.51841 L -3.47073 3.52763 L -3.51906 3.53079 L -3.5674 3.52763 L -3.61358 3.51841 L -3.65721 3.50353 L -3.69791 3.48336 L -3.73528 3.45831 L -3.76894 3.42876 L -3.79849 3.39511 L -3.82354 3.35773 L -3.8437 3.31704 L -3.85859 3.2734 L -3.86781 3.22722 L -3.87097 3.17889 L -3.86781 3.13055 L -3.85859 3.08437 L -3.8437 3.04074 L -3.82354 3.00004 L -3.79849 2.96266 L -3.76894 2.92901 L -3.73528 2.89946 L -3.69791 2.87441 L -3.65721 2.85424 L -3.61358 2.83936 L -3.5674 2.83014 L -3.51906 2.82698 Z" />
</svg>