<svg version="1.1" xmlns="http://www.w3.org/2000/svg" viewBox="-6.936281088795099 -5.000000920849606 13.872562177590199 10.000001841699198" fill="black" stroke="none">
    <path fill-rule="evenodd" d="M -1.13495 0.76031 L 4.1554 0.76031 L 4.1554 -0.72376 L 5.93628 -0.72376 L 5.93628 -1.11951 L 4.1554 -1.11951 L 4.1554 -2.60358 L 1.68979 -2.60358 L 2.8624 -4 L 1.56638 -2.60358 L -4.1554 -2.60358 L -4.1554 -2.40571 L -4.1554 -1.11951 L -5.93628 -1.11951 L -5.93628 -0.72376 L -4.1554 -0.72376 L -4.1554 0.76031 L -1.55567 0.76031 L -2.56574 1.84863 L -4.9469 1.84863 L -4.9469 2.24438 L -2.38116 2.24438 L -1.13495 0.76031 Z M 1.35747 -2.20783 L 3.75964 -2.20783 L 3.75964 0.36456 L -0.80263 0.36456 L 1.35747 -2.20783 Z M -1.18837 0.36456 L -3.75964 0.36456 L -3.75964 -2.20783 L 1.19908 -2.20783 L -1.18837 0.36456 Z" />
    <path d="M 2.87633 2.47075 L 2.87633 2.78735 L 2.61196 2.78735 L 2.61196 3.38889 L 2.6117 3.39781 L 2.61149 3.40672 L 2.61133 3.41563 L 2.61122 3.42455 L 2.61115 3.43346 L 2.61113 3.44238 L 2.61116 3.45129 L 2.61124 3.46021 L 2.61137 3.46912 L 2.61155 3.47804 L 2.61177 3.48695 L 2.61204 3.49586 L 2.61236 3.50477 L 2.61273 3.51368 L 2.61315 3.52259 L 2.61362 3.53149 L 2.61413 3.54039 L 2.6147 3.54929 L 2.61531 3.55818 L 2.61597 3.56707 L 2.61667 3.57596 L 2.61743 3.58485 L 2.61823 3.59373 L 2.61909 3.6026 L 2.6198 3.60508 L 2.62059 3.60755 L 2.62144 3.60999 L 2.62237 3.6124 L 2.62336 3.61478 L 2.62443 3.61714 L 2.62555 3.61947 L 2.62675 3.62176 L 2.62801 3.62401 L 2.62933 3.62623 L 2.63072 3.62842 L 2.63217 3.63056 L 2.63368 3.63265 L 2.63525 3.63471 L 2.63688 3.63671 L 2.63856 3.63867 L 2.6403 3.64059 L 2.6421 3.64245 L 2.64395 3.64426 L 2.64584 3.64601 L 2.64779 3.64771 L 2.64979 3.64935 L 2.65183 3.65094 L 2.65391 3.65246 L 2.65629 3.65408 L 2.6587 3.65564 L 2.66116 3.65713 L 2.66366 3.65856 L 2.66619 3.65992 L 2.66876 3.66122 L 2.67136 3.66244 L 2.67399 3.6636 L 2.67665 3.66469 L 2.67934 3.66571 L 2.68205 3.66665 L 2.68479 3.66753 L 2.68755 3.66833 L 2.69033 3.66906 L 2.69313 3.66971 L 2.69594 3.6703 L 2.69877 3.6708 L 2.70162 3.67124 L 2.70447 3.67159 L 2.70733 3.67188 L 2.7102 3.67208 L 2.71307 3.67222 L 2.71594 3.67227 L 2.71882 3.67225 L 2.7271 3.67142 L 2.73536 3.6705 L 2.74362 3.66948 L 2.75187 3.66838 L 2.7601 3.66718 L 2.76832 3.66588 L 2.77653 3.6645 L 2.78472 3.66302 L 2.79289 3.66146 L 2.80104 3.6598 L 2.80918 3.65805 L 2.81729 3.65621 L 2.82538 3.65428 L 2.83346 3.65226 L 2.8415 3.65015 L 2.84953 3.64795 L 2.85753 3.64566 L 2.8655 3.64328 L 2.87345 3.64081 L 2.88136 3.63825 L 2.88925 3.6356 L 2.89711 3.63287 L 2.90494 3.63005 L 2.91273 3.62714 L 2.91273 3.93424 L 2.90047 3.9395 L 2.88812 3.94454 L 2.87569 3.94937 L 2.86317 3.95399 L 2.85058 3.9584 L 2.83792 3.96258 L 2.82518 3.96656 L 2.81238 3.97031 L 2.79952 3.97384 L 2.78659 3.97715 L 2.77362 3.98024 L 2.76059 3.98311 L 2.74751 3.98576 L 2.73439 3.98818 L 2.72124 3.99037 L 2.70804 3.99234 L 2.69482 3.99409 L 2.68156 3.99561 L 2.66829 3.9969 L 2.65499 3.99796 L 2.64167 3.9988 L 2.62835 3.9994 L 2.61501 3.99978 L 2.60167 3.99994 L 2.59362 4 L 2.58557 3.99993 L 2.57752 3.99971 L 2.56948 3.99936 L 2.56144 3.99887 L 2.55341 3.99824 L 2.5454 3.99747 L 2.5374 3.99656 L 2.52941 3.99551 L 2.52145 3.99433 L 2.51351 3.993 L 2.50559 3.99154 L 2.4977 3.98995 L 2.48983 3.98821 L 2.482 3.98635 L 2.4742 3.98434 L 2.46644 3.9822 L 2.45871 3.97993 L 2.45103 3.97753 L 2.44339 3.97499 L 2.43579 3.97232 L 2.42824 3.96952 L 2.42074 3.96659 L 2.4133 3.96353 L 2.40722 3.96117 L 2.4012 3.95867 L 2.39524 3.95603 L 2.38934 3.95324 L 2.38351 3.95032 L 2.37776 3.94726 L 2.37208 3.94406 L 2.36647 3.94073 L 2.36095 3.93727 L 2.35551 3.93367 L 2.35016 3.92995 L 2.3449 3.9261 L 2.33973 3.92213 L 2.33466 3.91803 L 2.32969 3.91382 L 2.32481 3.90949 L 2.32005 3.90504 L 2.31539 3.90048 L 2.31084 3.89581 L 2.3064 3.89104 L 2.30208 3.88616 L 2.29787 3.88118 L 2.29378 3.8761 L 2.28982 3.87092 L 2.28622 3.86506 L 2.28273 3.85914 L 2.27935 3.85315 L 2.27607 3.8471 L 2.27291 3.84099 L 2.26987 3.83483 L 2.26693 3.82861 L 2.26411 3.82234 L 2.26141 3.81601 L 2.25882 3.80964 L 2.25635 3.80323 L 2.25399 3.79676 L 2.25176 3.79026 L 2.24964 3.78372 L 2.24765 3.77714 L 2.24577 3.77052 L 2.24402 3.76387 L 2.24239 3.75719 L 2.24089 3.75048 L 2.2395 3.74374 L 2.23824 3.73698 L 2.23711 3.7302 L 2.23609 3.7234 L 2.23521 3.71658 L 2.23395 3.70505 L 2.23277 3.69351 L 2.23165 3.68197 L 2.23059 3.67043 L 2.2296 3.65887 L 2.22868 3.64732 L 2.22782 3.63575 L 2.22703 3.62418 L 2.2263 3.61261 L 2.22564 3.60103 L 2.22504 3.58945 L 2.22452 3.57787 L 2.22405 3.56628 L 2.22366 3.5547 L 2.22333 3.54311 L 2.22306 3.53151 L 2.22287 3.51992 L 2.22274 3.50833 L 2.22267 3.49673 L 2.22267 3.48513 L 2.22274 3.47354 L 2.22287 3.46194 L 2.22307 3.45035 L 2.22333 3.43876 L 2.22333 2.78735 L 1.96135 2.78735 L 1.96135 2.47075 L 2.22333 2.47075 L 2.22333 1.9167 L 2.61196 1.9167 L 2.61196 2.47075 L 2.87633 2.47075 Z" />
    <path fill-rule="evenodd" d="M 3.06075 1.97368 L 3.06078 1.95905 L 3.06131 1.94443 L 3.06232 1.92983 L 3.06382 1.91527 L 3.06581 1.90077 L 3.06828 1.88635 L 3.07123 1.87202 L 3.07466 1.85779 L 3.07856 1.84369 L 3.08293 1.82972 L 3.08777 1.81591 L 3.09306 1.80227 L 3.09881 1.78881 L 3.10501 1.77555 L 3.11164 1.76251 L 3.11871 1.74969 L 3.1262 1.73712 L 3.13411 1.72481 L 3.14242 1.71277 L 3.15113 1.70101 L 3.16023 1.68955 L 3.16971 1.6784 L 3.17956 1.66757 L 3.18976 1.65708 L 3.19992 1.64679 L 3.21043 1.63686 L 3.22127 1.62729 L 3.23243 1.6181 L 3.2439 1.60929 L 3.25567 1.60089 L 3.26772 1.59289 L 3.28003 1.58531 L 3.2926 1.57816 L 3.30541 1.57144 L 3.31843 1.56516 L 3.33167 1.55934 L 3.3451 1.55397 L 3.3587 1.54906 L 3.37246 1.54463 L 3.38637 1.54067 L 3.4004 1.53718 L 3.41455 1.53418 L 3.42879 1.53167 L 3.44311 1.52965 L 3.45749 1.52811 L 3.47191 1.52708 L 3.48636 1.52653 L 3.50082 1.52649 L 3.51527 1.52652 L 3.52972 1.52705 L 3.54413 1.52808 L 3.5585 1.52961 L 3.57281 1.53164 L 3.58704 1.53416 L 3.60117 1.53717 L 3.61519 1.54067 L 3.62908 1.54465 L 3.64283 1.54912 L 3.65641 1.55405 L 3.66981 1.55946 L 3.68302 1.56532 L 3.69602 1.57164 L 3.70879 1.57841 L 3.72132 1.58561 L 3.73359 1.59324 L 3.74559 1.6013 L 3.7573 1.60976 L 3.76871 1.61863 L 3.77981 1.62788 L 3.79058 1.63752 L 3.80101 1.64752 L 3.81109 1.65787 L 3.83075 1.67945 L 3.84898 1.70224 L 3.86571 1.72616 L 3.88087 1.7511 L 3.89439 1.77696 L 3.90623 1.80364 L 3.91633 1.83102 L 3.92465 1.85899 L 3.93116 1.88745 L 3.93583 1.91626 L 3.93864 1.94531 L 3.93957 1.97448 L 3.93864 2.00365 L 3.93583 2.0327 L 3.93116 2.06151 L 3.92465 2.08996 L 3.91633 2.11793 L 3.90623 2.14532 L 3.89439 2.17199 L 3.88087 2.19786 L 3.86571 2.2228 L 3.84898 2.24671 L 3.83075 2.2695 L 3.81109 2.29108 L 3.79036 2.31121 L 3.76832 2.3299 L 3.74508 2.34708 L 3.72074 2.36266 L 3.69542 2.37658 L 3.66922 2.38878 L 3.64226 2.39919 L 3.61466 2.40777 L 3.58656 2.41448 L 3.55806 2.4193 L 3.52931 2.4222 L 3.50043 2.42317 L 3.47154 2.4222 L 3.44279 2.4193 L 3.4143 2.41448 L 3.38619 2.40777 L 3.35859 2.39919 L 3.33164 2.38878 L 3.30543 2.37658 L 3.28011 2.36266 L 3.25577 2.34708 L 3.23253 2.3299 L 3.2105 2.31121 L 3.18976 2.29108 L 3.17953 2.28057 L 3.16965 2.26972 L 3.16014 2.25855 L 3.15102 2.24707 L 3.14228 2.23528 L 3.13395 2.22321 L 3.12602 2.21087 L 3.11852 2.19827 L 3.11144 2.18542 L 3.1048 2.17234 L 3.0986 2.15905 L 3.09284 2.14556 L 3.08755 2.13188 L 3.08272 2.11803 L 3.07835 2.10402 L 3.07446 2.08988 L 3.07104 2.07561 L 3.06811 2.06124 L 3.06566 2.04678 L 3.0637 2.03224 L 3.06222 2.01765 L 3.06124 2.00301 L 3.06075 1.98835 L 3.06075 1.97368 Z M 3.28949 1.97368 L 3.28951 1.98072 L 3.28977 1.98775 L 3.29027 1.99477 L 3.291 2.00177 L 3.29196 2.00874 L 3.29316 2.01568 L 3.2946 2.02256 L 3.29626 2.0294 L 3.29816 2.03618 L 3.30028 2.04289 L 3.30262 2.04952 L 3.30519 2.05607 L 3.30798 2.06254 L 3.31098 2.0689 L 3.31419 2.07516 L 3.31762 2.08131 L 3.32125 2.08733 L 3.32508 2.09324 L 3.3291 2.09901 L 3.33332 2.10464 L 3.33773 2.11013 L 3.34232 2.11546 L 3.34708 2.12064 L 3.35202 2.12565 L 3.362 2.1352 L 3.37259 2.14407 L 3.38375 2.15221 L 3.39542 2.15959 L 3.40756 2.16619 L 3.42011 2.17196 L 3.43301 2.17689 L 3.44621 2.18096 L 3.45965 2.18414 L 3.47327 2.18642 L 3.48702 2.18779 L 3.50082 2.18825 L 3.51463 2.18779 L 3.52837 2.18642 L 3.54199 2.18414 L 3.55544 2.18096 L 3.56864 2.17689 L 3.58154 2.17196 L 3.59409 2.16619 L 3.60622 2.15959 L 3.61789 2.15221 L 3.62905 2.14407 L 3.63964 2.1352 L 3.64962 2.12565 L 3.6545 2.1206 L 3.6592 2.1154 L 3.66373 2.11003 L 3.66808 2.10452 L 3.67225 2.09887 L 3.67622 2.09309 L 3.68 2.08717 L 3.68358 2.08114 L 3.68696 2.07499 L 3.69013 2.06872 L 3.69309 2.06236 L 3.69584 2.0559 L 3.69837 2.04936 L 3.70069 2.04273 L 3.70278 2.03603 L 3.70465 2.02927 L 3.70629 2.02244 L 3.70771 2.01557 L 3.7089 2.00865 L 3.70985 2.0017 L 3.71058 1.99472 L 3.71107 1.98772 L 3.71133 1.9807 L 3.71136 1.97368 L 3.71137 1.96666 L 3.71114 1.95964 L 3.71067 1.95263 L 3.70997 1.94565 L 3.70903 1.93869 L 3.70786 1.93176 L 3.70646 1.92488 L 3.70482 1.91805 L 3.70296 1.91128 L 3.70087 1.90457 L 3.69856 1.89794 L 3.69603 1.89139 L 3.69328 1.88493 L 3.69031 1.87856 L 3.68713 1.8723 L 3.68374 1.86615 L 3.68015 1.86012 L 3.67635 1.85421 L 3.67236 1.84843 L 3.66818 1.84278 L 3.66381 1.83729 L 3.65926 1.83194 L 3.65453 1.82675 L 3.64962 1.82172 L 3.63969 1.81207 L 3.62914 1.80312 L 3.61801 1.79489 L 3.60635 1.78742 L 3.59422 1.78075 L 3.58167 1.77491 L 3.56876 1.76992 L 3.55554 1.76581 L 3.54208 1.76259 L 3.52843 1.76028 L 3.51466 1.75889 L 3.50082 1.75843 L 3.48699 1.75889 L 3.47321 1.76028 L 3.45957 1.76259 L 3.4461 1.76581 L 3.43288 1.76992 L 3.41997 1.77491 L 3.40742 1.78075 L 3.39529 1.78742 L 3.38363 1.79489 L 3.3725 1.80312 L 3.36195 1.81207 L 3.35202 1.82172 L 3.34706 1.82671 L 3.34226 1.83187 L 3.33765 1.83719 L 3.33322 1.84267 L 3.32899 1.84829 L 3.32494 1.85405 L 3.32109 1.85995 L 3.31745 1.86598 L 3.31402 1.87212 L 3.31079 1.87838 L 3.30778 1.88475 L 3.30499 1.89122 L 3.30243 1.89777 L 3.30008 1.90441 L 3.29797 1.91113 L 3.29608 1.91791 L 3.29443 1.92476 L 3.29301 1.93165 L 3.29183 1.9386 L 3.29088 1.94557 L 3.29018 1.95258 L 3.28971 1.95961 L 3.28948 1.96664 L 3.28949 1.97368 Z" />
</svg>