<svg version="1.1" xmlns="http://www.w3.org/2000/svg" viewBox="-5.000000946666668 -5.000000946666668 10.000001893333335 10.000001893333335" fill="black" stroke="none">
    <path fill-rule="evenodd" d="M -4 1.46667 L -2.8 1.46667 L -2.8 3.46667 L -0.14823 3.46667 L -0.14823 4 L 0.11844 4 L 0.11844 3.46667 L 2.8 3.46667 L 2.8 1.46667 L 4 1.46667 L 4 1.2 L 2.8 1.2 L 2.8 -1.2 L 4 -1.2 L 4 -1.46667 L 2.8 -1.46667 L 2.8 -3.46667 L 0.14823 -3.46667 L 0.14823 -4 L -0.11844 -4 L -0.11844 -3.46667 L -2.8 -3.46667 L -2.8 -1.46667 L -4 -1.46667 L -4 -1.2 L -2.8 -1.2 L -2.8 1.2 L -4 1.2 L -4 1.46667 Z M -2.53333 3.2 L -2.53333 -3.2 L 2.53333 -3.2 L 2.53333 3.2 L -2.53333 3.2 Z" />
</svg>