<svg version="1.1" xmlns="http://www.w3.org/2000/svg" viewBox="-6.869 -5 13.738 10" fill="black" stroke="none"><path fill-rule="evenodd" d="M -4 -3.65 L -3.96 -3.63 L -3.844 -3.576 L -3.659 -3.494 L -3.412 -3.391 L -3.109 -3.274 L -2.758 -3.151 L -2.364 -3.027 L -1.935 -2.91 L -1.478 -2.807 L -0.998 -2.725 L -0.503 -2.671 L 0 -2.651 L 0.503 -2.671 L 0.998 -2.725 L 1.478 -2.807 L 1.935 -2.91 L 2.364 -3.027 L 2.758 -3.151 L 3.109 -3.274 L 3.412 -3.391 L 3.659 -3.494 L 3.844 -3.576 L 3.96 -3.63 L 4 -3.65 L 3.825 -4 L 3.786 -3.981 L 3.673 -3.929 L 3.493 -3.85 L 3.254 -3.752 L 2.961 -3.64 L 2.622 -3.521 L 2.243 -3.403 L 1.832 -3.291 L 1.395 -3.192 L 0.94 -3.113 L 0.473 -3.061 L 0 -3.043 L -0.473 -3.061 L -0.94 -3.113 L -1.395 -3.192 L -1.832 -3.291 L -2.243 -3.403 L -2.622 -3.521 L -2.961 -3.64 L -3.254 -3.752 L -3.493 -3.85 L -3.673 -3.929 L -3.786 -3.981 L -3.825 -4 L -4 -3.65 Z M -5.869 -1.712 L 5.869 -1.712 L 5.869 -2.104 L -5.869 -2.104 L -5.869 -1.712 Z M -4 -0.087 L -3.825 0.262 L -3.789 0.245 L -3.683 0.197 L -3.515 0.123 L -3.29 0.031 L -3.015 -0.075 L -2.695 -0.187 L -2.338 -0.302 L -1.948 -0.411 L -1.533 -0.51 L -1.099 -0.592 L -0.651 -0.652 L -0.196 -0.684 L -0.196 4 L 0.196 4 L 0.196 -0.684 L 0.651 -0.652 L 1.099 -0.592 L 1.533 -0.51 L 1.948 -0.411 L 2.338 -0.302 L 2.695 -0.187 L 3.015 -0.075 L 3.29 0.031 L 3.515 0.123 L 3.683 0.197 L 3.789 0.245 L 3.825 0.262 L 4 -0.087 L 3.96 -0.107 L 3.844 -0.161 L 3.659 -0.244 L 3.412 -0.346 L 3.109 -0.463 L 2.758 -0.587 L 2.364 -0.711 L 1.935 -0.827 L 1.478 -0.93 L 0.998 -1.012 L 0.503 -1.067 L 0 -1.086 L -0.503 -1.067 L -0.998 -1.012 L -1.478 -0.93 L -1.935 -0.827 L -2.364 -0.711 L -2.758 -0.587 L -3.109 -0.463 L -3.412 -0.346 L -3.659 -0.244 L -3.844 -0.161 L -3.96 -0.107 L -4 -0.087 Z" /></svg>