<svg version="1.1" xmlns="http://www.w3.org/2000/svg" viewBox="-6.730381880652956 -5.000000923594922 13.460763761305913 10.000001847189845" fill="black" stroke="none">
    <path fill-rule="evenodd" d="M 0.16894 2.68544 L 0.18191 2.68544 L 0.18191 2.49443 L -0.18885 2.49443 L -2.70161 1.15296 L -2.69822 1.14327 L -2.68032 1.05657 L -2.67418 0.96633 L -2.68032 0.87609 L -2.69822 0.78939 L -2.72703 0.70706 L -2.76596 0.62991 L -2.81416 0.55877 L -2.87084 0.49445 L -2.93516 0.43777 L -3.0063 0.38956 L -3.08345 0.35064 L -3.16578 0.32182 L -3.25248 0.30393 L -3.34272 0.29779 L -3.43296 0.30393 L -3.51966 0.32182 L -3.602 0.35064 L -3.67914 0.38956 L -3.75029 0.43777 L -3.81461 0.49445 L -3.87128 0.55877 L -3.91949 0.62991 L -3.95841 0.70706 L -3.974 0.75159 L -5.73038 0.75159 L -5.73038 1.13362 L -3.98922 1.13362 L -3.98723 1.14327 L -3.95841 1.2256 L -3.91949 1.30275 L -3.87128 1.3739 L -3.81461 1.43821 L -3.75029 1.49489 L -3.67914 1.5431 L -3.602 1.58202 L -3.51966 1.61084 L -3.43296 1.62873 L -3.34272 1.63487 L -3.25248 1.62873 L -3.16578 1.61084 L -3.08345 1.58202 L -3.0063 1.5431 L -2.93516 1.49489 L -2.91143 1.47398 L 1.82014 4 L 2.00011 3.66304 L 0.16894 2.68544 Z M -3.34272 0.67981 L -3.30337 0.68238 L -3.26577 0.68989 L -3.23024 0.70201 L -3.19711 0.71843 L -3.16668 0.73882 L -3.13927 0.76288 L -3.11522 0.79028 L -3.09482 0.82071 L -3.0784 0.85385 L -3.06628 0.88938 L -3.05878 0.92698 L -3.0562 0.96633 L -3.05878 1.00568 L -3.06628 1.04328 L -3.0784 1.07881 L -3.09482 1.11195 L -3.11522 1.14238 L -3.13927 1.16978 L -3.16668 1.19384 L -3.19711 1.21423 L -3.23024 1.23065 L -3.26577 1.24277 L -3.30337 1.25028 L -3.34272 1.25285 L -3.38208 1.25028 L -3.41968 1.24277 L -3.4552 1.23065 L -3.48834 1.21423 L -3.51877 1.19384 L -3.54617 1.16978 L -3.57023 1.14238 L -3.59063 1.11195 L -3.60704 1.07881 L -3.61916 1.04328 L -3.62667 1.00568 L -3.62924 0.96633 L -3.62667 0.92698 L -3.61916 0.88938 L -3.60704 0.85385 L -3.59063 0.82071 L -3.57023 0.79028 L -3.54617 0.76288 L -3.51877 0.73882 L -3.48834 0.71843 L -3.4552 0.70201 L -3.41968 0.68989 L -3.38208 0.68238 L -3.34272 0.67981 Z M 2.38108 1.14824 L 1.91013 1.86409 L 1.43917 1.14824 L 1.4326 1.14824 L 1.4326 1.13824 L 1.4326 0.76621 L 5.73038 0.76621 L 5.73038 1.14824 L 2.38108 1.14824 Z M -0.20012 1.73038 L -0.20012 2.11241 L 0.18191 2.11241 L 0.18191 1.73038 L -0.20012 1.73038 Z M -0.20012 0.96633 L -0.20012 1.34836 L 0.18191 1.34836 L 0.18191 0.96633 L -0.20012 0.96633 Z M -0.20012 0.20228 L -0.20012 0.5843 L 0.18191 0.5843 L 0.18191 0.20228 L -0.20012 0.20228 Z M -0.20012 -1.70785 L 0.18191 -1.70785 L 4.01127 -1.70785 L 4.01127 -2.66291 L 5.73038 -2.66291 L 5.73038 -3.04494 L 4.01127 -3.04494 L 4.01127 -4 L -4.01127 -4 L -4.01127 -3.80899 L -4.01127 -3.05941 L -5.73038 -3.05941 L -5.73038 -2.67739 L -4.01127 -2.67739 L -4.01127 -1.70785 L -0.20012 -1.70785 Z M -3.62924 -3.61797 L 3.62924 -3.61797 L 3.62924 -2.08987 L -3.62924 -2.08987 L -3.62924 -3.61797 Z M -0.20012 -1.32582 L -0.20012 -0.9438 L 0.18191 -0.9438 L 0.18191 -1.32582 L -0.20012 -1.32582 Z M -0.20012 -0.56177 L -0.20012 -0.17975 L 0.18191 -0.17975 L 0.18191 -0.56177 L -0.20012 -0.56177 Z" />
</svg>