<svg version="1.1" xmlns="http://www.w3.org/2000/svg" viewBox="-11.911 -5 23.822 10" fill="black" stroke="none"><path d="M -3.635 -4 L -4.101 -3.979 L -4.533 -3.92 L -4.931 -3.825 L -5.295 -3.698 L -5.627 -3.543 L -5.929 -3.364 L -6.2 -3.164 L -6.442 -2.947 L -6.656 -2.716 L -6.844 -2.476 L -7.005 -2.23 L -7.142 -1.981 L -7.224 -1.807 L -7.296 -1.64 L -7.358 -1.479 L -7.411 -1.325 L -7.455 -1.177 L -7.492 -1.037 L -7.522 -0.904 L -7.546 -0.779 L -7.566 -0.662 L -7.58 -0.553 L -7.591 -0.452 L -7.6 -0.361 L -10.911 -0.327 L -10.904 0.4 L -6.907 0.36 L -6.907 0 L -6.907 -0.017 L -6.905 -0.066 L -6.9 -0.143 L -6.891 -0.246 L -6.876 -0.373 L -6.853 -0.519 L -6.822 -0.683 L -6.782 -0.861 L -6.73 -1.05 L -6.665 -1.248 L -6.586 -1.45 L -6.491 -1.656 L -6.381 -1.86 L -6.255 -2.061 L -6.11 -2.255 L -5.945 -2.44 L -5.757 -2.614 L -5.545 -2.773 L -5.306 -2.914 L -5.038 -3.036 L -4.739 -3.136 L -4.407 -3.21 L -4.039 -3.257 L -3.635 -3.273 L -3.23 -3.257 L -2.862 -3.21 L -2.53 -3.136 L -2.231 -3.036 L -1.963 -2.914 L -1.724 -2.773 L -1.512 -2.614 L -1.324 -2.44 L -1.159 -2.255 L -1.014 -2.061 L -0.888 -1.86 L -0.778 -1.656 L -0.683 -1.45 L -0.604 -1.248 L -0.539 -1.05 L -0.487 -0.861 L -0.447 -0.683 L -0.416 -0.519 L -0.393 -0.373 L -0.378 -0.246 L -0.369 -0.143 L -0.364 -0.066 L -0.362 -0.017 L -0.362 0 L -0.362 0.02 L -0.36 0.078 L -0.355 0.169 L -0.345 0.292 L -0.328 0.443 L -0.302 0.617 L -0.266 0.812 L -0.218 1.025 L -0.156 1.251 L -0.078 1.488 L 0.017 1.733 L 0.131 1.981 L 0.268 2.23 L 0.429 2.476 L 0.616 2.716 L 0.831 2.947 L 1.073 3.164 L 1.344 3.364 L 1.645 3.543 L 1.978 3.698 L 2.342 3.825 L 2.74 3.92 L 3.171 3.979 L 3.638 4 L 4.105 3.979 L 4.537 3.92 L 4.934 3.825 L 5.299 3.698 L 5.631 3.543 L 5.932 3.364 L 6.204 3.164 L 6.446 2.947 L 6.66 2.716 L 6.847 2.476 L 7.009 2.23 L 7.145 1.981 L 7.228 1.808 L 7.299 1.641 L 7.361 1.481 L 7.414 1.327 L 7.458 1.18 L 7.495 1.04 L 7.525 0.907 L 7.549 0.782 L 7.569 0.665 L 7.583 0.556 L 7.595 0.456 L 7.603 0.364 L 10.911 0.364 L 10.911 -0.364 L 6.911 -0.364 L 6.911 0 L 6.911 0.017 L 6.909 0.066 L 6.904 0.143 L 6.894 0.246 L 6.879 0.373 L 6.857 0.519 L 6.826 0.683 L 6.785 0.861 L 6.733 1.05 L 6.668 1.248 L 6.589 1.45 L 6.495 1.656 L 6.385 1.86 L 6.258 2.061 L 6.114 2.255 L 5.949 2.44 L 5.761 2.614 L 5.549 2.773 L 5.31 2.914 L 5.042 3.036 L 4.743 3.136 L 4.41 3.21 L 4.043 3.257 L 3.638 3.273 L 3.233 3.257 L 2.866 3.21 L 2.534 3.136 L 2.235 3.036 L 1.967 2.914 L 1.728 2.773 L 1.516 2.614 L 1.328 2.44 L 1.163 2.255 L 1.018 2.061 L 0.892 1.86 L 0.782 1.656 L 0.687 1.45 L 0.608 1.248 L 0.543 1.05 L 0.491 0.861 L 0.45 0.683 L 0.419 0.519 L 0.397 0.373 L 0.382 0.246 L 0.373 0.143 L 0.368 0.066 L 0.366 0.017 L 0.365 0 L 0.365 -0.02 L 0.364 -0.078 L 0.358 -0.169 L 0.348 -0.292 L 0.331 -0.443 L 0.306 -0.617 L 0.27 -0.812 L 0.222 -1.025 L 0.16 -1.251 L 0.082 -1.488 L -0.013 -1.733 L -0.127 -1.981 L -0.264 -2.23 L -0.425 -2.476 L -0.613 -2.716 L -0.827 -2.947 L -1.069 -3.164 L -1.34 -3.364 L -1.642 -3.543 L -1.974 -3.698 L -2.338 -3.825 L -2.736 -3.92 L -3.168 -3.979 L -3.635 -4 Z" /></svg>