<svg version="1.1" xmlns="http://www.w3.org/2000/svg" viewBox="-8.500000812500005 -5.0000009000000025 17.00000162500001 10.000001800000005" fill="black" stroke="none">
    <path fill-rule="evenodd" d="M -7.5 0.24395 L -4.375 0.24395 L -4.14395 0.08926 L -3.39648 -1.72441 L -2.30138 2.37103 L -3.24219 3.5 L -6.25 3.5 L -6.25 4 L -3.00781 4 L -1.81169 2.56465 L -1.7666 2.56465 L -1.74525 2.48493 L -0.11678 0.53076 L 0.42754 2.56465 L 0.91035 2.56505 L 2.00801 -1.50194 L 3.10469 2.56505 L 3.57715 2.59513 L 4.54238 0.25 L 7.5 0.25 L 7.5 -0.25 L 4.375 -0.25 L 4.14375 -0.09512 L 3.39531 1.72324 L 2.29392 -2.36208 L 3.24219 -3.5 L 6.25 -3.5 L 6.25 -4 L 3.00781 -4 L 1.78044 -2.52715 L 1.7666 -2.52715 L 1.75998 -2.50259 L 0.11674 -0.53071 L -0.42754 -2.56465 L -0.91055 -2.56465 L -2.00781 1.53301 L -3.10449 -2.56758 L -3.57715 -2.59824 L -4.54238 -0.25605 L -7.5 -0.25605 L -7.5 0.24395 Z M 0.27498 0.06065 L 1.44815 -1.34716 L 0.66992 1.53652 L 0.27498 0.06065 Z M -1.43694 1.3337 L -0.66914 -1.5332 L -0.27503 -0.06058 L -1.43694 1.3337 Z" />
</svg>