<svg version="1.1" xmlns="http://www.w3.org/2000/svg" viewBox="-8.274105503179875 -5.000000903011941 16.54821100635975 10.000001806023882" fill="black" stroke="none">
    <path fill-rule="evenodd" d="M 4.0089 0.1084 L 4.01133 0.14419 L 4.04212 0.29374 L 4.09172 0.43571 L 4.15873 0.56869 L 4.24174 0.69127 L 4.33935 0.80206 L 4.45016 0.89964 L 4.57277 0.98263 L 4.70576 1.04962 L 4.84774 1.09921 L 4.99731 1.12999 L 5.15306 1.14056 L 5.3088 1.12999 L 5.45836 1.09921 L 5.60033 1.04962 L 5.7333 0.98263 L 5.85588 0.89964 L 5.96667 0.80206 L 6.06426 0.69127 L 6.14725 0.56869 L 6.21424 0.43571 L 6.26382 0.29374 L 6.27437 0.24247 L 7.2741 0.24247 L 7.2741 -0.24247 L 6.27913 -0.24247 L 6.26382 -0.31687 L 6.21424 -0.45885 L 6.14725 -0.59185 L 6.06426 -0.71445 L 5.96667 -0.82526 L 5.85588 -0.92287 L 5.7333 -1.00589 L 5.60033 -1.07289 L 5.45836 -1.12249 L 5.3088 -1.15328 L 5.15306 -1.16386 L 4.99731 -1.15328 L 4.84774 -1.12249 L 4.70576 -1.07289 L 4.57277 -1.00589 L 4.45016 -0.92287 L 4.33935 -0.82526 L 4.24174 -0.71445 L 4.15873 -0.59185 L 4.09172 -0.45885 L 4.04212 -0.31687 L 4.01133 -0.1673 L 4.00738 -0.10903 L -5.38284 -4 L -5.38284 -3.63705 L -5.38284 -0.24247 L -7.2741 -0.24247 L -7.2741 0.24247 L -5.38284 0.24247 L -5.38284 4 L 4.0089 0.1084 Z M 5.15306 -0.67892 L 5.24421 -0.67288 L 5.33144 -0.65527 L 5.41399 -0.62687 L 5.4911 -0.58843 L 5.56199 -0.54072 L 5.62592 -0.48451 L 5.68211 -0.42056 L 5.72979 -0.34964 L 5.76821 -0.27251 L 5.7966 -0.18995 L 5.8142 -0.10271 L 5.82023 -0.01156 L 5.8142 0.07959 L 5.7966 0.16682 L 5.76821 0.24937 L 5.72979 0.32648 L 5.68211 0.39738 L 5.62592 0.46131 L 5.56199 0.51749 L 5.4911 0.56518 L 5.41399 0.6036 L 5.33144 0.63199 L 5.24421 0.64958 L 5.15306 0.65562 L 5.06191 0.64958 L 4.97467 0.63199 L 4.8921 0.6036 L 4.81497 0.56518 L 4.74405 0.51749 L 4.6801 0.46131 L 4.62389 0.39738 L 4.57618 0.32648 L 4.53774 0.24937 L 4.50934 0.16682 L 4.49174 0.07959 L 4.4857 -0.01156 L 4.49174 -0.10271 L 4.50934 -0.18995 L 4.53774 -0.27251 L 4.57618 -0.34964 L 4.62389 -0.42056 L 4.6801 -0.48451 L 4.74405 -0.54072 L 4.81497 -0.58843 L 4.8921 -0.62687 L 4.97467 -0.65527 L 5.06191 -0.67288 L 5.15306 -0.67892 Z M -4.8979 -3.2741 L 3.00341 0 L -4.8979 3.2741 L -4.8979 -3.2741 Z" />
</svg>