<svg version="1.1" xmlns="http://www.w3.org/2000/svg" viewBox="-5.000000946666668 -5.000000946666668 10.000001893333335 10.000001893333335" fill="black" stroke="none">
    <path fill-rule="evenodd" d="M -0.1499 -4 L -0.1499 -1.55729 L -2.8 -2.8824 L -2.8 -2.66667 L -2.8 -1.46667 L -4 -1.46667 L -4 -1.2 L -2.8 -1.2 L -2.8 1.2 L -4 1.2 L -4 1.46667 L -2.8 1.46667 L -2.8 2.8824 L -0.1301 1.5475 L -0.1301 4 L 0.13656 4 L 0.13656 1.41417 L 2.69812 0.13333 L 4 0.13333 L 4 -0.13333 L 2.69812 -0.13333 L 0.11677 -1.42396 L 0.11677 -4 L -0.1499 -4 Z M -2.53333 -2.45094 L 2.36854 0 L -2.53333 2.45094 L -2.53333 -2.45094 Z" />
    <path d="M -2.16 1.04 L -2.16 1.30667 L -1.17333 1.30667 L -1.17333 1.04 L -2.16 1.04 Z" />
    <path d="M -1.8 -1.66667 L -1.8 -1.30667 L -2.16 -1.30667 L -2.16 -1.04 L -1.8 -1.04 L -1.8 -0.68 L -1.53333 -0.68 L -1.53333 -1.04 L -1.17333 -1.04 L -1.17333 -1.30667 L -1.53333 -1.30667 L -1.53333 -1.66667 L -1.8 -1.66667 Z" />
</svg>