<svg version="1.1" xmlns="http://www.w3.org/2000/svg" viewBox="-9 -5 18 10" fill="black" stroke="none"><path fill-rule="evenodd" d="M 2.667 -2.4 L 3.733 -2.4 L 3.733 -1.333 L 4.267 -1.333 L 4.267 -2.4 L 5.333 -2.4 L 5.333 -2.933 L 4.267 -2.933 L 4.267 -4 L 3.733 -4 L 3.733 -2.933 L 2.667 -2.933 L 2.667 -2.4 Z M 0.72 4 L 1.253 4 L 1.253 1.6 L 8 1.6 L 8 1.067 L 1.253 1.067 L 1.253 -1.333 L 0.72 -1.333 L 0.72 4 Z M -8 1.6 L -1.253 1.6 L -1.253 2.667 L -0.72 2.667 L -0.72 0 L -1.253 0 L -1.253 1.067 L -8 1.067 L -8 1.6 Z M -5.333 -2.4 L -2.667 -2.4 L -2.667 -2.933 L -5.333 -2.933 L -5.333 -2.4 Z" /></svg>