<svg version="1.1" xmlns="http://www.w3.org/2000/svg" viewBox="-8.307500989282333 -5.000000902566674 48.03817835348145 55.38155757888472" fill="black" stroke="none">
    <path fill-rule="evenodd" d="M 0.11998 -0.3911 L -0.41657 -2.39616 L -0.88718 -2.39616 L -1.95628 1.59633 L -3.02481 -2.39901 L -3.48533 -2.42889 L -4.42579 -0.14682 L -7.3075 -0.14682 L -7.3075 0.34035 L -4.26271 0.34035 L -4.03758 0.18963 L -3.30931 -1.57749 L -2.24047 2.41975 L -3.1584 3.51283 L -6.08958 3.51283 L -6.08958 4 L -2.93118 4 L -1.75682 2.60149 L -1.72126 2.60149 L -1.70461 2.53931 L -0.1087 0.6388 M -1.40668 1.42686 L -0.65197 -1.39118 L -0.26245 0.0643 M -0.26245 0.0643 L -1.40668 1.42686 M -0.1087 0.6388 L 0.41657 2.60149 L 0.88699 2.60188 L 1.95647 -1.36073 L 3.025 2.60188 L 3.48533 2.63118 L 4.4258 0.34625 L 7.3075 0.34625 L 7.3075 -0.14092 L 4.26271 -0.14092 L 4.03739 0.00999 L 3.30817 1.78168 L 2.24453 -2.16358 L 3.52358 -3.68677 L 3.1506 -4 L 1.77307 -2.35962 L 1.72126 -2.35962 L 1.69672 -2.26871 L 0.11998 -0.3911 M 0.27371 0.1834 L 1.39548 -1.15248 M 1.39548 -1.15248 L 0.65273 1.59975 L 0.27371 0.1834 M 37.42183 47.49906 L 37.42183 47.8888 L 37.0964 47.8888 L 37.0964 48.62929 L 37.09608 48.64026 L 37.09582 48.65123 L 37.09562 48.66221 L 37.09548 48.67318 L 37.0954 48.68416 L 37.09538 48.69513 L 37.09542 48.70611 L 37.09552 48.71708 L 37.09567 48.72805 L 37.09589 48.73903 L 37.09617 48.75 L 37.0965 48.76097 L 37.0969 48.77194 L 37.09735 48.7829 L 37.09787 48.79387 L 37.09844 48.80483 L 37.09907 48.81578 L 37.09977 48.82674 L 37.10052 48.83768 L 37.10133 48.84863 L 37.1022 48.85957 L 37.10313 48.87051 L 37.10412 48.88144 L 37.10517 48.89236 L 37.10605 48.89542 L 37.10702 48.89845 L 37.10807 48.90145 L 37.10921 48.90442 L 37.11044 48.90736 L 37.11174 48.91026 L 37.11313 48.91312 L 37.1146 48.91594 L 37.11616 48.91872 L 37.11779 48.92145 L 37.11949 48.92414 L 37.12128 48.92677 L 37.12314 48.92936 L 37.12507 48.93188 L 37.12707 48.93435 L 37.12915 48.93677 L 37.13129 48.93912 L 37.1335 48.94141 L 37.13577 48.94364 L 37.13811 48.9458 L 37.14051 48.94789 L 37.14296 48.94991 L 37.14547 48.95186 L 37.14804 48.95374 L 37.15097 48.95574 L 37.15394 48.95765 L 37.15696 48.95949 L 37.16004 48.96125 L 37.16315 48.96292 L 37.16631 48.96452 L 37.16951 48.96603 L 37.17275 48.96745 L 37.17603 48.96879 L 37.17934 48.97004 L 37.18268 48.97121 L 37.18605 48.97228 L 37.18945 48.97327 L 37.19287 48.97417 L 37.19632 48.97498 L 37.19978 48.97569 L 37.20327 48.97632 L 37.20676 48.97685 L 37.21027 48.97729 L 37.2138 48.97764 L 37.21733 48.97789 L 37.22086 48.97806 L 37.2244 48.97813 L 37.22794 48.9781 L 37.23813 48.97708 L 37.24831 48.97594 L 37.25847 48.97469 L 37.26863 48.97333 L 37.27876 48.97185 L 37.28888 48.97026 L 37.29898 48.96856 L 37.30906 48.96674 L 37.31912 48.96481 L 37.32916 48.96277 L 37.33917 48.96062 L 37.34916 48.95835 L 37.35912 48.95598 L 37.36906 48.95349 L 37.37897 48.95089 L 37.38884 48.94818 L 37.39869 48.94536 L 37.4085 48.94243 L 37.41829 48.93939 L 37.42803 48.93624 L 37.43774 48.93299 L 37.44742 48.92962 L 37.45705 48.92615 L 37.46665 48.92256 L 37.46665 49.30061 L 37.45156 49.30708 L 37.43635 49.31329 L 37.42105 49.31923 L 37.40564 49.32492 L 37.39014 49.33034 L 37.37455 49.3355 L 37.35887 49.34039 L 37.34311 49.34501 L 37.32728 49.34935 L 37.31137 49.35343 L 37.2954 49.35724 L 37.27936 49.36077 L 37.26326 49.36402 L 37.24711 49.367 L 37.23092 49.36971 L 37.21467 49.37213 L 37.19839 49.37428 L 37.18208 49.37615 L 37.16573 49.37774 L 37.14937 49.37904 L 37.13298 49.38007 L 37.11657 49.38082 L 37.10016 49.38129 L 37.08374 49.38148 L 37.07382 49.38156 L 37.06391 49.38146 L 37.054 49.3812 L 37.0441 49.38077 L 37.03421 49.38016 L 37.02433 49.37938 L 37.01446 49.37844 L 37.00461 49.37732 L 36.99478 49.37603 L 36.98498 49.37457 L 36.9752 49.37294 L 36.96546 49.37115 L 36.95574 49.36918 L 36.94606 49.36705 L 36.93642 49.36475 L 36.92682 49.36228 L 36.91726 49.35965 L 36.90775 49.35685 L 36.8983 49.35389 L 36.88889 49.35077 L 36.87954 49.34748 L 36.87024 49.34403 L 36.86101 49.34042 L 36.85184 49.33666 L 36.84436 49.33376 L 36.83695 49.33068 L 36.82961 49.32743 L 36.82236 49.324 L 36.81518 49.3204 L 36.8081 49.31663 L 36.80111 49.3127 L 36.79421 49.3086 L 36.78741 49.30433 L 36.78071 49.29991 L 36.77413 49.29533 L 36.76765 49.29059 L 36.76129 49.2857 L 36.75504 49.28066 L 36.74892 49.27547 L 36.74292 49.27013 L 36.73706 49.26466 L 36.73132 49.25905 L 36.72572 49.2533 L 36.72026 49.24742 L 36.71493 49.24142 L 36.70976 49.23528 L 36.70473 49.22903 L 36.69985 49.22266 L 36.69542 49.21545 L 36.69112 49.20815 L 36.68696 49.20078 L 36.68293 49.19334 L 36.67904 49.18582 L 36.67528 49.17823 L 36.67167 49.17057 L 36.6682 49.16285 L 36.66487 49.15507 L 36.66168 49.14723 L 36.65864 49.13933 L 36.65574 49.13137 L 36.65299 49.12337 L 36.65039 49.11531 L 36.64793 49.10721 L 36.64563 49.09907 L 36.64347 49.09088 L 36.64146 49.08266 L 36.63961 49.0744 L 36.63791 49.0661 L 36.63635 49.05778 L 36.63496 49.04943 L 36.63371 49.04106 L 36.63262 49.03266 L 36.63108 49.01847 L 36.62962 49.00428 L 36.62823 48.99007 L 36.62693 48.97585 L 36.62572 48.96163 L 36.62458 48.9474 L 36.62352 48.93317 L 36.62255 48.91893 L 36.62165 48.90468 L 36.62084 48.89043 L 36.62011 48.87618 L 36.61946 48.86192 L 36.61889 48.84766 L 36.6184 48.83339 L 36.618 48.81912 L 36.61767 48.80485 L 36.61743 48.79058 L 36.61727 48.77631 L 36.61719 48.76204 L 36.61719 48.74776 L 36.61727 48.73349 L 36.61743 48.71922 L 36.61768 48.70494 L 36.618 48.69067 L 36.618 47.8888 L 36.29258 47.8888 L 36.29258 47.49906 L 36.61508 47.49906 L 36.61508 46.81703 L 37.09348 46.81703 L 37.09348 47.49906 L 37.42183 47.49906 Z M 37.64885 46.88718 L 37.64889 46.86917 L 37.64954 46.85117 L 37.65079 46.8332 L 37.65264 46.81528 L 37.65508 46.79743 L 37.65812 46.77967 L 37.66176 46.76203 L 37.66598 46.74452 L 37.67078 46.72716 L 37.67616 46.70996 L 37.68211 46.69296 L 37.68863 46.67617 L 37.69571 46.6596 L 37.70333 46.64328 L 37.7115 46.62723 L 37.7202 46.61145 L 37.72942 46.59598 L 37.73916 46.58082 L 37.74939 46.566 L 37.76012 46.55152 L 37.77132 46.53741 L 37.78299 46.52369 L 37.79511 46.51036 L 37.80767 46.49745 L 37.82017 46.48478 L 37.83311 46.47255 L 37.84645 46.46077 L 37.86019 46.44946 L 37.87432 46.43862 L 37.8888 46.42827 L 37.90363 46.41843 L 37.91879 46.4091 L 37.93426 46.40029 L 37.95002 46.39202 L 37.96606 46.3843 L 37.98235 46.37712 L 37.99888 46.37052 L 38.01563 46.36448 L 38.03257 46.35902 L 38.04969 46.35414 L 38.06697 46.34985 L 38.08438 46.34616 L 38.10191 46.34307 L 38.11953 46.34058 L 38.13723 46.33869 L 38.15499 46.33741 L 38.17278 46.33674 L 38.19058 46.33668 L 38.20837 46.33672 L 38.22615 46.33738 L 38.24389 46.33865 L 38.26158 46.34053 L 38.27919 46.34302 L 38.29671 46.34613 L 38.31411 46.34984 L 38.33137 46.35415 L 38.34847 46.35905 L 38.36539 46.36454 L 38.38211 46.37062 L 38.39861 46.37727 L 38.41486 46.38449 L 38.43086 46.39227 L 38.44658 46.4006 L 38.462 46.40947 L 38.47711 46.41886 L 38.49188 46.42878 L 38.5063 46.4392 L 38.52035 46.45011 L 38.53401 46.4615 L 38.54727 46.47336 L 38.56011 46.48567 L 38.57252 46.49842 L 38.59671 46.52498 L 38.61915 46.55304 L 38.63975 46.58248 L 38.65841 46.61318 L 38.67506 46.64502 L 38.68963 46.67786 L 38.70206 46.71156 L 38.71231 46.746 L 38.72032 46.78102 L 38.72607 46.81649 L 38.72952 46.85225 L 38.73068 46.88816 L 38.72952 46.92407 L 38.72607 46.95983 L 38.72032 46.99529 L 38.71231 47.03031 L 38.70206 47.06475 L 38.68963 47.09846 L 38.67506 47.1313 L 38.65841 47.16313 L 38.63975 47.19384 L 38.61915 47.22328 L 38.59671 47.25133 L 38.57252 47.27789 L 38.54699 47.30267 L 38.51987 47.32568 L 38.49126 47.34683 L 38.4613 47.36601 L 38.43012 47.38315 L 38.39787 47.39816 L 38.36469 47.41097 L 38.33072 47.42154 L 38.29612 47.4298 L 38.26104 47.43573 L 38.22565 47.4393 L 38.19009 47.44049 L 38.15454 47.4393 L 38.11914 47.43573 L 38.08407 47.4298 L 38.04947 47.42154 L 38.0155 47.41097 L 37.98231 47.39816 L 37.95006 47.38315 L 37.91888 47.36601 L 37.88892 47.34683 L 37.86032 47.32568 L 37.83319 47.30267 L 37.80767 47.27789 L 37.79507 47.26495 L 37.78291 47.2516 L 37.77121 47.23785 L 37.75997 47.22372 L 37.74922 47.20921 L 37.73896 47.19435 L 37.72921 47.17916 L 37.71997 47.16364 L 37.71125 47.14783 L 37.70307 47.13173 L 37.69544 47.11536 L 37.68836 47.09875 L 37.68184 47.08191 L 37.6759 47.06487 L 37.67052 47.04763 L 37.66573 47.03022 L 37.66153 47.01266 L 37.65791 46.99496 L 37.6549 46.97716 L 37.65248 46.95927 L 37.65067 46.9413 L 37.64945 46.92329 L 37.64885 46.90524 L 37.64885 46.88718 Z M 37.93043 46.88718 L 37.93046 46.89584 L 37.93078 46.9045 L 37.93139 46.91314 L 37.93229 46.92176 L 37.93348 46.93034 L 37.93495 46.93887 L 37.93672 46.94735 L 37.93877 46.95577 L 37.9411 46.96411 L 37.94371 46.97237 L 37.9466 46.98054 L 37.94976 46.9886 L 37.95319 46.99656 L 37.95688 47.00439 L 37.96084 47.0121 L 37.96506 47.01966 L 37.96952 47.02708 L 37.97424 47.03435 L 37.9792 47.04145 L 37.98439 47.04839 L 37.98981 47.05514 L 37.99546 47.06171 L 38.00133 47.06808 L 38.0074 47.07425 L 38.01969 47.08601 L 38.03273 47.09692 L 38.04646 47.10694 L 38.06083 47.11603 L 38.07577 47.12415 L 38.09122 47.13126 L 38.1071 47.13733 L 38.12335 47.14233 L 38.1399 47.14625 L 38.15667 47.14906 L 38.17359 47.15074 L 38.19058 47.15131 L 38.20757 47.15074 L 38.22449 47.14906 L 38.24126 47.14625 L 38.25781 47.14233 L 38.27406 47.13733 L 38.28994 47.13126 L 38.30538 47.12415 L 38.32032 47.11603 L 38.33469 47.10694 L 38.34843 47.09692 L 38.36147 47.08601 L 38.37375 47.07425 L 38.37975 47.06804 L 38.38555 47.06163 L 38.39112 47.05503 L 38.39647 47.04825 L 38.4016 47.04129 L 38.40649 47.03417 L 38.41114 47.02689 L 38.41555 47.01946 L 38.41971 47.01188 L 38.42361 47.00417 L 38.42726 46.99634 L 38.43064 46.98839 L 38.43376 46.98034 L 38.43661 46.97218 L 38.43919 46.96393 L 38.44149 46.9556 L 38.44351 46.9472 L 38.44526 46.93874 L 38.44672 46.93023 L 38.4479 46.92167 L 38.44879 46.91307 L 38.4494 46.90446 L 38.44972 46.89582 L 38.44975 46.88718 L 38.44976 46.87854 L 38.44947 46.8699 L 38.4489 46.86127 L 38.44803 46.85267 L 38.44688 46.8441 L 38.44544 46.83558 L 38.44371 46.8271 L 38.4417 46.8187 L 38.43941 46.81036 L 38.43684 46.8021 L 38.43399 46.79394 L 38.43088 46.78588 L 38.42749 46.77792 L 38.42383 46.77009 L 38.41992 46.76238 L 38.41575 46.75481 L 38.41132 46.74738 L 38.40665 46.7401 L 38.40174 46.73299 L 38.39659 46.72605 L 38.39121 46.71928 L 38.38561 46.71269 L 38.37979 46.7063 L 38.37375 46.70011 L 38.36153 46.68824 L 38.34854 46.67721 L 38.33484 46.66708 L 38.32049 46.65789 L 38.30555 46.64968 L 38.2901 46.64249 L 38.27421 46.63635 L 38.25794 46.63129 L 38.24136 46.62733 L 38.22456 46.62449 L 38.20761 46.62278 L 38.19058 46.62221 L 38.17355 46.62278 L 38.15659 46.62449 L 38.13979 46.62733 L 38.12322 46.63129 L 38.10695 46.63635 L 38.09105 46.64249 L 38.0756 46.64968 L 38.06067 46.65789 L 38.04632 46.66708 L 38.03262 46.67721 L 38.01963 46.68824 L 38.0074 46.70011 L 38.00129 46.70626 L 37.9954 46.71261 L 37.98972 46.71916 L 37.98427 46.7259 L 37.97905 46.73282 L 37.97407 46.73992 L 37.96934 46.74718 L 37.96485 46.7546 L 37.96062 46.76216 L 37.95665 46.76987 L 37.95295 46.77771 L 37.94952 46.78566 L 37.94636 46.79373 L 37.94347 46.80191 L 37.94087 46.81018 L 37.93855 46.81853 L 37.93651 46.82695 L 37.93477 46.83544 L 37.93331 46.84399 L 37.93215 46.85258 L 37.93127 46.8612 L 37.9307 46.86985 L 37.93042 46.87851 L 37.93043 46.88718 Z" />
</svg>