<svg version="1.1" xmlns="http://www.w3.org/2000/svg" viewBox="-5.615 -5 11.231 10" fill="black" stroke="none"><path fill-rule="evenodd" d="M -4.615 1.692 L -3.231 1.692 L -3.231 4 L 3.231 4 L 3.231 1.692 L 4.615 1.692 L 4.615 1.385 L 3.231 1.385 L 3.231 -1.385 L 4.615 -1.385 L 4.615 -1.692 L 3.231 -1.692 L 3.231 -4 L -3.231 -4 L -3.231 -1.692 L -4.615 -1.692 L -4.615 -1.385 L -3.231 -1.385 L -3.231 1.385 L -4.615 1.385 L -4.615 1.692 Z M -2.923 3.692 L -2.923 -3.692 L 2.923 -3.692 L 2.923 3.692 L -2.923 3.692 Z M 1.537 -1.583 L 1.538 -1.564 L 1.538 -1.546 L 1.538 -1.527 L 1.538 -1.509 L 1.538 -1.49 L 1.539 -1.472 L 1.54 -1.453 L 1.542 -1.435 L 1.544 -1.416 L 1.546 -1.398 L 1.549 -1.38 L 1.553 -1.362 L 1.557 -1.344 L 1.561 -1.325 L 1.566 -1.308 L 1.571 -1.29 L 1.576 -1.272 L 1.582 -1.255 L 1.589 -1.237 L 1.595 -1.22 L 1.603 -1.203 L 1.61 -1.186 L 1.618 -1.169 L 1.627 -1.153 L 1.636 -1.137 L 1.645 -1.121 L 1.652 -1.109 L 1.66 -1.098 L 1.668 -1.087 L 1.677 -1.076 L 1.686 -1.066 L 1.696 -1.056 L 1.706 -1.047 L 1.717 -1.038 L 1.728 -1.03 L 1.739 -1.022 L 1.75 -1.015 L 1.762 -1.008 L 1.775 -1.001 L 1.787 -0.996 L 1.8 -0.99 L 1.813 -0.986 L 1.826 -0.982 L 1.839 -0.978 L 1.852 -0.975 L 1.866 -0.973 L 1.879 -0.971 L 1.893 -0.97 L 1.907 -0.969 L 1.921 -0.969 L 1.933 -0.97 L 1.945 -0.971 L 1.958 -0.972 L 1.97 -0.975 L 1.982 -0.977 L 1.994 -0.98 L 2.006 -0.984 L 2.018 -0.988 L 2.029 -0.993 L 2.04 -0.998 L 2.051 -1.003 L 2.062 -1.009 L 2.073 -1.016 L 2.083 -1.023 L 2.093 -1.03 L 2.103 -1.038 L 2.112 -1.046 L 2.121 -1.055 L 2.13 -1.064 L 2.138 -1.073 L 2.146 -1.083 L 2.153 -1.092 L 2.16 -1.103 L 2.167 -1.113 L 2.29 -1.025 L 2.374 -1.219 L 2.25 -1.298 L 2.251 -1.3 L 2.252 -1.303 L 2.255 -1.31 L 2.257 -1.319 L 2.26 -1.332 L 2.264 -1.349 L 2.267 -1.37 L 2.27 -1.395 L 2.273 -1.425 L 2.275 -1.46 L 2.276 -1.5 L 2.277 -1.546 L 2.278 -1.564 L 2.278 -1.583 L 2.278 -1.601 L 2.278 -1.619 L 2.277 -1.638 L 2.276 -1.656 L 2.274 -1.674 L 2.272 -1.692 L 2.269 -1.711 L 2.266 -1.729 L 2.262 -1.747 L 2.259 -1.765 L 2.254 -1.782 L 2.249 -1.8 L 2.244 -1.818 L 2.239 -1.835 L 2.233 -1.853 L 2.226 -1.87 L 2.219 -1.887 L 2.212 -1.904 L 2.204 -1.92 L 2.196 -1.937 L 2.188 -1.953 L 2.179 -1.969 L 2.164 -1.992 L 2.147 -2.013 L 2.129 -2.032 L 2.108 -2.05 L 2.087 -2.066 L 2.064 -2.08 L 2.04 -2.093 L 2.015 -2.103 L 1.989 -2.111 L 1.962 -2.116 L 1.936 -2.12 L 1.909 -2.121 L 1.882 -2.12 L 1.855 -2.116 L 1.828 -2.111 L 1.803 -2.103 L 1.778 -2.093 L 1.754 -2.08 L 1.731 -2.066 L 1.709 -2.05 L 1.689 -2.032 L 1.67 -2.013 L 1.653 -1.992 L 1.638 -1.969 L 1.629 -1.953 L 1.621 -1.937 L 1.613 -1.92 L 1.605 -1.904 L 1.598 -1.887 L 1.591 -1.87 L 1.584 -1.853 L 1.578 -1.835 L 1.572 -1.818 L 1.567 -1.8 L 1.562 -1.783 L 1.558 -1.765 L 1.554 -1.747 L 1.55 -1.729 L 1.547 -1.711 L 1.544 -1.692 L 1.542 -1.674 L 1.54 -1.656 L 1.539 -1.638 L 1.538 -1.619 L 1.537 -1.601 L 1.537 -1.583 Z M 1.692 -1.521 L 1.692 -1.534 L 1.692 -1.546 L 1.692 -1.559 L 1.692 -1.571 L 1.692 -1.584 L 1.692 -1.596 L 1.692 -1.609 L 1.693 -1.621 L 1.694 -1.633 L 1.696 -1.646 L 1.697 -1.658 L 1.699 -1.67 L 1.702 -1.683 L 1.704 -1.695 L 1.707 -1.707 L 1.71 -1.719 L 1.713 -1.731 L 1.716 -1.743 L 1.72 -1.755 L 1.724 -1.767 L 1.729 -1.778 L 1.733 -1.79 L 1.738 -1.801 L 1.743 -1.813 L 1.748 -1.824 L 1.754 -1.835 L 1.761 -1.849 L 1.77 -1.863 L 1.78 -1.875 L 1.791 -1.887 L 1.803 -1.897 L 1.817 -1.906 L 1.83 -1.914 L 1.845 -1.921 L 1.86 -1.926 L 1.876 -1.93 L 1.892 -1.932 L 1.908 -1.933 L 1.924 -1.932 L 1.94 -1.93 L 1.955 -1.926 L 1.97 -1.921 L 1.985 -1.914 L 1.999 -1.906 L 2.012 -1.897 L 2.024 -1.887 L 2.035 -1.875 L 2.045 -1.863 L 2.054 -1.849 L 2.062 -1.835 L 2.067 -1.824 L 2.072 -1.813 L 2.077 -1.801 L 2.082 -1.79 L 2.086 -1.778 L 2.09 -1.766 L 2.094 -1.754 L 2.098 -1.743 L 2.101 -1.731 L 2.104 -1.719 L 2.107 -1.706 L 2.11 -1.694 L 2.112 -1.682 L 2.114 -1.67 L 2.116 -1.657 L 2.117 -1.645 L 2.118 -1.633 L 2.119 -1.62 L 2.12 -1.608 L 2.12 -1.596 L 2.121 -1.583 L 2.12 -1.571 L 2.12 -1.558 L 2.119 -1.546 L 2.119 -1.539 L 2.119 -1.532 L 2.119 -1.525 L 2.119 -1.518 L 2.119 -1.511 L 2.119 -1.504 L 2.119 -1.497 L 2.118 -1.49 L 2.118 -1.483 L 2.117 -1.477 L 2.117 -1.47 L 2.116 -1.463 L 2.115 -1.456 L 2.115 -1.449 L 2.114 -1.442 L 2.113 -1.435 L 2.112 -1.428 L 2.111 -1.421 L 2.11 -1.415 L 2.109 -1.408 L 2.108 -1.401 L 2.107 -1.394 L 2.106 -1.387 L 2.105 -1.38 L 1.99 -1.462 L 1.896 -1.298 L 2.019 -1.209 L 2.015 -1.205 L 2.012 -1.201 L 2.008 -1.197 L 2.004 -1.194 L 1.999 -1.19 L 1.995 -1.187 L 1.991 -1.183 L 1.986 -1.18 L 1.981 -1.177 L 1.976 -1.175 L 1.972 -1.172 L 1.967 -1.17 L 1.961 -1.168 L 1.956 -1.166 L 1.951 -1.164 L 1.946 -1.162 L 1.94 -1.161 L 1.935 -1.16 L 1.93 -1.159 L 1.924 -1.158 L 1.919 -1.157 L 1.913 -1.157 L 1.908 -1.157 L 1.902 -1.157 L 1.894 -1.157 L 1.887 -1.158 L 1.879 -1.16 L 1.871 -1.161 L 1.864 -1.163 L 1.857 -1.165 L 1.849 -1.168 L 1.842 -1.171 L 1.835 -1.174 L 1.828 -1.177 L 1.821 -1.181 L 1.815 -1.185 L 1.808 -1.19 L 1.802 -1.194 L 1.796 -1.199 L 1.79 -1.205 L 1.785 -1.21 L 1.78 -1.216 L 1.775 -1.222 L 1.77 -1.228 L 1.765 -1.234 L 1.761 -1.241 L 1.757 -1.247 L 1.754 -1.254 L 1.748 -1.265 L 1.743 -1.277 L 1.738 -1.288 L 1.733 -1.3 L 1.729 -1.312 L 1.724 -1.324 L 1.72 -1.336 L 1.716 -1.348 L 1.713 -1.36 L 1.71 -1.372 L 1.707 -1.384 L 1.704 -1.396 L 1.702 -1.409 L 1.699 -1.421 L 1.697 -1.433 L 1.696 -1.446 L 1.694 -1.458 L 1.693 -1.471 L 1.692 -1.484 L 1.692 -1.496 L 1.692 -1.509 L 1.692 -1.521 Z M 1.537 1.494 L 1.538 1.513 L 1.538 1.531 L 1.538 1.55 L 1.538 1.568 L 1.538 1.587 L 1.539 1.605 L 1.54 1.624 L 1.542 1.642 L 1.544 1.66 L 1.546 1.679 L 1.549 1.697 L 1.553 1.715 L 1.557 1.733 L 1.561 1.751 L 1.566 1.769 L 1.571 1.787 L 1.576 1.805 L 1.582 1.822 L 1.589 1.84 L 1.595 1.857 L 1.603 1.874 L 1.61 1.891 L 1.618 1.907 L 1.627 1.924 L 1.636 1.94 L 1.645 1.956 L 1.652 1.968 L 1.66 1.979 L 1.668 1.99 L 1.677 2.001 L 1.686 2.011 L 1.696 2.021 L 1.706 2.03 L 1.717 2.039 L 1.728 2.047 L 1.739 2.055 L 1.75 2.062 L 1.762 2.069 L 1.775 2.076 L 1.787 2.081 L 1.8 2.087 L 1.813 2.091 L 1.826 2.095 L 1.839 2.099 L 1.852 2.102 L 1.866 2.104 L 1.879 2.106 L 1.893 2.107 L 1.907 2.108 L 1.921 2.108 L 1.933 2.107 L 1.945 2.106 L 1.958 2.104 L 1.97 2.102 L 1.982 2.1 L 1.994 2.097 L 2.006 2.093 L 2.018 2.089 L 2.029 2.084 L 2.04 2.079 L 2.051 2.074 L 2.062 2.068 L 2.073 2.061 L 2.083 2.054 L 2.093 2.047 L 2.103 2.039 L 2.112 2.031 L 2.121 2.022 L 2.13 2.013 L 2.138 2.004 L 2.146 1.994 L 2.153 1.984 L 2.16 1.974 L 2.167 1.964 L 2.29 2.052 L 2.374 1.858 L 2.25 1.778 L 2.251 1.777 L 2.252 1.774 L 2.255 1.767 L 2.257 1.758 L 2.26 1.745 L 2.264 1.728 L 2.267 1.707 L 2.27 1.682 L 2.273 1.652 L 2.275 1.617 L 2.276 1.577 L 2.277 1.531 L 2.278 1.513 L 2.278 1.494 L 2.278 1.476 L 2.278 1.458 L 2.277 1.439 L 2.276 1.421 L 2.274 1.403 L 2.272 1.385 L 2.269 1.366 L 2.266 1.348 L 2.262 1.33 L 2.259 1.312 L 2.254 1.294 L 2.249 1.277 L 2.244 1.259 L 2.239 1.242 L 2.233 1.224 L 2.226 1.207 L 2.219 1.19 L 2.212 1.173 L 2.204 1.157 L 2.196 1.14 L 2.188 1.124 L 2.179 1.108 L 2.164 1.085 L 2.147 1.064 L 2.129 1.045 L 2.108 1.027 L 2.087 1.011 L 2.064 0.996 L 2.04 0.984 L 2.015 0.974 L 1.989 0.966 L 1.962 0.961 L 1.936 0.957 L 1.909 0.956 L 1.882 0.957 L 1.855 0.961 L 1.828 0.966 L 1.803 0.974 L 1.778 0.984 L 1.754 0.996 L 1.731 1.011 L 1.709 1.027 L 1.689 1.045 L 1.67 1.064 L 1.653 1.085 L 1.638 1.108 L 1.629 1.124 L 1.621 1.14 L 1.613 1.157 L 1.605 1.173 L 1.598 1.19 L 1.591 1.207 L 1.584 1.224 L 1.578 1.242 L 1.572 1.259 L 1.567 1.277 L 1.562 1.294 L 1.558 1.312 L 1.554 1.33 L 1.55 1.348 L 1.547 1.366 L 1.544 1.384 L 1.542 1.403 L 1.54 1.421 L 1.539 1.439 L 1.538 1.458 L 1.537 1.476 L 1.537 1.494 Z M 1.692 1.556 L 1.692 1.543 L 1.692 1.53 L 1.692 1.518 L 1.692 1.506 L 1.692 1.493 L 1.692 1.481 L 1.692 1.468 L 1.693 1.456 L 1.694 1.444 L 1.696 1.431 L 1.697 1.419 L 1.699 1.407 L 1.702 1.394 L 1.704 1.382 L 1.707 1.37 L 1.71 1.358 L 1.713 1.346 L 1.716 1.334 L 1.72 1.322 L 1.724 1.31 L 1.729 1.299 L 1.733 1.287 L 1.738 1.276 L 1.743 1.264 L 1.748 1.253 L 1.754 1.242 L 1.761 1.228 L 1.77 1.214 L 1.78 1.202 L 1.791 1.19 L 1.803 1.18 L 1.817 1.171 L 1.83 1.163 L 1.845 1.156 L 1.86 1.151 L 1.876 1.147 L 1.892 1.145 L 1.908 1.144 L 1.924 1.145 L 1.94 1.147 L 1.955 1.151 L 1.97 1.156 L 1.985 1.163 L 1.999 1.171 L 2.012 1.18 L 2.024 1.19 L 2.035 1.202 L 2.045 1.214 L 2.054 1.228 L 2.062 1.242 L 2.067 1.253 L 2.072 1.264 L 2.077 1.276 L 2.082 1.287 L 2.086 1.299 L 2.09 1.311 L 2.094 1.322 L 2.098 1.334 L 2.101 1.346 L 2.104 1.358 L 2.107 1.37 L 2.11 1.383 L 2.112 1.395 L 2.114 1.407 L 2.116 1.419 L 2.117 1.432 L 2.118 1.444 L 2.119 1.457 L 2.12 1.469 L 2.12 1.481 L 2.121 1.494 L 2.12 1.506 L 2.12 1.519 L 2.119 1.531 L 2.119 1.538 L 2.119 1.545 L 2.119 1.552 L 2.119 1.559 L 2.119 1.566 L 2.119 1.573 L 2.119 1.58 L 2.118 1.587 L 2.118 1.593 L 2.117 1.6 L 2.117 1.607 L 2.116 1.614 L 2.115 1.621 L 2.115 1.628 L 2.114 1.635 L 2.113 1.642 L 2.112 1.649 L 2.111 1.656 L 2.11 1.662 L 2.109 1.669 L 2.108 1.676 L 2.107 1.683 L 2.106 1.69 L 2.105 1.697 L 1.99 1.615 L 1.896 1.779 L 2.019 1.868 L 2.015 1.872 L 2.012 1.876 L 2.008 1.88 L 2.004 1.883 L 1.999 1.887 L 1.995 1.89 L 1.991 1.894 L 1.986 1.897 L 1.981 1.9 L 1.976 1.902 L 1.972 1.905 L 1.967 1.907 L 1.961 1.909 L 1.956 1.911 L 1.951 1.913 L 1.946 1.915 L 1.94 1.916 L 1.935 1.917 L 1.93 1.918 L 1.924 1.919 L 1.919 1.919 L 1.913 1.92 L 1.908 1.92 L 1.902 1.92 L 1.894 1.919 L 1.887 1.919 L 1.879 1.917 L 1.871 1.916 L 1.864 1.914 L 1.857 1.912 L 1.849 1.909 L 1.842 1.906 L 1.835 1.903 L 1.828 1.899 L 1.821 1.896 L 1.815 1.892 L 1.808 1.887 L 1.802 1.883 L 1.796 1.878 L 1.79 1.872 L 1.785 1.867 L 1.78 1.861 L 1.775 1.855 L 1.77 1.849 L 1.765 1.843 L 1.761 1.836 L 1.757 1.83 L 1.754 1.823 L 1.748 1.811 L 1.743 1.8 L 1.738 1.789 L 1.733 1.777 L 1.729 1.765 L 1.724 1.753 L 1.72 1.741 L 1.716 1.729 L 1.713 1.717 L 1.71 1.705 L 1.707 1.693 L 1.704 1.681 L 1.702 1.668 L 1.699 1.656 L 1.697 1.643 L 1.696 1.631 L 1.694 1.618 L 1.693 1.606 L 1.692 1.593 L 1.692 1.581 L 1.692 1.568 L 1.692 1.556 Z M 1.354 0.415 L 1.354 0.723 L 2.508 0.723 L 2.508 0.415 L 1.354 0.415 Z M -2.308 2.105 L -1.538 2.106 L -1.538 1.914 L -2.103 1.914 L -2.103 1.607 L -1.596 1.607 L -1.596 1.415 L -2.103 1.415 L -2.103 1.161 L -1.558 1.161 L -1.558 0.969 L -2.308 0.969 L -2.308 2.105 Z M -2.308 -0.969 L -1.956 -0.969 L -1.949 -0.969 L -1.942 -0.969 L -1.935 -0.969 L -1.928 -0.969 L -1.921 -0.969 L -1.914 -0.97 L -1.907 -0.97 L -1.9 -0.971 L -1.893 -0.971 L -1.887 -0.972 L -1.88 -0.973 L -1.873 -0.974 L -1.866 -0.975 L -1.859 -0.976 L -1.852 -0.977 L -1.845 -0.979 L -1.839 -0.98 L -1.832 -0.982 L -1.825 -0.983 L -1.819 -0.985 L -1.812 -0.987 L -1.805 -0.989 L -1.799 -0.991 L -1.792 -0.993 L -1.786 -0.996 L -1.78 -0.998 L -1.773 -1.001 L -1.767 -1.004 L -1.761 -1.006 L -1.755 -1.009 L -1.749 -1.013 L -1.744 -1.016 L -1.738 -1.019 L -1.732 -1.023 L -1.727 -1.026 L -1.721 -1.03 L -1.716 -1.034 L -1.71 -1.038 L -1.705 -1.042 L -1.7 -1.046 L -1.695 -1.051 L -1.69 -1.055 L -1.685 -1.06 L -1.68 -1.064 L -1.675 -1.069 L -1.67 -1.074 L -1.666 -1.079 L -1.662 -1.084 L -1.656 -1.091 L -1.651 -1.099 L -1.645 -1.106 L -1.64 -1.114 L -1.635 -1.122 L -1.63 -1.13 L -1.625 -1.138 L -1.621 -1.146 L -1.616 -1.154 L -1.612 -1.163 L -1.608 -1.171 L -1.604 -1.179 L -1.6 -1.188 L -1.596 -1.196 L -1.592 -1.205 L -1.589 -1.214 L -1.586 -1.222 L -1.582 -1.231 L -1.579 -1.24 L -1.577 -1.249 L -1.574 -1.258 L -1.571 -1.267 L -1.569 -1.276 L -1.567 -1.285 L -1.564 -1.295 L -1.562 -1.305 L -1.56 -1.315 L -1.558 -1.325 L -1.555 -1.335 L -1.554 -1.345 L -1.552 -1.355 L -1.55 -1.365 L -1.548 -1.375 L -1.547 -1.385 L -1.546 -1.395 L -1.544 -1.405 L -1.543 -1.415 L -1.542 -1.425 L -1.541 -1.435 L -1.541 -1.445 L -1.54 -1.456 L -1.539 -1.466 L -1.539 -1.476 L -1.539 -1.486 L -1.538 -1.496 L -1.538 -1.506 L -1.538 -1.517 L -1.538 -1.527 L -1.538 -1.538 L -1.538 -1.549 L -1.538 -1.561 L -1.538 -1.572 L -1.539 -1.583 L -1.539 -1.594 L -1.54 -1.606 L -1.541 -1.617 L -1.541 -1.628 L -1.542 -1.639 L -1.543 -1.65 L -1.545 -1.662 L -1.546 -1.673 L -1.547 -1.684 L -1.549 -1.695 L -1.551 -1.706 L -1.552 -1.717 L -1.554 -1.728 L -1.556 -1.74 L -1.559 -1.751 L -1.561 -1.762 L -1.563 -1.773 L -1.566 -1.784 L -1.569 -1.794 L -1.571 -1.803 L -1.573 -1.811 L -1.575 -1.819 L -1.578 -1.827 L -1.581 -1.836 L -1.584 -1.844 L -1.587 -1.852 L -1.59 -1.86 L -1.593 -1.868 L -1.596 -1.875 L -1.6 -1.883 L -1.603 -1.891 L -1.607 -1.899 L -1.611 -1.906 L -1.615 -1.914 L -1.619 -1.922 L -1.623 -1.929 L -1.627 -1.936 L -1.632 -1.944 L -1.637 -1.951 L -1.641 -1.958 L -1.646 -1.965 L -1.651 -1.972 L -1.656 -1.979 L -1.66 -1.985 L -1.665 -1.991 L -1.67 -1.996 L -1.675 -2.002 L -1.68 -2.007 L -1.685 -2.012 L -1.69 -2.018 L -1.695 -2.023 L -1.701 -2.027 L -1.706 -2.032 L -1.712 -2.037 L -1.718 -2.041 L -1.724 -2.046 L -1.73 -2.05 L -1.736 -2.054 L -1.742 -2.058 L -1.748 -2.062 L -1.755 -2.065 L -1.761 -2.069 L -1.768 -2.072 L -1.774 -2.075 L -1.781 -2.078 L -1.788 -2.081 L -1.794 -2.084 L -1.802 -2.086 L -1.809 -2.088 L -1.816 -2.09 L -1.823 -2.091 L -1.83 -2.093 L -1.837 -2.095 L -1.845 -2.096 L -1.852 -2.097 L -1.859 -2.099 L -1.866 -2.1 L -1.874 -2.101 L -1.881 -2.102 L -1.888 -2.103 L -1.896 -2.103 L -1.903 -2.104 L -1.91 -2.105 L -1.918 -2.105 L -1.925 -2.105 L -1.932 -2.106 L -1.94 -2.106 L -1.947 -2.106 L -1.954 -2.106 L -1.962 -2.106 L -1.969 -2.105 L -2.308 -2.105 L -2.308 -0.969 Z M -2.123 -1.161 L -2.123 -1.913 L -2.039 -1.911 L -2.033 -1.911 L -2.027 -1.911 L -2.02 -1.911 L -2.014 -1.911 L -2.008 -1.911 L -2.001 -1.911 L -1.995 -1.911 L -1.988 -1.911 L -1.982 -1.911 L -1.976 -1.91 L -1.969 -1.91 L -1.963 -1.91 L -1.957 -1.909 L -1.95 -1.909 L -1.944 -1.908 L -1.938 -1.907 L -1.931 -1.907 L -1.925 -1.906 L -1.919 -1.905 L -1.912 -1.904 L -1.906 -1.903 L -1.9 -1.902 L -1.894 -1.901 L -1.887 -1.9 L -1.883 -1.899 L -1.879 -1.897 L -1.875 -1.896 L -1.871 -1.895 L -1.867 -1.893 L -1.863 -1.892 L -1.859 -1.89 L -1.855 -1.888 L -1.851 -1.886 L -1.848 -1.884 L -1.844 -1.882 L -1.84 -1.88 L -1.837 -1.877 L -1.833 -1.875 L -1.829 -1.872 L -1.826 -1.87 L -1.823 -1.867 L -1.819 -1.864 L -1.816 -1.862 L -1.813 -1.859 L -1.81 -1.856 L -1.807 -1.853 L -1.804 -1.849 L -1.801 -1.846 L -1.798 -1.842 L -1.795 -1.838 L -1.792 -1.834 L -1.789 -1.83 L -1.787 -1.826 L -1.784 -1.822 L -1.781 -1.818 L -1.779 -1.814 L -1.776 -1.809 L -1.774 -1.805 L -1.772 -1.801 L -1.769 -1.796 L -1.767 -1.792 L -1.765 -1.787 L -1.763 -1.783 L -1.761 -1.778 L -1.759 -1.774 L -1.758 -1.769 L -1.756 -1.765 L -1.754 -1.76 L -1.753 -1.755 L -1.752 -1.75 L -1.75 -1.746 L -1.749 -1.741 L -1.747 -1.733 L -1.745 -1.724 L -1.744 -1.716 L -1.742 -1.708 L -1.741 -1.699 L -1.739 -1.691 L -1.738 -1.682 L -1.737 -1.674 L -1.736 -1.666 L -1.735 -1.657 L -1.734 -1.649 L -1.733 -1.64 L -1.732 -1.632 L -1.732 -1.623 L -1.731 -1.615 L -1.731 -1.606 L -1.73 -1.598 L -1.73 -1.589 L -1.73 -1.581 L -1.729 -1.572 L -1.729 -1.564 L -1.729 -1.555 L -1.73 -1.547 L -1.73 -1.538 L -1.73 -1.53 L -1.729 -1.521 L -1.729 -1.512 L -1.729 -1.503 L -1.73 -1.494 L -1.73 -1.485 L -1.73 -1.476 L -1.73 -1.467 L -1.731 -1.458 L -1.732 -1.449 L -1.732 -1.441 L -1.733 -1.432 L -1.734 -1.423 L -1.735 -1.414 L -1.736 -1.405 L -1.737 -1.396 L -1.738 -1.388 L -1.739 -1.379 L -1.741 -1.37 L -1.742 -1.361 L -1.744 -1.352 L -1.745 -1.344 L -1.747 -1.335 L -1.749 -1.326 L -1.75 -1.321 L -1.751 -1.316 L -1.752 -1.311 L -1.753 -1.306 L -1.755 -1.302 L -1.756 -1.297 L -1.758 -1.292 L -1.759 -1.287 L -1.761 -1.282 L -1.763 -1.278 L -1.765 -1.273 L -1.767 -1.268 L -1.769 -1.264 L -1.771 -1.259 L -1.773 -1.255 L -1.775 -1.25 L -1.778 -1.246 L -1.78 -1.242 L -1.783 -1.237 L -1.786 -1.233 L -1.789 -1.229 L -1.792 -1.225 L -1.794 -1.221 L -1.798 -1.217 L -1.8 -1.214 L -1.803 -1.211 L -1.805 -1.208 L -1.808 -1.206 L -1.811 -1.203 L -1.813 -1.201 L -1.816 -1.198 L -1.819 -1.196 L -1.822 -1.194 L -1.825 -1.192 L -1.828 -1.19 L -1.831 -1.188 L -1.835 -1.186 L -1.838 -1.184 L -1.841 -1.182 L -1.844 -1.18 L -1.848 -1.178 L -1.851 -1.177 L -1.854 -1.175 L -1.858 -1.174 L -1.861 -1.173 L -1.865 -1.171 L -1.868 -1.17 L -1.872 -1.169 L -1.877 -1.168 L -1.881 -1.167 L -1.886 -1.166 L -1.891 -1.166 L -1.895 -1.165 L -1.9 -1.164 L -1.905 -1.163 L -1.909 -1.163 L -1.914 -1.162 L -1.919 -1.162 L -1.923 -1.161 L -1.928 -1.161 L -1.933 -1.161 L -1.937 -1.16 L -1.942 -1.16 L -1.947 -1.16 L -1.952 -1.16 L -1.956 -1.16 L -1.961 -1.16 L -1.966 -1.16 L -1.97 -1.16 L -1.975 -1.16 L -1.98 -1.16 L -1.985 -1.161 L -2.123 -1.161 Z" /></svg>