<svg version="1.1" xmlns="http://www.w3.org/2000/svg" viewBox="-6.393 -5 12.787 10" fill="black" stroke="none"><path fill-rule="evenodd" d="M 3.3 3.546 L 5.393 3.546 L 5.393 3.187 L 3.297 3.187 L 3.276 3.127 L 3.239 3.054 L 3.194 2.987 L 3.148 2.935 L 4.012 3.098 L 4.078 2.745 L -2.073 1.585 L -2.067 1.501 L -2.073 1.416 L -2.09 1.335 L -2.117 1.257 L -2.154 1.184 L -2.199 1.118 L -2.253 1.057 L -2.313 1.004 L -2.38 0.958 L -2.453 0.922 L -2.53 0.895 L -2.612 0.878 L -2.697 0.872 L -2.782 0.878 L -2.863 0.895 L -2.941 0.922 L -3.013 0.958 L -3.08 1.004 L -3.141 1.057 L -3.194 1.118 L -3.239 1.184 L -3.276 1.257 L -3.3 1.326 L -5.393 1.326 L -5.393 1.685 L -3.297 1.685 L -3.276 1.745 L -3.239 1.818 L -3.194 1.885 L -3.141 1.945 L -3.08 1.999 L -3.013 2.044 L -2.941 2.081 L -2.863 2.108 L -2.782 2.125 L -2.697 2.13 L -2.612 2.125 L -2.53 2.108 L -2.453 2.081 L -2.38 2.044 L -2.313 1.999 L -2.253 1.945 L -2.231 1.921 L 2.434 2.801 L 2.38 2.828 L 2.313 2.873 L 2.253 2.927 L 2.199 2.987 L 2.154 3.054 L 2.117 3.127 L 2.09 3.204 L 2.073 3.286 L 2.067 3.371 L 2.073 3.456 L 2.09 3.537 L 2.117 3.615 L 2.154 3.687 L 2.199 3.754 L 2.253 3.815 L 2.313 3.868 L 2.38 3.914 L 2.453 3.95 L 2.53 3.977 L 2.612 3.994 L 2.697 4 L 2.782 3.994 L 2.863 3.977 L 2.941 3.95 L 3.013 3.914 L 3.08 3.868 L 3.141 3.815 L 3.194 3.754 L 3.239 3.687 L 3.276 3.615 L 3.3 3.546 Z M 2.427 3.371 L 2.429 3.334 L 2.436 3.298 L 2.448 3.265 L 2.463 3.234 L 2.483 3.205 L 2.505 3.179 L 2.531 3.157 L 2.56 3.137 L 2.591 3.122 L 2.624 3.111 L 2.66 3.104 L 2.697 3.101 L 2.734 3.104 L 2.769 3.111 L 2.802 3.122 L 2.834 3.137 L 2.862 3.157 L 2.888 3.179 L 2.911 3.205 L 2.93 3.234 L 2.945 3.265 L 2.957 3.298 L 2.964 3.334 L 2.966 3.371 L 2.964 3.408 L 2.957 3.443 L 2.945 3.477 L 2.93 3.508 L 2.911 3.536 L 2.888 3.562 L 2.862 3.585 L 2.834 3.604 L 2.802 3.62 L 2.769 3.631 L 2.734 3.638 L 2.697 3.64 L 2.66 3.638 L 2.624 3.631 L 2.591 3.62 L 2.56 3.604 L 2.531 3.585 L 2.505 3.562 L 2.483 3.536 L 2.463 3.508 L 2.448 3.477 L 2.436 3.443 L 2.429 3.408 L 2.427 3.371 Z M -2.966 1.501 L -2.964 1.464 L -2.957 1.429 L -2.945 1.395 L -2.93 1.364 L -2.911 1.335 L -2.888 1.31 L -2.862 1.287 L -2.834 1.268 L -2.802 1.252 L -2.769 1.241 L -2.734 1.234 L -2.697 1.231 L -2.66 1.234 L -2.624 1.241 L -2.591 1.252 L -2.56 1.268 L -2.531 1.287 L -2.505 1.31 L -2.483 1.335 L -2.463 1.364 L -2.448 1.395 L -2.436 1.429 L -2.429 1.464 L -2.427 1.501 L -2.429 1.538 L -2.436 1.574 L -2.448 1.607 L -2.463 1.638 L -2.483 1.667 L -2.505 1.693 L -2.531 1.715 L -2.56 1.734 L -2.591 1.75 L -2.624 1.761 L -2.66 1.768 L -2.697 1.771 L -2.734 1.768 L -2.769 1.761 L -2.802 1.75 L -2.834 1.734 L -2.862 1.715 L -2.888 1.693 L -2.911 1.667 L -2.93 1.638 L -2.945 1.607 L -2.957 1.574 L -2.964 1.538 L -2.966 1.501 Z M -4.494 -1.393 L 4.494 -1.393 L 4.494 -1.753 L -4.494 -1.753 L -4.494 -1.393 Z M -5.393 -3.64 L -4.66 -3.64 L -4.656 -3.604 L -4.651 -3.565 L -4.646 -3.525 L -4.639 -3.482 L -4.63 -3.438 L -4.621 -3.391 L -4.609 -3.343 L -4.596 -3.293 L -4.58 -3.241 L -4.563 -3.187 L -4.543 -3.132 L -4.52 -3.075 L -4.476 -2.98 L -4.424 -2.886 L -4.363 -2.793 L -4.293 -2.703 L -4.213 -2.618 L -4.124 -2.54 L -4.025 -2.469 L -3.915 -2.408 L -3.795 -2.358 L -3.665 -2.32 L -3.523 -2.296 L -3.37 -2.288 L -3.224 -2.295 L -3.088 -2.317 L -2.962 -2.352 L -2.847 -2.398 L -2.74 -2.455 L -2.644 -2.52 L -2.556 -2.593 L -2.478 -2.672 L -2.408 -2.756 L -2.347 -2.843 L -2.293 -2.933 L -2.248 -3.023 L -2.202 -2.932 L -2.149 -2.842 L -2.088 -2.754 L -2.018 -2.67 L -1.939 -2.59 L -1.851 -2.517 L -1.755 -2.451 L -1.648 -2.394 L -1.532 -2.347 L -1.406 -2.312 L -1.27 -2.29 L -1.123 -2.283 L -0.977 -2.29 L -0.84 -2.312 L -0.715 -2.347 L -0.599 -2.394 L -0.493 -2.45 L -0.396 -2.516 L -0.308 -2.589 L -0.23 -2.669 L -0.16 -2.753 L -0.099 -2.841 L -0.045 -2.931 L 0 -3.021 L 0.046 -2.931 L 0.099 -2.841 L 0.16 -2.753 L 0.23 -2.669 L 0.309 -2.589 L 0.397 -2.516 L 0.493 -2.45 L 0.599 -2.394 L 0.715 -2.347 L 0.841 -2.312 L 0.977 -2.29 L 1.124 -2.283 L 1.271 -2.29 L 1.407 -2.312 L 1.533 -2.347 L 1.648 -2.394 L 1.755 -2.45 L 1.851 -2.516 L 1.939 -2.589 L 2.017 -2.669 L 2.087 -2.753 L 2.149 -2.841 L 2.202 -2.931 L 2.247 -3.021 L 2.293 -2.931 L 2.346 -2.841 L 2.408 -2.753 L 2.478 -2.669 L 2.556 -2.589 L 2.644 -2.516 L 2.74 -2.45 L 2.847 -2.394 L 2.963 -2.347 L 3.088 -2.312 L 3.225 -2.29 L 3.371 -2.283 L 3.524 -2.291 L 3.666 -2.315 L 3.796 -2.352 L 3.916 -2.403 L 4.025 -2.464 L 4.125 -2.534 L 4.214 -2.612 L 4.294 -2.697 L 4.364 -2.786 L 4.425 -2.879 L 4.477 -2.973 L 4.52 -3.068 L 4.543 -3.124 L 4.563 -3.179 L 4.58 -3.233 L 4.596 -3.284 L 4.609 -3.334 L 4.621 -3.382 L 4.631 -3.429 L 4.639 -3.473 L 4.646 -3.516 L 4.651 -3.556 L 4.656 -3.595 L 4.66 -3.631 L 5.393 -3.631 L 5.393 -3.991 L 4.494 -3.991 L 4.483 -3.99 L 4.471 -3.989 L 4.459 -3.987 L 4.448 -3.984 L 4.437 -3.981 L 4.426 -3.977 L 4.415 -3.972 L 4.404 -3.966 L 4.395 -3.96 L 4.385 -3.953 L 4.376 -3.946 L 4.367 -3.938 L 4.359 -3.929 L 4.352 -3.92 L 4.345 -3.911 L 4.339 -3.901 L 4.333 -3.89 L 4.328 -3.88 L 4.324 -3.869 L 4.321 -3.857 L 4.318 -3.846 L 4.316 -3.834 L 4.315 -3.823 L 4.315 -3.811 L 4.314 -3.805 L 4.314 -3.787 L 4.312 -3.758 L 4.309 -3.72 L 4.305 -3.674 L 4.298 -3.62 L 4.289 -3.56 L 4.276 -3.495 L 4.26 -3.426 L 4.241 -3.354 L 4.217 -3.28 L 4.188 -3.206 L 4.156 -3.132 L 4.119 -3.061 L 4.077 -2.992 L 4.03 -2.927 L 3.977 -2.867 L 3.917 -2.812 L 3.849 -2.764 L 3.773 -2.722 L 3.688 -2.688 L 3.593 -2.663 L 3.488 -2.648 L 3.371 -2.642 L 3.255 -2.648 L 3.149 -2.663 L 3.054 -2.688 L 2.969 -2.722 L 2.893 -2.764 L 2.825 -2.812 L 2.765 -2.867 L 2.712 -2.927 L 2.665 -2.992 L 2.623 -3.061 L 2.586 -3.132 L 2.554 -3.206 L 2.525 -3.28 L 2.501 -3.354 L 2.481 -3.426 L 2.466 -3.495 L 2.453 -3.56 L 2.444 -3.62 L 2.437 -3.674 L 2.432 -3.72 L 2.429 -3.758 L 2.428 -3.787 L 2.427 -3.805 L 2.427 -3.811 L 2.427 -3.811 L 2.425 -3.834 L 2.42 -3.857 L 2.413 -3.879 L 2.402 -3.9 L 2.389 -3.919 L 2.373 -3.936 L 2.356 -3.952 L 2.336 -3.965 L 2.315 -3.975 L 2.293 -3.982 L 2.27 -3.987 L 2.247 -3.988 L 2.224 -3.987 L 2.201 -3.982 L 2.179 -3.975 L 2.158 -3.964 L 2.139 -3.952 L 2.121 -3.936 L 2.105 -3.919 L 2.092 -3.9 L 2.082 -3.879 L 2.074 -3.857 L 2.069 -3.834 L 2.067 -3.811 L 2.067 -3.805 L 2.067 -3.787 L 2.065 -3.758 L 2.062 -3.72 L 2.058 -3.674 L 2.051 -3.62 L 2.041 -3.56 L 2.029 -3.495 L 2.013 -3.426 L 1.994 -3.354 L 1.97 -3.28 L 1.941 -3.206 L 1.908 -3.132 L 1.872 -3.061 L 1.83 -2.992 L 1.783 -2.927 L 1.73 -2.867 L 1.67 -2.812 L 1.602 -2.764 L 1.526 -2.722 L 1.441 -2.688 L 1.346 -2.663 L 1.241 -2.648 L 1.124 -2.642 L 1.007 -2.648 L 0.902 -2.663 L 0.807 -2.688 L 0.722 -2.722 L 0.646 -2.764 L 0.578 -2.812 L 0.518 -2.867 L 0.465 -2.927 L 0.418 -2.992 L 0.376 -3.061 L 0.339 -3.132 L 0.306 -3.206 L 0.278 -3.28 L 0.254 -3.354 L 0.234 -3.426 L 0.218 -3.495 L 0.206 -3.56 L 0.197 -3.62 L 0.19 -3.674 L 0.185 -3.72 L 0.182 -3.758 L 0.181 -3.787 L 0.18 -3.805 L 0.18 -3.811 L 0.18 -3.811 L 0.178 -3.834 L 0.173 -3.857 L 0.165 -3.879 L 0.155 -3.9 L 0.142 -3.919 L 0.126 -3.936 L 0.109 -3.952 L 0.089 -3.965 L 0.068 -3.975 L 0.046 -3.982 L 0.023 -3.987 L -0 -3.988 L -0.023 -3.987 L -0.046 -3.982 L -0.068 -3.975 L -0.089 -3.964 L -0.109 -3.952 L -0.126 -3.936 L -0.142 -3.919 L -0.155 -3.9 L -0.165 -3.879 L -0.173 -3.857 L -0.178 -3.834 L -0.18 -3.811 L -0.18 -3.805 L -0.181 -3.787 L -0.182 -3.758 L -0.185 -3.72 L -0.19 -3.674 L -0.196 -3.62 L -0.206 -3.56 L -0.218 -3.495 L -0.234 -3.426 L -0.254 -3.354 L -0.278 -3.28 L -0.306 -3.206 L -0.339 -3.132 L -0.376 -3.061 L -0.417 -2.992 L -0.464 -2.927 L -0.517 -2.867 L -0.577 -2.812 L -0.645 -2.764 L -0.721 -2.722 L -0.806 -2.688 L -0.901 -2.663 L -1.007 -2.648 L -1.123 -2.642 L -1.24 -2.648 L -1.345 -2.663 L -1.44 -2.688 L -1.525 -2.722 L -1.601 -2.764 L -1.669 -2.812 L -1.729 -2.867 L -1.783 -2.927 L -1.83 -2.992 L -1.871 -3.061 L -1.908 -3.132 L -1.941 -3.206 L -1.969 -3.28 L -1.993 -3.354 L -2.013 -3.426 L -2.029 -3.495 L -2.041 -3.56 L -2.051 -3.62 L -2.057 -3.674 L -2.062 -3.72 L -2.065 -3.758 L -2.067 -3.787 L -2.067 -3.805 L -2.067 -3.811 L -2.067 -3.811 L -2.067 -3.811 L -2.067 -3.811 L -2.067 -3.811 L -2.069 -3.834 L -2.074 -3.857 L -2.082 -3.879 L -2.092 -3.9 L -2.106 -3.919 L -2.121 -3.936 L -2.139 -3.952 L -2.158 -3.965 L -2.179 -3.975 L -2.201 -3.982 L -2.224 -3.987 L -2.247 -3.988 L -2.271 -3.987 L -2.293 -3.982 L -2.315 -3.975 L -2.336 -3.964 L -2.356 -3.952 L -2.373 -3.936 L -2.389 -3.919 L -2.402 -3.9 L -2.413 -3.879 L -2.42 -3.857 L -2.425 -3.834 L -2.427 -3.811 L -2.427 -3.805 L -2.428 -3.787 L -2.429 -3.758 L -2.432 -3.721 L -2.437 -3.674 L -2.444 -3.621 L -2.453 -3.561 L -2.465 -3.496 L -2.481 -3.428 L -2.501 -3.356 L -2.525 -3.283 L -2.553 -3.209 L -2.586 -3.135 L -2.623 -3.064 L -2.664 -2.996 L -2.711 -2.931 L -2.764 -2.871 L -2.824 -2.817 L -2.892 -2.768 L -2.968 -2.727 L -3.053 -2.693 L -3.148 -2.668 L -3.254 -2.653 L -3.37 -2.647 L -3.487 -2.653 L -3.592 -2.668 L -3.687 -2.694 L -3.772 -2.728 L -3.849 -2.769 L -3.916 -2.818 L -3.976 -2.873 L -4.03 -2.933 L -4.077 -2.998 L -4.118 -3.067 L -4.155 -3.139 L -4.188 -3.213 L -4.216 -3.288 L -4.24 -3.362 L -4.26 -3.434 L -4.276 -3.503 L -4.288 -3.569 L -4.298 -3.629 L -4.305 -3.683 L -4.309 -3.729 L -4.312 -3.767 L -4.314 -3.796 L -4.314 -3.814 L -4.315 -3.82 L -4.315 -3.832 L -4.316 -3.844 L -4.318 -3.855 L -4.321 -3.867 L -4.324 -3.878 L -4.328 -3.889 L -4.333 -3.9 L -4.339 -3.91 L -4.345 -3.92 L -4.352 -3.93 L -4.359 -3.939 L -4.367 -3.947 L -4.376 -3.955 L -4.385 -3.963 L -4.395 -3.97 L -4.404 -3.976 L -4.415 -3.981 L -4.426 -3.986 L -4.437 -3.99 L -4.448 -3.994 L -4.459 -3.997 L -4.471 -3.998 L -4.483 -4 L -4.494 -4 L -5.393 -4 L -5.393 -3.64 Z M 3.3 -0.049 L 5.393 -0.049 L 5.393 -0.409 L 3.297 -0.409 L 3.276 -0.469 L 3.239 -0.541 L 3.194 -0.608 L 3.141 -0.669 L 3.08 -0.722 L 3.013 -0.768 L 2.941 -0.804 L 2.863 -0.831 L 2.782 -0.848 L 2.697 -0.854 L 2.612 -0.848 L 2.53 -0.831 L 2.453 -0.804 L 2.38 -0.768 L 2.313 -0.722 L 2.253 -0.669 L 2.199 -0.608 L 2.154 -0.541 L 2.117 -0.469 L 2.09 -0.391 L 2.073 -0.31 L 2.067 -0.225 L 2.073 -0.14 L 2.09 -0.058 L 2.117 0.019 L 2.154 0.092 L 2.199 0.159 L 2.253 0.219 L 2.313 0.273 L 2.38 0.318 L 2.453 0.355 L 2.53 0.382 L 2.612 0.399 L 2.697 0.404 L 2.782 0.399 L 2.863 0.382 L 2.941 0.355 L 3.013 0.318 L 3.08 0.273 L 3.141 0.219 L 3.194 0.159 L 3.239 0.092 L 3.276 0.019 L 3.3 -0.049 Z M 2.427 -0.225 L 2.429 -0.262 L 2.436 -0.297 L 2.448 -0.331 L 2.463 -0.362 L 2.483 -0.39 L 2.505 -0.416 L 2.531 -0.439 L 2.56 -0.458 L 2.591 -0.473 L 2.624 -0.485 L 2.66 -0.492 L 2.697 -0.494 L 2.734 -0.492 L 2.769 -0.485 L 2.802 -0.473 L 2.834 -0.458 L 2.862 -0.439 L 2.888 -0.416 L 2.911 -0.39 L 2.93 -0.362 L 2.945 -0.331 L 2.957 -0.297 L 2.964 -0.262 L 2.966 -0.225 L 2.964 -0.188 L 2.957 -0.152 L 2.945 -0.119 L 2.93 -0.088 L 2.911 -0.059 L 2.888 -0.033 L 2.862 -0.011 L 2.834 0.009 L 2.802 0.024 L 2.769 0.035 L 2.734 0.043 L 2.697 0.045 L 2.66 0.043 L 2.624 0.035 L 2.591 0.024 L 2.56 0.009 L 2.531 -0.011 L 2.505 -0.033 L 2.483 -0.059 L 2.463 -0.088 L 2.448 -0.119 L 2.436 -0.152 L 2.429 -0.188 L 2.427 -0.225 Z" /></svg>