<svg version="1.1" xmlns="http://www.w3.org/2000/svg" viewBox="-6.667341060012597 -5.000000924435473 13.334682120025194 10.000001848870932" fill="black" stroke="none">
    <path d="M 4.47209 -2.02456 L 3.17238 -0.72485 L 3.43951 -0.45772 L 4.73922 -1.75743 L 5.00539 -1.49126 L 5.29783 -2.58316 L 4.20592 -2.29073 L 4.47209 -2.02456 Z" />
    <path d="M 3.05526 -3.4414 L 1.75555 -2.14169 L 2.02268 -1.87455 L 3.32239 -3.17426 L 3.58856 -2.90809 L 3.88099 -4 L 2.78909 -3.70757 L 3.05526 -3.4414 Z" />
    <path fill-rule="evenodd" d="M -2.07802 -1.40434 L -2.07802 1.10892 L -5.66734 1.10892 L -5.66734 1.48674 L -2.07802 1.48674 L -2.07802 4 L 1.7002 1.63861 L 1.7002 3.88591 L 2.07802 3.88591 L 2.07802 1.48674 L 5.66734 1.48674 L 5.66734 1.10892 L 2.07802 1.10892 L 2.07802 -1.29026 L 1.7002 -1.29026 L 1.7002 0.95705 L -2.07802 -1.40434 Z M -1.7002 -0.72278 L 1.53284 1.29783 L -1.7002 3.31844 L -1.7002 -0.72278 Z" />
</svg>