<svg version="1.1" xmlns="http://www.w3.org/2000/svg" viewBox="-6.853659422367641 -5.000000921951221 13.707318844735282 10.000001843902442" fill="black" stroke="none">
    <path d="M 3.17424 4 L 2.67863 4 L 1.95122 2.04878 L 2.41015 2.04878 L 2.80976 3.21015 L 2.81161 3.21538 L 2.81365 3.22133 L 2.81589 3.228 L 2.81831 3.23538 L 2.82092 3.24348 L 2.82371 3.25229 L 2.82667 3.26182 L 2.82982 3.27206 L 2.83313 3.28302 L 2.83662 3.2947 L 2.84028 3.30709 L 2.8441 3.3202 L 2.89171 3.49112 L 2.89568 3.50592 L 2.89939 3.52026 L 2.90287 3.53416 L 2.9061 3.54761 L 2.90911 3.56061 L 2.9119 3.57317 L 2.91448 3.58529 L 2.91686 3.59698 L 2.91904 3.60823 L 2.92103 3.61905 L 2.92284 3.62945 L 2.92449 3.63941 L 2.92597 3.62945 L 2.92767 3.61905 L 2.92959 3.60823 L 2.93171 3.59698 L 2.93405 3.58529 L 2.93659 3.57317 L 2.93932 3.56061 L 2.94224 3.54761 L 2.94534 3.53416 L 2.94863 3.52026 L 2.95208 3.50592 L 2.95571 3.49112 L 2.95943 3.47618 L 2.96318 3.46139 L 2.96696 3.44676 L 2.97077 3.43227 L 2.97459 3.41792 L 2.97844 3.40371 L 2.9823 3.38963 L 2.98618 3.37567 L 2.99006 3.36183 L 2.99395 3.3481 L 2.99785 3.33449 L 3.00176 3.32098 L 3.00555 3.30787 L 3.00912 3.29548 L 3.01248 3.28379 L 3.01563 3.27282 L 3.01859 3.26255 L 3.02137 3.25298 L 3.02396 3.24411 L 3.02638 3.23593 L 3.02865 3.22845 L 3.03075 3.22166 L 3.03271 3.21556 L 3.03454 3.21015 L 3.44039 2.04878 L 3.17424 4 Z" />
    <path d="M -2.53049 1.85366 L -4.87805 1.85366 L -4.87805 2.2439 L -2.34756 2.2439 L 2.53049 -3.60976 L 4.87805 -3.60976 L 4.87805 -4 L -2.53049 1.85366 Z" />
    <path fill-rule="evenodd" d="M -4.09756 -2.53659 L -4.09756 -2.34146 L -4.09756 -1.07317 L -5.85366 -1.07317 L -5.85366 -0.68293 L -4.09756 -0.68293 L -4.09756 0.78049 L 4.09756 0.78049 L 4.09756 -0.68293 L 5.85366 -0.68293 L 5.85366 -1.07317 L 4.09756 -1.07317 L 4.09756 -2.53659 L -4.09756 -2.53659 Z M -3.70732 -2.14634 L 3.70732 -2.14634 L 3.70732 0.39024 L -3.70732 0.39024 L -3.70732 -2.14634 Z" />
</svg>