<svg version="1.1" xmlns="http://www.w3.org/2000/svg" viewBox="-6.133 -5 12.267 10" fill="black" stroke="none"><path fill-rule="evenodd" d="M 1.765 3.097 L 2.547 3.186 L 2.586 2.846 L 0.163 2.572 L 0.163 2.417 L -0.179 2.417 L -0.179 2.533 L -2.409 2.281 L -2.401 2.241 L -2.396 2.16 L -2.401 2.079 L -2.417 2.002 L -2.443 1.928 L -2.478 1.859 L -2.521 1.795 L -2.572 1.737 L -2.629 1.687 L -2.693 1.643 L -2.762 1.609 L -2.836 1.583 L -2.914 1.567 L -2.994 1.561 L -3.075 1.567 L -3.153 1.583 L -3.227 1.609 L -3.296 1.643 L -3.36 1.687 L -3.417 1.737 L -3.468 1.795 L -3.511 1.859 L -3.546 1.928 L -3.56 1.968 L -5.133 1.968 L -5.133 2.31 L -3.574 2.31 L -3.572 2.319 L -3.546 2.392 L -3.511 2.461 L -3.468 2.525 L -3.417 2.583 L -3.36 2.634 L -3.296 2.677 L -3.227 2.712 L -3.153 2.737 L -3.075 2.754 L -2.994 2.759 L -2.914 2.754 L -2.836 2.737 L -2.762 2.712 L -2.693 2.677 L -2.629 2.634 L -2.597 2.605 L 1.665 3.086 L 1.289 3.658 L 1.283 3.658 L 1.283 3.666 L 1.283 4 L 5.133 4 L 5.133 3.658 L 2.134 3.658 L 1.765 3.097 Z M -3.251 2.16 L -3.249 2.125 L -3.242 2.091 L -3.231 2.059 L -3.217 2.03 L -3.198 2.002 L -3.177 1.978 L -3.152 1.956 L -3.125 1.938 L -3.095 1.923 L -3.063 1.912 L -3.03 1.906 L -2.994 1.903 L -2.959 1.906 L -2.926 1.912 L -2.894 1.923 L -2.864 1.938 L -2.837 1.956 L -2.812 1.978 L -2.791 2.002 L -2.772 2.03 L -2.758 2.059 L -2.747 2.091 L -2.74 2.125 L -2.738 2.16 L -2.74 2.195 L -2.747 2.229 L -2.758 2.261 L -2.772 2.291 L -2.791 2.318 L -2.812 2.342 L -2.837 2.364 L -2.864 2.382 L -2.894 2.397 L -2.926 2.408 L -2.959 2.414 L -2.994 2.417 L -3.03 2.414 L -3.063 2.408 L -3.095 2.397 L -3.125 2.382 L -3.152 2.364 L -3.177 2.342 L -3.198 2.318 L -3.217 2.291 L -3.231 2.261 L -3.242 2.229 L -3.249 2.195 L -3.251 2.16 Z M -0.179 2.078 L 0.163 2.078 L 0.163 1.743 L -0.179 1.743 L -0.179 2.078 Z M 2.133 0.663 L 1.711 1.305 L 1.289 0.663 L 1.283 0.663 L 1.283 0.654 L 1.283 0.321 L 5.133 0.321 L 5.133 0.663 L 2.133 0.663 Z M -0.179 -1.947 L 0.163 -1.947 L 3.593 -1.947 L 3.593 -2.802 L 5.133 -2.802 L 5.133 -3.144 L 3.593 -3.144 L 3.593 -4 L -3.593 -4 L -3.593 -3.157 L -5.133 -3.157 L -5.133 -2.815 L -3.593 -2.815 L -3.593 -1.947 L -0.179 -1.947 Z M -3.251 -2.289 L -3.251 -3.658 L 3.251 -3.658 L 3.251 -2.289 L -3.251 -2.289 Z M -0.179 -1.276 L 0.163 -1.276 L 0.163 -1.611 L -0.179 -1.611 L -0.179 -1.276 Z M -0.179 -0.605 L 0.163 -0.605 L 0.163 -0.941 L -0.179 -0.941 L -0.179 -0.605 Z M -0.179 0.066 L 0.163 0.066 L 0.163 -0.27 L -0.179 -0.27 L -0.179 0.066 Z M -0.179 0.736 L 0.163 0.736 L 0.163 0.401 L -0.179 0.401 L -0.179 0.736 Z M -0.179 1.407 L 0.163 1.407 L 0.163 1.072 L -0.179 1.072 L -0.179 1.407 Z" /></svg>