<svg version="1.1" xmlns="http://www.w3.org/2000/svg" viewBox="-6.714 -5 13.429 10" fill="black" stroke="none"><path fill-rule="evenodd" d="M -3.987 0.19 L -3.963 0.542 L -3.857 1.063 L -3.685 1.556 L -3.453 2.018 L -3.166 2.443 L -2.828 2.828 L -2.443 3.166 L -2.018 3.453 L -1.556 3.685 L -1.063 3.857 L -0.542 3.963 L 0 4 L 0.542 3.963 L 1.063 3.857 L 1.556 3.685 L 2.018 3.453 L 2.443 3.166 L 2.828 2.828 L 3.166 2.443 L 3.453 2.018 L 3.685 1.556 L 3.857 1.063 L 3.963 0.542 L 3.987 0.19 L 5.714 0.19 L 5.714 -0.19 L 3.987 -0.19 L 3.963 -0.542 L 3.857 -1.063 L 3.685 -1.556 L 3.453 -2.018 L 3.166 -2.443 L 2.828 -2.828 L 2.443 -3.166 L 2.018 -3.453 L 1.556 -3.685 L 1.063 -3.857 L 0.542 -3.963 L 0 -4 L -0.542 -3.963 L -1.063 -3.857 L -1.556 -3.685 L -2.018 -3.453 L -2.443 -3.166 L -2.828 -2.828 L -3.166 -2.443 L -3.453 -2.018 L -3.685 -1.556 L -3.857 -1.063 L -3.963 -0.542 L -3.987 -0.19 L -5.714 -0.19 L -5.714 0.19 L -3.987 0.19 Z M -3.619 0 L -3.586 -0.492 L -3.49 -0.963 L -3.335 -1.41 L -3.125 -1.828 L -2.866 -2.212 L -2.56 -2.56 L -2.212 -2.866 L -1.828 -3.125 L -1.41 -3.335 L -0.963 -3.49 L -0.492 -3.586 L 0 -3.619 L 0.492 -3.586 L 0.963 -3.49 L 1.41 -3.335 L 1.828 -3.125 L 2.212 -2.866 L 2.56 -2.56 L 2.866 -2.212 L 3.125 -1.828 L 3.335 -1.41 L 3.49 -0.963 L 3.586 -0.492 L 3.619 0 L 3.586 0.492 L 3.49 0.963 L 3.335 1.41 L 3.125 1.828 L 2.866 2.212 L 2.56 2.56 L 2.212 2.866 L 1.828 3.125 L 1.41 3.335 L 0.963 3.49 L 0.492 3.586 L 0 3.619 L -0.492 3.586 L -0.963 3.49 L -1.41 3.335 L -1.828 3.125 L -2.212 2.866 L -2.56 2.56 L -2.866 2.212 L -3.125 1.828 L -3.335 1.41 L -3.49 0.963 L -3.586 0.492 L -3.619 0 Z M -2.857 1.143 L -1.813 1.143 L 0 -1.124 L 1.813 1.143 L 2.857 1.143 L 2.857 0.762 L 1.996 0.762 L 0 -1.733 L -1.996 0.762 L -2.857 0.762 L -2.857 1.143 Z" /></svg>