<svg version="1.1" xmlns="http://www.w3.org/2000/svg" viewBox="-6.01796875350217 -5.000000933093764 12.03593750700434 10.000001866187528" fill="black" stroke="none">
    <path fill-rule="evenodd" d="M 0 -4 L -0.11826 -3.88174 L -3.83273 -0.16727 L -5.01797 -0.16727 L -5.01797 0.16727 L -3.83273 0.16727 L 0 4 L 3.83273 0.16727 L 5.01797 0.16727 L 5.01797 -0.16727 L 3.83273 -0.16727 L 0 -4 Z M 0 -3.52695 L 3.52695 0 L 0 3.52695 L -3.52695 0 L 0 -3.52695 Z M -2.50898 -0.16727 L -2.50898 0.16727 L -0.83633 0.16727 L -0.83633 -0.16727 L -2.50898 -0.16727 Z M 1.50539 -0.83633 L 1.50539 -0.16727 L 0.83633 -0.16727 L 0.83633 0.16727 L 1.50539 0.16727 L 1.50539 0.83633 L 1.83992 0.83633 L 1.83992 0.16727 L 2.50898 0.16727 L 2.50898 -0.16727 L 1.83992 -0.16727 L 1.83992 -0.83633 L 1.50539 -0.83633 Z" />
</svg>