<svg version="1.1" xmlns="http://www.w3.org/2000/svg" viewBox="-7.234 -5 14.468 10" fill="black" stroke="none"><path d="M 2.39 -2.234 L 2.39 -2.234 L 2.39 -2.234 L 2.39 4 L 2.805 4 L 2.805 -2.234 L 2.805 -2.234 L 2.805 -2.234 L 2.805 -2.234 L 2.805 -2.234 L 2.805 -2.234 L 2.805 -2.234 L 2.805 -2.234 L 2.805 -2.234 L 2.805 -2.234 L 2.805 -2.234 L 2.805 -2.234 L 2.805 -2.234 L 2.805 -2.241 L 2.806 -2.262 L 2.808 -2.295 L 2.811 -2.339 L 2.817 -2.392 L 2.825 -2.454 L 2.836 -2.524 L 2.85 -2.599 L 2.868 -2.679 L 2.891 -2.762 L 2.919 -2.847 L 2.952 -2.933 L 2.99 -3.018 L 3.032 -3.101 L 3.08 -3.18 L 3.135 -3.255 L 3.196 -3.325 L 3.265 -3.388 L 3.344 -3.444 L 3.432 -3.492 L 3.53 -3.531 L 3.64 -3.56 L 3.762 -3.578 L 3.897 -3.584 L 4.031 -3.578 L 4.153 -3.56 L 4.263 -3.531 L 4.361 -3.492 L 4.449 -3.444 L 4.528 -3.388 L 4.597 -3.325 L 4.658 -3.255 L 4.713 -3.18 L 4.761 -3.101 L 4.803 -3.018 L 4.841 -2.933 L 4.874 -2.847 L 4.902 -2.762 L 4.924 -2.679 L 4.943 -2.599 L 4.957 -2.524 L 4.968 -2.454 L 4.976 -2.392 L 4.981 -2.339 L 4.984 -2.295 L 4.986 -2.262 L 4.987 -2.241 L 4.987 -2.234 L 4.987 -2.22 L 4.989 -2.207 L 4.991 -2.193 L 4.994 -2.18 L 4.998 -2.167 L 5.003 -2.154 L 5.008 -2.142 L 5.015 -2.13 L 5.022 -2.118 L 5.03 -2.107 L 5.039 -2.097 L 5.048 -2.087 L 5.058 -2.078 L 5.068 -2.069 L 5.079 -2.061 L 5.091 -2.054 L 5.103 -2.047 L 5.115 -2.042 L 5.128 -2.037 L 5.141 -2.033 L 5.154 -2.03 L 5.168 -2.028 L 5.181 -2.026 L 5.195 -2.026 L 6.234 -2.026 L 6.234 -2.442 L 5.386 -2.442 L 5.382 -2.484 L 5.376 -2.528 L 5.37 -2.575 L 5.362 -2.624 L 5.352 -2.675 L 5.341 -2.729 L 5.328 -2.785 L 5.312 -2.842 L 5.294 -2.902 L 5.274 -2.964 L 5.251 -3.027 L 5.225 -3.093 L 5.174 -3.202 L 5.114 -3.311 L 5.044 -3.418 L 4.963 -3.521 L 4.871 -3.619 L 4.767 -3.71 L 4.653 -3.791 L 4.526 -3.861 L 4.388 -3.919 L 4.237 -3.963 L 4.073 -3.99 L 3.897 -4 L 3.727 -3.991 L 3.57 -3.966 L 3.424 -3.926 L 3.29 -3.872 L 3.168 -3.806 L 3.056 -3.73 L 2.955 -3.646 L 2.864 -3.554 L 2.783 -3.456 L 2.712 -3.355 L 2.65 -3.251 L 2.598 -3.146 L 2.545 -3.251 L 2.484 -3.355 L 2.413 -3.456 L 2.332 -3.554 L 2.241 -3.646 L 2.14 -3.73 L 2.028 -3.806 L 1.905 -3.872 L 1.772 -3.926 L 1.626 -3.966 L 1.469 -3.991 L 1.299 -4 L 1.13 -3.991 L 0.972 -3.966 L 0.827 -3.926 L 0.693 -3.872 L 0.57 -3.806 L 0.458 -3.73 L 0.357 -3.646 L 0.266 -3.554 L 0.186 -3.456 L 0.115 -3.355 L 0.053 -3.251 L 0 -3.146 L -0.052 -3.251 L -0.114 -3.355 L -0.185 -3.456 L -0.266 -3.554 L -0.356 -3.646 L -0.457 -3.73 L -0.569 -3.806 L -0.692 -3.872 L -0.826 -3.926 L -0.971 -3.966 L -1.129 -3.991 L -1.298 -4 L -1.468 -3.991 L -1.625 -3.966 L -1.771 -3.925 L -1.905 -3.872 L -2.028 -3.806 L -2.14 -3.73 L -2.241 -3.645 L -2.332 -3.553 L -2.413 -3.455 L -2.484 -3.354 L -2.545 -3.25 L -2.598 -3.145 L -2.65 -3.249 L -2.712 -3.353 L -2.783 -3.454 L -2.864 -3.551 L -2.955 -3.642 L -3.056 -3.727 L -3.167 -3.802 L -3.29 -3.867 L -3.424 -3.921 L -3.569 -3.961 L -3.726 -3.986 L -3.896 -3.995 L -4.072 -3.985 L -4.236 -3.958 L -4.387 -3.914 L -4.526 -3.856 L -4.652 -3.785 L -4.767 -3.704 L -4.87 -3.613 L -4.962 -3.515 L -5.043 -3.411 L -5.114 -3.304 L -5.174 -3.194 L -5.224 -3.085 L -5.25 -3.019 L -5.274 -2.955 L -5.294 -2.893 L -5.312 -2.833 L -5.327 -2.775 L -5.341 -2.719 L -5.352 -2.665 L -5.362 -2.614 L -5.37 -2.564 L -5.376 -2.518 L -5.382 -2.473 L -5.386 -2.431 L -6.234 -2.431 L -6.234 -2.015 L -5.195 -2.015 L -5.181 -2.016 L -5.168 -2.017 L -5.154 -2.019 L -5.141 -2.022 L -5.128 -2.026 L -5.115 -2.031 L -5.103 -2.037 L -5.091 -2.043 L -5.079 -2.05 L -5.068 -2.058 L -5.058 -2.067 L -5.048 -2.076 L -5.039 -2.086 L -5.03 -2.096 L -5.022 -2.107 L -5.015 -2.119 L -5.008 -2.131 L -5.003 -2.143 L -4.998 -2.156 L -4.994 -2.169 L -4.991 -2.182 L -4.989 -2.196 L -4.987 -2.209 L -4.987 -2.223 L -4.987 -2.23 L -4.986 -2.251 L -4.984 -2.284 L -4.981 -2.328 L -4.976 -2.382 L -4.968 -2.444 L -4.957 -2.514 L -4.942 -2.59 L -4.924 -2.67 L -4.901 -2.753 L -4.874 -2.839 L -4.841 -2.925 L -4.803 -3.011 L -4.76 -3.094 L -4.712 -3.173 L -4.658 -3.249 L -4.596 -3.318 L -4.527 -3.382 L -4.448 -3.438 L -4.36 -3.487 L -4.262 -3.526 L -4.152 -3.555 L -4.03 -3.573 L -3.896 -3.579 L -3.761 -3.573 L -3.639 -3.555 L -3.529 -3.526 L -3.431 -3.487 L -3.343 -3.439 L -3.265 -3.383 L -3.195 -3.32 L -3.134 -3.251 L -3.079 -3.176 L -3.031 -3.097 L -2.989 -3.015 L -2.951 -2.93 L -2.918 -2.845 L -2.891 -2.76 L -2.868 -2.677 L -2.85 -2.597 L -2.835 -2.523 L -2.824 -2.454 L -2.817 -2.392 L -2.811 -2.338 L -2.808 -2.295 L -2.806 -2.262 L -2.805 -2.241 L -2.805 -2.234 L -2.805 -2.234 L -2.805 -2.234 L -2.805 -2.234 L -2.805 -2.234 L -2.805 -2.234 L -2.805 -2.234 L -2.805 -2.234 L -2.805 -2.234 L -2.805 -2.234 L -2.805 -2.234 L -2.805 -2.234 L -2.805 -2.234 L -2.803 -2.207 L -2.798 -2.181 L -2.789 -2.155 L -2.776 -2.131 L -2.761 -2.109 L -2.743 -2.089 L -2.723 -2.071 L -2.701 -2.056 L -2.676 -2.044 L -2.651 -2.036 L -2.624 -2.031 L -2.597 -2.029 L -2.571 -2.031 L -2.544 -2.036 L -2.519 -2.044 L -2.494 -2.056 L -2.472 -2.071 L -2.452 -2.089 L -2.434 -2.109 L -2.418 -2.131 L -2.406 -2.155 L -2.397 -2.18 L -2.392 -2.207 L -2.39 -2.234 L -2.39 -2.234 L -2.39 -2.234 L -2.39 -2.234 L -2.39 -2.234 L -2.39 -2.234 L -2.39 -2.234 L -2.39 -2.234 L -2.39 -2.234 L -2.39 -2.234 L -2.39 -2.234 L -2.39 -2.234 L -2.39 -2.234 L -2.389 -2.241 L -2.389 -2.262 L -2.387 -2.295 L -2.384 -2.339 L -2.378 -2.392 L -2.37 -2.454 L -2.359 -2.524 L -2.345 -2.599 L -2.327 -2.679 L -2.304 -2.762 L -2.276 -2.847 L -2.243 -2.933 L -2.205 -3.018 L -2.163 -3.101 L -2.115 -3.18 L -2.06 -3.255 L -1.999 -3.325 L -1.929 -3.388 L -1.851 -3.444 L -1.763 -3.492 L -1.665 -3.531 L -1.555 -3.56 L -1.433 -3.578 L -1.298 -3.584 L -1.163 -3.578 L -1.042 -3.56 L -0.932 -3.531 L -0.833 -3.492 L -0.746 -3.444 L -0.667 -3.388 L -0.598 -3.325 L -0.536 -3.255 L -0.482 -3.18 L -0.434 -3.101 L -0.392 -3.018 L -0.354 -2.933 L -0.321 -2.847 L -0.293 -2.762 L -0.27 -2.679 L -0.252 -2.599 L -0.238 -2.524 L -0.227 -2.454 L -0.219 -2.392 L -0.214 -2.339 L -0.21 -2.295 L -0.209 -2.262 L -0.208 -2.241 L -0.208 -2.234 L -0.208 -2.234 L -0.208 -2.234 L -0.208 -2.234 L -0.208 -2.234 L -0.208 -2.234 L -0.208 -2.234 L -0.208 -2.234 L -0.208 -2.234 L -0.208 -2.234 L -0.208 -2.234 L -0.208 -2.234 L -0.208 -2.234 L -0.208 -2.234 L -0.208 4 L 0.208 4 L 0.208 -2.234 L 0.208 -2.234 L 0.208 -2.234 L 0.208 -2.234 L 0.208 -2.234 L 0.208 -2.234 L 0.208 -2.234 L 0.208 -2.234 L 0.208 -2.234 L 0.208 -2.234 L 0.208 -2.234 L 0.208 -2.234 L 0.208 -2.234 L 0.208 -2.241 L 0.209 -2.262 L 0.21 -2.295 L 0.214 -2.339 L 0.219 -2.392 L 0.227 -2.454 L 0.238 -2.524 L 0.253 -2.599 L 0.271 -2.679 L 0.294 -2.762 L 0.321 -2.847 L 0.354 -2.933 L 0.392 -3.018 L 0.435 -3.101 L 0.483 -3.18 L 0.537 -3.255 L 0.599 -3.325 L 0.668 -3.388 L 0.746 -3.444 L 0.834 -3.492 L 0.933 -3.531 L 1.042 -3.56 L 1.164 -3.578 L 1.299 -3.584 L 1.434 -3.578 L 1.556 -3.56 L 1.666 -3.531 L 1.764 -3.492 L 1.852 -3.444 L 1.93 -3.388 L 2 -3.325 L 2.061 -3.255 L 2.115 -3.18 L 2.163 -3.101 L 2.206 -3.018 L 2.244 -2.933 L 2.277 -2.847 L 2.304 -2.762 L 2.327 -2.679 L 2.345 -2.599 L 2.36 -2.524 L 2.37 -2.454 L 2.378 -2.392 L 2.384 -2.339 L 2.387 -2.295 L 2.389 -2.262 L 2.389 -2.241 L 2.39 -2.234 L 2.39 -2.234 L 2.39 -2.234 L 2.39 -2.234 L 2.39 -2.234 L 2.39 -2.234 L 2.39 -2.234 L 2.39 -2.234 L 2.39 -2.234 L 2.39 -2.234 L 2.39 -2.234 L 2.39 -2.234 Z" /></svg>