<svg version="1.1" xmlns="http://www.w3.org/2000/svg" viewBox="-10.285175352825668 -5.000000876197682 20.570350705651336 10.00000175239535" fill="black" stroke="none">
    <path d="M -9.28517 0.1747 L -1.48563 0.1747 L -1.48563 0.4327 L -6.35406 3.47529 L -6.02617 4 L -1.48563 1.16246 L -1.48563 3.70669 L -0.86662 3.70669 L -0.86662 0.77558 L 0.86662 -0.30745 L 0.86662 3.70669 L 1.48563 3.70669 L 1.48563 0.20928 L 9.28517 0.20928 L 9.28517 -0.40973 L 1.48563 -0.40973 L 1.48563 -0.69433 L 4.08822 -2.32077 L 4.74163 -1.27511 L 6.19012 -4 L 3.1062 -3.89229 L 3.76016 -2.84576 L 1.48563 -1.42433 L 1.48563 -3.96905 L 0.86662 -3.96905 L 0.86662 -1.03745 L -0.86662 0.04582 L -0.86662 -3.96905 L -1.48563 -3.96905 L -1.48563 -0.44431 L -9.28517 -0.44431 L -9.28517 0.1747 Z" />
</svg>