<svg version="1.1" xmlns="http://www.w3.org/2000/svg" viewBox="-9.889 -5 19.778 10" fill="black" stroke="none"><path fill-rule="evenodd" d="M 3.259 1.729 L 3.582 1.537 L 4 1.228 L 4.373 0.892 L 4.702 0.535 L 4.99 0.162 L 5.238 -0.221 L 5.45 -0.608 L 5.628 -0.995 L 5.777 -1.377 L 5.898 -1.747 L 5.995 -2.101 L 6.071 -2.433 L 6.127 -2.738 L 6.168 -3.011 L 6.195 -3.246 L 6.211 -3.438 L 6.219 -3.582 L 6.222 -3.672 L 6.222 -3.704 L 6.222 -4 L -6.222 -4 L -6.222 -3.704 L -6.222 -3.672 L -6.219 -3.582 L -6.211 -3.438 L -6.195 -3.246 L -6.168 -3.011 L -6.127 -2.738 L -6.071 -2.433 L -5.995 -2.101 L -5.898 -1.747 L -5.777 -1.377 L -5.628 -0.995 L -5.45 -0.608 L -5.238 -0.221 L -4.99 0.162 L -4.702 0.535 L -4.373 0.892 L -4 1.228 L -3.582 1.537 L -3.259 1.729 L -3.259 3.371 L -8.889 3.371 L -8.889 3.963 L -2.667 3.963 L -2.667 2.022 L -2.601 2.053 L -2.034 2.248 L -1.413 2.395 L -0.736 2.487 L 0 2.519 L 0.736 2.487 L 1.413 2.395 L 2.034 2.248 L 2.601 2.053 L 2.667 2.022 L 2.667 4 L 8.889 4 L 8.889 3.407 L 3.259 3.407 L 3.259 1.729 Z M -5.6 -3.407 L 5.6 -3.407 L 5.594 -3.304 L 5.584 -3.176 L 5.569 -3.024 L 5.546 -2.851 L 5.515 -2.657 L 5.474 -2.445 L 5.42 -2.216 L 5.354 -1.972 L 5.272 -1.714 L 5.173 -1.444 L 5.057 -1.163 L 4.92 -0.873 L 4.73 -0.522 L 4.51 -0.176 L 4.257 0.159 L 3.968 0.48 L 3.64 0.78 L 3.27 1.055 L 2.855 1.302 L 2.392 1.514 L 1.878 1.687 L 1.31 1.817 L 0.685 1.898 L 0 1.926 L -0.685 1.898 L -1.31 1.817 L -1.878 1.687 L -2.392 1.514 L -2.855 1.302 L -3.27 1.055 L -3.64 0.78 L -3.968 0.48 L -4.257 0.159 L -4.51 -0.176 L -4.73 -0.522 L -4.92 -0.873 L -5.057 -1.163 L -5.173 -1.444 L -5.272 -1.714 L -5.354 -1.972 L -5.42 -2.216 L -5.474 -2.445 L -5.515 -2.657 L -5.546 -2.851 L -5.569 -3.024 L -5.584 -3.176 L -5.594 -3.304 L -5.6 -3.407 Z" /></svg>