<svg version="1.1" xmlns="http://www.w3.org/2000/svg" viewBox="-26.124723261898353 -5.0000006650036966 52.249446523796706 10.000001330007407" fill="black" stroke="none">
    <path d="M -5.23235 -4 L -5.91619 -3.96449 L -6.55099 -3.86215 L -7.13798 -3.69932 L -7.67838 -3.4823 L -8.17341 -3.21741 L -8.62429 -2.91096 L -9.03223 -2.56926 L -9.39845 -2.19865 L -9.72419 -1.80541 L -10.01064 -1.39589 L -10.25904 -0.97638 L -10.4706 -0.5532 L -10.68243 -0.97439 L -10.93092 -1.39176 L -11.2173 -1.79906 L -11.54279 -2.19003 L -11.9086 -2.55842 L -12.31597 -2.89798 L -12.7661 -3.20246 L -13.26022 -3.4656 L -13.79954 -3.68115 L -14.3853 -3.84285 L -15.01871 -3.94446 L -15.70099 -3.97972 L -16.41299 -3.94112 L -17.0727 -3.83011 L -17.68134 -3.65383 L -18.24007 -3.41944 L -18.75009 -3.1341 L -19.21259 -2.80496 L -19.62877 -2.43918 L -19.9998 -2.04392 L -20.32689 -1.62632 L -20.61122 -1.19355 L -20.85397 -0.75276 L -21.05635 -0.31111 L -21.16175 -0.04597 L -21.25522 0.21166 L -21.33755 0.46155 L -21.40954 0.70347 L -21.47197 0.93719 L -21.52564 1.1625 L -21.57133 1.37916 L -21.60986 1.58696 L -21.64199 1.78567 L -21.66854 1.97507 L -21.69028 2.15493 L -21.70802 2.32502 L -25.12472 2.32502 L -25.12472 4 L -20.93727 4 L -20.8825 3.9982 L -20.82796 3.99282 L -20.77389 3.98389 L -20.72052 3.97145 L -20.66808 3.95553 L -20.61679 3.93623 L -20.56687 3.91361 L -20.51854 3.88777 L -20.472 3.85883 L -20.42746 3.82691 L -20.3851 3.79214 L -20.3451 3.75468 L -20.30764 3.71468 L -20.27287 3.67232 L -20.24095 3.62777 L -20.21201 3.58124 L -20.18617 3.53291 L -20.16355 3.48299 L -20.14424 3.4317 L -20.12833 3.37926 L -20.11588 3.32589 L -20.10695 3.27182 L -20.10158 3.21728 L -20.09978 3.16251 L -20.09922 3.13342 L -20.09625 3.04957 L -20.08894 2.91611 L -20.07536 2.73819 L -20.05359 2.52095 L -20.02169 2.26953 L -19.97774 1.98907 L -19.9198 1.68474 L -19.84595 1.36165 L -19.75425 1.02497 L -19.64278 0.67984 L -19.50961 0.3314 L -19.35669 -0.01321 L -19.18503 -0.34774 L -18.99127 -0.66839 L -18.77208 -0.97139 L -18.52411 -1.25294 L -18.244 -1.50924 L -17.9284 -1.73652 L -17.57397 -1.93097 L -17.17737 -2.0888 L -16.73523 -2.20624 L -16.24422 -2.27948 L -15.70099 -2.30474 L -15.15727 -2.27966 L -14.66597 -2.20693 L -14.22371 -2.09033 L -13.82712 -1.93363 L -13.47284 -1.74059 L -13.15749 -1.515 L -12.87771 -1.26061 L -12.63012 -0.98122 L -12.41136 -0.68057 L -12.21805 -0.36245 L -12.04683 -0.03063 L -11.89433 0.31111 L -11.76154 0.65662 L -11.65039 0.99884 L -11.55898 1.33265 L -11.48536 1.65298 L -11.42762 1.95471 L -11.38383 2.23275 L -11.35206 2.48201 L -11.33039 2.69738 L -11.31688 2.87376 L -11.30962 3.00606 L -11.30668 3.08918 L -11.30613 3.11802 L -11.30613 3.11803 L -11.30613 3.11807 L -11.30613 3.11812 L -11.30613 3.11819 L -11.30613 3.11827 L -11.30613 3.11835 L -11.30613 3.11844 L -11.30613 3.11851 L -11.30613 3.11858 L -11.30613 3.11864 L -11.30613 3.11867 L -11.30613 3.11869 L -11.2976 3.22693 L -11.27515 3.33316 L -11.23914 3.43559 L -11.19018 3.5325 L -11.1291 3.62226 L -11.05692 3.70337 L -10.97486 3.77446 L -10.88429 3.83434 L -10.78673 3.882 L -10.68383 3.91664 L -10.57731 3.93768 L -10.46896 3.94476 L -10.36061 3.93776 L -10.25408 3.91681 L -10.15115 3.88226 L -10.05356 3.83468 L -9.96294 3.77487 L -9.88081 3.70384 L -9.80857 3.62279 L -9.74742 3.53308 L -9.69838 3.4362 L -9.6623 3.3338 L -9.63976 3.22759 L -9.63114 3.11936 L -9.63114 3.11934 L -9.63114 3.11931 L -9.63114 3.11925 L -9.63114 3.11918 L -9.63114 3.11911 L -9.63114 3.11902 L -9.63114 3.11894 L -9.63114 3.11886 L -9.63114 3.11879 L -9.63114 3.11874 L -9.63114 3.1187 L -9.63114 3.11869 L -9.63057 3.08972 L -9.62758 3.00624 L -9.62024 2.87336 L -9.60663 2.6962 L -9.58482 2.4799 L -9.55289 2.22958 L -9.50892 1.95035 L -9.45097 1.64735 L -9.37712 1.32569 L -9.28546 0.9905 L -9.17405 0.64689 L -9.04097 0.30001 L -8.88817 -0.04307 L -8.71663 -0.37614 L -8.523 -0.69542 L -8.30392 -0.99713 L -8.05604 -1.2775 L -7.776 -1.53274 L -7.46043 -1.75908 L -7.10599 -1.95275 L -6.70932 -2.10995 L -6.26706 -2.22691 L -5.77586 -2.29986 L -5.23235 -2.32502 L -4.68887 -2.29986 L -4.19773 -2.22691 L -3.75558 -2.10993 L -3.35905 -1.95272 L -3.00478 -1.75905 L -2.6894 -1.53271 L -2.40956 -1.27746 L -2.16189 -0.99709 L -1.94303 -0.69538 L -1.74962 -0.37611 L -1.5783 -0.04306 L -1.4257 0.29999 L -1.29282 0.64684 L -1.18163 0.99039 L -1.09018 1.32553 L -1.01656 1.64712 L -0.95883 1.95005 L -0.91505 2.2292 L -0.88331 2.47945 L -0.86167 2.69568 L -0.8482 2.87277 L -0.84096 3.00561 L -0.83804 3.08906 L -0.83749 3.11802 L -0.83749 3.11803 L -0.83749 3.11807 L -0.83749 3.11812 L -0.83749 3.11819 L -0.83749 3.11827 L -0.83749 3.11835 L -0.83749 3.11844 L -0.83749 3.11851 L -0.83749 3.11858 L -0.83749 3.11864 L -0.83749 3.11867 L -0.83749 3.11869 L -0.82897 3.22693 L -0.80651 3.33316 L -0.7705 3.43559 L -0.72155 3.5325 L -0.66047 3.62226 L -0.58829 3.70337 L -0.50622 3.77446 L -0.41565 3.83434 L -0.31809 3.882 L -0.21519 3.91664 L -0.10867 3.93768 L -0.00033 3.94476 L 0.10802 3.93776 L 0.21455 3.91681 L 0.31748 3.88226 L 0.41508 3.83468 L 0.5057 3.77487 L 0.58782 3.70384 L 0.66006 3.62279 L 0.72122 3.53308 L 0.77025 3.4362 L 0.80634 3.3338 L 0.82888 3.22759 L 0.83749 3.11936 L 0.83749 3.11934 L 0.83749 3.11931 L 0.83749 3.11925 L 0.83749 3.11918 L 0.83749 3.11911 L 0.83749 3.11902 L 0.83749 3.11894 L 0.83749 3.11886 L 0.83749 3.11879 L 0.83749 3.11874 L 0.83749 3.1187 L 0.83749 3.11869 L 0.83806 3.08972 L 0.84105 3.00624 L 0.84839 2.87336 L 0.862 2.6962 L 0.88381 2.4799 L 0.91574 2.22958 L 0.95972 1.95035 L 1.01767 1.64735 L 1.09151 1.32569 L 1.18317 0.9905 L 1.29458 0.64689 L 1.42766 0.30001 L 1.58046 -0.04307 L 1.752 -0.37614 L 1.94563 -0.69542 L 2.16471 -0.99713 L 2.41259 -1.2775 L 2.69264 -1.53274 L 3.0082 -1.75908 L 3.36264 -1.95275 L 3.75931 -2.10995 L 4.20157 -2.22691 L 4.69277 -2.29986 L 5.23628 -2.32502 L 5.77976 -2.29986 L 6.2709 -2.22691 L 6.71305 -2.10993 L 7.10958 -1.95272 L 7.46386 -1.75905 L 7.77923 -1.53271 L 8.05908 -1.27746 L 8.30674 -0.99709 L 8.5256 -0.69538 L 8.71901 -0.37611 L 8.89034 -0.04306 L 9.04294 0.29999 L 9.17581 0.64684 L 9.28701 0.99039 L 9.37845 1.32553 L 9.45207 1.64712 L 9.50981 1.95005 L 9.55358 2.2292 L 9.58532 2.47945 L 9.60696 2.69568 L 9.62044 2.87277 L 9.62767 3.00561 L 9.6306 3.08906 L 9.63114 3.11802 L 9.63114 3.11803 L 9.63114 3.11807 L 9.63114 3.11812 L 9.63114 3.11819 L 9.63114 3.11827 L 9.63114 3.11835 L 9.63114 3.11844 L 9.63114 3.11851 L 9.63114 3.11858 L 9.63114 3.11864 L 9.63114 3.11867 L 9.63114 3.11869 L 9.63967 3.22693 L 9.66212 3.33316 L 9.69813 3.43559 L 9.74709 3.5325 L 9.80817 3.62226 L 9.88035 3.70337 L 9.96241 3.77446 L 10.05298 3.83434 L 10.15054 3.882 L 10.25344 3.91664 L 10.35996 3.93768 L 10.4683 3.94476 L 10.57665 3.93776 L 10.68319 3.91681 L 10.78612 3.88226 L 10.88371 3.83468 L 10.97433 3.77487 L 11.05645 3.70384 L 11.1287 3.62279 L 11.18985 3.53308 L 11.23888 3.4362 L 11.27497 3.3338 L 11.29751 3.22759 L 11.30613 3.11936 L 11.30613 3.11934 L 11.30613 3.11931 L 11.30613 3.11925 L 11.30613 3.11918 L 11.30613 3.11911 L 11.30613 3.11902 L 11.30613 3.11894 L 11.30613 3.11886 L 11.30613 3.11879 L 11.30613 3.11874 L 11.30613 3.1187 L 11.30613 3.11869 L 11.30669 3.08972 L 11.30969 3.00624 L 11.31703 2.87336 L 11.33064 2.6962 L 11.35245 2.4799 L 11.38438 2.22958 L 11.42836 1.95035 L 11.48631 1.64735 L 11.56015 1.32569 L 11.65181 0.9905 L 11.76322 0.64689 L 11.89629 0.30001 L 12.0491 -0.04307 L 12.22064 -0.37613 L 12.41427 -0.69541 L 12.63335 -0.99712 L 12.88123 -1.27749 L 13.16127 -1.53273 L 13.47684 -1.75907 L 13.83128 -1.95273 L 14.22795 -2.10993 L 14.6702 -2.2269 L 15.16141 -2.29985 L 15.70491 -2.325 L 16.2484 -2.29984 L 16.73953 -2.22689 L 17.18169 -2.10992 L 17.57822 -1.95271 L 17.93249 -1.75904 L 18.24787 -1.53269 L 18.52771 -1.27744 L 18.77538 -0.99708 L 18.99424 -0.69537 L 19.18765 -0.3761 L 19.35897 -0.04305 L 19.51157 0.30001 L 19.64445 0.64686 L 19.75564 0.99041 L 19.84708 1.32554 L 19.92071 1.64713 L 19.97844 1.95006 L 20.02221 2.22921 L 20.05396 2.47946 L 20.0756 2.6957 L 20.08907 2.87279 L 20.09631 3.00562 L 20.09923 3.08908 L 20.09978 3.11803 L 20.10154 3.17283 L 20.10688 3.2274 L 20.11577 3.2815 L 20.12819 3.33491 L 20.14408 3.38738 L 20.16337 3.43871 L 20.18597 3.48866 L 20.21179 3.53703 L 20.24072 3.5836 L 20.27264 3.62819 L 20.30741 3.67058 L 20.34487 3.71062 L 20.38488 3.74811 L 20.42725 3.78291 L 20.4718 3.81486 L 20.51836 3.84383 L 20.5667 3.86969 L 20.61664 3.89233 L 20.66795 3.91165 L 20.72042 3.92758 L 20.77381 3.94004 L 20.8279 3.94898 L 20.88247 3.95436 L 20.93727 3.95616 L 25.12472 3.95616 L 25.12472 2.28118 L 21.70867 2.28118 L 21.69092 2.11155 L 21.66913 1.93224 L 21.64254 1.74346 L 21.61036 1.54546 L 21.57181 1.33845 L 21.5261 1.12266 L 21.47244 0.89831 L 21.41007 0.66564 L 21.33818 0.42486 L 21.25601 0.1762 L 21.16276 -0.0801 L 21.05766 -0.34383 L 20.8554 -0.7841 L 20.61279 -1.22348 L 20.32862 -1.65482 L 20.00171 -2.07102 L 19.63087 -2.46493 L 19.21491 -2.82944 L 18.75264 -3.15742 L 18.24286 -3.44175 L 17.68439 -3.6753 L 17.07603 -3.85094 L 16.41661 -3.96155 L 15.70491 -4 L 15.0218 -3.96456 L 14.38765 -3.86243 L 13.80123 -3.6999 L 13.26132 -3.48328 L 12.7667 -3.21887 L 12.31615 -2.91294 L 11.90845 -2.57182 L 11.54238 -2.20178 L 11.21671 -1.80912 L 10.93023 -1.40015 L 10.68172 -0.98116 L 10.46994 -0.55844 L 10.25838 -0.98119 L 10.01007 -1.40021 L 9.72377 -1.8092 L 9.39827 -2.20186 L 9.03234 -2.57189 L 8.62477 -2.91301 L 8.17433 -3.21892 L 7.67979 -3.48332 L 7.13994 -3.69993 L 6.55355 -3.86244 L 5.91941 -3.96456 L 5.23628 -4 L 4.55317 -3.96456 L 3.91901 -3.86243 L 3.33259 -3.6999 L 2.79268 -3.48328 L 2.29806 -3.21887 L 1.84752 -2.91294 L 1.43982 -2.57182 L 1.07374 -2.20178 L 0.74808 -1.80912 L 0.4616 -1.40015 L 0.21308 -0.98116 L 0.00131 -0.55844 L -0.21025 -0.98119 L -0.45857 -1.40021 L -0.74487 -1.8092 L -1.07037 -2.20186 L -1.43629 -2.57189 L -1.84387 -2.91301 L -2.29431 -3.21892 L -2.78884 -3.48332 L -3.32869 -3.69993 L -3.91508 -3.86244 L -4.54923 -3.96456 L -5.23235 -4 Z" />
</svg>