<svg version="1.1" xmlns="http://www.w3.org/2000/svg" viewBox="-8.792208589812791 -5.000000896103899 17.584417179625582 10.000001792207797" fill="black" stroke="none">
    <path d="M 3.5564 -2.44677 L 4.17766 -1.6187 L 5.19481 -4 L 2.62338 -3.69039 L 3.54578 -2.46094 L 1.39463 -0.99918 L 1.21545 -0.97032 L 1.03357 -0.91991 L 0.86613 -0.85273 L 0.71272 -0.77073 L 0.57299 -0.67585 L 0.44655 -0.57005 L 0.33301 -0.45528 L 0.23201 -0.33351 L 0.14316 -0.20667 L 0.08564 -0.10968 L -0.03923 -0.02483 L -0.06521 -0.07673 L -0.14222 -0.20669 L -0.23101 -0.33353 L -0.33196 -0.45531 L -0.44545 -0.57007 L -0.57186 -0.67587 L -0.71156 -0.77074 L -0.86493 -0.85274 L -1.03236 -0.91992 L -1.21423 -0.97032 L -1.4109 -1.002 L -1.62277 -1.01299 L -1.83485 -1.00197 L -2.03173 -0.97024 L -2.21378 -0.91973 L -2.38138 -0.85243 L -2.53491 -0.77027 L -2.67474 -0.67523 L -2.80126 -0.56926 L -2.91485 -0.45431 L -3.01587 -0.33236 L -3.10471 -0.20534 L -3.18175 -0.07524 L -3.24736 0.05601 L -3.31306 -0.07462 L -3.39013 -0.20407 L -3.47895 -0.33039 L -3.57989 -0.45164 L -3.69335 -0.5659 L -3.81969 -0.67121 L -3.95929 -0.76564 L -4.11254 -0.84725 L -4.2798 -0.9141 L -4.46147 -0.96425 L -4.65792 -0.99576 L -4.86952 -1.0067 L -5.09034 -0.99473 L -5.29495 -0.9603 L -5.48371 -0.90562 L -5.65699 -0.83293 L -5.81517 -0.74444 L -5.95861 -0.64236 L -6.08769 -0.52891 L -6.20276 -0.40632 L -6.3042 -0.27681 L -6.39238 -0.14259 L -6.46767 -0.00589 L -6.53044 0.13109 L -6.56313 0.21332 L -6.59212 0.29322 L -6.61765 0.37072 L -6.63998 0.44575 L -6.65934 0.51824 L -6.67598 0.58812 L -6.69016 0.65531 L -6.7021 0.71976 L -6.71207 0.78139 L -6.7203 0.84013 L -6.72705 0.89591 L -6.73255 0.94866 L -7.79221 0.94866 L -7.79221 1.46814 L -6.49351 1.46814 L -6.47652 1.46758 L -6.4596 1.46592 L -6.44284 1.46315 L -6.42628 1.45929 L -6.41002 1.45435 L -6.39411 1.44836 L -6.37863 1.44135 L -6.36364 1.43333 L -6.34921 1.42436 L -6.33539 1.41446 L -6.32225 1.40368 L -6.30985 1.39206 L -6.29823 1.37965 L -6.28745 1.36651 L -6.27755 1.3527 L -6.26857 1.33827 L -6.26056 1.32328 L -6.25354 1.3078 L -6.24756 1.29189 L -6.24262 1.27562 L -6.23876 1.25907 L -6.23599 1.2423 L -6.23432 1.22539 L -6.23377 1.2084 L -6.23359 1.19938 L -6.23267 1.17337 L -6.2304 1.13198 L -6.22619 1.0768 L -6.21944 1.00943 L -6.20955 0.93145 L -6.19592 0.84447 L -6.17795 0.75008 L -6.15504 0.64988 L -6.1266 0.54546 L -6.09203 0.43842 L -6.05073 0.33036 L -6.0033 0.22348 L -5.95006 0.11973 L -5.88997 0.02028 L -5.82199 -0.07369 L -5.74509 -0.16101 L -5.65821 -0.2405 L -5.56033 -0.31099 L -5.45041 -0.37129 L -5.32741 -0.42025 L -5.19028 -0.45667 L -5.038 -0.47938 L -4.86952 -0.48722 L -4.70089 -0.47944 L -4.54852 -0.45688 L -4.41136 -0.42072 L -4.28836 -0.37212 L -4.17848 -0.31225 L -4.08068 -0.24229 L -3.99391 -0.16339 L -3.91712 -0.07674 L -3.84927 0.0165 L -3.78932 0.11517 L -3.73622 0.21808 L -3.68892 0.32407 L -3.64773 0.43122 L -3.61327 0.53736 L -3.58491 0.64089 L -3.56208 0.74023 L -3.54418 0.83381 L -3.53059 0.92005 L -3.52074 0.99735 L -3.51402 1.06414 L -3.50983 1.11885 L -3.50758 1.15988 L -3.50667 1.18566 L -3.50649 1.1946 L -3.50649 1.19461 L -3.50649 1.19462 L -3.50649 1.19463 L -3.50649 1.19466 L -3.50649 1.19468 L -3.50649 1.19471 L -3.50649 1.19473 L -3.50649 1.19476 L -3.50649 1.19478 L -3.50649 1.19479 L -3.50649 1.19481 L -3.50649 1.19481 L -3.50385 1.22838 L -3.49689 1.26133 L -3.48572 1.29309 L -3.47053 1.32315 L -3.45159 1.35099 L -3.42921 1.37615 L -3.40375 1.39819 L -3.37566 1.41676 L -3.34541 1.43155 L -3.31349 1.44229 L -3.28046 1.44881 L -3.24686 1.45101 L -3.21325 1.44884 L -3.18021 1.44234 L -3.14829 1.43162 L -3.11802 1.41687 L -3.08992 1.39832 L -3.06445 1.37629 L -3.04204 1.35115 L -3.02307 1.32333 L -3.00787 1.29328 L -2.99667 1.26153 L -2.98968 1.22859 L -2.98701 1.19502 L -2.98701 1.19501 L -2.98701 1.195 L -2.98701 1.19499 L -2.98701 1.19496 L -2.98701 1.19494 L -2.98701 1.19491 L -2.98701 1.19489 L -2.98701 1.19486 L -2.98701 1.19484 L -2.98701 1.19483 L -2.98701 1.19481 L -2.98701 1.19481 L -2.98684 1.18583 L -2.98591 1.15993 L -2.98363 1.11872 L -2.97941 1.06378 L -2.97265 0.9967 L -2.96274 0.91906 L -2.9491 0.83246 L -2.93113 0.73849 L -2.90823 0.63873 L -2.8798 0.53477 L -2.84525 0.42821 L -2.80398 0.32062 L -2.75659 0.21422 L -2.70339 0.11092 L -2.64333 0.0119 L -2.57539 -0.08167 L -2.49851 -0.16863 L -2.41166 -0.24779 L -2.31379 -0.31799 L -2.20386 -0.37805 L -2.08084 -0.4268 L -1.94367 -0.46308 L -1.79133 -0.4857 L -1.62277 -0.49351 L -1.45421 -0.4857 L -1.30189 -0.46308 L -1.16476 -0.4268 L -1.04178 -0.37804 L -0.9319 -0.31798 L -0.83409 -0.24778 L -0.7473 -0.16862 L -0.67049 -0.08166 L -0.60261 0.01191 L -0.54263 0.11093 L -0.48949 0.21422 L -0.46664 0.2656 L -5.35065 3.58442 L -5.03896 4 L -0.37669 0.50316 L -0.36647 0.53474 L -0.33811 0.63868 L -0.31528 0.73842 L -0.29737 0.83237 L -0.2838 0.91894 L -0.27395 0.99656 L -0.26724 1.06362 L -0.26306 1.11854 L -0.26082 1.15974 L -0.25991 1.18562 L -0.25974 1.1946 L -0.25974 1.19461 L -0.25974 1.19462 L -0.25974 1.19463 L -0.25974 1.19466 L -0.25974 1.19468 L -0.25974 1.19471 L -0.25974 1.19473 L -0.25974 1.19476 L -0.25974 1.19478 L -0.25974 1.19479 L -0.25974 1.19481 L -0.25974 1.19481 L -0.2571 1.22838 L -0.25013 1.26133 L -0.23896 1.29309 L -0.22378 1.32315 L -0.20484 1.35099 L -0.18245 1.37615 L -0.157 1.39819 L -0.12891 1.41676 L -0.09865 1.43155 L -0.06674 1.44229 L -0.0337 1.44881 L -0.0001 1.45101 L 0.0335 1.44884 L 0.06654 1.44234 L 0.09846 1.43162 L 0.12873 1.41687 L 0.15684 1.39832 L 0.18231 1.37629 L 0.20471 1.35115 L 0.22368 1.32333 L 0.23889 1.29328 L 0.25008 1.26153 L 0.25707 1.22859 L 0.25974 1.19502 L 0.25974 1.19501 L 0.25974 1.195 L 0.25974 1.19499 L 0.25974 1.19496 L 0.25974 1.19494 L 0.25974 1.19491 L 0.25974 1.19489 L 0.25974 1.19486 L 0.25974 1.19484 L 0.25974 1.19483 L 0.25974 1.19481 L 0.25974 1.19481 L 0.25992 1.18583 L 0.26084 1.15993 L 0.26312 1.11872 L 0.26734 1.06378 L 0.27411 0.9967 L 0.28401 0.91906 L 0.29765 0.83246 L 0.31562 0.73849 L 0.33852 0.63873 L 0.36695 0.53477 L 0.4015 0.42821 L 0.44278 0.32062 L 0.49017 0.21422 L 0.54337 0.11092 L 0.60342 0.0119 L 0.67137 -0.08167 L 0.74824 -0.16863 L 0.8351 -0.24779 L 0.93297 -0.31799 L 1.04289 -0.37805 L 1.16592 -0.4268 L 1.30308 -0.46308 L 1.45542 -0.4857 L 1.62399 -0.49351 L 1.79254 -0.4857 L 1.94486 -0.46308 L 2.08199 -0.4268 L 2.20497 -0.37804 L 2.31485 -0.31798 L 2.41266 -0.24778 L 2.49945 -0.16862 L 2.57626 -0.08166 L 2.64414 0.01191 L 2.70412 0.11093 L 2.75726 0.21422 L 2.80459 0.32062 L 2.8458 0.42819 L 2.88028 0.53474 L 2.90864 0.63868 L 2.93148 0.73842 L 2.94938 0.83237 L 2.96296 0.91894 L 2.9728 0.99656 L 2.97951 1.06362 L 2.98369 1.11854 L 2.98594 1.15974 L 2.98684 1.18562 L 2.98701 1.1946 L 2.98701 1.19461 L 2.98701 1.19462 L 2.98701 1.19463 L 2.98701 1.19466 L 2.98701 1.19468 L 2.98701 1.19471 L 2.98701 1.19473 L 2.98701 1.19476 L 2.98701 1.19478 L 2.98701 1.19479 L 2.98701 1.19481 L 2.98701 1.19481 L 2.98966 1.22838 L 2.99662 1.26133 L 3.00779 1.29309 L 3.02297 1.32315 L 3.04192 1.35099 L 3.0643 1.37615 L 3.08975 1.39819 L 3.11784 1.41676 L 3.1481 1.43155 L 3.18001 1.44229 L 3.21305 1.44881 L 3.24665 1.45101 L 3.28025 1.44884 L 3.3133 1.44234 L 3.34522 1.43162 L 3.37549 1.41687 L 3.40359 1.39832 L 3.42906 1.37629 L 3.45147 1.35115 L 3.47043 1.32333 L 3.48564 1.29328 L 3.49683 1.26153 L 3.50382 1.22859 L 3.50649 1.19502 L 3.50649 1.19501 L 3.50649 1.195 L 3.50649 1.19499 L 3.50649 1.19496 L 3.50649 1.19494 L 3.50649 1.19491 L 3.50649 1.19489 L 3.50649 1.19486 L 3.50649 1.19484 L 3.50649 1.19483 L 3.50649 1.19481 L 3.50649 1.19481 L 3.50667 1.18583 L 3.5076 1.15993 L 3.50987 1.11872 L 3.5141 1.06378 L 3.52086 0.9967 L 3.53076 0.91906 L 3.5444 0.83246 L 3.56237 0.73849 L 3.58528 0.63873 L 3.6137 0.53477 L 3.64826 0.42821 L 3.68953 0.32062 L 3.73692 0.21422 L 3.79012 0.11092 L 3.85017 0.0119 L 3.91812 -0.08167 L 3.995 -0.16862 L 4.08185 -0.24779 L 4.17972 -0.31798 L 4.28965 -0.37804 L 4.41267 -0.4268 L 4.54983 -0.46307 L 4.70218 -0.4857 L 4.87074 -0.4935 L 5.03929 -0.4857 L 5.19162 -0.46307 L 5.32875 -0.42679 L 5.45173 -0.37804 L 5.5616 -0.31797 L 5.65941 -0.24777 L 5.7462 -0.16861 L 5.82302 -0.08166 L 5.89089 0.01191 L 5.95088 0.11093 L 6.00401 0.21423 L 6.05134 0.32062 L 6.09255 0.42819 L 6.12704 0.53474 L 6.1554 0.63868 L 6.17823 0.73842 L 6.19613 0.83237 L 6.20971 0.91895 L 6.21955 0.99656 L 6.22627 1.06362 L 6.23045 1.11855 L 6.23269 1.15974 L 6.2336 1.18563 L 6.23377 1.19461 L 6.23431 1.2116 L 6.23597 1.22853 L 6.23873 1.24531 L 6.24258 1.26187 L 6.24751 1.27814 L 6.25349 1.29406 L 6.2605 1.30955 L 6.26851 1.32456 L 6.27748 1.339 L 6.28738 1.35283 L 6.29816 1.36598 L 6.30978 1.37839 L 6.32219 1.39002 L 6.33533 1.40081 L 6.34915 1.41072 L 6.36358 1.41971 L 6.37858 1.42773 L 6.39407 1.43475 L 6.40998 1.44074 L 6.42625 1.44568 L 6.44281 1.44955 L 6.45959 1.45232 L 6.47651 1.45399 L 6.49351 1.45455 L 7.79221 1.45455 L 7.79221 0.93506 L 6.73275 0.93506 L 6.72724 0.88246 L 6.72049 0.82684 L 6.71224 0.7683 L 6.70226 0.70689 L 6.6903 0.64268 L 6.67613 0.57576 L 6.65949 0.50618 L 6.64014 0.43402 L 6.61785 0.35934 L 6.59236 0.28223 L 6.56344 0.20273 L 6.53084 0.12094 L 6.46812 -0.01561 L 6.39287 -0.15187 L 6.30474 -0.28565 L 6.20335 -0.41473 L 6.08834 -0.5369 L 5.95933 -0.64995 L 5.81596 -0.75167 L 5.65786 -0.83985 L 5.48465 -0.91228 L 5.29598 -0.96676 L 5.09146 -1.00106 L 4.87074 -1.01299 L 4.65888 -1.00199 L 4.4622 -0.97032 L 4.28033 -0.91991 L 4.11288 -0.85273 L 3.95948 -0.77073 L 3.81974 -0.67585 L 3.6933 -0.57005 L 3.57977 -0.45528 L 3.47876 -0.33351 L 3.38991 -0.20667 L 3.31284 -0.07672 L 3.24716 0.05438 L 3.18155 -0.07673 L 3.10453 -0.20669 L 3.01574 -0.33353 L 2.91479 -0.45531 L 2.8013 -0.57007 L 2.67489 -0.67587 L 2.53519 -0.77074 L 2.38182 -0.85274 L 2.21439 -0.91992 L 2.03253 -0.97032 L 1.83585 -1.002 L 1.64342 -1.01198 L 3.5564 -2.44677 Z" />
</svg>