<svg version="1.1" xmlns="http://www.w3.org/2000/svg" viewBox="-7.538 -5 15.077 10" fill="black" stroke="none"><path fill-rule="evenodd" d="M -4.648 -0.558 L -4.955 -0.251 L -3.695 0.087 L -4.033 -1.173 L -4.34 -0.866 L -5.839 -2.365 L -6.147 -2.057 L -4.648 -0.558 Z M -3.013 -2.192 L -3.321 -1.885 L -2.061 -1.548 L -2.398 -2.808 L -2.705 -2.501 L -4.205 -4 L -4.513 -3.692 L -3.013 -2.192 Z M -6.538 2.365 L -4.577 2.365 L -4.577 4 L 4.577 4 L 4.577 2.365 L 6.538 2.365 L 6.538 1.93 L 4.577 1.93 L 4.577 0.295 L -4.577 0.295 L -4.577 1.93 L -6.538 1.93 L -6.538 2.365 Z M -4.141 3.564 L -4.141 0.731 L 4.141 0.731 L 4.141 3.564 L -4.141 3.564 Z" /></svg>