<svg version="1.1" xmlns="http://www.w3.org/2000/svg" viewBox="-9.135593999712732 -5.000000891525427 18.271187999425464 10.000001783050855" fill="black" stroke="none">
    <path fill-rule="evenodd" d="M -0.27119 0.61017 L -0.27119 0.88136 L 0.27119 0.88136 L 0.27119 0.61017 L 1.62712 0.61017 L 1.62712 -1.42373 L 8.13559 -1.42373 L 8.13559 -1.9661 L 1.62712 -1.9661 L 1.62712 -4 L -1.62712 -4 L -1.62712 -3.72881 L -1.62712 -1.9661 L -8.13559 -1.9661 L -8.13559 -1.42373 L -1.62712 -1.42373 L -1.62712 0.61017 L -0.27119 0.61017 Z M -1.08475 -3.45763 L 1.08475 -3.45763 L 1.08475 0.0678 L -1.08475 0.0678 L -1.08475 -3.45763 Z" />
    <path d="M 2.71186 3.45763 L 2.71186 4 L 8.13559 4 L 8.13559 3.45763 L 2.71186 3.45763 Z" />
    <path d="M -0.27119 1.42373 L -0.27119 1.9661 L 0.27119 1.9661 L 0.27119 1.42373 L -0.27119 1.42373 Z" />
</svg>