<svg version="1.1" xmlns="http://www.w3.org/2000/svg" viewBox="-5.533 -5 11.067 10" fill="black" stroke="none"><path fill-rule="evenodd" d="M -2.563 -1.604 L -2.64 -1.452 L -2.8 -0.992 L -2.899 -0.506 L -2.933 0 L -2.899 0.506 L -2.8 0.992 L -2.64 1.452 L -2.565 1.6 L -4.533 1.6 L -4.533 1.956 L -2.374 1.956 L -2.155 2.28 L -1.839 2.639 L -1.48 2.955 L -1.083 3.223 L -0.652 3.44 L -0.192 3.6 L 0.294 3.699 L 0.8 3.733 L 1.306 3.699 L 1.792 3.6 L 2.252 3.44 L 2.683 3.223 L 3.08 2.955 L 3.439 2.639 L 3.755 2.28 L 4.023 1.883 L 4.178 1.575 L 4.178 4 L 4.533 4 L 4.533 0 L 4.533 -4 L 4.178 -4 L 4.178 -1.575 L 4.023 -1.883 L 3.755 -2.28 L 3.439 -2.639 L 3.08 -2.955 L 2.683 -3.223 L 2.252 -3.44 L 1.792 -3.6 L 1.306 -3.699 L 0.8 -3.733 L 0.294 -3.699 L -0.192 -3.6 L -0.652 -3.44 L -1.083 -3.223 L -1.48 -2.955 L -1.839 -2.639 L -2.155 -2.28 L -2.371 -1.96 L -4.533 -1.96 L -4.533 -1.604 L -2.563 -1.604 Z M -2.578 0 L -2.547 -0.459 L -2.457 -0.899 L -2.313 -1.316 L -2.117 -1.706 L -1.875 -2.065 L -1.589 -2.389 L -1.265 -2.675 L -0.906 -2.917 L -0.516 -3.113 L -0.099 -3.257 L 0.341 -3.347 L 0.8 -3.378 L 1.259 -3.347 L 1.699 -3.257 L 2.116 -3.113 L 2.506 -2.917 L 2.865 -2.675 L 3.189 -2.389 L 3.475 -2.065 L 3.717 -1.706 L 3.913 -1.316 L 4.057 -0.899 L 4.147 -0.459 L 4.178 0 L 4.147 0.459 L 4.057 0.899 L 3.913 1.316 L 3.717 1.706 L 3.475 2.065 L 3.189 2.389 L 2.865 2.675 L 2.506 2.917 L 2.116 3.113 L 1.699 3.257 L 1.259 3.347 L 0.8 3.378 L 0.341 3.347 L -0.099 3.257 L -0.516 3.113 L -0.906 2.917 L -1.265 2.675 L -1.589 2.389 L -1.875 2.065 L -2.117 1.706 L -2.313 1.316 L -2.457 0.899 L -2.547 0.459 L -2.578 0 Z" /></svg>