<svg version="1.1" xmlns="http://www.w3.org/2000/svg" viewBox="-9.88888962551441 -5.000000881481485 19.77777925102882 10.00000176296297" fill="black" stroke="none">
    <path fill-rule="evenodd" d="M 3.25926 1.72914 L 3.58223 1.53715 L 4.0002 1.22806 L 4.37267 0.89218 L 4.70178 0.53505 L 4.98966 0.16223 L 5.23843 -0.22075 L 5.45023 -0.60833 L 5.62845 -0.9953 L 5.77689 -1.37656 L 5.89826 -1.7468 L 5.9953 -2.10068 L 6.07072 -2.43288 L 6.12725 -2.73807 L 6.16762 -3.01093 L 6.19454 -3.24612 L 6.21073 -3.43832 L 6.21893 -3.58221 L 6.22185 -3.67244 L 6.22222 -3.7037 L 6.22222 -4 L -6.22222 -4 L -6.22222 -3.7037 L -6.22185 -3.67244 L -6.21893 -3.58221 L -6.21073 -3.43832 L -6.19454 -3.24612 L -6.16762 -3.01093 L -6.12725 -2.73807 L -6.07072 -2.43288 L -5.9953 -2.10068 L -5.89826 -1.7468 L -5.77689 -1.37656 L -5.62845 -0.9953 L -5.45023 -0.60833 L -5.23843 -0.22075 L -4.98966 0.16223 L -4.70178 0.53505 L -4.37267 0.89218 L -4.0002 1.22806 L -3.58223 1.53715 L -3.25926 1.72914 L -3.25926 3.3706 L -8.88889 3.3706 L -8.88889 3.96319 L -2.66667 3.96319 L -2.66667 2.02249 L -2.60133 2.05278 L -2.03413 2.24822 L -1.41293 2.39469 L -0.73559 2.48664 L 0 2.51852 L 0.73559 2.48664 L 1.41293 2.39469 L 2.03413 2.24822 L 2.60133 2.05278 L 2.66667 2.02249 L 2.66667 4 L 8.88889 4 L 8.88889 3.40741 L 3.25926 3.40741 L 3.25926 1.72914 Z M -5.59954 -3.40741 L 5.59954 -3.40741 L 5.59374 -3.30392 L 5.58398 -3.17556 L 5.56867 -3.02391 L 5.54623 -2.85056 L 5.51508 -2.65709 L 5.47363 -2.44511 L 5.4203 -2.21618 L 5.35352 -1.97192 L 5.27169 -1.71389 L 5.17324 -1.44369 L 5.05658 -1.16292 L 4.92014 -0.87315 L 4.72984 -0.52171 L 4.50965 -0.17595 L 4.25655 0.15939 L 3.96752 0.47956 L 3.63955 0.77983 L 3.26962 1.05544 L 2.85471 1.30166 L 2.39181 1.51375 L 1.87791 1.68697 L 1.30998 1.81656 L 0.68502 1.89779 L 0 1.92593 L -0.68502 1.89779 L -1.30998 1.81656 L -1.87791 1.68697 L -2.39181 1.51375 L -2.85471 1.30166 L -3.26962 1.05544 L -3.63955 0.77983 L -3.96752 0.47956 L -4.25655 0.15939 L -4.50965 -0.17595 L -4.72984 -0.52171 L -4.92014 -0.87315 L -5.05659 -1.16292 L -5.17324 -1.44369 L -5.27169 -1.71389 L -5.35352 -1.97192 L -5.4203 -2.21618 L -5.47363 -2.44511 L -5.51508 -2.65709 L -5.54623 -2.85056 L -5.56867 -3.02391 L -5.58398 -3.17556 L -5.59374 -3.30392 L -5.59954 -3.40741 Z" />
</svg>