<svg version="1.1" xmlns="http://www.w3.org/2000/svg" viewBox="-8.274 -5 16.548 10" fill="black" stroke="none"><path fill-rule="evenodd" d="M 4.009 0.108 L 4.011 0.144 L 4.042 0.294 L 4.092 0.436 L 4.159 0.569 L 4.242 0.691 L 4.339 0.802 L 4.45 0.9 L 4.573 0.983 L 4.706 1.05 L 4.848 1.099 L 4.997 1.13 L 5.153 1.141 L 5.309 1.13 L 5.458 1.099 L 5.6 1.05 L 5.733 0.983 L 5.856 0.9 L 5.967 0.802 L 6.064 0.691 L 6.147 0.569 L 6.214 0.436 L 6.264 0.294 L 6.274 0.242 L 7.274 0.242 L 7.274 -0.242 L 6.279 -0.242 L 6.264 -0.317 L 6.214 -0.459 L 6.147 -0.592 L 6.064 -0.714 L 5.967 -0.825 L 5.856 -0.923 L 5.733 -1.006 L 5.6 -1.073 L 5.458 -1.122 L 5.309 -1.153 L 5.153 -1.164 L 4.997 -1.153 L 4.848 -1.122 L 4.706 -1.073 L 4.573 -1.006 L 4.45 -0.923 L 4.339 -0.825 L 4.242 -0.714 L 4.159 -0.592 L 4.092 -0.459 L 4.042 -0.317 L 4.011 -0.167 L 4.007 -0.109 L -5.383 -4 L -5.383 -0.242 L -7.274 -0.242 L -7.274 0.242 L -5.383 0.242 L -5.383 4 L 4.009 0.108 Z M 4.486 -0.012 L 4.492 -0.103 L 4.509 -0.19 L 4.538 -0.273 L 4.576 -0.35 L 4.624 -0.421 L 4.68 -0.485 L 4.744 -0.541 L 4.815 -0.588 L 4.892 -0.627 L 4.975 -0.655 L 5.062 -0.673 L 5.153 -0.679 L 5.244 -0.673 L 5.331 -0.655 L 5.414 -0.627 L 5.491 -0.588 L 5.562 -0.541 L 5.626 -0.485 L 5.682 -0.421 L 5.73 -0.35 L 5.768 -0.273 L 5.797 -0.19 L 5.814 -0.103 L 5.82 -0.012 L 5.814 0.08 L 5.797 0.167 L 5.768 0.249 L 5.73 0.326 L 5.682 0.397 L 5.626 0.461 L 5.562 0.517 L 5.491 0.565 L 5.414 0.604 L 5.331 0.632 L 5.244 0.65 L 5.153 0.656 L 5.062 0.65 L 4.975 0.632 L 4.892 0.604 L 4.815 0.565 L 4.744 0.517 L 4.68 0.461 L 4.624 0.397 L 4.576 0.326 L 4.538 0.249 L 4.509 0.167 L 4.492 0.08 L 4.486 -0.012 Z M -4.898 3.274 L -4.898 -3.274 L 3.003 0 L -4.898 3.274 Z" /></svg>