<svg version="1.1" xmlns="http://www.w3.org/2000/svg" viewBox="-26.263156767313205 -5.000000663157924 52.52631353462641 10.000001326315848" fill="black" stroke="none">
    <path fill-rule="evenodd" d="M 11.23359 -0.19013 L 25.26316 -0.19013 L 25.26316 -1.87434 L 11.24787 -1.87434 L 11.1354 -2.19567 L 10.9638 -2.53579 L 10.75127 -2.84944 L 10.50142 -3.13299 L 10.21786 -3.38285 L 9.90421 -3.59538 L 9.56409 -3.76698 L 9.20112 -3.89402 L 8.8189 -3.9729 L 8.42105 -4 L 8.02321 -3.9729 L 7.64099 -3.89402 L 7.27801 -3.76698 L 6.93789 -3.59538 L 6.62425 -3.38285 L 6.34069 -3.13299 L 6.09084 -2.84944 L 5.8783 -2.53579 L 5.70671 -2.19567 L 5.57966 -1.83269 L 5.50078 -1.45048 L 5.47368 -1.05263 L 5.50078 -0.65479 L 5.57966 -0.27257 L 5.70671 0.09041 L 5.8783 0.43053 L 6.09084 0.74417 L 6.34069 1.02773 L 6.62425 1.27758 L 6.93789 1.49012 L 7.27801 1.66171 L 7.64099 1.78876 L 8.02321 1.86764 L 8.42105 1.89474 L 8.8189 1.86764 L 9.20112 1.78876 L 9.56409 1.66171 L 9.90421 1.49012 L 10.21786 1.27758 L 10.50142 1.02773 L 10.75127 0.74417 L 10.9638 0.43053 L 11.1354 0.09041 L 11.23359 -0.19013 Z M 8.42105 -2.31579 L 8.59455 -2.30445 L 8.76031 -2.27136 L 8.91694 -2.21793 L 9.06303 -2.14555 L 9.19717 -2.05562 L 9.31798 -1.94956 L 9.42405 -1.82875 L 9.51397 -1.6946 L 9.58635 -1.54852 L 9.63978 -1.39189 L 9.67287 -1.22613 L 9.68421 -1.05263 L 9.67287 -0.87913 L 9.63978 -0.71337 L 9.58635 -0.55675 L 9.51397 -0.41066 L 9.42405 -0.27651 L 9.31798 -0.1557 L 9.19717 -0.04964 L 9.06303 0.04028 L 8.91694 0.11266 L 8.76031 0.1661 L 8.59455 0.19919 L 8.42105 0.21053 L 8.24755 0.19919 L 8.08179 0.1661 L 7.92517 0.11266 L 7.77908 0.04028 L 7.64493 -0.04964 L 7.52412 -0.1557 L 7.41806 -0.27651 L 7.32814 -0.41066 L 7.25576 -0.55675 L 7.20232 -0.71337 L 7.16923 -0.87913 L 7.15789 -1.05263 L 7.16923 -1.22613 L 7.20232 -1.39189 L 7.25576 -1.54852 L 7.32814 -1.6946 L 7.41806 -1.82875 L 7.52412 -1.94956 L 7.64493 -2.05562 L 7.77908 -2.14555 L 7.92517 -2.21793 L 8.08179 -2.27136 L 8.24755 -2.30445 L 8.42105 -2.31579 Z M -4.21053 -4 L -4.21053 -2.31579 L -0.84211 -2.31579 L -0.84211 2.31579 L -12.63158 2.31579 L -12.63158 4 L 12.63158 4 L 12.63158 2.31579 L 0.84211 2.31579 L 0.84211 -2.31579 L 4.21053 -2.31579 L 4.21053 -4 L -4.21053 -4 Z M -11.24787 -0.23092 L -11.1354 0.09041 L -10.9638 0.43053 L -10.75127 0.74417 L -10.50141 1.02773 L -10.21786 1.27758 L -9.90421 1.49012 L -9.56409 1.66171 L -9.20112 1.78876 L -8.8189 1.86764 L -8.42105 1.89474 L -8.02321 1.86764 L -7.64099 1.78876 L -7.27801 1.66171 L -6.93789 1.49012 L -6.62425 1.27758 L -6.34069 1.02773 L -6.09084 0.74417 L -5.8783 0.43053 L -5.70671 0.09041 L -5.57966 -0.27257 L -5.50078 -0.65479 L -5.47368 -1.05263 L -5.50078 -1.45048 L -5.57966 -1.83269 L -5.70671 -2.19567 L -5.8783 -2.53579 L -6.09084 -2.84944 L -6.34069 -3.13299 L -6.62425 -3.38285 L -6.93789 -3.59538 L -7.27801 -3.76698 L -7.64099 -3.89402 L -8.02321 -3.9729 L -8.42105 -4 L -8.8189 -3.9729 L -9.20112 -3.89402 L -9.56409 -3.76698 L -9.90421 -3.59538 L -10.21786 -3.38285 L -10.50141 -3.13299 L -10.75127 -2.84944 L -10.9638 -2.53579 L -11.1354 -2.19567 L -11.23359 -1.91513 L -25.26316 -1.91513 L -25.26316 -0.23092 L -11.24787 -0.23092 Z M -8.42105 -2.31579 L -8.24755 -2.30445 L -8.08179 -2.27136 L -7.92517 -2.21793 L -7.77908 -2.14555 L -7.64493 -2.05562 L -7.52412 -1.94956 L -7.41806 -1.82875 L -7.32814 -1.6946 L -7.25576 -1.54852 L -7.20232 -1.39189 L -7.16923 -1.22613 L -7.15789 -1.05263 L -7.16923 -0.87913 L -7.20232 -0.71337 L -7.25576 -0.55675 L -7.32814 -0.41066 L -7.41806 -0.27651 L -7.52412 -0.1557 L -7.64493 -0.04964 L -7.77908 0.04028 L -7.92517 0.11266 L -8.08179 0.1661 L -8.24755 0.19919 L -8.42105 0.21053 L -8.59455 0.19919 L -8.76031 0.1661 L -8.91694 0.11266 L -9.06302 0.04028 L -9.19717 -0.04964 L -9.31798 -0.1557 L -9.42405 -0.27651 L -9.51397 -0.41066 L -9.58635 -0.55675 L -9.63978 -0.71337 L -9.67287 -0.87913 L -9.68421 -1.05263 L -9.67287 -1.22613 L -9.63978 -1.39189 L -9.58635 -1.54852 L -9.51397 -1.6946 L -9.42405 -1.82875 L -9.31798 -1.94956 L -9.19717 -2.05562 L -9.06302 -2.14555 L -8.91694 -2.21793 L -8.76031 -2.27136 L -8.59455 -2.30445 L -8.42105 -2.31579 Z" />
</svg>