<svg version="1.1" xmlns="http://www.w3.org/2000/svg" viewBox="-6.5793321520132295 -5.0000009256089175 13.158664304026459 10.000001851217835" fill="black" stroke="none">
    <path fill-rule="evenodd" d="M 2.60369 1.52577 L 2.60369 3.88769 L 2.97564 3.88769 L 2.97564 1.52577 L 5.57933 1.52577 L 5.57933 1.15381 L 2.97564 1.15381 L 2.97564 -1.2081 L 2.60369 -1.2081 L 2.60369 1.15381 L 2.04575 1.15381 L 2.04575 -1.2081 L 1.6738 -1.2081 L 1.6738 1.00431 L -2.04575 -1.32042 L -2.04575 1.15381 L -5.57933 1.15381 L -5.57933 1.52577 L -2.04575 1.52577 L -2.04575 4 L 1.6738 1.67528 L 1.6738 3.88769 L 2.04575 3.88769 L 2.04575 1.52577 L 2.60369 1.52577 Z M -1.6738 -0.64944 L 1.50903 1.33979 L -1.6738 3.32903 L -1.6738 -0.64944 Z M 0.74391 -3.03664 L 0.74391 -1.2267 L 1.11587 -1.2267 L 1.11587 -3.03664 L 1.48633 -3.03664 L 0.92989 -4 L 0.37344 -3.03664 L 0.74391 -3.03664 Z M -1.11587 -3.03664 L -1.11587 -1.2267 L -0.74391 -1.2267 L -0.74391 -3.03664 L -0.37344 -3.03664 L -0.92989 -4 L -1.48633 -3.03664 L -1.11587 -3.03664 Z" />
</svg>