<svg version="1.1" xmlns="http://www.w3.org/2000/svg" viewBox="-6.71428660544218 -5.000000923809526 13.42857321088436 10.000001847619052" fill="black" stroke="none">
    <path fill-rule="evenodd" d="M 3.98716 0.19048 L 5.71429 0.19048 L 5.71429 -0.19048 L 3.98716 -0.19048 L 3.96344 -0.5423 L 3.85696 -1.06257 L 3.68534 -1.55603 L 3.45338 -2.01787 L 3.16586 -2.44332 L 2.82758 -2.82758 L 2.44332 -3.16586 L 2.01787 -3.45338 L 1.55603 -3.68534 L 1.06257 -3.85696 L 0.5423 -3.96344 L 0 -4 L -0.5423 -3.96344 L -1.06257 -3.85696 L -1.55603 -3.68534 L -2.01787 -3.45338 L -2.44332 -3.16586 L -2.82758 -2.82758 L -3.16586 -2.44332 L -3.45338 -2.01787 L -3.68534 -1.55603 L -3.85696 -1.06257 L -3.96344 -0.5423 L -3.98844 -0.17143 L -5.71429 -0.17143 L -5.71429 0.20952 L -3.98588 0.20952 L -3.96344 0.5423 L -3.85696 1.06257 L -3.68534 1.55603 L -3.45338 2.01787 L -3.16586 2.44332 L -2.82758 2.82758 L -2.44332 3.16586 L -2.01787 3.45338 L -1.55603 3.68534 L -1.06257 3.85696 L -0.5423 3.96344 L 0 4 L 0.5423 3.96344 L 1.06257 3.85696 L 1.55603 3.68534 L 2.01787 3.45338 L 2.44332 3.16586 L 2.82758 2.82758 L 3.16586 2.44332 L 3.45338 2.01787 L 3.68534 1.55603 L 3.85696 1.06257 L 3.96344 0.5423 L 3.98716 0.19048 Z M 2.68598 -2.41663 L 2.86566 -2.21245 L 3.12544 -1.8276 L 3.33496 -1.40965 L 3.48993 -0.96287 L 3.58605 -0.49156 L 3.61905 0 L 3.58605 0.49156 L 3.48993 0.96287 L 3.33496 1.40965 L 3.12544 1.8276 L 2.86566 2.21245 L 2.68598 2.41663 L 0.26935 0 L 2.68598 -2.41663 Z M 2.41663 2.68598 L 2.21245 2.86566 L 1.8276 3.12544 L 1.40965 3.33496 L 0.96287 3.48993 L 0.49156 3.58605 L 0 3.61905 L -0.49156 3.58605 L -0.96287 3.48993 L -1.40965 3.33496 L -1.8276 3.12544 L -2.21245 2.86566 L -2.41663 2.68598 L 0 0.26935 L 2.41663 2.68598 Z M -2.68598 2.41663 L -2.86566 2.21245 L -3.12544 1.8276 L -3.33496 1.40965 L -3.48993 0.96287 L -3.58605 0.49156 L -3.61905 0 L -3.58605 -0.49156 L -3.48993 -0.96287 L -3.33496 -1.40965 L -3.12544 -1.8276 L -2.86566 -2.21245 L -2.68598 -2.41663 L -0.26935 0 L -2.68598 2.41663 Z M -2.41663 -2.68598 L -2.21245 -2.86566 L -1.8276 -3.12544 L -1.40965 -3.33496 L -0.96287 -3.48993 L -0.49156 -3.58605 L 0 -3.61905 L 0.49156 -3.58605 L 0.96287 -3.48993 L 1.40965 -3.33496 L 1.8276 -3.12544 L 2.21245 -2.86566 L 2.41663 -2.68598 L 0 -0.26935 L -2.41663 -2.68598 Z" />
</svg>