<svg version="1.1" xmlns="http://www.w3.org/2000/svg" viewBox="-6.393259330008839 -5.000000928089889 12.786518660017679 10.000001856179779" fill="black" stroke="none">
    <path fill-rule="evenodd" d="M 3.30011 3.54621 L 5.39326 3.54621 L 5.39326 3.18666 L 3.29706 3.18666 L 3.2761 3.12677 L 3.23946 3.05416 L 3.19409 2.9872 L 3.1483 2.93523 L 4.01166 3.09803 L 4.07823 2.74466 L -2.07311 1.5847 L -2.06742 1.50112 L -2.0732 1.41619 L -2.09004 1.33459 L -2.11716 1.2571 L -2.1538 1.18449 L -2.19917 1.11754 L -2.25251 1.057 L -2.31304 1.00366 L -2.38 0.95829 L -2.45261 0.92166 L -2.5301 0.89453 L -2.6117 0.87769 L -2.69663 0.87191 L -2.78156 0.87769 L -2.86316 0.89453 L -2.94065 0.92166 L -3.01326 0.95829 L -3.08022 1.00366 L -3.14075 1.057 L -3.19409 1.11754 L -3.23946 1.18449 L -3.2761 1.2571 L -3.30011 1.3257 L -5.39326 1.3257 L -5.39326 1.68525 L -3.29706 1.68525 L -3.2761 1.74514 L -3.23946 1.81775 L -3.19409 1.88471 L -3.14075 1.94525 L -3.08022 1.99859 L -3.01326 2.04396 L -2.94065 2.08059 L -2.86316 2.10771 L -2.78156 2.12455 L -2.69663 2.13034 L -2.6117 2.12455 L -2.5301 2.10771 L -2.45261 2.08059 L -2.38 2.04396 L -2.31304 1.99859 L -2.25251 1.94525 L -2.23101 1.92085 L 2.43425 2.80058 L 2.38 2.82795 L 2.31304 2.87332 L 2.25251 2.92666 L 2.19917 2.9872 L 2.15379 3.05416 L 2.11716 3.12677 L 2.09004 3.20426 L 2.0732 3.28585 L 2.06742 3.37079 L 2.0732 3.45572 L 2.09004 3.53732 L 2.11716 3.61481 L 2.15379 3.68742 L 2.19917 3.75437 L 2.25251 3.81491 L 2.31304 3.86825 L 2.38 3.91362 L 2.45261 3.95025 L 2.5301 3.97738 L 2.6117 3.99422 L 2.69663 4 L 2.78156 3.99422 L 2.86316 3.97738 L 2.94065 3.95025 L 3.01326 3.91362 L 3.08022 3.86825 L 3.14075 3.81491 L 3.19409 3.75437 L 3.23946 3.68742 L 3.2761 3.61481 L 3.30011 3.54621 Z M 2.69663 3.10112 L 2.73367 3.10354 L 2.76906 3.11061 L 2.80249 3.12202 L 2.83368 3.13747 L 2.86232 3.15666 L 2.88811 3.17931 L 2.91075 3.2051 L 2.92995 3.23374 L 2.9454 3.26492 L 2.95681 3.29836 L 2.96387 3.33375 L 2.96629 3.37079 L 2.96387 3.40783 L 2.95681 3.44321 L 2.9454 3.47665 L 2.92995 3.50784 L 2.91075 3.53648 L 2.88811 3.56227 L 2.86232 3.58491 L 2.83368 3.60411 L 2.80249 3.61956 L 2.76906 3.63096 L 2.73367 3.63803 L 2.69663 3.64045 L 2.65959 3.63803 L 2.6242 3.63096 L 2.59077 3.61956 L 2.55958 3.60411 L 2.53094 3.58491 L 2.50515 3.56227 L 2.48251 3.53648 L 2.46331 3.50784 L 2.44786 3.47665 L 2.43645 3.44321 L 2.42939 3.40783 L 2.42697 3.37079 L 2.42939 3.33375 L 2.43645 3.29836 L 2.44786 3.26492 L 2.46331 3.23374 L 2.48251 3.2051 L 2.50515 3.17931 L 2.53094 3.15666 L 2.55958 3.13747 L 2.59077 3.12202 L 2.6242 3.11061 L 2.65959 3.10354 L 2.69663 3.10112 Z M -2.69663 1.23146 L -2.65959 1.23388 L -2.6242 1.24095 L -2.59077 1.25235 L -2.55958 1.2678 L -2.53094 1.287 L -2.50515 1.30964 L -2.48251 1.33543 L -2.46331 1.36407 L -2.44786 1.39526 L -2.43645 1.4287 L -2.42939 1.46408 L -2.42697 1.50112 L -2.42939 1.53816 L -2.43645 1.57355 L -2.44786 1.60699 L -2.46331 1.63817 L -2.48251 1.66681 L -2.50515 1.6926 L -2.53094 1.71525 L -2.55958 1.73444 L -2.59077 1.74989 L -2.6242 1.7613 L -2.65959 1.76837 L -2.69663 1.77079 L -2.73367 1.76837 L -2.76906 1.7613 L -2.80249 1.74989 L -2.83368 1.73444 L -2.86232 1.71525 L -2.88811 1.6926 L -2.91075 1.66681 L -2.92995 1.63817 L -2.9454 1.60699 L -2.95681 1.57355 L -2.96387 1.53816 L -2.96629 1.50112 L -2.96387 1.46408 L -2.95681 1.4287 L -2.9454 1.39526 L -2.92995 1.36407 L -2.91075 1.33543 L -2.88811 1.30964 L -2.86232 1.287 L -2.83368 1.2678 L -2.80249 1.25235 L -2.76906 1.24095 L -2.73367 1.23388 L -2.69663 1.23146 Z" />
    <path d="M -4.49438 -1.75281 L -4.49438 -1.39326 L 4.49438 -1.39326 L 4.49438 -1.75281 L -4.49438 -1.75281 Z" />
    <path d="M -5.39326 -4 L -5.39326 -3.64045 L -4.65983 -3.64045 L -4.65602 -3.60395 L -4.65135 -3.56537 L -4.64565 -3.52473 L -4.63875 -3.48211 L -4.63048 -3.43753 L -4.62066 -3.39106 L -4.60914 -3.34274 L -4.59574 -3.29261 L -4.58029 -3.24072 L -4.56262 -3.18713 L -4.54256 -3.13187 L -4.51994 -3.075 L -4.4765 -2.98024 L -4.42438 -2.88566 L -4.36335 -2.79279 L -4.29313 -2.70319 L -4.21348 -2.61837 L -4.12414 -2.53988 L -4.02486 -2.46925 L -3.91538 -2.40801 L -3.79545 -2.35772 L -3.6648 -2.31989 L -3.52319 -2.29606 L -3.37037 -2.28778 L -3.22394 -2.29535 L -3.088 -2.31714 L -2.96229 -2.35184 L -2.84654 -2.39808 L -2.74049 -2.45454 L -2.64388 -2.51986 L -2.55645 -2.59271 L -2.47793 -2.67174 L -2.40806 -2.75562 L -2.34658 -2.843 L -2.29323 -2.93254 L -2.24775 -3.02289 L -2.20235 -2.93203 L -2.14904 -2.84195 L -2.08755 -2.75401 L -2.01763 -2.66957 L -1.93901 -2.58998 L -1.85143 -2.51661 L -1.75463 -2.4508 L -1.64835 -2.39391 L -1.53233 -2.3473 L -1.4063 -2.31233 L -1.27 -2.29035 L -1.12317 -2.28272 L -0.97656 -2.29033 L -0.84045 -2.31226 L -0.7146 -2.34715 L -0.59874 -2.39365 L -0.4926 -2.45041 L -0.39592 -2.51608 L -0.30844 -2.5893 L -0.2299 -2.66874 L -0.16004 -2.75302 L -0.09858 -2.84081 L -0.04528 -2.93075 L 0.00014 -3.02149 L 0.0456 -2.93074 L 0.09895 -2.8408 L 0.16045 -2.75301 L 0.23037 -2.66872 L 0.30897 -2.58929 L 0.3965 -2.51606 L 0.49323 -2.4504 L 0.59942 -2.39364 L 0.71533 -2.34714 L 0.84123 -2.31225 L 0.97737 -2.29033 L 1.12402 -2.28272 L 1.27063 -2.29033 L 1.40674 -2.31226 L 1.53259 -2.34715 L 1.64845 -2.39365 L 1.75459 -2.45041 L 1.85127 -2.51608 L 1.93875 -2.5893 L 2.01729 -2.66874 L 2.08715 -2.75302 L 2.14861 -2.84081 L 2.20191 -2.93075 L 2.24733 -3.02149 L 2.29279 -2.93074 L 2.34614 -2.8408 L 2.40764 -2.75301 L 2.47756 -2.66872 L 2.55616 -2.58929 L 2.64369 -2.51606 L 2.74042 -2.4504 L 2.84661 -2.39364 L 2.96253 -2.34714 L 3.08842 -2.31225 L 3.22456 -2.29033 L 3.37121 -2.28272 L 3.52398 -2.29098 L 3.66553 -2.31473 L 3.79612 -2.35245 L 3.916 -2.40259 L 4.02543 -2.46364 L 4.12466 -2.53407 L 4.21395 -2.61233 L 4.29356 -2.6969 L 4.36373 -2.78626 L 4.42473 -2.87886 L 4.47681 -2.97318 L 4.52022 -3.0677 L 4.54278 -3.12429 L 4.56279 -3.17928 L 4.58043 -3.23264 L 4.59585 -3.28431 L 4.60924 -3.33424 L 4.62076 -3.38238 L 4.63058 -3.42869 L 4.63885 -3.47312 L 4.64577 -3.51562 L 4.65148 -3.55614 L 4.65616 -3.59463 L 4.65997 -3.63104 L 5.39326 -3.63104 L 5.39326 -3.99059 L 4.49438 -3.99059 L 4.48262 -3.9902 L 4.47092 -3.98905 L 4.45931 -3.98713 L 4.44785 -3.98446 L 4.4366 -3.98104 L 4.42559 -3.9769 L 4.41487 -3.97204 L 4.4045 -3.9665 L 4.39451 -3.96029 L 4.38495 -3.95343 L 4.37585 -3.94597 L 4.36727 -3.93793 L 4.35923 -3.92934 L 4.35176 -3.92025 L 4.34491 -3.91069 L 4.3387 -3.9007 L 4.33315 -3.89032 L 4.3283 -3.87961 L 4.32415 -3.8686 L 4.32074 -3.85734 L 4.31806 -3.84589 L 4.31615 -3.83428 L 4.31499 -3.82257 L 4.31461 -3.81081 L 4.31449 -3.8046 L 4.31386 -3.78667 L 4.31231 -3.75815 L 4.30942 -3.72012 L 4.30477 -3.67369 L 4.29796 -3.61995 L 4.28856 -3.56001 L 4.27617 -3.49497 L 4.26036 -3.42592 L 4.24073 -3.35397 L 4.21686 -3.28022 L 4.18834 -3.20576 L 4.15559 -3.13212 L 4.11881 -3.06063 L 4.07729 -2.99209 L 4.03031 -2.92733 L 3.97715 -2.86714 L 3.91708 -2.81235 L 3.84938 -2.76376 L 3.77333 -2.72219 L 3.68821 -2.68845 L 3.5933 -2.66334 L 3.48787 -2.64768 L 3.37121 -2.64228 L 3.25454 -2.64768 L 3.1491 -2.66335 L 3.05416 -2.68846 L 2.96901 -2.72222 L 2.89293 -2.76381 L 2.82519 -2.81241 L 2.76508 -2.86722 L 2.71187 -2.92742 L 2.66484 -2.9922 L 2.62327 -3.06075 L 2.58645 -3.13225 L 2.55365 -3.2059 L 2.52509 -3.28036 L 2.50117 -3.35411 L 2.48149 -3.42605 L 2.46564 -3.49508 L 2.4532 -3.56011 L 2.44376 -3.62003 L 2.43691 -3.67375 L 2.43223 -3.72016 L 2.42931 -3.75817 L 2.42773 -3.78669 L 2.42709 -3.8046 L 2.42697 -3.81081 L 2.42697 -3.81082 L 2.42697 -3.81083 L 2.42697 -3.81084 L 2.42697 -3.81085 L 2.42697 -3.81087 L 2.42697 -3.81089 L 2.42697 -3.8109 L 2.42697 -3.81092 L 2.42697 -3.81094 L 2.42697 -3.81095 L 2.42697 -3.81096 L 2.42697 -3.81096 L 2.42512 -3.83419 L 2.42028 -3.85699 L 2.41253 -3.87897 L 2.40201 -3.89977 L 2.38888 -3.91903 L 2.37337 -3.93642 L 2.35574 -3.95167 L 2.33629 -3.96451 L 2.31534 -3.97472 L 2.29325 -3.98214 L 2.27038 -3.98664 L 2.24712 -3.98814 L 2.22386 -3.98662 L 2.201 -3.9821 L 2.17891 -3.97467 L 2.15797 -3.96444 L 2.13853 -3.95158 L 2.12091 -3.93632 L 2.10542 -3.91891 L 2.0923 -3.89964 L 2.0818 -3.87884 L 2.07407 -3.85685 L 2.06925 -3.83405 L 2.06742 -3.81081 L 2.0673 -3.8046 L 2.06667 -3.78667 L 2.06512 -3.75815 L 2.06222 -3.72012 L 2.05758 -3.67369 L 2.05076 -3.61995 L 2.04137 -3.56001 L 2.02897 -3.49497 L 2.01317 -3.42592 L 1.99354 -3.35397 L 1.96967 -3.28022 L 1.94115 -3.20576 L 1.90839 -3.13212 L 1.87162 -3.06063 L 1.8301 -2.99209 L 1.78312 -2.92733 L 1.72996 -2.86714 L 1.66989 -2.81235 L 1.60219 -2.76376 L 1.52614 -2.72219 L 1.44102 -2.68845 L 1.34611 -2.66334 L 1.24068 -2.64768 L 1.12402 -2.64228 L 1.00735 -2.64768 L 0.90191 -2.66335 L 0.80697 -2.68846 L 0.72182 -2.72222 L 0.64574 -2.76381 L 0.578 -2.81241 L 0.51789 -2.86722 L 0.46468 -2.92742 L 0.41765 -2.9922 L 0.37608 -3.06075 L 0.33926 -3.13225 L 0.30646 -3.2059 L 0.27789 -3.28036 L 0.25398 -3.35411 L 0.2343 -3.42605 L 0.21845 -3.49508 L 0.20601 -3.56011 L 0.19657 -3.62003 L 0.18972 -3.67375 L 0.18504 -3.72016 L 0.18212 -3.75817 L 0.18054 -3.78669 L 0.1799 -3.8046 L 0.17978 -3.81081 L 0.17978 -3.81082 L 0.17978 -3.81083 L 0.17978 -3.81084 L 0.17978 -3.81085 L 0.17978 -3.81087 L 0.17978 -3.81089 L 0.17978 -3.8109 L 0.17978 -3.81092 L 0.17978 -3.81094 L 0.17978 -3.81095 L 0.17978 -3.81096 L 0.17978 -3.81096 L 0.17793 -3.83419 L 0.17309 -3.85699 L 0.16534 -3.87897 L 0.15482 -3.89977 L 0.14169 -3.91903 L 0.12618 -3.93642 L 0.10855 -3.95167 L 0.0891 -3.96451 L 0.06815 -3.97472 L 0.04606 -3.98214 L 0.02319 -3.98664 L -0.00007 -3.98814 L -0.02333 -3.98662 L -0.04619 -3.9821 L -0.06828 -3.97467 L -0.08922 -3.96444 L -0.10867 -3.95158 L -0.12628 -3.93632 L -0.14178 -3.91891 L -0.15489 -3.89964 L -0.1654 -3.87884 L -0.17313 -3.85685 L -0.17795 -3.83405 L -0.17978 -3.81081 L -0.17989 -3.8046 L -0.18052 -3.78667 L -0.18207 -3.75815 L -0.18497 -3.72012 L -0.18961 -3.67369 L -0.19642 -3.61995 L -0.20582 -3.56001 L -0.21821 -3.49497 L -0.23402 -3.42592 L -0.25365 -3.35397 L -0.27752 -3.28022 L -0.30604 -3.20576 L -0.3388 -3.13212 L -0.37557 -3.06063 L -0.41709 -2.99209 L -0.46407 -2.92733 L -0.51723 -2.86714 L -0.57731 -2.81235 L -0.645 -2.76376 L -0.72105 -2.72219 L -0.80617 -2.68845 L -0.90108 -2.66334 L -1.00651 -2.64768 L -1.12317 -2.64228 L -1.23984 -2.64768 L -1.34528 -2.66335 L -1.44022 -2.68846 L -1.52537 -2.72222 L -1.60145 -2.76381 L -1.66919 -2.81241 L -1.7293 -2.86722 L -1.78252 -2.92742 L -1.82954 -2.9922 L -1.87111 -3.06075 L -1.90793 -3.13225 L -1.94073 -3.2059 L -1.9693 -3.28036 L -1.99321 -3.35411 L -2.01289 -3.42605 L -2.02874 -3.49508 L -2.04118 -3.56011 L -2.05062 -3.62003 L -2.05747 -3.67375 L -2.06215 -3.72016 L -2.06508 -3.75817 L -2.06665 -3.78669 L -2.06729 -3.8046 L -2.06742 -3.81081 L -2.06742 -3.81082 L -2.06742 -3.81083 L -2.06742 -3.81084 L -2.06742 -3.81085 L -2.06742 -3.81087 L -2.06742 -3.81089 L -2.06742 -3.8109 L -2.06742 -3.81092 L -2.06742 -3.81094 L -2.06742 -3.81095 L -2.06742 -3.81096 L -2.06742 -3.81096 L -2.06926 -3.83419 L -2.0741 -3.85699 L -2.08185 -3.87897 L -2.09238 -3.89977 L -2.1055 -3.91903 L -2.12101 -3.93642 L -2.13864 -3.95167 L -2.15809 -3.96451 L -2.17904 -3.97472 L -2.20113 -3.98214 L -2.224 -3.98664 L -2.24726 -3.98814 L -2.27052 -3.98662 L -2.29338 -3.9821 L -2.31547 -3.97467 L -2.33641 -3.96444 L -2.35586 -3.95158 L -2.37347 -3.93632 L -2.38897 -3.91891 L -2.40208 -3.89964 L -2.41259 -3.87884 L -2.42032 -3.85685 L -2.42514 -3.83405 L -2.42697 -3.81081 L -2.42709 -3.80463 L -2.42772 -3.78679 L -2.42928 -3.7584 L -2.43218 -3.72055 L -2.43683 -3.67434 L -2.44365 -3.62085 L -2.45305 -3.56119 L -2.46545 -3.49645 L -2.48125 -3.42773 L -2.50087 -3.35611 L -2.52473 -3.28269 L -2.55323 -3.20857 L -2.58596 -3.13525 L -2.62271 -3.06407 L -2.6642 -2.99582 L -2.71116 -2.93131 L -2.7643 -2.87137 L -2.82436 -2.81679 L -2.89205 -2.76838 L -2.9681 -2.72696 L -3.05324 -2.69334 L -3.14817 -2.66832 L -3.25364 -2.65271 L -3.37037 -2.64733 L -3.48698 -2.65275 L -3.59239 -2.66847 L -3.6873 -2.69367 L -3.77244 -2.72753 L -3.84852 -2.76926 L -3.91626 -2.81802 L -3.97639 -2.87302 L -4.02962 -2.93342 L -4.07667 -2.99843 L -4.11825 -3.06723 L -4.1551 -3.13899 L -4.18792 -3.21292 L -4.2165 -3.28767 L -4.24043 -3.36171 L -4.26011 -3.43393 L -4.27597 -3.50323 L -4.2884 -3.56852 L -4.29784 -3.62868 L -4.30469 -3.68261 L -4.30936 -3.72921 L -4.31228 -3.76737 L -4.31385 -3.796 L -4.31449 -3.81398 L -4.31461 -3.82022 L -4.31499 -3.83198 L -4.31615 -3.84369 L -4.31806 -3.8553 L -4.32074 -3.86675 L -4.32415 -3.87801 L -4.3283 -3.88902 L -4.33315 -3.89973 L -4.3387 -3.91011 L -4.34491 -3.9201 L -4.35176 -3.92966 L -4.35923 -3.93875 L -4.36727 -3.94734 L -4.37585 -3.95538 L -4.38495 -3.96284 L -4.39451 -3.9697 L -4.4045 -3.97591 L -4.41487 -3.98146 L -4.42559 -3.98631 L -4.4366 -3.99045 L -4.44785 -3.99387 L -4.45931 -3.99654 L -4.47092 -3.99846 L -4.48262 -3.99961 L -4.49438 -4 L -5.39326 -4 Z" />
    <path fill-rule="evenodd" d="M 3.30011 -0.0493 L 5.39326 -0.0493 L 5.39326 -0.40885 L 3.29706 -0.40885 L 3.2761 -0.46874 L 3.23946 -0.54135 L 3.19409 -0.60831 L 3.14075 -0.66884 L 3.08022 -0.72218 L 3.01326 -0.76755 L 2.94065 -0.80419 L 2.86316 -0.83131 L 2.78156 -0.84815 L 2.69663 -0.85393 L 2.6117 -0.84815 L 2.5301 -0.83131 L 2.45261 -0.80419 L 2.38 -0.76755 L 2.31304 -0.72218 L 2.25251 -0.66884 L 2.19917 -0.60831 L 2.15379 -0.54135 L 2.11716 -0.46874 L 2.09004 -0.39125 L 2.0732 -0.30965 L 2.06742 -0.22472 L 2.0732 -0.13979 L 2.09004 -0.05819 L 2.11716 0.0193 L 2.15379 0.09191 L 2.19917 0.15887 L 2.25251 0.2194 L 2.31304 0.27274 L 2.38 0.31812 L 2.45261 0.35475 L 2.5301 0.38187 L 2.6117 0.39871 L 2.69663 0.40449 L 2.78156 0.39871 L 2.86316 0.38187 L 2.94065 0.35475 L 3.01326 0.31812 L 3.08022 0.27274 L 3.14075 0.2194 L 3.19409 0.15887 L 3.23946 0.09191 L 3.2761 0.0193 L 3.30011 -0.0493 Z M 2.69663 -0.49438 L 2.73367 -0.49196 L 2.76906 -0.4849 L 2.80249 -0.47349 L 2.83368 -0.45804 L 2.86232 -0.43884 L 2.88811 -0.4162 L 2.91075 -0.39041 L 2.92995 -0.36177 L 2.9454 -0.33058 L 2.95681 -0.29715 L 2.96387 -0.26176 L 2.96629 -0.22472 L 2.96387 -0.18768 L 2.95681 -0.15229 L 2.9454 -0.11886 L 2.92995 -0.08767 L 2.91075 -0.05903 L 2.88811 -0.03324 L 2.86232 -0.0106 L 2.83368 0.0086 L 2.80249 0.02405 L 2.76906 0.03546 L 2.73367 0.04252 L 2.69663 0.04494 L 2.65959 0.04252 L 2.6242 0.03546 L 2.59077 0.02405 L 2.55958 0.0086 L 2.53094 -0.0106 L 2.50515 -0.03324 L 2.48251 -0.05903 L 2.46331 -0.08767 L 2.44786 -0.11886 L 2.43645 -0.15229 L 2.42939 -0.18768 L 2.42697 -0.22472 L 2.42939 -0.26176 L 2.43645 -0.29715 L 2.44786 -0.33058 L 2.46331 -0.36177 L 2.48251 -0.39041 L 2.50515 -0.4162 L 2.53094 -0.43884 L 2.55958 -0.45804 L 2.59077 -0.47349 L 2.6242 -0.4849 L 2.65959 -0.49196 L 2.69663 -0.49438 Z" />
</svg>