<svg version="1.1" xmlns="http://www.w3.org/2000/svg" viewBox="-4.638873237282931 -5.000000941789105 9.277746474565863 10.00000188357821" fill="black" stroke="none">
    <path d="M -3.63887 -3.99994 L -3.63881 -3.99994 L -3.63881 -4 L -3.63887 -4 L -3.63887 -3.99994 Z" />
    <path d="M 2.85691 2.87532 L 2.85691 3.10816 L 2.66249 3.10816 L 2.66249 3.55056 L 2.6623 3.55712 L 2.66214 3.56367 L 2.66202 3.57023 L 2.66194 3.57679 L 2.66189 3.58334 L 2.66187 3.5899 L 2.6619 3.59646 L 2.66196 3.60301 L 2.66205 3.60957 L 2.66218 3.61613 L 2.66234 3.62268 L 2.66255 3.62923 L 2.66278 3.63579 L 2.66305 3.64234 L 2.66336 3.64889 L 2.6637 3.65544 L 2.66408 3.66198 L 2.6645 3.66853 L 2.66495 3.67507 L 2.66543 3.68161 L 2.66595 3.68814 L 2.66651 3.69468 L 2.6671 3.70121 L 2.66773 3.70773 L 2.66825 3.70956 L 2.66883 3.71137 L 2.66946 3.71317 L 2.67014 3.71494 L 2.67087 3.71669 L 2.67165 3.71843 L 2.67248 3.72014 L 2.67336 3.72182 L 2.67429 3.72348 L 2.67526 3.72512 L 2.67628 3.72672 L 2.67735 3.72829 L 2.67846 3.72984 L 2.67961 3.73135 L 2.68081 3.73282 L 2.68205 3.73426 L 2.68333 3.73567 L 2.68465 3.73704 L 2.68601 3.73837 L 2.6874 3.73966 L 2.68884 3.74091 L 2.6903 3.74212 L 2.6918 3.74328 L 2.69334 3.74441 L 2.69508 3.7456 L 2.69686 3.74674 L 2.69867 3.74784 L 2.7005 3.74889 L 2.70237 3.74989 L 2.70425 3.75084 L 2.70617 3.75175 L 2.7081 3.7526 L 2.71006 3.7534 L 2.71204 3.75414 L 2.71403 3.75484 L 2.71605 3.75548 L 2.71808 3.75607 L 2.72012 3.75661 L 2.72218 3.75709 L 2.72425 3.75752 L 2.72633 3.75789 L 2.72842 3.75821 L 2.73052 3.75847 L 2.73262 3.75868 L 2.73473 3.75884 L 2.73684 3.75893 L 2.73896 3.75897 L 2.74107 3.75896 L 2.74716 3.75835 L 2.75324 3.75767 L 2.75931 3.75692 L 2.76538 3.75611 L 2.77144 3.75523 L 2.77748 3.75428 L 2.78351 3.75326 L 2.78954 3.75217 L 2.79555 3.75102 L 2.80154 3.7498 L 2.80753 3.74851 L 2.81349 3.74716 L 2.81945 3.74574 L 2.82538 3.74425 L 2.8313 3.7427 L 2.8372 3.74108 L 2.84309 3.7394 L 2.84895 3.73765 L 2.85479 3.73583 L 2.86062 3.73395 L 2.86642 3.732 L 2.8722 3.72999 L 2.87795 3.72792 L 2.88369 3.72578 L 2.88369 3.95164 L 2.87467 3.9555 L 2.86559 3.95921 L 2.85644 3.96277 L 2.84724 3.96616 L 2.83798 3.9694 L 2.82866 3.97248 L 2.8193 3.9754 L 2.80988 3.97816 L 2.80042 3.98076 L 2.79092 3.9832 L 2.78137 3.98547 L 2.77179 3.98758 L 2.76218 3.98952 L 2.75253 3.99131 L 2.74285 3.99292 L 2.73315 3.99437 L 2.72342 3.99565 L 2.71367 3.99677 L 2.70391 3.99772 L 2.69413 3.9985 L 2.68434 3.99911 L 2.67454 3.99956 L 2.66473 3.99984 L 2.65492 3.99995 L 2.649 4 L 2.64308 3.99995 L 2.63716 3.99979 L 2.63124 3.99953 L 2.62533 3.99917 L 2.61943 3.9987 L 2.61353 3.99814 L 2.60765 3.99747 L 2.60178 3.9967 L 2.59592 3.99583 L 2.59008 3.99485 L 2.58425 3.99378 L 2.57845 3.99261 L 2.57267 3.99133 L 2.56691 3.98996 L 2.56117 3.98848 L 2.55546 3.98691 L 2.54978 3.98524 L 2.54413 3.98347 L 2.53851 3.98161 L 2.53292 3.97964 L 2.52737 3.97758 L 2.52185 3.97543 L 2.51638 3.97318 L 2.51191 3.97144 L 2.50748 3.9696 L 2.5031 3.96766 L 2.49876 3.96561 L 2.49447 3.96346 L 2.49024 3.96121 L 2.48606 3.95886 L 2.48194 3.95641 L 2.47788 3.95386 L 2.47388 3.95122 L 2.46994 3.94848 L 2.46608 3.94565 L 2.46227 3.94273 L 2.45854 3.93972 L 2.45489 3.93662 L 2.4513 3.93343 L 2.4478 3.93016 L 2.44437 3.92681 L 2.44102 3.92338 L 2.43776 3.91986 L 2.43458 3.91627 L 2.43149 3.91261 L 2.42848 3.90888 L 2.42557 3.90507 L 2.42292 3.90076 L 2.42035 3.8964 L 2.41786 3.892 L 2.41546 3.88755 L 2.41313 3.88306 L 2.41089 3.87852 L 2.40873 3.87395 L 2.40666 3.86934 L 2.40467 3.86469 L 2.40277 3.86 L 2.40095 3.85528 L 2.39922 3.85053 L 2.39757 3.84575 L 2.39602 3.84093 L 2.39455 3.83609 L 2.39317 3.83123 L 2.39189 3.82634 L 2.39069 3.82142 L 2.38958 3.81649 L 2.38856 3.81154 L 2.38763 3.80656 L 2.3868 3.80158 L 2.38605 3.79657 L 2.3854 3.79156 L 2.38448 3.78308 L 2.38361 3.7746 L 2.38278 3.76611 L 2.38201 3.75762 L 2.38128 3.74912 L 2.3806 3.74062 L 2.37997 3.73211 L 2.37938 3.72361 L 2.37885 3.7151 L 2.37837 3.70658 L 2.37793 3.69807 L 2.37754 3.68955 L 2.3772 3.68103 L 2.37691 3.6725 L 2.37667 3.66398 L 2.37647 3.65545 L 2.37633 3.64693 L 2.37623 3.6384 L 2.37618 3.62987 L 2.37618 3.62134 L 2.37623 3.61282 L 2.37633 3.60429 L 2.37648 3.59576 L 2.37667 3.58724 L 2.37667 3.10816 L 2.18225 3.10816 L 2.18225 2.87532 L 2.37492 2.87532 L 2.37492 2.46784 L 2.66074 2.46784 L 2.66074 2.87532 L 2.85691 2.87532 Z" />
    <path fill-rule="evenodd" d="M 2.99254 2.50975 L 2.99257 2.49899 L 2.99295 2.48824 L 2.9937 2.4775 L 2.9948 2.46679 L 2.99627 2.45613 L 2.99808 2.44552 L 3.00025 2.43498 L 3.00277 2.42452 L 3.00564 2.41415 L 3.00886 2.40388 L 3.01242 2.39372 L 3.01631 2.38368 L 3.02054 2.37379 L 3.02509 2.36404 L 3.02997 2.35444 L 3.03517 2.34502 L 3.04068 2.33577 L 3.04649 2.32672 L 3.05261 2.31786 L 3.05902 2.30922 L 3.06571 2.30079 L 3.07268 2.29259 L 3.07992 2.28463 L 3.08743 2.27691 L 3.0949 2.26934 L 3.10263 2.26204 L 3.1106 2.255 L 3.11881 2.24824 L 3.12725 2.24176 L 3.1359 2.23558 L 3.14476 2.2297 L 3.15382 2.22412 L 3.16306 2.21886 L 3.17248 2.21392 L 3.18206 2.20931 L 3.19179 2.20502 L 3.20167 2.20107 L 3.21167 2.19747 L 3.22179 2.1942 L 3.23202 2.19129 L 3.24234 2.18873 L 3.25275 2.18652 L 3.26322 2.18467 L 3.27375 2.18319 L 3.28432 2.18206 L 3.29493 2.1813 L 3.30556 2.1809 L 3.31619 2.18086 L 3.32682 2.18088 L 3.33744 2.18128 L 3.34804 2.18203 L 3.35861 2.18316 L 3.36914 2.18465 L 3.3796 2.1865 L 3.39 2.18872 L 3.40031 2.19129 L 3.41052 2.19422 L 3.42063 2.19751 L 3.43062 2.20114 L 3.44048 2.20511 L 3.45019 2.20942 L 3.45975 2.21407 L 3.46914 2.21905 L 3.47836 2.22435 L 3.48738 2.22996 L 3.49621 2.23588 L 3.50482 2.24211 L 3.51321 2.24863 L 3.52138 2.25543 L 3.5293 2.26252 L 3.53697 2.26988 L 3.54438 2.27749 L 3.55884 2.29336 L 3.57224 2.31012 L 3.58455 2.32771 L 3.5957 2.34605 L 3.60564 2.36507 L 3.61435 2.38469 L 3.62178 2.40483 L 3.6279 2.4254 L 3.63268 2.44633 L 3.63612 2.46752 L 3.63818 2.48888 L 3.63887 2.51034 L 3.63818 2.53179 L 3.63612 2.55315 L 3.63268 2.57434 L 3.6279 2.59527 L 3.62178 2.61584 L 3.61435 2.63598 L 3.60564 2.6556 L 3.5957 2.67462 L 3.58455 2.69296 L 3.57224 2.71055 L 3.55884 2.72731 L 3.54438 2.74318 L 3.52913 2.75798 L 3.51292 2.77173 L 3.49583 2.78437 L 3.47794 2.79583 L 3.45931 2.80606 L 3.44004 2.81503 L 3.42021 2.82269 L 3.39992 2.829 L 3.37925 2.83394 L 3.35829 2.83748 L 3.33714 2.83961 L 3.3159 2.84033 L 3.29466 2.83961 L 3.27352 2.83748 L 3.25256 2.83394 L 3.23189 2.829 L 3.21159 2.82269 L 3.19177 2.81503 L 3.1725 2.80606 L 3.15387 2.79583 L 3.13597 2.78437 L 3.11888 2.77173 L 3.10268 2.75798 L 3.08743 2.74318 L 3.0799 2.73545 L 3.07264 2.72747 L 3.06564 2.71926 L 3.05893 2.71081 L 3.05251 2.70215 L 3.04638 2.69327 L 3.04055 2.68419 L 3.03503 2.67492 L 3.02982 2.66547 L 3.02494 2.65586 L 3.02038 2.64608 L 3.01615 2.63615 L 3.01225 2.62609 L 3.0087 2.61591 L 3.00549 2.60561 L 3.00263 2.59521 L 3.00012 2.58472 L 2.99796 2.57415 L 2.99616 2.56351 L 2.99471 2.55282 L 2.99363 2.54209 L 2.9929 2.53132 L 2.99254 2.52054 L 2.99254 2.50975 Z M 3.16077 2.50975 L 3.16079 2.51493 L 3.16098 2.5201 L 3.16134 2.52526 L 3.16188 2.53041 L 3.16259 2.53554 L 3.16347 2.54064 L 3.16453 2.5457 L 3.16575 2.55073 L 3.16714 2.55571 L 3.1687 2.56065 L 3.17043 2.56553 L 3.17232 2.57035 L 3.17437 2.5751 L 3.17657 2.57978 L 3.17894 2.58438 L 3.18146 2.5889 L 3.18413 2.59334 L 3.18694 2.59768 L 3.18991 2.60192 L 3.19301 2.60606 L 3.19625 2.6101 L 3.19962 2.61402 L 3.20313 2.61783 L 3.20676 2.62152 L 3.2141 2.62854 L 3.22189 2.63506 L 3.23009 2.64105 L 3.23868 2.64648 L 3.2476 2.65133 L 3.25683 2.65558 L 3.26632 2.6592 L 3.27603 2.66219 L 3.28592 2.66453 L 3.29593 2.66621 L 3.30604 2.66722 L 3.31619 2.66755 L 3.32635 2.66722 L 3.33646 2.66621 L 3.34647 2.66453 L 3.35636 2.66219 L 3.36607 2.6592 L 3.37556 2.65558 L 3.38478 2.65133 L 3.39371 2.64648 L 3.40229 2.64105 L 3.4105 2.63506 L 3.41829 2.62854 L 3.42563 2.62152 L 3.42922 2.6178 L 3.43268 2.61397 L 3.43601 2.61003 L 3.43921 2.60598 L 3.44227 2.60182 L 3.44519 2.59757 L 3.44797 2.59322 L 3.4506 2.58878 L 3.45309 2.58425 L 3.45542 2.57965 L 3.4576 2.57497 L 3.45962 2.57022 L 3.46148 2.56541 L 3.46318 2.56053 L 3.46472 2.55561 L 3.4661 2.55063 L 3.46731 2.54561 L 3.46835 2.54056 L 3.46922 2.53547 L 3.46993 2.53036 L 3.47046 2.52522 L 3.47082 2.52007 L 3.47102 2.51492 L 3.47104 2.50975 L 3.47104 2.50459 L 3.47087 2.49943 L 3.47053 2.49427 L 3.47001 2.48913 L 3.46932 2.48401 L 3.46846 2.47892 L 3.46743 2.47386 L 3.46623 2.46884 L 3.46486 2.46386 L 3.46332 2.45892 L 3.46162 2.45405 L 3.45976 2.44923 L 3.45773 2.44448 L 3.45555 2.4398 L 3.45321 2.43519 L 3.45072 2.43067 L 3.44808 2.42623 L 3.44529 2.42188 L 3.44235 2.41763 L 3.43928 2.41348 L 3.43606 2.40944 L 3.43271 2.40551 L 3.42924 2.40169 L 3.42563 2.39799 L 3.41833 2.3909 L 3.41057 2.38431 L 3.40238 2.37826 L 3.39381 2.37277 L 3.38489 2.36786 L 3.37566 2.36356 L 3.36616 2.3599 L 3.35644 2.35687 L 3.34654 2.35451 L 3.3365 2.35281 L 3.32637 2.35179 L 3.31619 2.35145 L 3.30602 2.35179 L 3.29589 2.35281 L 3.28585 2.35451 L 3.27595 2.35687 L 3.26623 2.3599 L 3.25673 2.36356 L 3.2475 2.36786 L 3.23858 2.37277 L 3.23001 2.37826 L 3.22182 2.38431 L 3.21406 2.3909 L 3.20676 2.39799 L 3.20311 2.40166 L 3.19958 2.40546 L 3.19619 2.40937 L 3.19294 2.4134 L 3.18982 2.41753 L 3.18684 2.42177 L 3.18401 2.42611 L 3.18134 2.43054 L 3.17881 2.43506 L 3.17644 2.43966 L 3.17423 2.44435 L 3.17217 2.4491 L 3.17028 2.45392 L 3.16856 2.45881 L 3.16701 2.46375 L 3.16562 2.46874 L 3.1644 2.47377 L 3.16336 2.47884 L 3.16249 2.48395 L 3.1618 2.48908 L 3.16127 2.49423 L 3.16093 2.4994 L 3.16076 2.50457 L 3.16077 2.50975 Z" />
</svg>