<svg version="1.1" xmlns="http://www.w3.org/2000/svg" viewBox="-6.753 -5 13.507 10" fill="black" stroke="none"><path fill-rule="evenodd" d="M -1.601 0.86 L -2.487 1.915 L -4.794 1.915 L -4.794 2.299 L -2.308 2.299 L -1.1 0.86 L 4.027 0.86 L 4.027 -0.578 L 5.753 -0.578 L 5.753 -0.962 L 4.027 -0.962 L 4.027 -2.4 L 1.638 -2.4 L 2.774 -3.753 L 2.481 -4 L 1.137 -2.4 L -4.027 -2.4 L -4.027 -0.962 L -5.753 -0.962 L -5.753 -0.578 L -4.027 -0.578 L -4.027 0.86 L -1.601 0.86 Z M 1.316 -2.016 L 3.644 -2.016 L 3.644 0.477 L -0.778 0.477 L 1.316 -2.016 Z M -1.279 0.477 L -3.644 0.477 L -3.644 -2.016 L 0.815 -2.016 L -1.279 0.477 Z M 1.901 2.825 L 2.155 2.825 L 2.155 3.456 L 2.155 3.467 L 2.154 3.479 L 2.154 3.49 L 2.154 3.501 L 2.154 3.512 L 2.154 3.523 L 2.154 3.535 L 2.155 3.546 L 2.155 3.557 L 2.155 3.568 L 2.155 3.58 L 2.156 3.591 L 2.156 3.602 L 2.157 3.613 L 2.158 3.625 L 2.158 3.636 L 2.159 3.647 L 2.16 3.658 L 2.161 3.669 L 2.162 3.681 L 2.163 3.692 L 2.164 3.703 L 2.165 3.714 L 2.166 3.725 L 2.167 3.732 L 2.168 3.739 L 2.169 3.745 L 2.17 3.752 L 2.172 3.758 L 2.173 3.765 L 2.175 3.771 L 2.177 3.778 L 2.178 3.784 L 2.18 3.79 L 2.182 3.797 L 2.185 3.803 L 2.187 3.809 L 2.189 3.816 L 2.192 3.822 L 2.194 3.828 L 2.197 3.834 L 2.2 3.84 L 2.203 3.846 L 2.206 3.852 L 2.209 3.858 L 2.212 3.863 L 2.216 3.869 L 2.219 3.875 L 2.223 3.88 L 2.227 3.885 L 2.231 3.89 L 2.235 3.894 L 2.24 3.899 L 2.244 3.904 L 2.249 3.908 L 2.253 3.912 L 2.258 3.916 L 2.263 3.921 L 2.268 3.925 L 2.273 3.928 L 2.278 3.932 L 2.283 3.936 L 2.288 3.939 L 2.294 3.943 L 2.299 3.946 L 2.304 3.949 L 2.31 3.952 L 2.316 3.955 L 2.321 3.957 L 2.327 3.96 L 2.333 3.962 L 2.339 3.965 L 2.346 3.968 L 2.353 3.97 L 2.361 3.973 L 2.368 3.976 L 2.375 3.978 L 2.383 3.981 L 2.39 3.983 L 2.398 3.985 L 2.405 3.987 L 2.413 3.989 L 2.421 3.99 L 2.428 3.992 L 2.436 3.993 L 2.444 3.994 L 2.451 3.996 L 2.459 3.997 L 2.467 3.998 L 2.475 3.998 L 2.482 3.999 L 2.49 3.999 L 2.498 4 L 2.506 4 L 2.514 4 L 2.521 4 L 2.534 4 L 2.547 3.999 L 2.56 3.999 L 2.573 3.998 L 2.586 3.997 L 2.599 3.996 L 2.612 3.994 L 2.625 3.993 L 2.637 3.991 L 2.65 3.989 L 2.663 3.986 L 2.675 3.984 L 2.688 3.981 L 2.701 3.978 L 2.713 3.975 L 2.726 3.971 L 2.738 3.968 L 2.75 3.964 L 2.763 3.96 L 2.775 3.955 L 2.787 3.951 L 2.799 3.946 L 2.811 3.941 L 2.823 3.936 L 2.823 3.639 L 2.815 3.641 L 2.808 3.644 L 2.8 3.647 L 2.793 3.649 L 2.785 3.652 L 2.777 3.654 L 2.769 3.657 L 2.762 3.659 L 2.754 3.661 L 2.746 3.663 L 2.738 3.665 L 2.73 3.667 L 2.723 3.669 L 2.715 3.67 L 2.707 3.672 L 2.699 3.673 L 2.691 3.675 L 2.683 3.676 L 2.675 3.677 L 2.667 3.679 L 2.659 3.68 L 2.651 3.681 L 2.643 3.682 L 2.635 3.682 L 2.632 3.682 L 2.629 3.682 L 2.627 3.682 L 2.624 3.682 L 2.621 3.682 L 2.618 3.681 L 2.616 3.681 L 2.613 3.68 L 2.61 3.68 L 2.607 3.679 L 2.605 3.679 L 2.602 3.678 L 2.599 3.677 L 2.597 3.676 L 2.594 3.675 L 2.592 3.674 L 2.589 3.673 L 2.586 3.672 L 2.584 3.67 L 2.582 3.669 L 2.579 3.668 L 2.577 3.666 L 2.574 3.665 L 2.572 3.663 L 2.57 3.662 L 2.568 3.66 L 2.566 3.659 L 2.564 3.657 L 2.562 3.655 L 2.561 3.653 L 2.559 3.652 L 2.557 3.65 L 2.556 3.648 L 2.554 3.646 L 2.552 3.644 L 2.551 3.642 L 2.55 3.64 L 2.548 3.638 L 2.547 3.636 L 2.546 3.633 L 2.545 3.631 L 2.544 3.629 L 2.542 3.627 L 2.542 3.624 L 2.541 3.622 L 2.54 3.62 L 2.539 3.617 L 2.538 3.615 L 2.538 3.606 L 2.537 3.598 L 2.536 3.589 L 2.535 3.58 L 2.535 3.572 L 2.534 3.563 L 2.534 3.555 L 2.533 3.546 L 2.533 3.537 L 2.532 3.529 L 2.532 3.52 L 2.532 3.511 L 2.531 3.503 L 2.531 3.494 L 2.531 3.485 L 2.531 3.477 L 2.531 3.468 L 2.531 3.46 L 2.531 3.451 L 2.531 3.442 L 2.531 3.434 L 2.531 3.425 L 2.531 3.416 L 2.531 3.408 L 2.531 2.825 L 2.788 2.825 L 2.788 2.518 L 2.531 2.518 L 2.531 1.981 L 2.155 1.981 L 2.155 2.518 L 1.901 2.518 L 1.901 2.825 Z M 2.966 2.05 L 2.967 2.065 L 2.968 2.079 L 2.969 2.093 L 2.971 2.107 L 2.974 2.121 L 2.976 2.135 L 2.98 2.149 L 2.983 2.162 L 2.988 2.176 L 2.992 2.189 L 2.998 2.203 L 3.003 2.216 L 3.009 2.229 L 3.016 2.241 L 3.022 2.254 L 3.03 2.266 L 3.037 2.278 L 3.045 2.29 L 3.054 2.301 L 3.063 2.312 L 3.072 2.323 L 3.082 2.334 L 3.091 2.344 L 3.112 2.363 L 3.133 2.381 L 3.155 2.398 L 3.179 2.413 L 3.204 2.427 L 3.229 2.438 L 3.255 2.449 L 3.282 2.457 L 3.309 2.463 L 3.337 2.468 L 3.365 2.471 L 3.393 2.472 L 3.421 2.471 L 3.448 2.468 L 3.476 2.463 L 3.503 2.457 L 3.53 2.449 L 3.556 2.438 L 3.582 2.427 L 3.606 2.413 L 3.63 2.398 L 3.652 2.381 L 3.674 2.363 L 3.694 2.344 L 3.713 2.323 L 3.73 2.301 L 3.747 2.278 L 3.761 2.253 L 3.774 2.228 L 3.786 2.202 L 3.796 2.176 L 3.804 2.149 L 3.81 2.121 L 3.814 2.093 L 3.817 2.065 L 3.818 2.037 L 3.817 2.009 L 3.814 1.98 L 3.81 1.953 L 3.804 1.925 L 3.796 1.898 L 3.786 1.871 L 3.774 1.845 L 3.761 1.82 L 3.747 1.796 L 3.73 1.773 L 3.713 1.751 L 3.694 1.73 L 3.684 1.72 L 3.674 1.71 L 3.663 1.701 L 3.653 1.692 L 3.641 1.683 L 3.63 1.675 L 3.618 1.667 L 3.607 1.66 L 3.594 1.653 L 3.582 1.647 L 3.569 1.64 L 3.557 1.635 L 3.544 1.629 L 3.531 1.625 L 3.517 1.62 L 3.504 1.616 L 3.49 1.613 L 3.476 1.61 L 3.463 1.608 L 3.449 1.606 L 3.435 1.604 L 3.421 1.603 L 3.407 1.603 L 3.393 1.603 L 3.379 1.603 L 3.365 1.603 L 3.351 1.604 L 3.337 1.606 L 3.323 1.608 L 3.309 1.61 L 3.296 1.613 L 3.282 1.616 L 3.268 1.62 L 3.255 1.625 L 3.242 1.629 L 3.229 1.635 L 3.216 1.64 L 3.204 1.646 L 3.191 1.653 L 3.179 1.66 L 3.167 1.667 L 3.155 1.675 L 3.144 1.683 L 3.133 1.692 L 3.122 1.7 L 3.111 1.71 L 3.101 1.719 L 3.091 1.729 L 3.082 1.739 L 3.072 1.75 L 3.063 1.761 L 3.054 1.772 L 3.046 1.783 L 3.037 1.795 L 3.03 1.807 L 3.023 1.819 L 3.016 1.831 L 3.009 1.844 L 3.003 1.857 L 2.998 1.87 L 2.993 1.883 L 2.988 1.897 L 2.984 1.91 L 2.98 1.924 L 2.977 1.938 L 2.974 1.952 L 2.971 1.965 L 2.969 1.98 L 2.968 1.994 L 2.967 2.008 L 2.966 2.022 L 2.966 2.036 L 2.966 2.05 Z M 3.188 2.029 L 3.188 2.022 L 3.189 2.016 L 3.189 2.009 L 3.19 2.002 L 3.192 1.995 L 3.193 1.989 L 3.194 1.982 L 3.196 1.976 L 3.198 1.969 L 3.201 1.963 L 3.203 1.956 L 3.206 1.95 L 3.209 1.944 L 3.212 1.938 L 3.215 1.932 L 3.219 1.926 L 3.222 1.92 L 3.226 1.915 L 3.23 1.909 L 3.235 1.904 L 3.239 1.899 L 3.244 1.894 L 3.249 1.889 L 3.258 1.88 L 3.269 1.871 L 3.279 1.863 L 3.291 1.856 L 3.302 1.849 L 3.315 1.843 L 3.327 1.839 L 3.34 1.835 L 3.353 1.832 L 3.366 1.829 L 3.38 1.828 L 3.393 1.828 L 3.406 1.828 L 3.42 1.829 L 3.433 1.832 L 3.446 1.835 L 3.459 1.839 L 3.471 1.843 L 3.483 1.849 L 3.495 1.856 L 3.506 1.863 L 3.517 1.871 L 3.527 1.88 L 3.537 1.889 L 3.542 1.894 L 3.546 1.899 L 3.551 1.904 L 3.555 1.909 L 3.559 1.915 L 3.563 1.92 L 3.567 1.926 L 3.57 1.932 L 3.573 1.938 L 3.577 1.944 L 3.579 1.95 L 3.582 1.956 L 3.585 1.963 L 3.587 1.969 L 3.589 1.976 L 3.591 1.982 L 3.592 1.989 L 3.594 1.996 L 3.595 2.002 L 3.596 2.009 L 3.596 2.016 L 3.597 2.023 L 3.597 2.029 L 3.597 2.036 L 3.597 2.043 L 3.597 2.05 L 3.596 2.057 L 3.595 2.063 L 3.595 2.07 L 3.593 2.077 L 3.592 2.083 L 3.59 2.09 L 3.589 2.097 L 3.587 2.103 L 3.584 2.109 L 3.582 2.116 L 3.579 2.122 L 3.576 2.128 L 3.573 2.134 L 3.57 2.14 L 3.567 2.146 L 3.563 2.152 L 3.559 2.157 L 3.555 2.163 L 3.551 2.168 L 3.546 2.173 L 3.542 2.179 L 3.537 2.183 L 3.527 2.193 L 3.517 2.201 L 3.506 2.209 L 3.495 2.216 L 3.483 2.223 L 3.471 2.228 L 3.459 2.233 L 3.446 2.237 L 3.433 2.24 L 3.42 2.242 L 3.406 2.244 L 3.393 2.244 L 3.38 2.244 L 3.366 2.242 L 3.353 2.24 L 3.34 2.237 L 3.327 2.233 L 3.315 2.228 L 3.303 2.223 L 3.291 2.216 L 3.279 2.209 L 3.269 2.201 L 3.258 2.193 L 3.249 2.183 L 3.244 2.179 L 3.239 2.174 L 3.235 2.168 L 3.231 2.163 L 3.226 2.158 L 3.223 2.152 L 3.219 2.146 L 3.215 2.14 L 3.212 2.134 L 3.209 2.128 L 3.206 2.122 L 3.203 2.116 L 3.201 2.11 L 3.199 2.103 L 3.196 2.097 L 3.195 2.09 L 3.193 2.084 L 3.192 2.077 L 3.19 2.07 L 3.19 2.063 L 3.189 2.057 L 3.188 2.05 L 3.188 2.043 L 3.188 2.036 L 3.188 2.029 Z" /></svg>