<svg version="1.1" xmlns="http://www.w3.org/2000/svg" viewBox="-5.235960381315254 -5.000000944055945 10.471920762630509 10.00000188811189" fill="black" stroke="none">
    <path fill-rule="evenodd" d="M 2.54224 1.31359 L 4.17302 1.31359 L 4.17302 1.03387 L 2.54461 1.03387 L 2.52593 0.9805 L 2.49743 0.92402 L 2.46213 0.87192 L 2.42064 0.82483 L 2.37354 0.78333 L 2.32145 0.74804 L 2.26496 0.71954 L 2.20468 0.69844 L 2.1412 0.68534 L 2.07512 0.68083 L 2.00904 0.68534 L 1.94556 0.69844 L 1.88528 0.71954 L 1.82879 0.74804 L 1.7767 0.78333 L 1.72961 0.82483 L 1.68811 0.87192 L 1.65281 0.92402 L 1.62431 0.9805 L 1.60321 1.04079 L 1.59011 1.10427 L 1.58561 1.17035 L 1.59011 1.23642 L 1.60321 1.2999 L 1.62431 1.36019 L 1.65281 1.41667 L 1.68811 1.46877 L 1.72961 1.51586 L 1.7767 1.55736 L 1.82879 1.59265 L 1.88528 1.62115 L 1.94556 1.64225 L 2.00904 1.65536 L 2.07512 1.65986 L 2.1412 1.65536 L 2.20468 1.64225 L 2.26496 1.62115 L 2.32145 1.59265 L 2.37354 1.55736 L 2.42064 1.51586 L 2.46213 1.46877 L 2.49743 1.41667 L 2.52593 1.36019 L 2.54224 1.31359 Z M 2.07512 0.96056 L 2.10394 0.96244 L 2.13147 0.96793 L 2.15748 0.97681 L 2.18174 0.98883 L 2.20402 1.00376 L 2.22409 1.02138 L 2.2417 1.04144 L 2.25664 1.06372 L 2.26866 1.08799 L 2.27753 1.114 L 2.28303 1.14153 L 2.28491 1.17035 L 2.28303 1.19916 L 2.27753 1.22669 L 2.26866 1.2527 L 2.25664 1.27697 L 2.2417 1.29925 L 2.22409 1.31931 L 2.20402 1.33693 L 2.18174 1.35186 L 2.15748 1.36388 L 2.13147 1.37276 L 2.10394 1.37825 L 2.07512 1.38014 L 2.0463 1.37825 L 2.01877 1.37276 L 1.99276 1.36388 L 1.9685 1.35186 L 1.94622 1.33693 L 1.92615 1.31931 L 1.90854 1.29925 L 1.8936 1.27697 L 1.88158 1.2527 L 1.87271 1.22669 L 1.86721 1.19916 L 1.86533 1.17035 L 1.86721 1.14153 L 1.87271 1.114 L 1.88158 1.08799 L 1.8936 1.06372 L 1.90854 1.04144 L 1.92615 1.02138 L 1.94622 1.00376 L 1.9685 0.98883 L 1.99276 0.97681 L 2.01877 0.96793 L 2.0463 0.96244 L 2.07512 0.96056 Z" />
    <path fill-rule="evenodd" d="M -2.60755 2.58403 L -2.58887 2.63739 L -2.56037 2.69388 L -2.52507 2.74597 L -2.48357 2.79307 L -2.43648 2.83456 L -2.38439 2.86986 L -2.3279 2.89836 L -2.26761 2.91946 L -2.20413 2.93256 L -2.13806 2.93706 L -2.07198 2.93256 L -2.0085 2.91946 L -1.94822 2.89836 L -1.89173 2.86986 L -1.83964 2.83456 L -1.79254 2.79307 L -1.75105 2.74597 L -1.71575 2.69388 L -1.68725 2.63739 L -1.66615 2.57711 L -1.65305 2.51363 L -1.64855 2.44755 L -1.65305 2.38148 L -1.66615 2.318 L -1.68725 2.25771 L -1.71575 2.20122 L -1.75105 2.14913 L -1.79254 2.10204 L -1.83964 2.06054 L -1.89173 2.02524 L -1.94822 1.99674 L -2.0085 1.97564 L -2.07198 1.96254 L -2.13806 1.95804 L -2.20413 1.96254 L -2.26761 1.97564 L -2.3279 1.99674 L -2.38439 2.02524 L -2.43648 2.06054 L -2.48357 2.10204 L -2.52507 2.14913 L -2.56037 2.20122 L -2.58887 2.25771 L -2.60517 2.3043 L -4.23596 2.3043 L -4.23596 2.58403 L -2.60755 2.58403 Z M -2.13806 2.23776 L -2.10924 2.23965 L -2.08171 2.24514 L -2.0557 2.25402 L -2.03144 2.26604 L -2.00916 2.28097 L -1.98909 2.29859 L -1.97148 2.31865 L -1.95654 2.34093 L -1.94452 2.36519 L -1.93565 2.39121 L -1.93015 2.41874 L -1.92827 2.44755 L -1.93015 2.47637 L -1.93565 2.5039 L -1.94452 2.52991 L -1.95654 2.55417 L -1.97148 2.57645 L -1.98909 2.59652 L -2.00916 2.61413 L -2.03144 2.62907 L -2.0557 2.64109 L -2.08171 2.64996 L -2.10924 2.65546 L -2.13806 2.65734 L -2.16687 2.65546 L -2.1944 2.64996 L -2.22042 2.64109 L -2.24468 2.62907 L -2.26696 2.61413 L -2.28702 2.59652 L -2.30464 2.57645 L -2.31957 2.55417 L -2.33159 2.52991 L -2.34047 2.5039 L -2.34596 2.47637 L -2.34785 2.44755 L -2.34596 2.41874 L -2.34047 2.39121 L -2.33159 2.36519 L -2.31957 2.34093 L -2.30464 2.31865 L -2.28702 2.29859 L -2.26696 2.28097 L -2.24468 2.26604 L -2.22042 2.25402 L -2.1944 2.24514 L -2.16687 2.23965 L -2.13806 2.23776 Z" />
    <path d="M -0.18002 -1.23132 L -0.18002 -0.93313 L 0.0997 -0.93313 L 0.0997 -1.23132 L -0.18002 -1.23132 Z" />
    <path d="M -0.18002 -1.82769 L -0.18002 -1.5295 L 0.0997 -1.5295 L 0.0997 -1.82769 L -0.18002 -1.82769 Z" />
    <path d="M -0.18002 -0.63494 L -0.18002 -0.33676 L 0.0997 -0.33676 L 0.0997 -0.63494 L -0.18002 -0.63494 Z" />
    <path d="M -0.18002 -0.03857 L -0.18002 0.25962 L 0.0997 0.25962 L 0.0997 -0.03857 L -0.18002 -0.03857 Z" />
    <path d="M -0.18002 0.5578 L -0.18002 0.85599 L 0.0997 0.85599 L 0.0997 0.5578 L -0.18002 0.5578 Z" />
    <path d="M -0.18002 1.15417 L -0.18002 1.45236 L 0.0997 1.45236 L 0.0997 1.15417 L -0.18002 1.15417 Z" />
    <path fill-rule="evenodd" d="M 2.54224 -3.36724 L 4.17302 -3.36724 L 4.17302 -3.64696 L 2.54461 -3.64696 L 2.52593 -3.70033 L 2.49743 -3.75682 L 2.46213 -3.80891 L 2.42064 -3.856 L 2.37354 -3.8975 L 2.32145 -3.9328 L 2.26496 -3.9613 L 2.20468 -3.9824 L 2.1412 -3.9955 L 2.07512 -4 L 2.00904 -3.9955 L 1.94556 -3.9824 L 1.88528 -3.9613 L 1.82879 -3.9328 L 1.7767 -3.8975 L 1.72961 -3.856 L 1.68811 -3.80891 L 1.65281 -3.75682 L 1.62431 -3.70033 L 1.60321 -3.64005 L 1.59011 -3.57657 L 1.58561 -3.51049 L 1.59011 -3.44441 L 1.60321 -3.38093 L 1.62431 -3.32065 L 1.65281 -3.26416 L 1.68811 -3.21207 L 1.72961 -3.16497 L 1.7767 -3.12348 L 1.82879 -3.08818 L 1.88528 -3.05968 L 1.94556 -3.03858 L 2.00904 -3.02548 L 2.07512 -3.02098 L 2.1412 -3.02548 L 2.20468 -3.03858 L 2.26496 -3.05968 L 2.32145 -3.08818 L 2.37354 -3.12348 L 2.42064 -3.16497 L 2.46213 -3.21207 L 2.49743 -3.26416 L 2.52593 -3.32065 L 2.54224 -3.36724 Z M 2.07512 -3.72028 L 2.10394 -3.7184 L 2.13147 -3.7129 L 2.15748 -3.70403 L 2.18174 -3.69201 L 2.20402 -3.67707 L 2.22409 -3.65945 L 2.2417 -3.63939 L 2.25664 -3.61711 L 2.26866 -3.59285 L 2.27753 -3.56684 L 2.28303 -3.5393 L 2.28491 -3.51049 L 2.28303 -3.48167 L 2.27753 -3.45414 L 2.26866 -3.42813 L 2.25664 -3.40387 L 2.2417 -3.38159 L 2.22409 -3.36152 L 2.20402 -3.34391 L 2.18174 -3.32897 L 2.15748 -3.31695 L 2.13147 -3.30808 L 2.10394 -3.30258 L 2.07512 -3.3007 L 2.0463 -3.30258 L 2.01877 -3.30808 L 1.99276 -3.31695 L 1.9685 -3.32897 L 1.94622 -3.34391 L 1.92615 -3.36152 L 1.90854 -3.38159 L 1.8936 -3.40387 L 1.88158 -3.42813 L 1.87271 -3.45414 L 1.86721 -3.48167 L 1.86533 -3.51049 L 1.86721 -3.5393 L 1.87271 -3.56684 L 1.88158 -3.59285 L 1.8936 -3.61711 L 1.90854 -3.63939 L 1.92615 -3.65945 L 1.94622 -3.67707 L 1.9685 -3.69201 L 1.99276 -3.70403 L 2.01877 -3.7129 L 2.0463 -3.7184 L 2.07512 -3.72028 Z" />
    <path fill-rule="evenodd" d="M 2.48771 -0.90967 L 2.48771 -0.75404 L 4.23596 -0.75404 L 4.23596 -1.03376 L 2.54457 -1.03376 L 2.54703 -1.04079 L 2.56013 -1.10427 L 2.56463 -1.17035 L 2.56013 -1.23642 L 2.54703 -1.2999 L 2.52593 -1.36019 L 2.49743 -1.41667 L 2.46213 -1.46877 L 2.42064 -1.51586 L 2.37354 -1.55736 L 2.32145 -1.59266 L 2.26496 -1.62115 L 2.20468 -1.64225 L 2.1412 -1.65536 L 2.07512 -1.65986 L 2.00904 -1.65536 L 1.94556 -1.64225 L 1.88528 -1.62115 L 1.82879 -1.59266 L 1.7767 -1.55736 L 1.72961 -1.51586 L 1.68811 -1.46877 L 1.65281 -1.41667 L 1.62431 -1.36019 L 1.60321 -1.2999 L 1.59011 -1.23642 L 1.58561 -1.17035 L 1.59011 -1.10427 L 1.60321 -1.04079 L 1.62431 -0.9805 L 1.65281 -0.92402 L 1.68811 -0.87192 L 1.72961 -0.82483 L 1.7767 -0.78333 L 1.82879 -0.74804 L 1.88528 -0.71954 L 1.94556 -0.69844 L 2.00904 -0.68534 L 2.07512 -0.68083 L 2.1412 -0.68534 L 2.20468 -0.69844 L 2.26496 -0.71954 L 2.32145 -0.74804 L 2.37354 -0.78333 L 2.42064 -0.82483 L 2.46213 -0.87192 L 2.48771 -0.90967 Z M 2.07512 -1.38014 L 2.10394 -1.37825 L 2.13147 -1.37276 L 2.15748 -1.36388 L 2.18174 -1.35186 L 2.20402 -1.33693 L 2.22409 -1.31931 L 2.2417 -1.29925 L 2.25664 -1.27697 L 2.26866 -1.2527 L 2.27753 -1.22669 L 2.28303 -1.19916 L 2.28491 -1.17035 L 2.28303 -1.14153 L 2.27753 -1.114 L 2.26866 -1.08799 L 2.25664 -1.06372 L 2.2417 -1.04144 L 2.22409 -1.02138 L 2.20402 -1.00376 L 2.18174 -0.98883 L 2.15748 -0.97681 L 2.13147 -0.96793 L 2.10394 -0.96244 L 2.07512 -0.96056 L 2.0463 -0.96244 L 2.01877 -0.96793 L 1.99276 -0.97681 L 1.9685 -0.98883 L 1.94622 -1.00376 L 1.92615 -1.02138 L 1.90854 -1.04144 L 1.8936 -1.06372 L 1.88158 -1.08799 L 1.87271 -1.114 L 1.86721 -1.14153 L 1.86533 -1.17035 L 1.86721 -1.19916 L 1.87271 -1.22669 L 1.88158 -1.2527 L 1.8936 -1.27697 L 1.90854 -1.29925 L 1.92615 -1.31931 L 1.94622 -1.33693 L 1.9685 -1.35186 L 1.99276 -1.36388 L 2.01877 -1.37276 L 2.0463 -1.37825 L 2.07512 -1.38014 Z" />
    <path fill-rule="evenodd" d="M -2.60755 -1.96143 L -2.58887 -1.90806 L -2.56037 -1.85157 L -2.52507 -1.79948 L -2.48357 -1.75239 L -2.43648 -1.71089 L -2.38439 -1.67559 L -2.3279 -1.64709 L -2.26761 -1.62599 L -2.20413 -1.61289 L -2.13806 -1.60839 L -2.07198 -1.61289 L -2.0085 -1.62599 L -1.94822 -1.64709 L -1.89173 -1.67559 L -1.83964 -1.71089 L -1.79254 -1.75239 L -1.75105 -1.79948 L -1.71575 -1.85157 L -1.68725 -1.90806 L -1.66615 -1.96835 L -1.65305 -2.03183 L -1.64855 -2.0979 L -1.65305 -2.16398 L -1.66615 -2.22746 L -1.68725 -2.28774 L -1.71575 -2.34423 L -1.75105 -2.39632 L -1.79254 -2.44342 L -1.83964 -2.48491 L -1.89173 -2.52021 L -1.94822 -2.54871 L -2.0085 -2.56981 L -2.07198 -2.58291 L -2.13806 -2.58741 L -2.20413 -2.58291 L -2.26761 -2.56981 L -2.3279 -2.54871 L -2.38439 -2.52021 L -2.43648 -2.48491 L -2.48357 -2.44342 L -2.52507 -2.39632 L -2.56037 -2.34423 L -2.58887 -2.28774 L -2.60517 -2.24115 L -4.23596 -2.24115 L -4.23596 -1.96143 L -2.60755 -1.96143 Z M -2.13806 -2.30769 L -2.10924 -2.30581 L -2.08171 -2.30031 L -2.0557 -2.29144 L -2.03144 -2.27942 L -2.00916 -2.26448 L -1.98909 -2.24687 L -1.97148 -2.2268 L -1.95654 -2.20452 L -1.94452 -2.18026 L -1.93565 -2.15425 L -1.93015 -2.12672 L -1.92827 -2.0979 L -1.93015 -2.06909 L -1.93565 -2.04156 L -1.94452 -2.01554 L -1.95654 -1.99128 L -1.97148 -1.969 L -1.98909 -1.94894 L -2.00916 -1.93132 L -2.03144 -1.91639 L -2.0557 -1.90437 L -2.08171 -1.89549 L -2.10924 -1.89 L -2.13806 -1.88811 L -2.16687 -1.89 L -2.1944 -1.89549 L -2.22042 -1.90437 L -2.24468 -1.91639 L -2.26696 -1.93132 L -2.28702 -1.94894 L -2.30464 -1.969 L -2.31957 -1.99128 L -2.33159 -2.01554 L -2.34047 -2.04156 L -2.34596 -2.06909 L -2.34785 -2.0979 L -2.34596 -2.12672 L -2.34047 -2.15425 L -2.33159 -2.18026 L -2.31957 -2.20452 L -2.30464 -2.2268 L -2.28702 -2.24687 L -2.26696 -2.26448 L -2.24468 -2.27942 L -2.22042 -2.29144 L -2.1944 -2.30031 L -2.16687 -2.30581 L -2.13806 -2.30769 Z" />
    <path d="M -0.18002 -2.26573 L -0.18002 -2.12587 L 0.0997 -2.12587 L 0.0997 -2.26573 L -0.18002 -2.26573 Z" />
    <path d="M -0.18002 1.74825 L -0.18002 1.88811 L 0.0997 1.88811 L 0.0997 1.74825 L -0.18002 1.74825 Z" />
    <path fill-rule="evenodd" d="M 2.47722 3.78665 L 2.47722 3.92843 L 4.22547 3.92843 L 4.22547 3.64871 L 2.544 3.64871 L 2.54703 3.64005 L 2.56013 3.57657 L 2.56463 3.51049 L 2.56013 3.44441 L 2.54703 3.38093 L 2.52593 3.32065 L 2.49743 3.26416 L 2.46213 3.21207 L 2.42064 3.16497 L 2.37354 3.12348 L 2.32145 3.08818 L 2.26496 3.05968 L 2.20468 3.03858 L 2.1412 3.02548 L 2.07512 3.02098 L 2.00904 3.02548 L 1.94556 3.03858 L 1.88528 3.05968 L 1.82879 3.08818 L 1.7767 3.12348 L 1.72961 3.16497 L 1.68811 3.21207 L 1.65281 3.26416 L 1.62431 3.32065 L 1.60321 3.38093 L 1.59011 3.44441 L 1.58561 3.51049 L 1.59011 3.57657 L 1.60321 3.64005 L 1.62431 3.70033 L 1.65281 3.75682 L 1.68811 3.80891 L 1.72961 3.856 L 1.7767 3.8975 L 1.82879 3.9328 L 1.88528 3.9613 L 1.94556 3.9824 L 2.00904 3.9955 L 2.07512 4 L 2.1412 3.9955 L 2.20468 3.9824 L 2.26496 3.9613 L 2.32145 3.9328 L 2.37354 3.8975 L 2.42064 3.856 L 2.46213 3.80891 L 2.47722 3.78665 Z M 2.07512 3.3007 L 2.10394 3.30258 L 2.13147 3.30808 L 2.15748 3.31695 L 2.18174 3.32897 L 2.20402 3.34391 L 2.22409 3.36152 L 2.2417 3.38159 L 2.25664 3.40387 L 2.26866 3.42813 L 2.27753 3.45414 L 2.28303 3.48167 L 2.28491 3.51049 L 2.28303 3.5393 L 2.27753 3.56684 L 2.26866 3.59285 L 2.25664 3.61711 L 2.2417 3.63939 L 2.22409 3.65945 L 2.20402 3.67707 L 2.18174 3.69201 L 2.15748 3.70403 L 2.13147 3.7129 L 2.10394 3.7184 L 2.07512 3.72028 L 2.0463 3.7184 L 2.01877 3.7129 L 1.99276 3.70403 L 1.9685 3.69201 L 1.94622 3.67707 L 1.92615 3.65945 L 1.90854 3.63939 L 1.8936 3.61711 L 1.88158 3.59285 L 1.87271 3.56684 L 1.86721 3.5393 L 1.86533 3.51049 L 1.86721 3.48167 L 1.87271 3.45414 L 1.88158 3.42813 L 1.8936 3.40387 L 1.90854 3.38159 L 1.92615 3.36152 L 1.94622 3.34391 L 1.9685 3.32897 L 1.99276 3.31695 L 2.01877 3.30808 L 2.0463 3.30258 L 2.07512 3.3007 Z" />
</svg>