<svg version="1.1" xmlns="http://www.w3.org/2000/svg" viewBox="-6.854 -5 13.707 10" fill="black" stroke="none"><path fill-rule="evenodd" d="M 3.902 2.049 L 3.174 4 L 2.679 4 L 1.951 2.049 L 2.41 2.049 L 2.81 3.21 L 2.812 3.215 L 2.814 3.221 L 2.816 3.228 L 2.818 3.235 L 2.821 3.243 L 2.824 3.252 L 2.827 3.262 L 2.83 3.272 L 2.833 3.283 L 2.837 3.295 L 2.84 3.307 L 2.844 3.32 L 2.892 3.491 L 2.896 3.506 L 2.899 3.52 L 2.903 3.534 L 2.906 3.548 L 2.909 3.561 L 2.912 3.573 L 2.914 3.585 L 2.917 3.597 L 2.919 3.608 L 2.921 3.619 L 2.923 3.629 L 2.924 3.639 L 2.926 3.629 L 2.928 3.619 L 2.93 3.608 L 2.932 3.597 L 2.934 3.585 L 2.937 3.573 L 2.939 3.561 L 2.942 3.548 L 2.945 3.534 L 2.949 3.52 L 2.952 3.506 L 2.956 3.491 L 2.959 3.476 L 2.963 3.461 L 2.967 3.447 L 2.971 3.432 L 2.975 3.418 L 2.978 3.404 L 2.982 3.39 L 2.986 3.376 L 2.99 3.362 L 2.994 3.348 L 2.998 3.334 L 3.002 3.321 L 3.006 3.308 L 3.009 3.295 L 3.012 3.284 L 3.016 3.273 L 3.019 3.263 L 3.021 3.253 L 3.024 3.244 L 3.026 3.236 L 3.029 3.228 L 3.031 3.222 L 3.033 3.216 L 3.035 3.21 L 3.44 2.049 L 3.902 2.049 Z M -1.636 0.78 L -2.53 1.854 L -4.878 1.854 L -4.878 2.244 L -2.348 2.244 L -1.128 0.78 L 4.098 0.78 L 4.098 -0.683 L 5.854 -0.683 L 5.854 -1.073 L 4.098 -1.073 L 4.098 -2.537 L 1.636 -2.537 L 2.53 -3.61 L 4.878 -3.61 L 4.878 -4 L 2.348 -4 L 1.128 -2.537 L -4.098 -2.537 L -4.098 -1.073 L -5.854 -1.073 L -5.854 -0.683 L -4.098 -0.683 L -4.098 0.78 L -1.636 0.78 Z M 1.311 -2.146 L 3.707 -2.146 L 3.707 0.39 L -0.803 0.39 L 1.311 -2.146 Z M -1.311 0.39 L -3.707 0.39 L -3.707 -2.146 L 0.803 -2.146 L -1.311 0.39 Z" /></svg>