<svg version="1.1" xmlns="http://www.w3.org/2000/svg" viewBox="-8.307500989282335 -5.000000902566674 16.61500197856467 10.000001805133333" fill="black" stroke="none">
    <path fill-rule="evenodd" d="M 4.04933 3.66678 L 4.04936 3.67544 L 4.04967 3.6841 L 4.05028 3.69274 L 4.05118 3.70135 L 4.05237 3.70993 L 4.05385 3.71847 L 4.05562 3.72695 L 4.05766 3.73536 L 4.06 3.74371 L 4.06261 3.75197 L 4.06549 3.76013 L 4.06865 3.7682 L 4.07208 3.77615 L 4.07578 3.78399 L 4.07974 3.79169 L 4.08395 3.79926 L 4.08842 3.80668 L 4.09314 3.81395 L 4.09809 3.82105 L 4.10329 3.82798 L 4.10871 3.83474 L 4.11436 3.8413 L 4.12022 3.84768 L 4.1263 3.85385 L 4.13859 3.8656 L 4.15163 3.87652 L 4.16536 3.88654 L 4.17973 3.89563 L 4.19467 3.90375 L 4.21012 3.91086 L 4.226 3.91693 L 4.24225 3.92193 L 4.25879 3.92584 L 4.27556 3.92865 L 4.29248 3.93034 L 4.30948 3.9309 L 4.32647 3.93034 L 4.34339 3.92865 L 4.36016 3.92584 L 4.3767 3.92193 L 4.39295 3.91693 L 4.40884 3.91086 L 4.42428 3.90375 L 4.43922 3.89563 L 4.45359 3.88654 L 4.46733 3.87652 L 4.48036 3.8656 L 4.49265 3.85385 L 4.49865 3.84763 L 4.50444 3.84122 L 4.51002 3.83462 L 4.51537 3.82784 L 4.5205 3.82088 L 4.52539 3.81376 L 4.53004 3.80648 L 4.53445 3.79905 L 4.53861 3.79148 L 4.54251 3.78377 L 4.54616 3.77594 L 4.54954 3.76799 L 4.55266 3.75993 L 4.55551 3.75177 L 4.55808 3.74353 L 4.56039 3.7352 L 4.56241 3.7268 L 4.56415 3.71834 L 4.56562 3.70982 L 4.56679 3.70126 L 4.56769 3.69267 L 4.56829 3.68405 L 4.56862 3.67542 L 4.56865 3.66678 L 4.56865 3.65813 L 4.56837 3.64949 L 4.56779 3.64087 L 4.56693 3.63226 L 4.56578 3.6237 L 4.56434 3.61517 L 4.56261 3.6067 L 4.5606 3.59829 L 4.55831 3.58995 L 4.55574 3.5817 L 4.55289 3.57354 L 4.54977 3.56547 L 4.54639 3.55752 L 4.54273 3.54968 L 4.53882 3.54198 L 4.53465 3.5344 L 4.53022 3.52697 L 4.52555 3.5197 L 4.52064 3.51259 L 4.51549 3.50564 L 4.51011 3.49887 L 4.50451 3.49229 L 4.49868 3.4859 L 4.49265 3.47971 L 4.48043 3.46783 L 4.46743 3.45681 L 4.45373 3.44668 L 4.43938 3.43749 L 4.42445 3.42928 L 4.409 3.42209 L 4.39311 3.41595 L 4.37684 3.41089 L 4.36026 3.40693 L 4.34346 3.40408 L 4.32651 3.40237 L 4.30948 3.4018 L 4.29245 3.40237 L 4.27549 3.40408 L 4.25869 3.40693 L 4.24212 3.41089 L 4.22585 3.41595 L 4.20995 3.42209 L 4.1945 3.42928 L 4.17957 3.43749 L 4.16522 3.44668 L 4.15152 3.45681 L 4.13853 3.46783 L 4.1263 3.47971 L 4.12019 3.48585 L 4.11429 3.49221 L 4.10862 3.49876 L 4.10317 3.5055 L 4.09795 3.51242 L 4.09297 3.51951 L 4.08823 3.52677 L 4.08375 3.53419 L 4.07952 3.54176 L 4.07555 3.54946 L 4.07185 3.5573 L 4.06841 3.56526 L 4.06525 3.57333 L 4.06237 3.5815 L 4.05976 3.58977 L 4.05744 3.59812 L 4.05541 3.60655 L 4.05366 3.61504 L 4.05221 3.62358 L 4.05104 3.63217 L 4.05017 3.6408 L 4.0496 3.64945 L 4.04931 3.65811 L 4.04933 3.66678 Z M -2.03336 2.17312 L -3.1584 3.51283 L -6.08958 3.51283 L -6.08958 4 L -2.93118 4 L -1.39711 2.17312 L 5.11525 2.17312 L 5.11525 0.34625 L 7.3075 0.34625 L 7.3075 -0.14092 L 5.11525 -0.14092 L 5.11525 -1.96779 L 2.08012 -1.96779 L 3.52358 -3.68677 L 3.1506 -4 L 1.44403 -1.96779 L -5.11525 -1.96779 L -5.11525 -1.72421 L -5.11525 -0.14092 L -7.3075 -0.14092 L -7.3075 0.34625 L -5.11525 0.34625 L -5.11525 2.17312 L -2.03336 2.17312 Z M 1.67103 -1.48063 L 4.62808 -1.48063 L 4.62808 1.68596 L -0.98802 1.68596 L 1.67103 -1.48063 Z M -1.62426 1.68596 L -4.62808 1.68596 L -4.62808 -1.48063 L 1.03492 -1.48063 L -1.62426 1.68596 Z" />
</svg>