<svg version="1.1" xmlns="http://www.w3.org/2000/svg" viewBox="-6.795 -5 13.59 10" fill="black" stroke="none"><path fill-rule="evenodd" d="M 0.1 0.11 L -0.33 -1.499 L -0.704 -1.499 L -1.551 1.667 L -2.399 -1.501 L -2.764 -1.525 L -3.51 0.285 L -5.795 0.285 L -5.795 0.671 L -3.38 0.671 L -3.202 0.552 L -2.624 -0.85 L -1.847 2.057 L -3.517 3.727 L -3.244 4 L -1.709 2.465 L -1.365 2.465 L -1.239 1.995 L -0.1 0.856 M -1.04 1.249 L -0.517 -0.702 L -0.215 0.425 M -0.215 0.425 L -1.04 1.249 M -0.1 0.856 L 0.33 2.465 L 0.703 2.465 L 1.552 -0.678 L 2.399 2.465 L 2.764 2.488 L 3.51 0.676 L 5.795 0.676 L 5.795 0.29 L 3.38 0.29 L 3.202 0.409 L 2.624 1.814 L 1.842 -1.086 L 3.38 -2.624 L 4.21 -1.795 L 4.483 -2.068 L 2.551 -4 L 2.278 -3.727 L 3.107 -2.898 L 1.68 -1.47 L 1.365 -1.47 L 1.249 -1.039 L 0.1 0.11 M 0.215 0.541 L 1.047 -0.291 M 1.047 -0.291 L 0.518 1.67 L 0.215 0.541" /></svg>