<svg version="1.1" xmlns="http://www.w3.org/2000/svg" viewBox="-6.55093879208341 -5.000000925987504 13.10187758416682 10.000001851974993" fill="black" stroke="none">
    <path fill-rule="evenodd" d="M 4.80126 0.18503 L 5.55094 0.18503 L 5.55094 -0.18503 L 4.80126 -0.18503 L 4.77812 -0.25115 L 4.74041 -0.32589 L 4.69371 -0.3948 L 4.63881 -0.45711 L 4.57651 -0.51201 L 4.50759 -0.5587 L 4.43286 -0.59641 L 4.35311 -0.62432 L 4.26912 -0.64166 L 4.18171 -0.64761 L 4.09429 -0.64166 L 4.01031 -0.62432 L 3.93055 -0.59641 L 3.85582 -0.5587 L 3.7869 -0.51201 L 3.7246 -0.45711 L 3.6697 -0.3948 L 3.623 -0.32589 L 3.5853 -0.25115 L 3.55738 -0.1714 L 3.54005 -0.08742 L 3.53858 -0.06584 L -4.32973 -4 L -4.32973 -0.18503 L -5.55094 -0.18503 L -5.55094 0.18503 L -4.32973 0.18503 L -4.32973 4 L 3.53858 0.06584 L 3.54005 0.08742 L 3.55738 0.1714 L 3.5853 0.25115 L 3.623 0.32589 L 3.6697 0.3948 L 3.7246 0.45711 L 3.7869 0.51201 L 3.85582 0.5587 L 3.93055 0.59641 L 4.01031 0.62432 L 4.09429 0.64166 L 4.18171 0.64761 L 4.26912 0.64166 L 4.35311 0.62432 L 4.43286 0.59641 L 4.50759 0.5587 L 4.57651 0.51201 L 4.63881 0.45711 L 4.69371 0.3948 L 4.74041 0.32589 L 4.77812 0.25115 L 4.80126 0.18503 Z M 3.90416 0 L 3.90665 -0.03812 L 3.91392 -0.07454 L 3.92566 -0.10896 L 3.94157 -0.14106 L 3.96132 -0.17053 L 3.98463 -0.19708 L 4.01117 -0.22038 L 4.04065 -0.24014 L 4.07275 -0.25604 L 4.10716 -0.26778 L 4.14358 -0.27505 L 4.18171 -0.27755 L 4.21983 -0.27505 L 4.25625 -0.26778 L 4.29066 -0.25604 L 4.32276 -0.24014 L 4.35224 -0.22038 L 4.37878 -0.19708 L 4.40209 -0.17053 L 4.42185 -0.14106 L 4.43775 -0.10896 L 4.44949 -0.07454 L 4.45676 -0.03812 L 4.45925 0 L 4.45676 0.03812 L 4.44949 0.07454 L 4.43775 0.10896 L 4.42185 0.14106 L 4.40209 0.17053 L 4.37878 0.19708 L 4.35224 0.22038 L 4.32276 0.24014 L 4.29066 0.25604 L 4.25625 0.26778 L 4.21983 0.27506 L 4.18171 0.27755 L 4.14358 0.27506 L 4.10716 0.26778 L 4.07275 0.25604 L 4.04065 0.24014 L 4.01117 0.22038 L 3.98463 0.19708 L 3.96132 0.17053 L 3.94157 0.14106 L 3.92566 0.10896 L 3.91392 0.07454 L 3.90665 0.03812 L 3.90416 0 Z M -3.95967 3.40125 L -3.95967 -3.40125 L 2.84283 0 L -3.95967 3.40125 Z M -2.25738 -0.49958 L -2.25738 0.88815 L 0.25904 0.88815 L 0.25904 0.51809 L -0.72162 0.51809 L -0.72162 -0.86965 L -3.21954 -0.86965 L -3.21954 -0.49958 L -2.25738 -0.49958 Z M -1.09168 0.51809 L -1.88732 0.51809 L -1.88732 -0.49958 L -1.09168 -0.49958 L -1.09168 0.51809 Z" />
</svg>