<svg version="1.1" xmlns="http://www.w3.org/2000/svg" viewBox="-6.551 -5 13.102 10" fill="black" stroke="none"><path fill-rule="evenodd" d="M 4.801 0.185 L 5.551 0.185 L 5.551 -0.185 L 4.801 -0.185 L 4.778 -0.251 L 4.74 -0.326 L 4.694 -0.395 L 4.639 -0.457 L 4.577 -0.512 L 4.508 -0.559 L 4.433 -0.596 L 4.353 -0.624 L 4.269 -0.642 L 4.182 -0.648 L 4.094 -0.642 L 4.01 -0.624 L 3.931 -0.596 L 3.856 -0.559 L 3.787 -0.512 L 3.725 -0.457 L 3.67 -0.395 L 3.623 -0.326 L 3.585 -0.251 L 3.557 -0.171 L 3.54 -0.087 L 3.539 -0.066 L -4.33 -4 L -4.33 -0.185 L -5.551 -0.185 L -5.551 0.185 L -4.33 0.185 L -4.33 4 L 3.539 0.066 L 3.54 0.087 L 3.557 0.171 L 3.585 0.251 L 3.623 0.326 L 3.67 0.395 L 3.725 0.457 L 3.787 0.512 L 3.856 0.559 L 3.931 0.596 L 4.01 0.624 L 4.094 0.642 L 4.182 0.648 L 4.269 0.642 L 4.353 0.624 L 4.433 0.596 L 4.508 0.559 L 4.577 0.512 L 4.639 0.457 L 4.694 0.395 L 4.74 0.326 L 4.778 0.251 L 4.801 0.185 Z M 3.904 0 L 3.907 -0.038 L 3.914 -0.075 L 3.926 -0.109 L 3.942 -0.141 L 3.961 -0.171 L 3.985 -0.197 L 4.011 -0.22 L 4.041 -0.24 L 4.073 -0.256 L 4.107 -0.268 L 4.144 -0.275 L 4.182 -0.278 L 4.22 -0.275 L 4.256 -0.268 L 4.291 -0.256 L 4.323 -0.24 L 4.352 -0.22 L 4.379 -0.197 L 4.402 -0.171 L 4.422 -0.141 L 4.438 -0.109 L 4.449 -0.075 L 4.457 -0.038 L 4.459 0 L 4.457 0.038 L 4.449 0.075 L 4.438 0.109 L 4.422 0.141 L 4.402 0.171 L 4.379 0.197 L 4.352 0.22 L 4.323 0.24 L 4.291 0.256 L 4.256 0.268 L 4.22 0.275 L 4.182 0.278 L 4.144 0.275 L 4.107 0.268 L 4.073 0.256 L 4.041 0.24 L 4.011 0.22 L 3.985 0.197 L 3.961 0.171 L 3.942 0.141 L 3.926 0.109 L 3.914 0.075 L 3.907 0.038 L 3.904 0 Z M -3.96 3.401 L -3.96 -3.401 L 2.843 0 L -3.96 3.401 Z M -2.257 -0.5 L -2.257 0.888 L 0.259 0.888 L 0.259 0.518 L -0.722 0.518 L -0.722 -0.87 L -3.22 -0.87 L -3.22 -0.5 L -2.257 -0.5 Z M -1.092 0.518 L -1.887 0.518 L -1.887 -0.5 L -1.092 -0.5 L -1.092 0.518 Z" /></svg>