<svg version="1.1" xmlns="http://www.w3.org/2000/svg" viewBox="-5.973848514048641 -5.000000933682254 11.947697028097256 10.000001867364508" fill="black" stroke="none">
    <path d="M -0.16578 1.83599 L -0.16578 2.00179 L 0.16581 2.00179 L 0.16581 1.83599 L -0.16578 1.83599 Z" />
    <path d="M -0.16578 1.14303 L -0.16578 1.48783 L 0.16581 1.48783 L 0.16581 1.14303 L -0.16578 1.14303 Z" />
    <path d="M -0.16578 0.4533 L -0.16578 0.7981 L 0.16581 0.7981 L 0.16581 0.4533 L -0.16578 0.4533 Z" />
    <path d="M -0.16578 -0.23643 L -0.16578 0.10837 L 0.16581 0.10837 L 0.16581 -0.23643 L -0.16578 -0.23643 Z" />
    <path d="M -0.16578 -0.92617 L -0.16578 -0.58124 L 0.16581 -0.58124 L 0.16581 -0.92617 L -0.16578 -0.92617 Z" />
    <path d="M -0.16578 -1.6159 L -0.16578 -1.27097 L 0.16581 -1.27097 L 0.16581 -1.6159 L -0.16578 -1.6159 Z" />
    <path d="M -0.16578 -2.12649 L -0.16578 -1.9607 L 0.16581 -1.9607 L 0.16581 -2.12649 L -0.16578 -2.12649 Z" />
    <path fill-rule="evenodd" d="M 3.04071 3.5894 L 4.97385 3.5894 L 4.97385 3.25781 L 3.04343 3.25781 L 3.02133 3.19468 L 2.98755 3.12771 L 2.94571 3.06596 L 2.89652 3.01014 L 2.84069 2.96094 L 2.77894 2.9191 L 2.71197 2.88532 L 2.64051 2.8603 L 2.56526 2.84477 L 2.48693 2.83944 L 2.4086 2.84477 L 2.33335 2.8603 L 2.26189 2.88532 L 2.19493 2.9191 L 2.13318 2.96094 L 2.07735 3.01014 L 2.02816 3.06596 L 1.98631 3.12771 L 1.95253 3.19468 L 1.92752 3.26614 L 1.91199 3.34139 L 1.90665 3.41972 L 1.91199 3.49805 L 1.92752 3.5733 L 1.95253 3.64476 L 1.98631 3.71173 L 2.02816 3.77348 L 2.07735 3.8293 L 2.13318 3.87849 L 2.19493 3.92034 L 2.26189 3.95412 L 2.33335 3.97914 L 2.4086 3.99467 L 2.48693 4 L 2.56526 3.99467 L 2.64051 3.97914 L 2.71197 3.95412 L 2.77894 3.92034 L 2.84069 3.87849 L 2.89652 3.8293 L 2.94571 3.77348 L 2.98755 3.71173 L 3.02133 3.64476 L 3.04071 3.5894 Z M 2.48693 3.17103 L 2.52109 3.17326 L 2.55373 3.17978 L 2.58456 3.1903 L 2.61332 3.20455 L 2.63974 3.22225 L 2.66352 3.24313 L 2.6844 3.26692 L 2.70211 3.29333 L 2.71636 3.32209 L 2.72688 3.35293 L 2.73339 3.38556 L 2.73562 3.41972 L 2.73339 3.45388 L 2.72688 3.48651 L 2.71636 3.51735 L 2.70211 3.54611 L 2.6844 3.57252 L 2.66352 3.59631 L 2.63974 3.61719 L 2.61332 3.63489 L 2.58456 3.64914 L 2.55373 3.65966 L 2.52109 3.66618 L 2.48693 3.66841 L 2.45277 3.66618 L 2.42014 3.65966 L 2.3893 3.64914 L 2.36054 3.63489 L 2.33413 3.61719 L 2.31034 3.59631 L 2.28946 3.57252 L 2.27176 3.54611 L 2.25751 3.51735 L 2.24699 3.48651 L 2.24047 3.45388 L 2.23824 3.41972 L 2.24047 3.38556 L 2.24699 3.35293 L 2.25751 3.32209 L 2.27176 3.29333 L 2.28946 3.26692 L 2.31034 3.24313 L 2.33413 3.22225 L 2.36054 3.20455 L 2.3893 3.1903 L 2.42014 3.17978 L 2.45277 3.17326 L 2.48693 3.17103 Z" />
    <path d="M -4.97385 -3.99993 L -4.97378 -3.99993 L -4.97378 -4 L -4.97385 -4 L -4.97385 -3.99993 Z" />
    <path fill-rule="evenodd" d="M 3.04071 -1.35127 L 4.97385 -1.35127 L 4.97385 -1.68286 L 3.04343 -1.68286 L 3.02133 -1.746 L 2.98755 -1.81296 L 2.94571 -1.87471 L 2.89652 -1.93054 L 2.84069 -1.97973 L 2.77894 -2.02157 L 2.71197 -2.05536 L 2.64051 -2.08037 L 2.56526 -2.0959 L 2.48693 -2.10123 L 2.4086 -2.0959 L 2.33335 -2.08037 L 2.26189 -2.05536 L 2.19493 -2.02157 L 2.13318 -1.97973 L 2.07735 -1.93054 L 2.02816 -1.87471 L 1.98631 -1.81296 L 1.95253 -1.746 L 1.92752 -1.67453 L 1.91199 -1.59928 L 1.90665 -1.52095 L 1.91199 -1.44262 L 1.92752 -1.36737 L 1.95253 -1.29591 L 1.98631 -1.22895 L 2.02816 -1.1672 L 2.07735 -1.11137 L 2.13318 -1.06218 L 2.19493 -1.02033 L 2.26189 -0.98655 L 2.33335 -0.96154 L 2.4086 -0.94601 L 2.48693 -0.94067 L 2.56526 -0.94601 L 2.64051 -0.96154 L 2.71197 -0.98655 L 2.77894 -1.02033 L 2.84069 -1.06218 L 2.89652 -1.11137 L 2.94571 -1.1672 L 2.98755 -1.22895 L 3.02133 -1.29591 L 3.04071 -1.35127 Z M 2.48693 -1.76964 L 2.52109 -1.76741 L 2.55373 -1.7609 L 2.58456 -1.75038 L 2.61332 -1.73613 L 2.63974 -1.71842 L 2.66352 -1.69754 L 2.6844 -1.67376 L 2.70211 -1.64734 L 2.71636 -1.61858 L 2.72688 -1.58775 L 2.73339 -1.55511 L 2.73562 -1.52095 L 2.73339 -1.48679 L 2.72688 -1.45416 L 2.71636 -1.42332 L 2.70211 -1.39456 L 2.6844 -1.36815 L 2.66352 -1.34436 L 2.63974 -1.32348 L 2.61332 -1.30578 L 2.58456 -1.29153 L 2.55373 -1.28101 L 2.52109 -1.27449 L 2.48693 -1.27226 L 2.45277 -1.27449 L 2.42014 -1.28101 L 2.3893 -1.29153 L 2.36054 -1.30578 L 2.33413 -1.32348 L 2.31034 -1.34436 L 2.28946 -1.36815 L 2.27176 -1.39456 L 2.25751 -1.42332 L 2.24699 -1.45416 L 2.24047 -1.48679 L 2.23824 -1.52095 L 2.24047 -1.55511 L 2.24699 -1.58775 L 2.25751 -1.61858 L 2.27176 -1.64734 L 2.28946 -1.67376 L 2.31034 -1.69754 L 2.33413 -1.71842 L 2.36054 -1.73613 L 2.3893 -1.75038 L 2.42014 -1.7609 L 2.45277 -1.76741 L 2.48693 -1.76964 Z" />
    <path d="M -4.97381 -1.69141 L -4.97381 -1.35982 L -2.90138 -1.35982 L -2.90138 -1.69141 L -4.97381 -1.69141 Z" />
    <path d="M -4.97381 3.24926 L -4.97381 3.58085 L -2.90138 3.58085 L -2.90138 3.24926 L -4.97381 3.24926 Z" />
</svg>