<svg version="1.1" xmlns="http://www.w3.org/2000/svg" viewBox="-5.000000941818408 -5.000000941818381 10.000001883636788 10.000001883636788" fill="black" stroke="none">
    <path d="M 2.7299 4 L 2.36044 4 L 1.81819 2.54546 L 2.1603 2.54546 L 2.45819 3.4112 L 2.45957 3.41511 L 2.46109 3.41954 L 2.46276 3.42451 L 2.46457 3.43001 L 2.46651 3.43605 L 2.46859 3.44262 L 2.4708 3.44972 L 2.47314 3.45736 L 2.47561 3.46553 L 2.47821 3.47423 L 2.48094 3.48347 L 2.48379 3.49324 L 2.51928 3.62066 L 2.52224 3.63169 L 2.52501 3.64238 L 2.5276 3.65274 L 2.53001 3.66276 L 2.53225 3.67246 L 2.53433 3.68182 L 2.53625 3.69086 L 2.53803 3.69957 L 2.53965 3.70796 L 2.54114 3.71602 L 2.54249 3.72377 L 2.54371 3.7312 L 2.54482 3.72377 L 2.54608 3.71602 L 2.54751 3.70796 L 2.5491 3.69957 L 2.55084 3.69086 L 2.55273 3.68182 L 2.55477 3.67246 L 2.55695 3.66276 L 2.55926 3.65274 L 2.56171 3.64238 L 2.56428 3.63169 L 2.56699 3.62066 L 2.56976 3.60952 L 2.57256 3.59849 L 2.57538 3.58758 L 2.57821 3.57678 L 2.58107 3.56609 L 2.58393 3.55549 L 2.58681 3.54499 L 2.5897 3.53459 L 2.5926 3.52427 L 2.5955 3.51404 L 2.59841 3.50389 L 2.60131 3.49382 L 2.60414 3.48405 L 2.6068 3.47481 L 2.60931 3.4661 L 2.61166 3.45792 L 2.61386 3.45026 L 2.61593 3.44313 L 2.61787 3.43652 L 2.61967 3.43042 L 2.62136 3.42485 L 2.62293 3.41979 L 2.62439 3.41524 L 2.62575 3.4112 L 2.92829 2.54546 L 2.7299 4 Z" />
    <path d="M -1.52271 2.40001 L -3.2727 2.40001 L -3.2727 2.69091 L -1.38634 2.69091 L 2.25001 -1.67271 L 4 -1.67271 L 4 -1.96361 L -1.52271 2.40001 Z" />
    <path d="M -4 -3.99994 L -3.99994 -3.99994 L -3.99994 -4 L -4 -4 L -4 -3.99994 Z" />
</svg>