<svg version="1.1" xmlns="http://www.w3.org/2000/svg" viewBox="-5.367444136473554 -5.0000009418181826 10.734888272947108 10.000001883636365" fill="black" stroke="none">
    <path fill-rule="evenodd" d="M 2.17801 0.14545 L 2.17801 0.14545 L 2.17802 0.14545 L 2.17803 0.14545 L 2.17804 0.14545 L 2.17806 0.14545 L 2.17807 0.14545 L 2.17808 0.14545 L 2.1781 0.14545 L 2.17811 0.14545 L 2.17812 0.14545 L 2.17813 0.14545 L 2.17813 0.14545 L 4.35983 0.14545 L 4.35983 -0.14545 L 2.17801 -0.14545 L 2.17801 -0.14545 L 2.178 -0.14545 L 2.17799 -0.14545 L 2.17798 -0.14545 L 2.17797 -0.14545 L 2.17795 -0.14545 L 2.17794 -0.14545 L 2.17793 -0.14545 L 2.17791 -0.14545 L 2.1779 -0.14545 L 2.1779 -0.14545 L 2.17789 -0.14545 L 2.17283 -0.14555 L 2.15831 -0.14607 L 2.13522 -0.14734 L 2.10445 -0.1497 L 2.0669 -0.15349 L 2.02344 -0.15903 L 1.97497 -0.16665 L 1.92237 -0.17671 L 1.86653 -0.18952 L 1.80834 -0.20542 L 1.74869 -0.22475 L 1.68846 -0.24784 L 1.62888 -0.27436 L 1.57103 -0.30413 L 1.51558 -0.33773 L 1.46318 -0.37575 L 1.41448 -0.41876 L 1.37015 -0.46736 L 1.33084 -0.52211 L 1.29721 -0.58362 L 1.26991 -0.65245 L 1.24959 -0.72919 L 1.23693 -0.81443 L 1.23256 -0.90875 L 1.23693 -1.00307 L 1.2496 -1.08832 L 1.26992 -1.16508 L 1.29724 -1.23394 L 1.33088 -1.29547 L 1.3702 -1.35026 L 1.41455 -1.39889 L 1.46325 -1.44194 L 1.51567 -1.48 L 1.57113 -1.51364 L 1.62899 -1.54344 L 1.68858 -1.57 L 1.74881 -1.59313 L 1.80846 -1.61249 L 1.86665 -1.62843 L 1.92249 -1.64128 L 1.97509 -1.65137 L 2.02356 -1.65904 L 2.06702 -1.66461 L 2.10457 -1.66842 L 2.13534 -1.6708 L 2.15842 -1.67209 L 2.17294 -1.67262 L 2.17801 -1.67273 L 2.17801 -1.67273 L 2.17802 -1.67273 L 2.17803 -1.67273 L 2.17804 -1.67273 L 2.17806 -1.67273 L 2.17807 -1.67273 L 2.17808 -1.67273 L 2.1781 -1.67273 L 2.17811 -1.67273 L 2.17812 -1.67273 L 2.17813 -1.67273 L 2.17813 -1.67273 L 2.19693 -1.67422 L 2.21537 -1.67814 L 2.23316 -1.68441 L 2.24998 -1.69292 L 2.26556 -1.70354 L 2.27964 -1.71609 L 2.29198 -1.73035 L 2.30236 -1.74609 L 2.31063 -1.76304 L 2.31663 -1.78092 L 2.32027 -1.79942 L 2.32148 -1.81824 L 2.32025 -1.83706 L 2.3166 -1.85556 L 2.31058 -1.87343 L 2.30231 -1.89037 L 2.29191 -1.9061 L 2.27956 -1.92035 L 2.26547 -1.93289 L 2.24988 -1.9435 L 2.23305 -1.952 L 2.21526 -1.95826 L 2.19681 -1.96216 L 2.17801 -1.96364 L 2.17801 -1.96364 L 2.178 -1.96364 L 2.17799 -1.96364 L 2.17798 -1.96364 L 2.17797 -1.96364 L 2.17795 -1.96364 L 2.17794 -1.96364 L 2.17793 -1.96364 L 2.17791 -1.96364 L 2.1779 -1.96364 L 2.1779 -1.96364 L 2.17789 -1.96364 L 2.17283 -1.96374 L 2.15831 -1.96425 L 2.13522 -1.96553 L 2.10445 -1.96789 L 2.0669 -1.97167 L 2.02344 -1.97721 L 1.97497 -1.98484 L 1.92237 -1.99489 L 1.86653 -2.0077 L 1.80834 -2.0236 L 1.74869 -2.04293 L 1.68846 -2.06602 L 1.62888 -2.09254 L 1.57103 -2.12231 L 1.51558 -2.15592 L 1.46318 -2.19393 L 1.41448 -2.23695 L 1.37015 -2.28554 L 1.33084 -2.3403 L 1.29721 -2.4018 L 1.26991 -2.47063 L 1.24959 -2.54738 L 1.23693 -2.63262 L 1.23256 -2.72693 L 1.23693 -2.82125 L 1.2496 -2.9065 L 1.26992 -2.98327 L 1.29724 -3.05212 L 1.33088 -3.11365 L 1.3702 -3.16844 L 1.41455 -3.21707 L 1.46325 -3.26012 L 1.51567 -3.29818 L 1.57113 -3.33182 L 1.62899 -3.36163 L 1.68858 -3.38818 L 1.74881 -3.41131 L 1.80846 -3.43067 L 1.86665 -3.44662 L 1.92249 -3.45947 L 1.97509 -3.46956 L 2.02356 -3.47722 L 2.06702 -3.48279 L 2.10457 -3.4866 L 2.13534 -3.48899 L 2.15842 -3.49028 L 2.17294 -3.49081 L 2.17801 -3.49091 L 4.36744 -3.49091 L 4.36744 -3.78182 L 2.17801 -3.78182 L 2.17801 -3.78182 L 2.178 -3.78182 L 2.178 -3.78182 L 2.17799 -3.78182 L 2.17799 -3.78182 L 2.17798 -3.78182 L 2.17798 -3.78182 L 2.17797 -3.78182 L 2.17797 -3.78182 L 2.17796 -3.78182 L 2.17796 -3.78182 L 2.17795 -3.78182 L 2.17795 -3.78182 L 2.17794 -3.78182 L 2.17794 -3.78182 L 2.17793 -3.78182 L 2.17793 -3.78182 L 2.17792 -3.78182 L 2.17792 -3.78182 L 2.17791 -3.78182 L 2.17791 -3.78182 L 2.1779 -3.78182 L 2.1779 -3.78182 L 2.17789 -3.78182 L 2.1779 -3.78182 L 2.17188 -3.78178 L 2.1545 -3.78137 L 2.12675 -3.78013 L 2.08965 -3.7776 L 2.0442 -3.77334 L 1.9914 -3.76688 L 1.93225 -3.75778 L 1.86777 -3.74558 L 1.79895 -3.72983 L 1.7268 -3.71007 L 1.65233 -3.68584 L 1.57653 -3.6567 L 1.50008 -3.62152 L 1.42378 -3.57934 L 1.34888 -3.52994 L 1.27661 -3.47312 L 1.20821 -3.40869 L 1.14491 -3.33642 L 1.08796 -3.25612 L 1.03859 -3.16759 L 0.99803 -3.0706 L 0.96753 -2.96497 L 0.94832 -2.85048 L 0.94165 -2.72693 L 0.94781 -2.6083 L 0.96556 -2.49818 L 0.99381 -2.39635 L 1.03146 -2.3026 L 1.07741 -2.21672 L 1.13058 -2.1385 L 1.18986 -2.06772 L 1.25417 -2.00418 L 1.3224 -1.94765 L 1.39347 -1.89793 L 1.46627 -1.85481 L 1.53972 -1.81807 L 1.46627 -1.78129 L 1.39346 -1.73813 L 1.32239 -1.68837 L 1.25416 -1.6318 L 1.18985 -1.56821 L 1.13057 -1.49739 L 1.07741 -1.41912 L 1.03145 -1.3332 L 0.9938 -1.23941 L 0.96556 -1.13755 L 0.94781 -1.0274 L 0.94165 -0.90875 L 0.94781 -0.79012 L 0.96556 -0.68 L 0.99381 -0.57817 L 1.03146 -0.48442 L 1.07741 -0.39854 L 1.13058 -0.32032 L 1.18986 -0.24954 L 1.25417 -0.186 L 1.3224 -0.12947 L 1.39347 -0.07975 L 1.46627 -0.03663 L 1.53972 0.00011 L 1.46627 0.03689 L 1.39346 0.08005 L 1.32239 0.12981 L 1.25416 0.18638 L 1.18985 0.24997 L 1.13057 0.32079 L 1.07741 0.39906 L 1.03145 0.48498 L 0.9938 0.57877 L 0.96556 0.68063 L 0.94781 0.79078 L 0.94165 0.90943 L 0.94782 1.02819 L 0.96561 1.13842 L 0.99391 1.24035 L 1.03163 1.33418 L 1.07766 1.42013 L 1.13092 1.49841 L 1.1903 1.56923 L 1.25471 1.6328 L 1.32304 1.68934 L 1.39421 1.73906 L 1.4671 1.78216 L 1.54062 1.81886 L 1.46745 1.85569 L 1.39493 1.89888 L 1.32416 1.94866 L 1.25622 2.00523 L 1.1922 2.0688 L 1.13319 2.13959 L 1.08027 2.2178 L 1.03453 2.30365 L 0.99707 2.39734 L 0.96896 2.4991 L 0.9513 2.60912 L 0.94517 2.72761 L 0.95187 2.85121 L 0.97116 2.96573 L 1.00177 3.07137 L 1.04248 3.16836 L 1.09204 3.25688 L 1.14921 3.33716 L 1.21273 3.40939 L 1.28138 3.47379 L 1.35391 3.53056 L 1.42907 3.5799 L 1.50563 3.62203 L 1.58233 3.65716 L 1.65837 3.68624 L 1.73308 3.71041 L 1.80546 3.73011 L 1.8745 3.74581 L 1.93919 3.75797 L 1.99852 3.76702 L 2.05149 3.77344 L 2.09709 3.77767 L 2.13431 3.78017 L 2.16215 3.78139 L 2.17959 3.78179 L 2.18562 3.78182 L 4.36744 3.78182 L 4.36744 3.49091 L 2.18562 3.49091 L 2.18057 3.49081 L 2.166 3.49029 L 2.14281 3.48902 L 2.1119 3.48666 L 2.07416 3.48287 L 2.03048 3.47732 L 1.98176 3.46969 L 1.92889 3.45962 L 1.87276 3.4468 L 1.81428 3.43088 L 1.75433 3.41153 L 1.69381 3.38841 L 1.63396 3.36187 L 1.57586 3.33208 L 1.52018 3.29847 L 1.46756 3.26045 L 1.41868 3.21743 L 1.37418 3.16884 L 1.33472 3.11409 L 1.30096 3.0526 L 1.27356 2.98379 L 1.25318 2.90708 L 1.24046 2.82188 L 1.23608 2.72761 L 1.24043 2.63325 L 1.25306 2.54796 L 1.27331 2.47117 L 1.30052 2.4023 L 1.33405 2.34075 L 1.37322 2.28595 L 1.4174 2.23732 L 1.46593 2.19427 L 1.51814 2.15622 L 1.5734 2.12259 L 1.63103 2.09279 L 1.6904 2.06625 L 1.7504 2.04314 L 1.80982 2.02379 L 1.86779 2.00786 L 1.92342 1.99503 L 1.97583 1.98495 L 2.02412 1.97729 L 2.06742 1.97173 L 2.10484 1.96793 L 2.13549 1.96555 L 2.15849 1.96427 L 2.17296 1.96374 L 2.17801 1.96364 L 2.17801 1.96364 L 2.17802 1.96364 L 2.17803 1.96364 L 2.17804 1.96364 L 2.17806 1.96364 L 2.17807 1.96364 L 2.17808 1.96364 L 2.1781 1.96364 L 2.17811 1.96364 L 2.17812 1.96364 L 2.17813 1.96364 L 2.17813 1.96364 L 2.19693 1.96214 L 2.21537 1.95823 L 2.23316 1.95196 L 2.24998 1.94344 L 2.26556 1.93282 L 2.27964 1.92027 L 2.29198 1.90601 L 2.30236 1.89027 L 2.31063 1.87332 L 2.31663 1.85545 L 2.32027 1.83694 L 2.32148 1.81812 L 2.32025 1.79931 L 2.3166 1.78081 L 2.31058 1.76294 L 2.30231 1.74599 L 2.29191 1.73026 L 2.27956 1.71601 L 2.26547 1.70347 L 2.24988 1.69286 L 2.23305 1.68436 L 2.21526 1.67811 L 2.19681 1.67421 L 2.17801 1.67273 L 2.17801 1.67273 L 2.178 1.67273 L 2.17799 1.67273 L 2.17798 1.67273 L 2.17797 1.67273 L 2.17795 1.67273 L 2.17794 1.67273 L 2.17793 1.67273 L 2.17791 1.67273 L 2.1779 1.67273 L 2.1779 1.67273 L 2.17789 1.67273 L 2.17283 1.67263 L 2.15831 1.67211 L 2.13522 1.67084 L 2.10445 1.66848 L 2.0669 1.66469 L 2.02344 1.65916 L 1.97497 1.65153 L 1.92237 1.64147 L 1.86653 1.62866 L 1.80834 1.61276 L 1.74869 1.59343 L 1.68846 1.57034 L 1.62888 1.54382 L 1.57103 1.51405 L 1.51558 1.48045 L 1.46318 1.44243 L 1.41448 1.39942 L 1.37015 1.35082 L 1.33084 1.29607 L 1.29721 1.23456 L 1.26991 1.16573 L 1.24959 1.08899 L 1.23693 1.00375 L 1.23256 0.90943 L 1.23693 0.81511 L 1.2496 0.72986 L 1.26992 0.6531 L 1.29724 0.58424 L 1.33088 0.52271 L 1.3702 0.46792 L 1.41455 0.41929 L 1.46325 0.37624 L 1.51567 0.33819 L 1.57113 0.30455 L 1.62899 0.27474 L 1.68858 0.24818 L 1.74881 0.22506 L 1.80846 0.20569 L 1.86665 0.18975 L 1.92249 0.1769 L 1.97509 0.16681 L 2.02356 0.15914 L 2.06702 0.15357 L 2.10457 0.14976 L 2.13534 0.14738 L 2.15842 0.14609 L 2.17294 0.14556 L 2.17801 0.14545 Z M -4.36744 -3.78182 L -4.36744 -3.49091 L -2.18562 -3.49091 L -2.18058 -3.49081 L -2.16602 -3.49029 L -2.14286 -3.48902 L -2.11198 -3.48667 L -2.07428 -3.48288 L -2.03065 -3.47734 L -1.98197 -3.46971 L -1.92915 -3.45965 L -1.87308 -3.44682 L -1.81464 -3.43089 L -1.75474 -3.41154 L -1.69426 -3.38841 L -1.63445 -3.36185 L -1.57638 -3.33204 L -1.52072 -3.29839 L -1.46812 -3.26033 L -1.41925 -3.21726 L -1.37475 -3.16861 L -1.3353 -3.1138 L -1.30154 -3.05225 L -1.27414 -2.98336 L -1.25375 -2.90657 L -1.24103 -2.82129 L -1.23665 -2.72693 L -1.241 -2.63249 L -1.25363 -2.54716 L -1.27387 -2.47034 L -1.30108 -2.40146 L -1.33459 -2.33993 L -1.37375 -2.28516 L -1.41791 -2.23657 L -1.46642 -2.19357 L -1.5186 -2.15558 L -1.57382 -2.12201 L -1.63142 -2.09228 L -1.69074 -2.0658 L -1.75071 -2.04273 L -1.81011 -2.02343 L -1.86806 -2.00756 L -1.92366 -1.99477 L -1.97605 -1.98474 L -2.02432 -1.97714 L -2.06759 -1.97162 L -2.10498 -1.96785 L -2.1356 -1.96551 L -2.15857 -1.96424 L -2.173 -1.96373 L -2.17801 -1.96364 L -2.19681 -1.96216 L -2.21526 -1.95826 L -2.23305 -1.952 L -2.24988 -1.9435 L -2.26547 -1.93289 L -2.27956 -1.92035 L -2.29191 -1.9061 L -2.30231 -1.89037 L -2.31058 -1.87343 L -2.3166 -1.85556 L -2.32025 -1.83706 L -2.32148 -1.81824 L -2.32027 -1.79942 L -2.31663 -1.78092 L -2.31063 -1.76304 L -2.30236 -1.74609 L -2.29198 -1.73035 L -2.27964 -1.71609 L -2.26556 -1.70354 L -2.24998 -1.69292 L -2.23316 -1.68441 L -2.21537 -1.67814 L -2.19693 -1.67422 L -2.17813 -1.67273 L -2.17813 -1.67273 L -2.17812 -1.67273 L -2.17811 -1.67273 L -2.1781 -1.67273 L -2.17808 -1.67273 L -2.17807 -1.67273 L -2.17806 -1.67273 L -2.17804 -1.67273 L -2.17803 -1.67273 L -2.17802 -1.67273 L -2.17801 -1.67273 L -2.17801 -1.67273 L -2.17298 -1.67263 L -2.15849 -1.67211 L -2.13542 -1.67083 L -2.10466 -1.66847 L -2.06711 -1.66468 L -2.02365 -1.65914 L -1.97517 -1.6515 L -1.92255 -1.64143 L -1.8667 -1.62861 L -1.80849 -1.61269 L -1.74882 -1.59334 L -1.68858 -1.57023 L -1.62899 -1.54369 L -1.57114 -1.5139 L -1.51568 -1.48027 L -1.46327 -1.44222 L -1.41456 -1.39916 L -1.37021 -1.35053 L -1.33089 -1.29572 L -1.29724 -1.23416 L -1.26993 -1.16527 L -1.2496 -1.08846 L -1.23693 -1.00315 L -1.23256 -0.90875 L -1.23693 -0.81436 L -1.2496 -0.72906 L -1.26991 -0.65227 L -1.29722 -0.5834 L -1.33085 -0.52187 L -1.37016 -0.46709 L -1.4145 -0.41849 L -1.46319 -0.37547 L -1.51559 -0.33746 L -1.57104 -0.30387 L -1.62888 -0.27412 L -1.68847 -0.24761 L -1.74871 -0.22454 L -1.80838 -0.20522 L -1.8666 -0.18934 L -1.92246 -0.17656 L -1.97509 -0.16653 L -2.02359 -0.15893 L -2.06706 -0.15341 L -2.10463 -0.14965 L -2.1354 -0.14731 L -2.15848 -0.14606 L -2.17298 -0.14555 L -2.17801 -0.14545 L -2.19681 -0.14397 L -2.21526 -0.14007 L -2.23305 -0.13382 L -2.24988 -0.12532 L -2.26547 -0.11471 L -2.27956 -0.10217 L -2.29191 -0.08792 L -2.30231 -0.07219 L -2.31058 -0.05525 L -2.3166 -0.03737 L -2.32025 -0.01887 L -2.32148 -0.00006 L -2.32027 0.01876 L -2.31663 0.03726 L -2.31063 0.05514 L -2.30236 0.07209 L -2.29198 0.08783 L -2.27964 0.10209 L -2.26556 0.11464 L -2.24998 0.12526 L -2.23316 0.13378 L -2.21537 0.14004 L -2.19693 0.14396 L -2.17813 0.14545 L -2.17813 0.14545 L -2.17812 0.14545 L -2.17811 0.14545 L -2.1781 0.14545 L -2.17808 0.14545 L -2.17807 0.14545 L -2.17806 0.14545 L -2.17804 0.14545 L -2.17803 0.14545 L -2.17802 0.14545 L -2.17801 0.14545 L -2.17801 0.14545 L -2.17298 0.14555 L -2.15849 0.14607 L -2.13542 0.14735 L -2.10466 0.14971 L -2.06711 0.1535 L -2.02365 0.15905 L -1.97517 0.16668 L -1.92255 0.17675 L -1.8667 0.18957 L -1.80849 0.20549 L -1.74882 0.22484 L -1.68858 0.24795 L -1.62899 0.27449 L -1.57114 0.30429 L -1.51568 0.33792 L -1.46327 0.37596 L -1.41456 0.41902 L -1.37021 0.46765 L -1.33089 0.52246 L -1.29724 0.58402 L -1.26993 0.65291 L -1.2496 0.72972 L -1.23693 0.81504 L -1.23256 0.90943 L -1.23693 1.00382 L -1.2496 1.08912 L -1.26991 1.16592 L -1.29722 1.23479 L -1.33085 1.29632 L -1.37016 1.35109 L -1.4145 1.39969 L -1.46319 1.44271 L -1.51559 1.48072 L -1.57104 1.51431 L -1.62888 1.54406 L -1.68847 1.57057 L -1.74871 1.59365 L -1.80838 1.61296 L -1.8666 1.62884 L -1.92246 1.64163 L -1.97509 1.65165 L -2.02359 1.65926 L -2.06706 1.66477 L -2.10463 1.66853 L -2.1354 1.67087 L -2.15848 1.67212 L -2.17298 1.67263 L -2.17801 1.67273 L -2.19681 1.67421 L -2.21526 1.67811 L -2.23305 1.68436 L -2.24988 1.69286 L -2.26547 1.70347 L -2.27956 1.71601 L -2.29191 1.73026 L -2.30231 1.74599 L -2.31058 1.76294 L -2.3166 1.78081 L -2.32025 1.79931 L -2.32148 1.81812 L -2.32027 1.83694 L -2.31663 1.85545 L -2.31063 1.87332 L -2.30236 1.89027 L -2.29198 1.90601 L -2.27964 1.92027 L -2.26556 1.93282 L -2.24998 1.94344 L -2.23316 1.95196 L -2.21537 1.95823 L -2.19693 1.96214 L -2.17813 1.96364 L -2.17813 1.96364 L -2.17812 1.96364 L -2.17811 1.96364 L -2.1781 1.96364 L -2.17808 1.96364 L -2.17807 1.96364 L -2.17806 1.96364 L -2.17804 1.96364 L -2.17803 1.96364 L -2.17802 1.96364 L -2.17801 1.96364 L -2.17801 1.96364 L -2.17298 1.96374 L -2.15849 1.96426 L -2.13542 1.96553 L -2.10466 1.96789 L -2.06711 1.97168 L -2.02365 1.97723 L -1.97517 1.98487 L -1.92255 1.99493 L -1.8667 2.00775 L -1.80849 2.02367 L -1.74882 2.04302 L -1.68858 2.06614 L -1.62899 2.09268 L -1.57114 2.12247 L -1.51568 2.1561 L -1.46327 2.19415 L -1.41456 2.2372 L -1.37021 2.28584 L -1.33089 2.34064 L -1.29724 2.4022 L -1.26993 2.4711 L -1.2496 2.54791 L -1.23693 2.63322 L -1.23256 2.72761 L -1.23693 2.82201 L -1.2496 2.90731 L -1.26991 2.9841 L -1.29722 3.05297 L -1.33085 3.1145 L -1.37016 3.16927 L -1.4145 3.21787 L -1.46319 3.26089 L -1.51559 3.2989 L -1.57104 3.33249 L -1.62888 3.36225 L -1.68847 3.38875 L -1.74871 3.41183 L -1.80838 3.43114 L -1.8666 3.44702 L -1.92246 3.45981 L -1.97509 3.46984 L -2.02359 3.47744 L -2.06706 3.48295 L -2.10463 3.48671 L -2.1354 3.48905 L -2.15848 3.49031 L -2.17298 3.49081 L -2.17801 3.49091 L -4.36744 3.49091 L -4.36744 3.78182 L -2.17813 3.78182 L -2.17211 3.78179 L -2.15473 3.7814 L -2.12699 3.78018 L -2.08989 3.7777 L -2.04444 3.77348 L -1.99164 3.76708 L -1.9325 3.75804 L -1.86802 3.7459 L -1.7992 3.73021 L -1.72705 3.71051 L -1.65257 3.68635 L -1.57676 3.65727 L -1.50029 3.62215 L -1.42398 3.58001 L -1.34905 3.53065 L -1.27676 3.47388 L -1.20833 3.40947 L -1.14501 3.33723 L -1.08803 3.25694 L -1.03863 3.1684 L -0.99806 3.07141 L -0.96755 2.96575 L -0.94833 2.85122 L -0.94165 2.72761 L -0.9478 2.60896 L -0.96554 2.49881 L -0.99377 2.39695 L -1.03139 2.30317 L -1.07731 2.21725 L -1.13044 2.13899 L -1.18969 2.06816 L -1.25395 2.00457 L -1.32215 1.948 L -1.39318 1.89824 L -1.46595 1.85508 L -1.53937 1.8183 L -1.46596 1.78155 L -1.39319 1.73842 L -1.32216 1.6887 L -1.25397 1.63217 L -1.1897 1.56862 L -1.13045 1.49785 L -1.07732 1.41963 L -1.03139 1.33375 L -0.99377 1.24 L -0.96554 1.13818 L -0.9478 1.02806 L -0.94165 0.90943 L -0.9478 0.79078 L -0.96554 0.68063 L -0.99377 0.57877 L -1.03139 0.48499 L -1.07731 0.39907 L -1.13044 0.3208 L -1.18969 0.24998 L -1.25395 0.18639 L -1.32215 0.12982 L -1.39318 0.08006 L -1.46595 0.03689 L -1.53937 0.00011 L -1.46596 -0.03663 L -1.39319 -0.07976 L -1.32216 -0.12949 L -1.25397 -0.18601 L -1.1897 -0.24956 L -1.13045 -0.32034 L -1.07732 -0.39856 L -1.03139 -0.48443 L -0.99377 -0.57818 L -0.96554 -0.68 L -0.9478 -0.79012 L -0.94165 -0.90875 L -0.94782 -1.02755 L -0.9656 -1.13782 L -0.9939 -1.23979 L -1.0316 -1.33367 L -1.07763 -1.41966 L -1.13088 -1.49798 L -1.19025 -1.56884 L -1.25464 -1.63245 L -1.32296 -1.68902 L -1.39411 -1.73877 L -1.467 -1.7819 L -1.54051 -1.81864 L -1.4674 -1.85543 L -1.39496 -1.8986 L -1.32426 -1.94834 L -1.2564 -2.00487 L -1.19245 -2.0684 L -1.13351 -2.13914 L -1.08066 -2.21731 L -1.03498 -2.30311 L -0.99757 -2.39676 L -0.9695 -2.49848 L -0.95186 -2.60846 L -0.94574 -2.72693 L -0.95244 -2.85058 L -0.97172 -2.96516 L -1.00232 -3.07086 L -1.04302 -3.1679 L -1.09256 -3.25648 L -1.14971 -3.33681 L -1.21321 -3.40909 L -1.28184 -3.47353 L -1.35434 -3.53034 L -1.42947 -3.57973 L -1.506 -3.62189 L -1.58267 -3.65705 L -1.65867 -3.68615 L -1.73335 -3.71033 L -1.80569 -3.73006 L -1.87469 -3.74577 L -1.93935 -3.75794 L -1.99865 -3.767 L -2.05158 -3.77342 L -2.09715 -3.77766 L -2.13435 -3.78016 L -2.16216 -3.78139 L -2.17959 -3.78179 L -2.18562 -3.78182 L -4.36744 -3.78182 Z M -0.5129 -4 L -0.5129 4 L -0.22199 4 L -0.22199 -4 L -0.5129 -4 Z M 0.21437 -4 L 0.21437 4 L 0.50528 4 L 0.50528 -4 L 0.21437 -4 Z" />
</svg>