<svg version="1.1" xmlns="http://www.w3.org/2000/svg" viewBox="-13.275 -5 26.549 10" fill="black" stroke="none"><path fill-rule="evenodd" d="M -10.229 -3.182 L 10.229 -3.182 L 10.229 -4 L -10.229 -4 L -10.229 -3.182 Z M -12.275 4 L -10.229 4 L -10.202 3.999 L -10.176 3.996 L -10.149 3.992 L -10.123 3.986 L -10.097 3.978 L -10.072 3.969 L -10.048 3.958 L -10.024 3.945 L -10.002 3.931 L -9.98 3.915 L -9.959 3.898 L -9.94 3.88 L -9.921 3.861 L -9.904 3.84 L -9.889 3.818 L -9.875 3.795 L -9.862 3.772 L -9.851 3.747 L -9.842 3.722 L -9.834 3.697 L -9.828 3.671 L -9.823 3.644 L -9.821 3.618 L -9.82 3.591 L -9.82 3.577 L -9.818 3.536 L -9.815 3.47 L -9.808 3.384 L -9.797 3.277 L -9.782 3.155 L -9.76 3.018 L -9.732 2.869 L -9.696 2.711 L -9.651 2.547 L -9.597 2.378 L -9.531 2.208 L -9.457 2.039 L -9.373 1.876 L -9.278 1.719 L -9.171 1.571 L -9.05 1.434 L -8.913 1.308 L -8.759 1.197 L -8.586 1.102 L -8.392 1.025 L -8.176 0.968 L -7.936 0.932 L -7.671 0.92 L -7.405 0.932 L -7.165 0.968 L -6.949 1.025 L -6.755 1.101 L -6.582 1.195 L -6.428 1.306 L -6.291 1.43 L -6.17 1.566 L -6.064 1.713 L -5.969 1.869 L -5.886 2.031 L -5.811 2.198 L -5.746 2.367 L -5.692 2.534 L -5.647 2.697 L -5.611 2.853 L -5.583 3.001 L -5.562 3.137 L -5.546 3.258 L -5.535 3.364 L -5.529 3.45 L -5.525 3.514 L -5.524 3.555 L -5.524 3.569 L -5.524 3.569 L -5.519 3.622 L -5.508 3.674 L -5.491 3.724 L -5.467 3.772 L -5.437 3.815 L -5.402 3.855 L -5.362 3.89 L -5.318 3.919 L -5.27 3.942 L -5.22 3.959 L -5.168 3.97 L -5.115 3.973 L -5.062 3.97 L -5.01 3.959 L -4.959 3.942 L -4.912 3.919 L -4.867 3.89 L -4.827 3.855 L -4.792 3.816 L -4.762 3.772 L -4.738 3.725 L -4.721 3.675 L -4.71 3.623 L -4.705 3.57 L -4.705 3.57 L -4.705 3.57 L -4.705 3.57 L -4.705 3.569 L -4.705 3.555 L -4.704 3.514 L -4.7 3.45 L -4.693 3.363 L -4.683 3.257 L -4.667 3.135 L -4.646 2.999 L -4.617 2.851 L -4.581 2.693 L -4.536 2.53 L -4.482 2.362 L -4.417 2.192 L -4.342 2.025 L -4.259 1.862 L -4.164 1.706 L -4.057 1.559 L -3.936 1.422 L -3.799 1.297 L -3.645 1.186 L -3.472 1.092 L -3.278 1.015 L -3.062 0.958 L -2.822 0.922 L -2.556 0.91 L -2.291 0.922 L -2.051 0.958 L -1.835 1.015 L -1.641 1.092 L -1.468 1.186 L -1.314 1.297 L -1.177 1.422 L -1.056 1.559 L -0.949 1.706 L -0.855 1.862 L -0.771 2.025 L -0.697 2.192 L -0.632 2.362 L -0.577 2.53 L -0.533 2.693 L -0.497 2.85 L -0.468 2.998 L -0.447 3.135 L -0.432 3.257 L -0.421 3.363 L -0.414 3.449 L -0.411 3.514 L -0.409 3.555 L -0.409 3.569 L -0.409 3.569 L -0.409 3.569 L -0.409 3.569 L -0.409 3.569 L -0.405 3.622 L -0.394 3.674 L -0.376 3.724 L -0.353 3.772 L -0.323 3.815 L -0.287 3.855 L -0.247 3.89 L -0.203 3.919 L -0.155 3.942 L -0.105 3.959 L -0.053 3.97 L -0 3.973 L 0.053 3.97 L 0.105 3.959 L 0.155 3.942 L 0.203 3.919 L 0.247 3.89 L 0.287 3.855 L 0.322 3.816 L 0.352 3.772 L 0.376 3.725 L 0.394 3.675 L 0.405 3.623 L 0.409 3.57 L 0.409 3.569 L 0.409 3.555 L 0.411 3.514 L 0.414 3.45 L 0.421 3.363 L 0.432 3.257 L 0.447 3.135 L 0.469 2.999 L 0.497 2.851 L 0.533 2.693 L 0.578 2.53 L 0.632 2.362 L 0.697 2.192 L 0.772 2.025 L 0.856 1.862 L 0.951 1.706 L 1.058 1.559 L 1.179 1.422 L 1.315 1.297 L 1.47 1.186 L 1.643 1.092 L 1.837 1.015 L 2.053 0.958 L 2.293 0.922 L 2.558 0.91 L 2.824 0.922 L 3.064 0.958 L 3.28 1.015 L 3.473 1.092 L 3.646 1.186 L 3.801 1.297 L 3.937 1.422 L 4.058 1.559 L 4.165 1.706 L 4.26 1.862 L 4.343 2.025 L 4.418 2.192 L 4.483 2.362 L 4.537 2.53 L 4.582 2.693 L 4.618 2.85 L 4.646 2.998 L 4.667 3.135 L 4.683 3.257 L 4.694 3.363 L 4.7 3.449 L 4.704 3.514 L 4.705 3.555 L 4.705 3.569 L 4.705 3.569 L 4.705 3.569 L 4.705 3.569 L 4.705 3.569 L 4.705 3.569 L 4.705 3.569 L 4.705 3.569 L 4.709 3.622 L 4.72 3.674 L 4.738 3.724 L 4.762 3.772 L 4.792 3.815 L 4.827 3.855 L 4.867 3.89 L 4.911 3.919 L 4.959 3.942 L 5.009 3.959 L 5.061 3.97 L 5.114 3.973 L 5.167 3.97 L 5.219 3.959 L 5.27 3.942 L 5.317 3.919 L 5.362 3.89 L 5.402 3.855 L 5.437 3.816 L 5.467 3.772 L 5.491 3.725 L 5.508 3.675 L 5.519 3.623 L 5.524 3.57 L 5.524 3.57 L 5.524 3.57 L 5.524 3.57 L 5.524 3.569 L 5.524 3.555 L 5.525 3.514 L 5.529 3.45 L 5.536 3.363 L 5.546 3.257 L 5.562 3.135 L 5.583 2.999 L 5.612 2.851 L 5.648 2.693 L 5.693 2.53 L 5.747 2.362 L 5.812 2.192 L 5.887 2.025 L 5.97 1.862 L 6.065 1.706 L 6.172 1.559 L 6.293 1.422 L 6.43 1.297 L 6.584 1.186 L 6.757 1.092 L 6.951 1.015 L 7.167 0.958 L 7.407 0.922 L 7.673 0.91 L 7.938 0.922 L 8.178 0.958 L 8.394 1.015 L 8.588 1.092 L 8.761 1.186 L 8.915 1.297 L 9.052 1.422 L 9.173 1.559 L 9.28 1.706 L 9.374 1.862 L 9.458 2.025 L 9.532 2.192 L 9.597 2.362 L 9.652 2.53 L 9.696 2.693 L 9.732 2.85 L 9.761 2.998 L 9.782 3.135 L 9.797 3.257 L 9.808 3.363 L 9.815 3.449 L 9.818 3.514 L 9.82 3.555 L 9.82 3.569 L 9.821 3.596 L 9.823 3.623 L 9.828 3.649 L 9.834 3.675 L 9.841 3.701 L 9.851 3.726 L 9.862 3.75 L 9.875 3.774 L 9.889 3.797 L 9.904 3.818 L 9.921 3.839 L 9.94 3.859 L 9.959 3.877 L 9.98 3.894 L 10.002 3.91 L 10.024 3.924 L 10.048 3.936 L 10.072 3.947 L 10.097 3.957 L 10.123 3.965 L 10.149 3.971 L 10.176 3.975 L 10.202 3.978 L 10.229 3.979 L 12.275 3.979 L 12.275 3.16 L 10.606 3.16 L 10.597 3.077 L 10.587 2.99 L 10.574 2.898 L 10.558 2.801 L 10.539 2.7 L 10.517 2.594 L 10.49 2.485 L 10.46 2.371 L 10.425 2.253 L 10.385 2.132 L 10.339 2.007 L 10.288 1.878 L 10.189 1.663 L 10.07 1.448 L 9.932 1.237 L 9.772 1.034 L 9.591 0.842 L 9.387 0.663 L 9.162 0.503 L 8.913 0.364 L 8.64 0.25 L 8.343 0.164 L 8.02 0.11 L 7.673 0.092 L 7.339 0.109 L 7.029 0.159 L 6.743 0.238 L 6.479 0.344 L 6.237 0.473 L 6.017 0.623 L 5.818 0.789 L 5.639 0.97 L 5.48 1.162 L 5.34 1.362 L 5.219 1.566 L 5.115 1.773 L 5.012 1.566 L 4.89 1.362 L 4.751 1.162 L 4.592 0.97 L 4.413 0.789 L 4.214 0.623 L 3.994 0.473 L 3.752 0.344 L 3.488 0.238 L 3.202 0.159 L 2.892 0.109 L 2.558 0.092 L 2.224 0.109 L 1.915 0.159 L 1.628 0.238 L 1.364 0.344 L 1.123 0.473 L 0.903 0.623 L 0.703 0.789 L 0.525 0.97 L 0.365 1.162 L 0.226 1.362 L 0.104 1.566 L 0.001 1.773 L -0.103 1.566 L -0.224 1.362 L -0.364 1.162 L -0.523 0.97 L -0.702 0.789 L -0.901 0.623 L -1.121 0.473 L -1.363 0.344 L -1.626 0.238 L -1.913 0.159 L -2.223 0.109 L -2.556 0.092 L -2.89 0.109 L -3.2 0.159 L -3.487 0.238 L -3.751 0.344 L -3.993 0.474 L -4.213 0.624 L -4.413 0.791 L -4.592 0.972 L -4.751 1.164 L -4.891 1.364 L -5.012 1.569 L -5.115 1.776 L -5.219 1.57 L -5.34 1.366 L -5.48 1.167 L -5.639 0.976 L -5.818 0.796 L -6.017 0.63 L -6.237 0.481 L -6.478 0.353 L -6.742 0.247 L -7.028 0.168 L -7.337 0.119 L -7.671 0.101 L -8.019 0.12 L -8.341 0.175 L -8.638 0.261 L -8.911 0.375 L -9.16 0.515 L -9.386 0.675 L -9.59 0.854 L -9.771 1.047 L -9.931 1.251 L -10.07 1.463 L -10.188 1.678 L -10.287 1.894 L -10.339 2.023 L -10.384 2.149 L -10.425 2.271 L -10.46 2.389 L -10.49 2.504 L -10.516 2.614 L -10.539 2.72 L -10.558 2.821 L -10.573 2.918 L -10.586 3.011 L -10.597 3.099 L -10.606 3.182 L -12.275 3.182 L -12.275 4 Z M -10.229 -1.136 L 10.229 -1.136 L 10.229 -1.954 L -10.229 -1.954 L -10.229 -1.136 Z" /></svg>