<svg version="1.1" xmlns="http://www.w3.org/2000/svg" viewBox="-5.897956438582624 -5.000000934694145 11.795912877165222 10.00000186938829" fill="black" stroke="none">
    <path d="M -0.17103 3.83674 L -0.17103 4 L 0.1555 4 L 0.1555 3.83674 L -0.17103 3.83674 Z" />
    <path d="M -0.17103 3.18368 L -0.17103 3.51021 L 0.1555 3.51021 L 0.1555 3.18368 L -0.17103 3.18368 Z" />
    <path d="M -0.17103 2.53062 L -0.17103 2.85715 L 0.1555 2.85715 L 0.1555 2.53062 L -0.17103 2.53062 Z" />
    <path d="M -0.17103 1.87756 L -0.17103 2.20409 L 0.1555 2.20409 L 0.1555 1.87756 L -0.17103 1.87756 Z" />
    <path d="M -0.17103 1.2245 L -0.17103 1.55103 L 0.1555 1.55103 L 0.1555 1.2245 L -0.17103 1.2245 Z" />
    <path d="M -0.17103 0.57144 L -0.17103 0.89797 L 0.1555 0.89797 L 0.1555 0.57144 L -0.17103 0.57144 Z" />
    <path d="M -4.89796 -3.99993 L -4.89789 -3.99993 L -4.89789 -4 L -4.89796 -4 L -4.89796 -3.99993 Z" />
    <path d="M 2.0352 2.6861 L 1.63266 3.29796 L 1.23012 2.6861 L 1.2245 2.6861 L 1.2245 2.67756 L 1.2245 2.35957 L 4.89796 2.35957 L 4.89796 2.6861 L 2.0352 2.6861 Z" />
    <path fill-rule="evenodd" d="M 0.1555 0.24491 L 3.42857 0.24491 L 3.42857 -0.57141 L 4.89796 -0.57141 L 4.89796 -0.89794 L 3.42857 -0.89794 L 3.42857 -1.71426 L -3.42854 -1.71426 L -3.42854 -1.551 L -3.42854 -0.91031 L -4.89792 -0.91031 L -4.89792 -0.58378 L -3.42854 -0.58378 L -3.42854 0.24491 L -0.17103 0.24491 L -0.17103 0.08165 L 0.1555 0.08165 L 0.1555 0.24491 Z M -3.10201 -1.38773 L 3.10204 -1.38773 L 3.10204 -0.08162 L -3.10201 -0.08162 L -3.10201 -1.38773 Z" />
    <path d="M -4.89792 2.34707 L -4.89792 2.6736 L -3.26528 2.6736 L -3.26528 2.34707 L -4.89792 2.34707 Z" />
</svg>