<svg version="1.1" xmlns="http://www.w3.org/2000/svg" viewBox="-6.1334333663697835 -5.000000931554228 12.266866732739567 10.000001863108471" fill="black" stroke="none">
    <path fill-rule="evenodd" d="M 1.76486 3.09734 L 2.54747 3.18574 L 2.58597 2.84565 L 0.16296 2.57195 L 0.16296 2.41679 L -0.17927 2.41679 L -0.17927 2.53329 L -2.40945 2.28138 L -2.40111 2.24096 L -2.3956 2.16012 L -2.40111 2.07928 L -2.41714 2.00161 L -2.44295 1.92786 L -2.47782 1.85874 L -2.52101 1.79501 L -2.57178 1.73739 L -2.62939 1.68662 L -2.69313 1.64344 L -2.76224 1.60857 L -2.83599 1.58275 L -2.91366 1.56672 L -2.9945 1.56122 L -3.07534 1.56672 L -3.15301 1.58275 L -3.22677 1.60857 L -3.29588 1.64344 L -3.35961 1.68662 L -3.41723 1.73739 L -3.468 1.79501 L -3.51118 1.85874 L -3.54605 1.92786 L -3.56002 1.96775 L -5.13343 1.96775 L -5.13343 2.30998 L -3.57365 2.30998 L -3.57187 2.31863 L -3.54605 2.39238 L -3.51118 2.46149 L -3.468 2.52523 L -3.41723 2.58285 L -3.35961 2.63362 L -3.29588 2.6768 L -3.22677 2.71167 L -3.15301 2.73749 L -3.07534 2.75351 L -2.9945 2.75902 L -2.91366 2.75351 L -2.83599 2.73749 L -2.76224 2.71167 L -2.69313 2.6768 L -2.62939 2.63362 L -2.59656 2.60468 L 1.66486 3.08604 L 1.28872 3.65777 L 1.28336 3.65777 L 1.28336 3.66593 L 1.28336 4 L 5.13343 4 L 5.13343 3.65777 L 2.13357 3.65777 L 1.76486 3.09734 Z M -3.25117 2.16012 L -3.24887 2.12486 L -3.24215 2.09118 L -3.23129 2.05936 L -3.21658 2.02967 L -3.19831 2.00241 L -3.17676 1.97786 L -3.15221 1.95631 L -3.12495 1.93804 L -3.09527 1.92333 L -3.06344 1.91248 L -3.02976 1.90575 L -2.9945 1.90345 L -2.95925 1.90575 L -2.92557 1.91248 L -2.89374 1.92333 L -2.86405 1.93804 L -2.8368 1.95631 L -2.81225 1.97786 L -2.7907 2.00241 L -2.77242 2.02967 L -2.75772 2.05936 L -2.74686 2.09118 L -2.74014 2.12486 L -2.73783 2.16012 L -2.74014 2.19537 L -2.74686 2.22906 L -2.75772 2.26088 L -2.77242 2.29057 L -2.7907 2.31783 L -2.81225 2.34237 L -2.8368 2.36393 L -2.86405 2.3822 L -2.89374 2.39691 L -2.92557 2.40776 L -2.95925 2.41449 L -2.9945 2.41679 L -3.02976 2.41449 L -3.06344 2.40776 L -3.09527 2.39691 L -3.12495 2.3822 L -3.15221 2.36393 L -3.17676 2.34237 L -3.19831 2.31783 L -3.21658 2.29057 L -3.23129 2.26088 L -3.24215 2.22906 L -3.24887 2.19537 L -3.25117 2.16012 Z M -0.17927 2.07804 L 0.16296 2.07804 L 0.16296 1.74263 L -0.17927 1.74263 L -0.17927 2.07804 Z M 2.13304 0.66327 L 1.71114 1.30455 L 1.28925 0.66327 L 1.28336 0.66327 L 1.28336 0.65431 L 1.28336 0.32104 L 5.13343 0.32104 L 5.13343 0.66327 L 2.13304 0.66327 Z M -0.17927 -1.94663 L 0.16296 -1.94663 L 3.5934 -1.94663 L 3.5934 -2.8022 L 5.13343 -2.8022 L 5.13343 -3.14443 L 3.5934 -3.14443 L 3.5934 -4 L -3.5934 -4 L -3.5934 -3.1574 L -5.13343 -3.1574 L -5.13343 -2.81517 L -3.5934 -2.81517 L -3.5934 -1.94663 L -0.17927 -1.94663 Z M -3.25117 -2.28886 L -3.25117 -3.65777 L 3.25117 -3.65777 L 3.25117 -2.28886 L -3.25117 -2.28886 Z M -0.17927 -1.27581 L 0.16296 -1.27581 L 0.16296 -1.61122 L -0.17927 -1.61122 L -0.17927 -1.27581 Z M -0.17927 -0.60512 L 0.16296 -0.60512 L 0.16296 -0.94053 L -0.17927 -0.94053 L -0.17927 -0.60512 Z M -0.17927 0.06571 L 0.16296 0.06571 L 0.16296 -0.26971 L -0.17927 -0.26971 L -0.17927 0.06571 Z M -0.17927 0.73639 L 0.16296 0.73639 L 0.16296 0.40112 L -0.17927 0.40112 L -0.17927 0.73639 Z M -0.17927 1.40722 L 0.16296 1.40722 L 0.16296 1.0718 L -0.17927 1.0718 L -0.17927 1.40722 Z" />
</svg>