<svg version="1.1" xmlns="http://www.w3.org/2000/svg" viewBox="-6.795133783877477 -5.000000922731556 13.590267567754953 10.000001845463126" fill="black" stroke="none">
    <path fill-rule="evenodd" d="M 0.10006 0.10971 L -0.33035 -1.49874 L -0.70357 -1.49874 L -1.55141 1.66746 L -2.39879 -1.501 L -2.76401 -1.52469 L -3.50983 0.28508 L -5.79513 0.28508 L -5.79513 0.67142 L -3.38049 0.67142 L -3.20196 0.5519 L -2.62441 -0.8495 L -1.84723 2.057 L -3.51707 3.72684 L -3.24392 4 L -1.70851 2.46459 L -1.36503 2.46459 L -1.23939 1.99547 L -0.1001 0.85618 M -1.03956 1.24933 L -0.51703 -0.70175 L -0.21543 0.42521" />
    <path d="M -0.21543 0.42521 L -1.03956 1.24933" />
    <path fill-rule="evenodd" d="M -0.1001 0.85618 L 0.33035 2.46459 L 0.70341 2.4649 L 1.55156 -0.6776 L 2.39894 2.4649 L 2.76401 2.48814 L 3.50983 0.6761 L 5.79513 0.6761 L 5.79513 0.28976 L 3.38049 0.28976 L 3.20181 0.40943 L 2.62351 1.81445 L 1.84166 -1.08558 L 3.38049 -2.62441 L 4.20977 -1.79513 L 4.48293 -2.06829 L 2.55122 -4 L 2.27806 -3.72684 L 3.10734 -2.89757 L 1.67953 -1.46976 L 1.36503 -1.46976 L 1.24878 -1.039 L 0.10006 0.10971 M 0.21539 0.54069 L 1.04684 -0.29076 M 1.04684 -0.29076 L 0.51764 1.67018 L 0.21539 0.54069" />
</svg>