<svg version="1.1" xmlns="http://www.w3.org/2000/svg" viewBox="-3.7333342968888896 -5.000000946666668 7.466668593777779 10.000001893333335" fill="black" stroke="none">
    <path fill-rule="evenodd" d="M 2.0308 2.40643 L 1.4 1.93333 L 1.4 0.74896 L 2.72698 0.08219 L 2.72698 -4 L 2.46031 -4 L 2.46031 -2.13333 L -0.12187 -2.13333 L -1.26667 -0.98854 L -1.26667 -1.66667 L -1.53333 -1.66667 L -1.53333 -0.12323 L -2.73333 -0.12323 L -2.73333 0.14344 L -1.53333 0.14344 L -1.53333 1.66667 L -1.26667 1.66667 L -1.26667 0.8824 L -0.83503 1.09821 L -0.53013 1.56 L -0.4064 1.31253 L -0.09813 1.46667 L 1.13333 1.46667 L 1.13333 3 L 1.4 3 L 1.4 2.26667 L 1.85497 2.6079 L 2.06827 3.10667 L 2.2308 2.88977 L 2.46667 3.06667 L 2.46667 4 L 2.73333 4 L 2.73333 2.93333 L 2.39072 2.67637 L 2.54667 2.46827 L 2.0308 2.40643 Z M 1.13333 1.2 L -0.03521 1.2 L -0.28715 1.07403 L -0.17333 0.8464 L -0.68118 0.87701 L -1.26667 0.58427 L -1.26667 -0.61146 L -0.01146 -1.86667 L 2.46031 -1.86667 L 2.46031 -0.08219 L 1.4 0.45042 L 1.4 -0.33333 L 1.13333 -0.33333 L 1.13333 1.2 Z" />
</svg>