<svg version="1.1" xmlns="http://www.w3.org/2000/svg" viewBox="-5.204 -5 10.409 10" fill="black" stroke="none"><path fill-rule="evenodd" d="M 2.574 1.314 L 4.204 1.314 L 4.204 1.034 L 2.576 1.034 L 2.557 0.981 L 2.529 0.924 L 2.494 0.872 L 2.452 0.825 L 2.405 0.783 L 2.353 0.748 L 2.296 0.72 L 2.236 0.698 L 2.173 0.685 L 2.107 0.681 L 2.041 0.685 L 1.977 0.698 L 1.917 0.72 L 1.86 0.748 L 1.808 0.783 L 1.761 0.825 L 1.72 0.872 L 1.684 0.924 L 1.656 0.981 L 1.635 1.041 L 1.622 1.104 L 1.617 1.17 L 1.622 1.236 L 1.635 1.3 L 1.656 1.36 L 1.684 1.417 L 1.72 1.469 L 1.761 1.516 L 1.808 1.557 L 1.86 1.593 L 1.893 1.609 L -1.647 2.284 L -1.656 2.258 L -1.684 2.201 L -1.72 2.149 L -1.761 2.102 L -1.808 2.061 L -1.86 2.025 L -1.917 1.997 L -1.977 1.976 L -2.041 1.963 L -2.107 1.958 L -2.173 1.963 L -2.236 1.976 L -2.296 1.997 L -2.353 2.025 L -2.405 2.061 L -2.452 2.102 L -2.494 2.149 L -2.529 2.201 L -2.557 2.258 L -2.574 2.304 L -4.204 2.304 L -4.204 2.584 L -2.576 2.584 L -2.557 2.637 L -2.529 2.694 L -2.494 2.746 L -2.452 2.793 L -2.405 2.835 L -2.353 2.87 L -2.296 2.898 L -2.236 2.919 L -2.173 2.933 L -2.107 2.937 L -2.041 2.933 L -1.977 2.919 L -1.917 2.898 L -1.86 2.87 L -1.808 2.835 L -1.761 2.793 L -1.72 2.746 L -1.684 2.694 L -1.656 2.637 L -1.635 2.577 L -1.632 2.566 L 2.815 1.718 L 2.762 1.443 L 2.467 1.5 L 2.494 1.469 L 2.529 1.417 L 2.557 1.36 L 2.574 1.314 Z M 1.897 1.17 L 1.899 1.142 L 1.904 1.114 L 1.913 1.088 L 1.925 1.064 L 1.94 1.041 L 1.958 1.021 L 1.978 1.004 L 2 0.989 L 2.024 0.977 L 2.05 0.968 L 2.078 0.962 L 2.107 0.961 L 2.135 0.962 L 2.163 0.968 L 2.189 0.977 L 2.213 0.989 L 2.235 1.004 L 2.256 1.021 L 2.273 1.041 L 2.288 1.064 L 2.3 1.088 L 2.309 1.114 L 2.314 1.142 L 2.316 1.17 L 2.314 1.199 L 2.309 1.227 L 2.3 1.253 L 2.288 1.277 L 2.273 1.299 L 2.256 1.319 L 2.235 1.337 L 2.213 1.352 L 2.189 1.364 L 2.163 1.373 L 2.135 1.378 L 2.107 1.38 L 2.078 1.378 L 2.05 1.373 L 2.024 1.364 L 2 1.352 L 1.978 1.337 L 1.958 1.319 L 1.94 1.299 L 1.925 1.277 L 1.913 1.253 L 1.904 1.227 L 1.899 1.199 L 1.897 1.17 Z M -2.316 2.448 L -2.314 2.419 L -2.309 2.391 L -2.3 2.365 L -2.288 2.341 L -2.273 2.319 L -2.256 2.299 L -2.235 2.281 L -2.213 2.266 L -2.189 2.254 L -2.163 2.245 L -2.135 2.24 L -2.107 2.238 L -2.078 2.24 L -2.05 2.245 L -2.024 2.254 L -2 2.266 L -1.978 2.281 L -1.958 2.299 L -1.94 2.319 L -1.925 2.341 L -1.913 2.365 L -1.904 2.391 L -1.899 2.419 L -1.897 2.448 L -1.899 2.476 L -1.904 2.504 L -1.913 2.53 L -1.925 2.554 L -1.94 2.576 L -1.958 2.597 L -1.978 2.614 L -2 2.629 L -2.024 2.641 L -2.05 2.65 L -2.078 2.655 L -2.107 2.657 L -2.135 2.655 L -2.163 2.65 L -2.189 2.641 L -2.213 2.629 L -2.235 2.614 L -2.256 2.597 L -2.273 2.576 L -2.288 2.554 L -2.3 2.53 L -2.309 2.504 L -2.314 2.476 L -2.316 2.448 Z M -0.149 0.856 L 0.131 0.856 L 0.131 0.558 L -0.149 0.558 L -0.149 0.856 Z M -0.149 1.748 L -0.149 1.888 L 0.131 1.888 L 0.131 1.748 L -0.149 1.748 Z M -0.149 1.452 L 0.131 1.452 L 0.131 1.154 L -0.149 1.154 L -0.149 1.452 Z M -0.149 -2.126 L 0.131 -2.126 L 0.131 -2.266 L -0.149 -2.266 L -0.149 -2.126 Z M 2.574 -3.367 L 4.204 -3.367 L 4.204 -3.647 L 2.576 -3.647 L 2.557 -3.7 L 2.529 -3.757 L 2.494 -3.809 L 2.452 -3.856 L 2.405 -3.897 L 2.353 -3.933 L 2.296 -3.961 L 2.236 -3.982 L 2.173 -3.995 L 2.107 -4 L 2.041 -3.995 L 1.977 -3.982 L 1.917 -3.961 L 1.86 -3.933 L 1.808 -3.897 L 1.761 -3.856 L 1.72 -3.809 L 1.684 -3.757 L 1.656 -3.7 L 1.635 -3.64 L 1.622 -3.577 L 1.617 -3.51 L 1.622 -3.444 L 1.635 -3.381 L 1.656 -3.321 L 1.684 -3.264 L 1.72 -3.212 L 1.761 -3.165 L 1.808 -3.123 L 1.86 -3.088 L 1.877 -3.08 L -1.648 -2.266 L -1.656 -2.288 L -1.684 -2.344 L -1.72 -2.396 L -1.761 -2.443 L -1.808 -2.485 L -1.86 -2.52 L -1.917 -2.549 L -1.977 -2.57 L -2.041 -2.583 L -2.107 -2.587 L -2.173 -2.583 L -2.236 -2.57 L -2.296 -2.549 L -2.353 -2.52 L -2.405 -2.485 L -2.452 -2.443 L -2.494 -2.396 L -2.529 -2.344 L -2.557 -2.288 L -2.574 -2.241 L -4.204 -2.241 L -4.204 -1.961 L -2.576 -1.961 L -2.557 -1.908 L -2.529 -1.852 L -2.494 -1.799 L -2.452 -1.752 L -2.405 -1.711 L -2.353 -1.676 L -2.296 -1.647 L -2.236 -1.626 L -2.173 -1.613 L -2.107 -1.608 L -2.041 -1.613 L -1.977 -1.626 L -1.917 -1.647 L -1.86 -1.676 L -1.808 -1.711 L -1.761 -1.752 L -1.72 -1.799 L -1.684 -1.852 L -1.656 -1.908 L -1.635 -1.968 L -1.632 -1.983 L 2.82 -3.011 L 2.757 -3.283 L 2.502 -3.224 L 2.529 -3.264 L 2.557 -3.321 L 2.574 -3.367 Z M 1.897 -3.51 L 1.899 -3.539 L 1.904 -3.567 L 1.913 -3.593 L 1.925 -3.617 L 1.94 -3.639 L 1.958 -3.659 L 1.978 -3.677 L 2 -3.692 L 2.024 -3.704 L 2.05 -3.713 L 2.078 -3.718 L 2.107 -3.72 L 2.135 -3.718 L 2.163 -3.713 L 2.189 -3.704 L 2.213 -3.692 L 2.235 -3.677 L 2.256 -3.659 L 2.273 -3.639 L 2.288 -3.617 L 2.3 -3.593 L 2.309 -3.567 L 2.314 -3.539 L 2.316 -3.51 L 2.314 -3.482 L 2.309 -3.454 L 2.3 -3.428 L 2.288 -3.404 L 2.273 -3.382 L 2.256 -3.362 L 2.235 -3.344 L 2.213 -3.329 L 2.189 -3.317 L 2.163 -3.308 L 2.135 -3.303 L 2.107 -3.301 L 2.078 -3.303 L 2.05 -3.308 L 2.024 -3.317 L 2 -3.329 L 1.978 -3.344 L 1.958 -3.362 L 1.94 -3.382 L 1.925 -3.404 L 1.913 -3.428 L 1.904 -3.454 L 1.899 -3.482 L 1.897 -3.51 Z M -2.316 -2.098 L -2.314 -2.127 L -2.309 -2.154 L -2.3 -2.18 L -2.288 -2.205 L -2.273 -2.227 L -2.256 -2.247 L -2.235 -2.264 L -2.213 -2.279 L -2.189 -2.291 L -2.163 -2.3 L -2.135 -2.306 L -2.107 -2.308 L -2.078 -2.306 L -2.05 -2.3 L -2.024 -2.291 L -2 -2.279 L -1.978 -2.264 L -1.958 -2.247 L -1.94 -2.227 L -1.925 -2.205 L -1.913 -2.18 L -1.904 -2.154 L -1.899 -2.127 L -1.897 -2.098 L -1.899 -2.069 L -1.904 -2.042 L -1.913 -2.016 L -1.925 -1.991 L -1.94 -1.969 L -1.958 -1.949 L -1.978 -1.931 L -2 -1.916 L -2.024 -1.904 L -2.05 -1.895 L -2.078 -1.89 L -2.107 -1.888 L -2.135 -1.89 L -2.163 -1.895 L -2.189 -1.904 L -2.213 -1.916 L -2.235 -1.931 L -2.256 -1.949 L -2.273 -1.969 L -2.288 -1.991 L -2.3 -2.016 L -2.309 -2.042 L -2.314 -2.069 L -2.316 -2.098 Z M 2.574 -1.027 L 4.204 -1.027 L 4.204 -1.306 L 2.576 -1.306 L 2.557 -1.36 L 2.529 -1.417 L 2.494 -1.469 L 2.452 -1.516 L 2.405 -1.557 L 2.353 -1.593 L 2.296 -1.621 L 2.236 -1.642 L 2.173 -1.655 L 2.107 -1.66 L 2.041 -1.655 L 1.977 -1.642 L 1.917 -1.621 L 1.86 -1.593 L 1.808 -1.557 L 1.761 -1.516 L 1.72 -1.469 L 1.684 -1.417 L 1.656 -1.36 L 1.635 -1.3 L 1.622 -1.236 L 1.617 -1.17 L 1.622 -1.104 L 1.635 -1.041 L 1.656 -0.981 L 1.684 -0.924 L 1.72 -0.872 L 1.761 -0.825 L 1.808 -0.783 L 1.86 -0.748 L 1.917 -0.72 L 1.977 -0.698 L 2.041 -0.685 L 2.107 -0.681 L 2.173 -0.685 L 2.236 -0.698 L 2.296 -0.72 L 2.353 -0.748 L 2.405 -0.783 L 2.452 -0.825 L 2.494 -0.872 L 2.529 -0.924 L 2.557 -0.981 L 2.574 -1.027 Z M 1.897 -1.17 L 1.899 -1.199 L 1.904 -1.227 L 1.913 -1.253 L 1.925 -1.277 L 1.94 -1.299 L 1.958 -1.319 L 1.978 -1.337 L 2 -1.352 L 2.024 -1.364 L 2.05 -1.373 L 2.078 -1.378 L 2.107 -1.38 L 2.135 -1.378 L 2.163 -1.373 L 2.189 -1.364 L 2.213 -1.352 L 2.235 -1.337 L 2.256 -1.319 L 2.273 -1.299 L 2.288 -1.277 L 2.3 -1.253 L 2.309 -1.227 L 2.314 -1.199 L 2.316 -1.17 L 2.314 -1.142 L 2.309 -1.114 L 2.3 -1.088 L 2.288 -1.064 L 2.273 -1.041 L 2.256 -1.021 L 2.235 -1.004 L 2.213 -0.989 L 2.189 -0.977 L 2.163 -0.968 L 2.135 -0.962 L 2.107 -0.961 L 2.078 -0.962 L 2.05 -0.968 L 2.024 -0.977 L 2 -0.989 L 1.978 -1.004 L 1.958 -1.021 L 1.94 -1.041 L 1.925 -1.064 L 1.913 -1.088 L 1.904 -1.114 L 1.899 -1.142 L 1.897 -1.17 Z M -0.149 -1.53 L 0.131 -1.53 L 0.131 -1.828 L -0.149 -1.828 L -0.149 -1.53 Z M -0.149 -0.933 L 0.131 -0.933 L 0.131 -1.231 L -0.149 -1.231 L -0.149 -0.933 Z M -0.149 -0.337 L 0.131 -0.337 L 0.131 -0.635 L -0.149 -0.635 L -0.149 -0.337 Z M -0.149 0.26 L 0.131 0.26 L 0.131 -0.039 L -0.149 -0.039 L -0.149 0.26 Z M 2.574 3.654 L 4.204 3.654 L 4.204 3.374 L 2.576 3.374 L 2.557 3.321 L 2.529 3.264 L 2.494 3.212 L 2.452 3.165 L 2.405 3.123 L 2.353 3.088 L 2.296 3.06 L 2.236 3.039 L 2.173 3.025 L 2.107 3.021 L 2.041 3.025 L 1.977 3.039 L 1.917 3.06 L 1.86 3.088 L 1.808 3.123 L 1.761 3.165 L 1.72 3.212 L 1.684 3.264 L 1.656 3.321 L 1.635 3.381 L 1.622 3.444 L 1.617 3.51 L 1.622 3.577 L 1.635 3.64 L 1.656 3.7 L 1.684 3.757 L 1.72 3.809 L 1.761 3.856 L 1.808 3.897 L 1.86 3.933 L 1.917 3.961 L 1.977 3.982 L 2.041 3.995 L 2.107 4 L 2.173 3.995 L 2.236 3.982 L 2.296 3.961 L 2.353 3.933 L 2.405 3.897 L 2.452 3.856 L 2.494 3.809 L 2.529 3.757 L 2.557 3.7 L 2.574 3.654 Z M 1.897 3.51 L 1.899 3.482 L 1.904 3.454 L 1.913 3.428 L 1.925 3.404 L 1.94 3.382 L 1.958 3.362 L 1.978 3.344 L 2 3.329 L 2.024 3.317 L 2.05 3.308 L 2.078 3.303 L 2.107 3.301 L 2.135 3.303 L 2.163 3.308 L 2.189 3.317 L 2.213 3.329 L 2.235 3.344 L 2.256 3.362 L 2.273 3.382 L 2.288 3.404 L 2.3 3.428 L 2.309 3.454 L 2.314 3.482 L 2.316 3.51 L 2.314 3.539 L 2.309 3.567 L 2.3 3.593 L 2.288 3.617 L 2.273 3.639 L 2.256 3.659 L 2.235 3.677 L 2.213 3.692 L 2.189 3.704 L 2.163 3.713 L 2.135 3.718 L 2.107 3.72 L 2.078 3.718 L 2.05 3.713 L 2.024 3.704 L 2 3.692 L 1.978 3.677 L 1.958 3.659 L 1.94 3.639 L 1.925 3.617 L 1.913 3.593 L 1.904 3.567 L 1.899 3.539 L 1.897 3.51 Z" /></svg>