<svg version="1.1" xmlns="http://www.w3.org/2000/svg" viewBox="-7.486 -5 14.973 10" fill="black" stroke="none"><path fill-rule="evenodd" d="M 3.965 3.465 L 6.486 3.465 L 6.486 3.032 L 3.969 3.032 L 3.94 2.95 L 3.896 2.862 L 3.842 2.782 L 3.777 2.709 L 3.705 2.645 L 3.624 2.59 L 3.537 2.546 L 3.444 2.514 L 3.345 2.493 L 3.243 2.486 L 3.141 2.493 L 3.043 2.514 L 2.95 2.546 L 2.862 2.59 L 2.782 2.645 L 2.709 2.709 L 2.645 2.782 L 2.59 2.862 L 2.546 2.95 L 2.514 3.043 L 2.493 3.141 L 2.486 3.243 L 2.493 3.345 L 2.514 3.444 L 2.546 3.537 L 2.59 3.624 L 2.645 3.705 L 2.709 3.777 L 2.782 3.842 L 2.862 3.896 L 2.95 3.94 L 3.043 3.973 L 3.141 3.993 L 3.243 4 L 3.345 3.993 L 3.444 3.973 L 3.537 3.94 L 3.624 3.896 L 3.705 3.842 L 3.777 3.777 L 3.842 3.705 L 3.896 3.624 L 3.94 3.537 L 3.965 3.465 Z M 2.919 3.243 L 2.922 3.199 L 2.93 3.156 L 2.944 3.116 L 2.963 3.078 L 2.986 3.044 L 3.013 3.013 L 3.044 2.986 L 3.078 2.963 L 3.116 2.944 L 3.156 2.93 L 3.199 2.922 L 3.243 2.919 L 3.288 2.922 L 3.33 2.93 L 3.371 2.944 L 3.408 2.963 L 3.443 2.986 L 3.474 3.013 L 3.501 3.044 L 3.524 3.078 L 3.542 3.116 L 3.556 3.156 L 3.565 3.199 L 3.568 3.243 L 3.565 3.288 L 3.556 3.33 L 3.542 3.371 L 3.524 3.408 L 3.501 3.443 L 3.474 3.474 L 3.443 3.501 L 3.408 3.524 L 3.371 3.542 L 3.33 3.556 L 3.288 3.565 L 3.243 3.568 L 3.199 3.565 L 3.156 3.556 L 3.116 3.542 L 3.078 3.524 L 3.044 3.501 L 3.013 3.474 L 2.986 3.443 L 2.963 3.408 L 2.944 3.371 L 2.93 3.33 L 2.922 3.288 L 2.919 3.243 Z M -2.497 -0.118 L 4.388 -2.237 L 4.261 -2.65 L -2.689 -0.511 L -2.709 -0.534 L -2.782 -0.598 L -2.862 -0.653 L -2.95 -0.697 L -3.043 -0.73 L -3.141 -0.75 L -3.243 -0.757 L -3.345 -0.75 L -3.444 -0.73 L -3.537 -0.697 L -3.624 -0.653 L -3.705 -0.598 L -3.777 -0.534 L -3.842 -0.461 L -3.896 -0.381 L -3.94 -0.293 L -3.965 -0.221 L -6.486 -0.221 L -6.486 0.211 L -3.969 0.211 L -3.94 0.293 L -3.896 0.381 L -3.842 0.461 L -3.777 0.534 L -3.705 0.598 L -3.624 0.653 L -3.537 0.697 L -3.444 0.73 L -3.345 0.75 L -3.243 0.757 L -3.141 0.75 L -3.043 0.73 L -2.95 0.697 L -2.862 0.653 L -2.782 0.598 L -2.709 0.534 L -2.645 0.461 L -2.59 0.381 L -2.546 0.293 L -2.514 0.2 L -2.493 0.102 L -2.486 0 L -2.493 -0.102 L -2.497 -0.118 Z M -3.568 0 L -3.565 -0.045 L -3.556 -0.087 L -3.542 -0.127 L -3.524 -0.165 L -3.501 -0.199 L -3.474 -0.23 L -3.443 -0.258 L -3.408 -0.281 L -3.371 -0.299 L -3.33 -0.313 L -3.288 -0.321 L -3.243 -0.324 L -3.199 -0.321 L -3.156 -0.313 L -3.116 -0.299 L -3.078 -0.281 L -3.044 -0.258 L -3.013 -0.23 L -2.986 -0.199 L -2.963 -0.165 L -2.944 -0.127 L -2.93 -0.087 L -2.922 -0.045 L -2.919 0 L -2.922 0.045 L -2.93 0.087 L -2.944 0.127 L -2.963 0.165 L -2.986 0.199 L -3.013 0.23 L -3.044 0.258 L -3.078 0.281 L -3.116 0.299 L -3.156 0.313 L -3.199 0.321 L -3.243 0.324 L -3.288 0.321 L -3.33 0.313 L -3.371 0.299 L -3.408 0.281 L -3.443 0.258 L -3.474 0.23 L -3.501 0.199 L -3.524 0.165 L -3.542 0.127 L -3.556 0.087 L -3.565 0.045 L -3.568 0 Z M 3.965 -3.022 L 6.486 -3.022 L 6.486 -3.454 L 3.969 -3.454 L 3.94 -3.537 L 3.896 -3.624 L 3.842 -3.705 L 3.777 -3.777 L 3.705 -3.842 L 3.624 -3.896 L 3.537 -3.94 L 3.444 -3.973 L 3.345 -3.993 L 3.243 -4 L 3.141 -3.993 L 3.043 -3.973 L 2.95 -3.94 L 2.862 -3.896 L 2.782 -3.842 L 2.709 -3.777 L 2.645 -3.705 L 2.59 -3.624 L 2.546 -3.537 L 2.514 -3.444 L 2.493 -3.345 L 2.486 -3.243 L 2.493 -3.141 L 2.514 -3.043 L 2.546 -2.95 L 2.59 -2.862 L 2.645 -2.782 L 2.709 -2.709 L 2.782 -2.645 L 2.862 -2.59 L 2.95 -2.546 L 3.043 -2.514 L 3.141 -2.493 L 3.243 -2.486 L 3.345 -2.493 L 3.444 -2.514 L 3.537 -2.546 L 3.624 -2.59 L 3.705 -2.645 L 3.777 -2.709 L 3.842 -2.782 L 3.896 -2.862 L 3.94 -2.95 L 3.965 -3.022 Z M 2.919 -3.243 L 2.922 -3.288 L 2.93 -3.33 L 2.944 -3.371 L 2.963 -3.408 L 2.986 -3.443 L 3.013 -3.474 L 3.044 -3.501 L 3.078 -3.524 L 3.116 -3.542 L 3.156 -3.556 L 3.199 -3.565 L 3.243 -3.568 L 3.288 -3.565 L 3.33 -3.556 L 3.371 -3.542 L 3.408 -3.524 L 3.443 -3.501 L 3.474 -3.474 L 3.501 -3.443 L 3.524 -3.408 L 3.542 -3.371 L 3.556 -3.33 L 3.565 -3.288 L 3.568 -3.243 L 3.565 -3.199 L 3.556 -3.156 L 3.542 -3.116 L 3.524 -3.078 L 3.501 -3.044 L 3.474 -3.013 L 3.443 -2.986 L 3.408 -2.963 L 3.371 -2.944 L 3.33 -2.93 L 3.288 -2.922 L 3.243 -2.919 L 3.199 -2.922 L 3.156 -2.93 L 3.116 -2.944 L 3.078 -2.963 L 3.044 -2.986 L 3.013 -3.013 L 2.986 -3.044 L 2.963 -3.078 L 2.944 -3.116 L 2.93 -3.156 L 2.922 -3.199 L 2.919 -3.243 Z" /></svg>