<svg version="1.1" xmlns="http://www.w3.org/2000/svg" viewBox="-6.138 -5 12.277 10" fill="black" stroke="none"><path fill-rule="evenodd" d="M -3.653 -1.295 L -3.894 -1.053 L -2.904 -0.788 L -3.169 -1.778 L -3.411 -1.537 L -4.589 -2.715 L -4.831 -2.473 L -3.653 -1.295 Z M -2.368 -2.579 L -2.61 -2.338 L -1.62 -2.073 L -1.885 -3.063 L -2.126 -2.822 L -3.305 -4 L -3.547 -3.758 L -2.368 -2.579 Z M 3.157 1.003 L 5.138 1.003 L 5.138 0.66 L 3.157 0.66 L 3.14 0.402 L 3.055 -0.01 L 2.919 -0.401 L 2.736 -0.767 L 2.508 -1.104 L 2.24 -1.409 L 1.935 -1.677 L 1.598 -1.904 L 1.233 -2.088 L 0.842 -2.224 L 0.43 -2.308 L 0 -2.337 L -0.43 -2.308 L -0.842 -2.224 L -1.233 -2.088 L -1.598 -1.904 L -1.935 -1.677 L -2.24 -1.409 L -2.508 -1.104 L -2.736 -0.767 L -2.919 -0.401 L -3.055 -0.01 L -3.14 0.402 L -3.157 0.66 L -5.138 0.66 L -5.138 1.003 L -3.157 1.003 L -3.14 1.261 L -3.055 1.673 L -2.919 2.064 L -2.736 2.43 L -2.508 2.767 L -2.24 3.071 L -1.935 3.339 L -1.598 3.567 L -1.233 3.751 L -0.842 3.887 L -0.43 3.971 L 0 4 L 0.43 3.971 L 0.842 3.887 L 1.233 3.751 L 1.598 3.567 L 1.935 3.339 L 2.24 3.071 L 2.508 2.767 L 2.736 2.43 L 2.919 2.064 L 3.055 1.673 L 3.14 1.261 L 3.157 1.003 Z M 2.815 0.66 L 0.805 0.66 L 0.805 -0.881 L 0.462 -0.881 L 0.462 2.544 L 0.805 2.544 L 0.805 1.003 L 2.815 1.003 L 2.8 1.215 L 2.725 1.583 L 2.604 1.932 L 2.441 2.259 L 2.238 2.559 L 1.999 2.83 L 1.728 3.069 L 1.427 3.272 L 1.101 3.436 L 0.752 3.557 L 0.384 3.632 L 0 3.657 L -0.384 3.632 L -0.752 3.557 L -1.101 3.436 L -1.427 3.272 L -1.728 3.069 L -1.999 2.83 L -2.238 2.559 L -2.441 2.259 L -2.604 1.932 L -2.725 1.583 L -2.8 1.215 L -2.815 1.003 L -0.805 1.003 L -0.805 1.688 L -0.462 1.688 L -0.462 -0.025 L -0.805 -0.025 L -0.805 0.66 L -2.815 0.66 L -2.8 0.447 L -2.725 0.079 L -2.604 -0.27 L -2.441 -0.596 L -2.238 -0.897 L -1.999 -1.168 L -1.728 -1.407 L -1.427 -1.609 L -1.101 -1.773 L -0.752 -1.894 L -0.384 -1.969 L 0 -1.995 L 0.384 -1.969 L 0.752 -1.894 L 1.101 -1.773 L 1.427 -1.609 L 1.728 -1.407 L 1.999 -1.168 L 2.238 -0.897 L 2.441 -0.596 L 2.604 -0.27 L 2.725 0.079 L 2.8 0.447 L 2.815 0.66 Z" /></svg>