<svg version="1.1" xmlns="http://www.w3.org/2000/svg" viewBox="-5.858 -5 11.717 10" fill="black" stroke="none"><path fill-rule="evenodd" d="M -0.162 1.506 L 0.162 1.506 L 0.162 1.182 L -0.162 1.182 L -0.162 1.506 Z M -0.162 0.858 L 0.162 0.858 L 0.162 0.534 L -0.162 0.534 L -0.162 0.858 Z M -0.162 0.211 L 0.162 0.211 L 0.162 -0.113 L -0.162 -0.113 L -0.162 0.211 Z M -0.162 -0.437 L 0.162 -0.437 L 0.162 -0.761 L -0.162 -0.761 L -0.162 -0.437 Z M -0.162 2.154 L 0.162 2.154 L 0.162 1.83 L -0.162 1.83 L -0.162 2.154 Z M 1.782 3.408 L 2.383 3.588 L 2.476 3.278 L 1.782 3.07 L 1.782 2.623 L 1.458 2.623 L 1.458 2.973 L 0.162 2.584 L 0.162 2.478 L -0.162 2.478 L -0.162 2.487 L -1.596 2.057 L -4.858 2.065 L -4.858 2.389 L -1.643 2.381 L 1.458 3.311 L 1.458 4 L 4.858 4 L 4.858 3.676 L 1.782 3.676 L 1.782 3.408 Z M 0.162 -1.247 L 0.972 -1.247 L 0.972 -2.462 L 4.858 -2.462 L 4.858 -2.785 L 0.972 -2.785 L 0.972 -4 L -0.971 -4 L -0.971 -2.785 L -4.858 -2.785 L -4.858 -2.462 L -0.971 -2.462 L -0.971 -1.247 L -0.162 -1.247 L -0.162 -1.085 L 0.162 -1.085 L 0.162 -1.247 Z M -0.648 -1.571 L -0.648 -3.676 L 0.648 -3.676 L 0.648 -1.571 L -0.648 -1.571 Z M 1.62 0.777 L 4.858 0.777 L 4.858 0.453 L 1.62 0.453 L 1.62 0.777 Z" /></svg>