<svg version="1.1" xmlns="http://www.w3.org/2000/svg" viewBox="-6.896 -5 13.792 10" fill="black" stroke="none"><path fill-rule="evenodd" d="M 2.869 -2.661 L 3.423 -2.107 L 3.931 -4 L 2.038 -3.493 L 2.592 -2.939 L 1.393 -1.74 L -4.127 -1.74 L -4.127 -0.266 L -5.896 -0.266 L -5.896 0.127 L -4.127 0.127 L -4.127 1.601 L -1.948 1.601 L -4.069 3.722 L -3.792 4 L -1.393 1.601 L 4.127 1.601 L 4.127 0.127 L 5.896 0.127 L 5.896 -0.266 L 4.127 -0.266 L 4.127 -1.74 L 1.948 -1.74 L 2.869 -2.661 Z M -1 1.208 L 1.555 -1.347 L 3.734 -1.347 L 3.734 1.208 L -1 1.208 Z M -3.734 1.208 L -3.734 -1.347 L 1 -1.347 L -1.555 1.208 L -3.734 1.208 Z" /></svg>