<svg version="1.1" xmlns="http://www.w3.org/2000/svg" viewBox="-15.118 -5 30.235 10" fill="black" stroke="none"><path fill-rule="evenodd" d="M 3.968 0.471 L 14.118 0.471 L 14.118 -0.471 L 3.968 -0.471 L 3.963 -0.542 L 3.857 -1.061 L 3.685 -1.555 L 3.453 -2.016 L 3.165 -2.442 L 2.826 -2.826 L 2.442 -3.165 L 2.016 -3.453 L 1.555 -3.685 L 1.061 -3.857 L 0.542 -3.963 L 0 -4 L -0.542 -3.963 L -1.061 -3.857 L -1.555 -3.685 L -2.016 -3.453 L -2.442 -3.165 L -2.826 -2.826 L -3.165 -2.442 L -3.453 -2.016 L -3.685 -1.555 L -3.857 -1.061 L -3.963 -0.542 L -3.971 -0.435 L -14.118 -0.435 L -14.118 0.506 L -3.966 0.506 L -3.963 0.542 L -3.857 1.061 L -3.685 1.555 L -3.453 2.016 L -3.165 2.442 L -2.826 2.826 L -2.442 3.165 L -2.016 3.453 L -1.555 3.685 L -1.061 3.857 L -0.542 3.963 L 0 4 L 0.542 3.963 L 1.061 3.857 L 1.555 3.685 L 2.016 3.453 L 2.442 3.165 L 2.826 2.826 L 3.165 2.442 L 3.453 2.016 L 3.685 1.555 L 3.857 1.061 L 3.963 0.542 L 3.968 0.471 Z M -3.059 0 L -3.031 -0.416 L -2.95 -0.815 L -2.819 -1.193 L -2.642 -1.546 L -2.423 -1.872 L -2.165 -2.165 L -1.872 -2.423 L -1.546 -2.642 L -1.193 -2.819 L -0.815 -2.95 L -0.416 -3.031 L 0 -3.059 L 0.416 -3.031 L 0.815 -2.95 L 1.193 -2.819 L 1.546 -2.642 L 1.872 -2.423 L 2.165 -2.165 L 2.423 -1.872 L 2.642 -1.546 L 2.819 -1.193 L 2.95 -0.815 L 3.031 -0.416 L 3.059 0 L 3.031 0.416 L 2.95 0.815 L 2.819 1.193 L 2.642 1.546 L 2.423 1.872 L 2.165 2.165 L 1.872 2.423 L 1.546 2.642 L 1.193 2.819 L 0.815 2.95 L 0.416 3.031 L 0 3.059 L -0.416 3.031 L -0.815 2.95 L -1.193 2.819 L -1.546 2.642 L -1.872 2.423 L -2.165 2.165 L -2.423 1.872 L -2.642 1.546 L -2.819 1.193 L -2.95 0.815 L -3.031 0.416 L -3.059 0 Z" /></svg>