<svg version="1.1" xmlns="http://www.w3.org/2000/svg" viewBox="-5.000000946666668 -5.000000946666668 10.000001893333335 10.000001893333335" fill="black" stroke="none">
    <path fill-rule="evenodd" d="M -2.8 0.45094 L -2.8 0.66667 L -2.8 1.2 L -4 1.2 L -4 1.46667 L -2.8 1.46667 L -2.8 2.21573 L -2.8 3.46667 L -0.14823 3.46667 L -0.14823 4 L 0.11844 4 L 0.11844 3.46667 L 2.8 3.46667 L 2.8 1.46667 L 4 1.46667 L 4 1.2 L 2.8 1.2 L 2.8 -1.2 L 4 -1.2 L 4 -1.46667 L 2.8 -1.46667 L 2.8 -3.46667 L 0.14823 -3.46667 L 0.14823 -4 L -0.11844 -4 L -0.11844 -3.46667 L -2.8 -3.46667 L -2.8 -3.33333 L -2.8 -1.46667 L -4 -1.46667 L -4 -1.2 L -2.8 -1.2 L -2.8 0.45094 Z M -2.53333 2.0824 L -1.03521 1.33333 L -2.53333 0.58427 L -2.53333 -3.2 L 2.53333 -3.2 L 2.53333 3.2 L -2.53333 3.2 L -2.53333 2.0824 Z M -2.53333 1.78427 L -2.53333 0.8824 L -1.63146 1.33333 L -2.53333 1.78427 Z" />
    <path d="M 1.5335 1.98228 L 1.53667 1.98159 L 1.5413 1.98039 L 1.54588 1.97902 L 1.55041 1.97748 L 1.55488 1.97578 L 1.55928 1.9739 L 1.56361 1.97187 L 1.56786 1.96968 L 1.57202 1.96733 L 1.5761 1.96482 L 1.58008 1.96217 L 1.58396 1.95937 L 1.58773 1.95643 L 1.59138 1.95335 L 1.59493 1.95013 L 1.59835 1.94679 L 1.60164 1.94332 L 1.6048 1.93973 L 1.49813 1.86293 L 1.5792 1.72107 L 1.67893 1.79147 L 1.68004 1.78556 L 1.68109 1.77964 L 1.6821 1.77371 L 1.68306 1.76778 L 1.68397 1.76184 L 1.68482 1.75589 L 1.68563 1.74993 L 1.68639 1.74396 L 1.6871 1.738 L 1.68776 1.73202 L 1.68837 1.72604 L 1.68893 1.72005 L 1.68944 1.71406 L 1.6899 1.70807 L 1.6903 1.70207 L 1.69066 1.69607 L 1.69097 1.69007 L 1.69123 1.68406 L 1.69144 1.67805 L 1.6916 1.67204 L 1.69171 1.66603 L 1.69177 1.66002 L 1.69178 1.65401 L 1.69173 1.648 L 1.69231 1.63724 L 1.69266 1.62647 L 1.69276 1.6157 L 1.69264 1.60493 L 1.69228 1.59416 L 1.69168 1.5834 L 1.69085 1.57266 L 1.68978 1.56194 L 1.68848 1.55124 L 1.68695 1.54058 L 1.68518 1.52995 L 1.68318 1.51936 L 1.68096 1.50882 L 1.6785 1.49833 L 1.67581 1.4879 L 1.6729 1.47753 L 1.66976 1.46722 L 1.6664 1.45698 L 1.66281 1.44682 L 1.659 1.43675 L 1.65498 1.42675 L 1.65073 1.41685 L 1.64627 1.40704 L 1.6416 1.39733 L 1.63512 1.38504 L 1.62752 1.37341 L 1.61885 1.36255 L 1.6092 1.35255 L 1.59864 1.34351 L 1.58728 1.33551 L 1.57522 1.32861 L 1.56256 1.32288 L 1.54941 1.31837 L 1.5359 1.31512 L 1.52215 1.31316 L 1.50827 1.3125 L 1.49439 1.31316 L 1.48063 1.31512 L 1.46712 1.31837 L 1.45397 1.32288 L 1.44131 1.32861 L 1.42925 1.33551 L 1.41789 1.34351 L 1.40734 1.35255 L 1.39768 1.36255 L 1.38901 1.37341 L 1.38141 1.38504 L 1.37493 1.39733 L 1.37013 1.40698 L 1.36553 1.41673 L 1.36115 1.42659 L 1.35699 1.43653 L 1.35305 1.44656 L 1.34932 1.45668 L 1.34582 1.46688 L 1.34255 1.47715 L 1.3395 1.48749 L 1.33668 1.49789 L 1.33408 1.50835 L 1.33172 1.51887 L 1.32959 1.52944 L 1.32769 1.54005 L 1.32602 1.5507 L 1.32459 1.56139 L 1.32339 1.5721 L 1.32242 1.58284 L 1.3217 1.59359 L 1.32121 1.60436 L 1.32095 1.61514 L 1.32093 1.62592 L 1.32115 1.6367 L 1.3216 1.64747 L 1.32115 1.65837 L 1.32093 1.66927 L 1.32094 1.68018 L 1.3212 1.69109 L 1.32169 1.70199 L 1.32242 1.71287 L 1.32338 1.72374 L 1.32458 1.73458 L 1.32601 1.7454 L 1.32767 1.75618 L 1.32957 1.76692 L 1.33171 1.77762 L 1.33407 1.78827 L 1.33666 1.79887 L 1.33948 1.8094 L 1.34253 1.81988 L 1.34581 1.83028 L 1.34931 1.84062 L 1.35303 1.85087 L 1.35698 1.86104 L 1.35835 1.86436 L 1.35307 1.856 L 1.34507 1.84208 L 1.3374 1.82798 L 1.33008 1.8137 L 1.32311 1.79924 L 1.31648 1.78462 L 1.3102 1.76985 L 1.30429 1.75493 L 1.29873 1.73987 L 1.29354 1.72468 L 1.28871 1.70938 L 1.28426 1.69396 L 1.28017 1.67843 L 1.27646 1.66282 L 1.27313 1.64712 L 1.27017 1.63134 L 1.26759 1.6155 L 1.2654 1.5996 L 1.26359 1.58365 L 1.26216 1.56766 L 1.26112 1.55165 L 1.26046 1.53561 L 1.26019 1.51956 L 1.2603 1.50351 L 1.2608 1.48747 L 1.26011 1.47156 L 1.2598 1.45564 L 1.25987 1.43971 L 1.26032 1.4238 L 1.26114 1.40789 L 1.26235 1.39202 L 1.26394 1.37617 L 1.26591 1.36037 L 1.26825 1.34462 L 1.27097 1.32893 L 1.27406 1.31331 L 1.27752 1.29777 L 1.28136 1.28231 L 1.28556 1.26695 L 1.29013 1.2517 L 1.29506 1.23656 L 1.30035 1.22154 L 1.306 1.20665 L 1.312 1.1919 L 1.31836 1.1773 L 1.32506 1.16285 L 1.3321 1.14857 L 1.33948 1.13446 L 1.3472 1.12053 L 1.36023 1.1011 L 1.37488 1.08286 L 1.39102 1.06592 L 1.40854 1.05042 L 1.42732 1.03646 L 1.44722 1.02416 L 1.46809 1.01359 L 1.48979 1.00484 L 1.51215 0.99796 L 1.53502 0.99302 L 1.55823 0.99004 L 1.5816 0.98904 L 1.60497 0.99004 L 1.62818 0.99302 L 1.65105 0.99796 L 1.67341 1.00484 L 1.69511 1.01359 L 1.71598 1.02416 L 1.73588 1.03646 L 1.75466 1.05042 L 1.77218 1.06592 L 1.78832 1.08286 L 1.80297 1.1011 L 1.816 1.12053 L 1.82365 1.13448 L 1.83096 1.14861 L 1.83794 1.16291 L 1.84457 1.17737 L 1.85085 1.19198 L 1.85678 1.20674 L 1.86236 1.22164 L 1.86759 1.23667 L 1.87245 1.25181 L 1.87695 1.26707 L 1.88108 1.28243 L 1.88485 1.29789 L 1.88825 1.31343 L 1.89127 1.32905 L 1.89392 1.34473 L 1.8962 1.36048 L 1.8981 1.37627 L 1.89962 1.39211 L 1.90077 1.40797 L 1.90153 1.42386 L 1.90192 1.43976 L 1.90193 1.45567 L 1.90155 1.47158 L 1.9008 1.48747 L 1.90035 1.52731 L 1.8991 1.56224 L 1.89722 1.59252 L 1.89485 1.61843 L 1.89217 1.64025 L 1.88933 1.65827 L 1.88649 1.67275 L 1.88381 1.68397 L 1.88145 1.69222 L 1.87957 1.69776 L 1.87832 1.70089 L 1.87787 1.70187 L 1.80533 1.8624 L 1.79965 1.87153 L 1.7936 1.88041 L 1.78717 1.88903 L 1.78038 1.89737 L 1.77325 1.90541 L 1.76579 1.91315 L 1.75801 1.92056 L 1.74992 1.92765 L 1.74154 1.93438 L 1.73288 1.94075 L 1.72396 1.94676 L 1.7148 1.95238 L 1.70541 1.95761 L 1.69581 1.96244 L 1.68601 1.96687 L 1.67603 1.97087 L 1.66589 1.97445 L 1.65562 1.9776 L 1.64521 1.98031 L 1.63471 1.98259 L 1.62411 1.98442 L 1.61345 1.98579 L 1.60274 1.98672 L 1.592 1.9872 L 1.5801 1.98724 L 1.56821 1.98675 L 1.55635 1.98574 L 1.54455 1.98421 L 1.5335 1.98228 Z" />
    <path d="M 1.60603 -0.84492 L 1.6092 -0.84561 L 1.61383 -0.84681 L 1.61842 -0.84818 L 1.62294 -0.84972 L 1.62741 -0.85142 L 1.63181 -0.8533 L 1.63614 -0.85533 L 1.64039 -0.85752 L 1.64456 -0.85987 L 1.64863 -0.86238 L 1.65261 -0.86503 L 1.65649 -0.86783 L 1.66026 -0.87077 L 1.66392 -0.87385 L 1.66746 -0.87707 L 1.67088 -0.88041 L 1.67417 -0.88388 L 1.67733 -0.88747 L 1.57067 -0.96427 L 1.65173 -1.10613 L 1.75147 -1.03573 L 1.75257 -1.04164 L 1.75363 -1.04756 L 1.75463 -1.05349 L 1.75559 -1.05942 L 1.7565 -1.06536 L 1.75736 -1.07131 L 1.75817 -1.07727 L 1.75892 -1.08324 L 1.75963 -1.0892 L 1.76029 -1.09518 L 1.7609 -1.10116 L 1.76146 -1.10715 L 1.76197 -1.11314 L 1.76243 -1.11913 L 1.76284 -1.12513 L 1.7632 -1.13113 L 1.76351 -1.13713 L 1.76377 -1.14314 L 1.76397 -1.14915 L 1.76413 -1.15516 L 1.76424 -1.16117 L 1.7643 -1.16718 L 1.76431 -1.17319 L 1.76427 -1.1792 L 1.76485 -1.18996 L 1.76519 -1.20073 L 1.7653 -1.2115 L 1.76517 -1.22227 L 1.76481 -1.23304 L 1.76421 -1.2438 L 1.76338 -1.25454 L 1.76231 -1.26526 L 1.76101 -1.27596 L 1.75948 -1.28662 L 1.75772 -1.29725 L 1.75572 -1.30784 L 1.75349 -1.31838 L 1.75103 -1.32887 L 1.74835 -1.3393 L 1.74543 -1.34967 L 1.74229 -1.35998 L 1.73893 -1.37022 L 1.73534 -1.38038 L 1.73154 -1.39045 L 1.72751 -1.40045 L 1.72326 -1.41035 L 1.71881 -1.42016 L 1.71413 -1.42987 L 1.70766 -1.44216 L 1.70005 -1.45379 L 1.69138 -1.46465 L 1.68173 -1.47465 L 1.67117 -1.48369 L 1.65982 -1.49169 L 1.64775 -1.49859 L 1.63509 -1.50432 L 1.62195 -1.50883 L 1.60844 -1.51208 L 1.59468 -1.51404 L 1.5808 -1.5147 L 1.56692 -1.51404 L 1.55316 -1.51208 L 1.53965 -1.50883 L 1.52651 -1.50432 L 1.51385 -1.49859 L 1.50178 -1.49169 L 1.49043 -1.48369 L 1.47987 -1.47465 L 1.47022 -1.46465 L 1.46155 -1.45379 L 1.45394 -1.44216 L 1.44747 -1.42987 L 1.44266 -1.42022 L 1.43807 -1.41047 L 1.43369 -1.40061 L 1.42952 -1.39067 L 1.42558 -1.38064 L 1.42186 -1.37052 L 1.41836 -1.36032 L 1.41508 -1.35005 L 1.41203 -1.33971 L 1.40921 -1.32931 L 1.40662 -1.31885 L 1.40425 -1.30833 L 1.40212 -1.29776 L 1.40022 -1.28715 L 1.39855 -1.2765 L 1.39712 -1.26581 L 1.39592 -1.2551 L 1.39496 -1.24436 L 1.39423 -1.23361 L 1.39374 -1.22284 L 1.39348 -1.21206 L 1.39346 -1.20128 L 1.39368 -1.1905 L 1.39413 -1.17973 L 1.39368 -1.16883 L 1.39346 -1.15793 L 1.39348 -1.14702 L 1.39373 -1.13611 L 1.39422 -1.12521 L 1.39495 -1.11433 L 1.39591 -1.10346 L 1.39711 -1.09262 L 1.39854 -1.0818 L 1.40021 -1.07102 L 1.40211 -1.06028 L 1.40424 -1.04958 L 1.4066 -1.03893 L 1.40919 -1.02833 L 1.41202 -1.0178 L 1.41507 -1.00732 L 1.41834 -0.99692 L 1.42184 -0.98658 L 1.42557 -0.97633 L 1.42951 -0.96616 L 1.43088 -0.96284 L 1.4256 -0.9712 L 1.4176 -0.98512 L 1.40994 -0.99922 L 1.40262 -1.0135 L 1.39564 -1.02796 L 1.38901 -1.04258 L 1.38274 -1.05735 L 1.37682 -1.07227 L 1.37127 -1.08733 L 1.36607 -1.10252 L 1.36125 -1.11782 L 1.35679 -1.13324 L 1.3527 -1.14877 L 1.34899 -1.16438 L 1.34566 -1.18008 L 1.3427 -1.19586 L 1.34013 -1.2117 L 1.33793 -1.2276 L 1.33612 -1.24355 L 1.33469 -1.25954 L 1.33365 -1.27555 L 1.33299 -1.29159 L 1.33272 -1.30764 L 1.33283 -1.32369 L 1.33333 -1.33973 L 1.33264 -1.35564 L 1.33233 -1.37156 L 1.3324 -1.38749 L 1.33285 -1.4034 L 1.33368 -1.41931 L 1.33489 -1.43518 L 1.33647 -1.45103 L 1.33844 -1.46683 L 1.34078 -1.48258 L 1.3435 -1.49827 L 1.34659 -1.51389 L 1.35006 -1.52943 L 1.35389 -1.54489 L 1.35809 -1.56025 L 1.36266 -1.5755 L 1.36759 -1.59064 L 1.37289 -1.60566 L 1.37853 -1.62055 L 1.38454 -1.6353 L 1.39089 -1.6499 L 1.39759 -1.66435 L 1.40463 -1.67863 L 1.41202 -1.69274 L 1.41973 -1.70667 L 1.43277 -1.7261 L 1.44741 -1.74434 L 1.46355 -1.76128 L 1.48107 -1.77678 L 1.49985 -1.79074 L 1.51975 -1.80304 L 1.54063 -1.81361 L 1.56232 -1.82236 L 1.58469 -1.82924 L 1.60755 -1.83418 L 1.63076 -1.83716 L 1.65413 -1.83816 L 1.67751 -1.83716 L 1.70071 -1.83418 L 1.72358 -1.82924 L 1.74594 -1.82236 L 1.76764 -1.81361 L 1.78852 -1.80304 L 1.80841 -1.79074 L 1.82719 -1.77678 L 1.84472 -1.76128 L 1.86086 -1.74434 L 1.8755 -1.7261 L 1.88853 -1.70667 L 1.89618 -1.69272 L 1.90349 -1.67859 L 1.91047 -1.66429 L 1.9171 -1.64983 L 1.92338 -1.63522 L 1.92932 -1.62046 L 1.9349 -1.60556 L 1.94012 -1.59053 L 1.94498 -1.57539 L 1.94948 -1.56013 L 1.95362 -1.54477 L 1.95738 -1.52931 L 1.96078 -1.51377 L 1.9638 -1.49815 L 1.96646 -1.48247 L 1.96873 -1.46672 L 1.97063 -1.45093 L 1.97216 -1.43509 L 1.9733 -1.41923 L 1.97407 -1.40334 L 1.97445 -1.38744 L 1.97446 -1.37153 L 1.97409 -1.35562 L 1.97333 -1.33973 L 1.97288 -1.29989 L 1.97163 -1.26496 L 1.96975 -1.23468 L 1.96739 -1.20877 L 1.96471 -1.18695 L 1.96187 -1.16893 L 1.95903 -1.15445 L 1.95635 -1.14323 L 1.95398 -1.13498 L 1.9521 -1.12944 L 1.95085 -1.12631 L 1.9504 -1.12533 L 1.87787 -0.9648 L 1.87219 -0.95567 L 1.86613 -0.94679 L 1.8597 -0.93817 L 1.85292 -0.92983 L 1.84579 -0.92179 L 1.83832 -0.91405 L 1.83054 -0.90664 L 1.82245 -0.89955 L 1.81407 -0.89282 L 1.80542 -0.88645 L 1.7965 -0.88044 L 1.78734 -0.87482 L 1.77794 -0.86959 L 1.76834 -0.86476 L 1.75854 -0.86033 L 1.74856 -0.85633 L 1.73843 -0.85275 L 1.72815 -0.8496 L 1.71775 -0.84689 L 1.70724 -0.84461 L 1.69665 -0.84278 L 1.68598 -0.84141 L 1.67527 -0.84048 L 1.66453 -0.84 L 1.65263 -0.83996 L 1.64074 -0.84045 L 1.62889 -0.84146 L 1.61708 -0.84299 L 1.60603 -0.84492 Z" />
    <path d="M 1.17333 0.36 L 1.17333 0.62667 L 2.17333 0.62667 L 2.17333 0.36 L 1.17333 0.36 Z" />
    <path fill-rule="evenodd" d="M -2 -1.82453 L -1.70667 -1.82453 L -1.70028 -1.82476 L -1.6939 -1.82491 L -1.68751 -1.82496 L -1.68112 -1.82493 L -1.67473 -1.82481 L -1.66835 -1.8246 L -1.66197 -1.8243 L -1.65559 -1.82392 L -1.64922 -1.82344 L -1.64286 -1.82288 L -1.6365 -1.82223 L -1.63016 -1.82149 L -1.62382 -1.82067 L -1.6175 -1.81975 L -1.61119 -1.81875 L -1.6049 -1.81767 L -1.59862 -1.81649 L -1.59235 -1.81523 L -1.58611 -1.81389 L -1.57989 -1.81245 L -1.57368 -1.81094 L -1.5675 -1.80933 L -1.56134 -1.80764 L -1.5552 -1.80587 L -1.54928 -1.80355 L -1.54343 -1.8011 L -1.53763 -1.7985 L -1.53189 -1.79577 L -1.52622 -1.7929 L -1.52062 -1.7899 L -1.5151 -1.78676 L -1.50965 -1.7835 L -1.50428 -1.7801 L -1.49899 -1.77658 L -1.49379 -1.77294 L -1.48868 -1.76917 L -1.48365 -1.76528 L -1.47872 -1.76127 L -1.47389 -1.75715 L -1.46916 -1.75291 L -1.46453 -1.74856 L -1.46001 -1.7441 L -1.45559 -1.73953 L -1.45128 -1.73486 L -1.44709 -1.73009 L -1.44301 -1.72522 L -1.43904 -1.72026 L -1.4352 -1.7152 L -1.43083 -1.7092 L -1.42656 -1.70313 L -1.42239 -1.69699 L -1.41832 -1.69078 L -1.41436 -1.6845 L -1.41049 -1.67817 L -1.40673 -1.67177 L -1.40307 -1.66531 L -1.39952 -1.65879 L -1.39607 -1.65222 L -1.39273 -1.64559 L -1.3895 -1.63891 L -1.38638 -1.63217 L -1.38337 -1.62539 L -1.38047 -1.61855 L -1.37768 -1.61168 L -1.37501 -1.60475 L -1.37244 -1.59779 L -1.36999 -1.59078 L -1.36766 -1.58373 L -1.36544 -1.57665 L -1.36333 -1.56953 L -1.36134 -1.56238 L -1.35947 -1.5552 L -1.35715 -1.54572 L -1.35493 -1.53622 L -1.35282 -1.5267 L -1.35082 -1.51715 L -1.34892 -1.50758 L -1.34713 -1.49799 L -1.34545 -1.48837 L -1.34387 -1.47875 L -1.3424 -1.4691 L -1.34104 -1.45944 L -1.33978 -1.44976 L -1.33864 -1.44007 L -1.3376 -1.43037 L -1.33667 -1.42066 L -1.33585 -1.41094 L -1.33514 -1.40121 L -1.33453 -1.39147 L -1.33403 -1.38173 L -1.33365 -1.37198 L -1.33337 -1.36222 L -1.33319 -1.35247 L -1.33313 -1.34271 L -1.33318 -1.33296 L -1.33333 -1.3232 L -1.33321 -1.31438 L -1.33319 -1.30556 L -1.33327 -1.29674 L -1.33345 -1.28792 L -1.33373 -1.27911 L -1.33411 -1.2703 L -1.33459 -1.26149 L -1.33517 -1.25269 L -1.33585 -1.24389 L -1.33662 -1.23511 L -1.3375 -1.22633 L -1.33848 -1.21757 L -1.33955 -1.20881 L -1.34073 -1.20007 L -1.342 -1.19134 L -1.34337 -1.18263 L -1.34484 -1.17393 L -1.34641 -1.16525 L -1.34807 -1.15659 L -1.34984 -1.14795 L -1.3517 -1.13933 L -1.35366 -1.13073 L -1.35571 -1.12215 L -1.35787 -1.1136 L -1.35978 -1.10574 L -1.36184 -1.09791 L -1.36403 -1.09013 L -1.36636 -1.08238 L -1.36882 -1.07467 L -1.37142 -1.06701 L -1.37415 -1.05939 L -1.37701 -1.05182 L -1.38 -1.0443 L -1.38313 -1.03684 L -1.38638 -1.02943 L -1.38977 -1.02208 L -1.39328 -1.01479 L -1.39691 -1.00757 L -1.40068 -1.0004 L -1.40457 -0.99331 L -1.40858 -0.98628 L -1.41271 -0.97932 L -1.41696 -0.97244 L -1.42134 -0.96563 L -1.42583 -0.9589 L -1.43044 -0.95225 L -1.43516 -0.94569 L -1.44 -0.9392 L -1.44383 -0.93486 L -1.44776 -0.93059 L -1.45177 -0.92641 L -1.45587 -0.92232 L -1.46005 -0.91831 L -1.46432 -0.91439 L -1.46867 -0.91056 L -1.4731 -0.90682 L -1.4776 -0.90318 L -1.48218 -0.89964 L -1.48684 -0.89619 L -1.49156 -0.89283 L -1.49636 -0.88958 L -1.50122 -0.88643 L -1.50615 -0.88339 L -1.51114 -0.88044 L -1.51619 -0.87761 L -1.5213 -0.87488 L -1.52647 -0.87225 L -1.53169 -0.86974 L -1.53696 -0.86734 L -1.54229 -0.86505 L -1.54765 -0.86287 L -1.55307 -0.8608 L -1.55877 -0.85891 L -1.5645 -0.85711 L -1.57026 -0.8554 L -1.57604 -0.85377 L -1.58185 -0.85223 L -1.58768 -0.85078 L -1.59353 -0.84942 L -1.5994 -0.84814 L -1.60529 -0.84696 L -1.61119 -0.84586 L -1.61712 -0.84486 L -1.62305 -0.84394 L -1.629 -0.84311 L -1.63496 -0.84238 L -1.64094 -0.84173 L -1.64692 -0.84117 L -1.65291 -0.84071 L -1.6589 -0.84034 L -1.6649 -0.84005 L -1.67091 -0.83986 L -1.67691 -0.83976 L -1.68292 -0.83975 L -1.68893 -0.83983 L -1.69493 -0.84 L -2 -0.84 L -2 -1.82453 Z M -1.84 -1.65813 L -1.84 -1.00587 L -1.72 -1.00587 L -1.71591 -1.00563 L -1.71183 -1.00543 L -1.70774 -1.00529 L -1.70365 -1.00519 L -1.69956 -1.00515 L -1.69546 -1.00515 L -1.69137 -1.00519 L -1.68728 -1.00529 L -1.68319 -1.00543 L -1.6791 -1.00563 L -1.67502 -1.00587 L -1.67094 -1.00615 L -1.66686 -1.00649 L -1.66278 -1.00687 L -1.65871 -1.00731 L -1.65465 -1.00779 L -1.65059 -1.00831 L -1.64654 -1.00889 L -1.6425 -1.00951 L -1.63846 -1.01018 L -1.63443 -1.0109 L -1.63041 -1.01166 L -1.6264 -1.01247 L -1.6224 -1.01333 L -1.6193 -1.01426 L -1.61623 -1.01526 L -1.61319 -1.01634 L -1.61016 -1.01749 L -1.60717 -1.01871 L -1.60421 -1.02 L -1.60128 -1.02136 L -1.59838 -1.02279 L -1.59552 -1.02429 L -1.5927 -1.02586 L -1.58991 -1.0275 L -1.58716 -1.0292 L -1.58446 -1.03097 L -1.5818 -1.0328 L -1.57918 -1.03469 L -1.57661 -1.03665 L -1.57408 -1.03867 L -1.57161 -1.04074 L -1.56918 -1.04288 L -1.56681 -1.04508 L -1.56449 -1.04733 L -1.56223 -1.04963 L -1.56002 -1.05199 L -1.55787 -1.0544 L -1.55522 -1.05788 L -1.55265 -1.06141 L -1.55015 -1.065 L -1.54772 -1.06863 L -1.54536 -1.07231 L -1.54308 -1.07604 L -1.54088 -1.07981 L -1.53875 -1.08363 L -1.5367 -1.08749 L -1.53473 -1.09139 L -1.53284 -1.09533 L -1.53102 -1.0993 L -1.52929 -1.10332 L -1.52764 -1.10736 L -1.52607 -1.11144 L -1.52458 -1.11555 L -1.52318 -1.11969 L -1.52186 -1.12385 L -1.52063 -1.12805 L -1.51948 -1.13226 L -1.51841 -1.1365 L -1.51743 -1.14076 L -1.51654 -1.14504 L -1.51573 -1.14933 L -1.51416 -1.15689 L -1.51265 -1.16446 L -1.51123 -1.17204 L -1.50988 -1.17964 L -1.50861 -1.18725 L -1.50742 -1.19487 L -1.5063 -1.20251 L -1.50526 -1.21015 L -1.5043 -1.21781 L -1.50342 -1.22548 L -1.50261 -1.23315 L -1.50188 -1.24083 L -1.50123 -1.24852 L -1.50065 -1.25622 L -1.50016 -1.26392 L -1.49974 -1.27162 L -1.4994 -1.27933 L -1.49914 -1.28704 L -1.49895 -1.29476 L -1.49885 -1.30247 L -1.49882 -1.31019 L -1.49887 -1.3179 L -1.49899 -1.32562 L -1.4992 -1.33333 L -1.49901 -1.34069 L -1.49889 -1.34806 L -1.49885 -1.35542 L -1.49889 -1.36278 L -1.499 -1.37014 L -1.49919 -1.3775 L -1.49946 -1.38486 L -1.49981 -1.39222 L -1.50023 -1.39957 L -1.50073 -1.40691 L -1.5013 -1.41425 L -1.50195 -1.42159 L -1.50268 -1.42891 L -1.50349 -1.43623 L -1.50437 -1.44354 L -1.50533 -1.45084 L -1.50636 -1.45813 L -1.50748 -1.46541 L -1.50866 -1.47268 L -1.50993 -1.47993 L -1.51126 -1.48717 L -1.51268 -1.4944 L -1.51417 -1.50161 L -1.51573 -1.5088 L -1.51681 -1.51294 L -1.51797 -1.51706 L -1.5192 -1.52115 L -1.5205 -1.52522 L -1.52187 -1.52927 L -1.52332 -1.5333 L -1.52484 -1.5373 L -1.52642 -1.54127 L -1.52808 -1.54521 L -1.52982 -1.54912 L -1.53162 -1.553 L -1.53348 -1.55684 L -1.53542 -1.56066 L -1.53743 -1.56443 L -1.5395 -1.56817 L -1.54164 -1.57188 L -1.54385 -1.57554 L -1.54612 -1.57916 L -1.54845 -1.58275 L -1.55085 -1.58629 L -1.55331 -1.58978 L -1.55584 -1.59323 L -1.55842 -1.59664 L -1.56107 -1.6 L -1.56351 -1.6028 L -1.56603 -1.60554 L -1.56862 -1.60822 L -1.57128 -1.61083 L -1.574 -1.61336 L -1.57679 -1.61583 L -1.57964 -1.61822 L -1.58255 -1.62054 L -1.58553 -1.62278 L -1.58855 -1.62495 L -1.59164 -1.62703 L -1.59477 -1.62904 L -1.59796 -1.63096 L -1.60119 -1.6328 L -1.60448 -1.63456 L -1.6078 -1.63623 L -1.61117 -1.63781 L -1.61458 -1.63931 L -1.61802 -1.64072 L -1.6215 -1.64204 L -1.62502 -1.64327 L -1.62856 -1.6444 L -1.63214 -1.64545 L -1.63573 -1.6464 L -1.64116 -1.6474 L -1.64659 -1.64835 L -1.65203 -1.64925 L -1.65748 -1.6501 L -1.66294 -1.65089 L -1.66841 -1.65163 L -1.67388 -1.65232 L -1.67936 -1.65296 L -1.68484 -1.65354 L -1.69033 -1.65407 L -1.69583 -1.65455 L -1.70132 -1.65498 L -1.70683 -1.65536 L -1.71233 -1.65568 L -1.71784 -1.65595 L -1.72335 -1.65616 L -1.72887 -1.65633 L -1.73438 -1.65644 L -1.7399 -1.6565 L -1.74541 -1.6565 L -1.75093 -1.65646 L -1.75644 -1.65636 L -1.76195 -1.6562 L -1.76747 -1.656 L -1.84 -1.65813 Z" />
    <path d="M -0.19253 -2.01653 L -0.19185 -2.01008 L -0.19099 -2.00365 L -0.18996 -1.99724 L -0.18876 -1.99087 L -0.18739 -1.98453 L -0.18585 -1.97822 L -0.18415 -1.97196 L -0.18228 -1.96575 L -0.18024 -1.95959 L -0.17805 -1.95348 L -0.17569 -1.94744 L -0.17317 -1.94146 L -0.17049 -1.93555 L -0.16765 -1.92971 L -0.16466 -1.92395 L -0.16152 -1.91828 L -0.15823 -1.91269 L -0.15479 -1.90718 L -0.15121 -1.90178 L -0.14748 -1.89646 L -0.14361 -1.89125 L -0.13961 -1.88615 L -0.13547 -1.88115 L -0.1312 -1.87627 L -0.12695 -1.87251 L -0.12258 -1.8689 L -0.11809 -1.86544 L -0.11349 -1.86212 L -0.10878 -1.85896 L -0.10397 -1.85595 L -0.09906 -1.85311 L -0.09407 -1.85042 L -0.08899 -1.84791 L -0.08382 -1.84556 L -0.07859 -1.84338 L -0.07328 -1.84138 L -0.06791 -1.83955 L -0.06249 -1.8379 L -0.05701 -1.83643 L -0.05149 -1.83514 L -0.04593 -1.83403 L -0.04033 -1.83311 L -0.03471 -1.83237 L -0.02907 -1.83182 L -0.02341 -1.83145 L -0.01774 -1.83127 L -0.01207 -1.83127 L -0.0064 -1.83147 L -0.00079 -1.83114 L 0.00482 -1.83099 L 0.01044 -1.83102 L 0.01606 -1.83124 L 0.02166 -1.83163 L 0.02725 -1.83219 L 0.03282 -1.83294 L 0.03836 -1.83387 L 0.04387 -1.83497 L 0.04934 -1.83624 L 0.05477 -1.83769 L 0.06014 -1.83932 L 0.06547 -1.84111 L 0.07073 -1.84307 L 0.07593 -1.8452 L 0.08106 -1.84749 L 0.08611 -1.84995 L 0.09108 -1.85257 L 0.09597 -1.85534 L 0.10076 -1.85827 L 0.10546 -1.86135 L 0.11006 -1.86458 L 0.11455 -1.86795 L 0.11893 -1.87147 L 0.12214 -1.87445 L 0.12524 -1.87754 L 0.12823 -1.88075 L 0.1311 -1.88405 L 0.13385 -1.88746 L 0.13648 -1.89096 L 0.13899 -1.89455 L 0.14136 -1.89823 L 0.14361 -1.90198 L 0.14572 -1.90582 L 0.14769 -1.90973 L 0.14953 -1.91371 L 0.15122 -1.91774 L 0.15277 -1.92184 L 0.15417 -1.92599 L 0.15543 -1.93018 L 0.15653 -1.93442 L 0.15749 -1.9387 L 0.15829 -1.943 L 0.15894 -1.94733 L 0.15944 -1.95168 L 0.15978 -1.95605 L 0.15997 -1.96042 L 0.16 -1.9648 L 0.16004 -1.96738 L 0.16001 -1.96995 L 0.15992 -1.97252 L 0.15975 -1.97509 L 0.15952 -1.97766 L 0.15921 -1.98022 L 0.15884 -1.98276 L 0.15839 -1.9853 L 0.15788 -1.98783 L 0.15731 -1.99034 L 0.15666 -1.99283 L 0.15595 -1.9953 L 0.15517 -1.99776 L 0.15432 -2.00019 L 0.15341 -2.0026 L 0.15244 -2.00498 L 0.1514 -2.00734 L 0.15029 -2.00967 L 0.14913 -2.01196 L 0.1479 -2.01423 L 0.14662 -2.01646 L 0.14527 -2.01866 L 0.14386 -2.02081 L 0.1424 -2.02293 L 0.14032 -2.0253 L 0.13818 -2.02763 L 0.136 -2.0299 L 0.13377 -2.03213 L 0.13148 -2.03431 L 0.12915 -2.03644 L 0.12678 -2.03851 L 0.12436 -2.04054 L 0.12189 -2.04251 L 0.11939 -2.04443 L 0.11684 -2.04629 L 0.11425 -2.04809 L 0.11163 -2.04984 L 0.10896 -2.05153 L 0.10626 -2.05316 L 0.10352 -2.05473 L 0.10075 -2.05624 L 0.09795 -2.05769 L 0.09512 -2.05908 L 0.09226 -2.0604 L 0.08936 -2.06166 L 0.08645 -2.06286 L 0.0835 -2.064 L 0.08053 -2.06507 L 0.07493 -2.06708 L 0.06826 -2.06937 L 0.06052 -2.07195 L 0.05171 -2.0748 L 0.04183 -2.07793 L 0.03087 -2.08133 L 0.01883 -2.085 L 0.00571 -2.08893 L -0.00849 -2.09312 L -0.02378 -2.09756 L -0.04014 -2.10226 L -0.0576 -2.1072 L -0.06644 -2.1092 L -0.07524 -2.11137 L -0.084 -2.11373 L -0.0927 -2.11627 L -0.10135 -2.11899 L -0.10994 -2.12189 L -0.11847 -2.12496 L -0.12694 -2.12821 L -0.13533 -2.13163 L -0.14366 -2.13522 L -0.1519 -2.13899 L -0.16007 -2.14292 L -0.16816 -2.14702 L -0.17616 -2.15129 L -0.18407 -2.15573 L -0.19188 -2.16032 L -0.1996 -2.16507 L -0.20722 -2.16999 L -0.21474 -2.17506 L -0.22215 -2.18028 L -0.22945 -2.18565 L -0.23664 -2.19118 L -0.24371 -2.19685 L -0.25067 -2.20267 L -0.25691 -2.2091 L -0.26293 -2.21574 L -0.26873 -2.22258 L -0.27429 -2.22961 L -0.27962 -2.23682 L -0.2847 -2.2442 L -0.28952 -2.25176 L -0.2941 -2.25947 L -0.29841 -2.26733 L -0.30245 -2.27533 L -0.30622 -2.28346 L -0.30972 -2.29172 L -0.31293 -2.30008 L -0.31587 -2.30856 L -0.31851 -2.31712 L -0.32087 -2.32577 L -0.32294 -2.33449 L -0.32471 -2.34328 L -0.32618 -2.35212 L -0.32736 -2.36101 L -0.32824 -2.36993 L -0.32882 -2.37888 L -0.32909 -2.38784 L -0.32907 -2.3968 L -0.32903 -2.40283 L -0.32887 -2.40885 L -0.32857 -2.41487 L -0.32813 -2.42088 L -0.32757 -2.42688 L -0.32687 -2.43287 L -0.32603 -2.43884 L -0.32507 -2.44479 L -0.32397 -2.45071 L -0.32275 -2.45661 L -0.32139 -2.46249 L -0.3199 -2.46833 L -0.31829 -2.47413 L -0.31654 -2.4799 L -0.31467 -2.48563 L -0.31267 -2.49132 L -0.31055 -2.49696 L -0.3083 -2.50255 L -0.30593 -2.50809 L -0.30344 -2.51358 L -0.30082 -2.51901 L -0.29809 -2.52438 L -0.29524 -2.52969 L -0.29227 -2.53493 L -0.28915 -2.54022 L -0.2859 -2.54542 L -0.28252 -2.55054 L -0.27901 -2.55557 L -0.27537 -2.56051 L -0.27161 -2.56536 L -0.26772 -2.57011 L -0.26371 -2.57475 L -0.25959 -2.57929 L -0.25535 -2.58373 L -0.251 -2.58805 L -0.24654 -2.59226 L -0.24197 -2.59636 L -0.2373 -2.60034 L -0.23253 -2.60419 L -0.22766 -2.60793 L -0.22269 -2.61153 L -0.21764 -2.61501 L -0.2125 -2.61836 L -0.20727 -2.62157 L -0.20197 -2.62466 L -0.19658 -2.6276 L -0.19113 -2.6304 L -0.1856 -2.63307 L -0.17903 -2.63595 L -0.1724 -2.63871 L -0.16573 -2.64134 L -0.159 -2.64385 L -0.15223 -2.64623 L -0.14542 -2.64849 L -0.13856 -2.65062 L -0.13167 -2.65261 L -0.12474 -2.65448 L -0.11778 -2.65622 L -0.11078 -2.65783 L -0.10376 -2.65931 L -0.09671 -2.66066 L -0.08964 -2.66187 L -0.08254 -2.66295 L -0.07543 -2.6639 L -0.0683 -2.66471 L -0.06115 -2.66539 L -0.054 -2.66594 L -0.04683 -2.66636 L -0.03966 -2.66663 L -0.03249 -2.66678 L -0.02531 -2.66679 L -0.01813 -2.66667 L -0.00727 -2.66731 L 0.00361 -2.6676 L 0.0145 -2.66753 L 0.02538 -2.6671 L 0.03623 -2.66631 L 0.04706 -2.66517 L 0.05784 -2.66367 L 0.06857 -2.66181 L 0.07923 -2.6596 L 0.08981 -2.65704 L 0.1003 -2.65413 L 0.11069 -2.65088 L 0.12096 -2.64729 L 0.13111 -2.64336 L 0.14113 -2.6391 L 0.151 -2.63451 L 0.16072 -2.6296 L 0.17026 -2.62437 L 0.17963 -2.61883 L 0.18881 -2.61298 L 0.1978 -2.60684 L 0.20657 -2.6004 L 0.21513 -2.59367 L 0.22347 -2.58667 L 0.23026 -2.57956 L 0.23681 -2.57223 L 0.24311 -2.56468 L 0.24916 -2.55693 L 0.25495 -2.54899 L 0.26047 -2.54085 L 0.26572 -2.53254 L 0.27069 -2.52406 L 0.27538 -2.51541 L 0.27977 -2.50662 L 0.28388 -2.49768 L 0.28768 -2.48862 L 0.29118 -2.47943 L 0.29437 -2.47013 L 0.29725 -2.46073 L 0.29982 -2.45124 L 0.30207 -2.44167 L 0.304 -2.43203 L 0.30561 -2.42233 L 0.3069 -2.41259 L 0.30786 -2.4028 L 0.3085 -2.39299 L 0.30881 -2.38316 L 0.3088 -2.37333 L 0.13653 -2.3648 L 0.13612 -2.36975 L 0.13556 -2.37468 L 0.13485 -2.37959 L 0.134 -2.38449 L 0.13302 -2.38935 L 0.13189 -2.39419 L 0.13062 -2.39899 L 0.12921 -2.40375 L 0.12766 -2.40846 L 0.12598 -2.41313 L 0.12416 -2.41775 L 0.1222 -2.42232 L 0.12012 -2.42682 L 0.11791 -2.43127 L 0.11556 -2.43565 L 0.11309 -2.43995 L 0.1105 -2.44419 L 0.10779 -2.44834 L 0.10495 -2.45242 L 0.102 -2.45641 L 0.09893 -2.46031 L 0.09575 -2.46413 L 0.09246 -2.46784 L 0.08907 -2.47147 L 0.08527 -2.47432 L 0.08139 -2.47706 L 0.07742 -2.47968 L 0.07338 -2.48217 L 0.06927 -2.48455 L 0.06508 -2.4868 L 0.06083 -2.48892 L 0.05652 -2.49091 L 0.05215 -2.49277 L 0.04772 -2.49449 L 0.04325 -2.49608 L 0.03872 -2.49754 L 0.03416 -2.49885 L 0.02956 -2.50003 L 0.02492 -2.50107 L 0.02026 -2.50197 L 0.01557 -2.50272 L 0.01086 -2.50333 L 0.00613 -2.5038 L 0.00139 -2.50413 L -0.00336 -2.50431 L -0.00811 -2.50435 L -0.01286 -2.50425 L -0.0176 -2.504 L -0.0228 -2.50423 L -0.028 -2.5043 L -0.03319 -2.50423 L -0.03839 -2.50401 L -0.04358 -2.50364 L -0.04875 -2.50311 L -0.05391 -2.50245 L -0.05904 -2.50163 L -0.06415 -2.50066 L -0.06923 -2.49955 L -0.07428 -2.49829 L -0.07929 -2.49689 L -0.08425 -2.49535 L -0.08917 -2.49366 L -0.09404 -2.49183 L -0.09885 -2.48987 L -0.10361 -2.48776 L -0.1083 -2.48552 L -0.11293 -2.48315 L -0.11749 -2.48064 L -0.12197 -2.478 L -0.12637 -2.47524 L -0.1307 -2.47235 L -0.13493 -2.46933 L -0.13715 -2.46751 L -0.13929 -2.4656 L -0.14136 -2.46361 L -0.14335 -2.46154 L -0.14525 -2.4594 L -0.14707 -2.45718 L -0.1488 -2.45489 L -0.15044 -2.45254 L -0.15198 -2.45012 L -0.15343 -2.44764 L -0.15478 -2.44511 L -0.15603 -2.44253 L -0.15718 -2.4399 L -0.15823 -2.43723 L -0.15916 -2.43452 L -0.16 -2.43177 L -0.16072 -2.42899 L -0.16133 -2.42619 L -0.16183 -2.42337 L -0.16222 -2.42052 L -0.1625 -2.41767 L -0.16267 -2.4148 L -0.16272 -2.41194 L -0.16267 -2.40907 L -0.16264 -2.40632 L -0.16252 -2.40358 L -0.16231 -2.40084 L -0.162 -2.39811 L -0.16159 -2.39539 L -0.16109 -2.39269 L -0.16049 -2.39001 L -0.1598 -2.38735 L -0.15902 -2.38471 L -0.15815 -2.38211 L -0.15718 -2.37954 L -0.15613 -2.377 L -0.15498 -2.3745 L -0.15375 -2.37205 L -0.15244 -2.36963 L -0.15104 -2.36727 L -0.14956 -2.36496 L -0.148 -2.3627 L -0.14636 -2.36049 L -0.14465 -2.35834 L -0.14286 -2.35626 L -0.141 -2.35424 L -0.13906 -2.35229 L -0.13707 -2.3504 L -0.13101 -2.34643 L -0.12489 -2.34256 L -0.11871 -2.3388 L -0.11246 -2.33514 L -0.10615 -2.3316 L -0.09978 -2.32816 L -0.09335 -2.32483 L -0.08686 -2.32161 L -0.08032 -2.31851 L -0.07373 -2.31551 L -0.06709 -2.31263 L -0.0604 -2.30987 L -0.05366 -2.30722 L -0.04688 -2.30468 L -0.04006 -2.30226 L -0.03319 -2.29996 L -0.02629 -2.29778 L -0.01935 -2.29572 L -0.01238 -2.29378 L -0.00537 -2.29195 L 0.00166 -2.29025 L 0.00873 -2.28867 L 0.01582 -2.28721 L 0.02293 -2.28587 L 0.03099 -2.28396 L 0.03902 -2.28196 L 0.04703 -2.27987 L 0.05502 -2.2777 L 0.06299 -2.27545 L 0.07093 -2.2731 L 0.07884 -2.27067 L 0.08673 -2.26816 L 0.09459 -2.26556 L 0.10242 -2.26287 L 0.11022 -2.2601 L 0.11799 -2.25724 L 0.12573 -2.25431 L 0.13344 -2.25128 L 0.14111 -2.24818 L 0.14875 -2.24499 L 0.15636 -2.24172 L 0.16392 -2.23836 L 0.17146 -2.23493 L 0.17895 -2.23141 L 0.18641 -2.22781 L 0.19382 -2.22413 L 0.2012 -2.22037 L 0.20853 -2.21653 L 0.21345 -2.21356 L 0.2183 -2.21048 L 0.22307 -2.20729 L 0.22778 -2.20399 L 0.2324 -2.20059 L 0.23695 -2.19708 L 0.24142 -2.19347 L 0.2458 -2.18976 L 0.2501 -2.18595 L 0.25431 -2.18204 L 0.25844 -2.17804 L 0.26246 -2.17394 L 0.2664 -2.16976 L 0.27024 -2.16548 L 0.27398 -2.16112 L 0.27762 -2.15668 L 0.28116 -2.15216 L 0.2846 -2.14755 L 0.28793 -2.14287 L 0.29115 -2.13812 L 0.29426 -2.13329 L 0.29726 -2.12839 L 0.30016 -2.12343 L 0.30293 -2.1184 L 0.30588 -2.11244 L 0.3087 -2.10642 L 0.3114 -2.10034 L 0.31396 -2.09421 L 0.3164 -2.08803 L 0.3187 -2.08179 L 0.32088 -2.07551 L 0.32292 -2.06918 L 0.32483 -2.06282 L 0.32661 -2.05641 L 0.32825 -2.04997 L 0.32975 -2.04349 L 0.33112 -2.03699 L 0.33236 -2.03046 L 0.33345 -2.0239 L 0.33441 -2.01732 L 0.33523 -2.01072 L 0.33591 -2.00411 L 0.33645 -1.99748 L 0.33685 -1.99085 L 0.33711 -1.98421 L 0.33724 -1.97756 L 0.33722 -1.97091 L 0.33707 -1.96427 L 0.33703 -1.95749 L 0.33685 -1.95071 L 0.33652 -1.94393 L 0.33605 -1.93717 L 0.33542 -1.93042 L 0.33466 -1.92368 L 0.33374 -1.91696 L 0.33268 -1.91026 L 0.33148 -1.90359 L 0.33013 -1.89694 L 0.32863 -1.89033 L 0.327 -1.88375 L 0.32522 -1.8772 L 0.3233 -1.8707 L 0.32123 -1.86424 L 0.31903 -1.85782 L 0.31669 -1.85146 L 0.31422 -1.84515 L 0.3116 -1.83889 L 0.30885 -1.83269 L 0.30597 -1.82655 L 0.30296 -1.82048 L 0.29981 -1.81447 L 0.29653 -1.80853 L 0.2932 -1.80278 L 0.28972 -1.79712 L 0.28609 -1.79154 L 0.28232 -1.78607 L 0.27841 -1.78069 L 0.27436 -1.77542 L 0.27017 -1.77026 L 0.26585 -1.7652 L 0.26141 -1.76026 L 0.25683 -1.75543 L 0.25213 -1.75073 L 0.24731 -1.74615 L 0.24238 -1.7417 L 0.23732 -1.73737 L 0.23216 -1.73318 L 0.2269 -1.72913 L 0.22152 -1.72521 L 0.21605 -1.72143 L 0.21048 -1.7178 L 0.20482 -1.71431 L 0.19907 -1.71097 L 0.19324 -1.70778 L 0.18732 -1.70475 L 0.18133 -1.70187 L 0.17402 -1.69879 L 0.16665 -1.69585 L 0.15923 -1.69304 L 0.15176 -1.69037 L 0.14424 -1.68784 L 0.13667 -1.68545 L 0.12906 -1.68319 L 0.12142 -1.68107 L 0.11373 -1.6791 L 0.10601 -1.67727 L 0.09826 -1.67557 L 0.09048 -1.67402 L 0.08267 -1.67262 L 0.07483 -1.67135 L 0.06698 -1.67023 L 0.0591 -1.66926 L 0.05121 -1.66843 L 0.04331 -1.66774 L 0.03539 -1.6672 L 0.02747 -1.6668 L 0.01953 -1.66655 L 0.0116 -1.66644 L 0.00367 -1.66648 L -0.00427 -1.66667 L -0.01548 -1.6661 L -0.02671 -1.66591 L -0.03794 -1.66609 L -0.04916 -1.66663 L -0.06036 -1.66755 L -0.07152 -1.66883 L -0.08263 -1.67048 L -0.09367 -1.6725 L -0.10465 -1.67488 L -0.11554 -1.67762 L -0.12634 -1.68072 L -0.13703 -1.68417 L -0.1476 -1.68797 L -0.15804 -1.69212 L -0.16833 -1.69661 L -0.17847 -1.70143 L -0.18845 -1.70659 L -0.19825 -1.71207 L -0.20787 -1.71788 L -0.21729 -1.724 L -0.2265 -1.73042 L -0.2355 -1.73715 L -0.24427 -1.74416 L -0.2528 -1.75147 L -0.26058 -1.75987 L -0.26812 -1.76849 L -0.2754 -1.77733 L -0.28241 -1.78639 L -0.28916 -1.79564 L -0.29563 -1.80509 L -0.30182 -1.81472 L -0.30772 -1.82453 L -0.31334 -1.83452 L -0.31866 -1.84466 L -0.32367 -1.85495 L -0.32839 -1.86539 L -0.33279 -1.87596 L -0.33689 -1.88665 L -0.34067 -1.89746 L -0.34412 -1.90838 L -0.34726 -1.9194 L -0.35007 -1.9305 L -0.35255 -1.94168 L -0.35471 -1.95292 L -0.35653 -1.96423 L -0.35802 -1.97558 L -0.35918 -1.98698 L -0.36 -1.9984 L -0.19253 -2.01653 Z" />
    <path fill-rule="evenodd" d="M -0.16587 2.64853 L -0.16587 1.664 L 0.14933 1.664 L 0.15666 1.66363 L 0.16399 1.66339 L 0.17132 1.66327 L 0.17866 1.66328 L 0.18599 1.66342 L 0.19332 1.66369 L 0.20065 1.66409 L 0.20797 1.66461 L 0.21527 1.66527 L 0.22257 1.66605 L 0.22984 1.66695 L 0.23711 1.66799 L 0.24435 1.66915 L 0.25157 1.67043 L 0.25877 1.67184 L 0.26594 1.67338 L 0.27309 1.67504 L 0.2802 1.67683 L 0.28728 1.67874 L 0.29433 1.68078 L 0.30134 1.68293 L 0.30831 1.68521 L 0.31524 1.68761 L 0.32213 1.69013 L 0.32685 1.69279 L 0.3315 1.69558 L 0.33606 1.69849 L 0.34055 1.70153 L 0.34494 1.7047 L 0.34925 1.70799 L 0.35346 1.71139 L 0.35758 1.71491 L 0.3616 1.71855 L 0.36551 1.72229 L 0.36932 1.72614 L 0.37302 1.7301 L 0.37661 1.73415 L 0.38009 1.73831 L 0.38344 1.74256 L 0.38668 1.7469 L 0.3898 1.75134 L 0.39279 1.75585 L 0.39565 1.76045 L 0.39839 1.76513 L 0.40099 1.76987 L 0.40346 1.7747 L 0.4058 1.77958 L 0.408 1.78453 L 0.41074 1.79061 L 0.41336 1.79673 L 0.41587 1.80291 L 0.41826 1.80913 L 0.42054 1.81539 L 0.42269 1.8217 L 0.42473 1.82804 L 0.42664 1.83443 L 0.42844 1.84084 L 0.43011 1.84729 L 0.43166 1.85377 L 0.43309 1.86028 L 0.4344 1.86682 L 0.43558 1.87338 L 0.43664 1.87996 L 0.43757 1.88655 L 0.43838 1.89317 L 0.43906 1.8998 L 0.43962 1.90644 L 0.44006 1.91309 L 0.44036 1.91974 L 0.44055 1.92641 L 0.4406 1.93307 L 0.44053 1.93973 L 0.44074 1.94774 L 0.44075 1.95575 L 0.44055 1.96376 L 0.44016 1.97176 L 0.43956 1.97975 L 0.43877 1.98773 L 0.43778 1.99568 L 0.43658 2.0036 L 0.43519 2.01149 L 0.43361 2.01934 L 0.43182 2.02715 L 0.42984 2.03491 L 0.42767 2.04262 L 0.42531 2.05028 L 0.42275 2.05787 L 0.42001 2.0654 L 0.41708 2.07285 L 0.41396 2.08023 L 0.41066 2.08753 L 0.40717 2.09475 L 0.40351 2.10187 L 0.39967 2.1089 L 0.39565 2.11584 L 0.39147 2.12267 L 0.38719 2.12872 L 0.38271 2.13462 L 0.37802 2.14036 L 0.37314 2.14593 L 0.36807 2.15133 L 0.36282 2.15655 L 0.35738 2.16158 L 0.35178 2.16643 L 0.34601 2.17107 L 0.34008 2.17552 L 0.334 2.17975 L 0.32778 2.18377 L 0.32142 2.18757 L 0.31493 2.19115 L 0.30832 2.19451 L 0.3016 2.19763 L 0.29478 2.20051 L 0.28786 2.20316 L 0.28085 2.20556 L 0.27377 2.20772 L 0.26661 2.20963 L 0.25939 2.2113 L 0.25212 2.21271 L 0.2448 2.21387 L 0.24201 2.21862 L 0.23914 2.22334 L 0.23621 2.22801 L 0.23321 2.23264 L 0.23015 2.23723 L 0.22701 2.24177 L 0.22381 2.24626 L 0.22055 2.25071 L 0.21722 2.25511 L 0.21382 2.25946 L 0.21036 2.26376 L 0.20684 2.268 L 0.20326 2.2722 L 0.19962 2.27634 L 0.19591 2.28043 L 0.19215 2.28446 L 0.18833 2.28844 L 0.18445 2.29237 L 0.18051 2.29623 L 0.17652 2.30004 L 0.17247 2.30378 L 0.16837 2.30747 L 0.16421 2.3111 L 0.16 2.31467 L 0.16406 2.32105 L 0.16809 2.32745 L 0.17207 2.33388 L 0.176 2.34034 L 0.17989 2.34683 L 0.18374 2.35334 L 0.18754 2.35988 L 0.1913 2.36644 L 0.19502 2.37303 L 0.19869 2.37964 L 0.20232 2.38628 L 0.2059 2.39294 L 0.20944 2.39963 L 0.21293 2.40634 L 0.21637 2.41307 L 0.21978 2.41983 L 0.22313 2.42661 L 0.22644 2.43341 L 0.22971 2.44023 L 0.23292 2.44707 L 0.2361 2.45394 L 0.23922 2.46083 L 0.2423 2.46774 L 0.24533 2.47467 L 0.336 2.66667 L 0.15413 2.66667 L 0.04747 2.45333 L 0.04452 2.44713 L 0.04155 2.44094 L 0.03855 2.43477 L 0.03552 2.42861 L 0.03245 2.42246 L 0.02936 2.41633 L 0.02623 2.41022 L 0.02308 2.40412 L 0.01989 2.39804 L 0.01667 2.39198 L 0.01343 2.38593 L 0.01015 2.37989 L 0.00685 2.37387 L 0.00351 2.36787 L 0.00015 2.36189 L -0.00325 2.35592 L -0.00667 2.34997 L -0.01013 2.34404 L -0.01361 2.33812 L -0.01712 2.33222 L -0.02067 2.32634 L -0.02424 2.32047 L -0.02784 2.31463 L -0.03147 2.3088 L -0.03285 2.30664 L -0.03428 2.30452 L -0.03576 2.30242 L -0.03729 2.30037 L -0.03886 2.29834 L -0.04048 2.29635 L -0.04214 2.2944 L -0.04385 2.29249 L -0.04559 2.29061 L -0.04738 2.28878 L -0.04921 2.28698 L -0.05108 2.28523 L -0.05299 2.28352 L -0.05494 2.28185 L -0.05692 2.28023 L -0.05894 2.27865 L -0.061 2.27712 L -0.06308 2.27563 L -0.06521 2.27419 L -0.06736 2.2728 L -0.06954 2.27146 L -0.07176 2.27017 L -0.074 2.26893 L -0.07627 2.26773 L -0.07927 2.26666 L -0.08229 2.26564 L -0.08533 2.26467 L -0.08839 2.26375 L -0.09146 2.26289 L -0.09454 2.26207 L -0.09764 2.26131 L -0.10075 2.2606 L -0.10387 2.25995 L -0.107 2.25934 L -0.11014 2.25879 L -0.1133 2.2583 L -0.11645 2.25785 L -0.11962 2.25746 L -0.12279 2.25713 L -0.12597 2.25685 L -0.12915 2.25662 L -0.13234 2.25644 L -0.13552 2.25632 L -0.13871 2.25626 L -0.1419 2.25625 L -0.14509 2.25629 L -0.14828 2.25638 L -0.15147 2.25653 L -0.18187 2.25653 L -0.18187 2.66667 L -0.16587 2.64853 Z M -0.016 2.08 L 0.0944 2.08 L 0.10006 2.08034 L 0.10571 2.0806 L 0.11138 2.0808 L 0.11704 2.08092 L 0.12271 2.08097 L 0.12837 2.08094 L 0.13404 2.08085 L 0.1397 2.08068 L 0.14536 2.08044 L 0.15102 2.08013 L 0.15667 2.07975 L 0.16232 2.07929 L 0.16796 2.07877 L 0.17359 2.07817 L 0.17922 2.0775 L 0.18483 2.07676 L 0.19044 2.07594 L 0.19603 2.07506 L 0.20162 2.0741 L 0.20719 2.07308 L 0.21275 2.07198 L 0.21829 2.07081 L 0.22382 2.06957 L 0.22933 2.06827 L 0.23158 2.06716 L 0.23379 2.066 L 0.23597 2.06477 L 0.23811 2.06348 L 0.24021 2.06213 L 0.24227 2.06072 L 0.2443 2.05925 L 0.24628 2.05772 L 0.24821 2.05614 L 0.2501 2.0545 L 0.25194 2.05281 L 0.25374 2.05107 L 0.25548 2.04928 L 0.25717 2.04743 L 0.25881 2.04555 L 0.26039 2.04361 L 0.26191 2.04163 L 0.26338 2.03961 L 0.26479 2.03754 L 0.26615 2.03544 L 0.26744 2.0333 L 0.26866 2.03112 L 0.26983 2.02891 L 0.27093 2.02667 L 0.27227 2.02378 L 0.27356 2.02086 L 0.27478 2.01792 L 0.27595 2.01496 L 0.27706 2.01197 L 0.27811 2.00896 L 0.27909 2.00593 L 0.28002 2.00289 L 0.28089 1.99982 L 0.28169 1.99674 L 0.28243 1.99364 L 0.28312 1.99053 L 0.28374 1.9874 L 0.28429 1.98427 L 0.28479 1.98112 L 0.28522 1.97796 L 0.28559 1.9748 L 0.28589 1.97163 L 0.28614 1.96845 L 0.28632 1.96527 L 0.28643 1.96209 L 0.28648 1.9589 L 0.28647 1.95572 L 0.2864 1.95253 L 0.28651 1.94905 L 0.28653 1.94556 L 0.28647 1.94207 L 0.28633 1.93859 L 0.2861 1.93511 L 0.28579 1.93163 L 0.28539 1.92817 L 0.28491 1.92471 L 0.28434 1.92127 L 0.28369 1.91785 L 0.28296 1.91444 L 0.28214 1.91104 L 0.28125 1.90767 L 0.28027 1.90433 L 0.27921 1.901 L 0.27807 1.89771 L 0.27684 1.89444 L 0.27555 1.8912 L 0.27417 1.888 L 0.27271 1.88483 L 0.27118 1.8817 L 0.26957 1.8786 L 0.26789 1.87555 L 0.26613 1.87253 L 0.26463 1.87014 L 0.26305 1.8678 L 0.26139 1.86552 L 0.25965 1.86329 L 0.25785 1.86112 L 0.25597 1.85901 L 0.25403 1.85696 L 0.25202 1.85498 L 0.24994 1.85306 L 0.24781 1.85121 L 0.24561 1.84944 L 0.24336 1.84773 L 0.24105 1.84611 L 0.23869 1.84456 L 0.23628 1.84309 L 0.23382 1.84169 L 0.23132 1.84038 L 0.22878 1.83915 L 0.2262 1.83801 L 0.22358 1.83695 L 0.22093 1.83598 L 0.21824 1.8351 L 0.21553 1.83431 L 0.2128 1.8336 L 0.20837 1.83324 L 0.20393 1.8329 L 0.19949 1.83258 L 0.19506 1.83228 L 0.19062 1.83199 L 0.18617 1.83173 L 0.18173 1.83149 L 0.17729 1.83127 L 0.17285 1.83106 L 0.1684 1.83088 L 0.16396 1.83072 L 0.15951 1.83058 L 0.15506 1.83045 L 0.15062 1.83035 L 0.14617 1.83026 L 0.14172 1.8302 L 0.13727 1.83016 L 0.13282 1.83013 L 0.12837 1.83013 L 0.12393 1.83014 L 0.11948 1.83018 L 0.11503 1.83023 L 0.11058 1.83031 L 0.10613 1.8304 L -0.016 1.8304 L -0.016 2.08 Z" />
</svg>