<svg version="1.1" xmlns="http://www.w3.org/2000/svg" viewBox="-7.667 -5 15.334 10" fill="black" stroke="none"><path fill-rule="evenodd" d="M 2 3.404 L 2 4 L 2.445 4 L 2.445 3.493 L 3.29 3.662 L 3.377 3.227 L 2.445 3.04 L 2.445 2.556 L 6.667 2.556 L 6.667 2.111 L 2 2.111 L 2 2.951 L 0.222 2.596 L 0.222 2.222 L -0.222 2.222 L -0.222 2.507 L -2.2 2.111 L -6.666 2.101 L -6.667 2.545 L -2.244 2.556 L 2 3.404 Z M 0.222 -0.222 L 1.334 -0.222 L 1.334 -1.889 L 6.667 -1.889 L 6.667 -2.333 L 1.334 -2.333 L 1.334 -4 L -1.333 -4 L -1.333 -2.333 L -6.666 -2.333 L -6.666 -1.889 L -1.333 -1.889 L -1.333 -0.222 L -0.222 -0.222 L -0.222 0 L 0.222 0 L 0.222 -0.222 Z M -0.889 -0.667 L -0.889 -3.556 L 0.889 -3.556 L 0.889 -0.667 L -0.889 -0.667 Z M -0.222 0.889 L 0.222 0.889 L 0.222 0.444 L -0.222 0.444 L -0.222 0.889 Z M -0.222 1.778 L 0.222 1.778 L 0.222 1.333 L -0.222 1.333 L -0.222 1.778 Z" /></svg>