<svg version="1.1" xmlns="http://www.w3.org/2000/svg" viewBox="-6.998 -5 13.997 10" fill="black" stroke="none"><path fill-rule="evenodd" d="M 1.982 -2.624 L 1.7 -2.906 L 1.391 -1.75 L 2.546 -2.06 L 2.265 -2.342 L 3.64 -3.717 L 3.358 -4 L 1.982 -2.624 Z M 3.764 -0.842 L 5.14 -2.218 L 4.857 -2.5 L 3.482 -1.125 L 3.2 -1.407 L 2.89 -0.251 L 4.046 -0.56 L 3.764 -0.842 Z M -5.998 1.34 L -2.199 1.34 L -2.199 4 L 1.8 1.501 L 1.8 3.879 L 2.199 3.879 L 2.199 1.34 L 5.998 1.34 L 5.998 0.94 L 2.199 0.94 L 2.199 -1.599 L 1.8 -1.599 L 1.8 0.779 L -2.199 -1.72 L -2.199 0.94 L -5.998 0.94 L -5.998 1.34 Z M -1.8 3.279 L -1.8 -0.999 L 1.622 1.14 L -1.8 3.279 Z" /></svg>