<svg version="1.1" xmlns="http://www.w3.org/2000/svg" viewBox="-8.849 -5 17.698 10" fill="black" stroke="none"><path d="M 4.149 -4 L 3.7 -3.731 L 4.57 -2.281 L 1.256 -0.336 L 1.256 -2.531 L 0.733 -2.531 L 0.733 -0.029 L -0.733 0.831 L -0.733 -2.531 L -1.256 -2.531 L -1.256 0.449 L -7.849 0.449 L -7.849 0.972 L -1.256 0.972 L -1.256 1.138 L -5.365 3.549 L -5.1 4 L -1.256 1.744 L -1.256 3.957 L -0.733 3.957 L -0.733 1.437 L 0.733 0.578 L 0.733 3.957 L 1.256 3.957 L 1.256 1.001 L 7.849 1.001 L 7.849 0.478 L 1.256 0.478 L 1.256 0.271 L 4.839 -1.832 L 5.662 -0.46 L 6.111 -0.73 L 4.149 -4 Z" /></svg>