<svg version="1.1" xmlns="http://www.w3.org/2000/svg" viewBox="-4.2 -5 8.4 10.008" fill="black" stroke="none" data-name="threaded_insert" data-label="Threaded Insert" data-spec="{threaded_insert}" data-category="Misc"><path fill-rule="evenodd" d="M -2.4 -1 L -2.4 -2 L -3.2 -2 L -3.2 -4 L 3.2 -4 L 3.2 -2 L 2.4 -2 L 2.4 -1 L 2.4 0 L 3.2 0 L 3.2 2 L -3.2 2 L -3.2 0 L -2.4 0 L -2.4 -1 Z M 1.091 0.48 L 1.769 0.48 L 2.809 1.52 L 2.131 1.52 L 1.091 0.48 Z M -0.209 0.48 L 0.469 0.48 L 1.509 1.52 L 0.831 1.52 L -0.209 0.48 Z M -1.509 0.48 L -0.831 0.48 L 0.209 1.52 L -0.469 1.52 L -1.509 0.48 Z M -2.809 0.48 L -2.131 0.48 L -1.091 1.52 L -1.769 1.52 L -2.809 0.48 Z M 1.091 -3.52 L 1.769 -3.52 L 2.809 -2.48 L 2.131 -2.48 L 1.091 -3.52 Z M -0.209 -3.52 L 0.469 -3.52 L 1.509 -2.48 L 0.831 -2.48 L -0.209 -3.52 Z M -1.509 -3.52 L -0.831 -3.52 L 0.209 -2.48 L -0.469 -2.48 L -1.509 -3.52 Z M -2.809 -3.52 L -2.131 -3.52 L -1.091 -2.48 L -1.769 -2.48 L -2.809 -3.52 Z M -2.4 4.008 L 2.4 4.008 L 2.4 2.008 L -2.4 2.008 L -2.4 4.008 Z" /></svg>