<svg version="1.1" xmlns="http://www.w3.org/2000/svg" viewBox="-4.200001 -5.000001 8.400002 10.008002000000001" fill="black" stroke="none">
    <path fill-rule="evenodd" d="M -2.4 -1 L -2.4 -2 L -3.2 -2 L -3.2 -4 L 3.2 -4 L 3.2 -2 L 2.4 -2 L 2.4 -1 L 2.4 0 L 3.2 0 L 3.2 2 L -3.2 2 L -3.2 0 L -2.4 0 L -2.4 -1 Z M 1.0908 0.48 L 1.7692 0.48 L 2.8092 1.52 L 2.1308 1.52 L 1.0908 0.48 Z M -0.2092 0.48 L 0.4692 0.48 L 1.5092 1.52 L 0.8308 1.52 L -0.2092 0.48 Z M -1.5092 0.48 L -0.8308 0.48 L 0.2092 1.52 L -0.4692 1.52 L -1.5092 0.48 Z M -2.8092 0.48 L -2.1308 0.48 L -1.0908 1.52 L -1.7692 1.52 L -2.8092 0.48 Z M 1.0908 -3.52 L 1.7692 -3.52 L 2.8092 -2.48 L 2.1308 -2.48 L 1.0908 -3.52 Z M -0.2092 -3.52 L 0.4692 -3.52 L 1.5092 -2.48 L 0.8308 -2.48 L -0.2092 -3.52 Z M -1.5092 -3.52 L -0.8308 -3.52 L 0.2092 -2.48 L -0.4692 -2.48 L -1.5092 -3.52 Z M -2.8092 -3.52 L -2.1308 -3.52 L -1.0908 -2.48 L -1.7692 -2.48 L -2.8092 -3.52 Z M -2.4 4.008 L 2.4 4.008 L 2.4 2.008 L -2.4 2.008 L -2.4 4.008 Z" />
</svg>