<svg version="1.1" xmlns="http://www.w3.org/2000/svg" viewBox="-12.235 -7 24.47 14" fill="black" stroke="none"><path fill-rule="evenodd" d="M 1.73 -2.247 L 3.601 -5.488 L 3.143 -5.753 L 3.464 -6 L 3.027 -5.82 L 2.953 -5.863 L 2.897 -5.766 L 0.844 -4.92 L 1.219 -4.271 L 2.686 -5.401 L 0.865 -2.247 L -6.46 -2.247 L -6.46 -0.374 L -11.235 -0.374 L -11.235 0.374 L -6.46 0.374 L -6.46 2.247 L -1.73 2.247 L -3.601 5.488 L -3.143 5.753 L -3.464 6 L -3.027 5.82 L -2.953 5.863 L -2.897 5.766 L -0.844 4.92 L -1.219 4.271 L -2.686 5.401 L -0.865 2.247 L 6.46 2.247 L 6.46 0.374 L 11.235 0.374 L 11.235 -0.374 L 6.46 -0.374 L 6.46 -2.247 L 1.73 -2.247 Z M 1.297 -1.498 L 5.711 -1.498 L 5.711 1.498 L -0.432 1.498 L 1.297 -1.498 Z M -1.297 1.498 L -5.711 1.498 L -5.711 -1.498 L 0.432 -1.498 L -1.297 1.498 Z" /></svg>