<svg version="1.1" xmlns="http://www.w3.org/2000/svg" viewBox="-12.234921650995709 -6.999999127513225 24.469843301991418 13.99999825502645" fill="black" stroke="none">
    <path fill-rule="evenodd" d="M 1.72973 -2.24698 L 3.60118 -5.48843 L 3.14314 -5.75287 L 3.4641 -6 L 3.02714 -5.81985 L 2.95253 -5.86292 L 2.89658 -5.76602 L 0.84442 -4.91996 L 1.21892 -4.27131 L 2.6856 -5.40059 L 0.86486 -2.24698 L -6.46008 -2.24698 L -6.46008 -0.3745 L -11.23492 -0.3745 L -11.23492 0.3745 L -6.46008 0.3745 L -6.46008 2.24698 L -1.72973 2.24698 L -3.60118 5.48843 L -3.14314 5.75287 L -3.4641 6 L -3.02714 5.81985 L -2.95253 5.86292 L -2.89658 5.76602 L -0.84442 4.91996 L -1.21892 4.27131 L -2.6856 5.40059 L -0.86486 2.24698 L 6.46008 2.24698 L 6.46008 0.3745 L 11.23492 0.3745 L 11.23492 -0.3745 L 6.46008 -0.3745 L 6.46008 -2.24698 L 1.72973 -2.24698 Z M 1.2973 -1.49799 L 5.71108 -1.49799 L 5.71108 1.49799 L -0.43243 1.49799 L 1.2973 -1.49799 Z M -1.2973 1.49799 L -5.71108 1.49799 L -5.71108 -1.49799 L 0.43243 -1.49799 L -1.2973 1.49799 Z" />
</svg>